<?xml version="1.0" encoding="UTF-8" standalone="no"?>
<!-- Created with Inkscape (http://www.inkscape.org/) -->

<svg
   xmlns:svg="http://www.w3.org/2000/svg"
   xmlns="http://www.w3.org/2000/svg"
   version="1.1"
   width="377"
   height="480"
   id="svg3772">
  <defs
     id="defs3776" />
  <path
     d="M 187.81775,477.41576 C 377.42569,379.42293 375.03272,230.7334 375.59055,1.6242838 L 1.6525424,1.4618629 C 3.2590739,233.81194 -0.20629291,382.60659 187.81775,477.41576 z"
     id="path3784"
     style="fill:#f0ed00;fill-opacity:1;stroke:#000000;stroke-width:2.5;stroke-linecap:butt;stroke-linejoin:miter;stroke-miterlimit:4;stroke-opacity:1;stroke-dasharray:none" />
  <path
     d="m 67.95416,173.93662 27.01088,0.0899 0.08989,29.03332 10.96614,-0.0899 0,-28.89849 32.04453,0 -0.0899,28.98838 11.05603,-0.0899 0,-29.03332 34.02203,0.0899 -0.0899,50.96562 -9.77901,0.0581 -0.15346,106.00791 29.98837,-0.0449 0.0337,-106.18356 -9.91929,-0.0636 0.0768,-50.73957 32.80855,0 0.0899,29.07826 9.9774,-0.0899 -0.13483,-29.03333 32.04452,0 0,29.03333 10.96614,0 0,-29.03333 28.04458,0.0899 0.11145,50.99211 L 276.03814,225 298.96235,368.04642 78.94278,367.95653 100.01059,225 l -32.065675,0 0.0092,-51.06338 4.5e-5,0 z"
     id="path4318"
     style="fill:#000000;stroke:none" />
  <path
     d="m 311.54645,141.39772 c -11.55516,0.59327 -23.04609,3.19676 -33.70742,1.3483 -3.82947,-0.66395 -2.22807,-8.5864 1.09106,-9.8117 6.8936,-2.54487 13.28389,3.93392 19.92584,0.92161 3.11595,-6.3511 -10.21099,-21.81588 -22.37288,-25.67796 -19.84869,-6.30307 -18.42124,-20.670759 -25.68964,-22.589891 -5.82506,16.222331 -35.27839,54.264491 -38.64407,54.788131 l -22.9968,1.10684 c -1.28753,0.062 -1.35613,-10.54223 5.21187,-10.42373 4.53188,0.0818 9.1223,2.95441 13.60169,0.25424 7.13998,-4.30398 8.53418,-14.88151 6.73729,-18.68644 -2.62427,-5.55692 -1.16165,-14.873356 2.54237,-22.754239 1.45016,-3.085439 5.7961,-4.328028 8.89831,-6.355933 -0.42305,-2.80327 -3.8085,-2.043862 -5.59322,-1.398305 -15.45502,5.590292 -15.78472,7.86923 -52.0878,1.637121 -3.95148,-0.678345 -5.85511,0.04885 -4.60712,3.701862 0.87053,2.548145 5.99473,5.580961 5.08475,9.533899 -4.80154,20.857715 10.10259,39.808185 3.96248,42.584745 -6.63458,3.00016 -16.25069,-2.18493 -30.14892,3.17797 -3.2105,1.48947 -5.2546,-12.67368 1.3983,-12.07627 4.98576,0.44771 11.69492,1.87039 17.54238,0.76271 3.22249,-0.61043 2.07046,-3.02873 0.88983,-4.95763 L 138.65824,87.392195 c -5.28398,-8.622118 -6.97828,0.142561 -7.81328,10.275897 -0.63005,7.646148 -31.356616,19.648348 -36.904282,31.103098 -1.248892,2.5787 -2.13551,4.18233 -3.305085,4.19491 l -23.644067,0.25424 c -2.354701,0.0253 -4.433655,-9.19305 0,-9.78814 7.461826,-1.00154 15.77432,3.09773 19.322034,0 10.10124,-8.82003 14.72414,-36.867773 25.42373,-44.74576 2.11375,-1.556328 -3.08841,-2.893043 -6.48305,-8.771187 C 104.5236,68.650081 98.779355,69.146559 94.322034,67.37288 L 77.79661,66.864406 c 0,0 -2.532159,-3.394798 -2.225124,-3.312796 1.164179,0.310927 5.072774,-0.702018 7.613367,-3.474335 0.195846,-0.213708 1.258591,3.137457 2.649731,2.683418 0.594392,-0.193997 1.035933,-0.673463 1.436986,-1.128067 2.102948,-2.38375 -1.279191,-6.621184 2.542618,-4.663529 0.382213,0.195782 1.836322,2.602709 2.791745,2.331749 1.909624,-0.541573 1.759504,-1.616958 1.169847,-3.474501 -0.297024,-0.935688 -1.310609,-1.378043 -2.167203,-0.244391 -2.554285,3.380446 -4.895404,1.914963 -5.135166,-1.206289 -0.199467,-2.596681 -6.142614,-0.48362 -3.210559,3.613738 0.83743,1.170255 5.024071,-2.409459 5.095443,-2.18628 0.582066,1.820111 -4.13655,4.980957 -4.685131,5.319462 -1.746697,1.077806 -5.682693,-3.350489 -6.508595,-1.91233 -2.469154,-0.506788 -3.765127,-3.919044 -5.096945,-5.693775 -1.047492,-3.350253 7.029807,-5.646093 5.43884,-8.181391 -2.196952,-3.500971 -7.266818,-3.437928 -9.362611,-3.025843 -1.17126,0.230299 4.531607,5.948967 6.699508,7.022595 0.652312,0.32305 -1.890595,4.947908 -2.581477,4.320163 -2.023,-1.838129 -7.692273,-12.492854 -4.678385,-12.61901 5.407751,-1.629578 9.33397,-0.09567 15.107179,-1.24486 1.783815,-1.228529 0.586214,-4.348237 3.81356,-4.957627 4.260787,-0.804525 8.938119,-5.57825 18.177962,-1.016949 0.93119,-1.440678 -0.12829,-2.881356 -0.50847,-4.322034 -0.75875,-2.875259 4.12083,-5.082037 8.39054,-4.711199 3.87913,0.336914 7.28719,2.896863 7.11793,4.711199 -0.23754,2.546266 -2.58469,3.474577 -1.46186,5.211865 7.05739,2.002814 11.22574,-6.644385 17.66949,-6.927966 41.94539,-1.845964 38.1644,9.037314 58.41102,8.898305 22.09253,-0.151683 36.51895,-8.302181 48.20694,-3.96436 10.99182,4.079449 19.59238,0.653313 23.61509,4.155038 7.01162,6.103541 16.57757,11.935399 27.36322,17.168728 2.86918,1.392161 2.61408,6.476957 7.05509,9.851695 1.59498,1.212032 -0.28519,5.489133 -2.19373,4.314322 l -4.38559,-3.050847 c -1.19189,-0.829145 -2.69759,1.908812 -1.39831,2.669492 10.91457,6.390104 9.42131,27.993535 14.23013,52.392374 1.43248,7.26806 8.28025,21.00644 4.75276,21.18755 z"
     id="path4320"
     style="fill:#000000;stroke:none" />
  <path
     d="m 277.36843,133.6293 c -3.28885,-1.68643 -8.57302,-0.51369 -10.01127,2.14415 3.81611,-0.89028 7.00312,-0.23959 9.7216,0.35009 0.88623,0.19224 1.21794,-2.01788 0.28967,-2.49424 z"
     id="path4322-8"
     style="fill:#f0ed00;fill-opacity:1;stroke:#000000;stroke-width:0.78827828px;stroke-linecap:butt;stroke-linejoin:miter;stroke-opacity:1" />
  <path
     d="m 142.21398,139.19491 c -4.43196,-0.061 -8.64507,4.51737 -8.04025,8.58051 3.01013,-3.35863 6.56825,-4.48419 9.62924,-5.40254 0.99788,-0.29938 -0.3378,-3.1603 -1.58899,-3.17797 z"
     id="path4322"
     style="fill:#f0ed00;fill-opacity:1;stroke:#000000;stroke-width:1px;stroke-linecap:butt;stroke-linejoin:miter;stroke-opacity:1" />
  <path
     d="m 142.02413,135.5112 c -4.07486,-1.74398 -9.71391,0.88526 -10.70179,4.87262 4.06225,-1.95945 7.78091,-1.64538 10.96099,-1.32901 1.0367,0.10313 0.89101,-3.05086 -0.2592,-3.54361 z"
     id="path4322-5"
     style="fill:#f0ed00;fill-opacity:1;stroke:#000000;stroke-width:1px;stroke-linecap:butt;stroke-linejoin:miter;stroke-opacity:1" />
  <path
     d="m 142.50601,131.69517 c -3.70858,-2.42743 -9.71955,-0.82116 -11.38719,2.93302 4.34156,-1.22152 7.94859,-0.2642 11.02487,0.60154 1.00287,0.28223 1.40905,-2.8489 0.36232,-3.53456 z"
     id="path4322-7"
     style="fill:#f0ed00;fill-opacity:1;stroke:#000000;stroke-width:1px;stroke-linecap:butt;stroke-linejoin:miter;stroke-opacity:1" />
  <path
     d="m 192.5892,131.20811 c -3.5995,-2.3049 -9.39437,-0.72001 -10.97859,2.89689 4.18504,-1.20363 7.67602,-0.30975 10.65368,0.49991 0.97073,0.26394 1.34087,-2.74571 0.32492,-3.39677 z"
     id="path4322-1"
     style="fill:#f0ed00;fill-opacity:1;stroke:#000000;stroke-width:0.96314138px;stroke-linecap:butt;stroke-linejoin:miter;stroke-opacity:1" />
  <path
     d="m 192.51178,134.61254 c -4.26738,-1.15653 -9.56626,1.90214 -10.0703,5.69652 3.80932,-2.26382 7.55,-2.3887 10.75465,-2.45133 1.04473,-0.0204 0.52026,-2.91828 -0.68435,-3.24519 z"
     id="path4322-2"
     style="fill:#f0ed00;fill-opacity:1;stroke:#000000;stroke-width:0.9661563px;stroke-linecap:butt;stroke-linejoin:miter;stroke-opacity:1" />
  <path
     d="m 193.38615,137.99169 c -4.41668,-0.44856 -9.04442,3.52998 -8.81701,7.44364 3.31448,-2.92571 6.96904,-3.6815 10.10837,-4.28423 1.02343,-0.19649 -0.0445,-3.03234 -1.29136,-3.15941 z"
     id="path4322-22"
     style="fill:#f0ed00;fill-opacity:1;stroke:#000000;stroke-width:0.97784537px;stroke-linecap:butt;stroke-linejoin:miter;stroke-opacity:1" />
  <path
     d="m 277.4659,139.67191 c -4.43196,-0.061 -8.64507,4.51737 -8.04025,8.58051 3.01013,-3.35863 6.56825,-4.48419 9.62924,-5.40254 0.99788,-0.29938 -0.3378,-3.1603 -1.58899,-3.17797 z"
     id="path4322-6"
     style="fill:#f0ed00;fill-opacity:1;stroke:#000000;stroke-width:1px;stroke-linecap:butt;stroke-linejoin:miter;stroke-opacity:1" />
  <path
     d="m 277.29554,136.18414 c -4.57659,-0.70099 -9.65673,3.05496 -9.67019,7.01826 3.64336,-2.76701 7.50241,-3.32455 10.81442,-3.75654 1.07971,-0.14081 0.14776,-3.06339 -1.14423,-3.26172 z"
     id="path4322-57"
     style="fill:#f0ed00;fill-opacity:1;stroke:#000000;stroke-width:1.00491321px;stroke-linecap:butt;stroke-linejoin:miter;stroke-opacity:1" />
  <path
     d="m 66.36037,130.00674 c -4.43196,-0.061 -8.64507,4.51737 -8.04025,8.58051 3.01013,-3.35863 6.56825,-4.48419 9.629239,-5.40254 0.99788,-0.29938 -0.337799,-3.1603 -1.588989,-3.17797 z"
     id="path4322-27"
     style="fill:#f0ed00;fill-opacity:1;stroke:#000000;stroke-width:1px;stroke-linecap:butt;stroke-linejoin:miter;stroke-opacity:1" />
  <path
     d="m 66.195332,123.39197 c -3.650595,-1.99441 -9.372414,-0.40473 -10.843307,2.91583 4.13056,-1.20157 7.631747,-0.48342 10.619501,0.17197 0.974003,0.21366 1.25419,-2.52442 0.223806,-3.0878 z"
     id="path4322-23"
     style="fill:#f0ed00;fill-opacity:1;stroke:#000000;stroke-width:0.91530418px;stroke-linecap:butt;stroke-linejoin:miter;stroke-opacity:1" />
  <path
     d="m 65.743167,126.86894 c -4.171507,-1.4159 -9.689057,1.26655 -10.477143,4.98292 3.971414,-1.99258 7.71361,-1.87638 10.916237,-1.73301 1.044053,0.0467 0.738416,-2.8498 -0.439094,-3.24991 z"
     id="path4322-4"
     style="fill:#f0ed00;fill-opacity:1;stroke:#000000;stroke-width:0.96164519px;stroke-linecap:butt;stroke-linejoin:miter;stroke-opacity:1" />
  <path
     d="m 93.794806,41.758941 c -0.633584,0.662564 -0.671316,1.447274 0.209443,1.902224 1.476424,0.762637 7.948721,1.383819 9.555891,-0.02606 0.98702,-0.865849 0.58229,-2.676912 -0.65451,-3.231177 -2.67407,-1.198375 -7.724506,-0.09473 -9.110824,1.35501 z"
     id="path4458"
     style="fill:#f0ed00;fill-opacity:1;stroke:none" />
  <path
     d="m 96.496122,39.821859 c -0.539034,1.661522 -0.303933,4.056628 0.417629,5.126452 l 1.821341,0.124361 c 0.679634,-1.770811 0.664367,-4.378177 0.359624,-5.388992 l -2.598594,0.138179 z"
     id="path4462"
     style="fill:#000000;fill-opacity:1;stroke:none" />
  <path
     d="m 82.799315,60.905619 c -0.626613,-0.613818 -11.253287,-2.232678 -16.702464,0.04735 -3.5104,1.468815 -0.382529,3.801554 0.633541,3.598891 5.753831,-1.147639 10.68394,-0.386821 15.320192,0.426186 l 0.748731,-4.072432 z"
     id="path4602"
     style="fill:#000000;fill-opacity:1;stroke:none" />
</svg>
