<?xml version="1.0" encoding="UTF-8" standalone="no"?>
<!-- Created with Inkscape (http://www.inkscape.org/) -->

<svg
   xmlns:svg="http://www.w3.org/2000/svg"
   xmlns="http://www.w3.org/2000/svg"
   xmlns:xlink="http://www.w3.org/1999/xlink"
   version="1.1"
   width="390"
   height="480"
   id="svg4228">
  <defs
     id="defs4232" />
  <path
     d="m 0.51202379,0.50512952 c 129.66265621,0 259.32532621,0 388.98797621,0 C 389.48983,115.23328 370.33544,349.8309 194.89467,479.37706 21.249382,349.77255 0.5931986,115.2575 0.51202379,0.50512952 z"
     id="path4240-0-1"
     style="fill:#d9d9d9;fill-opacity:1;stroke:#999999;stroke-width:0.99999905;stroke-opacity:1" />
  <use
     transform="translate(-59.657795,155.36122)"
     id="use2986"
     x="0"
     y="0"
     width="390"
     height="480"
     xlink:href="#path2827-1" />
  <path
     d="m 154.04,19.184358 c 2.25947,2.93085 5.01427,5.29305 8.26272,7.75424 3.11473,2.35988 13.77912,2.54589 8.5805,-7.62712 -1.14285,-2.23641 -3.16443,-3.95445 -5.08474,-5.84746 -1.46747,-1.44661 4.80223,-6.7140493 6.61017,-5.6567793 1.97823,1.15686 8.98382,5.7176793 9.85169,9.7881393 0.89912,4.21705 1.48474,8.45459 -0.82627,12.58474 -4.3996,7.86281 -27.29186,21.98688 -21.54661,23.32627 7.70108,1.79535 21.416,-7.52431 42.55048,-9.00548 18.47759,-1.29496 33.86287,9.77917 42.98779,14.19842 20.17007,9.76848 64.01495,30.413831 81.27317,38.059177 l -2.00212,31.620765 c -0.52761,8.33295 3.43658,18.37224 16.84322,18.30509 -5.08117,16.59993 -5.30709,37.61373 -5.21186,58.91949 l -8.83475,8.58051 c -0.75566,-17.92677 -1.98098,-36.3232 -1.86496,-53.37829 -12.36725,-7.58241 -26.88902,-12.57941 -37.03334,-22.82934 l 14.06735,25.57088 c -14.23661,14.36051 -28.51345,28.73107 -39.01072,42.15674 l -10.02234,-0.0449 c 4.5121,-11.73533 27.70826,-32.04599 29.03333,-41.93203 -3.53927,-10.95617 -28.31106,-15.27441 -33.8872,-34.33663 -12.00208,1.18905 -22.1276,2.75341 -38.56129,3.05614 -0.89196,22.02121 -0.0366,46.95464 0.42696,71.23502 l -7.93248,5.95498 c -6.14626,-24.9656 -9.37274,-50.55245 -12.8987,-76.8754 -0.36843,-2.75051 -27.35965,-6.68488 -27.10077,-4.04489 l 2.06739,35.01078 -9.16842,9.97739 -6.24711,-49.97686 c -0.78052,-6.24421 2.21665,-9.66027 8.35944,-9.39314 10.38677,0.45168 17.93173,-0.0828 25.93812,-2.5127 -9.48372,-6.30889 -16.59461,-14.127775 -23.48517,-22.086861 -3.02977,1.69505 -6.75465,5.02035 -9.08898,5.084736 -3.53536,0.0975 -5.21749,-13.374837 -10.07415,-12.108047 -3.00653,0.78421 -5.60023,2.31471 -8.86652,2.92373 -3.5308,0.65834 -5.28359,-3.3409 -8.04026,-2.79661 -2.23196,0.44069 -4.13736,4.74518 -5.44538,5.160151 -14.89645,4.72586 -17.59038,-12.528421 -6.42019,-18.203141 11.19369,-5.68667 20.40422,-5.93764 32.26923,-14.47172 -11.65701,-3.18681 -22.53891,-4.38663 -27.90974,-13.03353 -1.22207,-1.96751 4.94703,-7.27753 6.337,-4.9887 1.50768,2.48268 3.22649,4.54312 5.21341,6.06733 3.8115,2.92387 7.14199,-0.14266 5.57296,-3.68534 l -1.48313,-5.25836 c -0.67642,-2.39822 6.08252,-4.17392 6.60082,-2.29849 l 2.33066,8.43336 c 1.54277,5.58242 13.9958,5.36759 15.0541,-3.13458 0.69162,-5.55643 -5.96364,-7.58375 -8.79348,-11.75859 -1.1444,-1.68834 5.40653,-8.04439 6.61017,-6.48309 z"
     id="path2827-1"
     style="fill:#207dbf;fill-opacity:1;stroke:none" />
</svg>
