<?xml version="1.0" encoding="UTF-8" standalone="no"?>
<!-- Created with Inkscape (http://www.inkscape.org/) -->

<svg
 xmlns:dc="http://purl.org/dc/elements/1.1/"
 xmlns:cc="http://creativecommons.org/ns#"
 xmlns:rdf="http://www.w3.org/1999/02/22-rdf-syntax-ns#"
 xmlns:svg="http://www.w3.org/2000/svg"
 xmlns="http://www.w3.org/2000/svg"
 xmlns:xlink="http://www.w3.org/1999/xlink"
 version="1.1"
 width="390"
 height="480"
 id="svg4228">
<metadata
 id="metadata10">
<rdf:RDF>
<cc:Work
 rdf:about="">
<dc:format>image/svg+xml</dc:format>
<dc:type
 rdf:resource="http://purl.org/dc/dcmitype/StillImage" />
<dc:title></dc:title>
</cc:Work>
</rdf:RDF>
</metadata>
<defs
 id="defs4232" />
<path
 d="M 0,0 C 130,0 260,0 390,0 389.98981,114.99797 370.78556,350.14732 194.88837,479.99815 20.79131,350.08886 0.081386,115.02225 0,0 z"
 id="path4240-0"
 style="fill:#d61a1a;fill-opacity:1;stroke:none" />
<path
 d="M 58.657588,35.428014 C 111.07855,78.868342 162.32284,117.45442 233.09761,156.27166 c -12.79014,20.70643 -18.74375,54.41992 0.83235,74.62328 15.41316,-8.19691 25.05195,-21.13224 30.93385,-30.46693 l 22.71087,28.84928 c -16.00575,3.33121 -25.32979,7.30912 -32.78984,13.44416 -8.81248,7.24727 -2.48901,11.84737 1.86771,19.22407 5.71399,9.67477 16.95641,22.22356 40.1957,40.62257 -9.26603,12.17637 -25.2898,25.25661 -40.03891,32.45136 -12.08407,-28.82802 -17.5569,-39.7915 -27.93889,-55.07725 -5.6494,-8.3178 -9.01129,-8.29413 -16.41909,-3.98889 -12.48879,7.25819 -20.03235,16.12387 -26.96498,27.19844 l -19.14397,-29.76654 c 14.26527,-4.15423 29.86657,-13.32937 37.76093,-22.3558 C 192.36273,235.41619 169.31153,221.54586 132.02335,229.72763 118.5724,158.56479 90.459743,90.54457 58.657588,35.428014 z"
 id="path2837"
 style="fill:#f2f2f2;stroke:none" />
<use
 transform="matrix(0.6335152,0,0,0.6335152,165.80526,19.341763)"
 id="use3755"
 x="0"
 y="0"
 width="390"
 height="480"
 xlink:href="#path2837" />
<use
 transform="matrix(0.6338562,0,0,0.6338562,-10.202038,152.2291)"
 id="use3757"
 x="0"
 y="0"
 width="390"
 height="480"
 xlink:href="#path2837" />
</svg>
