<?xml version="1.0" encoding="UTF-8" standalone="no"?>
<!-- Created with Inkscape (http://www.inkscape.org/) -->

<svg
   xmlns:svg="http://www.w3.org/2000/svg"
   xmlns="http://www.w3.org/2000/svg"
   version="1.1"
   width="390"
   height="480"
   id="svg4228">
  <defs
     id="defs4232" />
  <path
     d="m 0.51202379,0.50512952 c 129.66265621,0 259.32532621,0 388.98797621,0 C 389.48983,115.23328 370.33544,349.8309 194.89467,479.37706 21.249382,349.77255 0.5931986,115.2575 0.51202379,0.50512952 z"
     id="path4240-0-1"
     style="fill:#faf700;fill-opacity:1;stroke:#9e832a;stroke-width:0.99999905;stroke-opacity:1" />
  <path
     d="m 145.42982,143.38596 -6.62156,12.14114 c -19.62171,-13.80404 -44.002462,3.91482 -70.893279,-11.11936 -7.9079,-4.42117 -18.733757,-14.86554 -19.80395,-28.00877 10.785416,9.57555 17.391564,16.6858 30.617149,19.71432 24.60991,5.63542 43.8804,-5.61197 66.70164,7.27267 z"
     id="path2853"
     style="fill:#d61a1a;fill-opacity:1;stroke:none" />
  <path
     d="m 79.085603,80.194549 c -4.2037,-3.650647 -3.391389,-8.973298 -3.093385,-14.124513 l 36.945522,-0.233463 c 31.50374,-1.776604 19.66335,-24.005248 81.30351,-24.63035 20.24207,-0.205278 40.79171,1.574717 61.63424,6.828793 4.16342,-3.754864 7.39073,-8.965992 12.49027,-11.264591 11.93733,-5.380708 38.20658,8.886172 20.42801,32.684825 8.14251,14.176313 11.98419,28.339107 11.43969,48.91051 -0.52302,19.76022 -11.16757,51.90752 4.55253,81.94552 -2.56392,0.48641 -5.43816,0.551 -8.63813,-0.81712 -1.9028,24.36662 -0.32112,40.95479 17.62646,59.41635 -6.83248,1.12611 -13.04923,0.0356 -18.32685,-4.4358 -7.44916,21.20131 -2.38118,49.13356 27.43191,31.40078 -4.28685,9.87402 -17.94791,20.54987 -38.5214,20.42801 -16.15218,-0.0957 -25.79778,-8.64909 -38.05448,-13.89105 -16.8847,15.44346 -14.15525,50.77097 -40.50583,56.49806 8.65291,-24.35632 3.5881,-49.48924 -9.33853,-60.3502 -37.64834,11.59443 -31.80754,49.70334 -81.1284,46.92607 9.6389,-11.32364 31.98864,-30.03008 31.98444,-50.31128 -32.06292,-15.95273 -47.63898,14.88271 -76.926075,0.11673 8.566715,-2.92654 26.384047,-14.73259 31.634245,-29.64981 -18.631215,-4.53369 -47.416355,-21.84268 -47.626462,-50.66147 13.318552,11.78898 30.603611,23.74434 45.758752,10.73929 -5.714528,-0.89958 -11.676747,-4.15968 -13.540854,-7.23735 16.204584,-0.43348 39.563814,-5.28957 51.595334,-26.61479 -5.40524,1.47127 -11.30959,3.48164 -17.74319,0.46693 5.11578,-1.73289 9.34999,-4.73916 11.67315,-10.50584 -11.14333,2.08284 -28.01012,1.91097 -29.76654,-1.98443 -1.72323,-3.82178 -1.54696,-8.47691 -0.70039,-13.42413 1.60915,-0.12364 3.78286,0.70199 5.13619,-3.38521 0.25696,-1.95571 1.34584,-4.86218 2.68482,-8.05448 4.50579,7.8279 8.73306,12.4734 12.9572,12.84047 6.4309,0.55883 17.9133,0.0755 18.09339,-17.74319 0.23403,-23.15489 -7.65904,-33.20248 -31.98444,-31.63424 -2.0244,4.59039 -4.82879,8.40078 -7.93774,11.90661 -3.062041,-6.31071 -4.918849,-10.92006 -10.739301,-12.607 -6.081754,-1.76268 -13.816542,-8.72477 -10.797666,-27.548641 z"
     id="path2827"
     style="fill:#000000;stroke:none" />
  <path
     d="m 151.86771,73.472561 a 9.2217905,3.0422678 0 0 1 -18.44358,0 9.2217905,3.0422678 0 1 1 18.44358,0 z"
     id="path2851"
     style="opacity:0.98999999;fill:#faf700;fill-opacity:1;fill-rule:evenodd;stroke:none" />
</svg>
