<?xml version="1.0" encoding="UTF-8" standalone="no"?>
<!-- Created with Inkscape (http://www.inkscape.org/) -->

<svg
   xmlns:svg="http://www.w3.org/2000/svg"
   xmlns="http://www.w3.org/2000/svg"
   version="1.1"
   width="420"
   height="480"
   id="svg4228">
  <defs
     id="defs4232" />
  <path
     d="m 0.5070884,0.50209145 c 139.6632216,0 279.3264716,0 418.9897016,0 C 419.48584,115.23404 398.85409,349.83946 209.88201,479.38992 22.84387,349.78113 0.59452403,115.25827 0.5070884,0.50209145 z"
     id="path4240-0"
     style="color:#000000;fill:#008c31;fill-opacity:1;fill-rule:nonzero;stroke:#9e832a;stroke-width:0.99771082;stroke-opacity:1;marker:none;visibility:visible;display:inline;overflow:visible;enable-background:accumulate" />
  <path
     d="m 34.682468,231.50861 40.462609,-80.31326 c 3.855766,-7.65322 -2.234657,-9.2138 -5.213415,-6.56172 -14.861473,13.23163 -24.074804,21.3365 -34.786058,15.64025 -10.95632,-5.82657 -12.022986,-39.80385 1.438183,-47.54994 9.944212,-5.72229 25.633404,8.63827 33.707421,16.98854 3.530173,3.65096 8.473652,0.0476 4.584209,-4.49432 -8.271323,-9.65889 -18.723201,-18.78338 -17.437972,-30.381622 1.959788,-17.685625 48.126165,-18.800569 50.156645,0.808979 1.16269,11.228763 -10.039735,20.978753 -17.527862,29.572643 -4.293705,4.92775 1.250766,7.46192 3.485913,5.10387 9.507419,-10.0302 23.547229,-20.27429 32.718669,-17.70763 17.66819,4.04766 15.14701,46.25647 -1.05898,49.63698 -12.488,2.60495 -20.53583,-9.25405 -30.651279,-18.06718 -3.380702,-2.94545 -7.857688,0.77463 -5.854552,4.7408 l 51.639771,102.24585 c 4.0686,7.91761 -1.10941,14.45225 -8.21268,7.57364 -12.59728,-12.19886 -21.29479,-18.39153 -27.14571,-17.30314 -17.649529,3.28317 -16.861947,48.09671 -0.17977,49.52743 11.4919,0.98559 19.92664,-12.78796 30.29173,-18.51661 5.18461,-2.86547 7.23522,1.32414 4.94376,4.22467 -7.88083,9.97554 -19.95918,19.57386 -19.2357,30.74117 1.15577,17.83986 49.88996,18.47474 50.4263,-0.35955 0.27989,-9.82858 -12.69706,-20.27048 -19.59525,-30.29174 -2.63352,-3.82582 2.9466,-6.88861 6.66637,-3.22886 8.68472,8.54458 17.44027,17.14546 28.74889,17.34104 17.25691,0.29846 16.5637,-48.90294 -0.26966,-49.16789 -9.73713,-0.15326 -20.01115,11.30961 -29.88934,18.92672 -5.78848,5.15279 -6.94267,-4.20264 -4.81876,-8.97955 14.97413,-33.67847 36.48632,-67.78169 51.41505,-103.18965 2.14753,-5.09352 -2.94421,-6.90518 -6.37,-4.10455 -6.86459,5.61189 -15.75607,19.69647 -29.48276,17.79751 -18.47062,-2.55523 -18.77096,-50.2088 0.35955,-50.15664 14.33889,0.0391 22.39047,11.64754 30.83105,18.42672 3.70744,2.97769 6.39044,-2.16305 4.6741,-3.86511 -10.74226,-10.65288 -19.21037,-21.26315 -18.87616,-31.909695 0.5574,-17.756177 49.8385,-18.197227 50.06676,0.08989 0.14519,11.632285 -8.30523,21.780905 -18.42673,30.920935 -2.42405,2.18899 1.12861,7.69134 4.22467,4.85387 10.05654,-9.22399 23.08606,-20.01934 31.54415,-18.86717 16.91866,2.30468 16.62118,50.79229 -0.78651,50.50421 -13.95713,-0.23099 -20.20721,-8.13685 -28.54194,-17.49865 -4.35608,-4.89287 -8.84025,1.63453 -7.02838,5.28607 l 51.64352,104.07953 c 3.31916,8.09637 -4.48653,8.03048 -7.19092,5.57296 -9.61456,-8.73689 -17.46759,-18.07879 -28.66778,-17.62524 -17.68233,0.71247 -16.64044,49.36685 0.44345,48.99561 12.27787,-0.2668 19.76294,-12.01189 30.74116,-19.14581 4.02804,-2.61752 6.82391,2.91679 4.49433,5.84262 -8.21793,10.32126 -18.38455,19.78496 -18.96605,29.57264 -1.08255,18.22135 51.61835,18.68556 49.7971,-0.17977 -1.01645,-10.52883 -13.28537,-19.86364 -19.2357,-30.20185 -3.16836,-5.50476 2.45834,-7.14654 5.39319,-4.67409 11.547,9.7277 19.93147,18.78621 30.38162,18.69638 16.90955,-0.14536 17.3979,-49.92724 -0.26966,-49.34767 -12.16411,0.39903 -18.60777,11.16048 -30.38162,18.51661 -5.8694,3.66711 -6.62361,-3.86717 -5.03365,-7.01114 l 51.68472,-102.2009 c 2.40584,-4.78546 -0.5725,-10.70747 -5.3033,-7.19092 -8.0775,6.00425 -17.12516,20.34309 -31.99958,17.97729 -17.59636,-2.79873 -15.91071,-47.89055 0.35954,-49.43755 12.98244,-1.23439 22.83572,11.77555 32.71867,18.69639 2.9235,2.04727 5.89763,-2.8258 3.77523,-5.21342 -6.48636,-7.29691 -20.03013,-14.95054 -18.51661,-31.729913 1.44932,-16.067702 46.43092,-15.258047 49.42631,-0.875 2.62675,12.612973 -7.63409,20.668143 -17.6065,32.694803 -2.79893,3.37549 1.57647,7.29406 4.40444,4.58421 10.25014,-9.82201 20.29539,-17.73859 30.4715,-18.06718 18.92074,-0.61095 17.05326,50.11168 0.53932,49.70721 -14.33474,-0.3511 -22.47101,-10.64976 -30.56139,-18.15706 -4.48909,-4.16556 -7.43405,2.51187 -5.70217,5.8658 l 42.98042,83.23527 C 407.09376,165.56558 419.23083,84.562575 419.00258,0.99245081 L 1.0078125,0.9921875 C 1.0803345,77.210287 10.459871,158.1113 34.682468,231.50861 z"
     id="path2830"
     style="fill:#faf700;fill-opacity:1;stroke:none" />
</svg>
