<?xml version="1.0" encoding="UTF-8" standalone="no"?>
<!-- Created with Inkscape (http://www.inkscape.org/) -->

<svg
   xmlns:svg="http://www.w3.org/2000/svg"
   xmlns="http://www.w3.org/2000/svg"
   version="1.1"
   width="390"
   height="480"
   id="svg4228">
  <defs
     id="defs4232" />
  <path
     d="m 0.51202379,0.50512952 c 129.66265621,0 259.32532621,0 388.98797621,0 C 389.48983,115.23328 370.33544,349.8309 194.89467,479.37706 21.249382,349.77255 0.5931986,115.2575 0.51202379,0.50512952 z"
     id="path4240-0-1"
     style="fill:#207dbf;fill-opacity:1;stroke:#9e832a;stroke-width:0.99999905;stroke-opacity:1" />
  <path
     d="m 194.76654,15.092568 c -29.32866,13.899638 -52.31461,38.687601 -62.08535,66.934737 -3.93055,11.363199 -3.69039,23.465625 1.57605,34.863035 19.2932,41.75344 38.68124,96.4786 42.07206,142.92818 0.47188,6.46408 -7.27058,7.95355 -8.11949,0.64449 -7.13983,-61.47336 -27.6511,-114.99757 -48.87615,-135.98817 -26.365342,-26.074101 -76.703484,-28.766393 -89.951231,8.53955 -22.1262029,62.30786 41.469292,123.94766 74.667481,121.32594 -5.099802,-7.78048 -12.950311,-25.56 -11.303609,-39.153 3.347547,-27.63292 31.546739,-26.14556 42.507929,-11.11751 13.54552,18.57123 17.47949,39.33062 19.6619,56.796 0.58109,4.65038 -0.46297,5.3269 -4.53736,5.55876 -9.07796,0.51659 -13.43795,-0.31298 -13.29368,3.22246 l 1.11444,27.31043 9.87075,-0.0805 c 2.47095,-0.0203 3.07875,1.4747 2.7065,3.3836 -1.70816,8.75961 -7.04751,18.12436 -11.57373,21.90468 -4.68704,3.91465 -15.86095,12.91626 -28.59731,2.91037 -7.01034,-5.50744 -2.65392,-12.50854 -1.71985,-15.40951 -6.65438,1.44008 -19.873909,11.18878 -18.095031,24.81127 5.079388,38.8975 50.238701,30.74041 64.141301,10.34077 7.84728,-11.51451 11.937,-26.92358 11.46282,-41.25223 -0.12818,-3.8731 5.96959,-2.82367 6.43179,1.04499 4.13015,34.57011 -21.75864,55.5627 -23.88085,82.49518 -1.95692,24.72966 37.13279,49.53994 45.69204,53.49298 l 0.12858,-425.506433 0,-3.9e-5 0,-3e-5 z"
     id="path3967"
     style="fill:#ededed;fill-opacity:1;stroke:none" />
  <path
     d="m 195.46693,115.47665 -0.23347,70.88522 73.36576,-67.99611 95.82011,91.05612 c 3.40503,-12.5868 8.47805,-35.39126 12.20752,-57.28534 L 268.48249,47.859919 z"
     id="path3969"
     style="fill:#faf700;fill-opacity:1;stroke:none" />
  <path
     d="m 195.1751,261.01167 0,69.57199 73.30739,-67.58755 56.83112,54.88472 c 7.08069,-14.23565 14.27841,-31.30468 20.19983,-47.68828 l -77.03095,-77.00189 z"
     id="path3993"
     style="fill:#faf700;fill-opacity:1;stroke:none" />
</svg>
