<?xml version="1.0" encoding="UTF-8" standalone="no"?>
<!-- Created with Inkscape (http://www.inkscape.org/) -->

<svg
   xmlns:dc="http://purl.org/dc/elements/1.1/"
   xmlns:cc="http://creativecommons.org/ns#"
   xmlns:rdf="http://www.w3.org/1999/02/22-rdf-syntax-ns#"
   xmlns:svg="http://www.w3.org/2000/svg"
   xmlns="http://www.w3.org/2000/svg"
   xmlns:xlink="http://www.w3.org/1999/xlink"
   version="1.1"
   width="390"
   height="480"
   id="svg4228">
  <metadata
     id="metadata24">
    <rdf:RDF>
      <cc:Work
         rdf:about="">
        <dc:format>image/svg+xml</dc:format>
        <dc:type
           rdf:resource="http://purl.org/dc/dcmitype/StillImage" />
        <dc:title></dc:title>
      </cc:Work>
    </rdf:RDF>
  </metadata>
  <defs
     id="defs4232" />
  <path
     d="M 0,0 C 130,0 260,0 390,0 389.98981,114.99797 370.78556,350.14732 194.88837,479.99815 20.79131,350.08886 0.081386,115.02225 0,0 z"
     id="path4240-0"
     style="fill:#000000;fill-opacity:1;stroke:none" />
  <use
     transform="translate(66,0)"
     id="use3776"
     x="0"
     y="0"
     width="390"
     height="480"
     xlink:href="#path3638-82-7" />
  <use
     transform="translate(132,0)"
     id="use3778"
     x="0"
     y="0"
     width="390"
     height="480"
     xlink:href="#path3638-82-7" />
  <use
     transform="translate(198,0)"
     id="use3780"
     x="0"
     y="0"
     width="390"
     height="480"
     xlink:href="#path3638-82-7" />
  <use
     transform="translate(264,0)"
     id="use3782"
     x="0"
     y="0"
     width="390"
     height="480"
     xlink:href="#path3638-82-7" />
  <use
     transform="translate(0,66)"
     id="use3784"
     x="0"
     y="0"
     width="390"
     height="480"
     xlink:href="#path3638-82-7" />
  <use
     transform="translate(66,66)"
     id="use3786"
     x="0"
     y="0"
     width="390"
     height="480"
     xlink:href="#path3638-82-7" />
  <use
     transform="translate(132,66)"
     id="use3788"
     x="0"
     y="0"
     width="390"
     height="480"
     xlink:href="#path3638-82-7" />
  <use
     transform="translate(198,66)"
     id="use3790"
     x="0"
     y="0"
     width="390"
     height="480"
     xlink:href="#path3638-82-7" />
  <use
     transform="translate(264,66)"
     id="use3792"
     x="0"
     y="0"
     width="390"
     height="480"
     xlink:href="#path3638-82-7" />
  <use
     transform="translate(66,132)"
     id="use3794"
     x="0"
     y="0"
     width="390"
     height="480"
     xlink:href="#path3638-82-7" />
  <use
     transform="translate(132,132)"
     id="use3796"
     x="0"
     y="0"
     width="390"
     height="480"
     xlink:href="#path3638-82-7" />
  <use
     transform="translate(198,132)"
     id="use3798"
     x="0"
     y="0"
     width="390"
     height="480"
     xlink:href="#path3638-82-7" />
  <use
     transform="translate(66,198)"
     id="use3800"
     x="0"
     y="0"
     width="390"
     height="480"
     xlink:href="#path3638-82-7" />
  <use
     transform="translate(132,198)"
     id="use3802"
     x="0"
     y="0"
     width="390"
     height="480"
     xlink:href="#path3638-82-7" />
  <use
     transform="translate(198,198)"
     id="use3804"
     x="0"
     y="0"
     width="390"
     height="480"
     xlink:href="#path3638-82-7" />
  <use
     transform="translate(132,264)"
     id="use3806"
     x="0"
     y="0"
     width="390"
     height="480"
     xlink:href="#path3638-82-7" />
  <path
     d="m 33.932671,120.97563 58.01377,0.0318 -29.25318,-57.89459 -28.76059,57.86281 0,-2e-5 z"
     id="path3638-82-7"
     style="fill:#faf700;fill-opacity:1;stroke:none" />
</svg>
