<?xml version="1.0" encoding="UTF-8" standalone="no"?>
<!-- Created with Inkscape (http://www.inkscape.org/) -->
<svg
   xmlns:svg="http://www.w3.org/2000/svg"
   xmlns="http://www.w3.org/2000/svg"
   version="1.0"
   width="929"
   height="1068"
   id="svg2">
  <defs
     id="defs5" />
  <image
     x="0"
     y="0"
     width="929"
     height="1068"
     id="image11" />
  <path
     d="M 418.5,1065.9174 C 190.8264,1053.1325 42.125527,961.84105 6.5319315,812.9992 C 0.67603276,788.51157 1.03827,816.21995 1.0183201,391.25 L 1,1 L 464.5,1 L 928,1 L 927.9918,391.75 C 927.98335,794.09772 928.02226,790.10053 923.91561,810.5 C 889.23737,982.7616 694.06945,1081.3919 418.5,1065.9174 z" style="fill:#475d28"  />
<path d="M 284.5,852.13202 C 308.98493,847.85881 341.89331,836.77031 340.54193,833.24866 C 339.57586,830.73114 336.08107,803.18949 334.028,781.91394 C 332.93541,770.59161 331.34911,758.03655 330.5029,754.01381 C 329.01158,746.92429 321.65199,674.09837 316.55561,616 C 304.44255,477.91202 302.31755,364.97058 311.35325,339.5 C 317.1266,323.22563 322.59816,294.13626 320.30247,291.92181 C 314.61176,286.43248 282.12484,258.6539 274.5,252.75751 C 263.46891,244.22701 264.24908,248.43992 268.39896,219.81205 C 274.44057,178.13405 275.37276,167.61 275.43894,140.33333 C 275.47252,126.49167 275.20306,114.86973 274.84014,114.5068 C 274.23231,113.89898 260.46059,110.05623 258.75,110.01714 C 258.3375,110.00771 258,114.87185 258,120.82632 C 258,135.00339 256.43169,150.65349 253.5232,165.5 C 252.23024,172.1 250.86659,181.325 250.49286,186 C 248.98373,204.87805 242.59428,233.19098 238.67144,238.38309 C 236.78075,240.88552 226.36426,243.12756 213.89793,243.71533 L 202.29585,244.26235 L 199.24467,236.88118 C 191.20039,217.42108 187.83206,198.78087 185.97636,163.45495 C 182.99486,106.69748 184.43645,113.20275 175.27257,115.15358 L 168.5,116.59535 L 167.69266,126.54768 C 166.08196,146.40314 167.82026,187.27336 172.00765,228 C 174.35316,250.81246 174.58108,250.30699 161.70753,250.84297 L 153.46986,251.18594 L 149.4008,246.34297 C 128.78857,221.81044 118.44958,190.25872 114.8816,141 C 114.22427,131.925 113.61012,124.39062 113.51683,124.25694 C 113.24253,123.86387 100.5758,128.19403 99.701204,128.97987 C 98.752856,129.83197 101.21264,159.98423 104.05944,182.40357 C 107.37426,208.50875 111.83845,229.38524 117.9662,247.43759 C 123.50675,263.76007 122.25272,269.89114 109.85708,287.08381 C 91.156433,313.02148 97.642368,349.16352 126.51231,379.89294 C 133.81756,387.66871 133.09399,383.68936 135.53241,429.5 C 137.26943,462.13315 138.98452,479.63636 141.95181,495.0125 C 150.71637,540.42944 141.74419,551.41169 109.31775,534.95766 L 97.135509,528.77607 L 94.19888,532.13804 C 87.393136,539.92951 85.856591,542.06996 83.909783,546.47105 L 81.859621,551.10578 L 87.421824,557.90445 C 94.036872,565.99001 121.37592,592.8641 132.1624,601.88413 L 139.79678,608.26826 L 140.9413,615.88413 C 141.5708,620.07286 144.76568,641.725 148.04105,664 C 160.75521,750.46603 169.23287,792.68735 181.57905,831.02941 L 186.05743,844.93738 L 192.38405,846.89147 C 218.44562,854.94107 256.12264,857.08454 284.5,852.13202 z"  style="fill:#ffffff"  />
<path d="M 494.60406,852.62315 C 498.51129,851.81604 503.51321,850.66962 505.71945,850.07555 L 509.73078,848.99541 L 514.34439,831.7477 C 532.75181,762.93275 543.16915,672.76977 539.32942,615.5 C 536.80681,577.87505 535.95115,556.9469 534.90766,507.34948 C 533.83948,456.57871 533.99221,450.76695 536.98742,428.20873 C 537.51988,424.19853 538.40686,409.79853 538.95849,396.20873 C 541.42887,335.34929 546.58221,315.63244 565.34695,295.24559 L 569.26285,290.99118 L 562.13143,265.06269 C 558.20914,250.80203 555,238.93443 555,238.69025 C 555,237.83397 545.43611,234.15649 539,232.53798 C 529.33959,230.10864 523,227.93831 523,227.06046 C 523,226.63212 524.53326,222.95579 526.40724,218.89083 C 534.62545,201.06427 537.55349,183.46368 540.5274,134.01378 C 542.5829,99.835079 542.66098,101.37361 538.75,98.98904 C 536.17986,97.421997 528,96.103394 528,97.256128 C 528,124.09428 513.96806,178.90846 499.36035,209.13367 L 492.77126,222.76735 L 482.63563,220.04423 L 472.5,217.32111 L 471.84011,175.91055 C 471.21153,136.46472 470.29446,119.78502 467.851,103.35639 C 466.63872,95.205578 466.59888,95.178673 457.87848,96.620998 L 454.25697,97.219985 L 453.55611,117.85999 C 452.41229,151.54505 449.92692,174.06759 443.80297,206.24352 C 441.44263,218.64499 440.21216,223.10231 439.05811,223.43154 C 427.54673,226.71563 383.78577,232.10219 382.45757,230.39854 C 359.07003,200.40001 341.59413,150.47779 340.75754,111.27689 L 340.5,99.208838 L 337,99.734656 C 320.31391,102.24147 327.8424,171.79914 351.25641,231.45343 C 359.16301,251.59789 359.09095,248.48033 351.91379,259.8941 C 337.64683,282.5827 351.82175,315.35208 382.48169,330.56055 C 405.73366,342.0944 404.26478,355.48432 378.74214,364.64924 C 334.70172,380.46372 335.78814,425.29218 380.82274,450.5 C 389.18211,455.1791 388.54196,453.74487 390.19588,471.5 C 395.12249,524.38806 389.32772,599.76143 374.36919,677.35985 L 370.73361,696.2197 L 372.88342,709.35985 C 376.53155,731.65813 378.73838,748.81672 383.9622,795.5 C 386.73171,820.25 389.21397,841.44159 389.47833,842.59242 C 390.13022,845.43018 416.42191,851.21503 441,853.92851 C 452.81786,855.23323 485.86437,854.42849 494.60406,852.62315 z"  style="fill:#ffffff"  />
<path d="M 693.5,850.00466 C 698.45,849.46625 705.28692,848.52381 708.69316,847.91036 L 714.88632,846.79499 L 716.37715,840.14749 C 723.89336,806.63332 733.68794,746.70042 738.07488,707.37937 L 739.31558,696.25874 L 744.40779,692.10487 C 750.88614,686.82028 761.38997,681.50374 768.49277,679.9142 L 774.0181,678.67769 L 780.37849,667.58885 C 814.75136,607.6624 809.47316,578.49068 761.52261,563.3756 C 757.40689,562.07824 756.10143,561.22714 756.44409,560.06468 C 758.41645,553.37366 766.1245,494.55854 768.44415,468.5 C 771.97188,428.87012 773.04235,359.14475 770.39484,341.44059 L 769.78779,337.38118 L 788.52445,326.94059 C 809.92788,315.014 808.92428,316.08721 815.58788,298 C 831.71564,254.2239 839.98777,204.26899 841.69021,140.36965 L 842.30646,117.2393 L 837.90323,116.78035 C 835.48145,116.52792 833.36712,116.41946 833.20472,116.53931 C 831.38958,117.87888 815.85424,210.97154 814.93865,225.99535 C 812.5421,265.32047 800.92185,283.78435 779.84379,281.75901 C 772.74998,281.07739 772.83648,281.42358 775.00985,262.41366 C 776.08179,253.0377 777.08059,240.24183 777.22942,233.97841 L 777.5,222.59036 L 763,212.72609 C 755.025,207.30074 747.87915,202.50487 747.12034,202.06859 C 746.00883,201.42954 746.57053,199.15919 750.01028,190.38768 C 762.07244,159.6287 769.96959,129.34321 769.9941,113.75 L 770,110 L 765.25,110.00021 L 760.5,110.00042 L 757.17041,120.75021 C 746.26532,155.95799 724.10816,203.07228 719.15952,201.57535 C 718.24678,201.29925 715.31656,200.59465 712.6479,200.00956 C 705.41408,198.42359 702.30306,196.46674 701.13423,192.76739 C 697.57759,181.51066 697.27571,138.06832 700.59034,114.5 C 703.09695,96.676965 703.33519,98.005534 697.25931,95.923748 L 692.01862,94.128123 L 690.51535,99.314062 C 684.39123,120.44088 681.0573,145.91626 679.41436,184.13945 L 678.74213,199.77891 L 673.69568,202.13945 C 662.21129,207.51144 644.4734,204.75289 637.17336,196.45961 C 627.0738,184.9859 609.59539,132.477 605.51517,101.35157 L 604.84026,96.203133 L 600.45821,95.546004 C 592.08093,94.289754 591.60549,95.154702 592.31251,110.36494 C 593.34232,132.51939 595.57407,143.20245 613.50452,211.80775 L 618.02802,229.1155 L 613.71723,234.80775 C 604.04395,247.58099 597.79445,259.859 593.46318,274.59961 C 590.24833,285.54075 590.10807,284.16159 598.4871,324 C 620.25486,427.49569 625.39937,458.94822 623.15315,474.80357 C 614.89853,533.07053 582.96611,713.73822 565.94498,798.47676 C 562.19135,817.16398 559.24892,832.58225 559.40625,832.73958 C 560.15033,833.48366 593.15947,841.34858 606.5,843.96037 C 638.57171,850.23932 670.77404,852.47657 693.5,850.00466 z"
     id="path2384"
     style="fill:#ffffff" />
</svg>
