<?xml version="1.0" encoding="UTF-8" standalone="no"?>
<!-- Created with Inkscape (http://www.inkscape.org/) -->

<svg
   xmlns:svg="http://www.w3.org/2000/svg"
   xmlns="http://www.w3.org/2000/svg"
   version="1.1"
   width="390"
   height="480"
   id="svg4228">
  <defs
     id="defs4232" />
  <path
     d="m 0.51202379,0.50512952 c 129.66265621,0 259.32532621,0 388.98797621,0 C 389.48983,115.23328 370.33544,349.8309 194.89467,479.37706 21.249382,349.77255 0.5931986,115.2575 0.51202379,0.50512952 z"
     id="path4240-0"
     style="fill:#faf700;fill-opacity:1;stroke:#9e832a;stroke-width:0.99999905;stroke-opacity:1" />
  <path
     d="m 194.6386,53.063826 c -13.67788,117.358014 -24.23314,279.183484 -0.27026,363.915764 13.67668,-0.0218 14.71266,-6.05735 15.42432,-10.50671 5.11925,12.91068 40.38902,0.0917 33.97708,-8.53921 9.01614,0.72626 19.48499,-16.84186 19.77502,-33.25799 -14.64764,-4.55381 -24.79302,-25.03973 -48.4488,-18.78627 0.30164,-4.8579 -0.79816,-4.93372 1.3483,-15.46047 1.00759,-4.94149 -2.83863,-5.08475 -2.69659,-7.91001 0.36447,-7.24931 6.43017,-9.62809 7.19091,-13.9324 0.79297,-4.48664 -0.41178,-8.57109 -0.6292,-12.85376 -0.29131,-5.73824 6.38562,-8.33257 6.02239,-10.78638 l -2.06739,-13.9324 c -1.128,-7.60172 6.47427,-8.97505 5.39319,-13.9324 -1.37775,-6.31774 -3.23629,-12.62685 -2.78648,-19.2357 1.41733,-1.25547 13.93808,4.06918 10.78637,10.15717 -0.91939,1.77594 -2.35603,4.48599 -1.25841,7.55046 3.01042,8.40481 16.23398,7.65614 16.98853,12.94365 0.45761,3.20669 0.5088,5.61519 1.79773,6.38194 5.50651,3.27567 16.04908,4.22279 17.97729,8.17967 3.9145,8.03296 10.02907,7.7267 15.19082,6.74148 -2.88269,-3.70583 -7.1694,-5.4143 -8.26956,-11.68524 -0.87107,-4.96515 -19.4012,-5.16185 -18.96604,-19.86491 -9.47349,-4.82354 -17.16695,-12.26827 -16.67393,-21.57275 0.34479,-6.50712 -18.36426,-15.81371 -5.03364,-16.5391 11.54958,-0.62847 7.60831,13.0044 13.97733,17.07842 2.72305,1.74183 5.70338,0.61559 7.70453,1.58132 2.24889,1.08529 2.1454,3.29696 4.47509,3.9467 2.03792,0.56837 4.39947,-0.2246 5.3033,-0.26962 1.07864,2.87637 1.67699,6.25344 3.23591,8.6291 5.6317,8.58222 22.19751,4.38547 26.38168,19.55031 5.79735,0.41806 10.63369,-0.38116 12.85376,-4.49433 -8.33714,0.1514 -10.96418,-6.31557 -13.6178,-10.02234 -3.91246,-5.46521 -24.68096,-9.99575 -21.39298,-21.12331 -12.3115,-0.8282 -15.16675,-9.04008 -23.55025,-12.04479 1.72258,-11.36416 -11.98982,-9.55083 -15.55034,-16.89865 4.56019,-0.0857 9.48482,-1.75063 13.39307,0.98875 2.51011,3.00455 3.74335,7.01067 8.08978,8.85381 5.8526,2.48185 12.11856,3.99289 18.96604,4.26961 4.47946,0.18102 4.62628,4.42544 9.88751,5.52802 7.54611,1.58142 14.7258,5.71201 22.92105,2.74153 1.28614,2.98966 11.27699,5.95688 15.9099,2.15728 0.87379,-0.71662 -3.50009,-3.00529 -5.97745,-4.62915 2.22112,-1.96643 8.08996,-2.95264 6.38194,-5.97745 -1.36129,-2.41077 -6.92263,0.0316 -10.9212,0.67415 -5.58609,-3.03733 -12.03934,-0.87163 -18.06718,-1.25842 -6.07138,-2.03814 -10.88609,-3.13116 -11.3257,-9.39313 -27.73243,-2.87112 -26.81206,-4.96088 -29.25804,-9.75268 -3.94219,-7.72296 -21.97195,-7.18595 -18.5166,-15.64024 1.81871,-4.44988 25.18614,2.73019 24.71877,13.12342 9.79762,0.63633 21.83055,6.66507 29.39287,3.3258 4.81976,-2.12825 6.44119,2.64826 11.14592,3.05613 5.73956,-0.24838 9.71176,-2.07246 12.39982,-2.37684 5.6616,-0.64106 6.24435,0.51771 9.98191,2.64651 2.36552,1.34733 11.10434,-3.45147 10.51671,-5.39319 -0.81979,-2.70885 -6.75497,-2.14992 -6.92125,-4.40444 -0.23674,-3.20964 8.71783,-3.19171 6.20216,-5.75273 -5.56852,-5.6689 -15.88578,4.51813 -31.37037,3.68535 -12.81182,-0.68903 -10.30514,-5.97764 -15.37059,-6.65161 -3.65637,-0.48649 -8.17472,2.63612 -17.78362,0.90372 -5.38287,-0.97048 -9.27799,-5.30763 -9.63174,-9.26315 -31.67623,1.72219 -24.84843,-14.90563 -17.9773,-10.42683 0.85221,-11.92263 17.47944,4.25886 39.90958,-0.53936 -3.8318,-15.33664 32.29267,-1.86541 55.63972,-22.83116 -1.59499,-3.31155 -8.71287,-9.40595 3.77523,-9.88751 0.80852,-8.56184 -2.06855,-21.50287 -4.40444,-25.16821 C 307.93665,56.896894 304.6851,66.26598 283.34589,53.961827 269.79791,46.150082 265.07191,38.411785 248.08427,41.893417 c 7.24385,10.093218 37.64592,22.60171 43.41516,42.336521 -6.49012,-0.400367 -33.78277,-14.552554 -48.89822,-28.044574 2.97035,18.33087 19.73645,29.685939 28.445,36.53161 6.45308,5.072666 9.10177,9.067586 16.13867,8.861046 3.09228,9.10885 5.72507,23.09218 27.14571,32.89845 -1.33645,6.71695 -26.68133,5.46806 -31.55015,17.25819 -1.87241,-8.61905 -13.77307,-10.3078 -24.89903,-8.62251 -5.5545,0.84136 -9.52537,-1.46138 -16.35884,-0.27624 -3.02715,0.525 -2.47737,4.88763 -5.21341,6.92125 -0.97806,-2.41161 -1.52579,-6.00874 -3.05614,-6.92125 -8.09805,-4.82869 -5.89575,-7.51001 -7.64035,-9.79763 -2.1626,-2.83574 -6.38384,2.74262 -8.29179,-3.5303 -0.88359,-2.90505 2.08932,-5.93102 1.80691,-14.71661 -0.21724,-6.75792 -0.61578,-12.40623 -2.2341,-18.426761 -1.74416,-6.488644 -11.42362,-8.248367 -11.50548,-16.089675 -0.0415,-3.976365 0.56894,-14.381304 -0.44943,-23.010933 -2.00235,0.897759 -1.9926,5.629118 -4.13477,5.033642 -1.75942,-0.489079 -0.24999,-9.141765 -6.16541,-9.233817 z"
     id="path2827-1"
     style="fill:#000000;stroke:none" />
  <path
     d="m 195.41324,53.196637 c 30.99736,125.304523 11.07526,243.967373 0.0674,363.792953 -13.67668,-0.0218 -13.22074,-6.06735 -13.9324,-10.51671 -5.11925,12.91068 -40.38903,0.0917 -33.97708,-8.53921 -9.01615,0.72626 -19.485,-16.84186 -19.77503,-33.25799 14.64764,-4.55381 24.79303,-25.03973 48.44881,-18.78627 -0.30164,-4.8579 0.79816,-4.93372 -1.3483,-15.46047 -1.00759,-4.94149 2.83863,-5.08475 2.69659,-7.91001 -0.36447,-7.24931 -6.43017,-9.62809 -7.19091,-13.9324 -0.79297,-4.48664 0.41178,-8.57109 0.6292,-12.85376 0.29131,-5.73824 -6.38562,-8.33257 -6.02239,-10.78638 l 2.06739,-13.9324 c 1.128,-7.60172 -6.47427,-8.97505 -5.39319,-13.9324 1.37775,-6.31774 3.23629,-12.62685 2.78648,-19.2357 -1.41733,-1.25547 -13.93808,4.06918 -10.78637,10.15717 0.91939,1.77594 2.35603,4.48599 1.25841,7.55046 -3.01042,8.40481 -16.23399,7.65614 -16.98854,12.94365 -0.45761,3.20669 -0.5088,5.61519 -1.79773,6.38194 -5.50651,3.27567 -16.04908,4.22279 -17.97729,8.17967 -3.9145,8.03296 -10.02907,7.7267 -15.19082,6.74148 2.88269,-3.70583 7.1694,-5.4143 8.26956,-11.68524 0.87107,-4.96515 19.4012,-5.16185 18.96604,-19.86491 9.47349,-4.82354 17.16696,-12.26827 16.67394,-21.57275 -0.34479,-6.50712 18.36426,-15.81371 5.03364,-16.5391 -11.54959,-0.62847 -7.60832,13.0044 -13.97734,17.07842 -2.72305,1.74183 -5.70338,0.61559 -7.70453,1.58132 -2.24889,1.08529 -2.1454,3.29696 -4.47509,3.9467 -2.03792,0.56837 -4.39947,-0.2246 -5.3033,-0.26962 -1.07864,2.87637 -1.67699,6.25344 -3.23591,8.6291 -5.6317,8.58222 -22.197506,4.38547 -26.381676,19.55031 -5.79735,0.41806 -10.633695,-0.38116 -12.853763,-4.49433 8.337143,0.1514 10.964179,-6.31557 13.617798,-10.02234 3.912464,-5.46521 24.680961,-9.99575 21.392981,-21.12331 12.3115,-0.8282 15.16675,-9.04008 23.55025,-12.04479 -1.72258,-11.36416 11.98983,-9.55083 15.55035,-16.89865 -4.56019,-0.0857 -9.48483,-1.75063 -13.39308,0.98875 -2.51011,3.00455 -3.74335,7.01067 -8.08978,8.85381 -5.8526,2.48185 -12.11856,3.99289 -18.96604,4.26961 -4.47946,0.18102 -4.62628,4.42544 -9.88751,5.52802 -7.54611,1.58142 -14.725796,5.71201 -22.921048,2.74153 -1.286139,2.98966 -11.276991,5.95688 -15.909902,2.15728 -0.873785,-0.71662 3.500093,-3.00529 5.977449,-4.62915 -2.221121,-1.96643 -8.089962,-2.95264 -6.381938,-5.97745 1.361294,-2.41077 6.922629,0.0316 10.921204,0.67415 5.586083,-3.03733 12.039338,-0.87163 18.067177,-1.25842 6.071376,-2.03814 10.886088,-3.13116 11.325698,-9.39313 27.73243,-2.87112 26.81206,-4.96088 29.25804,-9.75268 3.94219,-7.72296 21.97196,-7.18595 18.51661,-15.64024 -1.81871,-4.44988 -25.18615,2.73019 -24.71878,13.12342 -9.79762,0.63633 -21.83055,6.66507 -29.392869,3.3258 -4.819765,-2.12825 -6.441188,2.64826 -11.145921,3.05613 -5.739556,-0.24838 -9.711759,-2.07246 -12.399819,-2.37684 -5.661597,-0.64106 -6.244346,0.51771 -9.981908,2.64651 -2.365522,1.34733 -11.104346,-3.45147 -10.516716,-5.39319 0.81979,-2.70885 6.754972,-2.14992 6.921258,-4.40444 0.236733,-3.20964 -8.717838,-3.19171 -6.202166,-5.75273 5.568526,-5.6689 15.88578,4.51813 31.370373,3.68535 12.811815,-0.68903 10.305138,-5.97764 15.370584,-6.65161 3.656374,-0.48649 8.174724,2.63612 17.783624,0.90372 5.38287,-0.97048 9.27799,-5.30763 9.63174,-9.26315 31.67624,1.72219 24.84844,-14.90563 17.9773,-10.42683 -0.85221,-11.92263 -17.47944,4.25886 -39.90958,-0.53936 3.8318,-15.33664 -32.292666,-1.86541 -55.639716,-22.83116 1.594983,-3.31155 8.712869,-9.40595 -3.775231,-9.88751 -0.80852,-8.56184 2.068548,-21.50287 4.404436,-25.16821 C 83.404237,56.896893 86.655791,66.265979 107.995,53.961826 c 13.54798,-7.811745 18.27398,-15.550042 35.26162,-12.06841 -7.24385,10.093218 -37.64592,22.60171 -43.415161,42.336521 6.490121,-0.400367 33.782771,-14.552554 48.898231,-28.044574 -2.97036,18.33087 -19.73646,29.685939 -28.44501,36.53161 -6.45308,5.072666 -9.10177,9.067587 -16.13867,8.861047 -3.09228,9.10885 -5.725072,23.09218 -27.14571,32.89845 1.336448,6.71695 26.68133,5.46806 31.55015,17.25819 1.87241,-8.61905 13.77307,-10.3078 24.89903,-8.62251 5.5545,0.84136 9.52537,-1.46138 16.35885,-0.27624 3.02715,0.525 2.47737,4.88763 5.21341,6.92125 0.97806,-2.41161 1.52579,-6.00874 3.05614,-6.92125 8.09805,-4.82869 5.89575,-7.51001 7.64035,-9.79763 2.1626,-2.83574 6.38384,2.74262 8.29179,-3.5303 0.88359,-2.90505 -2.08932,-5.93102 -1.80691,-14.71661 0.21724,-6.75792 0.61578,-12.40623 2.2341,-18.426762 1.74416,-6.488644 11.42362,-8.248367 11.50548,-16.089675 0.0415,-3.976365 -0.56894,-14.381304 0.44943,-23.010933 2.00235,0.897759 1.9926,5.629118 4.13477,5.033642 1.75942,-0.489079 -1.13281,-10.915202 4.87635,-9.101005 z"
     id="path2827"
     style="fill:#000000;stroke:none" />
  <path
     d="m 180.60444,76.162628 a 3.51681,3.4381591 0 0 1 -7.03362,0 3.51681,3.4381591 0 1 1 7.03362,0 z"
     id="path2829"
     style="opacity:0.98999999;fill:#000000;fill-opacity:1;fill-rule:evenodd;stroke:none" />
  <path
     d="m 38.319915,92.18856 c 2.427775,-12.499078 6.973468,-22.351666 15.625,-26.375 12.36213,-5.748922 32.145424,-12.816937 49.000005,-19 35.73133,-13.107957 37.46536,-25.582581 59.25,-25.5 18.30083,0.06937 23.2231,19.559885 27,35.75"
     id="path3625"
     style="fill:none;stroke:#000000;stroke-width:1px;stroke-linecap:round;stroke-linejoin:miter;stroke-opacity:1" />
  <path
     d="m 352.49153,92.188557 c -2.42778,-12.499078 -6.97347,-22.351666 -15.625,-26.375 -12.36213,-5.748922 -32.14542,-12.816937 -49,-19 -35.73133,-13.107957 -37.46536,-25.582581 -59.25,-25.5 -18.30083,0.06937 -23.2231,19.559885 -27,35.75"
     id="path3625-7"
     style="fill:none;stroke:#000000;stroke-width:1px;stroke-linecap:round;stroke-linejoin:miter;stroke-opacity:1" />
  <path
     d="m 177.50635,12.561442 c 7.41044,10.313408 14.95791,20.469233 15.875,38.25"
     id="path3649"
     style="fill:none;stroke:#000000;stroke-width:1px;stroke-linecap:butt;stroke-linejoin:miter;stroke-opacity:1" />
  <path
     d="m 212.23305,12.497882 c -7.41044,10.313408 -14.95791,20.469233 -15.875,38.25"
     id="path3649-4"
     style="fill:none;stroke:#000000;stroke-width:1px;stroke-linecap:butt;stroke-linejoin:miter;stroke-opacity:1" />
  <path
     d="m 217.10444,76.037627 a 3.51681,3.4381591 0 0 1 -7.03362,0 3.51681,3.4381591 0 1 1 7.03362,0 z"
     id="path2829-9"
     style="opacity:0.98999999;fill:#000000;fill-opacity:1;fill-rule:evenodd;stroke:none" />
</svg>
