<?xml version="1.0" encoding="UTF-8" standalone="no"?>
<!-- Created with Inkscape (http://www.inkscape.org/) -->

<svg
   xmlns:dc="http://purl.org/dc/elements/1.1/"
   xmlns:cc="http://creativecommons.org/ns#"
   xmlns:rdf="http://www.w3.org/1999/02/22-rdf-syntax-ns#"
   xmlns:svg="http://www.w3.org/2000/svg"
   xmlns="http://www.w3.org/2000/svg"
   version="1.1"
   width="390"
   height="480"
   id="svg4228">
  <metadata
     id="metadata9">
    <rdf:RDF>
      <cc:Work
         rdf:about="">
        <dc:format>image/svg+xml</dc:format>
        <dc:type
           rdf:resource="http://purl.org/dc/dcmitype/StillImage" />
        <dc:title></dc:title>
      </cc:Work>
    </rdf:RDF>
  </metadata>
  <defs
     id="defs4232" />
  <path
     d="m 0.51202379,0.50512952 c 129.66265621,0 259.32532621,0 388.98797621,0 C 389.48983,115.23328 370.33544,349.8309 194.89467,479.37706 21.249382,349.77255 0.5931986,115.2575 0.51202379,0.50512952 z"
     id="path4240-0"
     style="fill:#008c31;fill-opacity:1;stroke:#999999;stroke-width:0.99999905;stroke-opacity:1" />
  <path
     d="M 70.585978,328.45716 C 103.16728,288.00374 140.27751,244.88914 171.5722,207.18531 c -7.33839,-19.03189 12.439,-23.87422 17.95621,-21.84242 4.76662,-8.36888 2.10204,-18.78371 -3.16553,-24.02933 C 145.16383,120.28608 92.529144,67.836962 26.807935,38.135592 95.539014,21.749383 162.72824,81.096274 226.72762,131.18644 c 6.61195,5.17495 10.95202,-1.50924 13.07412,-3.94068 46.2227,-52.960408 86.52609,-71.822031 125.28301,-63.432202 -6.65706,9.085417 -26.19179,19.740352 -36.81061,28.855933 -19.75444,16.957919 -31.26056,34.486479 -99.89639,122.923729 10.23867,13.38151 -6.07543,28.07708 -17.45628,21.59209 -35.62983,41.23135 -75.10171,90.78074 -114.478579,135.95381 -7.665669,-11.61355 -18.347779,-29.44347 -25.856913,-44.68196 z"
     id="path2828"
     style="fill:#f2f2f2;fill-opacity:1;stroke:none" />
  <path
     d="m 117.71186,325.42374 a 10.29661,10.423729 0 1 1 -20.593217,0 10.29661,10.423729 0 1 1 20.593217,0 z"
     transform="matrix(1.1358025,0,0,1.097561,-15.985562,-32.765606)"
     id="path2830"
     style="fill:#008c31;fill-opacity:1" />
</svg>
