<?xml version="1.0" encoding="UTF-8" standalone="no"?>
<!-- Created with Inkscape (http://www.inkscape.org/) -->

<svg
   xmlns:dc="http://purl.org/dc/elements/1.1/"
   xmlns:cc="http://creativecommons.org/ns#"
   xmlns:rdf="http://www.w3.org/1999/02/22-rdf-syntax-ns#"
   xmlns:svg="http://www.w3.org/2000/svg"
   xmlns="http://www.w3.org/2000/svg"
   xmlns:xlink="http://www.w3.org/1999/xlink"
   version="1.1"
   width="390"
   height="480"
   id="svg4228">
  <metadata
     id="metadata11">
    <rdf:RDF>
      <cc:Work
         rdf:about="">
        <dc:format>image/svg+xml</dc:format>
        <dc:type
           rdf:resource="http://purl.org/dc/dcmitype/StillImage" />
        <dc:title></dc:title>
      </cc:Work>
    </rdf:RDF>
  </metadata>
  <defs
     id="defs4232" />
  <path
     d="M 0,0 C 130,0 260,0 390,0 389.98981,114.99797 370.78556,350.14732 194.88837,479.99815 20.79131,350.08886 0.081386,115.02225 0,0 z"
     id="path4240-0"
     style="fill:#008c31;fill-opacity:1;stroke:none" />
  <path
     d="m 191.94915,21.800846 c -6.94741,12.518603 -24.58861,13.21713 -25.6144,27.394068 -0.60487,8.359672 7.23068,12.656582 11.94915,18.495763 3.97415,4.918067 -2.27545,8.281285 -4.83051,5.783898 -6.07482,-5.937696 -7.20131,-11.614556 -21.29237,-11.377119 -14.09107,0.237438 -16.90712,16.134281 -30.12712,26.822034 13.01942,7.889309 16.38732,24.23677 31.20762,24.2161 9.51985,-0.0133 12.28283,-5.63903 17.92373,-10.04237 4.51806,-3.526838 10.2286,0.66978 5.27543,5.21186 -6.08653,5.58138 -10.45549,12.25306 -10.29661,19.7034 0.33677,15.79233 19.39945,14.66758 26.44068,29.80932 7.51524,-15.56254 24.50577,-13.34248 24.40678,-28.98306 -0.0584,-9.22991 -5.31135,-14.35513 -10.23305,-20.21186 -5.29635,-6.30256 1.51698,-9.549113 5.4661,-4.8305 6.32106,7.55272 13.33729,9.1589 18.43221,9.34321 13.16921,0.47641 15.9322,-18.559321 28.53813,-25.550845 -14.27641,-6.558004 -15.32573,-21.719347 -30.57204,-22.245763 -5.99541,-0.207006 -10.74083,2.793819 -18.17796,8.072034 -4.83466,3.431216 -10.3188,-1.135362 -4.89407,-5.847458 5.71819,-4.967 12.44438,-10.875752 11.50424,-19.385593 -1.51906,-13.75005 -18.39572,-15.262947 -25.10594,-26.377119 z"
     id="path3673"
     style="fill:#f2f2f2;stroke:none" />
  <use
     transform="translate(84,110)"
     id="use3763"
     x="0"
     y="0"
     width="390"
     height="480"
     xlink:href="#path3673" />
  <use
     transform="translate(-80,110)"
     id="use3765"
     x="0"
     y="0"
     width="390"
     height="480"
     xlink:href="#path3673" />
  <use
     transform="translate(0,214)"
     id="use3767"
     x="0"
     y="0"
     width="390"
     height="480"
     xlink:href="#path3673" />
</svg>
