<?xml version="1.0" encoding="UTF-8" standalone="no"?>
<!-- Created with Inkscape (http://www.inkscape.org/) -->

<svg
   xmlns:svg="http://www.w3.org/2000/svg"
   xmlns="http://www.w3.org/2000/svg"
   xmlns:xlink="http://www.w3.org/1999/xlink"
   version="1.1"
   width="390"
   height="480"
   id="svg4228">
  <defs
     id="defs4232">
    <linearGradient
       id="linearGradient3653">
      <stop
         id="stop3655"
         style="stop-color:#ffffff;stop-opacity:1"
         offset="0" />
      <stop
         id="stop3657"
         style="stop-color:#ffffff;stop-opacity:0"
         offset="1" />
    </linearGradient>
    <linearGradient
       x1="0"
       y1="109.87704"
       x2="390"
       y2="109.87704"
       id="linearGradient2915"
       xlink:href="#linearGradient3653"
       gradientUnits="userSpaceOnUse" />
  </defs>
  <path
     d="M 0,0 C 130,0 260,0 390,0 389.98981,114.99797 370.78556,350.14732 194.88837,479.99815 20.79131,350.08886 0.081386,115.02225 0,0 z"
     id="path4240-0"
     style="fill:#008c31;fill-opacity:1;stroke:none" />
  <path
     d="M 58.050122,260.83634 115.23449,116.58906 98.156062,114.83627 C 93.775443,114.38668 92.8009,106.4291 97.392027,106.38695 L 170.82926,105.7128 C 181.2194,105.6158 185.44327,91.062089 188.44701,84.229937 170.31653,79.002636 159.70122,66.41891 159.953,49.713538 c 0.28123,-18.839115 16.77938,-34.636453 34.60629,-34.696172 20.66026,-0.06921 34.25057,17.731955 34.60628,35.055718 0.35794,17.432189 -12.23714,30.55609 -25.79741,34.156853 1.0261,14.187369 12.0812,22.742073 20.584,22.741273 23.16566,-0.002 45.28123,0.67465 69.49699,-8.7e-4 5.75264,-0.16048 3.85698,8.31847 0.82627,8.51695 l -19.92039,1.30456 56.7758,146.59798 c -10.31433,27.8894 -53.99243,53.29184 -60.43591,53.26271 -5.39243,-0.0244 -49.30761,-25.51966 -56.67512,-54.02182 L 268.02542,117.20339 217.75,121.01695 c -9.2512,0.80077 -13.53906,11.32715 -14.23729,17.79661 l -6.60697,61.21721 c -0.47065,3.2999 -4.75148,3.59624 -5.08475,0.25423 l -6.04133,-60.58161 c -0.73125,-7.3329 -3.16955,-16.91933 -16.14407,-18.17797 l -46.90678,-4.38559 51.54981,144.28924 c -8.56233,29.80123 -49.7223,53.08297 -55.48729,53.26271 -5.68667,0.1773 -52.449878,-25.61414 -60.741208,-53.85544 z"
     id="path2851"
     style="fill:#faf700;fill-opacity:1;stroke:none" />
  <path
     d="m 219.72751,50.307104 a 24.71878,26.067075 0 0 1 -49.43756,0 24.71878,26.067075 0 1 1 49.43756,0 z"
     id="path2853"
     style="fill:#008c31;fill-opacity:1" />
  <path
     d="M 170.34715,260.7751 118.92606,118.57473 61.817201,260.78325 170.34715,260.7751 z"
     id="path2855"
     style="fill:#008c31;fill-opacity:1;stroke:none" />
  <path
     d="M 326.42609,262.67709 271.23232,118.13966 218.7408,262.72202 326.42609,262.67709 z"
     id="path2855-1"
     style="fill:#008c31;fill-opacity:1;stroke:none" />
</svg>
