<?xml version="1.0" encoding="UTF-8" standalone="no"?>
<!-- Created with Inkscape (http://www.inkscape.org/) -->

<svg
   xmlns:dc="http://purl.org/dc/elements/1.1/"
   xmlns:cc="http://creativecommons.org/ns#"
   xmlns:rdf="http://www.w3.org/1999/02/22-rdf-syntax-ns#"
   xmlns:svg="http://www.w3.org/2000/svg"
   xmlns="http://www.w3.org/2000/svg"
   version="1.1"
   width="390"
   height="480"
   id="svg4228">
  <metadata
     id="metadata8">
    <rdf:RDF>
      <cc:Work
         rdf:about="">
        <dc:format>image/svg+xml</dc:format>
        <dc:type
           rdf:resource="http://purl.org/dc/dcmitype/StillImage" />
        <dc:title></dc:title>
      </cc:Work>
    </rdf:RDF>
  </metadata>
  <defs
     id="defs4232" />
  <path
     d="M 0,0 C 130,0 260,0 390,0 389.98981,114.99797 370.78556,350.14732 194.88837,479.99815 20.79131,350.08886 0.081386,115.02225 0,0 z"
     id="path4240-0"
     style="fill:#008c31;fill-opacity:1;stroke:none" />
  <path
     d="m 34.705426,150.23547 c 3.577194,3.54691 9.183344,7.14316 19.759279,9.1536 12.32261,2.34248 14.11531,4.29955 31.286973,2.2331 7.543872,-0.90783 9.316576,9.82143 7.820122,12.13468 -5.315944,-0.51328 -9.671847,0.71897 -13.123422,3.59545 28.764362,-0.0993 33.618472,13.18348 35.954582,29.84231 -3.88317,0.18047 -7.66298,0.4688 -19.145815,-7.28081 1.813228,24.05657 35.334175,12.09637 34.696175,49.7971 -6.61249,-4.43186 -13.35566,-8.47171 -21.30309,-8.89876 3.30076,14.62607 29.40794,14.1998 33.43776,38.65118 -10.88338,0.10692 -18.07883,2.63007 -19.14582,9.16842 20.64753,-1.49792 31.27253,14.65126 28.49401,25.1682 -6.20569,-0.68654 -21.87899,-0.39923 -22.65139,13.66275 20.71901,-9.05598 31.46391,9.67012 31.10072,40.35901 17.49575,-13.87919 20.40617,22.93244 35.59503,23.01094 12.07823,0.0624 14.32556,-38.22462 33.79731,-21.30309 -1.53951,-51.76963 23.81498,-45.37074 32.89844,-42.96573 -4.86163,-17.22715 -25.62479,-10.97817 -25.07832,-13.84251 5.84047,-30.61304 29.47382,-25.15036 27.53339,-27.97555 -3.91472,-5.69968 -9.94429,-6.92992 -17.0339,-0.76271 -2.11928,-25.90122 35.96902,-28.97265 30.81724,-43.90671 -6.77085,4.40039 -17.27868,10.79302 -18.55029,6.78807 -9.35376,-29.4597 36.28421,-21.25935 35.84745,-45.76272 -6.70317,3.58523 -15.39769,9.38739 -18.05084,2.54238 -4.67622,-12.06443 21.29262,-28.76939 37.37288,-26.69492 -3.82161,-3.65793 -8.1177,-6.70581 -15.25424,-6.10169 0.49291,-17.85122 34.9637,-2.81281 57.01261,-21.43093 1.40446,-1.18593 -0.56626,-8.02439 -3.38504,-5.97645 -5.27899,3.83536 -14.86886,11.23351 -18.19819,7.30583 -2.42788,-2.86421 9.42291,-10.30712 14.02228,-16.5391 2.08048,-2.81898 -2.55661,-4.77912 -4.35949,-3.91006 -4.83615,2.33119 -13.65692,12.4203 -16.62899,9.39313 -3.43515,-3.49884 7.10716,-12.74916 9.93245,-19.46042 1.41344,-3.35752 -5.07365,-5.34956 -6.06733,-3.82017 -3.95122,6.0814 -12.28531,17.4942 -15.46048,15.46047 -3.17376,-2.03283 4.44017,-17.13785 6.06734,-20.53906 1.12025,-4.31797 -7.91455,-6.05479 -8.85382,-3.86511 -2.69496,6.28261 -6.41033,19.69622 -9.88751,18.24695 -3.55323,-1.48097 1.61413,-15.28578 2.06739,-22.47162 0.22445,-3.558307 -6.27665,-3.14301 -6.87631,-1.30335 -2.17159,6.66206 -2.65472,18.34477 -6.56172,19.19075 -5.1242,1.10955 -3.48515,-14.60785 -4.35949,-21.797459 -0.69817,-5.74098 -8.08581,-0.195704 -8.04483,2.561759 0.10957,7.37372 3.79611,17.56627 -1.25841,19.37054 -3.34804,1.19512 -5.27629,-12.70916 -7.23586,-19.28065 -1.10268,-3.697862 -6.66644,-0.989 -6.60666,2.20222 0.1072,5.72261 4.37282,15.42044 -0.3146,16.35933 -2.22008,0.44468 -6.40697,-11.76258 -7.27029,-15.54406 -0.36052,-1.57914 -7.32279,-3.21819 -6.48305,1.65254 2.82744,16.40002 24.8467,42.20533 18.62288,49.44915 -4.59214,-4.73232 -9.36125,-9.2888 -15.50847,-8.64406 16.42961,16.51362 9.84576,37.39246 5.33898,43.60169 -8.90348,-3.08127 -12.51646,-13.66983 -14.49152,-22.5 -10.45502,16.07881 12.48134,35.62187 2.54237,48.05085 -2.97834,-3.99955 -7.99784,-8.4111 -13.98305,-8.64407 7.84146,12.29626 3.17736,26.23517 4.32203,38.13559 -3.59514,0.69214 -5.91743,-2.24979 -9.91525,-2.03389 8.70652,31.64008 -10.14395,62.71733 -19.19492,73.22034 -6.6722,-16.1447 -2.22384,-30.72887 -0.63559,-33.30509 3.8122,-6.18358 9.10826,-11.28798 10.55085,-19.19491 -3.00989,-1.77374 -6.72471,-0.58676 -10.93221,2.66949 -5.91828,-23.53972 6.34075,-39.25842 15.88983,-43.22034 -7.12459,-6.35036 -17.09082,6.02808 -17.66949,-4.44915 -1.17458,-21.26648 22.46073,-28.31537 18.05085,-42.20339 -4.7484,5.28881 -9.71451,9.00028 -16.52542,10.67796 -6.1562,-24.39664 15.96027,-45.05194 23.65402,-44.80231 -10.57357,-8.95039 -15.97815,6.21814 -22.38284,3.74299 -1.79825,-18.49924 26.61087,-23.86263 25.93221,-33.30509 -8.67476,3.06993 -20.81336,8.29611 -21.86441,3.43221 -3.57923,-16.56347 36.98498,-21.914572 45.76271,-45.889833 1.31972,-3.604651 -4.18228,-4.96511 -4.83051,-3.940678 -4.76366,7.528203 -16.63909,19.039679 -19.57627,16.144068 -2.51623,-2.480623 6.61788,-14.823487 9.78814,-21.991526 1.13196,-2.559384 -5.23945,-4.713119 -6.48305,-2.033898 -3.26878,7.042264 -9.27069,19.676502 -12.71187,17.415254 -3.26857,-2.147822 2.52147,-14.683857 4.32204,-21.737288 0.61444,-2.406968 -3.25634,-4.774271 -4.95763,-2.415254 -4.16341,5.773026 -4.4771,18.960548 -9.91525,18.241525 -3.30878,-0.437479 -1.41402,-13.599619 -0.50848,-20.911017 0.17617,-1.422439 -4.9284,-4.989893 -5.84746,-1.398305 -1.8283,7.144772 0.50435,21.498125 -6.10169,20.593221 -4.71836,-0.646326 -3.38991,-13.831684 -2.54238,-20.593221 0.36206,-2.8885 -6.29267,-3.283931 -6.99152,-0.635593 -0.69885,2.648338 1.55818,22.417928 -2.6695,22.118644 -3.93691,-0.2787 -4.37281,-15.014855 -7.37287,-22.245762 -1.30982,-3.157006 -5.8703,0.545084 -5.72034,2.669491 0.50847,7.20339 5.19202,20.726287 1.52542,21.61017 -4.23337,1.020512 -5.71667,-14.512418 -10.67797,-19.830509 -2.04988,-2.197294 -7.11265,1.152213 -6.35593,2.923729 3.12899,7.325081 9.90147,16.482559 6.86441,21.483051 -2.24151,3.690631 -10.37481,-12.650662 -15,-17.161017 -2.47697,-2.41547 -5.54964,2.402189 -4.57627,4.194915 3.37421,6.214522 11.18459,14.17188 8.77118,18.686441 -2.87366,5.375507 -13.60243,-8.02025 -19.19491,-13.855932 -2.33163,-2.433023 -5.52665,1.630057 -4.57627,3.813559 12.0167,27.608505 51.94336,30.206765 41.44068,44.999995 -5.75338,3.31294 -11.26317,0.51272 -18.81356,-3.4322 5.44913,20.20007 32.16055,13.46502 27.45762,40.67797 -7.38431,-2.27198 -13.06056,-5.16639 -23.51695,-15 -1.14237,24.97765 28.2196,24.27957 22.11865,50.33898 -5.42199,-1.75428 -9.94416,-3.80735 -18.55932,-8.8983 1.20524,12.67753 26.33021,24.14348 19.32203,44.11017 -5.2326,-2.01993 -10.5007,-4.3061 -16.3983,-11.31356 -4.85163,18.4545 24.19491,28.26271 14.74576,53.26271 -3.5429,-4.09638 -6.69535,-5.85005 -9.91526,-8.00848 -3.25669,20.90415 22.5,31.61017 7.24577,59.61865 -5.96239,-16.44977 -14.56319,-34.21874 -17.87161,-49.34152 -1.5916,-7.2752 3.62654,-26.58744 -9.07755,-22.73475 -3.68033,-15.7192 0.74171,-25.67849 4.0678,-36.86441 -7.7011,1.43647 -10.18685,4.8056 -13.22034,6.86441 -6.76242,-23.08604 0.43802,-25.56671 3.94068,-35.33899 1.25163,-3.492 -5.58776,-7.26882 -6.86441,-4.44915 -2.47923,5.47576 -3.62753,12.34582 -9.40678,14.36441 -10.46111,-15.51289 -7.40963,-29.86756 5.84746,-43.34746 -4.80764,-1.00415 -11.37771,3.8801 -15.88983,9.15254 -6.40564,-13.42498 21.52204,-34.39923 19.24559,-50.35436 -0.34244,-2.40008 -5.81497,-3.94758 -6.00987,-1.78464 -0.74047,8.21743 -4.27617,18.21744 -8.53233,17.30849 -3.94271,-0.84201 -0.3268,-12.01682 -0.19068,-20.4661 0.058,-3.594219 -7.46901,-3.469446 -7.56356,-1.08051 -0.27546,6.95962 -0.61403,20.65543 -6.67372,19.32204 -3.82788,-0.8423 -1.58661,-12.3752 -2.34672,-19.19243 -0.22063,-1.978737 -6.42621,-1.396037 -6.40909,0.48563 0.0549,6.02872 1.60993,18.17154 -2.62132,19.02459 -5.074691,1.02309 -5.402887,-12.07629 -8.66442,-18.00515 -1.179878,-2.1448 -6.050652,1.11918 -5.8271,2.87804 0.859056,6.75887 6.404587,15.53921 1.779661,19.95762 -3.233291,3.08891 -8.309488,-11.89707 -11.694916,-18.17796 -1.594427,-2.95809 -6.197577,0.90936 -5.338983,4.19491 1.801384,6.89329 7.926395,15.57869 4.576271,20.33898 -3.427358,4.87003 -9.765463,-9.85074 -15.762712,-14.74576 -1.610471,-1.31448 -6.418672,1.58215 -4.576271,4.57627 3.574757,5.80941 13.568912,13.98714 9.915255,17.66949 -3.284077,3.30987 -12.509173,-5.22644 -18.050848,-9.02542 -3.088298,-2.11712 -5.017674,2.36051 -4.067797,3.55932 4.776202,6.02789 16.260605,14.02548 11.822034,17.41526 -2.426964,1.85349 -11.590106,-2.38204 -19.002327,-7.01931 -1.853589,-1.15965 -2.79188,4.53974 -1.207501,6.11071 z"
     id="path3612"
     style="fill:#faf700;fill-opacity:1;stroke:none" />
</svg>
