<?xml version="1.0" encoding="UTF-8" standalone="no"?>
<!-- Created with Inkscape (http://www.inkscape.org/) -->

<svg
   xmlns:dc="http://purl.org/dc/elements/1.1/"
   xmlns:cc="http://creativecommons.org/ns#"
   xmlns:rdf="http://www.w3.org/1999/02/22-rdf-syntax-ns#"
   xmlns:svg="http://www.w3.org/2000/svg"
   xmlns="http://www.w3.org/2000/svg"
   version="1.1"
   width="390"
   height="480"
   id="svg4228">
  <metadata
     id="metadata8">
    <rdf:RDF>
      <cc:Work
         rdf:about="">
        <dc:format>image/svg+xml</dc:format>
        <dc:type
           rdf:resource="http://purl.org/dc/dcmitype/StillImage" />
        <dc:title></dc:title>
      </cc:Work>
    </rdf:RDF>
  </metadata>
  <defs
     id="defs4232" />
  <path
     d="M 0,0 C 130,0 260,0 390,0 389.98981,114.99797 370.78556,350.14732 194.88837,479.99815 20.79131,350.08886 0.081386,115.02225 0,0 z"
     id="path4240-0"
     style="fill:#008c31;fill-opacity:1;stroke:none" />
  <path
     d="m 185.97465,12.932064 17.90452,-0.916632 -0.0755,13.135578 29.44181,1.509836 29.73672,46.043779 -5.2847,0 -34.1637,-24.715303 -11.69039,0.106762 54.39502,39.341637 16.36927,44.194509 -6.55835,-0.0189 -34.49977,-29.61166 -13.36205,0 51.32148,40.50562 9.67591,44.87563 -7.3227,0 -31.73092,-32.77009 -10.58326,0.0313 46.07359,46.48685 3.78007,45.92715 -4.11227,0.0691 -32.08932,-38.93546 -9.96492,0.0377 40.16338,47.51791 -8.80783,50.65836 -24.23488,-44.03914 -9.92882,-0.10676 27.97153,51.19217 -14.9962,44.00269 -17.85398,-39.51413 -8.19964,-0.005 19.6975,46.76157 -19.85765,41.31672 -12.70462,-40.46263 -8.11388,-0.0534 12.4807,46.03069 -16.00383,27.79493 -16.97509,0 -16.65481,-27.65124 13.82563,-46.121 -9.92883,0.16014 -12.1653,40.60824 -19.62788,-43.63428 22.1946,-44.61567 -8.83255,0 -18.64648,38.65182 -14.64541,-44.01174 28.95111,-50.39079 -10.3915,-0.0912 -24.41928,43.111 -7.48849,-49.752 35.39231,-47.35777 -10.00267,-0.0755 -26.98165,37.94546 -5.12548,0.0162 0.84278,-46.36714 44.55091,-45.6844 -11.36152,0 -29.78153,32.76345 -6.53004,0.0377 10.22914,-44.61566 48.84322,-39.02928 -12.33648,0.26673 -33.6002,27.61618 -6.83274,-0.10676 17.93594,-43.66548 52.95374,-38.327402 -11.95729,0.05338 -33.14829,24.437103 -6.23109,0.208942 33.13383,-46.158502 28.01455,-1.476841 z"
     id="path3003"
     style="fill:#faf700;fill-opacity:1;stroke:none" />
</svg>
