<?xml version="1.0" encoding="UTF-8" standalone="no"?>
<!-- Created with Inkscape (http://www.inkscape.org/) -->

<svg
   xmlns:svg="http://www.w3.org/2000/svg"
   xmlns="http://www.w3.org/2000/svg"
   version="1.1"
   width="417"
   height="480"
   id="svg2816">
  <defs
     id="defs2820" />
  <path
     d="m 208.57515,477.27942 c 10.03659,-17.84496 26.81193,-29.62592 52.51156,-29.79982 l 78.97381,-0.5344 c 60.75955,-0.41115 75.63243,-33.97593 75.61389,-60.63984 L 415.40677,1.4510459 1.5182513,1.5338404 1.5497927,388.04215 c 0.00297,36.43498 27.5123473,59.26474 86.0651823,59.19758 l 66.805555,-0.0766 c 22.29783,-0.0256 42.00862,11.47848 54.15462,30.11632 z"
     id="path2828"
     style="fill:#000000;stroke:#000000;stroke-width:2.97506166;stroke-linecap:butt;stroke-linejoin:miter;stroke-miterlimit:4;stroke-opacity:1;stroke-dasharray:none" />
  <path
     d="m 1.9445436,282.98237 0,74.95332 c 28.2246184,1.97359 34.6961064,-7.58688 57.0988724,-8.92722 20.583183,-1.23148 30.398654,9.55127 56.391764,10.78338 22.80918,1.08118 28.60711,-11.44097 54.97755,-10.96016 37.46413,0.68307 28.44812,10.40507 58.33631,10.6066 26.59933,0.17935 30.33116,-11.61846 50.73491,-11.13693 23.89805,0.564 24.58585,10.37243 56.39177,10.96016 34.3373,0.63451 22.68108,-14.4269 79.06338,-8.28641 L 415,275.21875 c -47.36026,-8.52965 -53.42746,6.92082 -80.00816,7.85201 -23.29427,0.82152 -32.2593,-10.44027 -54.624,-10.6066 -22.05549,-0.16403 -32.29487,10.6716 -54.44722,11.13693 -23.19305,0.4872 -19.7455,-10.46923 -55.33111,-10.78338 -27.86905,-0.24603 -34.29346,9.64041 -55.50788,10.07628 -29.802403,0.61232 -20.091361,-11.1636 -55.326812,-11.43258 -24.560839,-0.1875 -23.974679,12.31594 -57.8102744,11.52096 z"
     id="path3624"
     style="fill:#ececec;stroke:#000000;stroke-width:1px;stroke-linecap:butt;stroke-linejoin:miter;stroke-opacity:1" />
  <path
     d="m 211.71151,132.22467 31.38419,-19.7548 5.97062,26.91177 -37.40743,27.60749 0.0526,-34.76446 -1e-5,0 z"
     id="path3648"
     style="fill:#ececec;stroke:none" />
  <path
     d="m 207.38668,167.03344 -0.002,-34.93503 -31.08494,-20.0305 -4.90655,27.38079 35.99315,27.58474 2.8e-4,0 z"
     id="path3648-4"
     style="fill:#ececec;stroke:none" />
  <path
     d="m 247.0236,112.05693 101.9115,0.11424 9.96578,26.87081 -105.36151,-0.0439 -6.51577,-26.94114 z"
     id="path3672"
     style="fill:#ececec;stroke:none" />
  <path
     d="m 290.35371,108.29395 31.61504,0.0873 -3.1681,-8.35431 -31.81306,-0.05822 3.36612,8.3252 z"
     id="path3674"
     style="fill:#ececec;stroke:none" />
  <path
     d="m 127.43604,108.44072 -30.776268,0.09 3.084048,-8.617646 30.96903,-0.06005 -3.27681,8.587616 z"
     id="path3674-4"
     style="fill:#ececec;stroke:none" />
  <path
     d="m 166.47678,138.95412 5.72288,-26.55252 -102.61862,-0.0971 -9.96578,26.69328 106.86152,-0.0436 0,-3e-5 z"
     id="path3672-8"
     style="fill:#ececec;stroke:none" />
  <path
     d="m 207.33931,115.1875 -0.0321,-27.093749 -26.73703,0 -2.08888,13.999999 28.858,13.09375 z"
     id="path3729"
     style="fill:#ececec;stroke:none" />
  <path
     d="m 211.44194,115.1875 0.0319,-27.09375 26.58015,0 2.56917,13.8125 -29.18124,13.28125 z"
     id="path3729-8"
     style="fill:#ececec;stroke:none" />
  <path
     d="m 242.15625,87.953131 2.54688,11.14062 37.67187,-0.15625 -4.4375,-11 -35.78125,0.01563 z"
     id="path3753"
     style="fill:#ececec;stroke:none" />
  <path
     d="m 176.51254,88.033151 -2.15966,11.14062 -38.7662,-0.15625 4.51552,-11 36.41034,0.01563 z"
     id="path3753-2"
     style="fill:#ececec;stroke:none" />
  <path
     d="M 415.02748,160.222 362.43642,138.86518 350.94593,109.0783 326.03125,109 321.9375,96.062501 l -35.90625,-0.125 -5.0625,-11.96875 -143.95313,0.01562 L 132,96 96.953125,96 91.9375,109 67.53125,109.03125 55.375,138.78125 1.9962087,160.18783 2,1.992188 415.00391,1.9960946 415.02748,160.222 z"
     id="path3777"
     style="fill:#d22828;fill-opacity:1;stroke:none" />
</svg>
