<?xml version="1.0" encoding="UTF-8" standalone="no"?>
<!-- Created with Inkscape (http://www.inkscape.org/) -->

<svg
   xmlns:svg="http://www.w3.org/2000/svg"
   xmlns="http://www.w3.org/2000/svg"
   xmlns:xlink="http://www.w3.org/1999/xlink"
   version="1.1"
   width="390"
   height="480"
   id="svg4228">
  <defs
     id="defs4232">
    <linearGradient
       id="linearGradient3653">
      <stop
         id="stop3655"
         style="stop-color:#ffffff;stop-opacity:1"
         offset="0" />
      <stop
         id="stop3657"
         style="stop-color:#ffffff;stop-opacity:0"
         offset="1" />
    </linearGradient>
    <linearGradient
       x1="0"
       y1="109.87704"
       x2="390"
       y2="109.87704"
       id="linearGradient2839"
       xlink:href="#linearGradient3653"
       gradientUnits="userSpaceOnUse" />
  </defs>
  <path
     d="M 0,0 C 130,0 260,0 390,0 389.98981,114.99797 370.78556,350.14732 194.88837,479.99815 20.79131,350.08886 0.081386,115.02225 0,0 z"
     id="path4240-0"
     style="color:#000000;fill:#d61a1a;fill-opacity:1;fill-rule:nonzero;stroke:none;marker:none;visibility:visible;display:inline;overflow:visible;enable-background:accumulate" />
  <path
     d="m 213.78049,229.33705 c 7.75042,-1.13641 15.00796,-2.88473 20.04633,-4.64896 4.76631,9.13296 11.46578,18.01442 17.38783,24.91969 -2.74893,9.07656 -4.09434,26.28372 4.42095,37.80747 -6.31498,21.11488 -13.78281,41.34881 -16.52542,64.95764 -0.27254,2.34604 -3.75721,-0.54993 -5.02035,0.70266 -2.84069,2.81698 -3.92493,9.72076 -5.40337,13.53462 -1.49495,3.85644 -26.83125,7.77452 -20.84747,-0.12712 18.41969,-24.32339 26.96198,-47.47718 31.14407,-75.25424 -13.57978,-18.54493 -20.3851,-39.97671 -25.20257,-61.89176 z"
     id="path4817"
     style="fill:#f2f2f2;stroke:none" />
  <path
     d="m 99.915254,129.27966 c 0.435776,-3.66363 -15.317472,3.12272 -13.970274,-2.07113 3.026713,-11.6689 2.592916,-23.05861 -2.446099,-33.581135 -4.599884,-9.60553 -14.01639,-7.682494 -21.2493,-6.782231 -0.514918,-1.512572 -0.939006,-3.699292 -0.342801,-5.616353 -2.595457,1.588746 -5.4195,4.072575 -8.516949,3.305084 -12.232846,-3.031074 0.04994,-32.696751 9.533898,-29.491525 0,0 17.824792,8.541062 27.457627,9.279661 5.403895,0.414345 16.016954,-2.79661 16.016954,-2.79661 C 91.687058,55.982434 78.733357,48.747059 65.720339,41.440675 c -6.500004,-3.64954 -7.782437,-11.271338 -10.29661,-16.90678 -0.752988,-1.687799 2.741853,-2.753501 3.769801,-1.006148 5.255363,8.933301 17.130352,11.886996 16.442063,8.633267 l -1.398305,-6.61017 c -0.524715,-2.480472 3.598754,-4.227149 4.637959,-1.736041 3.840109,9.205239 13.955238,15.02905 21.802723,12.668245 3.30474,-0.994184 3.23471,-7.363531 2.16101,-13.474576 -0.4577,-2.605022 3.73171,-2.425235 4.32204,-0.381356 0.71668,2.48134 -1.19788,6.32331 7.5,5.211864 5.83201,-0.745235 6.82158,-5.716712 7.62712,-9.661017 0.50949,-2.494717 4.51563,-1.991592 4.11273,-0.193871 -1.04003,4.640585 1.28441,7.005654 5.92964,6.549803 4.35148,-0.427025 4.31056,-4.905212 5.4661,-7.881356 1.10397,-2.843327 5.48905,-2.155555 5.21186,0 -0.55506,4.316439 -2.33199,8.393857 0.88984,9.025424 5.82696,1.142244 7.11865,-7.542371 10.67797,-11.313559 0.37723,-0.399686 4.06645,-0.689552 3.68644,1.525424 -2.58645,15.075711 -21.07955,30.811043 -45.25425,38.262711 8.50139,11.990702 20.06582,12.007408 24.27439,7.702397 3.44932,-3.52837 -4.17737,-8.090519 -2.91845,-10.753244 0.88932,-1.880997 11.94031,1.231712 21.55421,-1.652596 11.97459,-3.751694 12.76581,-14.226551 14.92885,-24.788082 0.70743,-3.454182 4.97289,-4.281061 5.59322,-0.889831 0.4806,2.627377 1.48766,6.264873 5.72034,6.483051 4.27835,0.220532 4.89741,-5.010885 6.61017,-8.135593 1.03314,-1.88483 4.87979,-1.944051 4.83051,-0.127119 -0.10265,3.784724 -1.06403,8.900563 2.66949,9.152543 8.1905,0.552787 8.43813,-5.938037 9.40678,-9.915254 0.56498,-2.319781 5.12927,-2.879184 5.4661,-0.127119 0.40996,3.349554 -1.74113,9.801752 1.52542,9.788136 6.56742,-0.02737 11.87364,-11.00769 17.79661,-16.525424 2.08614,-1.943413 5.38425,-0.690085 5.08475,0.635593 -7.58822,33.587802 -37.01675,48.513261 -56.44068,56.059322 -7.72612,3.001546 -37.24578,-1.525424 -47.28815,4.957627 3.08636,6.825449 33.5635,2.905402 45.88984,21.991526 -12.10537,6.604788 -23.58216,-2.043132 -40.42373,-8.771187 8.87059,11.024515 34.57438,15.853535 50.84746,40.042375 1.86189,2.76757 51.15598,12.92219 76.01695,21.22881 6.68023,2.23202 10.93176,10.00444 14.32848,18.32489 2.26823,5.55614 10.70299,11.39369 8.79609,24.15919 -2.9148,19.51274 -8.09878,33.87759 -5.95016,46.98695 2.07946,12.68744 13.41043,25.81616 12.78153,35.43893 -0.29599,4.52893 -0.46657,51.00517 -5.34824,77.39223 -0.44137,2.38575 -2.29973,-0.99464 -5.26184,1.60557 -3.74815,4.52393 -3.94758,12.13226 -7.47063,16.83081 -3.18603,4.2491 -22.66265,3.91741 -21.7544,1.69181 4.30089,-10.53901 17.19544,-24.00447 18.35225,-27.67865 3.72965,-11.84584 2.59642,-24.34548 3.86512,-36.58378 4.71739,-45.50557 -44.37578,-66.1124 -47.63982,-102.65034 -0.28648,6.04457 2.41827,13.88046 4.94375,18.20201 -20.25001,6.55037 -39.74849,6.10739 -59.77449,7.50552 3.06029,11.07136 5.67245,36.45725 1.61795,54.11165 2.15728,11.92493 8.46921,36.77857 7.07471,58.57854 -0.29691,0.88661 -4.89279,0.34078 -5.45675,3.80266 -1.33956,8.22285 -0.87209,15.10772 -9.56907,21.30309 -1.7693,1.26038 -13.69401,2.11759 -12.90254,0.0899 3.24721,-8.31916 4.68133,-11.01536 9.43013,-19.54619 4.56737,-8.2049 3.64586,-39.35306 1.53601,-55.23934 -12.60347,-18.82304 -11.85336,-40.95466 -15.99979,-61.66211 -0.59512,-2.97207 -5.28161,-0.45777 -5.21342,0.35955 1.72488,20.67478 2.31546,41.44914 -1.9775,60.4037 1.91758,17.64771 7.59245,53.00049 5.75274,52.94312 -1.61447,-0.0503 -4.5977,0.5671 -5.12354,2.96625 -2.6909,12.27716 -11.92493,18.47084 -15.55035,19.41548 -4.64725,1.21088 -14.97929,2.09114 -14.02229,0 2.12019,-4.63281 6.30261,-8.39509 10.67884,-15.40463 16.01781,-25.65623 5.09908,-36.21372 5.68049,-65.85272 -8.4662,-5.78971 -8.80888,-43.62488 -9.16841,-63.54973 -21.453525,-3.70405 -7.13887,-53.75433 -20.892146,-95.17315 l 0,-2e-5 z"
     id="path4283"
     style="fill:#f2f2f2;stroke:none" />
  <path
     d="m 101.94915,72.934319 2.54238,0.508474 c 0,0 -1.08212,2.468008 1.7161,4.163136 3.01032,1.823616 5.81568,-0.858051 5.81568,-0.858051 l 1.5572,1.493644 c 1.05544,-3.865438 -5.94797,-9.854199 -11.63136,-5.307203 z"
     id="path4819"
     style="fill:#d61a1a;fill-opacity:1;stroke:none" />
</svg>
