<?xml version="1.0" encoding="UTF-8" standalone="no"?>
<!-- Created with Inkscape (http://www.inkscape.org/) -->

<svg
   xmlns:svg="http://www.w3.org/2000/svg"
   xmlns="http://www.w3.org/2000/svg"
   xmlns:xlink="http://www.w3.org/1999/xlink"
   version="1.1"
   width="390"
   height="480"
   id="svg4228">
  <defs
     id="defs4232" />
  <path
     d="m 0.51202379,0.50512952 c 129.66265621,0 259.32532621,0 388.98797621,0 C 389.48983,115.23328 370.33544,349.8309 194.89467,479.37706 21.249382,349.77255 0.5931986,115.2575 0.51202379,0.50512952 z"
     id="path4240-0-1"
     style="fill:#faf700;fill-opacity:1;stroke:#9e832a;stroke-width:0.99999905;stroke-opacity:1" />
  <path
     d="m 101.82203,252.58475 c -14.139627,1.85218 -26.28511,-4.53339 -25.274519,-10.3995 3.018359,-17.52045 69.287799,-57.46098 118.516049,-75.34203 55.00923,24.56574 116.40832,62.93731 116.55381,77.37504 0.062,6.15723 -10.56022,13.2101 -24.96483,8.23937 36.04913,20.62838 48.57311,0.87251 48.2434,-7.69255 -1.07496,-27.92461 -73.10714,-71.42581 -111.54848,-95.27356 6.97222,-10.12337 23.9147,-9.76285 24.15254,-23.8983 0.19873,-11.81081 -7.90442,-15.11839 -13.47458,-15.12712 -7.88816,-10.915987 -17.59957,-17.484191 -28.60169,-20.974577 1.07996,-6.089221 -5.31843,-11.716317 -9.91526,-12.838983 0.74906,-14.01649 25.89249,-18.945623 23.86746,-37.934011 -2.40324,-22.534871 -35.24826,-26.367755 -54.4722,-25.690742 -27.21581,0.958464 -54.30433,4.285845 -56.59865,29.938312 l 16.52543,5.720339 c 0.67788,-9.847612 7.44011,-16.977279 39.91525,-17.669492 15.55831,-0.331628 31.8617,0.04921 31.77966,10.29661 -0.12198,15.235845 -26.16089,18.858068 -25.80508,33.177967 0.1092,4.449923 2.61715,11.367643 3.30508,16.652542 -6.37749,8.678617 -38.94468,20.136005 -38.00847,30.889835 0.74593,8.56821 19.48784,17.12018 29.23729,25.67796 -44.29837,21.68523 -101.949744,58.11185 -111.322367,96.33619 2.528402,26.18904 31.770282,16.33238 47.890157,8.5367 z"
     id="path4248"
     style="fill:#000000;stroke:none" />
  <path
     d="m 171.00898,122.29685 c 5.8318,-6.36751 15.42715,-12.31017 23.50531,-15.32564 6.86753,2.35639 16.27354,9.54236 20.31434,14.92115 -4.9884,6.02266 -12.62408,12.1065 -20.31434,16.26945 -7.8899,-3.15736 -17.28729,-9.229 -23.50531,-15.86496 z"
     id="path4250"
     style="fill:#faf700;fill-opacity:1;stroke:none" />
  <use
     transform="matrix(0.67083656,0,0,0.67083656,63.995008,189.1779)"
     id="use3763"
     x="0"
     y="0"
     width="390"
     height="480"
     xlink:href="#path4248" />
  <use
     transform="matrix(0.67083656,0,0,0.67083656,63.995008,189.1779)"
     id="use3765"
     x="0"
     y="0"
     width="390"
     height="480"
     xlink:href="#path4250" />
</svg>
