<?xml version="1.0" encoding="UTF-8" standalone="no"?>
<!-- Created with Inkscape (http://www.inkscape.org/) -->

<svg
   xmlns:svg="http://www.w3.org/2000/svg"
   xmlns="http://www.w3.org/2000/svg"
   xmlns:xlink="http://www.w3.org/1999/xlink"
   version="1.1"
   width="390"
   height="480"
   id="svg4228">
  <defs
     id="defs4232" />
  <path
     d="M 0,0 C 130,0 260,0 390,0 389.98981,114.99797 370.78556,350.14732 194.88837,479.99815 20.79131,350.08886 0.081386,115.02225 0,0 z"
     id="path4240-0"
     style="fill:#d61a1a;fill-opacity:1;stroke:none" />
  <path
     d="m 168.43137,202.87582 c 3.39887,4.27594 14.51244,-4.44656 11.24183,-9.01961 l -11.16919,-14.44591 8.41134,-7.62567 4.62161,3.92837 33.46048,-26.48184 -6.83999,-8.04161 -3.32757,1.61757 c -2.37085,1.15251 -5.83925,-7.5531 -8.82728,-5.08378 l -7.85674,7.57945 c 4.08198,3.98523 -3.15525,10.86348 -6.79377,4.39053 -5.04728,7.84728 -13.25291,-1.90856 -5.36107,-5.22242 -5.43302,-5.32246 2.93157,-10.5333 5.77702,-5.36108 l 9.70539,-9.10457 c 2.2386,-2.10002 -2.65818,-4.14266 -3.00406,-6.2854 -0.30746,-1.90481 3.00405,-5.03755 3.00405,-5.03755 l -6.14674,-7.76431 -33.64534,27.91454 1.52513,5.54594 -6.74756,6.14674 L 98.99495,91.137488 C 121.60694,81.973622 121.82628,61.422417 113.87654,49.820268 96.792792,24.887619 64.388228,25.536516 48.804233,37.988939 41.890265,43.513559 20.820246,71.394585 37.527497,98.99423 c 6.841955,11.30261 28.389464,31.4692 49.358827,1.29405 l 81.545046,102.58754 z"
     id="path3632"
     style="fill:#faf700;fill-opacity:1;stroke:none" />
  <path
     d="m 73.206349,88.087223 c 11.85219,8.926949 -10.346864,24.403737 -23.108065,7.671878 -3.729757,-4.890275 -14.873198,-22.540949 3.142698,-45.106943 8.87212,-11.112864 33.540194,-15.346147 48.249638,2.680535 15.11437,18.522924 -9.296919,35.598762 -12.478354,22.09131 -1.302199,-5.528758 -1.16381,-15.768452 -8.134039,-16.268077 -3.916019,-0.2807 -6.880552,3.99728 -6.655123,10.352413 0.211496,5.962348 -14.328156,1.189729 -13.125381,10.075116 0.428325,3.164211 6.725855,4.44952 12.108626,8.503768 z"
     id="path3634"
     style="fill:#d61a1a;fill-opacity:1;stroke:none" />
  <use
     transform="matrix(0.21462269,0.97669703,-0.97669703,0.21462269,374.24354,-15.19505)"
     id="use3636"
     x="0"
     y="0"
     width="390"
     height="480"
     xlink:href="#path3632" />
  <use
     transform="matrix(0.21462269,0.97669703,-0.97669703,0.21462269,374.24354,-15.19505)"
     id="use3638"
     x="0"
     y="0"
     width="390"
     height="480"
     xlink:href="#path3634" />
  <use
     transform="matrix(-0.78343603,-0.62147243,0.62147243,-0.78343603,209.95931,486.25031)"
     id="use3640"
     x="0"
     y="0"
     width="390"
     height="480"
     xlink:href="#path3632" />
  <use
     transform="matrix(-0.78343603,-0.62147243,0.62147243,-0.78343603,209.95931,486.25031)"
     id="use3642"
     x="0"
     y="0"
     width="390"
     height="480"
     xlink:href="#path3634" />
</svg>
