<?xml version="1.0" encoding="UTF-8" standalone="no"?>
<!-- Created with Inkscape (http://www.inkscape.org/) -->

<svg
   xmlns:svg="http://www.w3.org/2000/svg"
   xmlns="http://www.w3.org/2000/svg"
   version="1.1"
   width="390"
   height="480"
   id="svg4228">
  <defs
     id="defs4232" />
  <path
     d="m 0.51202379,0.50512952 c 129.66265621,0 259.32532621,0 388.98797621,0 C 389.48983,115.23328 370.33544,349.8309 194.89467,479.37706 21.249382,349.77255 0.5931986,115.2575 0.51202379,0.50512952 z"
     id="path4240-0-1"
     style="fill:#d9d9d9;fill-opacity:1;stroke:#999999;stroke-width:0.99999905;stroke-opacity:1" />
  <path
     d="m 259.83051,205.16949 -4.94915,-0.39407 c 17.86043,-21.60539 50.20216,-8.19954 48.16949,22.13136 -1.75624,26.20615 -22.49895,35.80401 -40.04237,26.31356 8.34855,31.97588 75.05929,21.09118 75.25423,-38.77119 0.0494,-15.16468 -5.11628,-25.16474 -13.75966,-32.65142 9.13318,-0.71453 9.72182,-13.3096 2.82746,-16.54349 9.35699,-1.27195 8.25605,-14.57979 1.3983,-16.14407 11.50745,-6.40363 4.10429,-19.11826 -4.70339,-17.54237 8.62344,-5.73075 2.4856,-15.78612 -4.8305,-13.98306 6.00639,-6.30295 0.45632,-12.84518 -6.35594,-12.20338 0.78699,-62.875076 -40.24947,-72.645281 -59.61864,-72.711871 -32.7045,-0.112437 -51.74658,33.068732 -37.88136,51.101695 15.74511,-29.060864 46.68824,-15.816506 52.78969,11.251177 3.84385,17.052399 -2.32555,36.717489 -20.683,45.226669 0,0 -34.14481,0.0682 -34.14058,0.0899 L 139.19492,84.025421 155.72034,71.822031 157.5,56.694912 c 0.54048,-4.594078 13.43224,-5.925733 17.16102,-5.211864 -0.91052,-6.444851 -6.97653,-12.23267 -13.77398,-11.881077 l -65.039582,3.364128 -25.741526,108.622881 26.122882,-10.74152 1.016949,4.06779 -40.042373,18.43221 c -11.550568,5.31693 -13.600078,22.4433 -8.262712,31.77966 l 42.076271,73.60169 90.889831,41.31356 -19.70339,32.0339 -15.88983,0.12712 c -11.04571,-23.30077 -49.310911,-3.96575 -33.05085,13.98305 0.39681,-21.56103 26.65759,-18.13384 25.04238,-0.12712 l 60.38135,-0.12712 c -1.12398,-17.268 25.54359,-18.58241 21.1017,2.16102 15.11612,-16.91895 -9.79449,-36.21115 -25.67797,-15.88983 l -13.22034,-0.12712 9.5339,-16.01695 2.66949,8.26271 8.89831,-16.52542 72.07627,32.28814 -8.1356,-28.72882 -34.57627,-17.28813 1.14407,-5.21187 30.12712,14.61865 -8.38983,-29.11017 -32.66949,-17.6695 1.3983,-5.65677 27.45763,14.42796 -10.80509,-32.66949 -30.38135,-14.61864 1.3983,-4.70339 30.12712,14.11016 15,-16.65254 -5.35593,-1 z"
     id="path2881"
     style="fill:#000000;stroke:none" />
  <path
     d="m 154.6047,29.425924 c -7.77941,-4.440616 -17.63455,-9.838463 -30.38162,-9.824244 -5.3863,0.006 -14.42113,-0.323066 -14.5616,5.778967 -0.18962,8.237166 -0.11116,13.855454 -3.41569,23.3085 -2.91753,8.345983 8.31286,-5.681689 27.67513,-7.148056 15.35264,-1.162706 25.22248,14.463101 25.68849,9.42848 0.54316,-5.868175 -6.40755,-7.30619 -5.00471,-21.543647 z"
     id="path3655"
     style="fill:#d61a1a;fill-opacity:1;stroke:none" />
  <path
     d="m 144.47034,48.209742 a 5.307205,4.8622896 0 0 1 -10.61441,0 5.307205,4.8622896 0 1 1 10.61441,0 z"
     id="path3657"
     style="opacity:0.98999999;fill:#d9d9d9;fill-opacity:1;fill-rule:evenodd;stroke:none" />
</svg>
