<?xml version="1.0" encoding="UTF-8" standalone="no"?>
<!-- Created with Inkscape (http://www.inkscape.org/) -->

<svg
 xmlns:dc="http://purl.org/dc/elements/1.1/"
 xmlns:cc="http://creativecommons.org/ns#"
 xmlns:rdf="http://www.w3.org/1999/02/22-rdf-syntax-ns#"
 xmlns:svg="http://www.w3.org/2000/svg"
 xmlns="http://www.w3.org/2000/svg"
 xmlns:xlink="http://www.w3.org/1999/xlink"
 version="1.1"
 width="390"
 height="480"
 id="svg4228">
<metadata
 id="metadata16">
<rdf:RDF>
<cc:Work
 rdf:about="">
<dc:format>image/svg+xml</dc:format>
<dc:type
 rdf:resource="http://purl.org/dc/dcmitype/StillImage" />
<dc:title></dc:title>
</cc:Work>
</rdf:RDF>
</metadata>
<defs
 id="defs4232" />
<path
 d="M 0,0 C 130,0 260,0 390,0 389.98981,114.99797 370.78556,350.14732 194.88837,479.99815 20.79131,350.08886 0.081386,115.02225 0,0 z"
 id="path4240-0"
 style="fill:#d61a1a;fill-opacity:1;stroke:none" />
<path
 d="m 136.52542,130.67797 c 4.48245,2.54749 10.22899,-10.78219 10.42373,-14.74577 0.15205,-3.09468 -3.8127,-1.96092 -5.08474,-5.59322 -2.28044,-6.51181 -0.17289,-15.962662 -0.76271,-23.898303 -5.81455,0.337475 -6.11777,-3.237491 -5.59325,-6.483051 0.17297,-6.944531 7.68354,-23.381448 7.11865,-26.949152 -1.98187,-12.516939 -18.8223,-14.765143 -19.44915,-27.584746 -0.0841,-1.719818 1.92888,-2.165166 3.05084,-3.050848 -0.10662,-2.653373 -2.75761,-7.470709 -0.12711,-7.754237 27.50685,-2.964825 27.09757,14.542192 40.04237,14.491526 8.84448,-0.03462 17.0109,-4.232024 28.85593,-3.432204 8.05433,0.543858 16.07995,1.816844 24.15254,1.779661 18.95603,-0.08731 22.21367,-13.284867 27.07627,-11.059322 6.26237,2.866205 18.34769,-1.250629 23.00848,3.050848 6.20159,5.72349 -12.9661,19.237288 -19.44915,28.855932 1.2063,13.289118 10.10109,31.358722 -2.60594,40.677966 0.4916,8.901025 2.90271,20.20528 -6.80084,23.51695 -0.64768,7.66446 1.33706,15.01585 8.8983,15.38136 27.35399,1.32229 40.63252,-57.987715 52.88136,-66.864412 5.64156,-4.08842 11.9811,-18.434611 23.13559,-17.542373 28.47297,2.277529 23.95747,61.482895 32.75034,95.056095 2.87383,10.97292 -2.32216,10.67277 -5.29271,11.72357 -0.55453,23.62749 -3.96023,66.02557 -7.5,69.02542 -10.17212,8.62056 -19.52712,57.23377 -37.21399,86.82203 -4.94642,8.27484 -8.1362,3.24975 -9.81991,0 -1.98014,-3.82189 -1.48439,-10.2828 -6.1017,-11.18644 -5.17785,-1.01334 -5.71688,8.81511 -9.40677,7.88136 -5.61297,-1.4204 0.99212,-13.30005 -5.21187,-17.54237 -4.2598,-2.91287 -9.89942,7.92889 -12.58475,6.22881 -4.63584,-2.93494 -1.0732,-22.1746 0.38136,-25.04237 4.70826,-9.28271 12.45949,-25.38967 12.20339,-30.76271 -0.43138,-9.05039 -7.49613,-14.675 -9.5339,-15 -3.66333,2.93728 -11.81306,21.63073 -11.94915,38.00847 -0.26567,31.97134 16.47495,60.41759 23.51695,89.61864 -2.61058,0.44854 -5.40069,0.71389 -6.61017,3.17797 -1.81802,3.70384 3.87607,8.73454 -0.50848,12.58474 -8.22452,7.22218 -27.60347,-11.52341 -41.18644,-17.92372 -6.00692,-2.83047 -6.67003,6.74627 -4.06779,8.8983 6.52363,5.395 20.73274,7.69337 24.66101,11.82204 6.80911,7.15647 0.50616,21.02508 -2.79661,17.03389 -7.65017,-9.24475 -15.19523,-6.97771 -17.41525,-4.57627 -3.43009,3.71038 5.67575,15.11563 10.04237,15.25425 l 8.00848,0.25423 c -0.29043,10.67843 -7.36652,16.81521 -13.22034,16.3983 -10.44107,-0.74362 -8.23672,-12.51915 -15.12712,-16.65254 -3.29343,-1.97565 -7.03301,-0.63515 -5.08475,2.54237 4.78428,7.80297 -2.49908,10.32094 -2.41525,15.25424 0.0527,3.10148 5.50788,3.69011 10.9322,3.68644 -2.61889,8.7735 -7.3616,10.16075 -11.82203,10.16949 -15.30668,0.03 -13.51369,-14.42691 -14.36441,-26.18644 -5.49637,1.6817 -9.51928,5.20028 -11.56779,12.20339 -0.88774,3.03486 1.63441,4.9092 4.44915,6.86441 -9.00859,7.99083 -23.59974,-2.37348 -20.72034,-13.6017 2.91,-11.34754 28.05178,-29.03821 36.61017,-56.82203 1.27359,-4.13456 -3.48622,-9.92475 -13.6017,-11.69491 -13.42842,-2.3499 3.55805,12.79173 3.55933,20.84745 9.7e-4,6.05536 -7.61975,10.07414 -10.42373,7.5 l -7.75424,-7.11864 c -8.14047,-6.5506 -10.06591,6.988 -8.26271,16.01695 1.0076,5.04525 -3.35141,0.92198 -4.57627,6.10169 -0.6252,2.64388 8.35496,6.58812 7.88135,10.16949 -0.63166,4.77644 -8.45754,5.242 -13.09322,5.08475 -9.45614,-0.32077 -6.91371,-14.77155 -7.75423,-22.37288 -0.17527,-1.58508 -3.865,-5.06815 -5.33899,-2.66949 -3.74952,6.10169 -19.81047,11.18644 -10.16949,19.06779 -7.54126,1.50913 -14.2995,0.044 -15,-10.29661 -0.63739,-9.40904 16.05187,-18.39259 13.34746,-22.88135 -2.74784,-4.56085 -16.33586,-0.95578 -13.85593,8.13559 -17.16826,-2.05587 -9.29289,-26.55877 -0.25424,-25.80508 19.97527,1.66564 40.65356,2.47083 45.12712,-16.14407 2.60118,-10.82373 -20.41128,-13.8419 -19.83051,-27.45763 -17.85243,-16.14212 -13.05433,-53.48403 -24.02542,-74.87288 -1.80606,-3.52102 -11.99566,3.68682 -12.71187,8.77119 -2.90047,20.59048 15.2359,39.26807 14.87288,59.87288 -0.14135,8.02305 -8.17704,5.71225 -9.27966,4.19491 -2.02504,-2.78671 -3.13053,-8.94511 -6.10169,-8.26271 -4.35658,1.0006 -2.27986,20.40947 -9.15255,19.0678 -4.717791,-0.92099 -2.87859,-11.0513 -8.262708,-9.27966 -4.6392,1.52653 -4.451547,7.14607 -4.70339,13.47457 -0.160636,4.03657 -4.158621,5.01374 -5.466102,1.65255 C 71.654039,281.90604 60.392522,254.23171 51.483051,225.38136 28.495078,220.4943 41.652543,175.97458 39.40678,148.22034 32.557809,149.35562 29.227504,145.87209 31.472391,137.30468 36.876079,116.682 42.68764,68.86733 47.288136,56.694914 50.737119,47.569277 74.202944,44.290528 79.70339,52.118643 97.389806,77.289567 109.08654,115.0838 136.52542,130.67797 z"
 id="path2827"
 style="fill:#faf700;fill-opacity:1;stroke:none" />
<path
 d="m 160.04237,48.050847 c 17.47661,9.886379 24.89028,8.740632 32.66949,18.050847 1.56239,-7.528745 27.33051,-13.262712 36.99153,-24.279661 -1.83553,13.00925 -33.05889,17.720233 -36.32415,28.347457 -8.97378,-10.464778 -27.70928,-14.181911 -33.33687,-22.118643 z"
 id="path2829"
 style="fill:#d61a1a;fill-opacity:1;stroke:none" />
<use
 transform="matrix(-1,0,0,1,385.18537,0)"
 id="use3770"
 x="0"
 y="0"
 width="390"
 height="480"
 xlink:href="#path3603-1" />
<path
 d="m 224.49441,60.653873 c -4.87966,1.065768 -17.87927,-0.194056 -20.569,4.88768 -5.30988,10.032018 7.89279,17.111696 13.41102,9.470339 2.29625,-3.179728 1.27358,-8.143193 2.34343,-9.490826 0.56088,-1.514464 3.57747,-3.972577 4.81455,-4.867193 z"
 id="path3603-1"
 style="fill:#d61a1a;fill-opacity:1;stroke:none" />
<path
 d="m 202.15463,87.106304 c 11.70098,4.813848 6.8758,16.528716 15.46048,22.022176 -10.74994,-3.21784 -5.1657,-15.386381 -15.46048,-22.022176 z"
 id="path3627"
 style="fill:#d61a1a;fill-opacity:1;stroke:none" />
<path
 d="m 194.24794,77.497726 c -3.46908,-0.943161 -6.71587,6.129124 -8.01003,10.166026 -0.53613,1.67233 4.92086,7.762025 7.20802,11.613653 3.95901,-1.949894 13.34268,-18.370157 0.80201,-21.779679 z"
 id="path3651"
 style="fill:#faf700;fill-opacity:1;stroke:#d61a1a;stroke-width:3;stroke-miterlimit:4;stroke-opacity:1;stroke-dasharray:none" />
<use
 transform="matrix(-1,0,0,1,385.18537,0)"
 id="use3772"
 x="0"
 y="0"
 width="390"
 height="480"
 xlink:href="#path3653-4" />
<path
 d="m 176.37712,68.930084 a 3.01907,3.4639856 0 1 1 -6.03814,0 3.01907,3.4639856 0 1 1 6.03814,0 z"
 transform="matrix(1.0975547,0.53359175,0.68771847,-1.0775824,-26.657487,51.563556)"
 id="path3653-4"
 style="fill:#d61a1a;fill-opacity:1;fill-rule:evenodd;stroke:#faf700;stroke-width:1.20495868;stroke-linecap:round;stroke-linejoin:round;stroke-miterlimit:4;stroke-opacity:1;stroke-dasharray:none" />
<use
 transform="matrix(-1,0,0,1,388.97126,0.57034221)"
 id="use3768"
 x="0"
 y="0"
 width="390"
 height="480"
 xlink:href="#path3627" />
</svg>
