<?xml version="1.0" encoding="UTF-8" standalone="no"?>
<!-- Created with Inkscape (http://www.inkscape.org/) -->

<svg
   xmlns:dc="http://purl.org/dc/elements/1.1/"
   xmlns:cc="http://creativecommons.org/ns#"
   xmlns:rdf="http://www.w3.org/1999/02/22-rdf-syntax-ns#"
   xmlns:svg="http://www.w3.org/2000/svg"
   xmlns="http://www.w3.org/2000/svg"
   xmlns:xlink="http://www.w3.org/1999/xlink"
   version="1.1"
   width="390"
   height="480"
   id="svg4228">
  <metadata
     id="metadata25">
    <rdf:RDF>
      <cc:Work
         rdf:about="">
        <dc:format>image/svg+xml</dc:format>
        <dc:type
           rdf:resource="http://purl.org/dc/dcmitype/StillImage" />
        <dc:title></dc:title>
      </cc:Work>
    </rdf:RDF>
  </metadata>
  <defs
     id="defs4232" />
  <path
     d="M 0,0 C 130,0 260,0 390,0 389.98981,114.99797 370.78556,350.14732 194.88837,479.99815 20.79131,350.08886 0.081386,115.02225 0,0 z"
     id="path4240-0"
     style="fill:#008c31;fill-opacity:1;stroke:none" />
  <path
     d="m 120.42705,98.22064 11.31672,17.08185 10.35587,-1.49466 -5.97864,10.56939 13.45195,-3.20284 -7.68683,11.20996 13.23844,-2.88256 -7.68684,11.63701 13.98577,-3.95018 -7.25979,11.63701 13.13167,-4.48398 -5.97864,12.17081 12.4911,-3.52313 -5.76513,11.42349 12.70463,-4.37722 -5.33808,11.1032 12.17082,-3.41637 -4.59075,11.63701 11.20997,-3.84342 -2.98933,11.53025 11.42349,-5.01779 -4.1637,12.4911 12.17082,-5.12455 -3.52313,11.85053 10.99644,-5.5516 -3.09609,12.17082 10.6373,-5.74459 -1.56256,12.36381 8.86121,-7.90036 0.23183,12.81676 10.55109,-6.83811 -1.23156,12.35843 10.46264,-7.22092 -0.5834,12.79843 9.1815,-6.61922 -0.53381,11.42349 17.18861,8.11388 12.06406,-4.37722 18.71991,-18.94639 -173.31066,-160.306284 -11.1032,28.078292 z"
     id="path3020"
     style="fill:#f2f2f2;stroke:none" />
  <path
     d="m 87.189003,92.648459 c -7.22515,7.564041 2.983086,15.429561 8.553381,9.769591 L 160.24693,36.875044 c 6.17034,-6.269678 -3.04822,-17.519995 -9.28271,-10.993085 z"
     id="path3808"
     style="fill:#f2f2f2;stroke:none" />
  <use
     transform="matrix(0.9998591,-0.01678559,0.01678559,0.9998591,188.36281,175.22069)"
     id="use3810"
     x="0"
     y="0"
     width="390"
     height="480"
     xlink:href="#path3808" />
  <rect
     width="27.164028"
     height="16.542835"
     x="30.785435"
     y="125.27917"
     transform="matrix(0.69889434,-0.71522493,0.69180503,0.72208434,0,0)"
     id="rect3812"
     style="fill:#f2f2f2;fill-opacity:1;stroke:#008c31;stroke-width:1.50040746;stroke-linejoin:round;stroke-miterlimit:4;stroke-opacity:1;stroke-dasharray:none" />
  <rect
     width="26.826895"
     height="13.196989"
     x="24.970331"
     y="141.83044"
     transform="matrix(0.70106192,-0.7131004,0.71995958,0.69401599,0,0)"
     id="rect3836"
     style="fill:#f2f2f2;fill-opacity:1;stroke:#008c31;stroke-width:1.50003624;stroke-linecap:round;stroke-linejoin:round;stroke-miterlimit:4;stroke-opacity:1;stroke-dasharray:none;stroke-dashoffset:42.65618324" />
  <use
     transform="matrix(-0.99909821,0.04245911,-0.04245911,-0.99909821,437.75227,298.5448)"
     id="use3844"
     x="0"
     y="0"
     width="390"
     height="480"
     xlink:href="#rect3812" />
  <use
     transform="matrix(-0.99909821,0.04245911,-0.04245911,-0.99909821,437.52974,299.03295)"
     id="use3846"
     x="0"
     y="0"
     width="390"
     height="480"
     xlink:href="#rect3836" />
  <use
     transform="translate(-42.879357,97.233477)"
     id="use3848"
     x="0"
     y="0"
     width="390"
     height="480"
     xlink:href="#path3020" />
  <use
     transform="translate(-42.879357,97.233477)"
     id="use3850"
     x="0"
     y="0"
     width="390"
     height="480"
     xlink:href="#path3808" />
  <use
     transform="translate(-42.879357,97.233477)"
     id="use3852"
     x="0"
     y="0"
     width="390"
     height="480"
     xlink:href="#use3810" />
  <use
     transform="translate(-42.879357,97.233477)"
     id="use3854"
     x="0"
     y="0"
     width="390"
     height="480"
     xlink:href="#rect3812" />
  <use
     transform="translate(-42.879357,97.233477)"
     id="use3856"
     x="0"
     y="0"
     width="390"
     height="480"
     xlink:href="#rect3836" />
  <use
     transform="translate(-42.879357,97.233477)"
     id="use3858"
     x="0"
     y="0"
     width="390"
     height="480"
     xlink:href="#use3844" />
  <use
     transform="translate(-42.879357,97.233477)"
     id="use3860"
     x="0"
     y="0"
     width="390"
     height="480"
     xlink:href="#use3846" />
</svg>
