<?xml version="1.0" encoding="UTF-8" standalone="no"?>
<!-- Created with Inkscape (http://www.inkscape.org/) -->

<svg
   xmlns:svg="http://www.w3.org/2000/svg"
   xmlns="http://www.w3.org/2000/svg"
   xmlns:xlink="http://www.w3.org/1999/xlink"
   version="1.1"
   width="390"
   height="480"
   id="svg4228">
  <defs
     id="defs4232" />
  <path
     d="M 0,0 C 130,0 260,0 390,0 389.98981,114.99797 370.78556,350.14732 194.88837,479.99815 20.79131,350.08886 0.081386,115.02225 0,0 z"
     id="path4240-0"
     style="fill:#207dbf;fill-opacity:1;stroke:none" />
  <path
     d="m 202.11864,431.50424 c 23.73627,-15.43014 38.86779,-44.95402 56.82204,-71.63136 -14.17083,-10.33374 -28.82415,-18.0138 -42.39407,-31.65254 13.11753,-0.0678 16.76223,-7.5821 28.66525,-11.44068 -10.54017,-17.70558 -35.14716,-5.32014 -34.06779,-10.42373 2.55482,-12.07998 30.71117,-28.33404 67.56356,-19.8305 8.09605,1.86813 19.41349,-2.07014 25.23305,-11.44068 2.49015,-4.00958 -3.15129,-7.53168 -5.08475,-4.89407 -9.88884,13.49029 -26.34379,5.56634 -37.24576,-0.69916 18.24313,-25.44363 55.49191,-8.44852 66.86441,-50.97457 1.19807,-4.48003 -3.98762,-4.57563 -6.1017,-2.0339 -7.90154,9.49991 -15.57306,19.16743 -23.77118,20.97458 -7.19329,1.58565 -19.19528,1.04287 -8.64407,-12.45763 14.44588,-18.48381 46.90853,-37.15279 44.23729,-56.62045 -0.28909,-2.10685 -3.64772,-1.81272 -3.94068,-0.3287 -2.26468,11.47176 -17.70278,24.16137 -17.79661,20.21186 -0.16972,-7.14443 0.61075,-19.5339 -5.21187,-26.31356 -1.86938,-2.17664 -6.33838,0.30208 -5.21186,3.05085 4.31943,10.53966 4.0547,26.27782 2.0339,32.28813 -4.69972,13.97797 -19.21195,12.33167 -23.85204,1.4882 -4.14071,-9.67645 4.86269,-15.06566 1.60627,-38.3526 -0.36495,-2.60982 -6.16865,-1.46796 -5.97457,0.88983 2.53959,30.85238 -7.87269,29.51951 -23.77119,13.22034 -1.75083,-1.79495 -5.20055,1.23307 -2.41525,5.59322 5.8572,9.16896 12.07705,17.1892 17.72515,21.65235 5.71367,4.51497 5.87921,15.20838 4.64773,28.30528 -1.98817,21.1444 -29.85162,50.90599 -76.52543,52.5 -31.17172,1.06458 -50.44836,-40.48656 -53.61961,-69.45041 -0.49563,-4.52678 -7.65238,-0.56876 -7.04418,2.13921 3.32379,14.79886 6.84555,24.70959 -0.60739,25.23492 -8.45652,0.59607 -12.72093,-14.39445 -17.66949,-26.94915 -1.59065,-4.03555 -4.93667,-1.11578 -4.95763,1.14407 -0.0665,7.16923 7.3776,21.6292 4.57627,22.75424 -5.91476,2.37543 -11.74579,-1.61391 -18.661984,-1.9645 -6.315047,-0.32012 -6.919144,4.8609 -3.895962,7.01972 7.717396,5.5109 25.924226,10.10348 25.143946,17.57321 -0.50748,4.85821 -25.093971,-6.06665 -37.16227,-12.45894 -3.808169,-2.0171 -5.321431,0.63668 -4.830509,2.41525 1.915093,6.93821 8.913499,10.01192 15.707411,12.53848 10.882608,4.04709 0.969387,12.39509 -3.376902,11.23271 l -10.932204,-2.92373 c -2.467018,-0.5723 -2.646042,3.98257 -1.525423,5.33898 11.647559,14.09833 35.297927,-0.26363 53.389827,-0.38135 10.96061,-0.0713 34.48669,10.74963 42.9661,23.13559 -19.84841,4.69206 -49.93218,-2.52298 -60.25423,-5.59322 -10.6931,-3.18061 -10.43034,10.41729 -6.48305,16.39831 3.51245,5.32214 17.67805,9.20552 24.91525,13.72881 2.84415,1.77761 -1.44056,5.48573 -2.57173,5.18251 -7.48535,-2.00651 -21.82386,-10.09553 -23.33112,-5.49491 -0.45422,1.38643 -0.26662,6.42833 2.32719,7.33218 22.37115,7.79559 37.58813,19.85138 69.59261,42.30225 12.7382,8.93574 10.20494,31.13632 24.91525,58.66526 z"
     id="path2832"
     style="fill:#ececec;stroke:none" />
  <path
     d="m 195.24803,266.35227 c 24.91274,-8.2406 34.42335,-35.1501 52.3776,-61.82744 -16.28339,-15.80239 -22.48495,-17.77574 -34.87773,-30.73751 7.56197,-3.98937 14.54,-12.87622 26.44302,-16.7348 -12.30487,-20.51603 -33.62239,3.17905 -32.4338,-7.35183 1.14841,-10.17493 27.77,-24.47783 64.62239,-15.97429 8.09605,1.86813 21.30891,2.17823 27.12847,-7.19231 2.49015,-4.00958 -3.50082,-8.38347 -6.39194,-6.85485 -24.01739,12.69863 -32.74164,-1.97925 -31.03661,-4.0325 24.10089,-29.023219 58.5638,-0.4093 65.23042,-43.458223 0.70971,-4.582833 -5.3289,-4.14747 -6.49385,-1.053507 -5.11766,13.591796 -16.47417,19.199474 -26.647,19.928828 -4.57744,0.328186 -15.95097,-3.994833 -4.46106,-16.705996 14.53185,-16.076446 51.72928,-22.302568 42.79938,-58.711953 -0.50656,-2.065378 -3.93603,-1.841353 -3.94068,-0.3287 -0.0425,13.824701 -7.70278,30.762677 -15.37831,28.773952 -6.91801,-1.792452 -0.30429,-20.514293 -6.12691,-27.293953 -1.86938,-2.17664 -6.68687,-3.679475 -6.25761,-0.74 1.78014,12.189848 -0.53864,19.45482 -1.29943,24.575712 -2.1671,14.586798 -21.63025,19.194413 -26.27034,8.350945 -4.14071,-9.67645 3.57992,-15.185807 3.89385,-31.947371 0.0494,-2.634752 -5.31938,-2.256614 -6.10529,-0.0252 -2.65638,7.542165 -4.36586,21.820714 -10.1778,22.118183 -4.94858,0.25328 -15.20801,-13.240699 -20.91365,-22.427251 -1.32294,-2.130042 -5.3787,0.868478 -3.59172,5.723939 4.28857,11.65262 22.53457,30.261095 28.18267,34.724245 5.71367,4.51497 9.51712,8.417229 7.2621,21.377176 -2.93513,16.868641 -31.02481,55.997964 -79.92412,45.833314 -46.44136,-9.65371 -49.73996,-47.998551 -55.84183,-77.162808 -1.48188,-7.082743 -6.60663,1.261305 -6.25987,5.276465 1.30506,15.111275 5.12538,23.528575 -2.04529,25.627076 -9.67594,2.831667 -14.88677,-16.21896 -18.97668,-30.347843 -1.20614,-4.166662 -4.73979,-1.105353 -4.95763,1.14407 -0.66137,6.829305 5.65406,19.860008 4.57627,21.969926 -2.89955,5.676239 -11.484356,-0.437439 -18.400551,-0.788029 -6.315047,-0.32012 -10.347885,5.098902 -6.771779,6.104687 9.9869,2.808832 36.97889,12.598399 34.29427,22.279089 -1.30533,4.706997 -30.584165,-0.184293 -44.482529,-11.021028 -3.398437,-2.649805 -5.321431,0.63668 -4.830509,2.41525 1.915093,6.938206 11.005002,11.972695 17.798914,14.499255 10.882604,4.04708 3.813071,13.3014 -1.808274,12.01702 l -9.363577,-2.13942 c -2.468905,-0.5641 -2.490798,3.86803 -1.525423,5.33898 8.97756,13.67915 22.614922,-4.05168 54.566298,-2.99573 10.95486,0.36204 43.63702,15.58623 48.4563,31.89376 -23.76998,1.29337 -56.59885,-8.66677 -66.9209,-11.73701 -10.693105,-3.18061 -10.430345,10.41729 -6.48305,16.39831 3.51245,5.32214 17.48197,10.12055 24.71917,14.64384 2.84415,1.77761 -2.09415,6.6622 -3.22532,6.35898 -7.48535,-2.00651 -21.36635,-11.59879 -22.87361,-6.99817 -0.45422,1.38643 2.85595,8.62851 5.46445,9.48904 22.57089,7.44605 35.91288,15.23405 66.84751,39.55715 12.23167,9.61745 7.72128,22.63959 22.43159,50.16853 z"
     id="path2832-4"
     style="fill:#ececec;stroke:none" />
  <path
     d="m 115.40493,145.03407 c -9.62857,-7.22317 -14.70974,5.82958 -3.50882,8.214"
     id="path2900"
     style="fill:none;stroke:#207dbf;stroke-width:2.5;stroke-linecap:round;stroke-linejoin:miter;stroke-miterlimit:4;stroke-opacity:1;stroke-dasharray:none" />
  <use
     transform="translate(4.836601,156.33987)"
     id="use3674"
     x="0"
     y="0"
     width="390"
     height="480"
     xlink:href="#path2900" />
  <path
     d="m 154.37909,157.9085 c 14.0856,-3.19909 24.7059,-1.37384 33.26797,9.54248 -12.41645,7.76921 -28.46244,4.24446 -33.26797,-9.54248 z"
     id="path3676"
     style="fill:#207dbf;fill-opacity:1;stroke:none" />
  <use
     transform="translate(2.614379,154.24837)"
     id="use3678"
     x="0"
     y="0"
     width="390"
     height="480"
     xlink:href="#path3676" />
  <path
     d="m 173.26797,164.34641 a 2.54902,2.5816998 0 1 1 -5.09804,0 2.54902,2.5816998 0 1 1 5.09804,0 z"
     id="path3680"
     style="fill:#ececec;fill-opacity:1;stroke:none" />
  <use
     transform="translate(1.830065,154.11764)"
     id="use3682"
     x="0"
     y="0"
     width="390"
     height="480"
     xlink:href="#path3680" />
</svg>
