<?xml version="1.0" encoding="UTF-8" standalone="no"?>
<!-- Created with Inkscape (http://www.inkscape.org/) -->

<svg
   xmlns:svg="http://www.w3.org/2000/svg"
   xmlns="http://www.w3.org/2000/svg"
   xmlns:xlink="http://www.w3.org/1999/xlink"
   version="1.1"
   width="390"
   height="480"
   id="svg4228">
  <defs
     id="defs4232">
    <linearGradient
       id="linearGradient3652">
      <stop
         id="stop3654"
         style="stop-color:#ffffff;stop-opacity:1"
         offset="0" />
      <stop
         id="stop3656"
         style="stop-color:#ffffff;stop-opacity:0"
         offset="1" />
    </linearGradient>
    <linearGradient
       x1="1.041629"
       y1="110.18271"
       x2="389.03033"
       y2="110.18271"
       id="linearGradient2838"
       xlink:href="#linearGradient3652"
       gradientUnits="userSpaceOnUse"
       gradientTransform="translate(0,3.7e-6)" />
  </defs>
  <path
     d="m 0.51202379,0.50512952 c 129.66265621,0 259.32532621,0 388.98797621,0 C 389.48983,115.23328 370.33544,349.8309 194.89467,479.37706 21.249382,349.77255 0.5931986,115.2575 0.51202379,0.50512952 z"
     id="path4240-0-1"
     style="fill:#207dbf;fill-opacity:1;stroke:#999999;stroke-width:0.99999905;stroke-opacity:1" />
  <path
     d="m 124.99709,411.98221 37.84189,-165.22155 c 1.3166,-5.7484 -11.26193,-9.6115 -10.9322,-2.53706 l 0.50847,10.90936 c 0.16108,3.45597 -12.40469,6.58608 -11.82203,1.14166 l 1.39831,-13.06584 c 1.22391,-11.43623 -25.47053,3.91145 -30.76272,5.83523 -2.8971,-1.96989 -3.92067,-4.98704 -3.68644,-7.73803 -2.74378,1.94214 -8.57827,3.27112 -11.440675,2.66392 l 10.550845,-33.86973 c 2.16735,-6.9575 11.27041,-12.04212 17.54238,-12.30473 34.23729,-1.43351 69.23729,0.0504 103.85593,2.66391 -1.58138,5.91489 5.46586,10.75266 12.07627,-0.50741 l 69.02542,1.77594 c -5.31324,6.48796 -17.21426,20.14607 -44.3644,21.565 -9.22305,0.48202 -16.51803,-4.60992 -24.40678,-7.61118 -5.53012,-2.10392 -9.28193,2.29984 -8.77119,6.85006 l 22.69629,202.20261 c -17.18855,19.97899 -43.20836,42.35424 -59.4104,54.02221 -17.01215,-12.50884 -45.46385,-36.69077 -69.89897,-66.77437 z"
     id="path4903"
     style="fill:#ececec;stroke:none" />
  <path
     d="m 36.165254,82.500004 c -1.158401,-6.495728 8.674335,-6.058276 9.978814,-2.161017 3.393896,10.139595 3.418021,27.870493 11.059322,28.538133 7.770669,0.67895 -2.977432,-45.713453 6.483051,-66.864404 2.713212,-6.06597 13.892126,-2.049922 12.775424,2.669491 -4.420347,18.681293 -5.083133,60.158813 14.173728,71.249993 6.361564,3.664 1.817461,-32.407646 11.565307,-46.668353 2.76922,-4.051256 12.94514,0.925839 11.77513,4.539266 -4.88927,15.099934 -3.95122,37.373347 4.22466,37.662417 9.03442,0.31942 9.57161,-16.50849 16.35933,-22.965982 4.81638,-4.582059 9.94769,2.630771 8.58416,5.617904 -25.4412,55.734908 19.63991,82.403548 57.30262,83.684288 48.54919,1.65094 72.22334,-35.80603 53.21278,-75.86417 -3.94745,-8.317864 9.28298,-12.023235 11.14592,-8.449323 3.85396,7.393543 6.9637,21.549473 11.86501,20.134563 16.00616,-4.62065 5.65025,-31.958233 -1.43818,-43.864587 -3.10224,-5.210796 9.8703,-7.435099 12.40433,-5.033642 13.25054,12.557309 6.09255,49.405419 15.64024,51.774589 15.70256,3.89644 23.10674,-47.751178 17.79752,-70.291199 -1.47689,-6.270072 10.25709,-7.127998 11.86501,-3.056139 8.79687,22.276967 -5.38026,63.725998 1.79773,68.493478 7.80336,5.18283 15.00771,-20.577335 15.32564,-28.606363 0.17103,-4.319226 8.4836,-3.722681 8.17967,0.179773 -1.47018,18.87701 -1.8139,57.30834 -35.01078,84.15619 -26.31734,21.28405 -78.38004,21.00162 -123.59652,19.55163 C 150.25211,185.34293 99.290905,189.16657 67.296757,162.56466 40.002405,139.87045 40.649028,107.64275 36.165254,82.500004 z"
     id="path4905"
     style="fill:#ececec;stroke:none" />
  <path
     d="m 201.22882,210.25424 a 5.72034,5.084747 0 1 1 -11.44068,0 5.72034,5.084747 0 1 1 11.44068,0 z"
     id="path4907"
     style="fill:#207dbf;fill-opacity:1;fill-rule:evenodd;stroke:none" />
</svg>
