<?xml version="1.0" encoding="UTF-8" standalone="no"?>
<!-- Created with Inkscape (http://www.inkscape.org/) -->

<svg
   xmlns:dc="http://purl.org/dc/elements/1.1/"
   xmlns:cc="http://creativecommons.org/ns#"
   xmlns:rdf="http://www.w3.org/1999/02/22-rdf-syntax-ns#"
   xmlns:svg="http://www.w3.org/2000/svg"
   xmlns="http://www.w3.org/2000/svg"
   version="1.1"
   width="390"
   height="480"
   id="svg4228">
  <metadata
     id="metadata8">
    <rdf:RDF>
      <cc:Work
         rdf:about="">
        <dc:format>image/svg+xml</dc:format>
        <dc:type
           rdf:resource="http://purl.org/dc/dcmitype/StillImage" />
        <dc:title></dc:title>
      </cc:Work>
    </rdf:RDF>
  </metadata>
  <defs
     id="defs4232" />
  <path
     d="m 0.51202379,0.50512952 c 129.66265621,0 259.32532621,0 388.98797621,0 C 389.48983,115.23328 370.33544,349.8309 194.89467,479.37706 21.249382,349.77255 0.5931986,115.2575 0.51202379,0.50512952 z"
     id="path4240-0"
     style="fill:#d61a1a;fill-opacity:1;stroke:#9e832a;stroke-width:0.99999905;stroke-opacity:1" />
  <path
     d="m 107.34938,342.83135 c 18.12406,-40.19496 52.20691,-124.35237 65.82887,-130.07242 4.86591,-2.04326 9.19957,1.48308 14.64542,4.37853 l 5.13344,-6.26583 38.2381,28.37014 c 10.23709,7.59524 22.48651,6.94555 32.1964,12.80159 17.13856,10.33627 41.48932,33.743 68.68243,51.27406 7.33754,-16.40853 12.94075,-30.96336 18.56496,-47.57912 0,0 -43.87482,-33.54937 -60.96057,-53.23444 -7.17501,-8.26658 -3.38156,-15.53854 -18.07701,-27.41489 -10.6521,-8.60866 -32.45551,-25.19573 -32.45551,-25.19573 l 2.7758,-7.25979 c -5.58276,-2.70824 -8.7665,-10.82739 -4.91103,-16.01423 20.04681,-26.969357 53.06959,-63.241319 99.92882,-90.747335 l 0.0534,-4.804271 C 299.90748,34.466845 235.22136,64.251063 194.73312,102.17082 l -6.61922,-6.725981 c -16.32821,15.106521 -39.39729,42.041251 -60.10676,76.868331 l 10.56939,11.42348 c -17.30785,40.3284 -38.679526,104.06064 -31.22715,159.0947 z"
     id="path3003"
     style="fill:#faf700;fill-opacity:1;stroke:none" />
</svg>
