<?xml version="1.0" encoding="UTF-8" standalone="no"?>
<!-- Created with Inkscape (http://www.inkscape.org/) -->

<svg
   xmlns:svg="http://www.w3.org/2000/svg"
   xmlns="http://www.w3.org/2000/svg"
   xmlns:xlink="http://www.w3.org/1999/xlink"
   version="1.1"
   width="390"
   height="480"
   id="svg4228">
  <defs
     id="defs4232">
    <linearGradient
       id="linearGradient3662">
      <stop
         id="stop3664"
         style="stop-color:#ffffff;stop-opacity:1"
         offset="0" />
      <stop
         id="stop3666"
         style="stop-color:#ffffff;stop-opacity:0"
         offset="1" />
    </linearGradient>
    <linearGradient
       x1="0.00351796"
       y1="119.72324"
       x2="390.01123"
       y2="119.72324"
       id="linearGradient3668"
       xlink:href="#linearGradient3662"
       gradientUnits="userSpaceOnUse" />
  </defs>
  <path
     d="M 0.00351796,0.00350638 390.01124,-0.03065059 C 389.99631,270.00335 389.99205,273.98676 389.99209,273.99895 390.99231,548.63218 0.01014203,548.63782 0.0068261,273.99819 L 0.00351796,0.00350638 z"
     id="path2902"
     style="fill:#207dbf;fill-opacity:1;stroke:none" />
  <path
     d="M 265.67797,92.033898 C 163.71033,162.47595 164.34206,231.0835 143.13559,294.15254 c -20.69635,59.17487 -56.610805,25.57234 -40.42373,-16.27118 7.32335,-18.93082 14.98568,-35.76445 31.13294,-56.09513 43.84642,-55.20613 58.76604,-96.23654 61.40944,-136.362502 3.53966,-53.730921 -36.55118,-70.919436 -54.5339,-68.008475 -12.50845,-1.712898 -20.88643,3.859125 -21.73729,8.262712 -1.00312,5.191609 -6.81607,5.299035 -11.18644,2.79661 -5.28264,-3.024778 -12.533634,0.477478 -12.711864,5.453326 -0.862751,24.086409 -53.876458,15.690137 -43.601695,41.961929 4.218157,-5.226 9.15939,-5.602158 15.417265,-5.600932 l 65.205474,0.01278 c 19.80318,0.0039 23.96635,24.177151 23.81239,31.376722 -2.09218,97.83698 -116.536692,119.18009 -115.367332,224.50804 0.499296,44.97316 18.647638,74.76918 40.677966,89.87288 l 227.789586,-0.0585 c 47.07648,-44.21764 31.87703,-86.33909 61.04414,-125.3916 2.15284,-2.88249 -2.45656,-3.07703 -3.77523,-3.05614 -30.8117,0.48814 -17.81788,41.62826 -82.82641,24.74962 22.09753,-27.56376 18.11952,-44.74719 24.4901,-67.08614 10.94819,-38.39069 46.11349,-56.71704 44.76345,-96.8976 -24.1194,25.10317 -41.34135,13.38535 -80.89781,93.48191 -7.26833,14.71739 -19.01934,4.82356 -12.94365,-6.47182 20.41495,-37.95365 36.08429,-58.68608 52.75322,-73.61966 28.50672,-25.53896 55.68759,-51.11514 48.09938,-76.310945 -34.23712,36.804375 -47.2834,28.600805 -85.39213,63.937465 -22.36556,20.73867 -32.84604,41.42738 -44.94323,70.17312 -4.57352,10.86775 -15.81886,3.5701 -12.94365,-5.75273 12.05183,-39.0779 36.94038,-63.12606 53.39256,-77.30235 27.73639,-23.89952 55.59739,-48.949459 78.56076,-72.628255 12.90456,-13.306601 14.57177,-29.084568 8.77803,-41.527542 -33.46016,40.689601 -47.99076,39.678392 -91.49996,69.735745 z"
     id="path2849"
     style="fill:#ededed;fill-opacity:1;stroke:none" />
  <path
     d="m 112.11864,46.016948 c -0.76839,-2.557084 14.61179,-10.256358 15.3178,-6.927966 2.60537,12.282741 -14.26052,10.446457 -15.3178,6.927966 z"
     id="path4155"
     style="fill:#207dbf;fill-opacity:1;stroke:none" />
</svg>
