<?xml version="1.0" encoding="UTF-8" standalone="no"?>
<!-- Created with Inkscape (http://www.inkscape.org/) -->

<svg
   xmlns:svg="http://www.w3.org/2000/svg"
   xmlns="http://www.w3.org/2000/svg"
   xmlns:xlink="http://www.w3.org/1999/xlink"
   version="1.1"
   width="390"
   height="480"
   id="svg4228">
  <defs
     id="defs4232">
    <linearGradient
       id="linearGradient3653">
      <stop
         id="stop3655"
         style="stop-color:#ffffff;stop-opacity:1"
         offset="0" />
      <stop
         id="stop3657"
         style="stop-color:#ffffff;stop-opacity:0"
         offset="1" />
    </linearGradient>
    <linearGradient
       x1="0"
       y1="109.87704"
       x2="390"
       y2="109.87704"
       id="linearGradient2900"
       xlink:href="#linearGradient3653"
       gradientUnits="userSpaceOnUse" />
  </defs>
  <path
     d="M 0,0 C 130,0 260,0 390,0 389.98981,114.99797 370.78556,350.14732 194.88837,479.99815 20.79131,350.08886 0.081386,115.02225 0,0 z"
     id="path4240-0"
     style="color:#000000;fill:#207dbf;fill-opacity:1;fill-rule:nonzero;stroke:none;marker:none;visibility:visible;display:inline;overflow:visible;enable-background:accumulate" />
  <path
     d="m 197.72566,67.103818 -63.87865,-14.085591 -1.25459,2.329556 c -0.76744,1.42501 -19.52994,-3.535507 -19.81816,-5.369946 0.18968,-1.312211 0.41629,-3.429659 -1.05254,-4.449462 -2.45271,-1.702905 -4.53909,-2.709324 -8.4489,-3.682938 -1.45538,-0.362417 -10.594294,-1.498773 -9.662955,3.019673 7.327205,35.548314 35.065805,62.49627 49.371655,75.94478 20.01571,2.78724 41.69434,0.5857 62.73371,0.30196 -9.75732,3.48787 -27.1019,3.708 -43.16654,3.64906 l 1.11759,231.88544 115.95545,-1.20787 c -12.03748,-97.6715 -43.64165,-155.19945 -85.30577,-185.10596 13.32821,-22.5153 31.70259,-54.21553 30.78993,-67.99445 -1.06111,-16.020361 -8.4898,-24.940233 -3.61287,-43.884431 -3.41217,-3.830487 -8.24508,-8.48576 -14.19246,-11.323774 z"
     id="path2998"
     style="fill:#faf700;fill-opacity:1;stroke:none" />
  <path
     d="m 219.07473,101.53025 c -18.50732,-5.548444 -41.50219,5.45564 -67.18517,3.19988 -11.51836,-7.282046 -28.94722,-19.956002 -40.31264,-39.557718 -1.74539,-3.010235 0.31977,-5.614541 -0.15098,-11.701233 l 84.24887,19.371989 -3.71215,8.077468 c 3.75817,1.022849 14.00113,3.842314 18.81052,5.163012 -5.33789,1.32125 -9.66907,3.778474 -13.02895,12.519975 6.13575,-1.780272 18.71712,-0.497589 21.3305,2.926627 z"
     id="path2996"
     style="fill:#207dbf;fill-opacity:1;stroke:none" />
  <path
     d="m 208.875,152.125 c 13.97029,6.78135 30.40682,11.2113 45.625,12.5 -1.12251,-38.13068 0.11479,-81.552324 -3.375,-114.374996 -2.17659,-20.471523 -40.09019,-22.181094 -42.875,-6.375 6.95705,3.461563 13.25736,9.444299 16.56434,14.493718 -5.96112,14.070242 1.5819,28.317595 2.93566,42.506278 1.32356,13.87215 -10,35.16667 -18.875,51.25 z"
     id="path3768"
     style="fill:#faf700;fill-opacity:1;stroke:none" />
  <path
     d="m 171.75,358.34638 10.5,-0.0333 c 2.4894,5.16681 3.08033,9.54298 3.36553,14.09257 -6.27102,1.29672 -13.81633,-0.46387 -17.45264,-3.92738 1.85549,-2.52734 2.54758,-5.49594 3.58711,-10.13189 z"
     id="path3770"
     style="fill:#faf700;fill-opacity:1;stroke:none" />
  <path
     d="m 245.14822,357.48364 13.7002,0.14108 c 1.25505,3.03904 2.42957,8.92062 2.29495,12.89994 -5.62266,0.99829 -15.33016,-1.16482 -18.38477,-5.5491 0.83464,-1.90367 2.01196,-4.25103 2.38962,-7.49192 z"
     id="path3772"
     style="fill:#faf700;fill-opacity:1;stroke:none" />
  <path
     d="m 166.4384,370.96539 c 5.33614,3.75619 11.80763,4.9773 19.20294,3.94715 0.063,3.94932 0.14052,8.41484 0.17116,12.96246 l -15.25,0.0625 -0.1875,-3.8125 c -4.86315,2.66012 -19.58769,4.45647 -32.5,3.4375 -1.69825,-0.13402 -2.73511,-4.08117 -0.75,-4.875 z"
     id="path3774"
     style="fill:#faf700;fill-opacity:1;stroke:none" />
  <path
     d="m 215.875,381.8125 c -2.83759,0.77626 -1.93257,6.0075 0.4375,6 l 19.75,-0.0625 c 3.93005,-0.0124 8.25,-3.5 12.375,-5.25 l -0.1875,4.625 11.9375,0.0625 c 1.23876,-4.44059 1.56281,-9.15387 0.98223,-14.2526 -6.99729,0.88814 -14.3267,-0.8972 -19.77957,-5.10409 -6.86901,6.79903 -15.88966,11.34849 -25.51516,13.98169 z"
     id="path3776"
     style="fill:#faf700;fill-opacity:1;stroke:none" />
  <path
     d="m 25.455844,14.2818 c -6.060071,7.352672 -9.070485,19.578945 -7.778175,28.637825 37.82118,-2.284819 37.767417,-1.533012 75.227368,7.202349 L 91.402435,43.316072 C 55.776026,34.270787 55.312463,34.48304 25.455844,14.2818 z"
     id="path3778"
     style="fill:#faf700;fill-opacity:1;stroke:none" />
  <path
     d="m 115.03743,49.32778 c 0.98768,1.152946 11.81109,3.911353 15.46797,4.463612 1.42916,0.215831 2.023,-2.709686 2.51906,-4.728778 1.31686,-5.360049 -12.70555,-6.069376 -17.05894,-4.507805 -1.26019,0.452029 -1.69922,3.872812 -0.92809,4.772971 z"
     id="path3780"
     style="fill:#faf700;fill-opacity:1;stroke:none" />
  <path
     d="m 121.65362,57.931779 12.78506,2.886486 c 4.68573,16.388057 16.28755,30.530226 24.11439,42.525525 -1.76799,0.0849 -3.9928,0.0648 -5.68673,-0.13259 C 141.03602,95.458387 123.6658,81.280151 121.65362,57.931779 z"
     id="path3800"
     style="fill:#faf700;fill-opacity:1;stroke:none" />
</svg>
