<?xml version="1.0" encoding="UTF-8" standalone="no"?>
<!-- Created with Inkscape (http://www.inkscape.org/) -->

<svg
   xmlns:dc="http://purl.org/dc/elements/1.1/"
   xmlns:cc="http://creativecommons.org/ns#"
   xmlns:rdf="http://www.w3.org/1999/02/22-rdf-syntax-ns#"
   xmlns:svg="http://www.w3.org/2000/svg"
   xmlns="http://www.w3.org/2000/svg"
   version="1.1"
   width="390"
   height="480"
   id="svg4228">
  <metadata
     id="metadata3020">
    <rdf:RDF>
      <cc:Work
         rdf:about="">
        <dc:format>image/svg+xml</dc:format>
        <dc:type
           rdf:resource="http://purl.org/dc/dcmitype/StillImage" />
        <dc:title></dc:title>
      </cc:Work>
    </rdf:RDF>
  </metadata>
  <defs
     id="defs4232" />
  <path
     d="m 0,2.2e-6 c 130,0 260,0 390,0 C 389.98981,114.99797 370.78556,350.14732 194.88837,479.99815 20.79131,350.08886 0.081386,115.02225 0,2.2e-6 z"
     id="path4240-0"
     style="fill:#008c31;fill-opacity:1;stroke:none" />
  <path
     d="M 53.929379,36.792894 C 50.095933,38.619197 45.56664,37.305143 42.25,40.500001 c -4.189792,4.03595 -2.848484,9.827495 -6.5,14.5 -3.261534,4.173482 -10.100294,7.784393 -10.75,13.5 -0.479924,4.221993 2.754378,6.293749 3.113515,10.527728 0.25033,2.951229 -3.828676,8.650547 -2.863515,12.972272 1.100787,4.929017 7.76013,8.110119 8.100951,13.149049 0.44918,6.64097 5.396447,12.02512 5.396447,12.02512 3.880709,3.81883 11.544976,3.57826 15.603553,6.91682 0,0 4.323509,4.04084 8.045496,7.70451 3.418869,3.36529 8.316807,0.48988 14.103553,3.4545 22.036716,11.28968 38.05991,18.61542 65.5,35.75 26.84997,16.76609 96.68296,75.86378 141.9375,121.875 3.42992,3.48727 -0.0366,6.06554 5.6875,11.625 9.80698,-2.91897 19.46395,-14.50603 21,-20.625 -5.08604,-5.52202 -7.0081,-2.69529 -10.75,-6.625 -40.12552,-39.37477 -89.7533,-83.80755 -124.125,-125.625 -15.96275,-19.42068 -30.58673,-42.94433 -37.125,-64.249999 -1.85791,-6.054193 -5.06657,-9.753725 -7.81024,-12.989127 -2.1321,-2.514219 -1.4246,-5.658608 -3.35876,-9.104 -2.76241,-4.920782 -8.21459,-3.352521 -10.78338,-9.192388 C 113.31101,48.447221 106.56604,39.974374 98.464619,36.644049 94.5124,35.019374 89.063048,36.547189 85.02959,33.815622 76.951569,28.344967 76.032909,25.725471 69.561629,26.214225 62.2944,26.763094 59.231769,34.266767 53.929379,36.792894 z"
     id="path3829"
     style="fill:#f2f2f2;stroke:none" />
</svg>
