<?xml version="1.0" encoding="UTF-8" standalone="no"?>
<!-- Created with Inkscape (http://www.inkscape.org/) -->

<svg
   xmlns:svg="http://www.w3.org/2000/svg"
   xmlns="http://www.w3.org/2000/svg"
   version="1.1"
   width="390"
   height="480"
   id="svg4228">
  <defs
     id="defs4232" />
  <path
     d="M 0,0 C 130,0 260,0 390,0 389.98981,114.99797 370.78556,350.14732 194.88837,479.99815 20.79131,350.08886 0.081386,115.02225 0,0 z"
     id="path4240-0"
     style="fill:#008c31;fill-opacity:1;stroke:none" />
  <path
     d="m 97.118644,330.3178 37.627116,40.42373 29.93644,-22.43645 c -5.92465,-13.27414 8.01294,-19.47153 20.84824,-32.08432 C 237.13759,264.0508 323.78034,205.04437 321.73729,142.5 319.75127,81.701603 266.49029,24.173018 192.33051,24.025423 129.26823,23.899914 69.329313,66.489238 68.135593,145.9322 c -1.001272,66.63536 56.409197,104.11125 98.257847,143.65327 26.08397,24.64626 55.92001,50.74377 50.21673,64.0586 l 27.71186,17.28813 c 14.90632,-12.84498 28.67262,-26.11747 40.86865,-39.97881 l -20.59322,-25.86864 c -8.85297,4.22507 -32.81548,-20.26958 -60.25918,-46.9295 -40.54779,-39.38976 -83.35076,-76.66015 -82.62218,-114.76542 0.72527,-37.93226 34.69557,-58.586079 53.70763,-62.033899 3.04722,-21.609745 31.48318,-21.498286 33.68644,0.127119 18.99944,0.99958 56.55008,19.6614 58.09322,58.47458 0.91158,22.92798 -23.85389,60.75349 -55.35553,87.14368 -44.95379,37.6596 -67.66879,83.23506 -92.48345,76.58513 L 97.118644,330.3178 z"
     id="path3638"
     style="fill:#ededed;fill-opacity:1;stroke:none" />
  <path
     d="m 196.5,279.5625 a 7.5625,7.4375 0 1 1 -15.125,0 7.5625,7.4375 0 1 1 15.125,0 z"
     transform="matrix(1.2809918,0,0,1.2857143,-49.339876,-79.125)"
     id="path4176"
     style="opacity:0.98999999;fill:#008c31;fill-opacity:1;fill-rule:evenodd;stroke:none" />
  <path
     d="m 191.91406,245.47657 34.17969,33.08593"
     id="path4212"
     style="fill:none;stroke:#008c31;stroke-width:1px;stroke-linecap:butt;stroke-linejoin:miter;stroke-opacity:1" />
  <path
     d="m 157.74609,282.28907 31.90235,30.01562"
     id="path4212-7"
     style="fill:none;stroke:#008c31;stroke-width:1px;stroke-linecap:butt;stroke-linejoin:miter;stroke-opacity:1" />
</svg>
