<?xml version="1.0" encoding="UTF-8" standalone="no"?>
<!-- Created with Inkscape (http://www.inkscape.org/) -->

<svg
   xmlns:dc="http://purl.org/dc/elements/1.1/"
   xmlns:cc="http://creativecommons.org/ns#"
   xmlns:rdf="http://www.w3.org/1999/02/22-rdf-syntax-ns#"
   xmlns:svg="http://www.w3.org/2000/svg"
   xmlns="http://www.w3.org/2000/svg"
   version="1.1"
   width="390"
   height="480"
   id="svg4228">
  <metadata
     id="metadata8">
    <rdf:RDF>
      <cc:Work
         rdf:about="">
        <dc:format>image/svg+xml</dc:format>
        <dc:type
           rdf:resource="http://purl.org/dc/dcmitype/StillImage" />
        <dc:title></dc:title>
      </cc:Work>
    </rdf:RDF>
  </metadata>
  <defs
     id="defs4232" />
  <path
     d="M 0,0 C 130,0 260,0 390,0 389.98981,114.99797 370.78556,350.14732 194.88837,479.99815 20.79131,350.08886 0.081386,115.02225 0,0 z"
     id="path4240-0"
     style="fill:#008c31;fill-opacity:1;stroke:none" />
  <path
     d="M 14.741379,52.859564 C 22.655308,51.408989 27.883547,50.5635 40.179246,46.387739 56.511757,40.84103 92.935704,58.742908 90.335888,82.88164 97.386249,87.392853 103.2991,92.283235 112.1783,96.184835 l 0.26966,-4.404436 C 97.591903,84.161872 80.016258,51.165248 94.31909,20.156316 c 6.97242,16.746189 52.467,31.03988 27.65683,71.713969 -0.42983,2.150353 -2.74393,5.2269 -1.16852,6.381939 16.35043,11.987616 42.21828,23.347366 60.85313,47.370166 1.51614,-4.07107 4.75653,-18.85398 -4.04489,-22.29185 -14.95537,5.4383 -53.78116,-22.04889 -38.56129,-58.516078 13.27323,15.879939 40.90306,20.061913 39.8197,47.639818 l 4.94375,3.50558 c 0.61397,-3.43126 2.28414,-11.44607 -0.17977,-21.66264 -35.38753,-32.226411 -0.0938,-53.182741 6.54629,-77.299706 6.74184,23.929137 45.487,46.248998 5.67827,77.839024 -1.99529,6.969422 -1.50496,15.363602 0.17977,21.842412 0.0633,-0.52502 2.29896,-1.81896 4.13478,-5.21342 0.99383,-37.486671 32.98569,-36.578518 40.89833,-48.988116 0.0498,4.61051 1.66074,9.971554 2.79566,13.04141 6.62142,17.910349 -20.58554,47.853636 -40.00865,44.575806 -5.81903,3.46311 -9.21555,9.6267 -4.76398,24.539 25.06465,-32.64198 44.39411,-35.5027 60.67336,-51.774594 2.1097,-2.10875 1.52956,-4.493311 -1.70785,-8.718986 -22.12996,-28.885472 21.96811,-48.219405 31.99958,-65.796885 13.88258,72.124996 -24.29588,64.679894 -18.60649,71.459732 2.74534,3.271523 12.76784,-3.737232 19.59524,-7.820122 11.26815,-33.148491 44.78755,-40.533937 82.24611,-29.213098 -17.66011,17.17618 -25.67014,56.618513 -73.70689,39.190495 -1.75594,-1.039603 -20.16566,5.023095 -21.03343,10.696488 -0.38358,2.50782 4.06008,1.02424 9.61785,-0.35955 31.14043,-7.785068 63.53379,22.39475 64.20005,40.45576 -18.6238,2.94892 -64.93689,4.81712 -76.33473,-30.92779 -3.1314,-0.76512 -7.83295,-4.99638 -8.98864,-1.07864 -4.50955,15.28723 -20.77,8.03537 -26.69628,17.79752 2.43346,2.36557 4.84771,3.29653 7.73024,1.07864 14.13701,-10.87737 59.70732,6.97557 73.16757,44.22413 -7.2344,-2.487 -15.20867,-6.11895 -23.03258,-4.08815 -25.95724,6.73754 -58.23649,-6.77215 -58.67421,-29.79904 -1.75495,-9.93641 -18.25147,2.10778 -23.99968,24.89855 -2.36595,9.38065 -9.35094,58.85297 38.83095,51.86448 6.78051,-32.37538 69.34833,-8.73421 74.87542,4.31455 8.84868,20.89064 -15.78237,35.37077 -45.39266,27.2356 -4.20933,-1.15648 -34.21172,-7.53397 -30.47151,-23.01093 -28.93416,1.79353 -36.97381,-15.38485 -44.85334,-14.83127 6.04116,18.82346 39.45337,22.69134 55.28017,46.29152 23.92079,-12.19399 53.43839,16.14894 57.25767,28.67378 9.62985,31.5799 -29.73066,45.50648 -62.02166,16.98854 -11.19412,-9.88614 -11.49297,-33.44596 -1.70784,-38.83094 -16.06503,-28.20493 -46.55521,-27.88485 -57.34756,-51.05551 -0.71109,11.13269 -7.75603,23.1037 7.37069,35.1456 13.37253,-6.81215 23.79041,-2.85094 34.15951,16.76141 4.17691,7.90032 1.86327,26.46673 -20.52387,28.77379 -12.59255,1.2977 -26.29043,-25.52709 -22.2275,-38.00655 1.11308,-3.41887 -0.69852,-9.0295 -3.00349,-10.58479 -2.47479,12.86435 -5.66205,25.67534 -3.57178,35.71577 1.35194,6.49392 16.15638,17.84376 26.49283,31.24964 17.71184,-21.8297 44.24574,3.42658 51.32516,18.69639 22.99765,49.60431 -22.15113,48.17098 -44.76345,28.04457 -16.14311,-14.3684 -22.64307,-26.12186 -12.04479,-38.92084 -5.93722,-11.20684 -13.41416,-16.87071 -20.13456,-25.25809 1.04182,21.74711 3.97454,42.23361 7.01114,62.65086 29.6072,-1.46116 28.96363,34.55657 26.06707,46.65107 -6.3003,26.30672 -4.64148,33.0764 -28.48839,36.27536 -23.06137,3.09358 -33.03462,-24.42619 -36.49952,-34.92706 -4.24683,-12.87062 4.661,-49.84378 28.76367,-48.98812 0.54874,-19.33903 -2.17925,-38.53559 -5.48307,-57.70711 -4.89626,4.26484 -10.18353,6.96563 -14.47172,13.66275 15.72377,24.41855 -6.69161,41.6144 -18.87616,52.85323 -18.91738,17.44908 -64.883772,4.91703 -29.75242,-40.89834 2.38535,-3.11077 21.98313,-27.25211 42.69607,-18.33683 7.19505,-3.17385 17.82602,-13.45188 18.15707,-17.07843 1.53114,-16.77302 0.35249,-33.32849 4.49432,-50.78585 -5.72713,2.86309 -9.91485,4.74313 -11.41558,13.9324 8.36066,10.50307 1.13835,22.65553 -5.6937,31.37676 -17.40726,22.22072 -36.62713,-1.8835 -22.61415,-24.06775 4.23934,-6.71139 7.30787,-14.96076 19.85852,-11.80333 12.20811,-16.40264 20.51894,-11.40596 21.03343,-33.52765 -16.40533,28.34156 -40.85315,21.17795 -56.62847,48.80835 18.90274,23.35764 -7.86419,43.6388 -19.59524,50.33641 -43.694808,20.81053 -57.337536,-35.36165 -19.954795,-55.10039 10.386095,-5.48404 16.525655,-12.48191 32.988325,-3.23592 16.63925,-21.71653 43.1985,-22.17584 52.40381,-42.60618 -27.86817,19.46954 -44.38309,11.23818 -44.79166,14.86134 -1.05888,9.39014 -15.95588,22.14069 -40.780248,20.1045 -42.847764,-1.72764 -48.975726,-46.58783 4.012175,-47.66615 14.741593,-0.0173 29.370113,0.76216 38.291633,14.93922 5.51384,8.76197 33.01813,-1.93413 33.38059,-6.37368 -1.25832,-2.78648 -3.69377,-4.93157 -1.88762,-8.35944 7.10102,-13.47697 5.59356,-55.80565 -17.70763,-59.41495 -4.38623,44.93078 -50.141017,25.74197 -78.740535,32.17935 9.323459,-22.17467 39.994525,-46.14916 73.527125,-39.19049 -2.42461,-7.53652 -27.52077,-6.62292 -23.55026,-16.53911 -2.22774,-1.58833 -3.87739,-3.77021 -9.70773,-0.89887 8.90354,19.58067 -48.633341,38.79516 -78.477267,27.04944 23.406755,-19.39193 32.572289,-53.619099 69.129072,-34.5999 L 106.06602,106.07235 88.268499,93.128696 C 28.173571,112.45093 35.409316,69.312269 14.741379,52.859564 z"
     id="path3800"
     style="fill:#f2f2f2;stroke:none" />
</svg>
