<?xml version="1.0" encoding="UTF-8" standalone="no"?>
<!-- Created with Inkscape (http://www.inkscape.org/) -->

<svg
   xmlns:svg="http://www.w3.org/2000/svg"
   xmlns="http://www.w3.org/2000/svg"
   xmlns:xlink="http://www.w3.org/1999/xlink"
   version="1.1"
   width="390"
   height="480"
   id="svg4228">
  <defs
     id="defs4232" />
  <path
     d="M 0,0 C 130,0 260,0 390,0 389.98981,114.99797 370.78556,350.14732 194.88837,479.99815 20.79131,350.08886 0.081386,115.02225 0,0 z"
     id="path4240-0"
     style="fill:#008c31;fill-opacity:1;stroke:none" />
  <use
     transform="translate(52,78)"
     id="use3003"
     x="0"
     y="0"
     width="390"
     height="480"
     xlink:href="#path2849-2" />
  <use
     transform="translate(52,78)"
     id="use3005"
     x="0"
     y="0"
     width="390"
     height="480"
     xlink:href="#path2851-4" />
  <use
     transform="translate(52,78)"
     id="use3007"
     x="0"
     y="0"
     width="390"
     height="480"
     xlink:href="#path3684-5" />
  <use
     transform="translate(52,78)"
     id="use3009"
     x="0"
     y="0"
     width="390"
     height="480"
     xlink:href="#path3686-5" />
  <use
     transform="translate(52,78)"
     id="use3011"
     x="0"
     y="0"
     width="390"
     height="480"
     xlink:href="#path3688-1" />
  <use
     transform="translate(52,78)"
     id="use3013"
     x="0"
     y="0"
     width="390"
     height="480"
     xlink:href="#path3690-7" />
  <path
     d="m 180.40179,138.97629 24.81447,21.89073 c -6.62037,1.33636 -17.33399,2.26119 -20.36531,5.18554 -31.57933,31.3335 -77.75531,84.62561 -96.355943,91.84322 12.293553,-38.61469 60.911643,-88.62785 91.906783,-118.91949 z"
     id="path2849-2"
     style="fill:#ededed;fill-opacity:1;stroke:none" />
  <path
     d="m 88.098147,259.273 c 19.899183,-6.36924 71.469893,-67.60351 96.908693,-91.8996 2.35726,-2.25136 8.4643,-3.49059 20.08962,-5.48307 -24.23931,28.49809 -95.03918,113.75016 -122.650076,113.30187 l 5.651763,-15.9192 z"
     id="path2851-4"
     style="fill:#ededed;fill-opacity:1;stroke:none" />
  <path
     d="m 180.87206,137.66593 25.97719,23.19071 c 5.48369,1.37866 18.03127,-9.60479 18.06717,-19.32559 l -27.8648,-24.35923 c -9.6042,0.73118 -17.41213,13.90521 -16.17956,20.49411 z"
     id="path3684-5"
     style="fill:#ededed;fill-opacity:1;stroke:none" />
  <path
     d="m 197.8606,116.36284 27.77492,24.35923 c 0,0 5.90736,0.0801 13.75263,-5.03364 15.45967,-10.07699 59.97945,-65.350752 58.42619,-76.942802 l -26.06707,-23.01093 c -7.1995,-1.54826 -49.32224,36.28743 -69.48223,63.45984 -6.72678,9.066602 -4.40444,17.168302 -4.40444,17.168302 z"
     id="path3686-5"
     style="fill:#ededed;fill-opacity:1;stroke:none" />
  <path
     d="m 272.87085,34.970658 25.70753,22.96599 c 7.41623,1.61939 11.48805,-8.47651 9.48302,-15.95484 -1.63089,-6.08285 -11.86459,-17.36965 -21.52781,-18.2919 -8.14631,-0.77748 -16.02097,5.92307 -13.66274,11.28075 z"
     id="path3688-1"
     style="fill:#ededed;fill-opacity:1;stroke:none" />
  <path
     d="m 290.81955,23.509668 c 6.1962,2.68293 12.77521,7.42122 16.49418,14.06723 0.0279,-3.98439 0.23335,-7.90303 -1.70785,-13.75263 -6.43572,-1.47482 -10.97495,-1.22555 -14.78633,-0.3146 z"
     id="path3690-7"
     style="fill:#ededed;fill-opacity:1;stroke:none" />
</svg>
