<?xml version="1.0" encoding="UTF-8" standalone="no"?>
<!-- Created with Inkscape (http://www.inkscape.org/) -->

<svg
   xmlns:dc="http://purl.org/dc/elements/1.1/"
   xmlns:cc="http://creativecommons.org/ns#"
   xmlns:rdf="http://www.w3.org/1999/02/22-rdf-syntax-ns#"
   xmlns:svg="http://www.w3.org/2000/svg"
   xmlns="http://www.w3.org/2000/svg"
   version="1.1"
   width="390"
   height="480"
   id="svg4228">
  <metadata
     id="metadata8">
    <rdf:RDF>
      <cc:Work
         rdf:about="">
        <dc:format>image/svg+xml</dc:format>
        <dc:type
           rdf:resource="http://purl.org/dc/dcmitype/StillImage" />
        <dc:title></dc:title>
      </cc:Work>
    </rdf:RDF>
  </metadata>
  <defs
     id="defs4232" />
  <path
     d="M 0,0 C 130,0 260,0 390,0 389.98981,114.99797 370.78556,350.14732 194.88837,479.99815 20.79131,350.08886 0.081386,115.02225 0,0 z"
     id="path4240-0"
     style="fill:#d61a1a;fill-opacity:1;stroke:none" />
  <path
     d="m 46.779661,69.152542 c 11.297984,24.988286 29.021794,60.152298 57.451079,99.725078 46.22718,64.34698 56.53003,72.73688 80.72689,166.7156 1.02953,3.99861 5.6189,8.78635 5.59322,4.0678 l -0.88983,-163.47458 c -0.53966,-1.2342 -3.97956,-3.97297 -3.66467,-7.11621 0.2245,-2.24105 -4.71978,0.11031 -7.52177,5.7179 11.11187,10.61097 -8.65953,22.9023 -7.15728,36.5334 -5.86654,0.58595 -11.01369,-11.55786 -8.61821,-13.80361 -3.06216,2.88334 -6.87944,4.11227 -10.53807,4.85496 0.0361,-3.92355 -0.11151,-7.14344 0.76271,-9.15254 -5.15242,0.57175 -9.35225,0.61905 -13.80195,-8.41297 11.10797,0.66386 23.75451,-19.80027 34.95762,-12.71186 4.17675,-4.49512 6.45462,-11.13377 15.54571,-7.36385 l -0.22469,-43.68611 c -1.78044,-1.37005 -2.68092,-2.25715 -2.27291,-4.48279 0.23047,-1.25717 -7.30088,2.41606 -8.14446,5.72537 8.67315,12.27819 -3.90613,17.8478 -6.99152,31.27119 -4.21883,-2.14409 -4.60388,-8.53111 -4.83051,-11.18644 -3.05085,2.52963 -6.1017,4.12691 -9.15255,5.72034 -0.76907,-3.98305 -1.25322,-7.9661 -0.12711,-11.94915 -7.72771,1.88025 -10.94503,-0.74989 -12.96611,-4.57627 11.81442,0.71031 19.58524,-18.47723 30.16568,-11.53189 3.45935,-5.07633 6.90396,-8.87541 14.3676,-8.29862 l -0.19067,-36.483054 c -0.0378,-7.227624 -7.72505,-4.526292 -10.14769,0.381356 7.67417,13.460819 -5.80595,18.76442 -5.84746,31.144068 -5.47308,-2.56422 -5.19199,-6.17465 -5.59322,-9.661017 -3.5276,3.008047 -7.16495,5.138037 -10.9322,6.228817 -0.98238,-4.239518 0.029,-7.909379 0.63559,-11.694918 -5.03694,0.447212 -8.7554,-0.525472 -10.67796,-3.432204 11.47561,-2.832579 19.62232,-21.066447 28.80459,-15.12073 3.23614,-4.604909 7.14153,-8.66845 14.1115,-6.272435 l -0.61379,-31.308418 c -0.17933,-9.14724 -9.80409,-2.888533 -7.98027,-0.306892 8.39877,11.888591 -8.37,14.633879 -4.73797,27.07253 -6.30478,-1.381857 -6.88646,-6.188258 -7.46542,-9.275919 -2.02302,2.660527 -4.35983,3.542864 -6.73729,4.194915 -0.72249,-2.75711 -1.42555,-5.515609 -0.50847,-8.389831 -4.87397,1.256625 -8.58229,-0.05117 -11.05933,-4.067796 12.10728,0.551701 15.51932,-17.960396 25.04238,-12.584746 0.91449,-3.92176 11.99749,-9.243998 17.0339,-1.525424 7.87456,-8.684991 15.62845,-1.99807 18.55932,1.271187 14.52622,-3.486765 13.09583,13.157386 24.78813,17.542373 -3.597,1.65004 -7.19399,2.136158 -10.79099,1.38927 0.088,1.702009 -0.27384,4.378424 -0.90392,7.636153 -2.17111,-1.248991 -4.36089,-2.535328 -7.11865,-4.957627 -0.47244,4.916048 -4.04862,6.511555 -7.24576,8.389831 2.10571,-12.582927 -10.31427,-20.867881 -3.26785,-26.142821 0.19241,-6.872494 -12.37736,-5.926105 -12.24062,0.464855 l 0.6574,30.725479 c 7.05448,-2.371696 13.8323,0.960727 18.44762,7.428182 15.5437,-4.37468 13.68567,10.215638 28.04586,15.595715 -1.72162,2.91268 -7.67988,2.565513 -10.66783,2.945539 -0.0619,2.796611 -0.10744,5.593221 -0.6356,8.389832 -2.72496,-0.1171 -5.26735,-0.96449 -7.75423,-2.0339 -2.89524,4.45017 -5.93073,8.3113 -10.00779,7.79786 4.68961,-13.713742 -13.55648,-18.022527 -3.84814,-28.009724 0.82899,-4.781033 -14.01049,-12.791557 -13.83413,-3.686441 l 0.70103,36.191585 c 8.6907,-2.01623 14.62594,3.76007 19.61615,8.93553 15.02021,-2.13872 17.91729,12.13473 27.01987,16.72062 -4.36569,3.9847 -7.86493,3.12145 -12.46666,1.91317 0.30565,1.94088 0.15934,6.39009 -0.18881,8.5696 -2.6727,-0.3012 -7.00003,-1.84045 -8.88288,-3.05216 -1.23316,4.98786 -4.2962,8.9195 -8.40525,10.55216 0.71175,-14.70128 -10.98909,-19.06971 -1.18116,-32.08991 0.14128,-5.35483 -14.08158,-9.66146 -13.83856,-6.87656 0.19177,2.19759 -0.29182,3.53627 -1.69109,4.87325 l 0.82736,41.62407 c 9.63621,-4.54868 17.27554,3.7661 20.07836,9.1217 17.518,-2.94328 17.46819,12.6746 31.20201,20.57141 -4.56507,2.72027 -9.3936,4.21109 -14.67658,3.58113 0.38594,3.28466 -0.49588,6.35803 -0.76272,9.5339 -3.01949,-0.95721 -6.10467,-1.68449 -8.8983,-3.43221 -2.79989,8.88152 -6.45325,9.14777 -9.48257,10.91678 -0.12423,-20.53243 -14.66745,-22.57242 -3.55932,-35.84745 -2.24433,-8.98072 -9.89608,-12.87675 -9.91296,-9.15753 -0.0196,4.32352 -2.72036,6.5948 -4.37566,8.28312 l 0.50848,163.47458 c 0.0182,5.85923 5.17086,-2.04737 5.90782,-4.78557 5.40808,-20.09386 18.62025,-68.80063 45.74254,-116.74947 29.36823,-51.91941 67.95505,-101.05011 93.01065,-147.448016 3.96605,117.349886 -27.74694,208.720656 -136.27118,289.957626 -3.11511,2.33185 -2.79081,9.95241 -0.38136,11.5678 6.71801,4.50402 10.25751,8.85854 10.34023,15.50583 0.10833,8.70569 -13.91242,16.38656 -19.74701,29.74841 -3.82369,-14.17591 -20.06642,-16.75901 -20.10017,-28.23577 -0.45984,-12.84774 7.66645,-16.65642 9.60197,-18.00458 2.82784,-1.96969 1.92336,-10.19941 -0.46485,-11.94915 C 105.94556,302.18086 27.388392,192.32379 46.779661,69.152542 z"
     id="path3739"
     style="fill:#faf700;fill-opacity:1;stroke:none" />
</svg>
