<?xml version="1.0" encoding="UTF-8" standalone="no"?>
<!-- Created with Inkscape (http://www.inkscape.org/) -->

<svg
   xmlns:svg="http://www.w3.org/2000/svg"
   xmlns="http://www.w3.org/2000/svg"
   xmlns:xlink="http://www.w3.org/1999/xlink"
   version="1.1"
   width="390"
   height="480"
   id="svg4228">
  <defs
     id="defs4232">
    <linearGradient
       id="linearGradient3652">
      <stop
         id="stop3654"
         style="stop-color:#ffffff;stop-opacity:1"
         offset="0" />
      <stop
         id="stop3656"
         style="stop-color:#ffffff;stop-opacity:0"
         offset="1" />
    </linearGradient>
    <linearGradient
       x1="1.041629"
       y1="110.18271"
       x2="389.03033"
       y2="110.18271"
       id="linearGradient3667"
       xlink:href="#linearGradient3652"
       gradientUnits="userSpaceOnUse"
       gradientTransform="translate(0,3.7e-6)" />
  </defs>
  <path
     d="m 0.51202379,0.50512952 c 129.66265621,0 259.32532621,0 388.98797621,0 C 389.48983,115.23328 370.33544,349.8309 194.89467,479.37706 21.249382,349.77255 0.5931986,115.2575 0.51202379,0.50512952 z"
     id="path4240-0-1"
     style="fill:#207dbf;fill-opacity:1;stroke:#9e832a;stroke-width:0.99999905;stroke-opacity:1" />
  <path
     d="m 199.95731,55.931879 c 15.54997,18.752517 2.37055,37.312668 2.41526,54.844221 l 0.60382,236.76958 3.11441,4.18949 0.54844,117.98864 c 15.4819,-11.87081 30.81818,-26.96983 37.95493,-34.54716 l -0.33584,-84.45712 2.86017,-4.126 -0.1556,-198.6637 c -23.03537,-22.52758 34.40565,-50.094884 59.99944,-18.08869 l 59.20324,-0.022 c -8.24742,-10.91949 -57.55004,-5.68703 -72.52147,-33.38895 -3.72366,-6.889975 -53.46219,-9.997689 -69.91553,13.83801 -0.16829,-10.917663 0.73511,-21.478564 -1.27119,-33.008094 -0.52488,-3.016346 -9.17571,-21.062772 -22.50008,-21.328307 l 0,5e-5 z"
     id="path4310"
     style="fill:#faf700;fill-opacity:1;stroke:none" />
  <path
     d="m 190.16569,55.93177 c -15.54999,18.744423 -2.37055,37.296564 -2.41526,54.82055 l -0.60383,236.6674 -3.11441,4.18768 -0.66793,118.20586 C 167.4599,457.20373 150.74782,440.86414 145.42929,434.94403 l 0.43532,-84.35183 -2.86017,-4.12422 0.1556,-198.57796 c 23.0354,-22.51786 -34.4057,-50.073268 -59.999524,-18.08088 l -59.203316,-0.022 c 8.247433,-10.91479 57.550118,-5.68458 72.521565,-33.374547 3.723665,-6.887002 53.462255,-9.993375 69.915625,13.832037 0.16829,-10.912951 -0.73512,-21.469294 1.27118,-32.993848 0.52489,-3.015044 9.17573,-21.053683 22.50012,-21.319102 l 0,5e-5 z"
     id="path4310-9"
     style="fill:#faf700;fill-opacity:1;stroke:none" />
</svg>
