<?xml version="1.0" encoding="UTF-8" standalone="no"?>
<!-- Created with Inkscape (http://www.inkscape.org/) -->

<svg
   xmlns:svg="http://www.w3.org/2000/svg"
   xmlns="http://www.w3.org/2000/svg"
   version="1.1"
   width="507"
   height="480"
   id="svg4570">
  <defs
     id="defs4574" />
  <path
     d="M 57.868668,1.91323 448.33518,1.93573 C 584.54048,208.38698 461.92221,401.36616 254.29774,480.0003 24.937931,390.69261 -69.407566,194.27725 57.868668,1.91326 l 0,-3e-5 z"
     id="path2828"
     style="fill:#207dbf;fill-opacity:1;stroke:none" />
  <path
     d="m 248.58513,211.59368 c -33.77889,61.30393 43.70016,61.3955 11.76442,-0.31057 -2.3793,-4.29461 2.04524,-6.35954 6.19127,-4.27715 52.99254,24.51832 45.43319,-46.03012 -1.68586,-15.11674 -8.45294,5.54572 -17.57797,-83.82914 50.83113,-83.17345 73.30355,0.7026 124.5835,133.33875 -63.0975,236.25515 C 78.456986,259.85471 98.006559,110.09646 189.67389,109.1498 c 73.72093,-0.76132 63.05492,87.62526 55.11429,82.90496 -52.28125,-31.07851 -63.11529,45.72285 -2.67412,14.91912 3.77819,-1.27826 7.8686,0.12032 6.47107,4.6198 z"
     id="path2843"
     style="fill:#f2f2f2;fill-opacity:1;stroke:none" />
  <path
     d="m 149.57596,63.545243 c 20.44455,-39.427868 77.70016,-42.934912 104.02487,7.286421 24.7347,-49.768382 82.59338,-45.690385 102.51362,-7.28642 41.98106,-58.6288864 138.59422,-7.777424 81.10414,66.834066 54.70887,27.01713 34.49522,93.8703 -2.01501,98.24105 38.56447,50.52638 -12.2173,98.20308 -54.15339,88.94458 18.48685,54.06029 -34.92122,96.34204 -76.82224,61.80895 -3.65947,84.38372 -106.5942,70.7287 -103.74642,-0.45496 C 149.12123,409.8585 106.3978,358.87171 121.11395,319.57499 62.954977,327.88556 39.855259,263.49293 68.723703,229.87663 19.54242,213.05123 28.444197,148.24201 70.738713,129.37428 13.156961,54.472503 113.81974,5.0294252 149.57596,63.545243 z"
     id="path3957"
     style="fill:none;stroke:#f2f2f2;stroke-width:21.76883125;stroke-linecap:square;stroke-linejoin:miter;stroke-miterlimit:4;stroke-opacity:1;stroke-dasharray:none" />
</svg>
