<?xml version="1.0" encoding="UTF-8" standalone="no"?>
<!-- Created with Inkscape (http://www.inkscape.org/) -->

<svg
   xmlns:svg="http://www.w3.org/2000/svg"
   xmlns="http://www.w3.org/2000/svg"
   xmlns:xlink="http://www.w3.org/1999/xlink"
   version="1.1"
   width="390"
   height="480"
   id="svg4228">
  <defs
     id="defs4232" />
  <path
     d="M 0,0 C 130,0 260,0 390,0 389.98981,114.99797 370.78556,350.14732 194.88837,479.99815 20.79131,350.08886 0.081386,115.02225 0,0 z"
     id="path4240-0"
     style="fill:#207dbf;fill-opacity:1;stroke:none" />
  <path
     d="m 113.88555,158.00868 55.94616,-0.0634 c 3.74568,-31.24593 44.21941,-31.79007 47.74567,0 l 55.86459,-0.0782 c -5.83829,-9.05335 -13.74555,-18.08963 -22.39799,-24.76251 -18.93397,2.94381 -51.91122,-37.796628 6.1696,-52.326838 5.87969,-3.619221 62.07065,-33.443058 62.19654,-39.648932 L 67.43337,41.0469 c 0.865896,6.335071 55.33679,34.86484 63.29685,39.101241 57.47539,14.955026 22.03641,56.596429 4.48382,53.077379 -6.19148,4.17693 -17.56073,13.82181 -21.32849,24.78486 z"
     id="path3033"
     style="fill:#ececec;stroke:none" />
  <use
     transform="matrix(0.84765875,0,0,0.84765875,29.466071,139.16237)"
     id="use3875"
     x="0"
     y="0"
     width="390"
     height="480"
     xlink:href="#path3033" />
  <use
     transform="matrix(0.71482221,0,0,0.71482221,55.159579,260.38318)"
     id="use3877"
     x="0"
     y="0"
     width="390"
     height="480"
     xlink:href="#path3033" />
</svg>
