<?xml version="1.0" encoding="UTF-8" standalone="no"?>
<!-- Created with Inkscape (http://www.inkscape.org/) -->

<svg
   xmlns:svg="http://www.w3.org/2000/svg"
   xmlns="http://www.w3.org/2000/svg"
   version="1.1"
   width="390"
   height="480"
   id="svg4228">
  <defs
     id="defs4232" />
  <path
     d="m 0.51202379,0.50512952 c 129.66265621,0 259.32532621,0 388.98797621,0 C 389.48983,115.23328 370.33544,349.8309 194.89467,479.37706 21.249382,349.77255 0.5931986,115.2575 0.51202379,0.50512952 z"
     id="path4240-0-1"
     style="fill:#faf700;fill-opacity:1;stroke:#9e832a;stroke-width:0.99999905;stroke-opacity:1" />
  <path
     d="M 56.988013,1.0085854 330.02061,1.00526 194.89808,139.00449 z"
     id="path2839"
     style="fill:#207dbf;fill-opacity:1;stroke:none" />
  <path
     d="M 194.95569,239.01429 310.56307,346.19346 C 290.1337,383.33755 251.38095,437.92934 194.89515,478.76242 169.105,459.45959 120.3497,418.79949 80.076202,346.16998 z"
     id="path2841"
     style="fill:#207dbf;fill-opacity:1;stroke:none" />
  <path
     d="M 2.3074808,49.592768 140.81851,188.52353 48.687758,279.4893 C 21.159146,210.29862 6.1029827,126.11374 2.3074808,49.592768 z"
     id="path2843"
     style="fill:#207dbf;fill-opacity:1;stroke:none" />
  <path
     d="M 387.79782,49.529153 249.20355,188.52353 341.90359,279.72898 C 364.93464,223.56736 384.71915,133.89275 387.79782,49.529153 z"
     id="path2843-7"
     style="fill:#207dbf;fill-opacity:1;stroke:none" />
</svg>
