<?xml version="1.0" encoding="UTF-8" standalone="no"?>
<!-- Created with Inkscape (http://www.inkscape.org/) -->

<svg
   xmlns:svg="http://www.w3.org/2000/svg"
   xmlns="http://www.w3.org/2000/svg"
   version="1.1"
   width="390"
   height="480"
   id="svg4228">
  <defs
     id="defs4232" />
  <path
     d="m 0.51202379,0.50512952 c 129.66265621,0 259.32532621,0 388.98797621,0 C 389.48983,115.23328 370.33544,349.8309 194.89467,479.37706 21.249382,349.77255 0.5931986,115.2575 0.51202379,0.50512952 z"
     id="path4240-0-1"
     style="fill:#207dbf;fill-opacity:1;stroke:#99999f;stroke-width:0.99999905;stroke-opacity:0.94117647" />
  <path
     d="m 290.58954,1.0036293 24.85773,8.538e-4 C 301.23489,20.76409 301.58323,40.249941 288.18509,55.475921 c -32.84016,37.320353 -53.89016,23.738773 -82.7585,48.993179 -28.59868,25.01846 -20.18204,47.61508 -41.88698,71.95869 -36.49113,40.92736 -46.4899,17.50645 -82.832408,49.20411 -18.822166,16.41655 -24.553579,36.88759 -31.43586,55.37895 -2.827579,-7.18743 -6.536839,-16.65021 -10.815157,-29.85986 8.400668,-23.52483 20.295152,-36.33789 31.142755,-45.48824 31.10981,-26.24225 48.39309,-4.98055 79.66999,-45.45685 19.77408,-25.59019 14.51731,-48.63782 43.08384,-73.598908 C 223.58495,59.316698 239.853,79.693961 274.47663,35.317275 285.20404,21.56807 283.92455,9.411766 290.58954,1.0036293 z"
     id="path3741"
     style="fill:#ececec;fill-opacity:1;stroke:none" />
  <path
     d="m 358.72235,1.00411 30.27701,-0.00107 -0.0183,5.4113716 C 332.64512,47.325536 347.88778,68.677598 326.38567,94.250314 c -33.41959,39.746316 -53.89063,23.619726 -82.75925,48.747456 -28.59892,24.89299 -19.82563,47.70067 -41.88736,71.5978 -44.3898,48.0828 -46.2318,17.9202 -82.93459,49.03913 -31.135467,26.39861 -18.24685,46.29746 -43.870436,73.1724 -4.29933,-7.86659 -8.154963,-15.85342 -10.871412,-21.59266 18.132966,-14.33029 13.082985,-44.24415 43.703668,-71.49554 30.34696,-27.00779 49.1373,-6.75643 80.40907,-47.02278 19.77966,-25.4688 13.80426,-46.62968 42.37712,-71.47085 31.22639,-27.148149 47.4865,-4.7031 82.47813,-48.557622 18.73535,-23.480754 7.98116,-45.261163 45.69174,-75.663538 z"
     id="path3741-4"
     style="fill:#ececec;fill-opacity:1;stroke:none" />
  <path
     d="m 387.74464,50.450533 c -0.6246,12.566388 -1.55676,27.909278 -3.10859,41.945461 -5.62077,14.856956 -10.12754,29.312126 -19.66325,42.477206 -33.62694,36.4223 -53.89063,23.61972 -82.75923,48.74745 -28.59894,24.89298 -20.18221,47.37626 -41.88736,71.59779 -36.49147,40.72211 -44.2161,20.32603 -82.86441,48.99232 -28.92976,21.45783 -20.94045,46.70147 -53.20395,80.47658 -3.21919,-4.59269 -8.378252,-12.04332 -12.75389,-19.26095 32.17662,-32.38283 21.83647,-54.14676 54.84947,-81.08462 31.46395,-25.67388 49.8444,-4.28155 81.11619,-44.54791 19.77966,-25.46879 13.09716,-49.10455 41.67001,-73.94572 31.2264,-27.14815 50.65697,-7.20252 81.89114,-49.39824 14.96366,-20.215122 13.24004,-45.664359 36.71388,-65.999367 z"
     id="path3741-8"
     style="fill:#ececec;fill-opacity:1;stroke:none" />
</svg>
