<?xml version="1.0" encoding="UTF-8" standalone="no"?>
<!-- Created with Inkscape (http://www.inkscape.org/) -->

<svg
   xmlns:dc="http://purl.org/dc/elements/1.1/"
   xmlns:cc="http://creativecommons.org/ns#"
   xmlns:rdf="http://www.w3.org/1999/02/22-rdf-syntax-ns#"
   xmlns:svg="http://www.w3.org/2000/svg"
   xmlns="http://www.w3.org/2000/svg"
   xmlns:xlink="http://www.w3.org/1999/xlink"
   version="1.1"
   width="390"
   height="480"
   id="svg4228">
  <metadata
     id="metadata11">
    <rdf:RDF>
      <cc:Work
         rdf:about="">
        <dc:format>image/svg+xml</dc:format>
        <dc:type
           rdf:resource="http://purl.org/dc/dcmitype/StillImage" />
        <dc:title></dc:title>
      </cc:Work>
    </rdf:RDF>
  </metadata>
  <defs
     id="defs4232" />
  <path
     d="M 0.00351796,0.00350638 390.01124,-0.03065059 C 389.99631,270.00335 389.99205,273.98676 389.99209,273.99895 390.99231,548.63218 0.01014203,548.63782 0.0068261,273.99819 L 0.00351796,0.00350638 z"
     id="path2902"
     style="fill:#d61a1a;fill-opacity:1;stroke:none" />
  <use
     transform="translate(214,0)"
     id="use3759"
     x="0"
     y="0"
     width="390"
     height="480"
     xlink:href="#path2827-7" />
  <path
     d="m 148.71491,108.94372 c 4.774,-3.77013 16.96804,-1.51751 15.76684,7.76575 -4.05352,31.32699 -24.3076,37.02651 -38.00512,52.36 -6.05971,6.78346 -3.15977,15.98724 6.94211,11.06033 18.2407,-8.89641 19.67656,15.99936 3.52988,24.82687 -7.37343,4.03111 -15.20103,1.10726 -22.35596,10.00135 -5.90165,7.33621 -0.55509,10.1405 6.35381,10.58967 14.73599,0.95806 6.2328,13.55022 -5.53017,22.59127 -11.5922,8.90981 -20.64874,9.08199 -21.64997,41.06438 l -12.23694,0.35298 c -2.32354,-13.38005 -2.23554,-30.09369 -20.70868,-39.41708 -8.01399,-4.04466 -22.06652,-24.0572 -10.35434,-24.59155 12.88213,-0.58772 15.02952,-4.88668 8.2364,-12.35461 -3.97954,-4.37486 -14.01911,-6.10853 -22.47362,-8.47173 -10.56704,-2.95369 -16.41782,-31.17689 1.41196,-26.35649 21.07038,5.69651 12.92795,-4.5294 6.58913,-12.11929 -13.39073,-16.03363 -32.25358,-20.28226 -33.00445,-50.41856 -0.12876,-5.16763 6.17328,-14.04798 14.41371,-7.23627 12.2018,10.08628 40.15997,15.12114 12.82525,-16.11983 -9.62249,-10.997582 -3.09038,-28.289865 17.29645,-22.120631 6.08391,1.841043 11.26416,3.398457 14.82554,-5.294832 1.77963,-4.344087 0.86286,-9.872734 1.29428,-16.825799 0.89757,-14.465484 31.4394,-12.961314 31.53367,-0.235326 l 0.11766,15.884496 c 2.61455,11.567237 11.01257,7.751212 17.17879,5.883147 17.62021,-5.338065 27.44065,10.97326 16.00216,22.238294 -16.70448,16.451161 -16.35542,39.337651 12.00161,16.943461 z"
     id="path2827-7"
     style="fill:#faf700;fill-opacity:1;stroke:none" />
  <use
     transform="translate(108,162)"
     id="use3761"
     x="0"
     y="0"
     width="390"
     height="480"
     xlink:href="#path2827-7" />
</svg>
