<?xml version="1.0" encoding="UTF-8" standalone="no"?>
<!-- Created with Inkscape (http://www.inkscape.org/) -->

<svg
   xmlns:dc="http://purl.org/dc/elements/1.1/"
   xmlns:cc="http://creativecommons.org/ns#"
   xmlns:rdf="http://www.w3.org/1999/02/22-rdf-syntax-ns#"
   xmlns:svg="http://www.w3.org/2000/svg"
   xmlns="http://www.w3.org/2000/svg"
   xmlns:xlink="http://www.w3.org/1999/xlink"
   version="1.1"
   width="390"
   height="480"
   id="svg4228">
  <metadata
     id="metadata75">
    <rdf:RDF>
      <cc:Work
         rdf:about="">
        <dc:format>image/svg+xml</dc:format>
        <dc:type
           rdf:resource="http://purl.org/dc/dcmitype/StillImage" />
        <dc:title></dc:title>
      </cc:Work>
    </rdf:RDF>
  </metadata>
  <defs
     id="defs4232" />
  <path
     d="M 0.00351796,0.00350638 390.01124,-0.03065059 C 389.99631,270.00335 389.99205,273.98676 389.99209,273.99895 390.99231,548.63218 0.01014203,548.63782 0.0068261,273.99819 L 0.00351796,0.00350638 z"
     id="path2902"
     style="fill:#d61a1a;fill-opacity:1;stroke:none" />
  <use
     transform="translate(-41.369521,126.67528)"
     id="use3988"
     x="0"
     y="0"
     width="390"
     height="480"
     xlink:href="#g3976" />
  <use
     transform="translate(172.29825,126.75928)"
     id="use3990"
     x="0"
     y="0"
     width="390"
     height="480"
     xlink:href="#g3976" />
  <use
     transform="translate(65.017793,203.3274)"
     id="use3992"
     x="0"
     y="0"
     width="390"
     height="480"
     xlink:href="#g3976" />
  <use
     transform="translate(131.0941,0)"
     id="use3986"
     x="0"
     y="0"
     width="390"
     height="480"
     xlink:href="#g3976" />
  <g
     id="g3976">
    <path
       d="m 117.38209,99.18834 c -3.90281,-6.92463 -9.44432,-13.4964 -9.68871,-21.420235 -0.82109,-26.62254 42.27631,-31.29967 43.89105,0.3502 0.30507,5.979585 -2.37265,11.886945 -9.45525,21.303495 9.14195,-9.39739 11.4002,-17.00941 24.74708,-16.51751 27.39951,1.00982 25.55383,36.09219 7.7043,41.67315 -6.6309,2.07326 -11.3949,2.07761 -23.92998,-0.93385 7.59299,3.29173 18.815,4.8755 22.64593,17.393 3.86317,12.62291 -1.40745,22.6501 -10.03409,26.62527 -7.71344,3.55437 -14.19827,3.84943 -22.76748,-0.71087 -8.56921,-4.5603 -9.2456,-13.10573 -10.50584,-28.4825 -1.18729,14.11439 -1.21993,23.72848 -12.60701,29.29961 -22.87276,11.19048 -40.127136,-16.64353 -27.08171,-33.26848 5.18271,-6.6048 11.66571,-7.96668 19.37743,-11.08949 -8.30799,1.28928 -16.76489,4.69864 -25.330736,0.81712 -22.46673,-10.18055 -13.60864,-44.407175 11.439686,-41.43969 11.45959,1.35762 15.73913,9.88339 21.59533,16.40078 z"
       id="path3713-6-3"
       style="fill:#f2f2f2;stroke:none" />
    <g
       id="g3942">
      <path
         d="m 130.28093,110.10273 0.0584,-10.65175"
         id="path3715-1-4"
         style="fill:none;stroke:#d61a1a;stroke-width:2.79999995;stroke-linecap:round;stroke-linejoin:miter;stroke-miterlimit:4;stroke-opacity:1;stroke-dasharray:none" />
      <path
         d="m 133.29337,96.736974 a 3.1291661,3.158349 0 1 1 -6.25833,0 3.1291661,3.158349 0 1 1 6.25833,0 z"
         id="path3814-5-8-42"
         style="opacity:0.98999999;fill:#f2f2f2;fill-opacity:1;fill-rule:nonzero;stroke:#d61a1a;stroke-width:1.22844148;stroke-linecap:round;stroke-linejoin:round;stroke-miterlimit:4;stroke-opacity:1;stroke-dasharray:none" />
    </g>
    <use
       transform="matrix(0.31794687,0.94810854,-0.94810854,0.31794687,199.29283,-44.133776)"
       id="use3946"
       x="0"
       y="0"
       width="390"
       height="480"
       xlink:href="#g3942" />
    <use
       transform="matrix(0.29458701,-0.95562466,0.95562466,0.29458701,-18.723831,206.53053)"
       id="use3948"
       x="0"
       y="0"
       width="390"
       height="480"
       xlink:href="#g3942" />
    <use
       transform="matrix(-0.82030775,-0.57192237,0.57192237,-0.82030775,171.00218,285.11615)"
       id="use3950"
       x="0"
       y="0"
       width="390"
       height="480"
       xlink:href="#g3942" />
    <use
       transform="matrix(-0.80738572,0.59002399,-0.59002399,-0.80738572,303.78797,132.65465)"
       id="use3952"
       x="0"
       y="0"
       width="390"
       height="480"
       xlink:href="#g3942" />
  </g>
  <path
     d="m 194.78411,132.08326 c -14.71566,14.28812 -21.46907,38.5159 -2.88736,48.06306 l 0.16298,74.94142 c 0.004,1.82796 4.15692,1.72789 4.15012,0.0837 L 195.899,180.0707 c 18.49546,-8.82551 11.7801,-33.85638 -1.11489,-47.98744 z"
     id="path4005"
     style="fill:#f2f2f2;stroke:none" />
  <use
     transform="matrix(0.28339425,0.95900349,-0.95900349,0.28339425,339.09865,-38.358954)"
     id="use4007"
     style="fill:#f2f2f2"
     x="0"
     y="0"
     width="390"
     height="480"
     xlink:href="#path4005" />
  <use
     transform="matrix(-0.77054715,0.63738301,-0.63738301,-0.77054715,478.41036,246.46588)"
     id="use4009"
     style="fill:#f2f2f2"
     x="0"
     y="0"
     width="390"
     height="480"
     xlink:href="#path4005" />
  <use
     transform="matrix(-0.77208222,-0.63552265,0.63552265,-0.77208222,211.24957,491.32669)"
     id="use4011"
     style="fill:#f2f2f2"
     x="0"
     y="0"
     width="390"
     height="480"
     xlink:href="#path4005" />
  <use
     transform="matrix(0.21647275,-0.97628865,0.97628865,0.21647275,-50.106471,351.34463)"
     id="use4013"
     style="fill:#f2f2f2"
     x="0"
     y="0"
     width="390"
     height="480"
     xlink:href="#path4005" />
  <path
     d="m 179.46619,167.29537 c 7.88393,-3.13367 19.62791,-3.29705 28.0783,-0.0534"
     id="path4047"
     style="fill:none;stroke:#d61a1a;stroke-width:3;stroke-linecap:butt;stroke-linejoin:miter;stroke-miterlimit:4;stroke-opacity:1;stroke-dasharray:none" />
  <use
     transform="matrix(0.32014313,0.94736919,-0.94736919,0.32014313,328.53795,-41.76491)"
     id="use4049"
     x="0"
     y="0"
     width="390"
     height="480"
     xlink:href="#path4047" />
  <use
     transform="matrix(0.19525064,-0.98075338,0.98075338,0.19525064,-46.960428,354.84077)"
     id="use4051"
     x="0"
     y="0"
     width="390"
     height="480"
     xlink:href="#path4047" />
  <use
     transform="matrix(-0.76361113,-0.64567642,0.64567642,-0.76361113,207.88103,492.60562)"
     id="use4053"
     x="0"
     y="0"
     width="390"
     height="480"
     xlink:href="#path4047" />
  <use
     transform="matrix(-0.7379832,0.67481908,-0.67481908,-0.7379832,476.40878,231.99153)"
     id="use4055"
     x="0"
     y="0"
     width="390"
     height="480"
     xlink:href="#path4047" />
</svg>
