<?xml version="1.0" encoding="UTF-8" standalone="no"?>
<!-- Created with Inkscape (http://www.inkscape.org/) -->

<svg
   xmlns:svg="http://www.w3.org/2000/svg"
   xmlns="http://www.w3.org/2000/svg"
   version="1.1"
   width="390"
   height="480"
   id="svg4228">
  <defs
     id="defs4232" />
  <path
     d="m 0.51202379,0.50512952 c 129.66265621,0 259.32532621,0 388.98797621,0 C 389.48983,115.23328 370.33544,349.8309 194.89467,479.37706 21.249382,349.77255 0.5931986,115.2575 0.51202379,0.50512952 z"
     id="path4240-0-1"
     style="fill:#e0e0e0;fill-opacity:1;stroke:#99999f;stroke-width:0.99999905;stroke-opacity:0.94117647" />
  <path
     d="M 1.0425603,8.1393614 C 0.8267048,42.958518 5.652839,102.02194 9.0681705,121.85799 33.077879,145.55934 23.43468,165.6552 50.626018,192.6582 c 18.173807,18.04793 32.234814,12.80817 49.024721,33.05393 15.428891,18.60461 7.056641,36.16002 28.049101,67.08352 19.73067,29.06475 40.83136,18.63118 66.7565,46.02331 24.07262,25.43478 -2.78027,41.57757 54.93732,91.38258 22.35892,-23.35429 40.40913,-49.99777 49.01554,-63.6614 C 257.34767,338.02582 269.66596,311.81406 243.27588,280.15431 226.47704,260.00102 200.33755,258.72166 189.87745,244.30693 170.06424,217.00298 171.24928,193.89464 155.0125,170.60033 139.91833,148.94529 111.62913,150.84769 98.127572,132.55821 81.772353,110.40309 88.792298,97.095547 69.685109,72.385805 46.480884,42.377706 12.598488,39.803606 1.0425603,8.1393614 z"
     id="path3688"
     style="fill:#207dbf;fill-opacity:1;stroke:none" />
  <path
     d="M 88.585898,1.00559 195.38819,1.0107 c 5.06168,46.609746 52.45794,45.860741 70.32,74.944379 9.19726,14.975313 5.33628,42.548791 23.98098,63.427701 21.14212,23.67563 35.76526,13.50235 48.83719,27.74961 11.98483,13.06241 7.92876,31.53224 25.8207,42.57137 -7.99359,32.21893 -20.90529,68.3833 -31.77742,92.5321 -28.17387,-20.5889 -27.79405,-53.931 -42.1803,-69.87384 C 272.30667,212.3228 249.05411,217.90904 230.17431,192.35932 210.45796,165.67751 214.82372,140.51169 203.91777,125.14759 184.95314,98.430577 157.24734,101.9995 139.32664,81.000465 119.39653,57.646848 131.82926,25.212383 88.585898,1.00559 z"
     id="path3712"
     style="fill:#207dbf;fill-opacity:1;stroke:none" />
</svg>
