<?xml version="1.0" encoding="UTF-8" standalone="no"?>
<!-- Created with Inkscape (http://www.inkscape.org/) -->

<svg
   xmlns:dc="http://purl.org/dc/elements/1.1/"
   xmlns:cc="http://creativecommons.org/ns#"
   xmlns:rdf="http://www.w3.org/1999/02/22-rdf-syntax-ns#"
   xmlns:svg="http://www.w3.org/2000/svg"
   xmlns="http://www.w3.org/2000/svg"
   xmlns:xlink="http://www.w3.org/1999/xlink"
   version="1.1"
   width="360"
   height="480"
   id="svg3746">
  <metadata
     id="metadata13">
    <rdf:RDF>
      <cc:Work
         rdf:about="">
        <dc:format>image/svg+xml</dc:format>
        <dc:type
           rdf:resource="http://purl.org/dc/dcmitype/StillImage" />
        <dc:title></dc:title>
      </cc:Work>
    </rdf:RDF>
  </metadata>
  <defs
     id="defs3750" />
  <path
     d="m 234.76151,427.1127 61.2934,-0.17369 c 38.34256,-0.10773 60.92514,-39.16726 60.91391,-66.06204 L 356.95092,1.8399527 1.7460613,1.7522543 1.3987906,352.42756 c -0.038334,38.89587 21.7407434,75.23641 66.3067514,74.77047 l 46.901628,-0.49226 c 39.61796,-0.41489 53.08538,25.69515 64.2451,49.87769 12.35483,-25.46046 31.19407,-48.68444 55.90924,-49.47076 z"
     id="path4313"
     style="fill:#faf700;fill-opacity:1;stroke:#000000;stroke-width:2.94711971;stroke-linecap:butt;stroke-linejoin:miter;stroke-miterlimit:4;stroke-opacity:1;stroke-dasharray:none" />
  <path
     d="M 312.84397,282.14967 240.09847,212.3849"
     id="path4235"
     style="fill:none;stroke:#000000;stroke-width:0.98025465px;stroke-linecap:butt;stroke-linejoin:miter;stroke-opacity:1" />
  <path
     d="m 217.3847,283.31094 39.65635,-5.62532 49.97118,17.9758"
     id="path4231"
     style="fill:none;stroke:#000000;stroke-width:0.98025465px;stroke-linecap:butt;stroke-linejoin:miter;stroke-opacity:1" />
  <use
     transform="translate(7.8577474,0)"
     id="use4223"
     x="0"
     y="0"
     width="369"
     height="480"
     xlink:href="#path4221" />
  <path
     d="m 147.77028,303.48856 7.24318,-39.0098"
     id="path4221"
     style="fill:none;stroke:#000000;stroke-width:0.98025465px;stroke-linecap:butt;stroke-linejoin:miter;stroke-opacity:1" />
  <path
     d="m 108.87064,287.16036 18.64102,-18.27893 91.96043,32.03905"
     id="path4219"
     style="fill:none;stroke:#000000;stroke-width:0.98025465px;stroke-linecap:butt;stroke-linejoin:miter;stroke-opacity:1" />
  <path
     d="m 266.0039,287.8353 c 2.697,5.67499 7.91363,8.97181 13.69037,11.73969 l -4.66586,3.91357 c -2.23953,-2.16166 -11.2728,-8.35898 -11.9447,-13.29896 -0.19956,-1.46415 1.56351,-0.7267 2.92019,-2.3543 z"
     id="path4275"
     style="fill:#d61a1a;fill-opacity:1;stroke:#000000;stroke-width:0.98025465px;stroke-linecap:butt;stroke-linejoin:miter;stroke-opacity:1" />
  <path
     d="m 274.35352,317.55077 15.5928,-5.01345 c -3.78435,-15.35296 4.08731,-15.44803 -1.6272,-26.16919 -2.84572,-5.33894 -8.36414,-0.0225 -10.52843,3.42451 -5.00534,6.10284 -1.73709,14.23728 -3.43717,27.75813 z"
     id="path4273"
     style="fill:#d61a1a;fill-opacity:1;stroke:#000000;stroke-width:0.98025465px;stroke-linecap:butt;stroke-linejoin:miter;stroke-opacity:1" />
  <path
     d="m 161.76671,280.8656 21.4862,-14.43058 95.02883,47.08041"
     id="path4225"
     style="fill:none;stroke:#000000;stroke-width:0.98025465px;stroke-linecap:butt;stroke-linejoin:miter;stroke-opacity:1" />
  <path
     d="m 197.49487,266.67955 6.87546,37.54264"
     id="path4227"
     style="fill:none;stroke:#000000;stroke-width:0.98025465px;stroke-linecap:butt;stroke-linejoin:miter;stroke-opacity:1" />
  <path
     d="m 76.90768,192.19993 c -13.056443,1.77959 -14.400898,-8.1321 -18.105796,-15.85553 -4.263869,5.95905 -5.074851,9.50892 -9.318972,10.68347 -3.431081,0.94941 -6.858983,0.26556 -10.185348,6.02828 -0.824379,1.42741 0.988778,2.87271 2.41179,4.17766 -4.124078,2.04219 -7.218409,6.14973 -6.920902,9.71309 0.363368,4.35344 3.954518,2.88162 3.408073,7.31091 -0.223783,1.81346 -9.354582,3.11224 -6.553908,10.13082 0.685869,1.71867 4.316161,6.70749 5.843113,3.14717 2.33401,-5.44263 9.380174,-10.38951 11.954292,-7.9254 4.736166,4.53393 8.276134,4.59483 -0.704912,13.1336 -12.544647,14.83264 -25.151835,17.65388 -25.376696,35.72011 -0.13583,10.89425 -3.050705,82.82701 37.725378,113.79055 37.222578,28.2651 115.314108,26.22961 187.205898,17.70476 16.54138,-1.96145 26.12144,-7.99454 38.90452,-14.20512 3.9589,6.08529 7.05686,12.52259 10.27635,17.96507 9.89481,0.0668 21.43134,-4.9895 24.85313,-15.5629 -7.78065,-3.07949 -15.59671,-7.05747 -19.61009,-14.2041 11.2705,-7.98107 13.7585,-11.13589 23.07054,-27.36849 10.96429,-19.11278 10.22442,-55.73227 10.18929,-81.76939 -0.004,-3.02939 -0.99507,-5.44741 -2.115,-7.83894 -11.73114,-20.92584 -48.44709,-36.26343 -46.4545,-52.95301 1.06315,6.83827 13.5026,11.89202 18.35067,3.75989 5.61863,-9.42286 1.11761,-24.32501 -12.26875,-23.60486 -10.58855,0.571 -20.93292,12.40194 -15.3097,31.7513 9.43238,20.02889 34.7392,38.08698 34.07981,48.56646 -0.61487,9.78187 1.64199,18.95383 -5.13817,28.51366 -51.77666,41.7408 -231.04857,48.1749 -258.5924,-2.38934 -2.707606,-4.97062 -2.162359,-25.38403 0.419447,-32.28636 6.861515,-18.34144 21.780959,-27.63654 24.538343,-44.49326 0.768562,-4.70206 -0.003,-12.44676 -2.876807,-14.70894 2.703551,-1.06566 5.720299,-4.50279 6.301307,-6.93116 z"
     id="path3844"
     style="fill:#000000;stroke:none" />
  <path
     d="M 268.46014,316.81715 255.7529,285.57312 c -2.00552,-4.92828 -9.46289,-0.16663 -8.10409,4.09672 l 10.25206,32.16184 z"
     id="path4279"
     style="fill:#000000;stroke:none" />
  <path
     d="m 42.164764,293.41966 c 9.160596,15.62789 35.676955,34.65301 56.659432,37.41361 33.832894,4.45093 104.274294,-1.1613 156.414114,-1.55241 22.24224,-0.16644 49.00057,-14.49817 63.21755,-41.52719"
     id="path3950"
     style="fill:none;stroke:#ffffff;stroke-width:1.90163243;stroke-linecap:butt;stroke-linejoin:miter;stroke-miterlimit:4;stroke-opacity:1;stroke-dasharray:none" />
  <path
     d="m 180.65331,313.88055 0.10064,-166.93898 -5.76746,-3.95215 c -5.35533,-0.2157 -5.11545,5.97975 -6.22811,7.7554 -3.21695,5.13449 -5.2019,0.50731 -7.25909,4.58041 -1.3345,2.64195 -4.25754,4.90667 -7.71843,1.46444 6.56272,-1.75163 2.47361,-6.49437 7.70989,-8.16023 7.07041,-2.24954 2.661,-6.16949 9.62685,-9.07447 l -6.59157,-5.97676 c -5.1163,5.16571 -3.55358,6.79336 -6.41652,9.97867 -1.94748,2.16693 -5.31302,-0.36943 -6.5163,3.25927 -0.87395,2.635 -4.52647,5.65183 -9.6385,3.12655 8.81714,-2.66601 2.46004,-6.76576 8.5817,-8.60706 8.30883,-2.4989 3.62115,-7.04046 10.77208,-11.41681 l -5.79081,-6.42814 c -2.64581,0.28485 -5.03005,3.97334 -6.93219,8.60176 -2.68034,6.52104 -8.05781,1.79693 -10.9886,5.19365 -4.07273,4.72072 -8.42855,1.89482 -8.64538,1.34143 6.43547,-0.0837 4.41918,-3.76523 7.29542,-5.19095 1.61462,-0.80002 5.45772,0.17019 6.90462,-1.51258 3.90082,-4.53782 1.24007,-7.46487 10.60684,-13.52255 l 30.24632,1.03011 5.453,194.67466 c -1.62248,1.54063 -6.75305,2.63709 -8.80869,-0.22567 z"
     id="path3797"
     style="fill:#000000;fill-opacity:1;stroke:none" />
  <use
     transform="translate(119.83078,0)"
     id="use4147"
     x="0"
     y="0"
     width="369"
     height="480"
     xlink:href="#g4137" />
  <g
     transform="matrix(0.98221792,0,0,0.97829065,74.594358,14.769954)"
     id="use4181">
    <path
       d="m 137.24414,320.25931 a 18.57099,18.57099 0 1 1 -37.14198,0 18.57099,18.57099 0 1 1 37.14198,0 z"
       transform="matrix(1.0524357,0,0,1.0524357,23.400902,-25.887109)"
       id="path4203"
       style="fill:#ffffff;fill-opacity:1;stroke:#000000;stroke-opacity:1" />
    <path
       d="m 137.24414,320.25931 a 18.57099,18.57099 0 1 1 -37.14198,0 18.57099,18.57099 0 1 1 37.14198,0 z"
       transform="matrix(0.89326747,0,0,0.89326747,42.289896,25.087994)"
       id="path4205"
       style="fill:#000000;fill-opacity:1;stroke:none" />
    <use
       transform="matrix(0.21219052,0,0,0.21219052,117.95687,242.85786)"
       id="use4207"
       style="stroke-width:3.29892206;stroke-miterlimit:4;stroke-dasharray:none"
       x="0"
       y="0"
       width="369"
       height="480"
       xlink:href="#path3851-4" />
    <path
       d="m 123.80338,321.09875 a 1.5213523,1.4412811 0 1 1 -3.0427,0 1.5213523,1.4412811 0 1 1 3.0427,0 z"
       transform="matrix(0.92982457,0,0,0.97222222,34.594542,-1.0138586)"
       id="path4209"
       style="fill:#000000;fill-opacity:1;stroke:none" />
  </g>
  <use
     transform="translate(80.541905,0)"
     id="use4145"
     x="0"
     y="0"
     width="369"
     height="480"
     xlink:href="#g4137" />
  <path
     d="m 304.79639,202.28283 a 1.636545,1.5788442 0 0 1 -3.27309,0 1.636545,1.5788442 0 1 1 3.27309,0 z"
     id="path3823"
     style="fill:#faf700;fill-opacity:1;stroke:none" />
  <path
     d="m 326.38835,270.85063 a 3.014815,2.9505387 0 0 1 -6.02963,0 3.014815,2.9505387 0 1 1 6.02963,0 z"
     id="path3825"
     style="fill:#faf700;fill-opacity:1;stroke:none" />
  <use
     transform="matrix(0.64748322,0,0,0.65684239,112.47871,77.363885)"
     id="use3827"
     x="0"
     y="0"
     width="369"
     height="480"
     xlink:href="#path3825" />
  <use
     transform="translate(-5.7836545,-8.9182898)"
     id="use3829"
     x="0"
     y="0"
     width="369"
     height="480"
     xlink:href="#use3827" />
  <use
     transform="translate(-14.456933,-15.990284)"
     id="use3831"
     x="0"
     y="0"
     width="369"
     height="480"
     xlink:href="#use3827" />
  <use
     transform="matrix(0.79107937,0,0,0.79041121,56.732104,42.083538)"
     id="use3833"
     x="0"
     y="0"
     width="369"
     height="480"
     xlink:href="#use3831" />
  <use
     transform="translate(-7.3482516,-6.7818)"
     id="use3835"
     x="0"
     y="0"
     width="369"
     height="480"
     xlink:href="#use3833" />
  <path
     d="m 284.82531,207.88935 a 1.9769865,1.9931686 0 1 1 -3.95397,0 1.9769865,1.9931686 0 1 1 3.95397,0 z"
     id="use3839"
     style="fill:#faf700;fill-opacity:1;stroke:none" />
  <path
     d="m 285.83734,198.19679 a 1.9769865,1.9931686 0 1 1 -3.95397,0 1.9769865,1.9931686 0 1 1 3.95397,0 z"
     id="use3841"
     style="fill:#faf700;fill-opacity:1;stroke:none" />
  <path
     d="m 291.18395,191.13115 a 1.6623944,1.6537252 0 1 1 -3.32478,0 1.6623944,1.6537252 0 1 1 3.32478,0 z"
     id="use3843"
     style="fill:#faf700;fill-opacity:1;stroke:none" />
  <path
     d="m 299.5059,190.88813 a 1.6886104,1.6537252 0 1 1 -3.37722,0 1.6886104,1.6537252 0 1 1 3.37722,0 z"
     id="use3845"
     style="fill:#faf700;fill-opacity:1;stroke:none" />
  <path
     d="m 304.30285,195.85966 a 1.6361817,1.6015056 0 1 1 -3.27236,0 1.6361817,1.6015056 0 1 1 3.27236,0 z"
     id="use3847"
     style="fill:#faf700;fill-opacity:1;stroke:none" />
  <use
     transform="matrix(1.4649275,0,0,1.6443812,-178.12612,-244.8262)"
     id="use3849"
     x="0"
     y="0"
     width="369"
     height="480"
     xlink:href="#path3825" />
  <g
     transform="matrix(0.98221792,0,0,0.97829065,35.305788,14.769954)"
     id="use4179">
    <path
       d="m 137.24414,320.25931 a 18.57099,18.57099 0 1 1 -37.14198,0 18.57099,18.57099 0 1 1 37.14198,0 z"
       transform="matrix(1.0524357,0,0,1.0524357,23.400902,-25.887109)"
       id="path4193"
       style="fill:#ffffff;fill-opacity:1;stroke:#000000;stroke-opacity:1" />
    <path
       d="m 137.24414,320.25931 a 18.57099,18.57099 0 1 1 -37.14198,0 18.57099,18.57099 0 1 1 37.14198,0 z"
       transform="matrix(0.89326747,0,0,0.89326747,42.289896,25.087994)"
       id="path4195"
       style="fill:#000000;fill-opacity:1;stroke:none" />
    <use
       transform="matrix(0.21219052,0,0,0.21219052,117.95687,242.85786)"
       id="use4197"
       style="stroke-width:3.29892206;stroke-miterlimit:4;stroke-dasharray:none"
       x="0"
       y="0"
       width="369"
       height="480"
       xlink:href="#path3851-4" />
    <path
       d="m 123.80338,321.09875 a 1.5213523,1.4412811 0 1 1 -3.0427,0 1.5213523,1.4412811 0 1 1 3.0427,0 z"
       transform="matrix(0.92982457,0,0,0.97222222,34.594542,-1.0138586)"
       id="path4199"
       style="fill:#000000;fill-opacity:1;stroke:none" />
  </g>
  <use
     transform="translate(41.253168,0)"
     id="use4143"
     x="0"
     y="0"
     width="369"
     height="480"
     xlink:href="#g4137" />
  <path
     d="m 160.8741,319.18021 a 19.19723,19.120472 0 0 1 -38.39446,0 19.19723,19.120472 0 1 1 38.39446,0 z"
     id="path3851-4"
     style="fill:#ffffff;fill-opacity:1;stroke:#000000;stroke-width:1.03165281;stroke-opacity:1" />
  <path
     d="m 157.97074,319.17996 a 16.293877,16.228728 0 1 1 -32.58775,0 16.293877,16.228728 0 1 1 32.58775,0 z"
     id="path3851-5"
     style="fill:#000000;fill-opacity:1;stroke:none" />
  <use
     transform="matrix(0.21219052,0,0,0.21219052,111.61416,251.45327)"
     id="use3853-4-2"
     style="stroke-width:3.29892206;stroke-miterlimit:4;stroke-dasharray:none"
     x="0"
     y="0"
     width="369"
     height="480"
     xlink:href="#path3851-4" />
  <path
     d="m 143.06484,319.18051 a 1.3894363,1.3708263 0 1 1 -2.77887,0 1.3894363,1.3708263 0 1 1 2.77887,0 z"
     id="path3918-4"
     style="fill:#000000;fill-opacity:1;stroke:none" />
  <g
     transform="matrix(0.98221792,0,0,0.97829065,-2.018498,14.769954)"
     id="g4137">
    <path
       d="m 137.24414,320.25931 a 18.57099,18.57099 0 1 1 -37.14198,0 18.57099,18.57099 0 1 1 37.14198,0 z"
       transform="matrix(1.0524357,0,0,1.0524357,-0.5990977,-25.887108)"
       id="path3851"
       style="fill:#ffffff;fill-opacity:1;stroke:#000000;stroke-opacity:1" />
    <path
       d="m 137.24414,320.25931 a 18.57099,18.57099 0 1 1 -37.14198,0 18.57099,18.57099 0 1 1 37.14198,0 z"
       transform="matrix(0.89326747,0,0,0.89326747,18.289896,25.087995)"
       id="path3851-8"
       style="fill:#faf700;fill-opacity:1;stroke:#000000;stroke-opacity:1" />
    <use
       transform="matrix(0.21219052,0,0,0.21219052,97.922172,245.13892)"
       id="use3853-4"
       style="stroke-width:3.29892206;stroke-miterlimit:4;stroke-dasharray:none"
       x="0"
       y="0"
       width="369"
       height="480"
       xlink:href="#path3851" />
    <path
       d="m 123.80338,321.09875 a 1.5213523,1.4412811 0 1 1 -3.0427,0 1.5213523,1.4412811 0 1 1 3.0427,0 z"
       transform="matrix(0.92982457,0,0,0.97222222,10.59454,-1.0138638)"
       id="path3918"
       style="fill:#000000;fill-opacity:1;stroke:none" />
  </g>
  <path
     d="m 21.308179,145.69879 c -2.994862,4.48259 -3.03936,8.78416 1.405638,7.10379 5.240917,-1.9814 11.060855,-3.32065 14.974753,-4.52128 l -11.381964,16.72842 c -1.302843,1.91394 1.387619,4.48448 3.410823,3.76668 8.046762,-2.85794 28.714906,-19.05705 44.934355,-33.75169 17.022554,-15.42173 33.302106,-16.99051 88.288466,-48.123271 11.84886,-6.708389 44.74274,-13.465699 67.72174,12.67465 36.07968,-5.059598 37.72664,34.354271 72.96382,33.971821 l 7.68641,-8.06769 C 217.97305,20.298756 55.77672,28.441394 21.308179,145.69879 z"
     id="path3838"
     style="fill:#ffffff;stroke:#000000;stroke-width:1.17630363;stroke-linecap:butt;stroke-linejoin:miter;stroke-miterlimit:4;stroke-opacity:1;stroke-dasharray:none" />
  <path
     d="m 19.199524,150.86397 c 20.276311,-13.36533 18.042907,-42.96189 30.3901,-50.43938 8.309207,-5.032076 11.31153,1.47163 4.363179,11.89196 -0.161532,0.24225 12.164907,14.64875 14.392123,13.47699 11.849412,-6.23132 26.894394,-15.75705 34.027504,-29.609213 -10.214166,-0.003 -19.825212,0.190818 -24.799648,-2.663284 29.433958,4.695333 58.094078,-3.063958 76.759328,-16.502728 -14.59192,-5.037368 -38.55776,-6.979355 -57.884348,1.148858 4.884608,-2.796438 18.812268,-10.362026 50.544068,-5.430981 3.42871,0.533175 19.84636,-4.442403 37.83744,-4.832789 20.6255,-0.446697 40.19828,10.618696 48.67505,21.857732 39.40834,-4.570417 33.44238,30.814665 71.51622,37.599035 -11.63259,33.76475 8.90014,49.9978 32.71773,47.62649 -12.84919,-10.59684 10.33805,-34.62696 -3.56526,-45.95543 10.9962,-18.32008 -8.51431,-23.84066 5.75338,-36.713166 -12.14459,-6.674514 -21.83252,2.355118 -23.44287,6.904263 -11.10372,-24.006598 -35.06797,-38.973366 -39.13618,-43.729354 -4.03507,-4.718257 -0.21033,-7.950124 2.29689,-9.807415 3.5915,-2.660884 15.64523,-3.780497 14.26107,-5.431076 C 287.88114,33.068277 263.04093,30.176703 247.55566,37.747879 186.7014,11.853865 133.59539,17.621824 88.37349,37.330113 54.516719,52.085235 36.91416,69.985347 33.00582,95.192104 18.723523,104.79195 27.508976,130.60057 19.199524,150.86397 z"
     id="path3836"
     style="fill:#000000;stroke:none" />
  <path
     d="m 54.705815,93.538122 a 3.410874,3.3418462 0 0 1 -6.821748,0 3.410874,3.3418462 0 1 1 6.821748,0 z"
     id="path3044-1"
     style="fill:#ffffff;fill-opacity:1;stroke:none" />
  <path
     d="m 53.130206,93.510493 a 1.8908125,1.8463268 0 0 1 -3.781625,0 1.8908125,1.8463268 0 1 1 3.781625,0 z"
     id="path3044"
     style="fill:#000000;fill-opacity:1;stroke:none" />
  <path
     d="m 20.58796,152.67442 c 21.99767,-16.78854 18.104409,-43.79554 29.893928,-50.94126 6.172408,-3.800421 7.46308,1.27854 2.617947,8.16387 -6.357907,9.03425 -3.998709,24.88268 -14.226,37.69035 -3.292211,0.25455 -10.839353,4.57174 -18.285875,5.08704 z"
     id="path3840"
     style="fill:#000000;stroke:none" />
  <path
     d="m 82.6605,281.47588 c 73.40311,-24.29569 143.75649,-12.79412 176.84932,-2.46315 -19.18919,-53.73862 -19.97775,-77.47054 -23.38398,-109.03929 -4.87344,6.36544 -36.33615,8.7678 -44.0212,1.23928 -6.14608,6.9164 -30.34442,9.01907 -40.3372,1.18181 -9.87327,3.45269 -23.2481,4.71176 -31.29087,-0.14663 -24.265534,35.37381 -38.913786,65.94766 -37.81607,109.22876 z"
     id="path3882"
     style="fill:#d61a1a;fill-opacity:1;stroke:#000000;stroke-width:0.98025465px;stroke-linecap:butt;stroke-linejoin:miter;stroke-opacity:1" />
  <path
     d="m 98.754704,276.63669 c 6.606306,-1.54851 13.185346,-3.09807 20.947076,-4.64768 -0.96694,-34.23711 6.47025,-60.48964 21.31299,-97.1329 -2.836,0.18931 -4.73114,-1.32272 -5.45277,-3.62937 -2.87413,2.56362 -5.43341,3.42421 -8.71521,3.32285 -11.41052,24.72117 -31.700722,61.84893 -28.092086,102.0871 z"
     id="path3926"
     style="fill:#ffffff;stroke:#000000;stroke-width:0.98025465px;stroke-linecap:butt;stroke-linejoin:miter;stroke-opacity:1" />
  <path
     d="m 162.01689,176.29831 c 5.42148,-0.004 8.02981,-2.3583 9.91915,-4.83261 3.10542,4.5317 5.57905,4.9572 10.05864,4.60282 -9.25563,30.63407 -11.78466,63.3467 -12.29935,91.01175 -9.67045,0.002 -18.59785,0.78616 -26.89793,1.56662 -2.47429,-38.23212 10.42396,-66.50382 19.21949,-92.34858 z"
     id="path3928"
     style="fill:#ffffff;stroke:#000000;stroke-width:0.98025465px;stroke-linecap:butt;stroke-linejoin:miter;stroke-opacity:1" />
  <path
     d="m 199.95444,267.9958 c 10.79367,0.88065 19.9068,1.96138 29.22437,3.706 -7.19414,-31.09468 -6.76525,-63.21415 -3.59151,-97.21124 -5.79799,0.83284 -8.37638,-0.91149 -10.85418,-3.68159 -2.05439,3.06132 -4.89299,5.07276 -9.74003,4.73563 -4.14684,21.18888 -9.85261,58.18412 -5.03865,92.4512 z"
     id="path3930"
     style="fill:#ffffff;stroke:#000000;stroke-width:0.98025465px;stroke-linecap:butt;stroke-linejoin:miter;stroke-opacity:1" />
  <path
     d="m 318.0244,302.19989 c -16.86008,26.97095 -45.06714,51.34628 -75.50206,51.80415 -48.21628,0.72449 -113.67166,1.89859 -131.49888,-2.29771 -41.160418,-9.68904 -56.058856,-33.57427 -69.418966,-49.71532"
     id="path3952"
     style="fill:none;stroke:#ffffff;stroke-width:1.9605093;stroke-linecap:butt;stroke-linejoin:miter;stroke-miterlimit:4;stroke-opacity:1;stroke-dasharray:none" />
  <path
     d="m 42.023956,313.47957 c 13.256448,22.27679 43.827883,52.19378 83.197824,55.20573 14.21234,1.08717 86.47945,3.29963 116.85968,0.15916 29.8343,-3.08543 58.87132,-25.74948 75.92918,-54.05994"
     id="path3954"
     style="fill:none;stroke:#ffffff;stroke-width:1.9605093;stroke-linecap:butt;stroke-linejoin:miter;stroke-miterlimit:4;stroke-opacity:1;stroke-dasharray:none" />
  <path
     d="m 41.433033,281.10611 1.186429,42.53961 c 0.443327,15.89605 41.945699,60.11118 89.720708,59.96895 l 99.36034,-0.296 c 44.58555,-0.13517 86.75636,-33.10453 86.60622,-67.79726 l -0.14649,-34.2678"
     id="path3956"
     style="fill:none;stroke:#ffffff;stroke-width:2.35260725;stroke-linecap:round;stroke-linejoin:miter;stroke-miterlimit:4;stroke-opacity:1;stroke-dasharray:none" />
  <use
     transform="translate(3.5653485,8.4599602)"
     id="use3968"
     x="0"
     y="0"
     width="369"
     height="480"
     xlink:href="#use3839" />
  <use
     transform="translate(-289.04391,1.0157578)"
     id="use3970"
     x="0"
     y="0"
     width="369"
     height="480"
     xlink:href="#path3825" />
  <use
     transform="matrix(0.63107473,0,0,0.61202992,15.662849,89.561551)"
     id="use3972"
     x="0"
     y="0"
     width="369"
     height="480"
     xlink:href="#use3970" />
  <use
     transform="translate(6.5251475,-7.237596)"
     id="use3974"
     x="0"
     y="0"
     width="369"
     height="480"
     xlink:href="#use3972" />
  <use
     transform="translate(12.457123,-14.327449)"
     id="use3976"
     x="0"
     y="0"
     width="369"
     height="480"
     xlink:href="#use3972" />
  <use
     transform="translate(17.944146,-20.531096)"
     id="use3978"
     x="0"
     y="0"
     width="369"
     height="480"
     xlink:href="#use3972" />
  <use
     transform="matrix(0.68555881,0,0,0.72707052,35.403713,41.749429)"
     id="use3980"
     x="0"
     y="0"
     width="369"
     height="480"
     xlink:href="#use3972" />
  <use
     transform="translate(3.4604877,-6.8932924)"
     id="use3982"
     x="0"
     y="0"
     width="369"
     height="480"
     xlink:href="#use3980" />
  <use
     transform="translate(-27.474113,0.41777547)"
     id="use3984"
     x="0"
     y="0"
     width="369"
     height="480"
     xlink:href="#use3982" />
  <path
     d="m 45.218285,206.57492 a 2.734208,3.2329111 0 0 1 -5.468416,0 2.734208,3.2329111 0 1 1 5.468416,0 z"
     id="path3986"
     style="fill:#faf700;fill-opacity:1;stroke:none" />
  <path
     d="m 43.530311,206.67926 a 1.2822205,1.675719 0 0 1 -2.564441,0 1.2822205,1.675719 0 1 1 2.564441,0 z"
     id="path3986-8"
     style="fill:#000000;fill-opacity:1;stroke:none" />
  <path
     d="m 44.907696,225.43307 c 1.036236,-0.34235 1.157148,-2.68479 -1.520485,-2.08885 -3.441304,0.76639 -4.011529,6.65717 -0.681639,8.25091 6.265204,3.00015 9.976257,-4.48165 8.965738,-11.01862 l -4.718836,-2.45437 c 2.401738,6.40671 0.978078,11.51904 -2.044778,10.96639 -2.540864,-0.46365 -1.519434,-3.15247 0,-3.65546 z"
     id="path4060"
     style="fill:#d61a1a;fill-opacity:1;stroke:#000000;stroke-width:0.98025465px;stroke-linecap:butt;stroke-linejoin:miter;stroke-opacity:1" />
  <path
     d="m 56.232766,196.03273 c -1.673352,-3.09651 -1.91501,-3.89768 -1.572933,-4.5432 1.062394,-2.00275 1.789933,-2.68941 3.093445,-4.02102 0.990293,1.83054 1.922124,3.37297 2.411788,5.2221 0.46797,1.76383 -1.389914,2.49575 -2.355434,3.68615 -0.555858,0.68438 1.394298,1.31744 2.555178,0.4725 1.296631,-0.94408 2.461955,-2.07155 2.619,-4.41977 0.08285,-1.22903 -3.48866,-7.0093 -4.601362,-10.60189 -2.222293,3.56432 -6.646986,8.30223 -6.72885,9.34858 -0.118862,1.51032 0.308652,2.48084 1.270833,4.14949 0.708213,1.22783 3.814703,1.64276 3.308335,0.70706 z"
     id="path4062"
     style="fill:#faf700;fill-opacity:1;stroke:none" />
  <path
     d="m 54.26102,202.26845 c -0.588154,-0.5908 -2.860222,-0.61234 -5.561446,0.70099 -1.576772,0.76802 -1.407008,-5.11104 0.07374,-5.16968 7.487678,-0.29316 10.063156,7.52555 17.944278,2.80708 -0.226126,3.28118 -5.186019,5.36 -10.677267,2.58486 -2.132462,1.2862 -2.897175,4.36542 -2.224822,8.30807 0.338243,1.98223 2.471679,0.48407 2.150299,1.8091 -1.51845,6.2635 -2.693972,0.59689 -8.008087,1.55156 -2.635812,-0.11679 -1.951247,-2.93876 -0.741416,-4.09903 0.495721,-0.47505 0.796386,-1.7898 4.189511,0.62726 -0.627401,-2.56926 -0.753686,-8.04898 2.854803,-9.12021 z"
     id="path4064"
     style="fill:#faf700;fill-opacity:1;stroke:none" />
  <path
     d="m 60.192889,214.39825 c -1.39933,-1.06905 -2.315621,-1.48917 -3.040318,-0.68228 -1.776723,1.97777 0.659813,5.81574 1.63154,4.2828 1.451917,-2.29054 3.162846,-3.16253 4.996125,-3.36403 2.628374,-0.28904 7.075098,3.56755 8.239692,1.07519 0.338262,-0.72407 -1.463606,-1.31001 -3.062428,-2.01979 -1.591192,-0.70686 -2.289103,-1.63691 -3.166467,-3.14993 -0.985299,1.98424 -2.633846,0.83843 -4.079532,2.0484 -0.293437,0.24509 -0.415194,1.96574 -0.660415,2.54528 -0.317644,-0.28314 -0.392764,-0.37963 -0.858197,-0.73564 z"
     id="path4066"
     style="fill:#faf700;fill-opacity:1;stroke:none" />
  <path
     d="m 135.38028,342.82807 a 4.200871,3.953684 0 1 1 -8.40174,0 4.200871,3.953684 0 1 1 8.40174,0 z"
     id="path4068"
     style="fill:#000000;fill-opacity:1;stroke:#ffffff;stroke-width:1.47037959;stroke-miterlimit:4;stroke-opacity:1;stroke-dasharray:none" />
  <use
     transform="matrix(0.8725722,0,0,0.87744993,55.375485,42.274764)"
     id="use4070"
     x="0"
     y="0"
     width="369"
     height="480"
     xlink:href="#path4068" />
  <use
     transform="translate(78.577474,0)"
     id="use4072"
     x="0"
     y="0"
     width="369"
     height="480"
     xlink:href="#path4068" />
  <use
     transform="translate(118.57244,-0.83555105)"
     id="use4074"
     x="0"
     y="0"
     width="369"
     height="480"
     xlink:href="#path4068" />
  <path
     d="m 305.40761,377.62114 a 1.9468091,1.860693 0 1 1 -3.89361,0 1.9468091,1.860693 0 1 1 3.89361,0 z"
     id="path4076"
     style="fill:#ffffff;fill-opacity:1;stroke:#000000;stroke-width:1.69219255;stroke-linecap:round;stroke-linejoin:round;stroke-miterlimit:4;stroke-opacity:1;stroke-dasharray:none;stroke-dashoffset:42.65618324" />
  <path
     d="m 24.174264,261.57836 c -0.123744,0.41455 -0.495918,2.28323 -0.614486,3.46283 l 23.917004,0.008 0.57673,-3.48581 z"
     id="path4187"
     style="fill:#ffffff;stroke:none" />
  <path
     d="m 311.91186,261.73176 23.5667,0.0758 c 0.24777,1.0083 0.31907,1.89709 0.4382,2.89501 l -23.67544,0.0155 c 0.0488,-1.02507 0.006,-1.71935 -0.32946,-2.98471 z"
     id="path4189"
     style="fill:#ffffff;stroke:none" />
  <path
     d="M 56.177805,301.165 83.06616,281.35468 c 29.34362,7.76473 64.92438,12.42392 98.46709,18.09858"
     id="path4215"
     style="fill:none;stroke:#000000;stroke-width:0.98025465px;stroke-linecap:butt;stroke-linejoin:miter;stroke-opacity:1" />
  <path
     d="m 236.66019,168.85069 69.73768,126.07712"
     id="path4233"
     style="fill:none;stroke:#000000;stroke-width:0.98025465px;stroke-linecap:butt;stroke-linejoin:miter;stroke-opacity:1" />
  <path
     d="m 114.46379,168.63988 c -2.7743,0.35513 -3.43856,2.91121 0.33916,2.86881 41.89762,-0.46775 86.97652,-1.70691 133.6124,-1.64898 1.89312,0.001 1.91622,-3.12897 -0.20671,-3.26401 -44.96541,-2.85542 -89.69973,-3.58175 -133.74485,2.04418 z"
     id="path4237"
     style="fill:#000000;stroke:none" />
  <path
     d="m 124.36089,166.72601 c -2.71856,1.4146 -3.2049,3.86212 -2.09898,5.79659 -1.70877,0.46712 -4.09945,-1.57577 -3.37425,-4.04449 0.57654,-1.9606 3.07097,-3.96679 5.47323,-1.7521 z"
     id="path4257"
     style="fill:#ffffff;stroke:#000000;stroke-width:0.94508308px;stroke-linecap:butt;stroke-linejoin:miter;stroke-opacity:1" />
  <use
     transform="translate(14.610521,-0.18343033)"
     id="use4259"
     x="0"
     y="0"
     width="369"
     height="480"
     xlink:href="#path4257" />
  <use
     transform="matrix(1,0,0,1.1177448,30.72497,-20.884568)"
     id="use4261"
     x="0"
     y="0"
     width="369"
     height="480"
     xlink:href="#path4257" />
  <use
     transform="matrix(1.161438,-0.16262938,0.1703301,1.11785,22.756519,-2.3113246)"
     id="use4263"
     x="0"
     y="0"
     width="369"
     height="480"
     xlink:href="#path4257" />
  <use
     transform="matrix(-0.91846084,0.39393053,-0.39709968,-0.91846084,393.83781,274.92554)"
     id="use4265"
     x="0"
     y="0"
     width="369"
     height="480"
     xlink:href="#path4257" />
  <use
     transform="matrix(-0.9659818,-0.20599324,-0.25964825,0.77253188,397.39092,62.229088)"
     id="use4267"
     x="0"
     y="0"
     width="369"
     height="480"
     xlink:href="#path4257" />
  <path
     d="M 181.90207,157.11103 46.110288,286.1236"
     id="path4269"
     style="fill:none;stroke:#000000;stroke-width:1.47038198;stroke-linecap:butt;stroke-linejoin:miter;stroke-miterlimit:4;stroke-opacity:1;stroke-dasharray:none" />
  <path
     d="M 209.89489,303.85482 184.11166,156.8665"
     id="path4271"
     style="fill:none;stroke:#000000;stroke-width:1.47038198;stroke-linecap:butt;stroke-linejoin:miter;stroke-miterlimit:4;stroke-opacity:1;stroke-dasharray:none" />
  <path
     d="m 276.18925,274.57423 c 0.40979,2.18602 -0.75987,2.95877 -0.99464,4.53353 -0.11595,0.75913 0.8495,0.6449 1.39183,0.65486 -0.47344,1.34804 0.97998,2.24494 0.34415,3.20178 -1.03764,1.56411 2.3896,1.40288 3.37844,0.91869 1.72135,-0.84292 0.94189,0.64755 1.25328,1.73911 0.31772,1.11811 4.80698,0.45628 4.86263,-2.10889 0.0735,-3.43827 -3.19831,-5.52935 -3.04884,-8.72192 z"
     id="path4287"
     style="fill:#ffffff;stroke:#000000;stroke-width:0.62873924;stroke-linecap:butt;stroke-linejoin:miter;stroke-miterlimit:4;stroke-opacity:1;stroke-dasharray:none" />
  <path
     d="m 270.47168,284.53384 c 1.36286,-0.56495 3.16064,1.81026 1.4177,2.68891 l -17.15859,8.65108 -1.49191,-4.19395 z"
     id="path4281"
     style="fill:#000000;stroke:none" />
  <path
     d="m 277.14014,270.77051 c -1.5107,1.46523 -3.21046,4.9451 -1.51871,4.06388 1.45218,-0.75727 4.99955,-0.70909 4.07284,1.87312 -1.0887,3.03314 3.49931,2.2882 2.02575,4.76888 -1.35626,2.28303 3.57499,2.24817 5.40236,3.05168 1.40876,-0.56029 1.80663,-1.76122 0.92564,-3.13796 -0.49328,-0.77143 -0.0993,-0.0478 1.43226,-0.64483 2.13012,-0.82654 -2.21699,-4.26613 -3.70876,-8.0117 z"
     id="path4285"
     style="fill:#ffffff;stroke:#000000;stroke-width:0.98025465px;stroke-linecap:butt;stroke-linejoin:miter;stroke-opacity:1" />
  <path
     d="m 276.09852,271.80799 c 3.12474,-0.22958 8.07671,0.56238 10.67866,2.68022 0.73609,-4.44273 1.12723,-12.77516 -1.34603,-13.27316 -3.22188,-0.64816 -7.21111,5.87245 -9.33263,10.59294 z"
     id="path4283"
     style="fill:#ffffff;stroke:#000000;stroke-width:0.98025465px;stroke-linecap:butt;stroke-linejoin:miter;stroke-opacity:1" />
  <path
     d="m 282.2188,295.4569 c 2.31832,3.61737 -2.25031,15.98877 -3.29869,20.36344"
     id="path4307"
     style="fill:none;stroke:#000000;stroke-width:0.98025465px;stroke-linecap:round;stroke-linejoin:miter;stroke-opacity:1" />
  <path
     d="m 263.75385,285.8298 c -1.1899,-0.37258 -4.27544,2.30658 -4.15161,3.74216 0.11133,1.25088 -0.3601,3.22105 1.47735,2.77254 1.09929,-0.60741 2.1613,-0.45258 2.61957,-1.39345 0.67662,-1.38823 2.27867,-1.06985 2.62347,-1.45936 1.33478,-0.95652 -0.20307,-2.92162 -2.56878,-3.6619 z"
     id="path4309"
     style="fill:#ffffff;stroke:#000000;stroke-width:0.98025465px;stroke-linecap:butt;stroke-linejoin:miter;stroke-opacity:1" />
  <path
     d="m 255.8154,290.35629 c -2.09035,1.73212 -0.72264,4.55913 1.45139,4.63294 -0.54547,0.88314 -3.37911,1.17009 -4.1039,-1.60023 -0.51479,-1.96744 0.97722,-3.23281 2.65251,-3.03271 z"
     id="path4311"
     style="fill:#ffffff;stroke:none" />
</svg>
