<?xml version="1.0" encoding="UTF-8" standalone="no"?>
<!-- Created with Inkscape (http://www.inkscape.org/) -->

<svg
   xmlns:svg="http://www.w3.org/2000/svg"
   xmlns="http://www.w3.org/2000/svg"
   xmlns:xlink="http://www.w3.org/1999/xlink"
   version="1.1"
   width="420"
   height="480"
   id="svg4228">
  <defs
     id="defs4232" />
  <path
     d="M 0,0 C 139.98032,0 279.96064,0 419.94096,0 419.92998,114.99797 399.25139,350.14732 209.85028,479.99815 22.387494,350.08886 0.08763414,115.02225 0,0 z"
     id="path4240-0"
     style="color:#000000;fill:#d61a1a;fill-opacity:1;fill-rule:nonzero;stroke:none;marker:none;visibility:visible;display:inline;overflow:visible;enable-background:accumulate" />
  <path
     d="m 107.9406,165.87922 c -10.947818,5.8204 -24.630295,9.54617 -37.862178,7.51574 -18.580636,-2.8512 -19.292725,-18.73001 -0.63143,-23.28143 12.87629,-3.14048 29.382679,0.47775 38.529828,6.05136 -5.30164,-13.23253 -9.548998,-25.3143 -7.44212,-42.42772 3.64894,-29.63908 21.69117,-31.475018 26.0076,0 2.00791,14.64146 -0.13255,27.23855 -6.83026,42.47498 12.44389,-5.97098 27.85386,-8.48383 40.48045,-6.08715 16.30816,3.09549 14.07867,19.87298 0,22.81369 -9.83612,2.05454 -25.61298,0.49743 -41.86312,-7.30038 -3.60525,17.6583 17.47485,34.49771 33.19392,33.76426 46.23925,-2.15752 51.09524,-46.54982 47.45247,-63.9924 C 189.36537,89.392952 151.85961,61.533429 113.5867,18.43536 73.85486,63.366523 36.093205,88.150499 27.927302,137.4874 c -3.461032,20.91093 4.766951,60.63775 46.943287,62.26842 17.756328,0.68651 36.144611,-16.38663 33.070011,-33.8766 z"
     id="path2996"
     style="fill:#faf700;fill-opacity:1;stroke:none" />
  <use
     transform="translate(192,0)"
     id="use3874"
     x="0"
     y="0"
     width="410"
     height="480"
     xlink:href="#path2996" />
  <use
     transform="translate(96.000001,190)"
     id="use3876"
     x="0"
     y="0"
     width="410"
     height="480"
     xlink:href="#path2996" />
</svg>
