<?xml version="1.0" encoding="UTF-8" standalone="no"?>
<!-- Created with Inkscape (http://www.inkscape.org/) -->

<svg
   xmlns:dc="http://purl.org/dc/elements/1.1/"
   xmlns:cc="http://creativecommons.org/ns#"
   xmlns:rdf="http://www.w3.org/1999/02/22-rdf-syntax-ns#"
   xmlns:svg="http://www.w3.org/2000/svg"
   xmlns="http://www.w3.org/2000/svg"
   version="1.1"
   width="390"
   height="480"
   id="svg4228">
  <metadata
     id="metadata3020">
    <rdf:RDF>
      <cc:Work
         rdf:about="">
        <dc:format>image/svg+xml</dc:format>
        <dc:type
           rdf:resource="http://purl.org/dc/dcmitype/StillImage" />
        <dc:title></dc:title>
      </cc:Work>
    </rdf:RDF>
  </metadata>
  <defs
     id="defs4232" />
  <path
     d="m 0,2.2e-6 c 130,0 260,0 390,0 C 389.98981,114.99797 370.78556,350.14732 194.88837,479.99815 20.79131,350.08886 0.081386,115.02225 0,2.2e-6 z"
     id="path4240-0"
     style="fill:#d61a1a;fill-opacity:1;stroke:none" />
  <path
     d="m 85.142349,30.800711 c 16.731021,-4.262746 25.576641,1.90722 42.811391,1.334519 l 0,134.51957 c 0,4.83609 6.56584,1.67394 12.33096,-2.08185 1.59338,5.19103 0.43781,11.58268 0.19749,14.94838 -0.2263,3.16938 1.33265,6.25059 0.0694,11.42173 -5.75784,5.18355 -10.74871,11.87457 -10.94306,19.4306 -0.19113,7.43094 1.06021,35.38176 0.0109,48.2843 -2.46249,30.27938 0,67.4142 0,67.4142 l -47.710837,-0.15098 0,-40.01067 c 0,-7.43521 -2.886514,-17.1947 -12.003201,-28.30943 -1.693898,-6.57972 -1.121628,-20.84508 0,-25.8937 8.657575,2.4275 11.705098,1.17956 11.697256,-7.18794 l -0.07151,-76.30602 c -0.01077,-11.49024 -6.520556,-19.65477 -14.796399,-33.14091 -0.118584,-6.32146 2.63938,-16.001049 5.133445,-19.70337 3.543625,0.352845 13.379789,6.31541 13.362053,-5.586396 z"
     id="path3788"
     style="fill:#faf700;fill-opacity:1;stroke:none" />
  <path
     d="m 173.86121,32.455515 c 12.61151,-2.677762 25.75738,-0.222996 30.05966,-0.25152 3.92141,-0.026 10.09943,-2.592794 17.66276,0.3049 1.78777,11.125202 -0.0644,20.129622 2.98932,33.843417 1.78276,8.005966 -0.094,18.634961 -0.21352,28.02491 -0.0466,3.661819 7.86478,-5.765124 10.94307,-8.594306 0.65904,4.113865 -0.20194,12.280162 0.39694,14.565074 0.77374,2.95204 2.12917,6.88413 1.47138,12.33884 -5.10453,9.2661 -13.47207,15.02721 -14.62091,28.9588 -0.86532,10.49346 -2.32109,64.59083 -0.59261,95.84547 0.56583,10.23143 -1.22774,21.9395 -1.22774,21.9395 0.0162,6.52084 11.98351,-3.16657 12.01067,0.0533 0.0606,7.18598 -2.67149,7.99214 -2.61566,12.49111 0.0564,4.54437 2.30724,9.08919 0.16015,11.26335 -15.07919,15.26936 -13.55753,32.72051 -13.66548,44.41282 l -46.06762,-0.0534 0.10676,-51.35231 c 0.0224,-10.79899 -2.00162,-22.21756 -14.19928,-29.67971 0.16074,-8.40491 2.91766,-22.06374 5.65835,-28.02492 2.64385,1.61567 8.43417,1.95712 8.43417,-3.57651 l 0,-108.09608 c 0,-11.152189 -3.77973,-19.161685 -8.91459,-22.20641 l 0.80071,-24.822064 c 5.06086,0.708779 11.49198,1.309135 11.47687,-5.017794 z"
     id="path3790"
     style="fill:#faf700;fill-opacity:1;stroke:none" />
  <path
     d="m 264.12811,32.508896 c 7.91285,-3.558758 13.61429,-0.07033 17.02847,-0.160143 3.81396,-0.100325 3.90396,-4.125292 13.82568,-4.384808 5.67751,0.305466 7.10181,2.62893 15.48037,4.598331 0,0 0.83329,35.258698 2.45552,48.843417 0.46781,3.9175 -1.66534,13.608963 -0.74733,21.032027 4.98608,-1.30261 7.64671,-7.036594 11.90391,-6.9395 1.07662,5.48368 1.18408,22.64277 0,27.70463 -7.0753,9.7916 -11.92536,17.90141 -11.90391,28.02491 l 0.16014,75.58719 c 0.008,3.74506 5.52679,-3.66117 9.98221,-5.60499 l 0,29.62634 c -6.70423,4.14429 -10.28709,9.4172 -10.30249,15.32028 l -0.16015,61.3879 c -9.1498,2.76361 -18.24243,0.96139 -30.49249,3.28367 -6.00423,1.13824 -13.38132,-0.11678 -17.06115,-3.24615 l 0.0755,-35.55665 c 0.01,-4.52273 -3.26026,-7.54103 -6.60554,-10.56886 -0.55215,-2.24466 -0.38822,-7.32118 0.18873,-8.90803 2.68408,-2.17349 5.68551,-3.36366 5.32219,-9.17226 0,0 -1.32714,-16.3884 -0.94366,-23.55345 0.52591,-9.82606 1.63058,-28.75998 0.98139,-31.66882 -1.20353,-5.39273 -5.42561,-9.84216 -11.17279,-13.815 -2.04045,-5.55593 -0.23392,-27.37698 2.11377,-31.85533 7.30355,4.32471 9.95912,2.01462 9.96493,-3.62583 l 0.0755,-73.302568 c 0.003,-3.343967 -1.59135,-5.112486 -4.98246,-7.171724 l -0.0755,-13.286561 c 2.74202,-1.356584 5.08832,-2.865712 5.05795,-7.398199 z"
     id="path3792"
     style="fill:#faf700;fill-opacity:1;stroke:none" />
</svg>
