<?xml version="1.0" encoding="UTF-8" standalone="no"?>
<!-- Created with Inkscape (http://www.inkscape.org/) -->

<svg
   xmlns:svg="http://www.w3.org/2000/svg"
   xmlns="http://www.w3.org/2000/svg"
   xmlns:xlink="http://www.w3.org/1999/xlink"
   version="1.1"
   width="390"
   height="480"
   id="svg4228">
  <defs
     id="defs4232">
    <linearGradient
       id="linearGradient3653">
      <stop
         id="stop3655"
         style="stop-color:#ffffff;stop-opacity:1"
         offset="0" />
      <stop
         id="stop3657"
         style="stop-color:#ffffff;stop-opacity:0"
         offset="1" />
    </linearGradient>
    <linearGradient
       x1="0"
       y1="109.87704"
       x2="390"
       y2="109.87704"
       id="linearGradient2839"
       xlink:href="#linearGradient3653"
       gradientUnits="userSpaceOnUse" />
  </defs>
  <path
     d="M 0,0 C 130,0 260,0 390,0 389.98981,114.99797 370.78556,350.14732 194.88837,479.99815 20.79131,350.08886 0.081386,115.02225 0,0 z"
     id="path4240-0"
     style="color:#000000;fill:#207dbf;fill-opacity:1;fill-rule:nonzero;stroke:none;marker:none;visibility:visible;display:inline;overflow:visible;enable-background:accumulate" />
  <path
     d="M 95.455253,105.40856 C 48.587013,124.14007 22.432698,74.261978 47.032447,43.688744 72.750143,11.726095 134.08773,40.24882 110.74708,89.066143 l 7.70428,7.470817 39.33852,-32.684825 -4.31906,-4.785992 12.14008,-8.171206 3.61867,3.968871 7.58755,-6.303502 -3.73541,-4.435797 10.50584,-7.237354 3.03502,3.385214 17.97665,-15.291829 18.56031,18.560311 -14.94163,18.093385 2.80156,3.151751 -7.12063,9.455253 -3.96887,-3.151751 -7.12062,8.287938 3.26848,3.268483 -7.58755,10.272373 -4.0856,-3.035019 -32.33463,38.988326 138.44358,128.75487 c 29.64661,-31.02301 23.61276,-70.00677 13.77432,-95.36965 l -18.61077,7.87938 c 7.1915,-25.15787 10.26597,-54.61222 13.59131,-81.536973 17.6744,17.340533 43.46488,49.509613 55.09728,71.789883 l -20.07782,-3.50194 c 12.88373,53.53274 7.58589,102.47211 -19.39991,133.65992 -25.78596,29.80113 -68.92744,58.14914 -151.46712,38.32578 l 2.4498,18.73034 c -29.56934,-13.9875 -56.6898,-33.80806 -71.893774,-54.22987 25.045684,-2.24145 50.724664,-6.67385 82.211484,-15.35274 l -8.50179,20.88303 c 29.78483,14.28775 74.57131,8.67778 97.57935,-13.54947 l -130.18038,-139.8775 -36.82879,30.46693 3.26848,3.76459 -10.214006,7.58755 -3.268482,-3.09339 -10.097276,8.17121 2.918287,3.26848 -8.696498,6.71206 -3.151751,-2.68482 -17.74319,15.05837 -17.859923,-17.80156 14.67701,-18.11936 -3.062224,-3.35924 6.595331,-9.63035 3.910506,4.2607 8.171206,-9.74708 -3.326848,-3.61868 7.70428,-11.0843 4.610895,4.4306 30.233463,-37.41245 -7.470817,-7.23735 z"
     id="path3638"
     style="fill:#ededed;fill-opacity:1;stroke:none" />
  <path
     d="M 85.310063,93.952709 78.706731,86.771586 92.903895,72.491881 99.91993,79.590462 C 114.27286,54.330413 77.79974,29.264242 56.876062,51.608844 39.661049,69.992927 55.964496,106.22477 85.310063,93.952709 z"
     id="path3640"
     style="fill:#207dbf;fill-opacity:1;stroke:none" />
</svg>
