<?xml version="1.0" encoding="UTF-8" standalone="no"?>
<!-- Created with Inkscape (http://www.inkscape.org/) -->

<svg
   xmlns:dc="http://purl.org/dc/elements/1.1/"
   xmlns:cc="http://creativecommons.org/ns#"
   xmlns:rdf="http://www.w3.org/1999/02/22-rdf-syntax-ns#"
   xmlns:svg="http://www.w3.org/2000/svg"
   xmlns="http://www.w3.org/2000/svg"
   version="1.1"
   width="390"
   height="480"
   id="svg4228">
  <metadata
     id="metadata15">
    <rdf:RDF>
      <cc:Work
         rdf:about="">
        <dc:format>image/svg+xml</dc:format>
        <dc:type
           rdf:resource="http://purl.org/dc/dcmitype/StillImage" />
        <dc:title></dc:title>
      </cc:Work>
    </rdf:RDF>
  </metadata>
  <defs
     id="defs4232" />
  <path
     d="M 0,0 C 130,0 260,0 390,0 389.98981,114.99797 370.78556,350.14732 194.88837,479.99815 20.79131,350.08886 0.081386,115.02225 0,0 z"
     id="path4240-0"
     style="fill:#d61a1a;fill-opacity:1;stroke:none" />
  <path
     d="m 194.934,25.394896 c -9.62612,-12.570109 -28.06045,-5.008202 -37.23736,1.400778 -27.12335,18.942422 -46.72542,3.418238 -56.49805,0.116732 C 68.221782,15.771791 55.584341,21.42567 47.997345,35.017662 70.922204,22.788948 88.633163,32.260175 93.377583,46.523301 68.712632,47.779212 52.135988,76.024307 22.171356,57.262601 47.609774,93.301662 79.460451,46.86238 112.63828,67.18478 81.286997,73.785101 76.691237,111.31441 32.560461,102.78789 78.416602,129.52164 84.171225,76.297903 122.56046,89.713962 116.68243,140.50421 60.165047,119.16139 57.8912,159.75287 c 9.900954,-20.8557 28.832773,-18.15998 46.0262,-23.70199 24.04679,-7.75108 27.53068,-27.99972 33.91152,-39.767846 9.07898,-16.744288 37.51552,-4.564402 46.13231,-31.549616 2.54438,3.625176 7.03442,8.626661 11.69064,8.639273 4.42502,0.01199 9.51333,-4.451259 11.7724,-8.522542 0.29276,29.269437 32.64544,13.372334 40.27238,28.48249 8.98553,17.801731 17.50528,35.932671 51.24513,41.322961 12.71479,2.03132 31.41826,11.73581 36.07004,27.31517 4.2792,-43.73107 -56.16667,-29.70417 -65.48638,-67.354084 -1.64689,-6.653121 1.77562,-13.032196 9.10506,-7.70428 14.53268,10.564094 26.56778,19.973064 36.91954,21.561394 16.1087,2.47167 28.80487,-7.02524 45.60964,-6.85322 -19.8385,-9.790814 -27.28088,-0.0914 -42.83684,-7.089952 -15.58243,-7.010414 -17.56937,-23.946309 -32.7285,-25.571113 -8.00045,-0.857514 -6.86608,-7.923999 2.49141,-8.3117 31.79185,-1.317205 46.01894,39.097406 78.67704,-4.319067 -38.44569,23.924995 -41.56867,-8.863477 -69.68871,-12.723735 4.84589,-5.179604 17.37948,-18.43506 45.99221,-12.840467 C 317.12287,2.8000222 289.9069,32.848652 263.33867,34.14976 236.09984,35.483709 213.47665,5.7736573 194.934,25.394896 z"
     id="path3809"
     style="fill:#faf700;fill-opacity:1;stroke:none" />
  <path
     d="m 206.30945,67.964854 -0.63619,24.87055 c -0.1286,5.027303 3.24163,3.346014 6.6537,3.497744 l 17.48598,0.462548 c 6.80788,0.180086 8.4636,5.867924 9.34208,8.552844 4.56091,13.93968 18.54102,25.177 34.57271,37.50459 20.39448,15.68236 20.8831,27.95919 64.87355,42.03121 0.89602,0.28664 0.43985,2.12994 -0.90467,2.06951 -1.85803,-0.0835 -4.62305,-0.31171 -6.56358,-0.43723 l 11.34785,7.66847 c 2.08867,1.41145 -3.94045,10.38627 -7.48741,9.00358 -15.61772,-6.08814 -24.97206,-22.69195 -43.87274,-28.38949 -6.95968,6.64353 -8.09868,18.97794 -8.17121,32.06265 -3.28883,-1.45997 -8.29739,-6.89891 -9.33852,-12.35869 -1.79911,7.56996 -6.82648,12.17349 -14.12451,14.69052 2.7529,-18.50312 -11.45826,-53.28988 -36.07004,-69.83828 -9.96001,8.59114 -10.17403,28.37446 -1.16732,42.2061 25.71109,39.48463 71.43091,68.00046 75.40856,152.73479 -17.75504,3.41609 -28.65299,-10.14985 -27.7821,-7.98652 l 7.40085,35.71287 c 1.62347,7.83406 -4.60202,23.22479 -18.35256,23.31227 l -51.83616,0.32977 c -8.59504,0.0547 -13.25347,12.29757 -8.23627,17.61147 6.53661,6.92317 16.91254,12.96724 15.33485,28.22661 -3.25637,-5.76755 -5.48854,-11.99506 -12.71141,-14.18013 5.4616,10.90743 6.58473,27.09752 -0.9905,38.91291 -1.59498,-10.60593 -4.68054,-21.07239 -14.19716,-28.19537 -3.15114,1.75972 -5.01268,6.55087 -5.72956,9.4036 -8.4261,-7.79789 -6.89972,-18.63717 -6.48661,-26.71654 -2.62377,2.2971 -4.88151,7.94014 -5.11758,12.2015 -12.45281,-12.2761 -13.94132,-46.0999 25.14244,-47.92988 20.61707,-0.96533 30.97338,5.29243 64.16762,4.40019 2.15254,-0.0578 21.95627,-7.37998 -7.42874,-49.46556 -3.37493,3.59439 1.97998,16.08749 4.62233,20.95171 -18.70785,0.20059 -23.15071,-12.7236 -22.7815,-21.61125 -4.18757,8.56835 -5.17288,17.26322 0.99051,23.16637 5.45154,5.22134 8.61716,13.97374 15.68291,13.43814 4.32697,-0.32799 4.63326,4.09875 1.15558,4.61679 -14.52477,2.16361 -11.90186,-9.54133 -27.07004,-6.01369 -5.52073,1.28395 -9.39367,0.69497 -10.15624,-5.3634 -0.88043,-6.99475 6.90156,-13.88804 -1.40321,-32.81214 -3.07778,8.41831 -8.53497,15.09383 -14.89877,21.1053 -7.29737,-6.37661 -13.01856,-13.39458 -14.40352,-22.17705 -10.56454,14.8759 0.80439,29.59631 0.80469,34.71214 2.8e-4,4.68091 -5.94,5.82603 -11.55642,3.96412 -9.75709,-3.2346 -13.50757,7.54762 -26.49806,6.41252 -3.58803,-0.31352 -5.11082,-4.26374 -0.58365,-4.19729 9.0126,0.13229 13.12158,-11.72951 17.6748,-18.01509 2.70046,-3.72791 3.31547,-10.69133 1.93609,-19.17758 -3.03256,9.7382 -6.9335,20.09024 -21.63195,21.63913 3.65103,-7.61489 4.21482,-17.65356 -0.0801,-23.73778 -3.80846,13.0419 -12.76185,18.69285 -24.82032,19.80397 4.23927,-8.71102 5.90521,-14.45411 4.04211,-22.83535 -5.46831,8.21832 -13.19026,14.1857 -25.680937,15.39007 -3.70925,-68.07553 40.569657,-115.25414 73.774317,-159.73025 9.3653,-12.54439 8.77006,-27.34253 -2.33463,-41.27337 -15.30893,10.46197 -36.15159,24.13686 -35.01945,73.45259 -5.45626,-2.34033 -11.30939,-11.51797 -13.12254,-17.38272 -0.76623,3.06667 -3.7697,8.83237 -9.9903,9.45451 0.39,-10.98959 -0.71805,-22.85351 -8.17121,-28.68149 -17.765784,3.88139 -25.230474,21.99769 -41.90661,28.21512 -3.906428,1.45645 -11.665658,-7.05458 -7.237354,-10.02686 l 10.344714,-6.94339 -7.139853,1.03053 c -1.15051,0.16606 -1.548183,-1.87248 -0.330167,-2.1435 28.863211,-6.4225 41.001553,-24.53327 63.07861,-40.44568 19.65845,-14.16916 27.17195,-25.32005 33.49365,-38.40686 2.04475,-4.23292 6.56603,-9.111839 10.58352,-9.17416 l 19.48732,-0.302288 c 3.64638,-0.05656 3.69839,-1.733985 3.67286,-3.41692 L 184.97052,67.60922 c 7.6512,8.904503 13.70384,9.19347 21.33893,0.355634 z"
     id="path3855"
     style="fill:#faf700;fill-opacity:1;stroke:none" />
  <path
     d="m 192.43151,39.767946 c -2.83074,4.609267 -8.35179,5.536509 -13.53305,3.873885 3.92858,3.210582 12.71985,1.143184 13.53305,-3.873885 z"
     id="path2884"
     style="fill:#d61a1a;fill-opacity:1;stroke:none" />
  <path
     d="m 178.67172,42.609519 c 3.13564,-4.407519 8.70671,-4.95969 13.76382,-2.950864 -3.70272,-3.468628 -12.61357,-1.999813 -13.76382,2.950864 z"
     id="path2884-7"
     style="fill:#d61a1a;fill-opacity:1;stroke:none" />
  <path
     d="m 198.67575,39.767946 c 2.83074,4.609267 8.35179,5.536509 13.53305,3.873885 -3.92858,3.210582 -12.71985,1.143184 -13.53305,-3.873885 z"
     id="path2884-2"
     style="fill:#d61a1a;fill-opacity:1;stroke:none" />
  <path
     d="m 212.43554,42.609519 c -3.13564,-4.407519 -8.70671,-4.95969 -13.76382,-2.950864 3.70272,-3.468628 12.61357,-1.999813 13.76382,2.950864 z"
     id="path2884-7-4"
     style="fill:#d61a1a;fill-opacity:1;stroke:none" />
  <path
     d="m 191.41408,59.273776 c 0.20636,-0.123813 1.85062,-1.134469 2.82705,-0.949229 0.99525,0.18881 1.52189,0.180849 2.49689,0 0.97801,-0.181407 2.80642,1.052406 2.80642,1.052406 0,0 -2.71794,0.721166 -4.10645,0.701604 -1.36773,-0.01927 -4.02391,-0.804781 -4.02391,-0.804781 z"
     id="path3763"
     style="fill:#d61a1a;fill-opacity:1;stroke:none" />
  <path
     d="m 192.79665,39.979666 c 0.7453,5.015724 -0.46441,7.587669 -0.72224,11.349477 2.59096,2.402367 4.7337,2.426668 7.09859,0 -0.23314,-3.811758 -1.65036,-7.72219 -0.66033,-11.432018 -1.12353,3.007727 0.0258,7.097764 0.0413,10.647872 -1.15198,2.555923 -4.89873,2.346608 -5.69537,0.123813 0.0109,-3.569053 0.96245,-7.317282 -0.0619,-10.689144 l -5e-5,0 z"
     id="path3804"
     style="fill:#d61a1a;fill-opacity:1;stroke:none" />
</svg>
