<?xml version="1.0" encoding="UTF-8" standalone="no"?>
<!-- Created with Inkscape (http://www.inkscape.org/) -->

<svg
   xmlns:svg="http://www.w3.org/2000/svg"
   xmlns="http://www.w3.org/2000/svg"
   version="1.1"
   width="405"
   height="480"
   id="svg4228">
  <defs
     id="defs4232" />
  <path
     d="M 0.77221785,0.77594007 156.10245,0.77150984 404.23044,0.76443288 C 404.21502,269.929 404.21064,273.8996 404.21064,273.91174 405.24538,547.66073 0.77907063,547.66637 0.77564033,273.91098 L 0.77221785,0.77594007 z"
     id="path2902-1"
     style="fill:#2e78d9;fill-opacity:1;stroke:#999999;stroke-width:1.53367937;stroke-miterlimit:4;stroke-opacity:1;stroke-dasharray:none" />
  <path
     d="m 162.22126,233.51268 -45.67343,15.21282 10.00148,-25.64613 -69.040513,29.84277 14.729453,12.6482 -32.792732,9.151 3.515671,-27.1033 -25.761387,35.84629 39.217925,19.70089 -15.153758,-20.98319 49.52248,-11.3659 -16.366059,-14.45508 34.2475,-14.97967 -7.94058,21.68264 36.91456,-10.31674 -33.33827,57.5872 21.33649,-3.26404 -26.246307,36.72058 -6.182734,-29.43475 -34.489952,61.78385 -14.790067,-19.99232 4.061207,44.76414 39.581615,-15.73739 -19.336194,-5.12922 22.003255,-39.98465 5.940273,22.20721 53.644304,-67.78738 -27.76168,4.42979 38.733,-60.15182 c 0,0 -4.52663,13.07171 -2.97013,25.64613 1.55648,12.5744 7.70852,24.1301 7.03133,39.16862 -0.81503,18.09961 -8.52795,24.12574 -8.4861,41.61667 0.05,20.9 9.89342,26.88669 9.45595,53.85687 -0.30471,18.78568 -8.79112,21.71914 -9.33472,43.71499 -0.28923,11.70303 3.32566,25.06862 9.03164,32.54499 25.3452,4.43194 52.22205,4.50192 79.63933,-0.90406 -6.04973,-9.32179 -8.843,-18.05711 -8.53789,-29.07632 0.46347,-16.73859 9.77678,-32.76513 10.18332,-46.39618 0.69492,-23.30114 -10.83315,-34.5678 -10.12271,-54.32316 0.63267,-17.593 8.36477,-30.33673 8.42549,-41.9664 0.11864,-22.72758 -7.9012,-28.06496 -8.24365,-45.92986 -0.0952,-4.96742 0.55543,-13.52048 5.21289,-19.93404 l 40.36962,61.5507 -27.64046,-3.84692 53.82614,67.49595 5.33413,-21.91578 22.91248,40.45094 -19.88173,5.01265 40.00592,14.80481 2.90953,-43.94814 -14.42638,19.70089 -33.82319,-60.96784 -6.66765,28.56046 -25.822,-36.13773 21.21525,2.68119 -34.55056,-58.17007 37.33886,11.07445 -7.6375,-22.14892 34.79303,15.38768 -15.88114,14.68824 48.85572,10.60816 -14.30515,20.40033 38.18747,-18.41859 -25.45832,-36.25429 3.27322,26.92843 -32.97458,-8.50985 14.91129,-12.7065 -69.58605,-29.95933 10.91071,25.87928 -45.70373,-15.15453 c 1.84435,-7.46341 2.7659,-20.42032 1.33352,-30.42563 l 48.3708,-11.65733 -10.30456,22.73179 68.25252,-25.7627 -13.69899,-15.62082 32.97458,-2.33147 -5.57658,24.83012 28.36783,-34.27256 -35.64163,-23.5478 11.03192,23.66438 -49.21939,5.36237 16.9722,16.66999 -33.70195,12.47334 6.9101,-17.60258 -39.64222,8.50985 46.7948,-60.50154 -25.70077,1.39888 36.36902,-42.082961 4.4855,28.677031 46.06743,-65.863916 12.72916,24.830114 0.60615,-49.543654 -46.06743,15.271102 25.57955,3.147479 -34.06565,50.126521 -2.4246,-26.928433 -63.28209,71.459437 25.57954,-0.34972 -52.0077,64.93133 c -1.20052,-9.92546 -4.7102,-19.01245 -4.8492,-29.2599 -0.24814,-18.29334 7.86044,-28.13826 6.91012,-43.01555 -1.84919,-28.94879 -7.31188,-27.18876 -8.24365,-46.745895 -0.97668,-20.49976 7.20842,-28.556794 8.36488,-45.230441 0.93785,-13.521978 -3.95764,-24.577346 -8.71235,-35.6792436 l -81.11507,2.5e-6 c 5.13207,10.4915971 8.3159,22.9581961 8.84573,37.0781231 0.66748,17.788087 -9.11345,27.811045 -8.36487,44.297855 0.77322,17.029591 7.46475,30.296219 7.75873,47.911619 0.28203,16.89963 -6.09526,31.86137 -6.06151,41.73325 0.0207,6.04308 1.144,15.41452 3.75814,26.46214 L 111.75925,136.75684 137.09634,136.0574 74.17793,65.99684 71.874559,92.10926 37.566452,41.866166 63.873375,39.5347 16.957341,23.68073 l 0.12123,49.193935 13.214077,-24.363821 46.431114,66.563366 4.243052,-29.143334 36.975176,42.316114 -26.670621,-1.39889 47.400961,60.15183 -40.975769,-8.2767 8.122419,17.36941 -34.065651,-13.17278 16.972208,-15.97054 -50.189244,-5.2458 12.123005,-23.19809 -35.520407,22.38207 28.367834,34.73886 -5.455353,-24.71355 32.853347,1.98175 -14.183918,16.20369 68.858669,24.36382 -10.42578,-21.68263 47.64342,11.89047 c 2.47416,7.24187 2.72264,19.81335 -0.57585,29.84277 z"
     id="path2849"
     style="fill:#f9f9f9;stroke:none" />
</svg>
