<?xml version="1.0" encoding="UTF-8" standalone="no"?>
<!-- Created with Inkscape (http://www.inkscape.org/) -->

<svg
   xmlns:svg="http://www.w3.org/2000/svg"
   xmlns="http://www.w3.org/2000/svg"
   xmlns:xlink="http://www.w3.org/1999/xlink"
   version="1.1"
   width="390"
   height="480"
   id="svg4228">
  <defs
     id="defs4232">
    <linearGradient
       id="linearGradient3653">
      <stop
         id="stop3655"
         style="stop-color:#ffffff;stop-opacity:1"
         offset="0" />
      <stop
         id="stop3657"
         style="stop-color:#ffffff;stop-opacity:0"
         offset="1" />
    </linearGradient>
    <linearGradient
       x1="0"
       y1="109.87704"
       x2="390"
       y2="109.87704"
       id="linearGradient2953"
       xlink:href="#linearGradient3653"
       gradientUnits="userSpaceOnUse" />
  </defs>
  <path
     d="M 0,0 C 130,0 260,0 390,0 389.98981,114.99797 370.78556,350.14732 194.88837,479.99815 20.79131,350.08886 0.081386,115.02225 0,0 z"
     id="path4240-0"
     style="color:#000000;fill:#008c31;fill-opacity:1;fill-rule:nonzero;stroke:none;marker:none;visibility:visible;display:inline;overflow:visible;enable-background:accumulate" />
  <path
     d="m 209.17373,402.52966 c 4.35037,1.46237 9.19383,-13.69968 5.65678,-15 -11.82154,-4.34594 -17.39766,-4.07067 -14.80932,-16.84322 11.49305,2.49375 15.73909,3.58718 17.54237,2.79661 1.81603,-0.79616 7.83231,-8.25837 11.75847,-12.45763 0,0 12.33721,1.00386 14.39619,-0.28601 2.63709,-1.65202 6.45127,-13.06144 6.45127,-13.06144 3.4322,-0.42373 9.42415,0.90779 10.13771,-0.73094 0.9115,-2.09331 7.69382,-14.09269 6.64195,-14.90466 l -14.49152,-11.18644 c 7.40933,-0.0989 16.04131,3.16025 19.19491,3.94068 3.19372,0.79036 11.36886,-7.44691 11.4089,-8.83475 0.0457,-1.58301 -7.21482,-12.44619 -8.48517,-13.28389 -0.63942,-0.42165 -42.22458,0.78389 -60,6.99152 14.69921,-13.42959 33.35355,-15.75133 48.05085,-17.28814 5.78532,-0.60493 8.32916,-10.57709 8.13559,-11.69491 -0.14836,-0.85676 -5.91468,-8.81296 -8.8983,-8.89831 -4.03477,-0.11541 -41.86441,14.49153 -55.16949,30.12712 2.21683,-16.001 16.02279,-27.96068 36.10169,-35.33898 2.16416,-0.79525 2.11264,-8.66806 2.16102,-13.34746 0.014,-1.35487 -8.99174,-3.10845 -13.85593,-3.94068 -4.94723,-0.84642 -25.23349,25.93855 -35.33899,43.09323 0.86267,-25.93778 4.39636,-45.43626 8.78661,-68.04307 0.15216,-0.78352 -9.45235,-11.80703 -11.71034,-12.04168 -1.58083,-0.16428 -13.23543,11.44321 -12.97392,12.44639 2.37727,9.1195 6.34905,47.71176 7.76206,67.12988 -8.16141,-16.16822 -16.73902,-35.84873 -37.5,-43.60169 l -13.6017,5.84745 3.05085,13.22034 c 19.13593,5.12918 31.52862,17.54305 38.8983,33.11441 -19.67529,-16.43723 -42.91017,-25.74554 -59.23728,-26.63136 l -12.9661,10.93221 11.18644,11.05932 c 15.49692,-3.97041 32.11475,-0.8075 47.92373,11.82203 -21.61021,-3.8954 -47.10179,-2.48667 -57.83899,-0.38135 -1.27644,0.25028 -5.55708,9.56774 -6.61017,11.94915 -1.066277,2.41123 6.66397,6.8344 10.29661,8.64407 2.28072,1.13619 5.0729,-2.91633 20.08475,-5.08475 -4.96271,2.80447 -8.98035,6.24778 -11.18644,9.02542 -0.62656,0.78888 -1.04951,12.74651 0.25424,13.47458 3.97215,2.21823 10.97588,0.26971 12.9661,2.28814 1.1151,1.13091 5.68682,15.72461 10.10593,15.44492 l 15.06356,-0.9534 c 0,0 6.22736,11.20783 8.96186,12.39407 4.40795,1.91218 13.47914,-3.14715 18.94068,-3.49576 -5.02763,26.025 4.78366,25.5482 22.75424,31.58898 z"
     id="path3635"
     style="fill:#faf700;fill-opacity:1;stroke:none" />
  <use
     transform="translate(0,-200)"
     id="use3661"
     x="0"
     y="0"
     width="390"
     height="480"
     xlink:href="#path3635" />
</svg>
