<?xml version="1.0" encoding="UTF-8" standalone="no"?>
<!-- Created with Inkscape (http://www.inkscape.org/) -->

<svg
   xmlns:svg="http://www.w3.org/2000/svg"
   xmlns="http://www.w3.org/2000/svg"
   xmlns:xlink="http://www.w3.org/1999/xlink"
   version="1.1"
   width="390"
   height="480"
   id="svg4228">
  <defs
     id="defs4232">
    <linearGradient
       id="linearGradient3653">
      <stop
         id="stop3655"
         style="stop-color:#ffffff;stop-opacity:1"
         offset="0" />
      <stop
         id="stop3657"
         style="stop-color:#ffffff;stop-opacity:0"
         offset="1" />
    </linearGradient>
    <linearGradient
       x1="0"
       y1="109.87704"
       x2="390"
       y2="109.87704"
       id="linearGradient2862"
       xlink:href="#linearGradient3653"
       gradientUnits="userSpaceOnUse" />
  </defs>
  <path
     d="M 0,0 C 130,0 260,0 390,0 389.98981,114.99797 370.78556,350.14732 194.88837,479.99815 20.79131,350.08886 0.081386,115.02225 0,0 z"
     id="path4240-0"
     style="color:#000000;fill:#207dbf;fill-opacity:1;fill-rule:nonzero;stroke:none;marker:none;visibility:visible;display:inline;overflow:visible;enable-background:accumulate" />
  <path
     d="m 198.64907,440.80951 c -41.90062,-19.86077 -1.41791,-76.54888 -15.73013,-91.32464 -5.4251,17.16385 -38.35505,13.02399 -47.79182,49.98547 -10.03101,-23.85459 11.45354,-43.47172 33.63788,-60.72407 9.62096,-7.48205 -5.24685,-7.75975 -13.52304,-1.34433 -9.40615,7.29134 -32.05194,-6.36778 -55.512938,8.03804 4.387308,-13.35846 26.003058,-25.7282 44.660228,-26.5452 32.60591,-1.42781 34.7024,-15.98615 34.03536,-35.38657 -0.81709,-23.76461 3.97866,-39.49636 -2.15727,-50.56113 -8.5206,-15.36499 -29.68369,-6.06446 -34.06697,-2.47188 1.55803,4.55425 4.3921,8.85971 4.6741,13.66274 1.4843,25.28051 -29.74596,62.09818 -67.954162,26.96594 -2.787409,-1.42707 -5.354129,-2.93925 -5.752733,-3.95501 -0.872942,-2.22451 -0.270138,-4.53546 -0.179773,-6.83137 -14.630453,-23.33072 6.107683,-50.29194 21.187651,-49.48646 13.934947,0.74432 20.721927,-2.61205 29.688087,1.95568 5.27593,2.68777 9.39723,6.66758 12.56229,11.09327 l 16.0216,-4.91027 c 3.03341,-2.09929 6.21284,-2.31387 7.37069,-0.35954 1.83454,3.09652 7.15258,3.62166 4.85387,-0.17978 -2.4189,-4.00021 -2.54047,-7.32159 -6.69259,-9.20554 -2.18462,-0.99124 -5.94464,0.0242 -10.74539,-1.94038 -24.01908,-9.82916 -24.98654,-42.68797 -11.86501,-69.39234 32.64966,19.8211 43.61687,30.58377 31.37302,68.10309 -1.58362,4.85275 10.10747,12.87342 13.21066,12.07563 6.07115,-1.5608 5.11918,-31.3475 4.6741,-49.61732 -1.40852,-57.81795 -63.82579,-44.72311 -72.58838,-34.42013 0.61252,8.56863 6.03199,15.91881 1.93763,25.61125 -18.242457,43.1847 -59.860332,29.23216 -69.100879,8.02097 -3.12057,-0.47572 -7.451,-4.19334 -8.11985,-6.22324 -0.512872,-1.55652 0.797544,-6.14528 1.365595,-8.35988 -1.700281,-21.22301 11.19011,-42.5099 37.559761,-43.49821 12.212998,-0.45773 27.874753,8.64667 30.385363,17.3417 11.54626,-6.16462 23.1986,-11.37451 35.41526,-11.50546 C 118.79722,101.39913 94.848265,84.862331 80.358491,88.814146 57.896385,94.940266 32.539863,74.560958 32.538897,36.859775 c 19.817707,5.644565 59.584685,-4.405679 60.223925,43.505044 0.04812,3.606697 30.321698,16.179561 45.482548,24.269341 -0.39151,-6.229669 -1.2587,-12.127838 -3.7662,-14.332918 -5.09346,-4.479149 -13.81675,5.475567 -27.48646,-26.41894 -4.73933,-11.057919 7.86095,-24.375512 7.88218,-43.381862 25.89526,14.51371 40.33772,35.307443 28.08445,66.033054 0.64664,5.447289 -0.0312,9.368967 3.30134,16.482716 3.61373,7.71394 33.19785,14.27227 43.57951,32.71867 0.72548,-10.185 2.57993,-19.31572 1.49084,-30.10558 -4.68725,-0.0958 -13.95287,-2.2756 -18.20972,-5.669233 -13.72572,-10.942379 -24.75484,-55.569604 13.79361,-63.174756 0,0 3.0946,-4.799483 6.52073,-5.138951 4.20408,-0.416549 13.84252,4.674096 13.84252,4.674096 23.79165,-2.181244 28.92502,15.50484 27.24339,33.929126 -1.09331,11.97842 -3.43175,25.031579 -16.45702,32.586848 -4.64815,2.69615 -9.3671,2.29548 -18.15706,2.6966 0.70399,12.92972 -0.081,29.91887 3.23591,29.12321 30.97891,-15.25186 52.29447,-40.911666 49.77528,-45.824026 -12.9722,-25.29557 -2.38503,-56.685744 30.94276,-67.612682 11.15912,50.265922 -7.01266,56.580847 -26.60639,71.369845 -1.6662,1.257618 -2.17426,11.519833 1.79772,10.067283 20.36342,-7.446867 32.83135,-14.429293 41.70732,-21.200428 9.92979,-39.26284 18.12238,-36.96783 56.62847,-48.911007 -10.48859,26.283819 -0.47692,56.532247 -55.00148,57.24225 -17.66384,9.813759 -45.24415,18.404615 -45.13203,22.217375 13.55326,-1.30704 18.35299,12.95645 27.68502,12.58411 9.69022,-0.38663 6.31827,-12.56053 19.23571,-14.56161 35.90699,-5.56246 48.9036,16.71034 46.44309,35.48973 0.28428,3.19052 3.13954,5.57802 2.99446,8.55463 -0.16611,3.4081 -2.18783,7.1828 -5.39319,10.96615 -11.22069,36.69095 -63.11705,20.69259 -66.87552,-9.34819 -0.83567,-6.67935 -0.1288,-13.68492 0.53931,-20.67389 -33.54637,-38.371495 -67.57057,12.53946 -69.93166,25.34798 -2.32158,12.59416 -0.16264,33.70791 -0.35954,52.31392 -0.13422,12.68325 11.2806,-5.16867 17.07842,-8.6291 -14.91371,-37.66455 7.23503,-55.82616 31.81981,-70.47098 -5.79802,27.27143 23.22637,54.77475 -17.97729,71.54962 -9.84642,4.00868 -13.58428,7.01732 -15.2807,12.22456 11.80509,-2.39384 12.64667,-0.83018 27.8648,1.2584 9.71058,1.33271 17.18215,-12.61974 29.66253,-12.13467 41.39339,1.60881 31.45646,27.25662 34.87595,46.29153 0.65768,2.93872 1.07468,8.21535 -0.89887,11.50547 -1.33502,2.22562 -5.77221,3.03923 -8.80887,4.49432 -20.43618,25.12992 -52.77075,15.23266 -62.56097,-11.14592 -3.17734,-8.56097 2.63667,-19.41547 3.955,-29.12321 -6.44043,-3.73811 -13.13786,-3.69503 -18.69638,-3.23591 -15.72399,1.29876 -17.59857,8.02528 -18.87616,18.51661 -2.54332,20.88528 3.45118,39.25591 3.49577,58.00126 0.0468,19.6859 49.87065,17.06083 63.43221,42.9661 -17.39047,-10.94333 -46.52919,-4.87168 -59.36442,-14.87288 -4.63631,-3.61261 -6.61336,1.29279 -2.92372,4.70339 27.73926,25.64142 34.318,47.06045 31.01695,63.68644 -7.262,-31.93938 -31.03145,-32.52583 -42.20339,-53.13559 10.99582,34.773 -30.68648,59.31952 -8.55432,95.68239 z"
     id="path2827"
     style="fill:#faf700;fill-opacity:1;stroke:none" />
</svg>
