<?xml version="1.0" encoding="UTF-8" standalone="no"?>
<!-- Created with Inkscape (http://www.inkscape.org/) -->

<svg
   xmlns:dc="http://purl.org/dc/elements/1.1/"
   xmlns:cc="http://creativecommons.org/ns#"
   xmlns:rdf="http://www.w3.org/1999/02/22-rdf-syntax-ns#"
   xmlns:svg="http://www.w3.org/2000/svg"
   xmlns="http://www.w3.org/2000/svg"
   version="1.1"
   width="390"
   height="480"
   id="svg4228">
  <metadata
     id="metadata11">
    <rdf:RDF>
      <cc:Work
         rdf:about="">
        <dc:format>image/svg+xml</dc:format>
        <dc:type
           rdf:resource="http://purl.org/dc/dcmitype/StillImage" />
        <dc:title></dc:title>
      </cc:Work>
    </rdf:RDF>
  </metadata>
  <defs
     id="defs4232" />
  <path
     d="M 0,0 C 130,0 260,0 390,0 389.98981,114.99797 370.78556,350.14732 194.88837,479.99815 20.79131,350.08886 0.081386,115.02225 0,0 z"
     id="path4240-0"
     style="fill:#008c31;fill-opacity:1;stroke:none" />
  <path
     d="m 129.14844,369.5543 c 1.5938,-3.86516 2.32235,-5.03725 4.0861,-5.89666 2.38159,-1.16046 -1.65452,2.68466 -0.87172,7.63488 0.249,1.57463 10.82873,1.57407 13.28078,-1.51729 2.7362,-3.4496 -0.76592,-8.76586 10.89988,-17.86104 7.22318,-5.63151 -6.23517,-17.97415 -2.56629,-32.63662 3.46585,-13.85106 1.80443,-29.29276 -2.50951,-38.89734 -4.43221,-9.86789 -2.35562,-37.25651 -2.35562,-37.25651 0.0944,-0.48197 -3.31619,-0.33176 -8.13868,-0.61421 4.91263,-0.82663 11.15705,-0.43271 12.84611,1.35018 2.89462,3.05541 3.14908,15.46041 4.15009,18.15552 1.65051,4.4438 1.7228,12.16244 1.8251,20.53232 0.16606,13.58747 7.4204,27.14207 7.41445,53.26996 -0.005,21.69363 -8.18884,20.95824 -10.76277,34.97415 -0.23854,1.29893 4.76604,2.13006 5.31231,1.3128 1.50432,-2.25058 2.11762,-5.89183 3.26359,-6.30554 0.83169,-0.30026 0.36923,4.41148 0.88007,6.94203 0.10123,0.50144 8.78837,-0.10946 8.82048,-2.30939 0.19015,-13.0276 8.82713,-18.36403 7.54335,-22.97955 -7.07779,-25.44648 0.0436,-57.02996 -4.22053,-68.327 4.52471,-33.0038 2.32612,-40.23866 2.62357,-40.15209 2.78693,-7.66917 22.88668,-0.14758 51.30173,-1.80245 -3.12259,1.12968 -10.2938,1.02188 -10.2938,1.02188 3.17628,5.14705 5.87197,15.57344 7.85251,21.00884 3.89579,10.6916 -0.88576,15.32946 -0.18822,21.51992 1.39566,12.38603 4.70328,20.97638 3.15399,26.61697 -9.72049,35.39003 -17.35699,42.24007 -22.96689,46.84397 -2.10029,1.72365 -8.44399,7.47055 -9.56858,13.65539 -0.16907,0.92981 -0.44069,3.57499 0.10365,4.2781 0.37748,0.48757 2.25167,0.63071 2.50101,-0.20509 1.04347,-3.49774 3.58648,-7.14423 4.41004,-6.97941 0.85187,0.17048 -0.90587,3.47441 -1.0202,7.22594 -0.0531,1.74139 11.0271,0.41402 14.1242,-1.71418 2.83239,-1.9463 1.12181,-8.83799 8.61338,-13.40899 10.79383,-6.58588 0.67133,-11.68129 7.07224,-27.49049 0,0 14.32351,-31.37513 15.96958,-40.26616 2.35777,-12.73517 -5.84334,-19.30017 -0.68776,-40.73152 0.0987,-0.41043 3.88765,-5.55379 2.89896,-11.60395 -1.63844,-0.036 -4.90535,0.0138 -6.64939,-0.46775 2.17903,0.16761 13.09034,-0.87675 13.0096,-0.93954 7.49503,13.17678 20.41321,32.097 20.40869,54.16185 -0.007,32.85496 -7.42387,34.42215 -9.58847,46.9193 -1.32831,7.66886 -8.95956,13.94646 -11.9873,19.34007 -3.96102,1.1587 -8.31035,6.52418 -9.08152,9.33638 -0.39687,1.44723 -0.49755,6.02844 0.52167,4.91586 0.96973,-2.04323 3.54217,-5.75959 5.5843,-5.92377 0.9127,-0.0139 -1.89706,3.64943 -2.44998,6.8015 -0.18638,1.06249 12.24756,0.33591 15.58775,-2.30272 5.74144,-19.54373 16.50784,-12.72009 18.93536,-24.06844 3.35929,-15.70427 -0.26233,-30.19733 10.60837,-46.9962 8.44565,-13.05135 9.44831,-24.10453 5.24715,-31.02662 -4.80176,-7.91168 -10.84411,-23.14815 -6.61597,-28.17489 10.04477,-11.94202 18.53952,-42.28075 24.63878,-44.1445 14.38115,-4.39445 21.6859,-9.41929 23.26996,-18.93536 0.72641,-4.36383 -7.40629,2.55883 -12.54267,-1.5154 -4.27576,-3.39158 -15.3779,-7.35055 -23.61703,-14.45418 -16.66676,-14.36979 -28.66381,-15.75182 -54.1825,-8.89734 -4.07003,1.09324 -10.42881,1.73814 -32.61259,1.53735 -14.87839,-0.13466 -22.48659,-0.57854 -37.42543,-5.18754 -14.0104,-4.32256 -19.99272,-9.564 -38.89735,-8.32699 -8.59393,0.56233 -20.87815,-26.2967 -33.07984,-40.266167 5.88535,-2.271446 13.76905,2.956287 20.41824,0.114072 10.76686,-4.602323 10.05145,-5.79156 1.02663,-9.353613 -5.55763,-2.193097 -8.0093,-3.574998 -22.4715,-0.113598 4.25228,-5.244847 26.43479,-10.508902 60.67519,10.963442 7.1648,4.493084 35.82415,19.494404 61.30052,16.938304 17.99198,-1.80518 53.34107,-26.647134 53.29791,-43.641776 -0.14287,-4.494068 -1.33635,-4.477521 -3.12828,0.166803 -2.62389,6.800596 -9.43928,16.821842 -18.06753,19.116081 -2.24123,0.59594 -3.74704,-2.742685 -4.54115,-6.891175 -0.97046,-5.069753 -3.86852,-9.035717 -8.60619,-10.611735 -2.24372,-0.746389 -3.09781,0.369748 -0.40329,2.82305 2.45464,2.234892 2.97751,5.691817 2.47105,11.299442 -0.26715,2.957915 1.98826,7.762078 0.9166,9.994421 -2.21169,4.607129 -14.8172,13.141959 -22.90703,9.840339 -12.30206,-5.02071 4.43872,-20.337315 -0.72592,-28.956421 -3.9249,-6.550145 -5.88476,-6.411482 -4.6782,-0.806585 2.60607,12.106122 -3.48808,13.201371 -5.72676,21.213206 -0.98239,3.5158 -2.06729,9.58462 -9.35639,7.09795 -9.14166,-3.11867 -26.2762,-6.84753 -27.58523,-12.098783 -1.92108,-7.706535 20.67143,-8.326262 24.84283,-20.487277 0.96126,-2.802407 -0.23813,-2.785965 -3.06503,0.483952 -2.92709,3.385812 -9.72612,5.327611 -13.87326,5.484782 -11.66175,0.441964 -18.44692,11.382107 -23.22967,9.275735 -23.48623,-10.343572 -27.11297,-12.255771 -40.00665,-13.308664 12.70316,-2.736846 13.63825,-8.223579 24.84284,-9.195076 l 83.72359,-7.259272 c 24.22222,-5.729002 36.64841,-13.170567 40.37635,-19.764561 4.83258,-8.547887 12.6958,-15.502477 11.53506,-22.23018 -0.64448,-3.735424 -2.14593,-5.991592 -2.89868,-0.954759 -0.80438,5.382325 -5.9787,10.236281 -9.72738,15.05019 -6.14286,7.888403 -14.2336,13.4657 -16.62771,11.712241 -8.40684,-6.157196 7.33129,-20.175163 7.88478,-29.129004 0.21076,-3.409395 -1.66617,-1.265652 -2.94286,0.698741 -5.67957,8.738982 -13.74936,11.007386 -15.69669,28.318569 -1.08668,9.660262 -41.84242,14.122597 -43.91621,9.753955 -2.89039,-6.088891 1.17621,-12.537945 4.0859,-20.747144 1.45159,-4.095407 1.65102,-7.681478 0.35032,-11.351608 -0.90103,-2.542382 -1.5508,-1.289323 -1.66685,-0.05214 -1.27484,13.591141 -10.18621,18.143186 -11.40794,31.759065 -0.25127,2.8003 -10.24794,3.538981 -19.44997,3.215663 -6.68653,-0.234935 -14.5827,1.522311 -14.74927,0.01068 -1.22642,-11.129578 16.86468,-20.415549 14.09854,-32.557197 -0.66967,-2.939477 -2.2696,-4.665015 -3.03616,-1.236368 -2.65445,11.872764 -7.19032,12.751575 -14.47035,20.198816 -4.33165,4.431136 -4.3385,13.35959 -16.75528,17.438683 -15.30455,5.027764 -27.08422,16.201665 -35.32369,12.241922 -10.0249,-4.817787 -23.969923,-24.72106 -17.912356,-45.68755 0.73144,-2.531665 1.374373,-7.477526 -1.371198,-3.468319 -13.169821,19.231168 -3.476924,40.869572 9.598364,53.718607 8.74378,8.592477 -15.487221,7.302888 -24.681516,8.872442 -3.984099,0.163505 -8.634226,-1.8718 -12.335188,-2.393968 -10.40355,-1.467836 -14.54098,-3.153215 -17.665051,-0.596131 -3.927885,1.83996 -6.512977,3.510116 -5.056961,9.222873 0.504271,1.978533 8.04953,3.615534 7.511112,5.222422 -0.423244,1.263156 -4.81533,0.934734 -5.76042,0.890282 -3.33874,-0.15704 -1.876583,5.092011 0.476096,7.949441 3.197,3.88289 5.822088,4.53311 11.808578,5.52728 8.639626,1.43477 6.734225,6.55315 20.6992,12.24864 3.683719,1.50237 -3.764274,17.71749 -10.050939,28.74446 -2.791395,4.89618 -4.262557,11.56453 -3.330277,13.07247 0.694191,1.12284 9.054374,2.67191 9.809642,4.96349 0.827868,2.51185 -4.4461,19.52768 -2.800453,21.1341 1.4999,1.46415 9.198639,1.66604 9.59837,2.98437 0.592921,1.95549 1.214242,11.83471 3.747756,12.97624 1.702783,0.76722 8.646743,-4.70837 9.641566,-3.86183 12.532815,10.6648 8.856965,33.07821 37.102945,36.78031 -3.62173,21.2086 5.65755,23.09157 7.42058,32.58606 3.42748,18.45806 2.64729,38.38416 9.32536,60.98361 1.78262,6.03261 0.78387,14.5235 -8.51984,21.81664 -10.56111,8.27879 -6.84612,15.27902 -5.93879,13.07862 z"
     id="path2998"
     style="fill:#f2f2f2;stroke:none" />
  <path
     d="m 91.712213,71.554753 c 0.117602,0.01291 8.147907,8.362647 7.660937,8.386609 -15.253298,0.750552 -38.875526,-27.126421 -27.464404,-49.028816 1.278366,-2.453683 2.394443,-0.663143 1.939163,1.140685 -4.142814,16.413895 11.415004,34.366791 17.864304,39.501522 z"
     id="path3991"
     style="fill:#f2f2f2;stroke:none" />
  <path
     d="m 78.736712,91.496215 c 1.962644,-3.98801 8.855057,-3.10916 10.928416,0.2912 1.900503,3.116871 -13.234237,4.394131 -10.928416,-0.2912 z"
     id="path4035"
     style="fill:#008c31;fill-opacity:1;stroke:none" />
</svg>
