<?xml version="1.0" encoding="UTF-8" standalone="no"?>
<!-- Created with Inkscape (http://www.inkscape.org/) -->

<svg
 xmlns:dc="http://purl.org/dc/elements/1.1/"
 xmlns:cc="http://creativecommons.org/ns#"
 xmlns:rdf="http://www.w3.org/1999/02/22-rdf-syntax-ns#"
 xmlns:svg="http://www.w3.org/2000/svg"
 xmlns="http://www.w3.org/2000/svg"
 version="1.1"
 width="390"
 height="480"
 id="svg4228">
<metadata
 id="metadata10">
<rdf:RDF>
<cc:Work
 rdf:about="">
<dc:format>image/svg+xml</dc:format>
<dc:type
 rdf:resource="http://purl.org/dc/dcmitype/StillImage" />
<dc:title></dc:title>
</cc:Work>
</rdf:RDF>
</metadata>
<defs
 id="defs4232" />
<path
 d="M 0,0 C 130,0 260,0 390,0 389.98981,114.99797 370.78556,350.14732 194.88837,479.99815 20.79131,350.08886 0.081386,115.02225 0,0 z"
 id="path4240-0"
 style="fill:#d61a1a;fill-opacity:1;stroke:none" />
<path
 d="m 134.49153,86.949152 c 6.75865,10.067887 14.03663,9.433537 19.32203,6.355932 7.24898,-4.220966 5.14187,-14.821883 3.05085,-18.813559 -5.01619,-9.575704 -15.42373,-15.033642 -27.0906,-15.539319 -0.55796,-5.815845 7.01884,-12.117363 17.81094,-9.375935 12.05222,3.061527 28.91566,6.259553 35.86023,2.725887 12.20885,-6.212338 17.20729,-3.62669 27.34109,-2.440806 19.95437,2.335114 28.58233,1.998808 44.2218,0.301618 l 29.93219,-8.808872 c 8.40527,-2.473623 39.23056,24.181706 30.74117,24.808661 l -41.79985,3.086984 c -2.06684,0.15264 7.72826,7.970105 10.51033,7.8047 l 32.00861,-1.903038 c 5.65258,-0.336068 16.22618,18.483011 12.58411,18.876156 l -22.62584,2.442356 c -3.55164,0.383383 1.9282,10.278623 5.00809,10.141743 l 16.17956,-0.71909 c 5.45113,-0.10728 10.82593,18.5442 7.19092,19.9548 l -12.04479,4.67409 c 4.02191,8.51072 9.16883,3.45865 10.42683,7.73023 12.61178,42.82388 -7.46134,110.72114 -76.86085,112.06022 -31.37821,0.60545 -49.97865,-14.40737 -59.76656,-23.97149 -2.24041,-1.14386 -23.50463,0.38957 -25.70752,-0.71909 -2.93968,-1.47946 -14.77187,-13.61068 -9.3482,-13.30319 5.51973,0.31294 9.86466,-0.13201 15.2807,-1.79773 -6.56748,-4.97361 -21.16259,-7.22387 -29.17212,-8.24401 -8.00954,-1.02013 -19.43106,-26.99961 -13.85,-27.79033 18.50652,-2.62199 32.26753,4.78772 43.56144,13.20318 -5.90106,-13.54953 -18.67021,-27.55016 -40.98822,-27.8648 -17.4496,-0.246 -34.79696,9.41816 -32.71867,45.66232 0.90244,15.73803 5.46752,50.65649 47.63982,61.48233 40.01262,10.27144 51.17212,-6.20085 83.41463,5.21342 7.01114,-7.27178 19.00949,-7.85922 25.3352,-7.17814 17.87221,1.92427 25.28488,14.67112 25.54053,19.04315 -13.59559,-3.90077 -23.14316,-0.90182 -27.14571,7.55046 17.63484,11.92688 24.38805,67.3964 -39.01072,67.95416 -20.77528,0.18277 -37.75676,-11.20932 -49.78138,-8.61104 -13.58444,4.13291 -17.91004,19.02617 -8.7702,29.80418 9.23948,9.01241 29.72014,13.06451 45.44559,3.5247 18.34472,-11.12878 37.2524,-21.29629 57.5099,-2.06646 -22.80874,-3.87266 -24.69327,27.92028 -44.40391,20.67389 9.29111,27.80332 -16.72881,41.86694 -31.64003,32.71868 19.90135,-12.61579 10.07674,-27.36889 -0.7191,-27.68505 -31.23169,-0.91463 -53.50255,-13.4864 -53.79197,-42.24288 -0.24769,-24.61023 18.62808,-36.1387 37.43265,-36.85718 25.25139,-0.96479 48.06433,21.18959 65.75314,0.38795 8.52407,-10.3598 3.92001,-25.06204 -11.66331,-24.56476 -8.78464,0.28032 -19.31126,8.96221 -19.03412,20.58134 -8.83646,-3.25196 -14.86617,-20.60161 -9.34819,-27.50525 -43.20777,13.17645 -75.89826,-1.69324 -93.48192,-15.10093 C 50.57737,242.76618 56.226695,180.41446 70.830527,152.45376 57.642486,157.98475 58.19369,163.56198 51.774598,172.7681 c 1.372062,-41.01424 34.001829,-59.18313 74.785532,-58.96552 96.40105,0.51436 80.04403,90.29746 135.90832,93.12237 33.45911,1.69194 37.31956,-30.59761 37.39277,-43.86459 0.23835,-43.1948 -31.91261,-57.61012 -56.98802,-66.156433 13.60802,12.474163 24.1223,26.055783 32.35913,40.808453 3.23292,5.79035 -32.90959,4.44444 -35.23549,-0.35955 -6.89165,-14.23425 -15.7948,-29.25601 -29.84231,-37.03322 -22.03051,7.17886 -25.49886,-1.339465 -39.19049,-0.719089 -8.07969,-0.469301 -7.49195,7.908609 -22.47162,7.190919 -17.24114,-1.58851 -16.11407,-15.167507 -14.00089,-19.842288 z"
 id="path2849"
 style="fill:#faf700;fill-opacity:1;stroke:none" />
<path
 d="m 158.33107,85.530118 c -44.56105,9.891848 -43.94998,-36.801296 -77.102055,-18.030095 0.71185,-20.283234 28.660625,-22.33521 40.276495,-4.850872 12.2504,18.439447 24.3855,17.353735 35.62594,13.283951 1.33554,3.404377 1.44846,7.359473 1.19962,9.597016 z"
 id="path2951"
 style="fill:#faf700;fill-opacity:1;stroke:#d61a1a;stroke-width:0.70040232;stroke-linecap:butt;stroke-linejoin:miter;stroke-miterlimit:4;stroke-opacity:1;stroke-dasharray:none" />
<path
 d="m 193.43786,63.306559 c 2.74336,0.384826 7.79138,-1.371498 15.09538,0.03886 7.2202,1.394172 8.35728,6.019558 10.98225,8.253042 -3.16343,0.800616 -7.61949,5.487554 -15.33037,3.286164 -8.93698,-2.55143 -9.07863,-8.815043 -10.74726,-11.578065 z"
 id="path2966"
 style="fill:#d61a1a;fill-opacity:1;stroke:none" />
</svg>
