<?xml version="1.0" encoding="UTF-8" standalone="no"?>
<!-- Created with Inkscape (http://www.inkscape.org/) -->

<svg
   xmlns:svg="http://www.w3.org/2000/svg"
   xmlns="http://www.w3.org/2000/svg"
   version="1.1"
   width="390"
   height="480"
   id="svg4228">
  <defs
     id="defs4232" />
  <path
     d="m 0.51202379,0.50512952 c 129.66265621,0 259.32532621,0 388.98797621,0 C 389.48983,115.23328 370.33544,349.8309 194.89467,479.37706 21.249382,349.77255 0.5931986,115.2575 0.51202379,0.50512952 z"
     id="path4240-0-1"
     style="fill:#faf700;fill-opacity:1;stroke:#9e832a;stroke-width:0.99999905;stroke-opacity:1" />
  <path
     d="m 136.6842,345.26707 c 32.92886,29.54992 47.23915,-20.94411 20.38256,-60.01236 -21.43631,-23.67395 -60.709414,-26.22688 -60.754617,-73.48253 -0.770458,-28.31995 15.798807,-54.0445 29.783337,-67.11858 14.28588,21.12118 39.55957,23.42977 39.96568,2.37588 -0.38126,-16.6032 -24.90781,-20.45566 -24.63643,-44.36345 0.15817,-13.934656 17.85899,-21.669465 29.05841,-30.030049 7.90905,-6.479015 11.61714,-43.175457 24.93709,-53.649391 13.64546,10.708386 17.29081,47.727941 24.85937,53.030511 15.20182,9.334473 26.53048,16.055203 27.98584,31.553189 -0.2889,22.29203 -24.06429,22.77564 -24.51644,43.40346 0.23226,21.68591 27.84244,18.62682 39.72318,-2.06559 17.10508,14.85071 31.04856,42.98533 30.54701,64.65784 -1.71441,55.06755 -41.42721,49.79828 -62.28196,79.08283 -23.7012,39.98986 -10.22257,81.716 21.72232,57.3605 4.35664,14.8397 7.52534,52.93679 -31.39554,47.77213 -9.27724,21.80717 -43.25766,21.29419 -54.30579,0.25457 -38.73174,5.95271 -36.6161,-30.46992 -31.07402,-48.76896 z"
     id="path2828"
     style="fill:#000000;stroke:none" />
  <path
     d="m 133.74893,214.99556 a 5.5670029,5.6381498 0 1 1 -4e-5,-1.7e-4 l -5.40034,1.36926 z"
     id="path5393"
     style="fill:#faf700;fill-opacity:1;fill-rule:evenodd;stroke:none" />
  <path
     d="m 200.90546,102.97943 a 5.5670029,5.6381498 0 1 1 -4e-5,-1.6e-4 l -5.40034,1.36925 z"
     id="path5393-1"
     style="fill:#faf700;fill-opacity:1;fill-rule:evenodd;stroke:none" />
  <path
     d="m 268.19374,214.81544 a 5.5670029,5.6381498 0 1 1 -4e-5,-1.7e-4 l -5.40034,1.36926 z"
     id="path5393-4"
     style="fill:#faf700;fill-opacity:1;fill-rule:evenodd;stroke:none" />
  <path
     d="m 200.6509,376.71461 a 5.5670029,5.6381498 0 1 1 -4e-5,-1.7e-4 l -5.40034,1.36926 z"
     id="path5393-9"
     style="fill:#faf700;fill-opacity:1;fill-rule:evenodd;stroke:none" />
  <path
     d="m 202.01957,238.15836 12.95818,0.0267 c 0.62559,10.11274 -7.66216,17.19125 -17.87222,16.96592 -7.28953,-0.16088 -18.91297,-4.37593 -19.09397,-16.9259 l 12.68024,0.0602 -0.0164,-21.1571 c -4.81357,-1.49446 -13.80742,-6.07222 -12.49032,-18.872 2.16422,-21.03223 32.78897,-22.10704 36.08541,-0.21352 1.96441,13.04674 -7.67452,17.57051 -12.10902,19.25568 z"
     id="path3000"
     style="fill:#faf700;fill-opacity:1;stroke:none" />
</svg>
