<?xml version="1.0" encoding="UTF-8" standalone="no"?>
<!-- Created with Inkscape (http://www.inkscape.org/) -->

<svg
   xmlns:svg="http://www.w3.org/2000/svg"
   xmlns="http://www.w3.org/2000/svg"
   xmlns:xlink="http://www.w3.org/1999/xlink"
   version="1.1"
   width="390"
   height="480"
   id="svg4228">
  <defs
     id="defs4232">
    <linearGradient
       id="linearGradient3653">
      <stop
         id="stop3655"
         style="stop-color:#ffffff;stop-opacity:1"
         offset="0" />
      <stop
         id="stop3657"
         style="stop-color:#ffffff;stop-opacity:0"
         offset="1" />
    </linearGradient>
    <linearGradient
       x1="0"
       y1="109.87704"
       x2="390"
       y2="109.87704"
       id="linearGradient2881"
       xlink:href="#linearGradient3653"
       gradientUnits="userSpaceOnUse" />
  </defs>
  <path
     d="M 0,0 C 130,0 260,0 390,0 389.98981,114.99797 370.78556,350.14732 194.88837,479.99815 20.79131,350.08886 0.081386,115.02225 0,0 z"
     id="path4240-0"
     style="color:#000000;fill:#008c31;fill-opacity:1;fill-rule:nonzero;stroke:none;marker:none;visibility:visible;display:inline;overflow:visible;enable-background:accumulate" />
  <path
     d="m 312.62509,213.12711 c 2.00172,3.66922 20.06214,-11.2154 18.6065,-14.29194 -34.58796,-73.10298 -83.80796,-89.59763 -92.04374,-96.8976 -14.57142,-12.915724 -13.32646,-26.61476 -24.08956,-38.920837 1.76028,-2.149784 6.32342,-5.959495 6.02239,-6.381938 -8.41907,-11.814596 -23.07447,-36.378188 -24.98843,-35.684923 -4.61719,1.672412 -8.48479,3.887493 -12.49422,6.471825 l -4.76398,-3.775231 c -1.78028,-1.41079 -24.2138,13.137387 -22.5615,16.179562 l 3.82017,7.033615 c -29.69249,25.258093 -90.68578,72.671997 -89.077477,75.774277 15.386472,29.67923 49.491527,63.20105 75.279907,65.59465 4.67258,0.4337 39.2091,-40.1695 35.23549,-50.69597 -8.87276,-23.5048 -12.65648,-39.806757 -3.19096,-50.606069 1.38526,-1.580454 4.71012,-2.154484 7.14276,0.04495 l 4.38903,-3.628173 c 33.82928,54.725132 76.03503,44.220512 122.71362,129.783802 z"
     id="path3697"
     style="fill:#ececec;stroke:none" />
  <path
     d="m 301.24676,326.96701 c -26.38637,-67.54681 -87.81103,-74.75755 -86.40029,-107.86998 1.7239,-2.17907 6.22235,-6.06494 5.91427,-6.48227 -8.61648,-11.67141 -24.85122,-33.64814 -26.75325,-32.9228 -4.58843,1.74979 -8.41825,4.02956 -12.38367,6.68092 l -4.82677,-3.69461 c -1.80374,-1.38067 -23.98955,13.54254 -22.28635,16.55652 l 3.93786,6.9684 c -29.26373,25.75362 -89.451423,74.18607 -87.791201,77.26088 15.883178,29.41641 57.506801,60.36378 78.529131,57.84818 4.32292,-0.5173 40.50442,-44.34861 37.61428,-50.20245 -8.08353,-16.37279 -18.717,-34.1952 -9.43434,-45.1521 1.3585,-1.60352 4.67324,-2.23335 7.14251,-0.0752 l 5.81054,-5.36434 c 25.14944,41.34874 56.51153,37.56015 94.18161,97.09644 1.48872,2.35287 17.55991,-8.56321 16.74567,-10.64759 z"
     id="path3721"
     style="fill:#ececec;stroke:none" />
</svg>
