<?xml version="1.0" encoding="UTF-8" standalone="no"?>
<!-- Created with Inkscape (http://www.inkscape.org/) -->

<svg
   xmlns:svg="http://www.w3.org/2000/svg"
   xmlns="http://www.w3.org/2000/svg"
   version="1.1"
   width="438"
   height="480"
   id="svg2815">
  <defs
     id="defs2819" />
  <path
     d="m 219.08314,479.44096 c 39.96158,-19.8751 70.82413,-31.4383 113.90867,-62.10569 C 428.64302,349.25117 436.59194,236.93034 437.48844,0.50709579 L 0.50911056,0.50506768 C 2.9663678,247.00757 12.758057,346.52079 102.25856,416.64323 c 32.04649,25.108 75.94967,42.25182 116.82458,62.79773 z"
     id="path2827"
     style="fill:#faf700;fill-opacity:1;stroke:#9e832a;stroke-width:0.99785262px;stroke-linecap:butt;stroke-linejoin:miter;stroke-opacity:1" />
  <path
     d="m 46.883459,168.34451 23.370552,-19.96776 c 2.09997,-2.93755 0.728581,-2.44345 0.249121,-4.4933 -3.94766,-7.05053 22.35968,-22.17031 24.53202,-26.71408 1.850515,-5.45084 -4.953605,-12.81181 9.040358,-15.49978 8.89187,-1.937475 14.01767,11.13375 16.24578,9.39037 11.16993,-8.77601 34.71423,-0.99222 38.81309,-2.03646 14.74318,-4.83661 26.75602,-9.973956 42.81532,-10.267191 17.26676,-0.019 14.95538,4.528511 41.15361,20.110111 15.5061,7.51844 32.5257,5.21514 59.31212,7.29735 30.14572,3.16925 36.72652,7.72 52.84744,28.75647 12.87808,16.80483 28.84159,30.96331 10.05324,80.67891 -1.05889,2.11071 -7.42719,-3.97622 -8.17062,-2.86025 -1.34209,2.20153 6.63872,9.783 4.83661,12.0491 -2.22787,2.60483 -5.39538,-1.10151 -6.2791,0 -1.68433,2.23511 7.3792,7.56391 6.12354,11.47104 -1.72357,3.80777 -8.60262,0.63742 -7.51301,2.27512 3.57459,4.51426 9.48747,7.51829 7.35921,11.25007 -8.20498,15.00233 -8.63957,38.2495 -15.02482,38.2011 -11.76626,-0.007 -21.07595,0.0157 -32.78583,0.0152 1.3081,-4.65128 -2.05994,-3.55628 -4.08726,0.10525 -3.86248,-3.06352 2.54485,-6.68955 1.97507,-7.34682 -1.25214,-1.5146 -5.42355,0.64481 -7.8679,6.27977 -5.18784,-6.93101 7.75745,-12.82514 24.24383,-14.56344 -0.0786,-7.71672 1.5975,-15.08248 3.13044,-22.47688 -14.5017,-7.44881 -25.3824,-21.15365 -26.38011,-18.84644 -2.28286,5.32254 1.87621,14.89154 -0.62044,20.36012 -7.04366,10.57282 -23.78613,35.32511 -29.19349,35.21847 l -21.01291,0.16971 -7.86396,0.13846 c 0.31113,-1.66877 2.84925,-4.03713 2.43338,-4.97507 -0.41117,-1.44633 -4.42799,-0.36683 -5.03822,4.31404 -4.93228,-3.19605 2.91026,-7.8205 2.57815,-8.2444 -1.02113,-1.24313 -8.06641,2.64058 -9.22336,6.9805 -5.50352,-13.33923 24.33636,-10.90943 24.75077,-13.06277 1.13941,-8.80067 9.67098,-21.36227 8.10572,-24.52702 -3.44232,-5.71876 -6.68335,-19.16919 -12.11116,-18.49792 -13.83078,1.0853 -33.5666,4.14329 -35.11171,7.55646 -7.43876,16.60287 -33.23794,48.28961 -36.21094,48.3661 -6.67509,0.0283 -11.16217,0.1191 -19.7114,0.0625 -0.73583,-0.0184 -0.30404,-3.27216 -1.15734,-2.8353 -1.16999,0.61678 -1.51407,1.20309 -4.20464,2.88428 -0.5758,-3.63419 2.82921,-6.94892 2.42132,-7.40455 -0.43788,-0.44842 -6.19645,2.34495 -10.14425,5.49661 -0.66737,-4.37608 5.26035,-7.6959 4.60397,-8.47073 -0.73649,-0.80076 -7.03548,3.10995 -10.74072,8.16117 -1.29939,-5.73359 -0.68536,-11.14796 23.97775,-15.96762 3.9682,-8.53154 4.58723,-21.48101 10.05381,-34.47687 -13.03042,10.62239 -29.56387,19.25805 -50.27404,21.74894 -14.15634,2.20618 -6.6935,13.69384 -1.86677,16.33417 -5.52994,1.26312 -6.81498,-0.38591 -10.01262,-2.33345 -1.40124,0.68957 -1.4575,6.96945 4.58205,8.73984 -9.28868,2.89511 -9.00461,-4.03721 -9.92778,-5.43059 -0.79947,0.17226 -3.96756,5.28999 6.00334,9.33381 -2.74358,1.52735 -10.59732,2.14143 -11.85819,-8.65498 -1.13137,-12.69964 -6.8738,-24.15518 1.95162,-39.37171 4.45486,-7.91943 31.64001,-27.73878 30.97128,-32.58348 -1.12162,-17.47164 -12.50763,-31.30578 -17.35035,-25.19694 -2.49554,3.14798 -14.65913,-14.78393 -21.93651,-14.08991 -9.305491,1.1598 -19.739997,13.70839 -30.631862,5.00632 8.099709,-5.79248 20.041237,-9.82315 20.873792,-14.08557 0.0464,-2.86658 -1.519923,-4.7232 -11.45513,-5.85485 -9.630611,-1.22538 -13.461124,4.91199 -19.914159,8.34705 -2.902742,0.75176 -9.068468,-4.03735 -13.602702,-6.05602 l 0,-5e-5 0,5e-5 -0.125,0.0937 0,4e-5 z"
     id="path2940"
     style="fill:#000000;stroke:none" />
  <path
     d="M 85.96875,173.78125 C 63.503258,177.73595 64.306234,199.42336 45,186.0625 c 21.588479,1.72159 20.835507,-19.17681 40.96875,-12.28125 z"
     id="path3714"
     style="fill:#000000;stroke:none" />
  <path
     d="m 74.4375,145 c -1.915243,-7.27102 8.284047,-5.9916 8.40625,-1.90625 0.125733,4.20337 -6.108688,5.98639 -8.40625,1.90625 z"
     id="path3740"
     style="fill:#faf014;fill-opacity:1;stroke:none" />
</svg>
