<?xml version="1.0" encoding="UTF-8" standalone="no"?>
<!-- Created with Inkscape (http://www.inkscape.org/) -->

<svg
   xmlns:svg="http://www.w3.org/2000/svg"
   xmlns="http://www.w3.org/2000/svg"
   xmlns:xlink="http://www.w3.org/1999/xlink"
   version="1.1"
   width="390"
   height="480"
   id="svg4228">
  <defs
     id="defs4232">
    <linearGradient
       id="linearGradient3653">
      <stop
         id="stop3655"
         style="stop-color:#ffffff;stop-opacity:1"
         offset="0" />
      <stop
         id="stop3657"
         style="stop-color:#ffffff;stop-opacity:0"
         offset="1" />
    </linearGradient>
    <linearGradient
       x1="0"
       y1="109.87704"
       x2="390"
       y2="109.87704"
       id="linearGradient2839"
       xlink:href="#linearGradient3653"
       gradientUnits="userSpaceOnUse" />
  </defs>
  <path
     d="M 0,0 C 130,0 260,0 390,0 389.98981,114.99797 370.78556,350.14732 194.88837,479.99815 20.79131,350.08886 0.081386,115.02225 0,0 z"
     id="path4240-0"
     style="color:#000000;fill:#207dbf;fill-opacity:1;fill-rule:nonzero;stroke:none;marker:none;visibility:visible;display:inline;overflow:visible;enable-background:accumulate" />
  <path
     d="m 71.622402,119.47262 c -6.65025,-0.9135 -13.727928,-1.32757 -14.987767,-3.50574 -1.103229,-1.9074 6.86937,-1.92857 7.046375,-2.92536 0.474726,-2.67338 -9.021963,2.47339 -9.476494,-0.69969 -1.572991,-7.62972 11.177515,-7.97663 10.519996,-9.81116 -1.218251,-3.399017 -5.979298,4.52353 -10.315864,2.20788 C 55.524008,92.475288 66.448722,98.162538 98.062092,79.958998 103.625,69.506818 113.33961,69.867758 121.69,64.990542 141.55345,13.559261 221.54716,2.6402421 236.87917,64.009634 c 16.31373,63.085476 -48.5275,89.701246 -72.89453,67.113276 58.4714,-1.12129 56.10751,-41.933602 54.17474,-54.486742 -8.85751,-46.889784 -68.60894,-41.682412 -70.86224,5.01799 22.79807,-5.440821 18.36482,6.747717 40.39434,4.3457 -3.63805,10.600281 -21.8096,17.094402 -38.18386,12.98055 -4.82683,2.190432 -11.58088,49.159852 0.3035,51.719832 40.72925,9.30156 35.11608,17.06961 48.93872,14.24709 89.27483,-20.8597 69.54055,4.28027 107.25681,16.33365 8.26201,2.15109 27.58773,-9.43696 29.58828,-24.79231 11.58497,13.94436 0.97725,31.31946 -8.05715,31.26483 5.31703,2.17007 16.66729,-1.43384 19.29061,-3.69309 0.81012,12.67066 -16.02433,19.07977 -27.40443,12.55885 -0.92005,4.95775 9.56251,8.59261 12.21328,8.72884 -8.32263,7.56329 -23.18057,1.03634 -30.92096,-7.15539 -11.13806,21.61824 27.14202,26.40427 11.87704,46.80125 -4.23878,-11.16141 -12.68335,-13.93428 -17.47724,-11.77037 12.62038,12.07745 12.83763,24.11877 5.31615,35.26702 -1.71325,-12.13411 -7.32949,-16.90838 -13.13327,-19.25194 -3.27489,12.77026 3.03428,25.79658 13.96693,40.13424 -14.86479,9.26433 -25.93916,35.61477 -23.21693,48.59922 -1.51274,6.52332 -18.10568,0.002 -15.86252,14.04723 0.51138,3.13976 -22.29069,2.11241 -22.02228,0.26098 0.74177,-5.11667 3.51318,-7.04173 4.27175,-7.99248 -1.95601,-0.32923 -5.3388,1.577 -7.16996,1.80658 -1.39801,0.17524 1.5733,-12.31942 17.86275,-13.05275 6.16496,-3.01556 16.17889,-18.27673 18.97814,-31.57585 1.01839,-4.83831 -6.89699,-23.40508 -9.84095,-21.3429 -4.15916,3.61434 -2.02678,12.19575 -0.94942,18.24173 -7.34981,-2.46083 -12.97818,-14.3673 -12.67558,-31.61673 -8.78889,14.22387 -2.89659,29.7607 0.25,33.375 -8.20834,13.29166 -22.15068,18.03726 -24.01215,41.68433 -0.34588,3.85949 -10.90288,-0.25269 -8.80302,10.88279 0.69175,2.98733 -20.70957,2.57183 -22.88866,0.66009 0.13205,-5.82089 6.03878,-8.6934 4.7283,-8.70503 -2.40597,-0.0214 -5.50065,1.6527 -7.16966,2.12028 -2.61504,0.73261 2.02042,-10.53251 12.96864,-12.58366 10.99031,-3.73053 25.28824,-31.07434 21.75097,-35.29426 -11.43128,-13.63738 -12.73655,-25.19058 -13.65657,-29.72305 -0.48365,-2.3827 1.58409,18.30246 -13.16931,23.55962 4.0794,-15.73423 -1.55442,-22.76675 -2.66494,-24.55244 -0.29671,-0.4771 -2.13239,16.67288 -11.31025,19.79369 6.91416,-23.29183 -16.61391,-26.8376 -14.97691,-21.90612 2.34453,6.70031 5.68568,15.19727 1.85792,26.42118 3.36755,11.81781 7.06038,24.33215 14.68757,43.15275 1.16695,4.75424 -13.30576,4.54183 -12.2979,15.8246 0.43178,3.1281 -20.58906,2.80549 -20.80814,1.35295 -0.65181,-4.3217 1.49439,-6.86423 3.69033,-8.48137 -3.96874,0.2898 -4.87413,1.82203 -6.92322,2.90703 -1.35765,0.71889 0.14066,-10.74825 13.92842,-14.22819 8.30555,-4.6511 0.0135,-36.77684 -11.90084,-47.22014 -11.49286,-9.93005 -12.90004,-22.28168 -13.82059,-20.13025 -1.53775,3.5939 2.69489,13.72024 -2.5597,30.09017 1.95321,12.18014 7.32804,24.09553 12.40029,36.99173 1.52572,7.2648 -15.03444,6.54986 -11.70864,19.19945 0.87117,3.02031 -22.88123,3.03995 -22.95903,1.11451 -0.23183,-5.7374 5.56344,-8.37682 4.50757,-8.39163 -5.44253,-0.0763 -7.71352,5.42052 -7.98778,2.73537 -0.54657,-5.35116 7.52038,-12.13407 13.19034,-13.48989 6.81884,-1.6466 7.16158,-25.41485 2.26445,-37.9095 -15.2688,-5.57354 -12.05021,-25.70039 -18.85027,-36.9076 -1.40211,-2.31084 -11.195353,10.44052 -0.0208,23.63377 -6.01704,0.65674 -22.892663,-9.72195 -13.37598,-31.01022 -6.732397,2.29455 -11.615952,10.59967 -10.682881,19.6216 -6.785877,-10.27643 -6.403197,-22.65402 2.331713,-31.6464 -3.113678,1.73894 -10.774862,7.83535 -21.64348,0.75929 13.686819,-2.43665 19.211856,-10.4533 17.350675,-18.42753 -12.082046,-30.08458 21.816433,-72.13634 12.224175,-87.37954 -2.47286,-3.92967 -3.023478,8.22427 -10.90571,19.23097 -8.430706,11.77259 -22.734046,13.68113 -16.45951,37.77649 -10.257758,-6.57478 -13.880435,-18.83357 -7.893411,-30.40686 -1.049593,0.0755 -10.528,2.15913 -11.381396,20.41513 -17.901264,-23.51265 12.000451,-35.08911 9.508269,-34.72617 -17.090243,2.48891 -22.059825,-13.70873 -22.059825,-13.70873 14.76288,3.30383 33.133913,6.21667 36.232493,-13.74951 l 0,2e-5 0,-4e-5 z"
     id="path2827"
     style="fill:#f2f2f2;fill-opacity:1;stroke:none" />
  <path
     d="m 208.00126,147.21578 c 72.30268,18.9034 89.24158,-107.260461 13.5123,-112.712523 8.34042,8.566028 12.62197,15.093485 16.29249,28.540249 17.74666,8.676314 28.9151,69.933514 -29.80479,84.172274 z"
     id="path3168"
     style="fill:#f2f2f2;fill-opacity:1;stroke:none" />
  <path
     d="m 148.55525,80.478463 c 1.51913,-0.548054 7.69642,-1.374057 11.09071,-1.104651 8.37634,-24.471955 27.89686,-28.195991 46.3326,-24.657831 C 188.6735,36.049388 151.02333,43.74781 148.55525,80.478463 z"
     id="path4078"
     style="fill:#f2f2f2;fill-opacity:1;stroke:none" />
  <path
     d="m 101.96712,89.044318 c -1.5404,0.69474 -1.12721,2.517892 1.00684,2.657656 1.55559,0.101894 7.43598,6.416691 16.94713,-1.260328 2.3505,-1.897232 -3.44402,-4.145596 -8.27756,-5.006588 -4.62332,-0.823545 -6.79666,2.310437 -9.67641,3.60926 z"
     id="path3633-1"
     style="fill:#207dbf;fill-opacity:1;stroke:none" />
  <path
     d="m 112.31034,86.664059 c 0.87048,1.45193 0.90672,4.125804 0.19094,5.805695 1.56695,0.0592 3.14993,-0.521159 4.70302,-1.425642 1.66775,-0.971237 1.31174,-2.220275 -0.40196,-3.07635 -1.29832,-0.648577 -2.92158,-0.929927 -4.492,-1.303703 z"
     id="path3674-8"
     style="fill:#f2f2f2;fill-opacity:1;stroke:none" />
  <path
     d="m 106.47994,92.170304 c 3.83207,1.422892 5.12145,0.430611 4.96193,-2.775942 -0.1463,-2.940559 -2.04403,-3.143904 -4.98508,-1.877126 -2.45554,1.057686 -2.19254,3.251189 0.0231,4.653068 z"
     id="path3700-8"
     style="fill:#f2f2f2;fill-opacity:1;stroke:none" />
</svg>
