<?xml version="1.0" encoding="UTF-8" standalone="no"?>
<!-- Created with Inkscape (http://www.inkscape.org/) -->

<svg
   xmlns:svg="http://www.w3.org/2000/svg"
   xmlns="http://www.w3.org/2000/svg"
   version="1.1"
   width="390"
   height="480"
   id="svg4228">
  <defs
     id="defs4232" />
  <path
     d="M 0,0 C 130,0 260,0 390,0 389.98981,114.99797 370.78556,350.14732 194.88837,479.99815 20.79131,350.08886 0.081386,115.02225 0,0 z"
     id="path4240-0"
     style="fill:#207dbf;fill-opacity:1;stroke:none" />
  <path
     d="M 93.238461,313.85593 C 108.40783,234.03158 76.495509,179.29154 162.31773,172.4007 131.91166,162.06445 121.13448,143.97282 109.67359,135.88345 98.41196,140.51446 84.374963,145.439 76.892095,157.02371 63.357701,177.97719 62.04919,262.39969 93.238461,313.85593 z"
     id="path2827"
     style="fill:#ededed;fill-opacity:1;stroke:none" />
  <path
     d="m 81.886561,128.09453 12.943649,-0.71909 -4.674095,6.74148 c 4.186906,-1.35466 8.21321,-2.92814 10.516715,-2.78648 10.10204,0.6157 18.26834,12.3472 32.98833,24.26934 21.74397,17.61106 60.2184,27.52544 93.43697,27.99963 -1.92841,0.61372 -6.55462,0.68739 -10.56166,0.49438 l 73.16758,95.72907 c -12.10471,-28.16442 -44.32027,-74.91557 -36.31413,-84.49326 11.4365,-13.6814 65.73696,8.02985 98.60544,12.04478 C 285.23969,179.09011 207.31802,152.3356 205.66021,100.94882 204.43735,63.044262 283.89348,57.186882 352.89422,42.882166 309.18326,27.403236 129.09543,29.850903 135.90832,68.230147 139.26977,87.166263 147.8081,101.389 129.4365,105.35325 111.93852,106.2526 91.156784,93.839413 81.886561,128.09453 z"
     id="path2829"
     style="fill:#ededed;fill-opacity:1;stroke:none" />
  <path
     d="m 93.526857,128.09453 c -4.444478,0.3542 -7.921846,0.40849 -11.909955,0.71909 -2.7759,2.39404 -12.346135,11.58421 -19.370532,18.96604 6.923447,-3.53637 25.307085,-11.15351 26.934841,-13.61577 1.770536,-2.67824 2.935343,-4.19385 4.345646,-6.06936 z"
     id="path2831"
     style="fill:#ededed;fill-opacity:1;stroke:none" />
  <path
     d="m 97.144783,120.47665 a 2.7078295,2.6291788 0 0 1 -5.415659,0 2.7078295,2.6291788 0 1 1 5.415659,0 z"
     id="path2833"
     style="fill:#207dbf;fill-opacity:1;stroke:none" />
</svg>
