<?xml version="1.0" encoding="UTF-8" standalone="no"?>
<!-- Created with Inkscape (http://www.inkscape.org/) -->

<svg
 xmlns:dc="http://purl.org/dc/elements/1.1/"
 xmlns:cc="http://creativecommons.org/ns#"
 xmlns:rdf="http://www.w3.org/1999/02/22-rdf-syntax-ns#"
 xmlns:svg="http://www.w3.org/2000/svg"
 xmlns="http://www.w3.org/2000/svg"
 version="1.1"
 width="390"
 height="480"
 id="svg4228">
<metadata
 id="metadata11">
<rdf:RDF>
<cc:Work
 rdf:about="">
<dc:format>image/svg+xml</dc:format>
<dc:type
 rdf:resource="http://purl.org/dc/dcmitype/StillImage" />
<dc:title></dc:title>
</cc:Work>
</rdf:RDF>
</metadata>
<defs
 id="defs4232" />
<path
 d="M 0,0 C 130,0 260,0 390,0 389.98981,114.99797 370.78556,350.14732 194.88837,479.99815 20.79131,350.08886 0.081386,115.02225 0,0 z"
 id="path4240-0"
 style="fill:#008c31;fill-opacity:1;stroke:none" />
<path
 d="m 202.96362,326.83348 c -16.38853,1.66972 -28.92037,-0.76866 -36.97786,-0.0789 -11.74545,1.00547 -17.88131,12.35907 -10.01028,15.24721 -0.32877,-3.23686 1.54516,-5.32927 4.1123,-5.91003 -5.3919,3.81765 -3.88631,9.25668 2.24716,10.85378 -0.34405,-3.01834 1.36074,-5.83064 4.04488,-6.62912 -5.9734,4.83317 -3.09045,12.06529 6.47183,11.23581 2.79559,-0.2425 -0.87947,-6.73817 2.6966,-7.64035 15.20946,-3.83708 46.46647,-2.96001 69.662,-5.03365 6.12902,-0.54792 5.55274,-7.63813 5.75273,-10.69648 57.82257,-16.33452 72.57718,-69.59003 73.34735,-105.07727 1.35249,-62.06475 -52.77572,-90.93782 -55.19028,-117.30182 -1.94284,-21.213409 37.73806,-29.984153 30.29173,11.77512 8.45286,-2.61657 12.32918,-7.97907 14.02229,-14.65149 l 4.22466,6.83137 c 5.196,-11.322161 5.12963,-21.787657 -4.22466,-30.741168 l 8.80887,2.78648 C 318.41383,64.178389 307.8455,55.304839 298.60281,51.241608 c 1.99934,-1.092573 5.74489,-1.766053 9.16841,-2.516821 -61.98233,-37.921006 -120.49691,8.660735 -115.77375,44.763454 10.94492,83.660459 140.56129,88.797299 89.16736,203.682709 6.73845,-20.40176 10.43407,-32.56979 10.69319,-46.57383 0.62309,-33.67483 -22.54317,-58.21422 -41.91057,-73.07455 C 231.07134,163.0392 204.41942,160.78666 192.45763,149.49152 159.6479,118.51031 166.6463,93.8395 176.44068,72.711864 c -2.25409,-0.931541 -4.90462,0.01551 -6.48305,0.88983 3.46953,-3.03965 7.89732,-5.79182 10.29661,-9.152542 -1.70891,-1.665337 -4.62425,-2.04319 -6.1017,-1.779661 1.42552,-3.754085 3.7483,-6.012722 5.84746,-8.644068 -27.72373,7.75543 -25.58415,29.983801 -36.86441,34.70339 -21.86941,9.150021 -39.65649,23.870977 -50.593217,42.457627 -1.354283,2.30157 0.123879,4.87399 1.144068,5.84746 3.708735,3.53891 2.519617,9.51171 8.898309,12.33051 14.04819,6.20803 23.36656,11.52242 23.26271,22.5 -0.20038,21.18139 -25.61204,15.72 -39.025426,17.03389 -14.609061,1.43101 -10.570274,11.63836 -9.533898,11.5678 0.662208,-2.22054 1.856558,-3.88646 3.68644,-4.70339 -3.871546,3.58582 -3.337351,10.30535 2.378022,10.01484 -0.48169,-2.04398 -0.01859,-4.92464 1.435538,-6.58264 -0.750285,3.11976 -0.862995,4.61737 0.26966,7.15521 4.675699,1.98992 7.559703,-7.61226 14.126252,-5.05257 18.907322,7.37022 36.335962,16.95953 61.802132,6.96641 -1.28329,1.40138 -3.64723,2.20746 -5.4161,2.87784 5.50259,8.64004 12.03972,16.98087 19.57368,24.09738 1.59585,-1.6351 3.4027,-3.08934 5.59064,-4.21695 -14.38448,11.84139 -15.81175,26.3458 -15.70287,35.7671 0.33374,28.87909 21.38036,43.07764 37.93209,60.04415 z"
 id="path2827"
 style="fill:#f2f2f2;stroke:none" />
<path
 d="m 123.4322,164.80932 c 2.8497,6.23802 2.11944,13.6047 -2.91712,18.1722 -3.92454,3.55903 -10.62032,4.90324 -17.3583,4.89984 -7.08323,-0.004 -11.541656,-6.65462 -20.211865,-5.84746 -4.515649,0.42039 -6.59469,6.8587 -12.838983,5.1483 -1.153936,-2.87395 -0.05943,-5.37814 0.95339,-7.56356 -1.948088,1.08051 -3.076651,3.94068 -2.415254,6.61018 -6.791197,-1.9818 -3.749277,-7.48359 -1.461864,-9.15255 -1.293278,0.35075 -2.925114,0.90783 -3.940678,4.00423 -2.652628,-8.8263 4.278145,-10.05247 7.372881,-10.93219 9.595895,-2.72778 26.142039,4.48757 52.817793,-5.33899 z"
 id="path3623"
 style="fill:#f2f2f2;stroke:none" />
<path
 d="m 174.65537,235.74425 -5.02964,-5.06725 c -28.57259,11.06059 -21.95828,47.5878 2.07978,75.96495 -8.17306,1.8507 -21.86021,-3.60406 -30.13709,-0.69502 -11.95016,4.20008 -8.72954,12.71152 -3.97978,14.58791 -1.07485,-2.79573 0.59808,-5.74819 2.49611,-6.29755 -3.39936,3.34209 -2.94986,8.34981 3.37881,9.8125 -0.64959,-2.93526 0.5492,-5.16283 2.34153,-5.99894 -4.01108,5.27705 -0.17714,9.15907 4.62393,9.35911 2.81764,0.12005 0.21461,-6.02977 5.02119,-6.29238 l 38.38983,-2.09746 c -20.39074,-18.80903 -29.61553,-31.27427 -29.83418,-53.76082 -0.10395,-10.69167 2.86547,-20.27793 10.64951,-29.51505 z"
 id="path3625"
 style="fill:#f2f2f2;stroke:none" />
<path
 d="m 125.52966,122.51059 a 4.4809322,4.2902541 0 1 1 -8.96186,0 4.4809322,4.2902541 0 1 1 8.96186,0 z"
 transform="matrix(0.90780142,0,0,0.95555555,11.446538,5)"
 id="path3655"
 style="fill:#008c31;fill-opacity:1;stroke:none" />
</svg>
