<?xml version="1.0" encoding="UTF-8" standalone="no"?>
<!-- Created with Inkscape (http://www.inkscape.org/) -->

<svg
   xmlns:svg="http://www.w3.org/2000/svg"
   xmlns="http://www.w3.org/2000/svg"
   version="1.1"
   width="390"
   height="480"
   id="svg4228">
  <defs
     id="defs4232" />
  <path
     d="M 0,0 C 130,0 260,0 390,0 389.98981,114.99797 370.78556,350.14732 194.88837,479.99815 20.79131,350.08886 0.081386,115.02225 0,0 z"
     id="path4240-0"
     style="fill:#207dbf;fill-opacity:1;stroke:none" />
  <path
     d="m 195.81699,410.39216 c 29.53268,-16.01069 54.99731,-35.55944 79.2152,-61.41489 4.52918,0.63162 12.59073,4.7012 13.58754,1.89486 5.50065,-15.48601 15.78958,-51.37448 12.15484,-54.62746 -3.03963,-2.72037 -31.79157,14.15142 -48.06477,20.70482 -3.4632,1.39467 2.29818,10.92872 3.51242,16.36051 -11.79376,10.24477 -23.43922,19.25373 -34.19993,20.8897 -5.61827,0.85416 -8.23413,-1.06142 -8.13404,-6.19297 l -3.42,-92.70955 35.77129,-10.76836 0,-17.09997 -37.2502,-0.50838 0.0924,-6.65512 c 19.87668,-5.94948 29.16234,-29.99543 19.89537,-46.59707 l 7.83431,-7.10607 20.0578,20.0578 13.58754,-13.58754 -13.86484,-24.67942 58.70217,-54.170048 c 2.57489,-2.376094 6.97894,-6.033921 10.13072,0.588235 4.31369,9.063443 7.10862,19.877063 6.14379,34.052293 -6.51589,1.68702 -11.62084,4.41249 -10.26144,7.64706 6.28897,14.96406 14.2001,44.18962 18.10457,44.5098 3.96456,0.32511 16.51709,-24.41675 24.44445,-43.33333 1.35358,-3.22996 -5.71429,-7.13024 -10.06536,-8.75817 2.97234,-33.64417 -0.59712,-61.72115 -10.3268,-84.052294 -30.41534,-12.520188 -57.33909,-12.978496 -83.98693,-12.48366 -1.89202,-4.495321 -3.63167,-13.740895 -7.05882,-11.830065 -15.22585,8.489285 -46.38463,21.069512 -46.66667,23.921569 -0.33481,3.385748 30.73728,12.817366 45.75163,18.75817 2.66966,1.056317 5.0419,-4.976099 7.45099,-8.169935 l 36.73203,8.235294 0,6.013072 -58.5621,58.039219 -24.24836,-13.79085 -12.94118,14.37909 17.51634,19.80392 -4.5098,5.03268 c -7.35408,-6.23281 -26.67139,-5.98131 -33.79085,-0.39216 l -5.03268,-6.47059 18.62745,-19.60784 -13.59477,-14.64052 -24.90196,14.8366 -59.21569,-58.888896 c -1.760087,-1.750373 -1.573721,-4.608464 1.503268,-6.405228 8.838252,-5.160975 24.852432,-8.078084 36.013072,-6.797386 2.63327,2.976475 5.06299,9.240439 8.10457,7.973857 14.85839,-6.187364 44.48548,-15.734374 44.57517,-18.562092 0.11289,-3.559198 -30.58823,-16.209151 -45.88235,-24.313726 -3.41572,-1.810038 -4.55609,6.936342 -6.79739,10.588236 -34.565589,-1.217003 -60.608537,4.313085 -83.398693,12.4183 -12.217498,26.645969 -12.364429,56.077453 -12.026144,85.620915 -3.340218,1.84989 -11.415526,4.90068 -9.803922,7.71242 8.19171,14.29195 20.371053,42.90166 24.575164,42.87582 3.559072,-0.0219 12.461871,-29.97821 18.69281,-44.96732 1.25431,-3.01736 -6.414245,-5.35101 -10.849673,-6.14379 -0.773743,-12.62534 1.141305,-24.74353 7.320262,-35.947718 2.699447,-4.894854 7.488601,-0.632963 9.738562,1.437909 l 58.300654,53.660139 -13.46405,24.8366 13.33333,13.46405 19.86928,-19.73856 8.30066,7.38562 c -8.3894,15.32288 -0.52739,41.00884 20.39215,47.64706 l -0.098,5.91503 -38.03921,0.0327 0,18.13725 35.78431,10.42484 -3.33333,91.76471 c -0.26629,7.3309 -3.11789,8.71774 -8.82353,6.60131 -11.67396,-4.33032 -23.05293,-12.00994 -32.09151,-21.89543 1.65724,-4.16217 7.59989,-12.52881 4.96733,-13.85621 -15.24399,-7.68638 -45.47476,-22.5529 -49.019613,-19.21569 -2.487505,2.3418 6.50214,33.9687 11.633993,51.24184 0.98092,3.30166 9.08363,-0.21763 13.00653,-1.37256 21.02597,23.54518 46.47671,44.66388 78.30065,62.28759 l -1e-5,-2e-5 z"
     id="path3674"
     style="fill:#ececec;stroke:none" />
  <path
     d="m 213.43784,185.94771 a 17.163323,17.294042 0 1 1 -34.32664,0 17.163323,17.294042 0 1 1 34.32664,0 z"
     id="path3676"
     style="fill:#207dbf;fill-opacity:1;stroke:none" />
</svg>
