<?xml version="1.0" encoding="UTF-8" standalone="no"?>
<!-- Created with Inkscape (http://www.inkscape.org/) -->

<svg
 xmlns:dc="http://purl.org/dc/elements/1.1/"
 xmlns:cc="http://creativecommons.org/ns#"
 xmlns:rdf="http://www.w3.org/1999/02/22-rdf-syntax-ns#"
 xmlns:svg="http://www.w3.org/2000/svg"
 xmlns="http://www.w3.org/2000/svg"
 xmlns:xlink="http://www.w3.org/1999/xlink"
 version="1.1"
 width="390"
 height="480"
 id="svg4228">
<metadata
 id="metadata29">
<rdf:RDF>
<cc:Work
 rdf:about="">
<dc:format>image/svg+xml</dc:format>
<dc:type
 rdf:resource="http://purl.org/dc/dcmitype/StillImage" />
<dc:title></dc:title>
</cc:Work>
</rdf:RDF>
</metadata>
<defs
 id="defs4232" />
<path
 d="m 0.51202379,0.50512952 c 129.66265621,0 259.32532621,0 388.98797621,0 C 389.48983,115.23328 370.33544,349.8309 194.89467,479.37706 21.249382,349.77255 0.5931986,115.2575 0.51202379,0.50512952 z"
 id="path4240-0"
 style="fill:#faf700;fill-opacity:1;stroke:#9e832a;stroke-width:0.99999905;stroke-opacity:1" />
<use
 transform="translate(0,168)"
 id="use3013"
 x="0"
 y="0"
 width="390"
 height="480"
 xlink:href="#path2827-7" />
<path
 d="m 288.98495,37.93623 -0.85392,11.41559 c -0.3642,4.86875 -177.65259,6.89865 -178.20518,0.3389 L 108.94068,37.9958 c 0.18675,-1.17584 -6.69006,-1.34203 -6.95975,0.0636 l 0.0402,66.93217 c 7.69688,8.49881 15.32863,13.35055 23.10082,26.06708 -2.90784,3.47309 -10.04835,3.69119 -16.13462,2.42693 -5.73224,-1.19072 -7.97808,-6.71712 -9.977399,-9.39314 -0.60187,-0.80558 -6.051105,-1.65022 -6.157222,-0.0899 l 0.134829,28.89849 c 0.0077,1.654 4.165962,1.94258 4.898812,0 1.745062,-4.62568 4.64956,-9.8164 10.15717,-9.16841 4.37823,0.51512 18.75631,0.71909 28.13446,1.07863 17.54341,-23.09526 41.73955,-21.47922 58.60597,1.52807 0.66118,0.90191 3.64407,0.82076 4.49432,-0.0899 21.12699,-22.62803 43.60312,-25.82865 62.47109,-1.3483 10.21339,0.87558 17.14101,-1.10634 29.75242,0.6292 4.09384,0.56338 6.13892,4.41585 8.49427,7.37069 0.74333,0.93253 3.92198,1.70989 4.04489,0.045 l -0.0449,-28.8985 c -0.003,-1.50124 -4.48316,-1.20188 -5.03364,-0.13483 -1.61396,3.12851 -2.88214,6.26169 -7.10103,8.83388 -2.68283,1.63568 -12.94701,3.58086 -16.89865,-1.3733 1.49075,-1.70289 20.6818,-14.23692 20.76377,-25.48281 L 295.0074,37.98123 c -0.23261,-1.35059 -6.08106,-1.11179 -6.02245,-0.045 z"
 id="path2827-7"
 style="fill:#000000;stroke:none" />
<path
 d="m 187.88135,326.37711 a 23.135595,22.817799 0 1 1 -46.27119,0 23.135595,22.817799 0 1 1 46.27119,0 z"
 transform="matrix(1.0796704,0,0,1.08078,-13.824501,-194.68252)"
 id="path2829-1"
 style="fill:#000000;fill-opacity:1;stroke:none" />
<path
 d="m 171.27864,142.96853 c 3.48727,1.16882 6.14811,4.72802 7.19091,7.03361 1.05701,2.33699 -4.02011,4.05742 -6.13474,3.86511 -0.92101,-0.0838 -4.27916,-3.63141 -4.38197,-4.42692 -0.25666,-1.98583 1.51651,-7.07822 3.3258,-6.4718 z"
 id="path3693-1"
 style="fill:#faf700;fill-opacity:1;stroke:none" />
<path
 d="m 156.52036,142.87864 c -3.48727,1.16882 -6.14811,4.72802 -7.19091,7.03361 -1.05701,2.33699 4.02011,4.05742 6.13474,3.86511 0.92101,-0.0838 4.27916,-3.63141 4.38197,-4.42692 0.25666,-1.98583 -1.51651,-7.07822 -3.3258,-6.4718 z"
 id="path3693-9-5"
 style="fill:#faf700;fill-opacity:1;stroke:none" />
<path
 d="m 156.38553,172.46131 c -3.48727,-1.16882 -6.14811,-4.72802 -7.19091,-7.03361 -1.05701,-2.33699 4.02011,-4.05742 6.13474,-3.86511 0.92101,0.0838 4.27916,3.63141 4.38197,4.42692 0.25666,1.98583 -1.51651,7.07822 -3.3258,6.4718 z"
 id="path3693-9-4-2"
 style="fill:#faf700;fill-opacity:1;stroke:none" />
<path
 d="m 171.14381,172.5512 c 3.48727,-1.16882 6.14811,-4.72802 7.19091,-7.03361 1.05701,-2.33699 -4.02011,-4.05742 -6.13474,-3.86511 -0.92101,0.0838 -4.27916,3.63141 -4.38197,4.42692 -0.25666,1.98583 1.51651,7.07822 3.3258,6.4718 z"
 id="path3693-9-4-8-7"
 style="fill:#faf700;fill-opacity:1;stroke:none" />
<path
 d="m 187.88135,326.37711 a 23.135595,22.817799 0 1 1 -46.27119,0 23.135595,22.817799 0 1 1 46.27119,0 z"
 transform="matrix(1.0796704,0,0,1.08078,55.222107,-194.49184)"
 id="path2829-8-6"
 style="fill:#000000;fill-opacity:1;stroke:none" />
<path
 d="m 240.32524,143.15921 c 3.48727,1.16882 6.14811,4.72802 7.19091,7.03361 1.05701,2.33699 -4.02011,4.05742 -6.13474,3.86511 -0.92101,-0.0838 -4.27916,-3.63141 -4.38197,-4.42692 -0.25666,-1.98583 1.51651,-7.07822 3.3258,-6.4718 z"
 id="path3693-2-1"
 style="fill:#faf700;fill-opacity:1;stroke:none" />
<path
 d="m 225.56696,143.06932 c -3.48727,1.16882 -6.14811,4.72802 -7.19091,7.03361 -1.05701,2.33699 4.02011,4.05742 6.13474,3.86511 0.92101,-0.0838 4.27916,-3.63141 4.38197,-4.42692 0.25666,-1.98583 -1.51651,-7.07822 -3.3258,-6.4718 z"
 id="path3693-9-45-4"
 style="fill:#faf700;fill-opacity:1;stroke:none" />
<path
 d="m 225.43213,172.65199 c -3.48727,-1.16882 -6.14811,-4.72802 -7.19091,-7.03361 -1.05701,-2.33699 4.02011,-4.05742 6.13474,-3.86511 0.92101,0.0838 4.27916,3.63141 4.38197,4.42692 0.25666,1.98583 -1.51651,7.07822 -3.3258,6.4718 z"
 id="path3693-9-4-5-2"
 style="fill:#faf700;fill-opacity:1;stroke:none" />
<path
 d="m 240.19041,172.74188 c 3.48727,-1.16882 6.14811,-4.72802 7.19091,-7.03361 1.05701,-2.33699 -4.02011,-4.05742 -6.13474,-3.86511 -0.92101,0.0838 -4.27916,3.63141 -4.38197,4.42692 -0.25666,1.98583 1.51651,7.07822 3.3258,6.4718 z"
 id="path3693-9-4-8-1-3"
 style="fill:#faf700;fill-opacity:1;stroke:none" />
<use
 transform="translate(0,168)"
 id="use3015"
 x="0"
 y="0"
 width="390"
 height="480"
 xlink:href="#path2829-1" />
<use
 transform="translate(0,168)"
 id="use3017"
 x="0"
 y="0"
 width="390"
 height="480"
 xlink:href="#path3693-1" />
<use
 transform="translate(0,168)"
 id="use3019"
 x="0"
 y="0"
 width="390"
 height="480"
 xlink:href="#path3693-9-5" />
<use
 transform="translate(0,168)"
 id="use3021"
 x="0"
 y="0"
 width="390"
 height="480"
 xlink:href="#path3693-9-4-2" />
<use
 transform="translate(0,168)"
 id="use3023"
 x="0"
 y="0"
 width="390"
 height="480"
 xlink:href="#path3693-9-4-8-7" />
<use
 transform="translate(0,168)"
 id="use3025"
 x="0"
 y="0"
 width="390"
 height="480"
 xlink:href="#path2829-8-6" />
<use
 transform="translate(0,168)"
 id="use3027"
 x="0"
 y="0"
 width="390"
 height="480"
 xlink:href="#path3693-2-1" />
<use
 transform="translate(0,168)"
 id="use3029"
 x="0"
 y="0"
 width="390"
 height="480"
 xlink:href="#path3693-9-45-4" />
<use
 transform="translate(0,168)"
 id="use3031"
 x="0"
 y="0"
 width="390"
 height="480"
 xlink:href="#path3693-9-4-5-2" />
<use
 transform="translate(0,168)"
 id="use3033"
 x="0"
 y="0"
 width="390"
 height="480"
 xlink:href="#path3693-9-4-8-1-3" />
</svg>
