<?xml version="1.0" encoding="UTF-8" standalone="no"?>
<!-- Created with Inkscape (http://www.inkscape.org/) -->

<svg
 xmlns:dc="http://purl.org/dc/elements/1.1/"
 xmlns:cc="http://creativecommons.org/ns#"
 xmlns:rdf="http://www.w3.org/1999/02/22-rdf-syntax-ns#"
 xmlns:svg="http://www.w3.org/2000/svg"
 xmlns="http://www.w3.org/2000/svg"
 version="1.1"
 width="390"
 height="480"
 id="svg4228">
<metadata
 id="metadata25">
<rdf:RDF>
<cc:Work
 rdf:about="">
<dc:format>image/svg+xml</dc:format>
<dc:type
 rdf:resource="http://purl.org/dc/dcmitype/StillImage" />
<dc:title></dc:title>
</cc:Work>
</rdf:RDF>
</metadata>
<defs
 id="defs4232" />
<path
 d="M 0,0 C 130,0 260,0 390,0 389.98981,114.99797 370.78556,350.14732 194.88837,479.99815 20.79131,350.08886 0.081386,115.02225 0,0 z"
 id="path4240-0"
 style="fill:#008c31;fill-opacity:1;stroke:none" />
<path
 d="m 180.88983,58.02966 c 0.69915,0 3.40722,0.483159 5.14831,1.207627 2.89003,1.202539 -2.78376,4.716241 -4.51272,6.737288 31.43857,10.423767 18.17658,26.956918 16.30204,29.08252 1.87676,-4.044194 2.57268,-6.486337 2.51604,-8.502851 -6.55702,2.732373 -15.81461,2.439737 -20.65039,1.76424 0.4626,11.983116 7.91473,15.578396 17.15011,9.68999 0,0 -3.67868,5.487486 -4.44408,7.075376 1.95328,0.32933 9.00418,-2.58742 10.29154,-5.740631 0.20232,1.918571 0.25957,3.837131 -0.36858,5.755701 4.21636,-1.99982 5.59548,-5.492925 7.6779,-8.61587 0.48396,1.324282 0.57676,2.648563 0.58613,3.97284 2.78209,-0.967946 5.50575,-4.81584 7.54946,-8.358433 -3.02853,19.460983 -33.93876,19.833293 -36.98646,19.571753 0.48068,-1.03002 2.83218,-2.50912 4.23293,-3.00006 -19.18894,-3.11164 -31.37647,10.24231 -34.55579,7.32661 -3.17932,-2.9157 -38.81907,-37.256111 -59.359889,-54.209712 3.984798,-19.863415 1.620102,-25.905286 -1.847737,-28.353846 -4.183797,-2.954081 -10.052008,-5.886133 -12.20339,-2.987288 -4.053137,5.461335 8.718684,12.758207 8.898306,15.699153 -3.179257,-2.009153 -10.492386,-6.967564 -12.26695,-3.877119 -2.814369,4.90129 8.7017,9.854887 10.105933,13.855932 -3.762852,-1.328358 -7.436572,-4.644554 -10.614407,-2.097457 -11.403129,9.139832 33.937174,57.352137 54.777224,93.965127 16.73551,2.66601 23.38002,17.7697 28.01612,35.11295 3.11669,11.65929 24.2115,24.96436 34.47361,31.21853 9.50749,5.79428 18.32978,16.90904 18.55932,21.99153 -13.7479,20.05101 -23.05085,44.47865 -26.44068,68.38983 -3.84034,27.08903 27.46153,50.09613 41.31356,75.12712 -1.44887,8.23927 -7.56257,23.85906 -18.52629,25.06418 -5.03829,0.55381 -12.71439,-0.43551 -18.77213,2.78118 -6.3109,3.35112 -7.99822,15.66713 -4.73903,15.78555 2.16713,0.0787 7.79024,-9.88709 13.3032,-11.05603 -1.27085,0.95314 -6.43774,12.31447 -2.06739,11.95489 1.60248,-0.13185 13.74513,-9.61785 14.20206,-9.61785 -1.0096,3.31384 -3.99462,7.43957 -1.34829,10.24706 4.29366,4.55514 13.22637,1.44114 17.70763,-0.44943 13.21044,-5.57329 23.81991,-37.93209 27.41537,-46.56119 -10.67967,-15.62259 -15.45362,-29.40144 -15.55036,-42.15674 -0.29534,-38.94338 42.72743,-49.64022 40.08936,-70.29121 2.70369,2.57261 -0.60552,23.93861 21.39297,25.52775 11.83297,0.8548 17.95,-6.41529 23.2806,-13.66274 3.29413,-4.47869 -2.5502,-19.57713 -7.9999,-12.85376 -15.84361,19.54649 -26.20334,3.17843 -32.08946,-11.68524 l -8.26956,-20.49411 c -9.21484,-22.83675 -37.98856,-40.7651 -39.1006,-85.6618 -0.39432,-15.9202 21.25764,-34.80207 24.62889,-69.751886 0.92346,-9.573596 -9.73585,-15.990032 -9.88752,-30.381622 -0.0425,-4.028592 0.93351,-8.907124 29.48276,-9.348191 -8.13744,-9.293932 -19.09285,-9.752515 -30.20185,1.25841 -12.29509,1.457842 -18.82047,8.546934 -24.35922,6.921258 -7.90329,-2.319688 -16.56579,-2.370793 -23.99969,0.269658 -6.66422,2.367068 -13.53298,4.149211 -17.93901,12.361013 z"
 id="path3638"
 style="fill:#faf700;fill-opacity:1;stroke:none" />
<path
 d="m 213.14525,42.770471 c 16.00552,-7.663971 20.99068,-4.683952 23.79545,-7.618539 10.46213,-14.04903 22.88014,-11.409545 26.78616,-8.808873 -9.47013,4.209338 -19.36656,7.600201 -23.64014,13.123423 -6.16533,1.621018 -12.76905,5.838458 -15.43216,5.246604 -4.01482,-0.892261 -6.91682,-1.919908 -11.50931,-1.942615 z"
 id="path3640"
 style="fill:#f0ed00;fill-opacity:1;stroke:none" />
<path
 d="m 196.85134,78.926636 c 1.53681,1.555316 1.12671,5.282516 -1.30336,5.123528 -6.50179,-0.425383 -21.61402,-6.348327 -19.50536,-8.314498 1.19763,-1.116707 14.73305,-2.957869 20.80872,3.19097 z"
 id="path4199"
 style="fill:#faf700;fill-opacity:1;stroke:none" />
<path
 d="m 77.600359,24.65648 c 0.739407,0.275498 0.08323,4.483999 -0.916034,4.015715 -3.093074,-1.449499 -6.390396,-2.976488 -9.268958,-3.918919 2.24253,-0.781371 7.35615,-1.150801 10.184992,-0.0968 z"
 id="path4201"
 style="fill:#faf700;fill-opacity:1;stroke:none" />
<path
 d="m 75.704062,35.297153 c 0.810521,0.310609 0.228822,5.344705 -0.869443,4.810503 -3.399736,-1.653528 -7.02341,-3.394514 -10.1748,-4.448605 2.408224,-0.985976 7.943332,-1.550234 11.044243,-0.361898 z"
 id="path4201-0"
 style="fill:#faf700;fill-opacity:1;stroke:none" />
<path
 d="m 73.84949,47.803955 c 0.810521,0.310609 0.228822,5.344705 -0.869443,4.810503 -3.399736,-1.653528 -7.02341,-3.394514 -10.1748,-4.448605 2.408224,-0.985976 7.943332,-1.550234 11.044243,-0.361898 z"
 id="path4201-0-9"
 style="fill:#faf700;fill-opacity:1;stroke:none" />
<path
 d="m 70.82814,95.34194 c 0.711381,0.249965 -0.0605,4.404631 -1.018799,3.972497 -2.966462,-1.337591 -6.12939,-2.745588 -8.902949,-3.590861 2.208553,-0.831023 7.200127,-1.337961 9.921748,-0.381638 z"
 id="path4201-0-8"
 style="fill:#faf700;fill-opacity:1;stroke:none" />
<path
 d="m 69.079568,105.42979 c 0.796957,0.34393 0.0072,5.34961 -1.06801,4.77035 -3.328305,-1.79296 -6.876733,-3.6826 -9.981741,-4.86635 2.447008,-0.88535 8.000742,-1.21978 11.049751,0.096 z"
 id="path4201-0-2"
 style="fill:#faf700;fill-opacity:1;stroke:none" />
<path
 d="m 68.955668,117.47359 c 0.723046,0.37277 -0.536482,4.88577 -1.500257,4.27761 -2.983434,-1.88249 -6.166405,-3.86944 -8.999339,-5.17916 2.41725,-0.62827 7.733335,-0.5246 10.499596,0.90155 z"
 id="path4201-0-5"
 style="fill:#faf700;fill-opacity:1;stroke:none" />
<path
 d="m 84.522509,241.14896 c 0.810523,0.31061 0.228822,5.34471 -0.869443,4.81051 -3.399736,-1.65353 -7.02341,-3.39452 -10.1748,-4.44861 2.408224,-0.98597 7.943332,-1.55023 11.044243,-0.3619 z"
 id="path4201-0-7"
 style="fill:#faf700;fill-opacity:1;stroke:none" />
<path
 d="m 85.2416,251.75557 c 0.810521,0.3106 0.228822,5.3447 -0.869443,4.8105 -3.399736,-1.65353 -7.02341,-3.39452 -10.1748,-4.44861 2.408224,-0.98597 7.943332,-1.55023 11.044243,-0.36189 z"
 id="path4201-0-52"
 style="fill:#faf700;fill-opacity:1;stroke:none" />
<path
 d="m 88.29774,264.24978 c 0.810521,0.31061 0.228822,5.34471 -0.869443,4.8105 -3.399736,-1.65352 -7.02341,-3.39451 -10.1748,-4.4486 2.408224,-0.98598 7.943332,-1.55023 11.044243,-0.3619 z"
 id="path4201-0-6"
 style="fill:#faf700;fill-opacity:1;stroke:none" />
<path
 d="m 175.37538,419.82367 c 0.52283,-0.68141 5.19922,1.23867 4.3819,2.13113 -2.52997,2.7627 -5.20596,5.71321 -7.09116,8.4044 -0.28086,-2.54421 0.70904,-7.9286 2.70926,-10.53553 z"
 id="path4201-0-23"
 style="fill:#faf700;fill-opacity:1;stroke:none" />
<path
 d="m 186.77514,420.4371 c 0.49685,-0.75023 4.9408,1.36379 4.1641,2.3464 -2.40422,3.04175 -4.9472,6.29028 -6.7387,9.25329 -0.2669,-2.80119 0.6738,-8.72943 2.5746,-11.59969 z"
 id="path4201-0-23-6"
 style="fill:#faf700;fill-opacity:1;stroke:none" />
<path
 d="m 199.09391,421.97001 c 0.54881,-0.77318 5.45764,1.40548 4.5997,2.41814 -2.65572,3.13477 -5.46472,6.48264 -7.44362,9.53626 -0.29483,-2.88685 0.74428,-8.99638 2.84392,-11.9544 z"
 id="path4201-0-23-6-8"
 style="fill:#faf700;fill-opacity:1;stroke:none" />
<path
 d="m 196.08051,51.069914 9.6928,1.016949 c -0.24418,2.893659 -2.74175,4.727491 -5.625,4.608051 -2.91037,-0.120563 -4.84077,-3.016165 -4.0678,-5.625 z"
 id="path4427"
 style="fill:#008c31;fill-opacity:1;stroke:none" />
<path
 d="m 86.694915,110.1483 c 0.407543,-9.74369 -10.853244,-10.434342 -16.016949,-8.5805 -4.316369,1.54964 5.273359,6.73004 8.516949,10.10593 -5.273538,-0.86482 -9.862542,-1.30686 -11.059322,0.38135 -3.069902,4.33049 6.176213,5.53291 9.025424,11.44068 -3.739948,-0.77176 -8.126537,-2.21566 -9.40678,-0.38135 -4.632554,6.63743 1.145298,18.16933 8.135594,22.75423 22.548573,14.78949 50.137189,28.72046 79.067799,37.56356 -2.59837,-9.35387 -8.90649,-32.33466 -28.12594,-34.23667 -2.60834,-7.90862 -7.49081,-9.64385 -18.20881,-12.03451 C 85.295065,131.95773 86.287372,119.89199 86.694915,110.1483 z"
 id="path4429"
 style="fill:#faf700;fill-opacity:1;stroke:none" />
<path
 d="m 207.54783,236.04816 c -2.51989,-8.95473 -25.21238,-7.23514 -44.04437,0.53932 -19.22352,7.93609 -22.75737,36.15444 -30.38162,53.66221 -4.71022,-2.1024 -22.91535,-9.49317 -25.03338,-30.11197 -1.02617,-9.9897 -14.853552,-20.40558 -24.224397,-13.30319 -3.280934,2.4867 13.033538,6.70221 14.651492,9.79763 -0.07929,-0.14867 -11.815442,-1.70427 -12.943649,3.59546 -0.75067,3.52626 14.069477,6.43575 15.100924,8.71898 -6.244752,-0.39792 -10.117471,-0.64953 -11.685239,2.42694 -2.799854,5.49422 33.010699,50.12535 44.224139,48.4488 3.58735,-0.53635 31.54494,-23.45688 50.78584,-32.17935 4.82783,-16.69399 9.97986,-32.28365 23.55026,-51.59483 z"
 id="path4431"
 style="fill:#faf700;fill-opacity:1;stroke:none" />
</svg>
