<?xml version="1.0" encoding="UTF-8" standalone="no"?>
<!-- Created with Inkscape (http://www.inkscape.org/) -->

<svg
   xmlns:dc="http://purl.org/dc/elements/1.1/"
   xmlns:cc="http://creativecommons.org/ns#"
   xmlns:rdf="http://www.w3.org/1999/02/22-rdf-syntax-ns#"
   xmlns:svg="http://www.w3.org/2000/svg"
   xmlns="http://www.w3.org/2000/svg"
   version="1.1"
   width="390"
   height="480"
   id="svg4228">
  <metadata
     id="metadata13">
    <rdf:RDF>
      <cc:Work
         rdf:about="">
        <dc:format>image/svg+xml</dc:format>
        <dc:type
           rdf:resource="http://purl.org/dc/dcmitype/StillImage" />
        <dc:title></dc:title>
      </cc:Work>
    </rdf:RDF>
  </metadata>
  <defs
     id="defs4232" />
  <path
     d="M 0,0 C 130,0 260,0 390,0 389.98981,114.99797 370.78556,350.14732 194.88837,479.99815 20.79131,350.08886 0.081386,115.02225 0,0 z"
     id="path4240-0"
     style="fill:#008c31;fill-opacity:1;stroke:none" />
  <path
     d="m 167.03979,227.79558 c -6.40029,-5.84284 -8.89742,-14.92762 -8.96679,-22.21326 -5.2378,0.34021 -15.17192,8.28333 -18.20525,13.23349 -3.67727,6.00104 -0.74835,12.52838 5.59549,13.68572 7.21787,1.3168 15.93157,-1.22633 21.57655,-4.70595 z"
     id="path3729-0"
     style="fill:#faf700;fill-opacity:1;stroke:none" />
  <path
     d="m 239.51782,205.77302 c -2.07981,5.63877 -9.31897,13.90716 -11.46316,21.57421 6.7045,4.68381 11.71501,8.28689 22.66268,6.84183 8.17457,-1.07902 10.53762,-8.12133 7.19217,-13.78344 -4.47751,-7.57813 -6.56562,-9.30866 -18.39169,-14.6326 z"
     id="path3729-4"
     style="fill:#faf700;fill-opacity:1;stroke:none" />
  <path
     d="m 158.72759,201.99973 c 0.36972,10.64128 2.97211,21.31243 10.81295,26.33079 6.01608,-2.79735 9.0904,-13.13542 15.10513,-21.21321 1.3081,-1.75678 5.46702,-4.36116 7.75891,-2.88895 2.62918,1.68887 2.22863,8.00654 1.81592,11.72091 -3.18529,13.14582 -15.35785,19.57177 -22.45133,34.91512 -0.94283,2.03937 -1.86363,5.73989 0.16508,6.27316 5.98407,1.57299 6.81687,6.56415 4.29216,9.49229 -7.68208,8.90963 -16.1672,18.06726 -18.6544,26.66095 -0.77264,2.66959 0.51093,3.54275 3.05403,3.30167 4.43902,-0.42081 9.11208,-0.76965 7.84146,1.981 -4.02512,8.71362 -6.95933,14.3341 -6.60333,22.12116 0.22619,4.94767 10.92891,3.28626 10.8955,8.99704 -0.0381,6.51789 -1.15685,12.89831 -2.72388,18.98458 -1.55807,6.05147 3.92649,5.462 5.77792,5.03504 4.14218,-0.95523 8.78134,2.23735 8.41925,7.59383 -0.52659,7.79 8.06829,10.23787 5.86046,13.94954 -3.3096,8.02948 1.66355,8.25921 3.63183,9.40974 3.16834,1.85202 3.71972,2.29912 3.54929,6.35571 -0.20106,4.86825 6.50253,4.88373 7.01603,0.41272 0.5434,-4.73123 2.71063,-6.32408 6.35572,-5.69538 10.4917,1.80958 2.65179,-12.39911 12.62887,-11.47329 11.03699,1.02418 0.0813,-14.60732 10.48279,-14.03208 9.08341,0.50235 4.20479,-12.64641 0.82541,-15.10512 -5.77513,-4.20176 -1.32633,-11.66581 3.79692,-11.80346 9.17444,-0.24649 3.56943,-10.96068 0.24762,-13.70191 -8.87784,-7.32617 -12.78444,-22.16175 -6.68587,-23.1942 5.39301,-0.91301 5.26609,-8.9865 1.23813,-12.71142 -8.32358,-7.69736 -16.57281,-20.19127 -11.39075,-23.77199 6.4939,-4.48718 5.29768,-7.40213 2.31116,-9.65738 -9.62226,-7.26618 -19.46732,-15.85204 -21.2132,-22.94658 -2.13735,-8.68534 -4.21896,-17.59647 -2.72388,-20.71795 1.22493,-2.55745 2.96016,-3.19564 4.37472,-3.962 l -17.41629,-6.60333 c -2.8335,-1.07431 0.33193,2.62577 -0.37144,4.53979 -1.2503,1.12864 -3.17761,3.53692 -6.39698,2.64134 -6.91241,-1.92293 -14.36692,-3.9599 -21.62591,-1.23813 z"
     id="path3683"
     style="fill:#faf700;fill-opacity:1;stroke:none" />
  <path
     d="m 186.48905,160.29169 c 4.63511,0.98069 11.1971,1.63085 19.95089,-0.5868 1.41603,-12.72362 -0.63515,-18.83823 -2.84975,-23.28984 -2.17841,-4.37886 -9.44311,-4.20065 -12.17611,0.81436 -3.65782,6.71202 -6.27561,11.20983 -4.92503,23.06228 z"
     id="path3729"
     style="fill:#faf700;fill-opacity:1;stroke:none" />
  <path
     d="m 226.19854,230.51995 c 2.87025,-14.93833 16.62493,-25.7374 11.74889,-28.888 -6.80432,-4.39655 -16.46984,0.33626 -26.0097,1.28848 -2.17948,0.21754 -6.81059,-1.58871 -7.0752,-4.29982 -0.30353,-3.1101 4.90335,-6.71035 8.07446,-8.68795 9.98059,-10.59797 40.72595,-13.93999 57.16418,-17.87965 2.18489,-0.52363 5.65996,-2.09386 4.82146,-4.01662 -2.47329,-5.67152 0.59803,-9.0877 4.4607,-8.92044 11.75317,0.50891 15.61425,1.1643 23.90052,-2.20845 2.57409,-1.04772 3.21474,-3.99912 0.69908,-4.4429 -7.04286,-1.24241 -7.03818,-6.31874 -5.61512,-7.71237 6.48315,-6.34907 20.35037,-5.40054 26.73703,-11.99082 3.44681,-3.5567 -9.85381,-10.95925 -6.78807,-15.77748 3.07591,-4.83421 8.4323,-6.04445 14.19494,-8.55246 5.76519,-2.50912 6.05788,-9.070853 1.19721,-11.451837 -3.8175,-1.869988 -1.12633,-4.811994 3.30229,-7.846844 6.4406,-4.41361 -0.51303,-10.860533 4.75877,-11.510031 8.84826,-2.295099 6.27722,-9.229796 5.96066,-11.487593 -0.50958,-3.634371 -2.56385,-3.518771 0.72574,-5.898594 3.94564,-2.858714 0.21674,-9.037863 -3.61071,-6.670524 -4.05021,2.505113 -9.28465,2.864097 -11.0498,-0.386469 -5.08066,-9.356135 -9.8068,9.068264 -15.26225,0.663661 -6.03501,-9.297469 -11.51555,8.987352 -17.50915,0.466862 -5.23408,-7.440771 -12.53149,4.535812 -12.36735,8.711761 0.28053,7.136401 -8.33457,8.26953 -11.61714,4.333626 -5.87824,-7.048215 -10.81468,3.989971 -10.90795,8.295783 -0.24927,11.507686 -7.49195,23.766546 -12.08118,19.619556 -4.0583,-3.6672 -8.1704,4.406519 -8.5982,9.876123 -0.88404,11.30264 3.00541,26.83969 -10.44479,22.51481 -7.51446,-2.41626 -8.74129,0.5933 -8.68192,4.33509 0.40371,25.27987 -1.48251,49.11289 -25.0526,60.70146 -2.81171,0.36794 -3.68212,-1.99411 -5.16013,-2.62953 l 3.38016,18.91713 c -0.67145,-0.13325 1.10293,-4.95541 6.02202,-3.67704 1.93433,0.50269 4.74506,0.3025 6.03695,3.38429 2.77385,6.617 0.191,12.56284 14.6462,21.82679 z"
     id="path3683-7"
     style="fill:#faf700;fill-opacity:1;stroke:none" />
  <path
     d="m 210.43817,159.68379 c -10.23386,3.05017 -18.50199,3.11417 -26.9242,0.96478 -1.81288,12.25916 9.68302,16.37967 10.78989,25.90283 0.25288,2.17566 2.0713,8.40377 -0.63516,8.71233 -3.10476,0.35396 -7.29138,-4.77199 -9.80831,-7.51974 -12.03434,-13.13791 -4.14277,-21.82136 -9.84464,-29.3078 -6.14899,-8.07351 -0.76529,-15.08451 -3.76001,-19.30459 -1.30026,-1.83229 -2.24454,-5.7448 -4.09432,-4.75566 -9.42756,5.04123 -11.57245,-8.37451 -11.46788,-12.23939 0.31814,-11.75987 3.71723,-15.79616 -2.59595,-23.86153 -1.71301,-2.188443 -7.75114,-1.775031 -7.09498,0.693765 2.0086,7.557345 -3.33997,5.550705 -4.97893,4.418845 -10.91066,-7.534866 -5.35884,-23.313799 -11.76271,-27.859631 -9.5929,-6.8096 -8.98201,12.176405 -16.32559,8.363828 -5.08531,-2.64015 -6.08936,-8.375425 -8.78165,-14.054314 C 98.405327,59.821624 91.344453,62.111689 89.04265,67.010351 87.234844,70.857688 82.07472,70.62569 81.473421,65.816803 80.106336,54.883552 70.22853,67.076896 69.062279,61.905747 67.055224,53.006472 63.812287,52.997021 62.43199,54.811588 c -2.960841,3.892384 -5.148491,3.836522 -7.725508,-0.1347 -2.652307,-4.087246 -9.700523,-0.235153 -7.271397,3.553383 2.570497,4.009038 0.626506,7.291363 -2.353221,9.238696 -15.143435,9.89665 10.050089,10.679968 0.746116,18.055892 -12.943664,10.261367 8.347593,12.523793 -0.07453,18.654861 -7.354871,5.35411 4.732953,12.30894 8.911273,12.22437 11.092909,-0.23121 10.054501,8.03422 6.172368,11.38021 -6.951911,5.99182 4.282436,11.77144 8.471676,10.77192 22.570791,-5.38525 26.434665,5.79661 21.959065,9.94535 -4.839475,4.48605 3.878169,9.08833 10.014318,8.43684 11.2738,-1.19697 30.35226,1.47339 22.18606,8.26219 -6.45492,5.36617 2.26593,10.85287 4.97063,10.42637 23.89032,-3.76719 24.6432,5.5877 39.27229,4.77548 5.67052,-0.31483 14.25689,10.78154 19.18633,18.38099 0.41351,2.80538 -1.85157,4.04416 -2.46293,5.53229 l 21.41859,-3.10885 c 0.67745,-0.0983 2.89819,-11.72985 -1.54564,-9.26324 -4.23363,2.34994 -5.57993,-6.93708 -0.67609,-11.1261 8.14228,-6.9554 7.6088,-15.75603 6.80678,-21.13375 z"
     id="path3683-7-4"
     style="fill:#faf700;fill-opacity:1;stroke:none" />
</svg>
