<?xml version="1.0" encoding="UTF-8" standalone="no"?>
<!-- Created with Inkscape (http://www.inkscape.org/) -->

<svg
   xmlns:svg="http://www.w3.org/2000/svg"
   xmlns="http://www.w3.org/2000/svg"
   version="1.1"
   width="390"
   height="480"
   id="svg4228">
  <defs
     id="defs4232" />
  <path
     d="m 0.51202379,0.50512952 c 129.66265621,0 259.32532621,0 388.98797621,0 C 389.48983,115.23328 370.33544,349.8309 194.89467,479.37706 21.249382,349.77255 0.5931986,115.2575 0.51202379,0.50512952 z"
     id="path4240-0-1"
     style="fill:#e0e0e0;fill-opacity:1;stroke:#999999;stroke-width:0.99999905;stroke-opacity:1" />
  <path
     d="m 26.915475,212.38194 48.826905,-31.14466 0.316983,-67.69389 41.334707,-27.014282 41.08109,26.128572 0.11096,67.53572 36.94446,27.93163 36.91544,-28.00406 -0.0448,-67.63982 41.51102,-25.924122 41.19922,26.981552 0,66.63327 48.58873,31.94228 C 375.62357,169.67374 389.91514,85.94643 389.00245,0.99447 L 0.99844448,1.0022818 C 1.0846784,88.350774 12.871262,160.11604 26.915475,212.38194 z"
     id="path2854"
     style="fill:#207dbf;fill-opacity:1;stroke:none" />
</svg>
