<?xml version="1.0" encoding="UTF-8" standalone="no"?>
<!-- Created with Inkscape (http://www.inkscape.org/) -->

<svg
   xmlns:dc="http://purl.org/dc/elements/1.1/"
   xmlns:cc="http://creativecommons.org/ns#"
   xmlns:rdf="http://www.w3.org/1999/02/22-rdf-syntax-ns#"
   xmlns:svg="http://www.w3.org/2000/svg"
   xmlns="http://www.w3.org/2000/svg"
   version="1.1"
   width="390"
   height="480"
   id="svg4228">
  <metadata
     id="metadata16">
    <rdf:RDF>
      <cc:Work
         rdf:about="">
        <dc:format>image/svg+xml</dc:format>
        <dc:type
           rdf:resource="http://purl.org/dc/dcmitype/StillImage" />
        <dc:title></dc:title>
      </cc:Work>
    </rdf:RDF>
  </metadata>
  <defs
     id="defs4232" />
  <path
     d="M 0,0 C 130,0 260,0 390,0 389.98981,114.99797 370.78556,350.14732 194.88837,479.99815 20.79131,350.08886 0.081386,115.02225 0,0 z"
     id="path4240-0"
     style="fill:#008c31;fill-opacity:1;stroke:none" />
  <path
     d="m 107.39643,326.81163 36.53697,-12.72374 -6.88716,-23.46304 c -2.25563,-7.68442 -11.81452,-3.61467 -18.79378,-3.38521 C 76.974889,185.6021 130.40974,117.4651 194.6332,117.64216 c 87.923,0.2424 111.3387,99.79652 78.41457,169.54055 -5.09185,-2.12768 -17.16588,-5.6415 -19.81,4.12708 l -5.94299,21.95608 36.15324,12.54633 c 22.2644,-32.27615 44.8871,-80.65859 45.48045,-128.35226 0.48868,-39.27998 -20.96038,-84.12741 -74.7002,-125.793469 -2.75273,-2.134275 -9.02436,-0.606053 -13.53682,-0.907958 L 229.79595,52.269184 C 206.86797,43.30495 184.32474,42.420631 162.27688,51.939017 L 149.2353,71.253763 c -4.97339,0.166138 -10.93735,-0.826825 -14.19716,1.815916 -30.85161,25.011511 -72.457538,67.062161 -71.646155,124.225171 0.55551,39.13641 16.587156,84.36416 44.004445,129.51678 z"
     id="path2827"
     style="fill:#f2f2f2;stroke:none" />
  <path
     d="m 311.67757,186.9702 c -0.15216,-5.64012 -13.98167,-5.1365 -13.92058,-0.20946 l 0.20099,16.20995 c 0.0661,5.33107 14.2897,5.13134 14.14659,-0.17331 l -0.427,-15.82718 z"
     id="path2851-0"
     style="fill:#008c31;fill-opacity:1;stroke:none" />
  <path
     d="m 291.74757,136.73102 c -2.72739,-4.93918 -14.77821,1.86428 -12.45943,6.212 l 7.62875,14.30403 c 2.50891,4.70425 15.0494,-2.01044 12.48423,-6.65583 l -7.65355,-13.8602 z"
     id="path2851-0-9"
     style="fill:#008c31;fill-opacity:1;stroke:none" />
  <path
     d="m 257.24798,95.927513 c -4.25853,-3.70122 -13.23771,6.828887 -9.56615,10.115097 l 12.07942,10.81159 c 3.97263,3.55567 13.44217,-7.05935 9.43693,-10.54042 l -11.9502,-10.386267 z"
     id="path2851-0-8"
     style="fill:#008c31;fill-opacity:1;stroke:none" />
  <path
     d="m 308.74671,244.62473 c 1.52536,-5.43207 -11.83267,-9.04759 -13.23379,-4.32357 l -4.60969,15.542 c -1.51602,5.11139 12.1284,9.13389 13.56304,4.02492 l 4.28044,-15.24335 z"
     id="path2851-0-2"
     style="fill:#008c31;fill-opacity:1;stroke:none" />
  <path
     d="m 80.555287,243.99553 c -1.52536,-5.43207 11.832671,-9.04759 13.233791,-4.32357 l 4.609689,15.542 c 1.51602,5.11139 -12.1284,9.13389 -13.56304,4.02492 l -4.28044,-15.24335 z"
     id="path2851-0-2-4"
     style="fill:#008c31;fill-opacity:1;stroke:none" />
  <path
     d="m 90.938831,187.14859 c -0.15216,-5.64012 -13.981666,-5.1365 -13.920576,-0.20946 l 0.20099,16.20995 c 0.0661,5.33107 14.289696,5.13134 14.146586,-0.17331 l -0.427,-15.82718 z"
     id="path2851-0-5"
     style="fill:#008c31;fill-opacity:1;stroke:none" />
  <path
     d="m 97.001947,136.66607 c 2.72739,-4.93918 14.778213,1.86428 12.459433,6.212 l -7.62875,14.30403 c -2.508913,4.70425 -15.049403,-2.01044 -12.484233,-6.65583 l 7.65355,-13.8602 z"
     id="path2851-0-9-5"
     style="fill:#008c31;fill-opacity:1;stroke:none" />
  <path
     d="m 131.66053,96.147893 c 4.25853,-3.70122 13.23771,6.828887 9.56615,10.115097 l -12.07942,10.81159 c -3.97263,3.55567 -13.44217,-7.05935 -9.43693,-10.54042 l 11.9502,-10.386267 z"
     id="path2851-0-8-1"
     style="fill:#008c31;fill-opacity:1;stroke:none" />
</svg>
