<?xml version="1.0" encoding="UTF-8" standalone="no"?>
<!-- Created with Inkscape (http://www.inkscape.org/) -->

<svg
   xmlns:svg="http://www.w3.org/2000/svg"
   xmlns="http://www.w3.org/2000/svg"
   version="1.1"
   width="390"
   height="480"
   id="svg4228">
  <defs
     id="defs4232" />
  <path
     d="M 0,0 C 130,0 260,0 390,0 389.98981,114.99797 370.78556,350.14732 194.88837,479.99815 20.79131,350.08886 0.081386,115.02225 0,0 z"
     id="path4240-0"
     style="fill:#008c31;fill-opacity:1;stroke:none" />
  <path
     d="M 90.915033,251.30719 78.75817,262.7451 70,237.38562 73.660131,209.86928 57.908497,216.14379 58.104575,188.16993 70.915033,165.29412 54.379085,165.1634 63.594771,139.28105 83.72549,121.69935 66.993464,117.12418 83.594771,96.732021 108.23529,85.62091 96.732026,75.294113 115.09804,62.875812 l 31.63399,-1.045752 -9.08497,-15.947712 29.08497,-2.614379 23.72549,10.196078 -3.26798,-20.326797 24.05229,6.470588 21.69935,18.300654 2.09151,-18.888889 20.19607,12.810457 c 0,0 15.49019,26.143791 15.29412,25.816994 -0.19607,-0.326797 11.30719,-16.339869 11.30719,-16.339869 l 15.35947,19.93464 3.98692,26.274515 13.00654,-9.934645 8.49673,21.764705 -3.13726,27.45098 15.62092,-5.68627 -0.19608,25.42484 -12.87582,24.24836 16.4706,0.78432 -7.77778,24.8366 -19.86928,18.75817 15.68628,5.62091 -15.68628,19.41177 -25.94772,11.56863 10,10.91503 -19.80392,12.54902 -28.49673,1.17647 7.64706,14.5098 -25.29411,4.70588 -24.31373,-8.49673 3.39869,15.68628 -23.13725,-1.96079 -22.94119,-17.2549 -2.74509,16.14379 -24.05228,-13.98693 -14.18301,-22.02614 -8.56209,12.87582 -15.163398,-17.12419 -6.405229,-28.16993 z"
     id="path3718"
     style="fill:#ececec;stroke:none" />
  <path
     d="m 214.64051,178.36602 a 18.95425,19.411767 0 0 1 -37.9085,0 18.95425,19.411767 0 1 1 37.9085,0 z"
     id="path3720"
     style="fill:#008c31;fill-opacity:1;stroke:none" />
</svg>
