<?xml version="1.0" encoding="UTF-8" standalone="no"?>
<!-- Created with Inkscape (http://www.inkscape.org/) -->

<svg
   xmlns:dc="http://purl.org/dc/elements/1.1/"
   xmlns:cc="http://creativecommons.org/ns#"
   xmlns:rdf="http://www.w3.org/1999/02/22-rdf-syntax-ns#"
   xmlns:svg="http://www.w3.org/2000/svg"
   xmlns="http://www.w3.org/2000/svg"
   xmlns:xlink="http://www.w3.org/1999/xlink"
   version="1.1"
   width="390"
   height="480"
   id="svg4228">
  <metadata
     id="metadata16">
    <rdf:RDF>
      <cc:Work
         rdf:about="">
        <dc:format>image/svg+xml</dc:format>
        <dc:type
           rdf:resource="http://purl.org/dc/dcmitype/StillImage" />
        <dc:title></dc:title>
      </cc:Work>
    </rdf:RDF>
  </metadata>
  <defs
     id="defs4232" />
  <path
     d="M 0,0 C 130,0 260,0 390,0 389.98981,114.99797 370.78556,350.14732 194.88837,479.99815 20.79131,350.08886 0.081386,115.02225 0,0 z"
     id="path4240-0"
     style="fill:#008c31;fill-opacity:1;stroke:none" />
  <path
     d="M 94.259486,137.08822 C 81.567307,145.315 69.973328,153.17381 68.521401,168.09338 66.917587,184.5737 55.601564,192.70046 49.2607,202.29572 c 4.731928,-0.51258 9.486161,-1.91825 14.066148,-5.83658 l -3.735408,7.87938 c 3.615524,-0.32268 7.016463,-1.35488 10.972763,-5.01945 l -2.568094,7.00389 c 3.576587,-0.99858 6.376121,-2.61741 8.988327,-5.07782 l -1.750973,5.54474 c 3.315888,-1.00889 5.091744,-1.05313 8.988327,-4.55253 l -1.342412,4.08561 c 5.412079,-0.75524 9.987206,-2.25731 12.315175,-7.70428 8.030127,-18.78886 25.805137,-20.05519 38.054477,-35.66148 -13.29296,-5.76508 -28.26214,-16.05681 -38.989544,-25.86898 z"
     id="path2827"
     style="fill:#f2f2f2;stroke:none" />
  <use
     transform="translate(146,0)"
     id="use3002"
     x="0"
     y="0"
     width="390"
     height="480"
     xlink:href="#path2829" />
  <path
     d="m 178.83269,15.700393 c 0.73445,4.280372 0.51451,8.77765 -2.15954,13.83268 3.78852,-2.71304 7.1783,-6.090645 10.50584,-9.571985 -0.26678,4.103568 -0.87013,8.296886 -3.44358,13.015565 4.24256,-1.972739 7.72488,-5.085829 11.38132,-7.937744 -1.20148,4.396887 -1.93501,8.793775 -4.90272,13.190662 3.86433,-1.525952 7.41064,-3.846933 10.97276,-6.128405 -1.01868,4.662206 -2.14387,9.291131 -5.60311,13.190662 3.33061,-0.556189 7.01992,-1.740118 10.97276,-3.385214 -1.84736,4.646915 -3.77027,9.238885 -7.29572,12.665369 3.61638,0.04705 5.23868,-0.349034 7.58755,-0.583657 -1.75789,18.201623 -15.7775,34.09671 -26.38132,43.48249 -0.16682,11.451884 -2.7308,22.826434 -12.49028,33.968874 -1.7176,8.23442 9.73777,12.82163 11.67315,13.07392 5.43038,0.70789 15.65715,1.03657 26.14787,-0.70038 0.29621,21.11584 -11.90169,53.14289 -43.19067,58.59922 -5.01346,-10.50583 -10.53243,-22.24737 -12.19672,-32.9283 12.0391,2.3061 18.56419,3.40551 29.23953,-2.26625 -23.27342,11.24451 -61.84087,-12.13862 -84.630355,-31.80934 -1.344722,-4.62136 -0.842663,-10.37671 0.116732,-15.87549 0.643526,-3.68837 -0.19443,-7.65692 -6.653697,-8.75486 -9.362444,-1.59142 -16.288152,-6.36985 -20.719844,-12.548639 L 60,98.171205 c 3.325757,-5.191141 7.932855,-5.445316 11.264592,-11.439689 5.26798,-7.180873 21.672645,-6.505234 27.140078,-0.05836 7.10046,8.372442 11.02602,20.760794 31.51751,18.035024 8.7208,-13.408605 6.41637,-24.508998 7.93774,-33.50195 3.89781,-23.040344 28.15659,-33.977643 40.97277,-55.505837 z"
     id="path2829"
     style="fill:#f2f2f2;stroke:none" />
  <path
     d="m 72.840467,90.613173 c -0.503913,0.459666 -0.941749,1.262252 -0.554474,1.429628 2.631683,-1.503249 6.848791,0.987999 6.157587,-2.822906 -1.184389,-3.616628 -5.287903,-1.364659 -5.603113,1.393278 z"
     id="path3605"
     style="fill:#008c31;fill-opacity:1;stroke:none" />
  <use
     transform="translate(80.981203,181.83236)"
     id="use3008"
     x="0"
     y="0"
     width="390"
     height="480"
     xlink:href="#path2829" />
  <use
     transform="translate(146,0)"
     id="use3000"
     x="0"
     y="0"
     width="390"
     height="480"
     xlink:href="#path2827" />
  <use
     transform="translate(146,0)"
     id="use3004"
     x="0"
     y="0"
     width="390"
     height="480"
     xlink:href="#path3605" />
  <use
     transform="translate(80.981203,181.83236)"
     id="use3006"
     x="0"
     y="0"
     width="390"
     height="480"
     xlink:href="#path2827" />
  <use
     transform="translate(80.981203,181.83236)"
     id="use3010"
     x="0"
     y="0"
     width="390"
     height="480"
     xlink:href="#path3605" />
</svg>
