<?xml version="1.0" encoding="UTF-8" standalone="no"?>
<!-- Created with Inkscape (http://www.inkscape.org/) -->

<svg
   xmlns:svg="http://www.w3.org/2000/svg"
   xmlns="http://www.w3.org/2000/svg"
   version="1.1"
   width="390"
   height="480"
   id="svg4228">
  <defs
     id="defs4232" />
  <path
     d="M 0.00351796,0.00350638 390.01124,-0.03065059 C 389.99631,270.00335 389.99205,273.98676 389.99209,273.99895 390.99231,548.63218 0.01014203,548.63782 0.0068261,273.99819 L 0.00351796,0.00350638 z"
     id="path2902"
     style="fill:#008c31;fill-opacity:1;stroke:none" />
  <path
     d="m 300.41886,156.04006 c 4.54244,-10.69169 8.30628,-16.07754 11.27182,-18.30701 5.00813,-3.76507 56.70154,9.96324 52.24576,17.16102 l -4.95763,8.00847 c 3.34594,1.43526 5.83831,3.05945 3.73214,6.29837 -10.28284,15.81321 -42.21187,35.6 -70.40587,54.65503 -28.194,19.05503 -63.24274,38.05958 -53.8983,65.46609 5.17751,15.18523 14.76257,32.95225 24.62924,47.66949 l -134.01881,-0.004 c 9.12085,-12.86596 16.44091,-29.3112 21.58143,-40.08202 17.21122,-36.06227 -35.00643,-50.74621 -58.124064,-64.9975 -44.72112,-27.56915 -64.1901,-56.80964 -65.466101,-84.40678 -3.018197,-65.277097 97.392445,-80.72466 88.180495,-13.29181 -6.29444,2.54554 -19.316595,7.42612 -24.430214,9.10541 -0.212959,-1.15665 1.649338,-12.729 -8.933295,-18.76385 -9.964319,-5.68225 -27.711612,3.25845 -21.535764,16.06227 5.185112,10.74981 14.948244,8.89704 28.832031,4.36891 10.466562,-3.41362 21.120882,-7.66845 26.027402,-9.57876 49.7774,-18.63435 112.00062,-11.68823 144.78553,-0.29388 9.55501,2.57834 15.04327,12.71192 24.99749,12.85656 l 17.0188,0.24728 c -0.3724,2.4796 -1.02462,4.78378 -1.53209,7.82671 z"
     id="path3599"
     style="fill:#ececec;stroke:none" />
  <path
     d="m 173.05179,159.68819 c -2.67375,-4.7509 -12.5567,-8.78267 -18.41314,-2.72635 -3.7545,3.88264 -1.28783,12.21911 6.49891,12.11175 9.32744,-0.12861 15.22348,-3.5053 11.91423,-9.3854 z"
     id="path3603-1"
     style="fill:#008c31;fill-opacity:1;stroke:none" />
</svg>
