<?xml version="1.0" encoding="UTF-8" standalone="no"?>
<!-- Created with Inkscape (http://www.inkscape.org/) -->

<svg
   xmlns:svg="http://www.w3.org/2000/svg"
   xmlns="http://www.w3.org/2000/svg"
   version="1.1"
   width="390"
   height="480"
   id="svg4228">
  <defs
     id="defs4232" />
  <path
     d="M 1.4998543,1.5124544 388.50451,1.500982 c -0.0148,268.350348 -0.019,272.308928 -0.019,272.321028 C 389.47805,546.74292 1.5064276,546.74853 1.5031372,273.82126 L 1.4998543,1.5124544 z"
     id="path2902"
     style="fill:#1659b2;fill-opacity:1;stroke:#000000;stroke-width:2.98619199;stroke-miterlimit:4;stroke-opacity:1;stroke-dasharray:none" />
  <path
     d="m 68.266752,333.93107 c 2.180087,1.53315 1.666056,0.69204 4.05497,1.67803 -13.281362,8.44439 -2.718381,19.39012 -13.403786,30.66128 6.284658,-15.119 -1.146171,-19.9185 9.348816,-32.33931 z"
     id="path2825"
     style="fill:#c99245;fill-opacity:1;stroke:#000000;stroke-width:1.21149898;stroke-linecap:butt;stroke-linejoin:miter;stroke-miterlimit:4;stroke-opacity:1;stroke-dasharray:none" />
  <path
     d="m 80.919621,328.84105 c -1.594726,0.28932 -1.613206,-0.0889 -3.31568,-0.1366 -0.368817,8.29145 -17.39259,1.92338 -8.750336,-5.4098 -3.62247,-2.91629 -1.677766,-0.6727 -2.849791,-2.4554 -11.382821,13.42326 14.47831,21.31359 14.915807,8.0018 z"
     id="path2823"
     style="fill:#c99245;fill-opacity:1;stroke:#000000;stroke-width:1.21149898;stroke-linecap:butt;stroke-linejoin:miter;stroke-miterlimit:4;stroke-opacity:1;stroke-dasharray:none" />
  <path
     d="m 84.531234,319.70446 c -1.232379,12.92938 -23.398277,1.82275 -13.499991,-7.16281 -1.564357,-1.3913 -1.004927,-2.55907 -1.893522,-4.03482 -15.333986,13.52122 16.096386,33.41151 19.819933,10.28109 -2.080399,0.74489 -2.435915,0.81833 -4.42642,0.91654 z"
     id="path2821"
     style="fill:#c99245;fill-opacity:1;stroke:#000000;stroke-width:1.21149898;stroke-linecap:butt;stroke-linejoin:miter;stroke-miterlimit:4;stroke-opacity:1;stroke-dasharray:none" />
  <path
     d="m 94.077913,308.59658 c -0.909492,0.82422 -2.098381,1.18909 -3.728293,1.00287 0.833053,14.35846 -29.603086,2.02475 -16.882733,-8.72178 -1.837654,-1.63334 -1.561336,-1.54224 -2.846844,-3.13703 -17.664615,16.61633 24.099516,34.4531 23.45787,10.85594 z"
     id="path2819"
     style="fill:#c99245;fill-opacity:1;stroke:#000000;stroke-width:1.21149898;stroke-linecap:butt;stroke-linejoin:miter;stroke-miterlimit:4;stroke-opacity:1;stroke-dasharray:none" />
  <path
     d="m 101.17481,298.09728 c -2.00166,0.87486 -2.52076,1.63968 -4.911717,1.73026 -1.543679,16.68966 -29.035233,2.83934 -20.94397,-8.56877 -1.705319,-2.19827 -1.105541,-4.18931 -1.7088,-7.16994 -17.216818,21.61909 25.547087,42.0121 27.564487,14.00845 z"
     id="path2817"
     style="fill:#c99245;fill-opacity:1;stroke:#000000;stroke-width:1.21149898;stroke-linecap:butt;stroke-linejoin:miter;stroke-miterlimit:4;stroke-opacity:1;stroke-dasharray:none" />
  <path
     d="m 350.71132,285.72797 c 0.61926,1.67004 0.61795,1.45228 0.0262,3.76335 7.7879,-3.0016 8.58919,8.44608 20.92156,1.01592 -13.88631,1.9387 -9.3344,-5.51573 -20.94779,-4.77927 z"
     id="path2826"
     style="fill:#c99245;fill-opacity:1;stroke:#000000;stroke-width:1.21149898;stroke-linecap:butt;stroke-linejoin:miter;stroke-miterlimit:4;stroke-opacity:1;stroke-dasharray:none" />
  <path
     d="m 338.99845,296.56548 c 0.74225,-0.36442 1.6884,-1.58046 2.07864,-2.39402 11.45941,9.83293 12.57836,-14.12085 1.1487,-8.93868 -0.26828,-1.61537 -0.23646,-2.75006 -0.79395,-3.85962 16.63368,-4.46182 15.65112,27.93031 -2.43339,15.19232 z"
     id="path2824"
     style="fill:#c99245;fill-opacity:1;stroke:#000000;stroke-width:1.21149898;stroke-linecap:butt;stroke-linejoin:miter;stroke-miterlimit:4;stroke-opacity:1;stroke-dasharray:none" />
  <path
     d="m 328.49229,277.6609 c 1.08637,1.79414 2.28465,2.13714 2.54484,3.85423 13.57861,-5.21408 13.68467,20.07488 -0.74344,13.59082 -1.09407,1.23923 -1.06983,1.69812 -2.71821,2.43139 19.45099,12.69781 25.81158,-25.2408 0.91681,-19.87644 z"
     id="path2822"
     style="fill:#c99245;fill-opacity:1;stroke:#000000;stroke-width:1.21149898;stroke-linecap:butt;stroke-linejoin:miter;stroke-miterlimit:4;stroke-opacity:1;stroke-dasharray:none" />
  <path
     d="m 318.48329,295.12051 c 15.51045,5.67066 15.20237,-19.76395 2.01971,-18.22256 -0.3209,-1.44829 -0.96866,-4.25677 -2.17322,-5.25677 20.49216,-3.76395 23.59761,35.21569 -3.58647,26.8765 1.28795,-1.56565 0.83067,0.0504 3.73998,-3.39717 z"
     id="path3602"
     style="fill:#c99245;fill-opacity:1;stroke:#000000;stroke-width:1.21149898;stroke-linecap:butt;stroke-linejoin:miter;stroke-miterlimit:4;stroke-opacity:1;stroke-dasharray:none" />
  <path
     d="m 301.65363,295.76509 c 2.91581,-1.46102 3.12365,-1.40349 4.11024,-2.95549 14.75387,9.56585 19.7412,-23.06164 1.12333,-19.82087 -0.27185,-3.07256 -2.81054,-4.28694 -3.41858,-5.35547 31.35697,-4.27044 21.10937,45.38148 -1.81499,28.13183 z"
     id="path3600"
     style="fill:#c99245;fill-opacity:1;stroke:#000000;stroke-width:1.21149898;stroke-linecap:butt;stroke-linejoin:miter;stroke-miterlimit:4;stroke-opacity:1;stroke-dasharray:none" />
  <path
     d="m 255.20187,170.57498 c -2.11566,-1.20372 -4.16224,-0.8428 -5.98892,-0.52247 4.74401,-3.43059 8.12327,-8.33558 9.38984,-13.40207 -0.80923,-1.12627 -5.60338,-3.15831 -12.7695,-0.25668 1.17131,-1.64042 2.7736,-2.84991 4.45228,-3.98299 -12.14517,-3.28925 -23.96736,5.29657 -33.84141,10.14317 -2.16917,1.06472 -4.87191,-2.51202 -2.11756,-3.97845 21.30336,-11.34198 36.21875,-8.9595 40.81109,-14.37372 -0.97772,-1.73082 -3.31497,-2.75253 -5.4712,-3.28092 4.83051,-0.96251 12.05388,-6.12753 12.98007,-10.83647 1.1726,-5.96194 2.34866,-7.77219 5.75196,-9.69229 -3.4829,-3.11574 -7.48164,1.18803 -9.98825,-2.82018 5.93015,-4.49028 7.23681,-19.884957 2.8876,-22.202261 0.28645,0.620642 -2.46292,5.054971 -8.98359,4.876811 -2.42971,-0.0659 -6.80829,2.53558 -6.80829,2.53558 1.74209,-2.53522 1.60807,-4.290698 0.58396,-6.514035 -2.46306,4.154735 -18.10289,9.037135 -33.62423,26.116535 -2.75851,3.03541 -5.40004,0.39268 -3.14424,-2.18173 7.63284,-8.71089 19.43583,-12.62978 26.083,-22.466973 2.79755,-4.042155 3.42276,-8.881397 6.02453,-13.032373 -1.86167,-0.177877 -4.58147,-0.470296 -5.99101,1.554274 -1.04716,-5.439167 7.4315,-14.328283 1.21921,-20.983055 -2.39593,6.367453 -8.4155,4.415194 -11.03697,9.561086 1.11091,-5.356929 0.45661,-8.44741 -2.2459,-11.614475 -1.33462,-1.56405 -0.21103,-4.739389 2.2071,-6.295617 -2.30295,-3.087984 -7.68053,-4.532491 -11.41526,-0.762904 7.37146,-11.224748 -1.51446,-13.461717 3.49718,-21.175562 -2.48309,-0.750436 -9.45441,0.745576 -11.29364,5.935574 -3.44953,-9.624711 8.6687,-17.259994 0.57752,-25.571095 -2.58429,11.546221 -20.50018,9.271305 -25.154,29.453283 -1.33955,-0.766793 -2.65941,-3.938053 -1.79672,-6.545175 -7.06287,1.455782 -13.27099,13.839404 -12.19199,24.255644 -0.44519,-0.81009 -2.63027,-3.154528 -3.72176,-3.721765 -3.80369,2.915496 -7.47374,11.042138 -4.68429,19.250511 -1.44703,-1.634243 -3.8037,-3.879465 -6.29762,-4.340876 0.28868,3.717146 -1.08431,8.90389 0.0423,12.991859 3.48949,12.661363 16.59396,22.617139 20.05147,31.748509 2.05099,5.41667 -2.55548,6.93303 -3.46508,3.23501 -5.74619,-23.36151 -22.9135,-19.99725 -23.51865,-35.591437 -4.12381,1.919978 -6.38101,5.571033 -7.66718,10.473679 -0.98067,-6.203347 -8.41385,-9.221843 -7.95232,-16.869833 -15.91151,19.536259 -2.89945,28.747411 -3.44763,33.278131 -3.65242,-0.70511 -5.53827,-3.34557 -7.00859,-5.61243 -7.89111,10.39479 -1.94449,26.5457 7.83822,31.34529 -3.41548,-0.15048 -4.67033,0.7185 -5.88014,2.01125 13.51373,16.02337 30.7283,6.74419 40.49158,13.99099 1.83041,1.35861 1.01127,5.37045 -1.48594,3.31151 -10.98219,-9.05478 -23.66967,-0.44116 -33.20713,-6.6272 -0.31122,1.96783 -0.24825,5.98904 3.08009,8.08521 -4.18892,-0.37729 -5.60238,-1.58945 -8.85524,-5.00513 -2.28868,10.01025 3.95766,10.29078 1.73253,15.0154 0.25641,5.54014 5.1061,9.69543 12.06367,11.10113 -4.69751,2.11425 -5.12504,2.11967 -9.68943,11.22946 19.67401,-2.2839 18.72279,4.06163 32.4692,4.68429 16.22604,0.73499 17.42016,-13.31063 28.16992,-19.76385 -3.24727,18.58739 -2.96754,34.21829 3.76788,49.62167 10.70984,24.76496 30.58037,65.07771 -8.94535,112.7519 -4.24769,0.3235 -9.13061,0.64703 -13.3783,0.97053 7.08316,-10.71549 15.2805,-21.08823 25.23244,-31.97247 -2.68074,-7.43015 -20.97343,-4.00691 -25.2005,0.29238 -4.76047,4.85162 -9.99376,10.35958 -19.23178,20.4783 16.27525,-28.03985 11.12807,-54.98265 4.58568,-62.58527 -20.66218,-24.01064 -34.66825,-25.94783 -67.474202,-61.36563 27.257312,5.26628 20.801672,-15.10068 37.653092,-11.29945 -0.82042,-3.21701 -2.8275,-5.14788 -6.16268,-6.10212 4.37618,-2.76389 7.16725,-8.29175 6.43531,-10.81416 -11.62061,-1.50908 -26.310321,2.5521 -32.551473,7.74792 -1.958403,1.63039 -3.275002,-0.83055 -2.058729,-2.2723 6.844458,-8.11331 28.405492,-2.64778 28.459102,-18.65017 -1.41669,-0.50637 -2.76463,-0.53145 -4.09655,-0.44446 6.666,-8.43041 -0.66766,-15.31381 2.87467,-23.84198 -0.70955,-0.1132 -2.33856,-0.19299 -3.02676,0.62425 2.13676,-7.97477 -2.07766,-12.18151 -0.43777,-18.11789 -9.23775,-0.92552 -12.88819,3.90606 -18.440146,9.55487 -2.870788,2.92087 -6.056164,2.73414 -8.829561,6.73437 -3.474591,5.01158 -4.746287,9.87106 -5.580989,15.06414 -0.445418,2.77115 -4.506721,2.27635 -3.493789,-2.04183 3.623842,-15.44866 20.080885,-23.80666 13.793661,-39.97441 -2.170616,0.0729 -3.388923,0.61196 -5.081875,1.54271 -1.164947,-3.72166 -4.607118,-6.32843 -6.760709,-7.35056 -4.362942,-2.07075 -7.829109,-6.787739 -8.167301,-10.572121 -8.888296,2.177168 -6.472712,17.777641 -5.762484,21.008121 0.444777,2.02305 -2.876555,2.80842 -2.631685,0.63523 C 65.113774,91.889261 50.025822,90.643363 43.703073,79.649237 39.0351,82.60573 41.032534,87.14337 40.847497,90.312786 c -0.264748,4.534781 -5.718132,5.601466 -5.720087,14.292094 -1.397863,-2.95741 -3.407963,-3.47148 -5.490241,-3.53917 0.627149,4.0375 0.618238,8.81062 -1.473245,13.38932 -1.944519,4.25696 -2.809147,13.43671 -0.659329,17.23806 -3.423065,-0.80591 -4.571198,-1.95286 -6.89683,-4.58277 -1.099388,32.33959 28.024832,21.95697 34.892519,35.61852 2.012366,4.0031 -3.940343,5.77592 -5.49024,2.63168 -6.214745,-12.60772 -19.329277,-8.68153 -26.952089,-18.92092 -2.172498,1.37967 -2.086323,4.31186 -1.769578,6.21622 -2.74706,-2.2013 -6.57049,-3.08802 -9.66464,-2.99467 -1.484692,4.10744 -1.9696844,12.76981 0.544487,17.15134 -2.2155281,-1.49919 -6.3470768,-1.66804 -9.3016471,-1.08897 5.4063657,6.1898 7.5507511,19.83529 15.2910011,23.04993 -0.856691,1.7906 -0.954176,4.17169 -0.725982,6.80609 11.277943,1.41462 22.609279,-2.08641 35.437008,-4.85501 3.618931,-0.78108 5.286533,6.87993 0.04537,5.49023 -22.802645,-6.04612 -31.829097,7.63049 -31.988592,13.97516 12.095659,-0.0744 13.18989,11.27359 32.282855,11.30133 13.482625,0.0196 21.038318,-10.68855 21.949953,-15.71494 8.834633,20.90935 45.63917,40.99405 64.41991,60.85874 19.009,20.10608 6.90795,47.24819 -2.54094,58.71379 17.7147,-30.65902 2.57775,-69.62448 -31.34229,-72.0585 -17.182789,-0.82986 -29.429207,10.5098 -32.212289,22.21141 -7.671301,32.25433 32.197819,33.5793 34.766859,17.41901 2.68159,-16.86826 -15.490981,-29.96046 -29.725568,-15.35325 5.456122,-24.31885 58.267708,-25.57978 59.318258,19.75852 0.26718,11.53077 -3.62506,24.32377 -17.41825,36.89141 -31.327375,-19.06227 -38.60549,38.79557 -65.261342,65.64901 30.324231,0.58426 69.824472,-3.93421 111.367662,-1.28413 19.85428,1.26652 19.62547,20.60646 27.60745,33.16508 6.48143,10.19772 31.95334,2.77104 31.9231,-3.49055 l -17.69583,-29.76528 c 38.67914,1.13463 75.06681,8.42699 76.24748,8.53029 21.60334,1.89013 65.48569,-77.86704 58.44236,-78.11181 -14.09757,-0.48996 -28.13211,10.22358 -62.73863,10.92999 7.97269,-11.90431 16.16249,-26.76775 19.69493,-32.89095 3.27026,-5.66878 -30.26412,-6.11799 -33.01395,-1.76827 -6.99667,11.06746 -12.14009,20.21685 -18.71739,33.5689 l -5.82077,0.0753 c 14.33926,-52.19053 32.28202,-72.84942 51.26526,-69.28592 -13.90783,8.20794 -11.95335,22.75537 -5.73125,29.3584 6.89711,7.31941 24.5267,4.99032 23.96055,-16.74448 -0.37798,-14.51142 -10.53482,-18.45661 -18.82905,-19.45649 -8.82217,-1.06355 -27.14968,-5.3316 -56.00272,58.09792 5.15031,-23.31994 18.32642,-49.09875 30.39894,-59.15152 40.36362,-33.61083 36.06968,-40.85318 46.54984,-53.24772 5.78343,3.13953 1.31922,9.89649 5.28937,15.73609 4.16231,6.12224 10.2973,5.92502 13.27634,13.82676 2.10593,-2.49308 2.50814,-4.7394 1.50056,-7.92541 7.03894,1.68966 14.07746,-1.19576 16.60228,-5.62369 -1.21435,-0.18599 -3.84761,-1.85206 -3.65004,-3.85623 5.65429,1.2873 10.26124,-4.1617 11.1464,-7.31675 -2.84052,-1.0287 -3.64593,-3.34945 -6.88394,-3.80952 0.75852,-0.9275 2.66767,-1.13972 4.34299,-0.692 -0.82857,-8.77536 -15.22786,-10.07517 -24.15824,-11.64058 -2.12387,-0.37228 -0.94736,-3.49884 1.38779,-2.49957 16.04963,6.86801 32.36329,8.83577 37.02698,2.31996 -0.89105,-0.51053 -1.53225,-1.13568 -1.85976,-2.03214 13.73956,-2.06379 9.95838,-9.6464 14.3298,-13.55634 -2.83827,-3.02284 -5.74661,-2.95916 -8.11036,-2.27783 5.60004,-6.16671 3.69837,-14.39042 9.44043,-19.71426 -1.86047,-1.26171 -5.29805,-1.76336 -9.55604,-0.41899 1.2086,-2.15592 1.26038,-5.53106 0.32542,-7.75116 -10.95016,7.30593 -18.31746,0.94905 -29.97618,8.42681 -1.71908,1.10261 -2.479,-1.55522 0.75444,-3.45752 8.62646,-5.07518 14.49655,0.73906 22.91839,-6.59172 8.20281,-7.1401 7.17336,-22.42746 12.67864,-28.58006 -3.36972,-1.55844 -6.07039,-1.85002 -8.02205,-0.79473 5.18011,-12.23332 -2.57177,-14.45796 -0.88223,-21.573277 -2.17258,-0.616626 -6.03069,2.606977 -7.44777,5.152497 5.14464,-16.439424 -5.26966,-23.019228 -5.28994,-32.929657 -4.58964,10.215149 -13.45473,11.87275 -16.90112,20.9058 -0.17408,-1.268691 -1.07375,-4.339864 -2.51892,-6.095507 -7.8955,4.610509 -15.08788,12.547116 -18.36597,22.867484 0.86209,-4.70358 0.58024,-10.48488 -2.82875,-12.370939 -2.72151,7.396349 -9.44569,9.310509 -9.23608,20.114959 0.15567,8.02407 7.03042,18.93606 8.2424,34.68302 0.29404,3.82024 -2.85888,4.47926 -3.42905,1.09354 -4.51103,-26.78719 -9.86665,-25.32572 -10.47547,-36.87395 -2.54227,1.55689 -4.49071,2.95388 -5.78584,6.94087 0.97835,-9.3139 -9.12028,-11.36113 -10.83469,-16.01566 -5.40124,2.74437 -7.94617,9.16912 -5.52192,15.01018 -1.68919,-0.51872 -3.20618,-3.30083 -4.29629,-4.42383 -4.00701,7.62426 7.36543,12.52539 4.02215,26.71288 -2.01671,-2.83194 -7.92676,-3.63829 -10.0211,-1.3648 4.32596,3.8612 4.59981,14.03647 10.03793,20.47779 5.17159,6.12558 13.04197,12.28056 14.36992,13.96057 1.07015,1.35384 -0.73599,3.61334 -1.76446,1.80662 -5.4786,-9.62419 -14.44848,-9.43082 -16.07792,-14.32447 -2.66094,2.87115 -0.0188,5.7573 -1.13492,7.9391 -2.43594,-3.74319 -12.82122,-3.60947 -15.45105,-0.69752 7.68151,3.32318 3.1717,14.99224 8.03631,18.45939 -2.3962,-0.3267 -5.62598,2.87774 -6.50082,6.92264 15.07179,-0.94841 9.48692,15.88309 38.69332,12.26006 -3.65161,12.24845 -16.45588,23.93532 -30.78208,36.23307 -26.96918,23.15065 -42.87912,44.04066 -50.5608,93.77358 l -23.1141,1.04038 c 49.98974,-83.02863 -11.74286,-106.03404 0.19877,-158.18863 3.70596,15.71018 28.58394,22.10177 43.76795,10.96533 11.98507,-8.79025 6.82741,-16.50956 14.18066,-22.05276 l 0,-3e-5 z"
     id="path3599"
     style="fill:#000000;stroke:none" />
  <path
     d="m 245.62754,171.74157 c 4.89878,-4.21159 9.78112,-9.23959 11.17664,-14.61671 -3.11929,-0.93377 -7.60605,-1.28449 -13.14352,1.78626 -0.49703,-2.28211 1.93565,-4.42809 3.81141,-5.9196 -12.39854,0.14268 -21.19864,6.59311 -30.36152,11.16205 -4.39122,2.18961 -8.01247,-3.55229 -4.49447,-6.39215 6.6414,-5.3612 17.2723,-8.00587 40.46522,-13.60246 -1.1413,-1.17785 -4.56068,-2.74184 -6.11756,-2.91605 3.56498,-2.8053 7.00186,-2.72097 10.54517,-5.90323 6.0085,-5.39625 2.67788,-11.28542 8.57767,-14.74864 -2.54963,-0.56189 -8.05917,1.95697 -9.4768,-3.4949 5.63777,-6.2137 6.84267,-15.65706 5.14637,-19.386073 -2.08779,2.802373 -5.07729,3.947953 -10.62348,4.093883 -2.45602,0.0646 -5.62668,2.93921 -7.93674,3.03147 1.1004,-1.89353 2.47152,-3.68925 1.96074,-6.04094 -2.67845,3.68266 -15.32832,7.53152 -31.21696,24.25832 -4.94146,5.20214 -10.62207,0.33254 -4.11587,-5.70721 8.68926,-8.0663 13.98386,-9.78579 20.59756,-16.70471 5.74928,-5.06886 5.89037,-11.109842 8.89729,-14.379921 -2.34657,-0.0073 -3.69868,1.324529 -4.78739,2.899923 -3.2608,-6.950741 5.56419,-16.811503 2.06897,-20.775764 -1.68897,5.341211 -6.95965,1.077456 -12.71257,10.685759 0.0842,-5.741937 1.72642,-11.765825 -1.32742,-14.212349 -2.44952,-1.962383 -1.34859,-5.920998 1.39949,-8.118911 -3.6838,-3.09945 -9.05,-0.636077 -11.02741,2.363887 -1.32613,-2.369132 2.76303,-7.433438 2.83033,-10.839994 0.0984,-4.976708 -2.54736,-8.113429 0.0618,-12.280749 -3.18894,0.276258 -8.70638,2.701765 -8.94139,9.431806 -7.8804,-13.62784 5.93468,-21.314394 0.505,-27.40807 -1.98287,9.376842 -21.23021,8.958478 -24.97519,29.144003 -2.54294,-0.964803 -4.42659,-4.325897 -3.89776,-6.719438 -6.4145,2.755664 -11.01533,15.043586 -8.72785,27.427028 -1.60022,-2.414301 -4.19498,-6.072463 -5.79982,-7.40972 -2.82096,2.140815 -5.73337,10.428818 -2.51092,19.661317 -3.32028,-0.136903 -4.06179,-2.58352 -6.80907,-4.043159 -2.85636,18.929822 15.93788,29.208412 19.70424,41.563652 2.83657,9.30513 -4.1494,9.5618 -5.62667,5.06609 -8.02958,-24.436095 -20.04997,-17.58066 -23.67624,-33.841442 -3.01093,1.599135 -4.86565,6.435807 -6.39028,12.477922 -2.88102,-10.750971 -8.67105,-11.726537 -8.89147,-17.031988 -12.4965,17.429598 1.34553,23.812528 -1.3094,31.041928 -3.65242,-0.70513 -6.97977,-2.61827 -8.45009,-4.88513 -3.66756,6.17503 -1.45849,24.10864 12.99771,29.3166 -3.46085,0.30326 -7.21088,0.17765 -8.42069,1.47038 12.92666,13.21664 30.68056,4.51503 39.07305,12.77405 3.61873,3.56119 0.61691,8.30578 -3.67412,4.99147 -12.00088,-9.26927 -16.93898,-0.0549 -30.70401,-5.8792 -0.31122,1.96783 1.55079,5.49773 4.87948,7.5939 -4.37042,0.0765 -7.67134,0.21507 -10.9242,-3.20064 -0.11609,7.76758 4.94677,7.41687 2.72164,12.14149 0.25641,5.54014 6.82896,9.25726 13.78653,10.66296 -4.69751,2.11427 -8.46179,3.21059 -11.61447,9.68941 21.21403,-2.47639 18.25953,5.10026 32.02003,5.06931 15.45601,-0.0351 17.53371,-17.94898 28.80591,-21.00208 -4.72022,21.86641 -2.42967,40.03966 4.73497,54.91886 20.62152,44.86271 17.50064,73.39374 -11.46239,112.24688 -4.24767,0.32352 -13.59469,0.59199 -17.84238,0.91551 7.08316,-10.71551 16.95706,-24.09297 26.909,-34.97723 -8.37161,-2.96057 -14.95297,-2.72651 -22.61192,3.47861 -7.65355,6.20077 -18.23636,23.83445 -26.3101,24.56198 21.44787,-26.58789 17.90136,-59.8309 9.30457,-69.11913 -22.73284,-24.56125 -51.806198,-39.32882 -68.381691,-63.10408 28.804581,5.45516 22.918941,-11.77165 38.123501,-11.13161 -2.11479,-2.57857 -5.36954,-3.83205 -6.57214,-3.96955 4.39042,-2.64012 7.91901,-7.16251 7.66876,-10.13867 -13.22618,0.41219 -21.34873,1.4788 -29.433595,7.88404 -3.759476,2.97843 -8.283924,-1.55516 -3.372685,-5.44981 10.046364,-7.96686 25.16838,-2.3801 26.88793,-15.82464 -1.46207,-0.68789 -3.73951,-0.14 -5.07143,-0.0531 7.75685,-9.77797 0.82379,-14.98709 3.66027,-23.90026 -0.70955,-0.11322 -2.89085,1.42221 -3.57903,2.23945 3.46495,-9.88047 -1.34846,-14.476 0.35563,-20.21986 -7.14465,0.2899 -11.13607,4.16273 -15.417567,9.49392 -2.56446,3.19318 -6.818401,3.11916 -9.591798,7.11937 -3.474591,5.0116 -3.908674,9.31023 -4.984679,14.45871 -1.096903,5.24849 -8.044219,3.64545 -6.603904,-3.21699 3.119594,-14.5312 17.830542,-21.96056 14.463263,-37.50542 -2.125243,0.25439 -3.355896,1.48185 -4.413613,2.27649 -1.164949,-3.72166 -5.040728,-7.15162 -7.194319,-8.17375 -4.362942,-2.07075 -7.99826,-6.56543 -8.336451,-10.349815 -6.165863,3.992135 -3.622839,15.378945 -3.191742,18.658355 0.660638,5.02551 -6.800356,6.32961 -6.12414,0.0999 C 63.093871,92.206167 46.4582,89.328008 43.665494,81.691779 c -5.051798,5.182455 2.221382,6.676898 -4.574523,15.455441 -2.036297,2.63036 -2.587058,6.69885 -3.629029,10.81416 -2.10694,-3.75211 -2.44866,-5.06812 -4.38837,-5.27516 0.62715,4.0375 0.430961,7.96073 -1.66052,12.53943 -1.944519,4.25696 -2.227072,14.64569 1.125159,18.19748 -3.876805,-0.35218 -6.228016,-1.17961 -8.576335,-3.3331 2.383614,26.53876 24.567547,18.54097 33.937666,30.4401 5.407775,6.86734 -4.518898,11.42845 -7.054856,6.10213 -4.557896,-10.66128 -17.525699,-9.38072 -25.503466,-17.92267 -1.484105,2.6657 -0.662826,5.59009 -0.289698,7.22221 -2.037966,-2.39786 -5.556744,-4.22385 -10.2545,-5.17582 -1.756936,6.71574 -0.585114,14.73643 2.140359,17.93824 -2.662009,1.22687 -5.4921856,-2.96929 -10.0015066,-1.97016 5.8331666,6.56133 7.7254206,20.83844 16.3455116,20.86826 -1.174307,1.29149 -2.435391,1.4318 -2.230551,6.54164 11.844609,1.55931 22.46161,-2.55001 33.727033,-5.32624 5.681258,-0.63849 8.421023,10.61031 0.399242,8.90751 -18.950859,-4.02276 -27.713525,2.48902 -30.679752,10.799 12.489007,0.45257 11.812324,11.43821 30.905285,11.46723 12.905111,0.0196 20.372726,-12.7666 21.926046,-18.04968 8.653138,23.70253 48.400221,43.91798 66.608871,64.43092 23.46779,26.43767 -3.70955,65.85151 -9.34703,64.43091 17.13336,-29.68483 8.50452,-50.20985 3.12301,-58.28207 -8.35483,-12.53216 -19.18819,-17.21937 -29.58136,-17.75137 -15.456215,-0.79113 -29.736998,8.99813 -31.923605,24.56847 -2.688975,19.14757 13.241334,23.34726 22.810786,21.77575 23.945789,-3.93241 2.540615,-45.94446 -19.870373,-20.72771 2.686904,-30.20508 61.712722,-31.32008 62.220272,18.09139 0.14347,13.96706 -5.75093,24.64117 -18.6887,38.34338 -29.167031,-22.04131 -36.993287,34.99528 -61.680022,61.31059 22.8807,-0.0575 64.633622,-3.17276 108.492172,-1.7857 19.38417,0.61304 23.86434,29.37168 29.40419,35.98849 5.53985,6.61681 30.20502,-0.11123 26.98213,-5.47978 l -18.17708,-30.27861 c 42.50719,1.28503 73.08362,7.96783 77.69127,8.72281 17.48668,2.86526 65.16065,-75.86863 56.38897,-74.51839 -13.86635,2.13446 -32.10057,10.47402 -63.15856,10.82556 7.97267,-11.90429 17.78418,-27.81835 21.3166,-33.94157 3.27026,-5.66876 -27.46995,-4.55591 -30.21978,-0.20617 -6.99669,11.06744 -11.27022,19.49997 -17.84752,32.85202 l -9.39767,0.14395 c 9.37728,-42.56642 32.73834,-82.39959 56.39834,-70.91141 -16.3047,6.03114 -13.77164,22.77161 -8.09284,28.678 7.79101,8.10324 25.07899,1.47805 21.95679,-18.44117 -1.48859,-9.4971 -6.77295,-14.6988 -19.66245,-16.15466 -21.55914,-2.43508 -40.42761,25.9097 -58.40062,75.25473 -0.86534,-19.82163 15.43216,-64.1896 35.97734,-80.63553 40.21895,-32.19432 36.83436,-46.53113 45.35454,-51.95711 8.09349,5.25709 2.08925,10.92319 6.7011,17.21195 4.37799,5.96991 8.4364,5.6042 11.73628,10.93919 1.14341,-2.10807 1.03227,-4.48272 -0.0395,-6.06453 7.03894,1.68966 13.43577,0.92179 15.96059,-3.50613 -1.21433,-0.186 -3.91176,-3.90544 -3.39335,-6.29463 5.65429,1.2873 8.59287,-1.7233 11.21057,-4.04416 -2.8798,-3.10207 -3.53538,-4.58875 -7.78229,-4.64372 1.2077,-1.50501 3.95104,-3.70645 5.62636,-3.25873 -6.4754,-7.23532 -17.18608,-6.79454 -23.00323,-8.36798 -3.65785,-0.9894 -1.73,-6.86141 2.60699,-5.19465 12.35202,4.74703 29.73238,9.28496 34.58859,3.73166 -1.40441,-0.51053 -2.75147,-2.86822 -2.69398,-3.9572 12.71289,1.20882 12.65346,-8.10635 15.22818,-11.50294 -2.7741,-2.25283 -6.7733,-0.71326 -9.65038,-0.99446 7.2684,-6.42339 5.43091,-14.96793 10.27462,-20.35595 -1.86047,-1.26171 -6.45311,-0.60836 -10.06941,1.05689 1.78612,-1.96342 2.99293,-5.59524 2.25047,-7.43032 -8.70426,6.02258 -15.71576,0.0471 -27.73028,7.14343 -4.54265,2.68309 -7.09621,-2.88019 0.11274,-6.40927 8.13088,-3.98039 13.24607,0.43004 21.1217,-5.95002 7.73666,-6.26746 7.31431,-20.68859 10.81775,-26.14167 -2.3363,-1.43234 -6.34812,0.17262 -9.15639,1.51344 9.42714,-12.16117 1.69824,-15.83072 1.85631,-23.7531 -4.86786,1.53338 -4.3997,5.49377 -7.98835,4.96 5.30866,-15.700559 -2.93046,-21.565389 -4.23602,-29.528748 -7.02802,10.407652 -13.24663,9.175006 -16.45192,22.189168 -0.6418,-3.932112 -0.4335,-7.740905 -2.19809,-10.394791 -17.95584,11.440535 -14.19669,22.239431 -18.76977,23.202581 -2.08527,-2.82132 1.56155,-8.25324 -1.78326,-12.000173 -1.75898,4.893763 -8.41753,7.394453 -8.43303,18.200923 -0.0116,8.04497 7.17677,18.66138 8.27354,34.41532 0.5174,7.43198 -6.01323,5.26833 -6.50913,0.96521 -2.52712,-21.92836 -9.4124,-27.11142 -9.51296,-34.88474 -3.18394,0.9152 -4.55487,5.90562 -5.20831,7.71089 -0.8788,-13.01103 -8.66689,-11.59412 -10.96303,-16.75359 -6.65253,4.1561 -4.48108,10.93376 -3.40437,15.26686 -1.96884,-0.0877 -5.15837,-3.18239 -5.74008,-4.26341 -1.11172,4.32267 9.4014,11.81059 4.46488,26.70024 -1.25091,-2.12735 -6.47922,-4.14667 -9.27671,-3.53389 4.71096,4.11786 3.96937,14.52899 12.05925,22.11408 5.79129,5.42993 10.21592,8.55432 12.13087,10.98546 2.34455,2.9766 -2.24979,8.23379 -4.32383,4.11805 -4.07704,-8.09055 -13.42523,-10.17961 -14.63509,-13.3688 -1.4738,1.84446 1.92835,5.89796 -0.75993,7.95144 -2.43594,-3.74321 -9.58567,-4.26938 -13.81972,-2.89748 6.48643,3.72967 2.32917,14.55029 8.48816,19.21651 -2.52454,-0.038 -5.84509,1.39313 -6.84826,4.50758 14.71683,1.96845 10.77564,16.39112 39.0641,11.55745 -4.91563,16.13315 -17.675,27.20097 -32.09522,39.38832 -17.27473,14.59983 -42.09692,37.34312 -50.29959,94.91572 l -27.57286,1.03127 c 21.82161,-37.29266 23.24892,-58.20138 18.95694,-80.72764 -4.21012,-22.09658 -28.77284,-54.6779 -15.54975,-84.16658 2.44191,18.40391 28.12115,24.99046 42.22278,14.51245 9.77601,-7.26394 8.26115,-15.52313 13.0471,-20.2963 -2.11544,-0.2589 -4.14274,0.0504 -7.28063,0.64358 l 0,1e-5 0,-2e-5 z"
     id="path3599-7"
     style="fill:#d69a36;fill-opacity:1;stroke:none" />
  <path
     d="m 267.84303,306.86859 c 8.15807,2.95446 24.51767,1.09267 30.76873,-0.28874"
     id="path2852"
     style="fill:none;stroke:#000000;stroke-width:2.01916456;stroke-linecap:butt;stroke-linejoin:miter;stroke-miterlimit:4;stroke-opacity:1;stroke-dasharray:none" />
  <path
     d="m 294.51272,269.25375 c 3.34181,0.79832 7.86743,3.75982 8.9374,6.08019"
     id="path3652"
     style="fill:none;stroke:#000000;stroke-width:1.21149898;stroke-linecap:butt;stroke-linejoin:miter;stroke-miterlimit:4;stroke-opacity:1;stroke-dasharray:none" />
  <path
     d="m 78.133422,285.76465 c 8.722924,-12.90232 24.810308,-8.80894 25.346448,3.44951 0.50267,11.49339 -24.108319,11.31946 -25.346448,-3.44951 z"
     id="path2828"
     style="fill:#1649b2;fill-opacity:1;stroke:#000000;stroke-width:1.21149898;stroke-linecap:butt;stroke-linejoin:miter;stroke-miterlimit:4;stroke-opacity:1;stroke-dasharray:none" />
  <path
     d="m 77.869624,278.54568 c -0.686425,3.06705 0.08473,8.06422 0.725983,9.64196"
     id="path2876"
     style="fill:none;stroke:#000000;stroke-width:1.00958228px;stroke-linecap:butt;stroke-linejoin:miter;stroke-opacity:1" />
  <path
     d="m 191.91534,307.90537 c -4.89546,2.01458 -13.94207,2.66723 -20.76209,-0.45371"
     id="path2854"
     style="fill:none;stroke:#000000;stroke-width:1.81724811;stroke-linecap:butt;stroke-linejoin:miter;stroke-miterlimit:4;stroke-opacity:1;stroke-dasharray:none" />
  <path
     d="m 195.11046,431.51701 c -3.72606,-12.05164 31.95748,-4.5451 29.73976,-3.37019"
     id="path3628"
     style="fill:none;stroke:#000000;stroke-width:2.01916456;stroke-linecap:butt;stroke-linejoin:miter;stroke-miterlimit:4;stroke-opacity:1;stroke-dasharray:none" />
  <path
     d="m 342.27834,329.84088 c -22.04055,24.85353 -78.66305,46.13172 -62.89475,75.45052"
     id="path3626"
     style="fill:none;stroke:#000000;stroke-width:2.42299795;stroke-linecap:butt;stroke-linejoin:miter;stroke-miterlimit:4;stroke-opacity:1;stroke-dasharray:none" />
  <path
     d="m 56.725388,134.05255 c 12.242158,8.22573 10.446119,49.72082 23.549048,65.74675 C 65.457838,182.15051 67.46797,149.70532 56.725388,134.05255 z"
     id="path3699"
     style="fill:#000000;stroke:none" />
  <path
     d="M 77.052892,187.04926 C 78.351134,171.31939 98.522434,151.10688 98.378618,151.34 90.29427,166.20654 80.719635,173.92487 77.052892,187.04926 z"
     id="path3701"
     style="fill:#000000;stroke:none" />
  <path
     d="m 36.942373,174.07231 c 11.147329,12.09079 26.332154,-3.12784 34.211911,16.60684 -9.592379,-17.29712 -25.576697,-1.90977 -34.211911,-16.60684 z"
     id="path3703"
     style="fill:#000000;stroke:none" />
  <path
     d="m 72.923866,195.71565 c -10.19709,-1.30673 -10.487236,9.79053 -23.775917,12.11484 13.978254,0.22709 12.256814,-9.41674 23.775917,-12.11484 z"
     id="path3707"
     style="fill:#000000;stroke:none" />
  <path
     d="m 80.77355,190.99678 c 9.222869,6.71592 18.767652,0.9508 24.59265,-3.94752 -3.71652,6.88123 -18.484563,12.64631 -24.59265,3.94752 z"
     id="path2835"
     style="fill:#000000;stroke:none" />
  <path
     d="m 156.91094,130.05965 c 1.14612,16.13492 21.66025,6.63612 31.39874,31.76171 -13.45343,-24.06484 -33.1758,-14.27715 -31.39874,-31.76171 z"
     id="path3609"
     style="fill:#000000;stroke:none" />
  <path
     d="m 150.02989,174.8101 c 16.95556,7.96864 18.50121,-7.96029 37.60267,-9.17606 -16.00232,-3.98567 -18.08623,14.17551 -37.60267,9.17606 z"
     id="path3611"
     style="fill:#000000;stroke:none" />
  <path
     d="m 195.20444,164.67151 c 8.31254,7.89439 22.86757,14.94049 38.43685,9.1119 -6.92544,7.35265 -32.21902,3.34806 -38.43685,-9.1119 z"
     id="path3613"
     style="fill:#000000;stroke:none" />
  <path
     d="m 196.6803,161.91226 c 13.53603,-16.76699 21.35959,-22.09855 33.43173,-32.98254 -15.88462,8.56503 -31.82862,25.88717 -33.43173,32.98254 z"
     id="path3615"
     style="fill:#000000;stroke:none" />
  <path
     d="m 191.226,171.40917 c 6.76613,-46.00205 -5.38221,-98.329965 1.28336,-101.450185 -3.23658,23.13204 8.28334,58.493025 -1.28336,101.450185 z"
     id="path3617"
     style="fill:#000000;stroke:none" />
  <path
     d="m 195.84611,116.03188 c 8.0472,-8.27146 13.20738,-21.113702 14.75873,-30.287477 2.3055,7.840217 -8.05727,26.941397 -14.75873,30.287477 z"
     id="path3619"
     style="fill:#000000;stroke:none" />
  <path
     d="m 191.86385,115.45436 c -5.47542,-8.90465 -9.8026,-17.938804 -12.64261,-24.89733 1.03155,7.982405 6.94177,20.42704 12.64261,24.89733 z"
     id="path3619-1"
     style="fill:#000000;stroke:none" />
  <path
     d="m 301.1999,156.92099 c -2.43256,16.80678 13.95617,16.68301 10.98048,38.84005 5.79077,-20.8336 -11.80426,-24.26844 -10.98048,-38.84005 z"
     id="path2844"
     style="fill:#000000;stroke:none" />
  <path
     d="m 311.72665,203.02085 c 15.40198,-30.09646 25.77235,-86.36162 40.20126,-99.18731 -11.57691,1.11085 -28.97764,72.36138 -40.20126,99.18731 z"
     id="path3618"
     style="fill:#000000;stroke:none" />
  <path
     d="m 318.27935,194.25311 c 4.65239,-7.28862 27.90763,-12.19386 28.04159,-19.12215 -4.14902,7.39589 -20.09598,6.92982 -28.04159,19.12215 z"
     id="path3620"
     style="fill:#000000;stroke:none" />
  <path
     d="m 331.81888,151.3245 c 7.0263,-2.19147 21.31893,-16.00658 22.07391,-19.60347 -6.37847,6.14394 -12.1347,11.77598 -22.07391,19.60347 z"
     id="path3622"
     style="fill:#000000;stroke:none" />
  <path
     d="m 323.99035,129.25056 c -1.82801,4.10709 0.80869,17.08906 3.97844,22.58726 -1.68736,-8.56367 -4.32395,-17.80521 -3.97844,-22.58726 z"
     id="path3624"
     style="fill:#000000;stroke:none" />
  <path
     d="m 301.02334,273.2175 c 6.8045,2.69314 7.57839,25.31346 -5.16397,23.66806 -8.6079,-1.11153 -11.94359,-20.36447 5.16397,-23.66806 z"
     id="path2828-1"
     style="fill:#1649b2;fill-opacity:1;stroke:#000000;stroke-width:1.21149898;stroke-linecap:butt;stroke-linejoin:miter;stroke-miterlimit:4;stroke-opacity:1;stroke-dasharray:none" />
</svg>
