<?xml version="1.0" encoding="UTF-8" standalone="no"?>
<!-- Created with Inkscape (http://www.inkscape.org/) -->

<svg
   xmlns:svg="http://www.w3.org/2000/svg"
   xmlns="http://www.w3.org/2000/svg"
   xmlns:xlink="http://www.w3.org/1999/xlink"
   version="1.1"
   width="390"
   height="480"
   id="svg4228">
  <defs
     id="defs4232" />
  <path
     d="m 0.51202379,0.50512952 c 129.66265621,0 259.32532621,0 388.98797621,0 C 389.48983,115.23328 370.33544,349.8309 194.89467,479.37706 21.249382,349.77255 0.5931986,115.2575 0.51202379,0.50512952 z"
     id="path4240-0-1"
     style="fill:#faf700;fill-opacity:1;stroke:#9e832a;stroke-width:0.99999905;stroke-opacity:1" />
  <path
     d="m 205.67797,177.9661 c -2.10671,7.46976 -8.86576,14.53642 -15.50848,16.84322 C 149.46388,140.35552 110.33239,114.0626 81.991526,87.203389 64.788888,101.66342 49.643598,122.79215 34.067797,142.37288 c -0.937498,1.17855 -3.221759,-0.81056 -2.79661,-1.77966 9.411016,-21.45181 18.369801,-47.270101 36.991525,-65.593221 0.295363,-2.373629 -0.5839,-5.502294 0.889831,-7.118644 l 7.881355,-8.644068 c 1.06135,-1.164061 5.338983,-0.847457 8.008475,-1.271186 19.207237,-20.730586 46.866697,-34.078526 70.423727,-40.932204 1.9282,-0.56099 2.271,2.962139 1.27119,3.686441 C 132.71274,38.124762 110.15386,52.257845 97.245763,71.949152 130.85821,98.998982 139.07767,127.36739 205.67797,177.9661 z"
     id="path2830"
     style="fill:#000000;stroke:none" />
  <use
     transform="translate(154,2)"
     id="use3626"
     x="0"
     y="0"
     width="390"
     height="480"
     xlink:href="#path2830" />
  <use
     transform="translate(70,184)"
     id="use3628"
     x="0"
     y="0"
     width="390"
     height="480"
     xlink:href="#path2830" />
</svg>
