<?xml version="1.0" encoding="UTF-8" standalone="no"?>
<!-- Created with Inkscape (http://www.inkscape.org/) -->

<svg
   xmlns:svg="http://www.w3.org/2000/svg"
   xmlns="http://www.w3.org/2000/svg"
   version="1.1"
   width="390"
   height="480"
   id="svg4228">
  <defs
     id="defs4232" />
  <path
     d="M 0,0 C 130,0 260,0 390,0 389.98981,114.99797 370.78556,350.14732 194.88837,479.99815 20.79131,350.08886 0.081386,115.02225 0,0 z"
     id="path4240-0"
     style="color:#000000;fill:#008c31;fill-opacity:1;fill-rule:nonzero;stroke:none;marker:none;visibility:visible;display:inline;overflow:visible;enable-background:accumulate" />
  <path
     d="m 141.35593,285.76271 c -9.86037,-10.28963 -8.28081,-33.56041 14.11017,-39.27966 16.39099,-4.1867 27.81987,-1.55697 29.36441,-34.44915 1.33634,-28.45836 -13.53404,-42.87759 -31.52542,-51.86441 -15.68399,-3.54737 -30.00916,15.54115 -43.22034,16.77966 -9.19994,0.86247 -22.781782,-6.59409 -23.008479,-22.88135 -18.11369,-19.59378 -62.11433,-46.32543 -36.101695,-99.78814 -4.195987,-4.504071 2.86343,-22.294682 15.889831,-15.127119 42.803363,-24.702543 70.143763,2.896104 96.991523,32.161017 23.51005,-6.574233 30.93879,28.873502 12.68107,50.938352 -12.51863,15.12904 8.10801,44.02255 20.49411,43.50504 9.06092,-0.37858 32.41534,-27.41023 26.06707,-39.37027 -2.29225,-4.31857 -43.20146,-51.205863 9.34819,-55.010506 -3.05011,-1.571303 53.52761,-66.552714 99.95374,-37.212993 22.05773,-1.119122 20.23047,14.159622 16.17956,22.112068 23.08042,43.861421 -8.64744,71.269291 -39.72981,94.560551 -4.40057,13.24946 -13.97944,23.65261 -27.68503,20.67388 -19.92148,-4.32966 -24.24949,-23.79408 -48.71846,-7.91 -18.13765,11.77409 -28.1559,26.69872 -26.78616,49.25777 1.33099,21.9208 18.69686,26.69457 38.11186,33.79731 6.72548,2.46043 22.68136,22.05692 7.55046,39.01072 0.92892,41.28787 8.62689,85.21168 -43.59493,95.81897 -3.97314,10.0034 -19.71234,11.13899 -25.16821,-0.0899 -45.87686,-9.99844 -37.3036,-49.62003 -41.20346,-95.63185 l 0,1e-5 z"
     id="path2876"
     style="fill:#faf700;fill-opacity:1;stroke:none" />
</svg>
