<?xml version="1.0" encoding="UTF-8" standalone="no"?>
<!-- Created with Inkscape (http://www.inkscape.org/) -->

<svg
   xmlns:svg="http://www.w3.org/2000/svg"
   xmlns="http://www.w3.org/2000/svg"
   version="1.1"
   width="390"
   height="480"
   id="svg4228">
  <defs
     id="defs4232" />
  <path
     d="M 0.00351796,0.00350638 390.01124,-0.03065059 C 389.99631,270.00335 389.99205,273.98676 389.99209,273.99895 390.99231,548.63218 0.01014203,548.63782 0.0068261,273.99819 L 0.00351796,0.00350638 z"
     id="path2902"
     style="fill:#000000;fill-opacity:1;stroke:none" />
  <path
     d="m 182.85992,25.097271 -3.96887,0 -90.175097,256.342419 c -2.266379,4.47245 -7.619893,2.46435 -8.287937,0.58366 -3.09666,-8.71777 -6.503893,-16.96741 -8.988327,-24.16343 -2.484434,-7.19602 -5.920062,-8.89149 -10.622568,-9.68871 -11.887534,-2.0153 -23.325916,-2.00942 -34.785993,-2.10117 l -0.05836,7.93774 c 16.159306,0.48542 26.057238,0.95503 31.723849,2.88215 5.183262,1.76274 5.670357,5.11877 6.603332,6.85095 l 7.923998,24.10216 c 1.812962,5.04399 9.703716,5.98066 12.711414,5.28267 l -30.870577,89.80531 24.762495,0.16509 10.400247,-30.12771 93.849844,-0.0825 -0.16508,31.1182 24.1847,0 -0.16508,-31.1182 94.01495,0.16509 11.14312,29.96261 23.85454,0 -30.21025,-90.13548 c 5.20131,0.11228 10.81834,-0.21489 13.61938,8.99704 3.61101,11.87572 9.91567,23.15293 17.66391,24.18471 10.26282,1.36662 18.65464,0.55061 27.98162,0.82541 l 0.33012,-8.00653 c -9.592,0.20687 -17.7158,1.17412 -24.84504,-1.07305 -7.58305,-2.39021 -10.91091,-18.77487 -16.75596,-27.89907 -2.1723,-3.39099 -4.51843,-6.50936 -11.63837,-6.68588 l -9.98754,-0.24762 -90.3831,-257.942657 -4.70488,0 0.0825,-7.181123 -24.10216,0.247625 -0.13491,7.000336 8e-5,-4e-5 z"
     id="path2849"
     style="fill:#ececec;stroke:none" />
  <path
     d="m 207.09699,343.97136 -0.0825,-41.93115 59.92524,-0.16509 c 5.71098,-9.55241 12.4216,-13.05968 17.00358,0.5778 l 13.94954,41.51844 -90.79582,0 -4e-5,0 z"
     id="path2851"
     style="fill:#000000;stroke:none" />
  <path
     d="m 182.98631,343.48732 0.0825,-41.93115 -59.92524,-0.16509 c -5.71098,-9.55241 -12.4216,-13.05968 -17.00358,0.5778 l -13.94954,41.51844 90.79582,0 4e-5,0 z"
     id="path2851-1"
     style="fill:#000000;stroke:none" />
  <path
     d="m 182.99483,82.97467 -0.0413,193.06492 -59.9665,0.0413 c -4.32202,12.19505 -9.90209,8.14813 -7.05732,-0.0413 l 67.06509,-193.06492 3e-5,0 z"
     id="path2875"
     style="fill:#000000;stroke:none" />
  <path
     d="m 207.15418,82.974666 0.0413,193.064924 59.9665,0.0413 c 4.32202,12.19505 9.90209,8.14813 7.05732,-0.0413 l -67.06509,-193.064924 -3e-5,0 z"
     id="path2875-4"
     style="fill:#000000;stroke:none" />
</svg>
