<?xml version="1.0" encoding="UTF-8" standalone="no"?>
<!-- Created with Inkscape (http://www.inkscape.org/) -->

<svg
   xmlns:svg="http://www.w3.org/2000/svg"
   xmlns="http://www.w3.org/2000/svg"
   version="1.1"
   width="390"
   height="480"
   id="svg4228">
  <defs
     id="defs4232" />
  <path
     d="M 0,0 C 130,0 260,0 390,0 389.98981,114.99797 370.78556,350.14732 194.88837,479.99815 20.79131,350.08886 0.081386,115.02225 0,0 z"
     id="path4240-0"
     style="color:#000000;fill:#d61a1a;fill-opacity:1;fill-rule:nonzero;stroke:none;marker:none;visibility:visible;display:inline;overflow:visible;enable-background:accumulate" />
  <path
     d="m 110.38057,173.44224 c -1.58318,-23.25354 24.9374,-30.00829 24.89855,-58.83068 -0.0399,-29.631908 -75.078218,-81.272087 -86.830321,-84.673042 -9.872618,-2.857049 -31.531646,11.261883 -16.71888,30.291735 15.781776,20.274731 39.484187,25.161456 60.044152,41.078107 4.685902,3.62763 0.37614,6.53111 -3.865118,3.50557 C 73.515866,94.546495 57.94893,84.686311 40.898337,76.679475 29.64041,71.392833 22.330799,90.37219 33.527648,101.39825 c 14.007165,13.79351 32.902436,20.31771 49.347664,30.56139 2.772556,1.72702 -0.403171,5.22194 -2.606707,4.13478 L 46.381411,119.37554 c -10.726618,-4.95688 -25.576037,14.75865 -15.46047,25.25809 9.37315,9.72884 21.651323,12.80813 34.606285,13.21331 10.818099,0.33835 12.144104,0.81 18.336837,2.78648 5.579053,1.78062 0.04133,6.79205 -3.05614,5.39319 -16.625594,-7.50838 -31.165852,-5.91769 -43.59493,-4.94375 -9.644282,0.75572 -17.855216,25.66652 3.595458,29.93219 17.236854,3.42772 32.861018,-1.97374 48.808345,-4.6741 4.811508,-0.81473 2.6386,3.8277 -0.629205,4.40444 -12.823569,2.26325 -24.682806,2.20673 -39.190494,8.71898 -16.138216,7.24418 -14.918896,36.84263 10.966147,27.77492 11.475504,-4.01995 22.887457,-11.45374 34.426512,-17.2582 2.95158,-1.48472 4.582725,2.12837 1.977502,3.41568 -10.446332,5.16183 -21.07258,10.10875 -31.819805,17.16832 -10.290689,6.75969 -3.68219,26.33594 14.561606,24.26934 18.622453,-2.10949 30.441551,-19.41547 45.662321,-29.12321 31.52082,38.44056 55.07539,25.81091 55.37005,43.68481 0.2851,17.29416 -25.1991,46.41834 -31.10071,51.1454 -12.11033,9.70009 -11.03266,-12.95459 -22.20195,-12.40433 -4.19733,-1.086 -8.75783,-1.13047 -11.23581,0.53932 3.13645,0.8846 6.31202,1.67888 7.86507,3.6404 -0.98114,4.20821 10.0506,5.32914 13.52791,11.55041 2.66711,4.77174 -3.57251,6.76831 -7.10103,5.48307 -11.93289,-4.34648 -17.51913,0.92852 -20.49411,5.07859 l 7.82011,-1.34831 c 3.99327,3.62172 13.51743,-2.86396 17.52786,0.76403 5.32086,4.81345 -6.73126,8.82494 -5.33915,14.49253 -0.97634,3.34478 -1.80706,4.73242 -1.49222,7.97909 1.43673,-2.04935 2.81171,-4.18104 4.94376,-5.3033 4.62603,-0.33903 6.89074,-6.12563 7.64035,-9.9774 2.11699,-10.87784 10.51537,-5.80686 14.74138,-13.21331 10.90675,-19.11502 24.82823,-33.59574 37.1231,-50.4263 2.78295,-3.80961 1.85599,-7.75228 2.42694,-11.68524 0.75382,-5.1926 19.21152,1.09258 27.59513,8.53921 7.19815,6.39365 10.78271,34.85738 16.80877,56.71836 1.89662,6.88044 -3.4254,17.47916 -7.49683,17.59107 -4.37313,-1.52232 -11.51949,-7.41203 -15.65475,-3.64921 -1.7171,0.0159 -5.33668,0.93565 -6.97136,2.6564 3.01421,0.60887 5.18699,0.79465 6.56929,1.92626 0.0531,3.76141 13.38375,-2.84873 16.02917,4.31884 1.38021,3.73957 -13.32909,4.90687 -14.40032,11.78161 l -4.16056,7.29016 5.81105,-3.11732 c 8.85066,3.74667 9.35455,-8.84777 16.6546,-12.11776 4.32955,-1.93938 7.93343,2.27745 6.35593,4.00424 -3.60266,3.9436 -8.32844,11.57892 -5.02306,14.80481 0.007,2.51122 0.0351,4.00517 1.71813,5.79801 0.71406,-1.88488 1.77472,-3.53868 3.56423,-4.7066 5.85862,0.0161 -0.16833,-13.81732 5.33392,-20.66317 2.17268,-2.70323 1.08047,-6.12708 0.25424,-8.51695 -0.47492,-1.37371 5.78484,-2.57699 4.72839,-6.16635 -21.53331,-73.1609 -16.76674,-65.68177 -19.08112,-73.93491 -2.31438,-8.25314 -10.21749,-9.12582 -11.45236,-20.64026 -0.36751,-3.42679 0.90092,-8.75694 6.54661,-2.60593 20.68645,22.53799 35.995,38.71535 52.38212,73.72251 2.36237,5.04664 15.59167,-1.94794 25.17827,-11.67533 11.40466,-11.57214 18.74228,-27.07192 11.94484,-31.73982 -35.18495,-24.16204 -53.96453,-36.15585 -77.57201,-59.32507 -2.52639,-2.47949 0.75119,-7.16971 3.86511,-6.20217 26.37748,8.19587 51.66526,29.93065 77.12258,29.30299 10.25773,-0.25291 19.40713,-20.22187 8.89876,-24.17946 -14.17319,-5.33781 -34.02832,-6.6966 -49.88698,-15.73013 -1.38316,-0.78789 -0.70771,-4.60437 1.3483,-4.04489 16.27165,4.42786 33.30112,9.87891 50.4263,13.66274 14.58874,3.2234 19.04017,-29.13745 6.02239,-31.28423 -11.81729,-1.94881 -19.47567,-3.44109 -48.98812,-2.69285 -3.34337,0.0848 -3.97408,-5.80015 1.3483,-6.02239 19.84243,-0.82855 54.29319,3.20851 57.5954,1.01695 15.81075,-10.49302 3.85738,-33.02809 -11.1241,-31.2188 -11.37415,1.37364 -25.17728,5.56323 -41.70732,11.9549 -2.48659,0.96149 -5.1868,-3.15159 -1.79773,-4.22466 19.15377,-6.06461 38.68749,-12.854 59.32506,-20.49411 9.06638,-3.35641 2.74319,-27.948128 -9.61785,-24.44912 -20.58069,5.82572 -40.74551,15.31939 -58.42619,28.76367 -1.30907,0.99541 -3.52637,-2.47262 -1.93256,-3.91007 12.67448,-11.43096 36.86245,-23.23393 72.22377,-36.089407 11.48995,-4.177134 2.21197,-24.50209 -7.01115,-22.741274 -25.10888,4.793603 -54.45082,19.359228 -74.15633,38.291631 -2.50394,2.4057 -7.03481,-0.69674 -2.06738,-4.6741 22.9543,-18.379212 49.89962,-31.556903 75.41473,-46.651067 12.13146,-7.176702 -2.43935,-29.609376 -14.38183,-24.359229 -34.37348,15.111251 -72.18045,46.59742 -105.43681,72.538366 -8.70497,6.79014 -8.71612,29.18114 -2.15728,36.94334 5.08969,6.0235 17.1931,3.18883 14.92115,20.94354 -1.07086,8.36846 -2.79346,18.41892 -7.10103,22.38173 -4.40969,4.05677 -12.08081,-0.014 -14.47172,-4.85387 -7.68673,-15.55994 -27.71471,-29.48259 -22.83116,-46.38141 3.48441,-12.0573 10.04743,-27.69877 15.06196,-39.382169 4.01751,-9.36042 -0.93951,-13.189154 6.24113,-17.875504 37.31351,-24.352151 34.86106,-24.839162 32.80856,-39.999473 -0.2156,-1.592514 -3.36867,-2.393986 -3.46063,-0.359546 -0.6666,14.746747 -18.9345,23.259573 -29.25804,24.269343 -16.78518,1.641799 -41.0819,-4.663283 -50.06675,5.84262 -3.49477,4.086408 -4.64498,9.285153 -8.17967,9.977396 -7.90957,1.54903 -16.69671,1.124787 -23.70755,4.696567 -1.18509,0.603758 -1.0727,2.590491 -0.0225,2.674122 16.64568,1.325533 34.83605,6.551119 30.29174,24.089574 -4.72948,18.25308 -42.84714,26.47031 -50.24653,67.77438 -0.71138,3.97099 -5.38159,5.58592 -5.75271,0.13483 z"
     id="path2910"
     style="fill:#ececec;stroke:none" />
  <path
     d="m 185.52966,76.668434 a 3.6864407,3.2574153 0 1 1 -7.37288,0 3.6864407,3.2574153 0 1 1 7.37288,0 z"
     id="path3706"
     style="fill:#d61a1a;fill-opacity:1;stroke:none" />
</svg>
