<?xml version="1.0" encoding="UTF-8" standalone="no"?>
<!-- Created with Inkscape (http://www.inkscape.org/) -->

<svg
   xmlns:svg="http://www.w3.org/2000/svg"
   xmlns="http://www.w3.org/2000/svg"
   version="1.1"
   width="390"
   height="480"
   id="svg4228">
  <defs
     id="defs4232" />
  <path
     d="m 0.51202379,0.50512952 c 129.66265621,0 259.32532621,0 388.98797621,0 C 389.48983,115.23328 370.33544,349.8309 194.89467,479.37706 21.249382,349.77255 0.5931986,115.2575 0.51202379,0.50512952 z"
     id="path4240-0-1"
     style="fill:#207ebf;fill-opacity:1;stroke:#999999;stroke-width:0.99999905;stroke-opacity:1" />
  <path
     d="m 20.562894,186.29211 c 58.28902,35.32098 139.196546,25.52407 175.105656,-20.29885 36.14766,46.92716 118.95093,53.48453 173.87263,22.10241 7.74003,-34.37352 12.33759,-68.40293 14.35888,-88.367425 C 338.71239,143.33919 221.67371,133.44868 195.43884,86.14467 171.81936,133.06167 53.931819,145.32494 6.0994441,97.435432 8.4049142,121.78231 13.971992,157.80647 20.562894,186.29211 z"
     id="path4212"
     style="fill:#ececec;stroke:none" />
  <path
     d="m 35.151498,240.96285 c 39.598857,20.00351 134.825382,22.62849 160.732672,-20.57898 21.50793,39.46379 121.13947,37.13185 161.39181,14.63794 -5.21402,18.32189 -17.71674,54.59131 -34.33165,87.74898 -29.72062,3.73337 -111.31992,6.12684 -127.11722,-22.76858 -17.07853,29.35043 -88.71643,26.67702 -128.258264,22.95618 C 53.831331,295.88691 40.722552,259.63926 35.151498,240.96285 z"
     id="path4214"
     style="fill:#ececec;stroke:none" />
</svg>
