<?xml version="1.0" encoding="UTF-8" standalone="no"?>
<!-- Created with Inkscape (http://www.inkscape.org/) -->

<svg
   xmlns:svg="http://www.w3.org/2000/svg"
   xmlns="http://www.w3.org/2000/svg"
   xmlns:xlink="http://www.w3.org/1999/xlink"
   version="1.1"
   width="390"
   height="480"
   id="svg4228">
  <defs
     id="defs4232">
    <linearGradient
       id="linearGradient3652-4">
      <stop
         id="stop3654-0"
         style="stop-color:#ffffff;stop-opacity:1"
         offset="0" />
      <stop
         id="stop3656-9"
         style="stop-color:#ffffff;stop-opacity:0"
         offset="1" />
    </linearGradient>
    <linearGradient
       x1="1.041629"
       y1="110.18271"
       x2="389.03033"
       y2="110.18271"
       id="linearGradient2838-4"
       xlink:href="#linearGradient3652-4"
       gradientUnits="userSpaceOnUse"
       gradientTransform="translate(0,3.7e-6)" />
  </defs>
  <path
     d="m 0.51202379,0.50512952 c 129.66265621,0 259.32532621,0 388.98797621,0 C 389.48983,115.23328 370.33544,349.8309 194.89467,479.37706 21.249382,349.77255 0.5931986,115.2575 0.51202379,0.50512952 z"
     id="path4240-0-1"
     style="fill:#d61a1a;fill-opacity:1;stroke:#9e832a;stroke-width:0.99999905;stroke-opacity:1" />
  <path
     d="m 227.90759,202.10141 17.10036,17.22458 141.07254,-143.280754 c 0.87566,-10.536286 1.71232,-23.794508 2.03733,-33.649205 L 227.90759,202.10141 z"
     id="path2827"
     style="fill:#faf700;fill-opacity:1;stroke:none" />
  <path
     d="m 209.05223,152.63813 -48.31919,49.42453 16.84989,17.28385 48.18984,-49.61644 -16.72054,-17.09194 z"
     id="path2829"
     style="fill:#faf700;fill-opacity:1;stroke:none" />
  <path
     d="m 242.71729,185.82268 -48.7778,-50.35116 17.25244,-17.35185 48.93027,50.42016 -17.40491,17.28285 z"
     id="path2829-1"
     style="fill:#faf700;fill-opacity:1;stroke:none" />
  <path
     d="m 175.67146,253.79777 -48.98392,-50.13648 17.28645,-17.64237 48.82314,50.50611 -17.12567,17.27274 z"
     id="path2829-1-0"
     style="fill:#faf700;fill-opacity:1;stroke:none" />
  <path
     d="m 142.08962,220.91475 16.48812,16.98854 -89.153684,88.23766 c -4.675002,-9.00162 -9.103955,-18.81057 -10.546298,-22.22229 l 83.211862,-83.00391 z"
     id="path2884"
     style="fill:#faf700;fill-opacity:1;stroke:none" />
  <path
     d="M 158.9465,169.57675 48.895489,280.11217 c -3.185711,-7.68174 -6.85505,-18.22903 -8.812569,-24.14048 l 102.24719,-103.13841 16.61639,16.74347 z"
     id="path2884-9"
     style="fill:#faf700;fill-opacity:1;stroke:none" />
  <path
     d="m 210.05934,220.83669 16.7984,16.6919 L 94.120144,369.55978 C 89.857298,363.05637 85.92905,356.4506 82.000557,349.57023 L 210.05934,220.83669 z"
     id="path2884-8"
     style="fill:#faf700;fill-opacity:1;stroke:none" />
  <path
     d="M 192.22725,168.42793 175.84233,185.19836 1.0525199,8.8206207 1.0103551,0.98828452 c 5.1360574,0.0109424 19.1353009,0.008517 23.6118669,0.0144979 L 192.22725,168.42793 z"
     id="path2917"
     style="fill:#faf700;fill-opacity:1;stroke:none" />
  <path
     d="M 175.84842,117.45989 193.22948,100.1234 92.086226,0.99189253 C 81.252615,0.99378653 71.122054,0.99036153 60.232763,1.0055112 L 175.84842,117.45989 z"
     id="path2919"
     style="fill:#faf700;fill-opacity:1;stroke:none" />
  <path
     d="M 125.2602,169.01268 108.61242,185.44277 4.450529,80.33759 C 3.4722581,70.32154 2.6431744,57.178207 2.1805607,47.064362 L 125.2602,169.01268 z"
     id="path2921"
     style="fill:#faf700;fill-opacity:1;stroke:none" />
  <path
     d="M 176.49842,151.31092 326.88319,1.0042719 c -11.42895,0.00151 -29.70542,-0.00401 -31.7759,0.0015 L 159.87387,134.72542 l 16.62455,16.5855 z"
     id="path2923"
     style="fill:#faf700;fill-opacity:1;stroke:none" />
  <path
     d="M 244.87118,151.21472 388.99883,5.483027 c -0.0144,-1.2512086 -0.004,-3.0817251 -0.008,-4.5182108 C 383.1616,0.954663 367.06048,0.9841338 361.6911,0.9880131 L 228.52327,134.41389 l 16.34791,16.80083 z"
     id="path2923-8"
     style="fill:#faf700;fill-opacity:1;stroke:none" />
  <path
     d="m 278.46475,186.93273 -16.91337,17.09746 79.41581,78.07179 c 3.98993,-9.99076 5.55442,-14.46559 8.71737,-23.57557 l -71.21981,-71.59368 z"
     id="path2978"
     style="fill:#faf700;fill-opacity:1;stroke:none" />
  <path
     d="M 210.75957,186.62896 194.18929,203.71 320.09906,328.43945 c 2.7016,-5.16958 6.78371,-13.42259 10.5353,-21.90632 L 210.75957,186.62896 z"
     id="path2980"
     style="fill:#faf700;fill-opacity:1;stroke:none" />
  <path
     d="m 210.73932,254.648 -16.47844,16.58898 101.26337,99.80137 c 4.00349,-6.2686 8.23761,-12.77309 11.93025,-19.4178 L 210.73932,254.648 z"
     id="path2982"
     style="fill:#faf700;fill-opacity:1;stroke:none" />
</svg>
