<?xml version="1.0" encoding="UTF-8" standalone="no"?>
<!-- Created with Inkscape (http://www.inkscape.org/) -->

<svg
   xmlns:svg="http://www.w3.org/2000/svg"
   xmlns="http://www.w3.org/2000/svg"
   version="1.1"
   width="390"
   height="480"
   id="svg2816">
  <defs
     id="defs2820" />
  <path
     d="M 0.53145838,0.62914189 389.47568,0.59506224 C 389.46078,270.01765 389.45654,273.99204 389.45658,274.0042 390.04482,435.59376 254.68596,501.89294 143.51575,472.89814 66.171881,452.72574 0.53611425,386.42791 0.5347575,274.00344 z"
     id="path2902"
     style="fill:#207ebf;fill-opacity:1;stroke:#999999;stroke-width:0.99750447;stroke-opacity:1" />
  <path
     d="m 138.9375,1.1293861 21.3125,37.9648889 -46.125,82.236445 45.70267,79.00016 -45.43371,76.71318 47.04354,83.44049 -45.09467,80.30074 19.57138,31.82411 27.33907,6.32994 -23.59969,-37.70695 45.25483,-81.77198 -47.72971,-81.79407 46.27131,-79.4981 -46.58066,-77.4008 45.03386,-80.800608 -22.22967,-38.8483116 -20.73605,0.010866 z"
     id="path3667"
     style="fill:#ececec;stroke:none" />
  <path
     d="m 231.86512,1.1054125 21.32422,38.0207315 -46.125,82.230486 45.70267,78.99443 -45.43371,76.70762 47.04354,83.43445 -45.09467,80.29492 21.73971,35.12511 c 6.86606,-1.0357 13.56818,-2.79912 20.35432,-4.6688 l -18.78327,-30.00923 45.25483,-81.76607 -47.72971,-81.78814 46.27131,-79.49234 -46.58066,-77.39518 45.03386,-80.794762 -22.22967,-38.8962755 -20.74777,0.00305 z"
     id="path3667-0"
     style="fill:#ececec;stroke:none" />
  <path
     d="m 186.33218,1.117125 21.33203,38.01621 -46.125,82.229145 45.70267,78.99314 -45.43371,76.70636 47.04354,83.43309 -45.09467,80.2936 23.32183,38.06189 c 7.6106,0.3207 15.43244,0.28677 23.28585,-0.37932 l -23.29692,-37.2355 45.25483,-81.76473 -47.72971,-81.7868 46.27131,-79.49104 -46.58066,-77.39392 45.03386,-80.793435 -22.22967,-38.89564 -20.75558,0.00695 z"
     id="path3667-4"
     style="fill:#ececec;stroke:none" />
</svg>
