<?xml version="1.0" encoding="UTF-8" standalone="no"?>
<!-- Created with Inkscape (http://www.inkscape.org/) -->

<svg
   xmlns:svg="http://www.w3.org/2000/svg"
   xmlns="http://www.w3.org/2000/svg"
   version="1.1"
   width="390"
   height="480"
   id="svg4228">
  <defs
     id="defs4232" />
  <path
     d="M 0,0 C 130,0 260,0 390,0 389.98981,114.99797 370.78556,350.14732 194.88837,479.99815 20.79131,350.08886 0.081386,115.02225 0,0 z"
     id="path4240-0"
     style="color:#000000;fill:#207ebf;fill-opacity:1;fill-rule:nonzero;stroke:none;marker:none;visibility:visible;display:inline;overflow:visible;enable-background:accumulate" />
  <path
     d="m 34.8843,32.043497 c 48.005828,23.95914 122.86733,73.807993 142.61673,73.978613 26.74239,-0.54103 37.9829,-25.000273 37.20817,-36.040863 -1.16488,-17.15945 -20.75357,-17.28411 -26.38132,-5.07782 -6.47061,-8.79735 -7.53137,-38.81508 33.03502,-38.98834 13.67113,-0.26154 89.18288,27.47082 133.07393,40.50585 -3.30113,6.73961 -15.50213,9.53224 -23.57977,9.80545 -13.47129,0.58539 -72.29572,-25.25293 -77.97665,-17.04281 -8.86754,14.1826 71.134,34.80783 93.03502,40.50585 -4.77587,6.897273 -16.27648,10.046483 -24.74708,10.272373 -13.15895,0.39764 -72.06226,-27.393003 -77.27627,-17.626463 -7.97767,16.550083 54.69128,29.938513 84.74708,44.941643 -6.43545,6.93511 -13.87607,10.18461 -22.17898,10.27238 -15.13376,-0.41342 -74.39689,-32.45138 -81.8288,-21.01168 -10.73633,18.92555 66.14786,37.35409 101.55642,55.21401 26.81931,13.57462 16.08012,32.10781 -10.38911,22.87938 -42.607,-14.74708 -110.66147,-52.20011 -114.98054,-47.50973 -3.33665,3.94861 57.04281,53.73541 127.23736,103.01557 l -25.7393,29.53307 C 262.29675,251.90733 186.08883,174.23605 181.55745,179.1836 c -4.06666,4.91327 47.00389,73.54085 64.55253,111.01167 8.87621,20.55965 -6.84353,35.11817 -20.77821,12.02335 -22.87829,-32.21278 -55.46953,-105.28322 -68.98833,-96.3035 -15.96583,12.3675 33.54086,63.11284 31.40078,82.76264 -0.46954,8.65536 -3.56305,17.43576 -7.23735,19.84436 -16.05,-37.31753 -47.35334,-84.12752 -56.38133,-79.02724 -9.52254,6.21373 26.45915,60 27.43191,77.27626 0.18175,9.34197 -0.43506,20.42894 -6.18677,23.92997 -13.94674,-32.70981 -40.51085,-91.50553 -52.412452,-86.73152 -10.7393,5.60311 28.025242,62.53166 26.264602,80.31128 -1.02109,7.9653 -1.38886,12.79991 -5.71985,19.26071 C 68.71698,244.7478 54.78102,233.87196 53.61971,212.33535 53.14294,183.29027 71.09564,172.07693 88.055498,179.65052 77.09999,190.11185 83.037168,203.9359 95.526315,205.098 113.3398,204.53037 127.44935,186.2012 128.44461,167.27698 129.05338,141.97611 66.07107,77.121327 34.8843,32.043497 z"
     id="path2827"
     style="fill:#ececec;stroke:none" />
</svg>
