<?xml version="1.0" encoding="UTF-8" standalone="no"?>
<!-- Created with Inkscape (http://www.inkscape.org/) -->

<svg
   xmlns:svg="http://www.w3.org/2000/svg"
   xmlns="http://www.w3.org/2000/svg"
   version="1.1"
   width="390"
   height="480"
   id="svg4228">
  <defs
     id="defs4232" />
  <path
     d="m 0.51202379,0.50512952 c 129.66265621,0 259.32532621,0 388.98797621,0 C 389.48983,115.23328 370.33544,349.8309 194.89467,479.37706 21.249382,349.77255 0.5931986,115.2575 0.51202379,0.50512952 z"
     id="path4240-0-1"
     style="fill:#207dbf;fill-opacity:1;stroke:#999999;stroke-width:0.99999905;stroke-opacity:1" />
  <path
     d="m 194.90103,478.79744 c 28.0669,-20.42473 62.09822,-52.91268 86.68495,-87.55991 L 137.4627,1.00079 c 43.88448,5.043e-4 69.0225,-7.57e-4 115.30157,0.00405 L 109.03921,391.39358 c 22.77763,32.36619 55.08847,64.61504 85.86182,87.40386 z"
     id="path2827"
     style="fill:#e5e5e5;fill-opacity:1;stroke:none" />
  <path
     d="M 6.054589,97.14591 C 125.52268,134.91902 245.13544,173.05253 363.71165,212.09025 369.34277,190.92323 378.58272,151.11283 384.14754,97.305755 265.19476,134.83765 145.85958,172.83657 26.820872,212.01367 19.310767,184.36416 11.226174,145.62511 6.054589,97.14591 z"
     id="path2829"
     style="fill:#e5e5e5;fill-opacity:1;stroke:none" />
</svg>
