<?xml version="1.0" encoding="UTF-8" standalone="no"?>
<!-- Created with Inkscape (http://www.inkscape.org/) -->

<svg
   xmlns:svg="http://www.w3.org/2000/svg"
   xmlns="http://www.w3.org/2000/svg"
   version="1.1"
   width="390"
   height="480"
   id="svg4228">
  <defs
     id="defs4232" />
  <path
     d="M 0,0 C 130,0 260,0 390,0 389.98981,114.99797 370.78556,350.14732 194.88837,479.99815 20.79131,350.08886 0.081386,115.02225 0,0 z"
     id="path4240-0"
     style="color:#000000;fill:#d61a1a;fill-opacity:1;fill-rule:nonzero;stroke:none;marker:none;visibility:visible;display:inline;overflow:visible;enable-background:accumulate" />
  <path
     d="M 192.87384,390.11354 C 285.22952,349.95516 347.90262,250.70083 351.25377,170.25127 357.11549,29.531541 199.49452,-8.1341354 203.30066,103.7353 c 23.27218,-31.599295 68.4681,-25.734838 76.15063,14.72648 6.50085,34.23782 -26.27925,56.32598 -56.01606,39.74471 26.33712,32.9885 17.16863,82.49697 -28.87768,83.466 -36.2665,0.76322 -62.50778,-50.22075 -24.42499,-82.74691 -28.7076,12.63214 -55.5263,2.5968 -56.55738,-32.54229 C 112.5441,91.244203 159.12698,66.78581 183.52564,103.7353 192.55878,-8.6524479 35.573206,32.043581 41.010669,169.5996 43.709524,237.87478 85.929817,331.35644 192.87384,390.11354 z"
     id="path3634"
     style="fill:#ececec;stroke:none" />
</svg>
