<?xml version="1.0" encoding="UTF-8" standalone="no"?>
<!-- Created with Inkscape (http://www.inkscape.org/) -->

<svg
   xmlns:svg="http://www.w3.org/2000/svg"
   xmlns="http://www.w3.org/2000/svg"
   version="1.1"
   width="390"
   height="480"
   id="svg4228">
  <defs
     id="defs4232" />
  <path
     d="m 0.51202379,0.50512952 c 129.66265621,0 259.32532621,0 388.98797621,0 C 389.48983,115.23328 370.33544,349.8309 194.89467,479.37706 21.249382,349.77255 0.5931986,115.2575 0.51202379,0.50512952 z"
     id="path4240-0-1"
     style="fill:#d61a1a;fill-opacity:1;stroke:#999999;stroke-width:0.99999905;stroke-opacity:1" />
  <path
     d="M 291.46827,377.17443 206.5861,301.23601 c 0.78568,-1.01676 3.23601,-3.89611 1.43269,-5.26865 L 52.085578,177.28435 107.03656,247.20936 c -17.506976,9.00731 -38.075309,31.01879 -30.939398,54.06882 5.132652,16.57921 15.200129,28.35153 47.577198,29.44372 -11.00332,-10.48384 -18.66322,-21.18104 -22.83077,-29.11616 -2.706606,-5.15345 9.36238,-19.21024 10.99944,-19.87294 1.63122,-0.66033 19.55376,-5.79369 21.81404,-3.23512 14.09335,15.95352 30.42929,33.3606 42.05664,50.65287 1.56393,2.32588 8.22648,-2.51107 9.15079,-2.86539 l 84.06847,81.41847 c 7.88148,-9.59394 15.33599,-19.86556 22.5353,-30.5292 z"
     id="path3661"
     style="fill:#faf700;fill-opacity:1;stroke:none" />
  <path
     d="M 339.37709,286.09111 172.30846,132.71714 c 0.78569,-1.01676 3.23601,-3.89611 1.43271,-5.26865 L 17.807955,8.7654782 72.758937,78.69049 c -19.506975,5.50731 -41.075309,29.51879 -34.939398,51.06882 4.752717,16.69209 22.70013,31.35153 51.577198,32.44372 -11.00332,-10.48384 -18.663219,-21.18104 -22.830769,-29.11616 -2.706606,-5.15345 9.362379,-19.21024 10.999439,-19.87294 1.63122,-0.66033 19.55377,-5.79369 21.81402,-3.23512 14.093393,15.95352 30.429313,33.3606 42.056673,50.65287 1.56393,2.32588 8.22646,-2.51107 9.15079,-2.86539 l 170.97225,167.79223 c 5.87183,-11.66727 12.18093,-24.8606 17.81797,-39.46741 z"
     id="path3661-1"
     style="fill:#faf700;fill-opacity:1;stroke:none" />
  <path
     d="m 363.27042,213.80279 c 3.44765,-13.20092 6.64186,-26.61303 9.38371,-40.40211 l -45.57442,-43.8208 c 0.78566,-1.01676 3.23602,-3.89611 1.43268,-5.26865 L 172.57919,5.62822 227.53016,75.55323 c -18.00698,6.50731 -40.57531,29.01879 -34.9394,51.06882 4.29784,16.81496 23.20013,31.35153 51.5772,32.44372 -11.00332,-10.48384 -18.66322,-21.18104 -22.83077,-29.11616 -2.70661,-5.15345 9.36238,-19.21024 10.99944,-19.87294 1.63122,-0.66033 19.55378,-5.79369 21.81402,-3.23512 14.0934,15.95352 30.42931,33.3606 42.0567,50.65287 1.56394,2.32588 8.22645,-2.51107 9.1508,-2.86539 l 57.91226,59.17376 z"
     id="path3661-7"
     style="fill:#faf700;fill-opacity:1;stroke:none" />
</svg>
