<?xml version="1.0" encoding="UTF-8" standalone="no"?>
<!-- Created with Inkscape (http://www.inkscape.org/) -->

<svg
   xmlns:svg="http://www.w3.org/2000/svg"
   xmlns="http://www.w3.org/2000/svg"
   xmlns:xlink="http://www.w3.org/1999/xlink"
   version="1.1"
   width="390"
   height="480"
   id="svg4228">
  <defs
     id="defs4232" />
  <path
     d="m 0.51202379,0.50512952 c 129.66265621,0 259.32532621,0 388.98797621,0 C 389.48983,115.23328 370.33544,349.8309 194.89467,479.37706 21.249382,349.77255 0.5931986,115.2575 0.51202379,0.50512952 z"
     id="path4240-0-1"
     style="fill:#d61a1a;fill-opacity:1;stroke:#9e832a;stroke-width:0.99999905;stroke-opacity:1" />
  <path
     d="m 351.90625,251.95396 -313.184595,0.002 C 33.164411,234.81304 23.620436,205.40795 15.985523,164.22124 l 358.502737,-0.216 c -3.25913,19.26972 -14.48938,65.95407 -22.58201,87.94872 z"
     id="path5174"
     style="fill:#faf700;fill-opacity:1;stroke:none" />
  <path
     d="M 65.3615,77.795342 C 60.707931,61.950992 33.941442,55.482838 60.358702,41.893416 c 5.025075,-2.584972 16.112048,6.399422 22.722556,18.661009 6.864337,12.732403 9.757911,25.994748 12.512935,25.938811 8.581167,-0.17423 -19.039148,-35.407185 11.865007,-71.565756 31.86118,34.311716 1.8264,72.702717 11.49774,72.308029 2.10368,-0.08585 5.73937,-13.166566 12.05974,-25.450957 5.35942,-10.41668 16.95047,-21.619779 23.2053,-19.435316 24.97142,8.721123 -1.32163,21.158583 -5.41501,35.678535 -2.62648,-2.976806 -4.34852,-7.213037 -8.6291,-6.83137 -5.30218,0.472755 -8.22204,9.592181 -11.35694,15.35831 4.10066,-0.538499 2.01367,11.200284 -2.64182,11.780014 0.84277,4.973715 5.31149,24.267625 18.67286,10.434215 11.54026,18.36753 -20.87257,27.60212 -25.34798,-10.42683 l -4.9887,0 c 7.40833,26.07702 -0.21952,37.27371 -7.05609,48.26903 -7.57724,-11.14441 -14.727365,-20.79839 -7.01114,-48.089257 l -5.078583,0.04494 C 90.916762,137.58386 58.472108,125.61282 69.347348,108.67905 80.425291,119.72289 86.823789,110.36995 88.934526,98.558115 84.834457,98.007327 80.643833,84.774789 86.013574,85.190487 79.392191,74.620532 79.342025,70.032524 74.558469,70.298711 c -4.65599,0.259088 -5.962084,5.039798 -9.196969,7.496631 z"
     id="path5176"
     style="fill:#faf700;fill-opacity:1;stroke:none" />
  <use
     transform="translate(176,0)"
     id="use3763"
     x="0"
     y="0"
     width="390"
     height="480"
     xlink:href="#path5176" />
  <use
     transform="matrix(1.0151879,0,0,1.0470388,86.37698,275.00729)"
     id="use3765"
     x="0"
     y="0"
     width="390"
     height="480"
     xlink:href="#path5176" />
</svg>
