<?xml version="1.0" encoding="UTF-8" standalone="no"?>
<!-- Created with Inkscape (http://www.inkscape.org/) -->

<svg
   xmlns:svg="http://www.w3.org/2000/svg"
   xmlns="http://www.w3.org/2000/svg"
   version="1.1"
   width="390"
   height="480"
   id="svg4228">
  <defs
     id="defs4232" />
  <path
     d="M 0,0 C 130,0 260,0 390,0 389.98981,114.99797 370.78556,350.14732 194.88837,479.99815 20.79131,350.08886 0.081386,115.02225 0,0 z"
     id="path4240-0"
     style="fill:#207dbf;fill-opacity:1;stroke:none" />
  <path
     d="m 90.508475,306.99153 c 75.838345,39.76159 98.662985,14.66743 117.457625,1.27118 -36.22881,-4.70339 -36.1452,-18.34659 -57.9661,-20.08475 -10.55645,-0.84088 -20.27093,29.95078 -24.66102,23.89831 -10.83365,-14.93601 7.74594,-21.54345 7.5,-28.09322 -1.5084,-40.1715 -22.1693,-50.29253 -21.48305,-82.37288 0.0978,-4.57181 18.46877,-0.29655 17.16102,7.5 -4.54389,27.08975 21.99798,83.5086 71.5678,77.79661 5.93699,-0.68413 21.63305,-40.87122 20.08474,-67.69068 C 215.29697,134.81557 132.41643,81.282992 46.938559,91.016944 c -3.2303,0.367856 2.544907,-6.487338 3.390154,-10.074743 1.275951,-5.415401 0.678386,-9.121586 2.87044,-8.865935 24.520276,2.85971 69.669897,20.836186 73.220337,9.788136 4.86454,-15.137213 -27.49297,-25.40295 -35.529659,-34.322034 -2.150422,-2.38653 17.394389,-11.697963 18.241529,-8.516949 2.05258,7.707454 20.55676,30.075666 18.55932,6.991525 -0.1434,-1.657238 11.3684,-3.17521 11.31356,-0.127119 -0.16369,9.098404 -4.69796,34.384499 8.58051,43.474577 57.9985,39.704188 67.46745,82.070138 79.19491,82.118648 8.71952,0.0361 11.93459,-21.73731 10.23305,-42.58475 -0.0822,-1.00708 3.35785,0.0605 5.38798,-0.0843 3.22224,-0.22989 5.88742,-0.97895 5.92558,1.10126 0.18198,9.92073 -10.04336,25.97436 11.82204,22.24577 3.74998,-0.63946 6.37753,7.40572 5.27542,7.94491 -9.2042,4.50302 -35.17963,12.70538 -33.81356,25.16949 2.54191,23.19254 3.93893,36.75181 -12.58475,109.95763 -0.47617,2.10961 3.25513,5.06965 5.08475,3.75 39.29127,-28.33951 84.21309,-75.84711 87.96611,-95.08474 4.18999,-21.47751 -3.61503,-117.134892 -119.68221,-147.330519 -3.15827,-0.821642 5.53576,-17.017252 8.19916,-15.190677 19.92915,13.667559 55.33253,38.082996 65.46609,27.012711 8.52122,-9.308905 -9.98056,-17.964543 -15.19067,-26.440678 -2.07728,-3.379444 3.51984,-2.283973 8.25372,-2.28759 4.58848,-0.0035 7.59169,-4.631156 8.01746,-3.051393 2.13633,7.926665 5.69074,23.567304 11.05932,23.326272 3.70677,-0.166422 5.18237,-6.223155 5.40255,-11.694916 0.0878,-2.181156 10.6052,-1.318278 9.34322,1.90678 -4.37205,11.173013 -20.27616,27.290583 -11.25,36.800848 38.22312,40.273182 39.08342,72.923402 46.33474,72.394072 12.73679,-0.92976 15.23274,-28.43145 15.69915,-49.95763 0.0391,-1.80312 8.35391,-1.55639 8.4534,1.7161 0.12867,4.23244 -5.07188,12.9316 -1.27119,16.52543 2.55502,2.41596 11.58058,-5.56377 13.98305,-6.10169 2.40247,-0.53792 -0.16842,4.22541 1.79444,6.5649 2.42495,2.89025 7.09724,5.1461 4.30725,5.7656 -18.51153,4.11034 -19.40976,13.86048 -28.37925,26.41391 -5.87457,8.22187 -12.89684,11.12865 -12.23515,22.71745 2.36613,41.44029 -35.77711,72.11875 -54.8719,92.77935 -19.04671,20.60857 -32.90513,29.45865 -33.412,41.96641 -0.1234,3.04507 -0.80278,4.28197 6.03813,11.50424 -5.40349,3.67522 -9.84932,8.0785 -19.38559,8.35805 -1.42309,0.0417 -1.96344,-2.0215 -5.21186,-1.65254 -4.4572,0.50625 -8.52321,3.78476 -13.15678,3.97245 -9.88153,0.40026 -0.33066,-14.13685 -8.51695,-13.53813 -36.36569,2.65968 -70.44546,58.26487 -73.22034,57.13983 -6.48325,-2.62856 -2.0725,-11.00523 -11.31356,-19.44915 -7.42304,-6.78273 -26.682676,-14.00403 -23.644069,-18.30509 2.846217,-4.02874 4.027493,-11.39486 0.663327,-17.64525 -3.83564,-7.12636 -8.590404,-23.61587 -3.841293,-21.12594 z"
     id="path4585"
     style="fill:#ececec;stroke:none" />
</svg>
