<?xml version="1.0" encoding="UTF-8" standalone="no"?>
<!-- Created with Inkscape (http://www.inkscape.org/) -->

<svg
   xmlns:svg="http://www.w3.org/2000/svg"
   xmlns="http://www.w3.org/2000/svg"
   xmlns:xlink="http://www.w3.org/1999/xlink"
   version="1.1"
   width="390"
   height="480"
   id="svg4228">
  <defs
     id="defs4232" />
  <path
     d="M 0,0 C 130,0 260,0 390,0 389.98981,114.99797 370.78556,350.14732 194.88837,479.99815 20.79131,350.08886 0.081386,115.02225 0,0 z"
     id="path4240-0"
     style="color:#000000;fill:#008c31;fill-opacity:1;fill-rule:nonzero;stroke:none;marker:none;visibility:visible;display:inline;overflow:visible;enable-background:accumulate" />
  <path
     d="m 120.53774,217.44166 c -1.7353,-3.82156 -7.27768,0.33467 -7.82012,4.76398 -0.65439,5.34338 -37.542584,17.32302 -45.302778,48.35892 -6.289999,25.15604 13.088417,46.0697 26.786163,58.42619 30.259515,27.29657 64.772445,35.28351 89.167365,6.83138 8.65409,-10.09338 10.34609,-30.31612 17.97729,-35.77481 7.48969,-5.35747 6.69124,-5.0197 0,-11.86502 -6.36717,-6.51379 4.24319,-24.57246 6.47182,-27.8648 10.52356,-15.54637 14.83803,-16.761 24.98844,-11.48299 2.15845,1.12235 5.1373,2.23127 5.12353,-3.07861 -0.0341,-13.13229 33.72773,-14.16595 37.48265,-49.078 1.42371,-13.23719 -3.92095,-25.13793 -11.86501,-35.59504 L 352.17513,48.455127 c 18.98759,8.613523 18.35085,-17.10638 10.15717,-24.898548 -8.19368,-7.792168 -36.64358,-12.148298 -26.42662,12.404331 l -96.71782,105.79636 c -21.18823,-11.8513 -48.7044,-15.28388 -59.95427,4.04489 -7.68802,13.20904 -12.23767,31.02446 -21.93229,32.89844 -7.45623,1.4413 0.0739,7.06469 1.52807,8.17967 8.76164,6.71816 -8.27445,24.55793 -10.51672,26.69628 -10.29331,9.81627 -24.34114,11.42713 -27.77491,3.86511 z"
     id="path3602"
     style="fill:#faf700;fill-opacity:1;stroke:none" />
  <path
     d="m 285.88388,92.477019 -6.56172,-5.685318 c -8.38962,2.209165 -10.45213,-6.837365 -7.0179,-9.324546 4.859,-3.519051 11.14938,-0.257893 9.57966,6.403235 l 6.78643,5.595433 -2.78647,3.011196 z"
     id="path3604"
     style="fill:#faf700;fill-opacity:1;stroke:none" />
  <use
     transform="translate(10.247056,-10.606602)"
     id="use3606"
     x="0"
     y="0"
     width="390"
     height="480"
     xlink:href="#path3604" />
  <use
     transform="translate(20.673885,-22.83116)"
     id="use3608"
     x="0"
     y="0"
     width="390"
     height="480"
     xlink:href="#path3604" />
  <use
     transform="translate(31.280486,-34.156853)"
     id="use3610"
     x="0"
     y="0"
     width="390"
     height="480"
     xlink:href="#path3604" />
  <use
     transform="translate(42.60618,-45.662319)"
     id="use3612"
     x="0"
     y="0"
     width="390"
     height="480"
     xlink:href="#path3604" />
  <path
     d="m 311.73944,98.928289 6.56172,5.685321 c 8.38962,-2.20916 10.45213,6.83737 7.0179,9.32455 -4.859,3.51905 -11.14938,0.25789 -9.57966,-6.40324 l -6.78643,-5.59543 2.78647,-3.011201 z"
     id="path3604-1"
     style="fill:#faf700;fill-opacity:1;stroke:none" />
  <use
     transform="translate(8.8088726,-13.123422)"
     id="use3638"
     x="0"
     y="0"
     width="390"
     height="480"
     xlink:href="#path3604-1" />
  <use
     transform="translate(17.977291,-24.988435)"
     id="use3640"
     x="0"
     y="0"
     width="390"
     height="480"
     xlink:href="#path3604-1" />
  <use
     transform="translate(27.505255,-37.572538)"
     id="use3642"
     x="0"
     y="0"
     width="390"
     height="480"
     xlink:href="#path3604-1" />
  <path
     d="m 126.65002,235.7785 c -0.34531,-4.05232 -5.06532,-3.50226 -6.4274,-0.72926 -1.22861,2.50126 0.0207,5.52089 3.72393,7.22307 4.08473,1.87754 11.51019,0.76717 17.70002,-3.94381 6.19599,-4.71567 13.12437,-11.68698 18.04903,-16.90119 6.36516,-6.73939 8.83425,-5.48096 8.70668,-2.54746 -0.18355,4.22071 5.05096,3.13612 5.93251,1.61795 2.56293,-4.41379 -0.52908,-10.84932 -9.16843,-8.13472 -7.50421,2.35793 -10.80075,11.66402 -26.51443,22.73869 -6.06832,4.27683 -11.62702,5.07629 -12.00191,0.67673 z"
     id="path3644"
     style="fill:#008c31;fill-opacity:1;stroke:none" />
  <use
     transform="matrix(-0.16557677,-0.9861969,-0.9861969,0.16557677,439.16089,371.89521)"
     id="use3646"
     x="0"
     y="0"
     width="390"
     height="480"
     xlink:href="#path3644" />
</svg>
