<?xml version="1.0" encoding="UTF-8" standalone="no"?>
<!-- Created with Inkscape (http://www.inkscape.org/) -->

<svg
   xmlns:svg="http://www.w3.org/2000/svg"
   xmlns="http://www.w3.org/2000/svg"
   version="1.1"
   width="350"
   height="480"
   id="svg4228">
  <defs
     id="defs4232" />
  <path
     d="M 80.986902,72.65669 55.211382,27.666905 110.1614,11.83251 122.05777,50.790143 138.76935,47.774065 127.15622,8.3137514 c 32.35755,-5.3129086 64.41783,-6.4051103 96.02085,-1.0053507 l -9.34714,39.9629863 15.86183,2.764742 9.91367,-37.952284 57.78248,14.829043 -24.64252,43.230406 C 262.92983,91.710232 198.30101,89.55494 176.15805,89.496437 153.31916,89.436047 91.198471,96.438972 80.986902,72.65669 z"
     id="path5111-9"
     style="fill:#d61a1a;fill-opacity:1;stroke:#fffc00;stroke-width:6.73462963;stroke-linecap:butt;stroke-linejoin:miter;stroke-miterlimit:4;stroke-opacity:1;stroke-dasharray:none" />
  <path
     d="M 78.788624,75.546613 94.173228,108.7926 c 59.274752,2.5758 113.126962,-3.70816 168.068842,2.39478 L 274.66038,74.615001 C 217.08786,53.293162 137.11143,53.006568 78.788624,75.546613 z"
     id="path5107-1"
     style="fill:#d61a1a;fill-opacity:1;stroke:#fffc00;stroke-width:6.73462963;stroke-linecap:butt;stroke-linejoin:miter;stroke-miterlimit:4;stroke-opacity:1;stroke-dasharray:none" />
  <path
     d="M 65.691564,43.501294 C 67.107769,42.495935 114.41007,30.1803 114.41007,30.1803"
     id="path5625-5"
     style="fill:none;stroke:#fffc00;stroke-width:5.38770437;stroke-linecap:butt;stroke-linejoin:miter;stroke-miterlimit:4;stroke-opacity:1;stroke-dasharray:none" />
  <path
     d="m 234.93186,30.054634 c 1.41622,1.005359 52.40077,13.320993 52.40077,13.320993"
     id="path5625-8-9"
     style="fill:none;stroke:#fffc00;stroke-width:5.38770437;stroke-linecap:butt;stroke-linejoin:miter;stroke-miterlimit:4;stroke-opacity:1;stroke-dasharray:none" />
  <path
     d="m 135.9369,28.672264 c 26.81503,-3.730265 57.4957,-3.217734 81.29199,-0.251355"
     id="path5649-8"
     style="fill:none;stroke:#fffc00;stroke-width:5.38770437;stroke-linecap:butt;stroke-linejoin:miter;stroke-miterlimit:4;stroke-opacity:1;stroke-dasharray:none" />
  <rect
     width="12.879544"
     height="21.774698"
     x="68.517197"
     y="70.52153"
     transform="matrix(0.96105493,-0.27635741,0.34304157,0.93932022,0,0)"
     id="rect5657-4"
     style="fill:#fffc00;fill-opacity:1;stroke:none" />
  <rect
     width="12.511589"
     height="20.32855"
     x="249.58221"
     y="5.4154935"
     transform="matrix(0.96105493,0.27635741,0.34304157,-0.93932022,0,0)"
     id="rect5657-8-0"
     style="fill:#fffc00;fill-opacity:1;stroke:none" />
  <rect
     width="13.312627"
     height="30.035078"
     x="168.51035"
     y="28.16959"
     id="rect5681-7"
     style="fill:#fffc00;fill-opacity:1;stroke:none" />
  <path
     d="M 86.651858,97.740337 C 133.27763,76.209879 212.67913,75.406183 268.21343,96.734982"
     id="path5109-3"
     style="fill:none;stroke:#fffc00;stroke-width:6.73462963;stroke-linecap:butt;stroke-linejoin:miter;stroke-miterlimit:4;stroke-opacity:1;stroke-dasharray:none" />
  <path
     d="M 0.59664322,93.658557 349.56234,93.631046 C 349.54919,310.7639 349.54518,313.96693 349.54518,313.97674 350.4401,534.80783 0.60251422,534.81238 0.59953838,313.97619 L 0.59623044,93.658557 z"
     id="path2902"
     style="fill:#d61a1a;fill-opacity:1;stroke:#a58d31;stroke-width:0.81539351;stroke-opacity:1" />
  <path
     d="m 26.381243,214.32101 25.333679,-0.051 c 0.215781,24.00437 0.258446,28.00591 0.519181,41.75856 0.534085,28.17106 21.421776,48.70708 34.522271,51.513 l 0.830628,6.18403 8.046562,2.65759 4.308791,-7.71725 19.259825,3.16867 3.84157,7.3595 106.11075,0 3.16672,-7.4106 19.36366,-3.2709 3.42625,7.66615 8.98101,-2.86203 0.57105,-5.77516 c 11.70436,-3.75497 33.78694,-17.17105 34.32914,-53.52025 0.19942,-13.51261 0.22477,-9.91131 0.11526,-39.77687 l 26.24218,0.0256 c -0.56261,76.32654 -0.63235,82.52147 -0.76988,123.27553 -0.15928,47.17807 -45.94806,95.96008 -148.48081,95.36321 C 86.07265,432.3846 28.02613,394.84791 27.215437,335.69585 26.82837,307.45447 27.40758,295.67324 26.381193,214.32101 z"
     id="path2827"
     style="fill:#fffc00;fill-opacity:1;stroke:none" />
  <path
     d="m 175.28361,211.45899 c 1.08874,7.39724 2.2207,14.76986 10.56338,18.041 -0.61154,3.78387 -3.79817,9.55839 -10.24806,9.60827 -5.60216,0.0433 -9.86214,-4.97471 -10.56338,-9.45493 8.20286,-3.17999 9.36354,-10.81752 10.24806,-18.19434 z"
     id="path2961"
     style="fill:#fffc00;fill-opacity:1;stroke:none" />
  <path
     d="m 204.47729,183.24754 c 7.60656,-1.05878 15.18786,-2.15958 18.55158,-10.27264 3.89096,0.5947 9.82888,3.6936 9.88018,9.966 0.0445,5.44798 -5.1155,9.59071 -9.72252,10.27263 -3.26997,-7.97707 -11.12366,-9.10581 -18.70924,-9.96599 z"
     id="path2961-8"
     style="fill:#fffc00;fill-opacity:1;stroke:none" />
  <path
     d="m 146.72059,183.34975 c -7.60658,1.05878 -15.18788,2.15957 -18.55162,10.27265 -3.89093,-0.59472 -9.82886,-3.69362 -9.88015,-9.96601 -0.0445,-5.44798 5.11548,-9.5907 9.72248,-10.27262 3.27001,7.97709 11.12367,9.1058 18.70929,9.96598 z"
     id="path2961-2"
     style="fill:#fffc00;fill-opacity:1;stroke:none" />
  <path
     d="m 175.23105,155.01066 c 1.08873,-7.39724 2.22069,-14.76988 10.56338,-18.04101 -0.61155,-3.78385 -3.79815,-9.55835 -10.24805,-9.60824 -5.60218,-0.0433 -9.86216,4.97469 -10.56338,9.45492 8.20284,3.17999 9.36352,10.81751 10.24805,18.19433 z"
     id="path2961-5"
     style="fill:#fffc00;fill-opacity:1;stroke:none" />
  <path
     d="m 232.37288,114.15254 a 20.84746,20.593222 0 1 1 -41.69492,0 20.84746,20.593222 0 1 1 41.69492,0 z"
     transform="matrix(0.84197661,0,0,0.83387575,-2.7107612,88.007389)"
     id="path3775"
     style="fill:#fffc00;fill-opacity:1;stroke:none" />
  <path
     d="m 178.43686,158.56251 5.04517,1.3288 c 1.35764,-6.2769 2.62328,-9.81656 6.20139,-8.48387 4.71183,1.75496 -0.32341,6.457 -1.36639,9.91489 l 2.20726,1.22659 c 4.02643,-3.90564 7.55977,-12.79535 12.08746,-9.40381 5.12485,3.83884 -3.92404,9.02903 -8.09335,13.39021 l 1.78686,2.24874 c 6.73217,-3.68029 10.57836,-6.67676 12.29764,-2.55539 1.84442,4.4213 -5.19501,6.62303 -9.35463,8.27945 l 0.52555,4.70189 c 25.73283,-2.95344 26.42504,-19.93163 27.32814,-42.93046 0.0627,-1.59548 -1.89206,-3.66429 -3.15325,-3.67976 -25.03928,-0.30686 -42.5897,3.65944 -45.51185,25.96272 z"
     id="path3777"
     style="fill:#fffc00;fill-opacity:1;stroke:none" />
  <path
     d="m 172.11082,158.66474 -5.0452,1.32879 c -1.35761,-6.27691 -2.62327,-9.81655 -6.20138,-8.48387 -4.71184,1.75493 0.32341,6.45699 1.36641,9.91488 l -2.20728,1.22658 c -4.02643,-3.90562 -7.55976,-12.79536 -12.08745,-9.4038 -5.12485,3.83886 3.92405,9.02901 8.09334,13.39022 l -1.78685,2.24873 c -6.73218,-3.68029 -10.57836,-6.67675 -12.29765,-2.55537 -1.84442,4.42127 5.19503,6.62303 9.35462,8.27945 l -0.52553,4.70189 c -25.73286,-2.95344 -26.42504,-19.93165 -27.32815,-42.93046 -0.0626,-1.59549 1.89206,-3.66431 3.15324,-3.67976 25.0393,-0.30686 42.58971,3.65943 45.51188,25.96272 z"
     id="path3777-5"
     style="fill:#fffc00;fill-opacity:1;stroke:none" />
  <path
     d="m 179.01287,207.79523 5.0452,-1.32879 c 1.35761,6.2769 2.62326,9.81656 6.20139,8.48387 4.71183,-1.75494 -0.32341,-6.45702 -1.3664,-9.9149 l 2.20725,-1.22657 c 4.02645,3.90563 7.55978,12.79536 12.08745,9.4038 5.12485,-3.83887 -3.92403,-9.02903 -8.09331,-13.39022 l 1.78683,-2.24873 c 6.73218,3.68026 10.57837,6.67675 12.29768,2.55539 1.84441,-4.42129 -5.19506,-6.62305 -9.35465,-8.27947 l 0.52554,-4.7019 c 25.73284,2.95344 26.42501,19.93166 27.32814,42.93046 0.0626,1.59551 -1.89204,3.66431 -3.15325,3.67978 -25.03929,0.30685 -42.58971,-3.65944 -45.51187,-25.96272 z"
     id="path3777-6"
     style="fill:#fffc00;fill-opacity:1;stroke:none" />
  <path
     d="m 172.08604,208.08433 -5.04518,-1.32882 c -1.35761,6.27693 -2.62323,9.81659 -6.20137,8.48389 -4.71184,-1.75495 0.3234,-6.45699 1.36639,-9.91491 l -2.20728,-1.22658 c -4.02642,3.90565 -7.55974,12.79536 -12.08745,9.40384 -5.12486,-3.83888 3.92405,-9.02903 8.09335,-13.39022 l -1.78685,-2.24874 c -6.73219,3.68028 -10.57837,6.67673 -12.29765,2.55538 -1.84442,-4.42129 5.19503,-6.62303 9.35463,-8.27945 l -0.52555,-4.7019 c -25.73284,2.95345 -26.42503,19.93166 -27.32812,42.93047 -0.0627,1.59548 1.89204,3.66429 3.15324,3.67974 25.03926,0.30687 42.58969,-3.65943 45.51184,-25.9627 z"
     id="path3777-4"
     style="fill:#fffc00;fill-opacity:1;stroke:none" />
  <path
     d="m 165.08811,275.59916 c 3.47772,-9.46758 17.72511,-10.15376 21.12676,0.10216 11.263,5.10668 9.19023,16.44908 0.31531,20.54531 -6.12045,10.00192 -15.84091,9.98869 -21.44207,0.10229 -10.67721,-4.18623 -10.32906,-18.15328 0,-20.74973 z"
     id="path3915"
     style="fill:#fffc00;fill-opacity:1;stroke:none" />
  <path
     d="m 242.99785,249.453 c 3.47771,-9.46757 17.72511,-10.15376 21.12676,0.10229 11.26301,5.10664 9.19023,16.44905 0.31531,20.54527 -6.12043,10.00195 -15.84092,9.98871 -21.44207,0.10229 -10.67721,-4.1862 -10.32906,-18.15326 0,-20.74973 z"
     id="path3915-1"
     style="fill:#fffc00;fill-opacity:1;stroke:none" />
  <path
     d="m 87.549794,249.453 c 3.477709,-9.46757 17.725106,-10.15376 21.126756,0.10229 11.263,5.10664 9.19023,16.44905 0.31531,20.54527 -6.12045,10.00195 -15.840915,9.98871 -21.442066,0.10229 -10.677202,-4.1862 -10.329069,-18.15326 0,-20.74973 z"
     id="path3915-1-8"
     style="fill:#fffc00;fill-opacity:1;stroke:none" />
  <path
     d="m 275.60942,187.51047 c 3.47773,-9.46758 17.7251,-10.15376 21.12675,0.10227 11.26301,5.10666 9.19026,16.44908 0.31533,20.5453 -6.12045,10.00193 -15.84094,9.9887 -21.44208,0.10227 -10.6772,-4.18619 -10.32908,-18.15327 0,-20.74972 z"
     id="path3915-1-2"
     style="fill:#fffc00;fill-opacity:1;stroke:none" />
  <path
     d="m 54.013256,187.51047 c 3.477721,-9.46758 17.725102,-10.15376 21.126748,0.10227 11.263006,5.10666 9.190254,16.44908 0.315327,20.5453 -6.120447,10.00193 -15.840934,9.9887 -21.442075,0.10227 -10.677194,-4.18619 -10.329075,-18.15327 0,-20.74972 z"
     id="path3915-1-2-7"
     style="fill:#fffc00;fill-opacity:1;stroke:none" />
  <path
     d="m 25.816222,128.22553 c 3.477721,-9.46758 17.725114,-10.15373 21.126763,0.10228 11.263008,5.10667 9.190235,16.44908 0.315311,20.54531 -6.120436,10.0019 -15.840918,9.98868 -21.442074,0.10227 -10.677197,-4.18619 -10.329059,-18.15324 0,-20.74972 z"
     id="path3915-1-2-5"
     style="fill:#fffc00;fill-opacity:1;stroke:none" />
  <path
     d="m 75.427298,128.22551 c 3.477723,-9.46756 17.725115,-10.15373 21.12677,0.10229 11.263012,5.10667 9.190232,16.44909 0.315303,20.54531 -6.120431,10.00191 -15.840907,9.98869 -21.442073,0.10227 -10.677188,-4.18619 -10.329055,-18.15325 0,-20.74973 z"
     id="path3915-1-2-5-4"
     style="fill:#fffc00;fill-opacity:1;stroke:none" />
  <path
     d="m 254.0272,128.22551 c 3.47772,-9.46756 17.7251,-10.15373 21.12676,0.10229 11.26302,5.10667 9.19024,16.44909 0.31532,20.54531 -6.12045,10.00191 -15.84092,9.98869 -21.44208,0.10227 -10.67721,-4.18619 -10.32906,-18.15325 0,-20.74973 z"
     id="path3915-1-2-5-4-3"
     style="fill:#fffc00;fill-opacity:1;stroke:none" />
  <path
     d="m 303.63829,128.22551 c 3.4777,-9.46756 17.7251,-10.15373 21.12674,0.10229 11.26301,5.10667 9.19025,16.44909 0.31533,20.54531 -6.12045,10.00191 -15.84093,9.98869 -21.44207,0.10227 -10.67722,-4.18619 -10.32907,-18.15325 0,-20.74973 z"
     id="path3915-1-2-5-4-3-1"
     style="fill:#fffc00;fill-opacity:1;stroke:none" />
  <path
     d="m 39.010801,288.77645 c 14.464034,68.85876 77.272839,72.68313 135.852379,72.46336 59.7276,-0.22408 119.42267,-1.33111 136.32536,-72.80038 -0.89615,73.50136 -21.35336,114.67769 -135.90494,114.8179 C 59.819274,403.39868 37.703847,361.59856 39.010801,288.77645 z"
     id="path4156"
     style="fill:#d61a1a;fill-opacity:1;stroke:none" />
  <path
     d="m 41.382062,305.51531 c 19.346734,63.2136 79.355058,60.7477 133.626718,60.58295 55.70414,-0.16907 116.04084,0.0114 133.80469,-61.14523 -9.50832,54.98824 -24.39616,92.89696 -133.00788,92.93716 -96.93101,0.0359 -125.629533,-31.96813 -134.423528,-92.37488 z"
     id="path4156-0"
     style="fill:#fffc00;fill-opacity:1;stroke:none" />
  <path
     d="M 7.3693166,100.823 342.99125,100.7965 c -0.0132,209.113 -0.0165,212.19772 -0.0165,212.2072 0.8608,212.67458 -335.5997302,212.67894 -335.6025947,-6.8e-4 l -0.00332,-212.18015 z"
     id="path2902-7"
     style="fill:none;stroke:#fffc00;stroke-width:13.5760994;stroke-miterlimit:4;stroke-opacity:1;stroke-dasharray:none" />
</svg>
