<?xml version="1.0" encoding="UTF-8"?>
<svg xmlns="http://www.w3.org/2000/svg" xmlns:xlink="http://www.w3.org/1999/xlink" width="390" height="480">
<path d="M0,0C130,0 260,0 390,0 390,115 371,350 195,480 21,350 0,115 0,0 z" fill="#207dbf"/>
<path d="m38.6,32.6c-0.7,0-1.3,0.2-1.8,0.5 1.1,4.1 3.9,9.3 3.2,9.6-1.1,0.4-3.3-6.6-4.4-8.6-1.1-1.9-2-1.8-2.9,2.1-0.7,2.9 0.7,13.3 6.9,23.8 9.8,4 17.1,1.9 19.6-9.3 2.4,6.6-6.9,16.8-18.9,11.1 7.3,19.4 25,44.3 42.4,61.5 1.4,5.4 4.5,11.3 7.6,17.2 l 7.9-0.9c-3.7-4-8-9.3-9.7-14.1 3.5,2.2 9.5,3.9 14.6,4.9-0.4,5.6 8.8,15.1 17.6,18l0.4-8.1c11.1,5.7 20.8,11.4 32.3,44.1 0.8-3.8 0.5-7.8 2-10.6 1.5-2.8 1.7-3.8 1.8-5.3 0.4-3.1-2.1-8-2.1-8 3.3,0.6 4.6,1 8.4,0.6 3.1-0.3 4.3-2.9 7.2-3.1 5.9-0.3 12.2-1.7 11.7-2.2-32.4-8.3-53.3-33.1-58.3-49.7l8.1-0.3c0.1-0-15.8-21.6-16.5-21.6l-10.7,0.2C 87.8,59.4 49.5,32 38.6,32.6zm5.5,8.5a3,3 0 0 1 3.2,3 3,3 0 0 1 -6,0 3,3 0 0 1 2.8-3zM53.5,62.2 54.1,77.5c0.6,4.6 8.5,4.2 12.5,3.4L57.9,62.4 69.1,81.9C 65.4,83.4 53.3,83.5 53.1,79.2l0.4-17z" id="a" fill="#ececec"/>
<use transform="matrix(1,-0.05,0.05,1,158,46)" xlink:href="#a"/>
<use transform="matrix(1,0.03,-0.03,1,31.6,154.4)" xlink:href="#a"/>
<use transform="matrix(1,0.05,-0.05,1,140,147.4)" xlink:href="#a"/>
</svg>