<?xml version="1.0" encoding="UTF-8" standalone="no"?>
<!-- Created with Inkscape (http://www.inkscape.org/) -->

<svg
   xmlns:svg="http://www.w3.org/2000/svg"
   xmlns="http://www.w3.org/2000/svg"
   version="1.1"
   width="390"
   height="480"
   id="svg4228">
  <defs
     id="defs4232" />
  <path
     d="m 0.51202379,0.50512952 c 129.66265621,0 259.32532621,0 388.98797621,0 C 389.48983,115.23328 370.33544,349.8309 194.89467,479.37706 21.249382,349.77255 0.5931986,115.2575 0.51202379,0.50512952 z"
     id="path4240-0-1"
     style="fill:#d9d9d9;fill-opacity:1;stroke:#999999;stroke-width:0.99999905;stroke-opacity:1" />
  <path
     d="m 95,306.25 0,-7.75 11.75,-8.25 0,-92.75 -27.21967,-43.63388 -8.896447,0.0732 L 187,53.999996 l 0.0152,-12.734835 -7.49847,-0.02492 8.75045,-14.584081 13.96536,-0.08839 9.36916,14.142137 -7.86656,0 0.0884,12.904699 117.64488,100.055604 -9.01561,1e-5 -28.1075,44.28256 0.17678,91.74711 12.02082,9.36916 0,6.98268 z"
     id="path3073"
     style="fill:#207dbf;fill-opacity:1;stroke:none" />
  <path
     d="m 90.686445,153.22828 58.689865,0.0884 11.49048,37.21148 -47.28776,-1e-5 z"
     id="path3075"
     style="fill:#d9d9d9;fill-opacity:1;stroke:none" />
  <path
     d="m 300.86679,153.22828 -58.97019,0.0884 -11.21015,37.21148 47.28776,-1e-5 z"
     id="path3077"
     style="fill:#d9d9d9;fill-opacity:1;stroke:none" />
  <path
     d="m 157.74372,153.21339 75.90273,0.0366 -11.27145,37.125 -53.75,0 z"
     id="path3081"
     style="fill:#d9d9d9;fill-opacity:1;stroke:none" />
</svg>
