<?xml version="1.0" encoding="UTF-8" standalone="no"?>
<!-- Created with Inkscape (http://www.inkscape.org/) -->

<svg
   xmlns:svg="http://www.w3.org/2000/svg"
   xmlns="http://www.w3.org/2000/svg"
   version="1.1"
   width="390"
   height="480"
   id="svg4228">
  <defs
     id="defs4232" />
  <path
     d="m 0.50372239,0.51058709 c 129.66470761,0 259.32940761,0 388.99411761,0 C 389.48767,115.24483 378.58228,365.43346 194.88944,479.40797 11.493091,363.48026 0.5848978,115.26906 0.50372239,0.51058709 z"
     id="path4240"
     style="fill:#008c31;fill-opacity:1;stroke:#999999;stroke-width:0.99900001;stroke-miterlimit:4;stroke-opacity:1;stroke-dasharray:none" />
  <path
     d="m 55.005628,310.95804 c 19.086297,-1.87612 36.711539,-11.72753 48.474222,-23.62384 20.50134,19.53031 62.3292,20.71483 91.98067,0.12025 23.6683,18.62415 66.63908,18.26245 92.49236,-0.12025 13.94252,12.10815 23.78459,20.84958 47.71179,22.95843 -2.88703,6.56273 -5.98727,13.28112 -9.22165,19.75933 -12.01469,-3.70725 -27.24827,-8.8989 -37.34033,-16.2157 -34.59695,17.3827 -65.05552,12.75229 -93.897,-0.47938 -29.18521,14.83234 -60.03485,15.90555 -93.07283,-0.008 -11.191109,6.97792 -26.214082,12.82981 -39.323516,14.40539 -2.74459,-5.52052 -5.28567,-11.19021 -7.803716,-16.79623 z"
     id="path2827"
     style="fill:#e6e6e6;fill-opacity:1;stroke:none" />
  <path
     d="m 96.900529,339.9427 c 38.057051,12.3692 69.835911,9.57348 98.177511,-1.52718 25.88911,8.70376 53.98096,14.78089 98.56089,1.18781 5.43842,3.16598 11.72118,6.55067 23.13935,8.83708 -2.60266,4.63275 -5.07085,8.93509 -7.66492,13.18633 -4.69659,-1.33335 -11.36191,-3.85117 -14.33658,-5.40755 -35.35886,9.22626 -68.58651,8.933 -99.69874,-0.84357 -36.99252,11.07137 -68.04348,8.88781 -97.873616,-0.36286 -3.052013,2.24013 -10.681421,6.03554 -16.039827,6.32699 -2.473798,-4.09955 -4.985427,-8.33148 -7.400804,-12.72566 7.149458,-0.22082 16.33748,-4.66068 23.136736,-8.67139 z"
     id="path2829"
     style="fill:#e6e6e6;fill-opacity:1;stroke:none" />
  <path
     d="m 95.483595,383.27684 c 39.600795,8.20294 69.149475,5.71602 99.968735,-6.61697 32.77938,11.73478 51.08474,13.4404 99.67549,6.38779 -4.37329,6.35225 -9.59819,13.25725 -14.6736,19.62567 -27.99432,3.0199 -61.98474,2.13781 -85.05722,-7.95231 -22.77665,10.44139 -60.41254,10.73551 -85.66781,7.58395 -4.89941,-6.22378 -9.778699,-12.57525 -14.245595,-19.02813 z"
     id="path2831"
     style="fill:#e5e5e5;fill-opacity:1;stroke:none" />
  <path
     d="m 184.66774,234.11535 -1.01273,-32.39301 c -0.27225,-8.73575 -29.14277,-37.94177 -37.45052,-33.41018 -9.75536,5.32153 -7.37713,44.85322 -46.223784,36.63232 12.843354,-13.01107 0.619014,-27.16822 37.620254,-40.87259 -4.51572,-3.74014 -19.85315,-15.9367 -23.46978,-12.59927 -15.502067,14.30845 -16.159024,42.13049 -50.589183,34.8168 11.033647,-5.83371 12.33458,-35.20661 42.174723,-39.85542 -7.877066,-1.98521 -19.321678,-9.61742 -23.630204,-5.95563 -15.653539,13.30217 -17.631758,39.04772 -50.088983,34.95682 22.404957,-23.07546 14.940163,-30.28143 37.786035,-38.49793 -6.552921,-1.17791 -16.325886,-6.06399 -19.787156,-3.52107 -11.824402,8.68715 -8.92426,27.31954 -37.358728,29.48057 4.596794,28.48409 10.571824,55.09244 17.918691,80.89674 10.760778,12.16608 51.040739,29.85469 75.835505,30.85506 26.47815,1.06773 51.40795,-32.48204 78.27586,-40.53321 z"
     id="path2833"
     style="fill:#e6e6e6;fill-opacity:1;stroke:none" />
  <path
     d="m 9.8032418,144.3672 c 5.1726642,-4.81023 14.4958652,-10.0352 22.8175772,-13.48411 -7.18283,-0.6993 -18.952865,-1.50236 -24.60009,-0.80333 0.5725525,4.75251 1.124259,9.49541 1.7825128,14.28744 z"
     id="path2857"
     style="fill:#e6e6e6;fill-opacity:1;stroke:none" />
  <path
     d="m 360.05587,126.29337 c 3.95018,6.19708 13.74008,13.65599 20.3437,16.57431 0.9169,-6.87896 1.77277,-13.63171 2.51307,-20.53126 -7.67157,-1.52473 -18.96957,1.45835 -22.85677,3.95695 z"
     id="path2859"
     style="fill:#e6e6e6;fill-opacity:1;stroke:none" />
  <path
     d="m 326.85583,132.8706 c 0.51708,0.0217 17.36061,-4.98896 18.73375,-1.92373 4.9954,11.14926 6.01466,20.52569 32.24643,29.48399 -4.77251,29.81856 -10.61676,57.69131 -20.18361,89.75152 -17.45332,15.57813 -32.6166,24.71862 -65.47409,26.24278 -50.064,2.32247 -48.55973,-37.34078 -79.42312,-43.00272 l 0.10156,-32.1169 c 0.0854,-27.01846 22.67091,-31.64361 25.16036,-31.21232 11.2966,1.9605 22.85665,46.8741 53.37677,33.32503 -20.65083,-13.19925 -5.64089,-42.28956 -48.56143,-39.85446 10.14583,-7.43216 19.04203,-11.84708 28.32713,-12.21078 14.90276,-0.58381 13.3211,38.15855 50.07927,27.98307 -18.02353,-11.62421 -2.31274,-28.28842 -33.72334,-36.29391 7.98103,-2.0909 22.78644,-8.74066 24.07905,-6.27068 7.56416,14.4502 12.70895,34.80481 41.47985,31.45974 -12.48129,-16.8379 -2.44103,-19.66918 -26.21972,-35.36063 l 9.9e-4,0 1.5e-4,0 z"
     id="path2861"
     style="fill:#e6e6e6;fill-opacity:1;stroke:none" />
  <path
     d="m 225.79485,162.20724 c 0.76264,-1.44233 12.5492,-9.24316 12.5492,-9.24316 -0.83925,-15.91118 4.01814,-37.03568 19.67318,-58.42563 8.8817,11.38241 14.5594,30.39885 -10.68455,54.35506 l 24.25281,-12.63499 c -4.98657,-23.69763 10.79624,-28.50926 13.31279,-41.63523 l -26.62652,-4.748378 c -18.92192,18.905578 -28.04353,38.732768 -32.47691,72.332328 z"
     id="path2863"
     style="fill:#e6e6e6;fill-opacity:1;stroke:none" />
  <path
     d="m 286.60599,131.25559 20.94542,-5.57655 c -11.01828,-19.94223 13.39963,-36.884896 15.05432,-49.527802 7.01535,15.884474 12.9648,30.292542 -6.87339,47.759052 l 14.22158,-2.75767 c 7.78689,-1.51104 -0.45338,-12.17948 4.80396,-26.626046 2.4691,-6.784122 11.43965,-11.796116 14.08896,-20.713054 8.45568,17.254644 2.83015,34.40431 -9.92939,46.24525 25.39663,0.41293 6.21985,-30.173908 32.71171,-45.674327 1.90142,16.813941 -0.45795,30.352217 -10.08576,41.103267 l 22.45593,-3.47177 c 2.64819,-26.984635 4.02243,-51.453914 4.63784,-77.929608 -21.15162,2.454704 -37.40061,-10.644054 -52.5575,-10.333897 -6.69943,0.137948 -16.95084,6.700133 -24.2282,11.526627 45.2987,-9.445392 31.61894,13.255288 48.53292,20.114011 -20.61945,5.837287 -39.80633,-8.757502 -48.62682,-12.65049 -8.82143,-3.893001 -23.55851,11.220033 -22.70202,13.032691 4.66157,-1.945474 8.57927,-2.918672 11.99339,-3.184924 14.63929,-1.140454 20.01878,10.728498 35.05438,14.812578 -20.03991,19.848946 -38.79981,-5.514443 -55.11937,-3.052486 -4.84599,0.731297 -9.10641,4.301632 -12.79123,11.701729 16.14346,-2.201511 31.88559,-2.460891 46.45186,2.968505 -3.61084,6.00126 -12.42467,13.0657 -22.01643,14.684646 3.61099,4.238897 14.70272,16.347078 -6.02216,37.550268 z"
     id="path2865"
     style="fill:#e6e6e6;fill-opacity:1;stroke:none" />
  <path
     d="m 356.80293,14.51084 c 0.45417,-2.545528 24.90728,-8.493368 32.18875,-7.1053157 -0.002,4.7525727 -0.10126,9.8736947 -0.13541,14.7315877 -9.68451,-6.065934 -26.88334,-7.717873 -32.05331,-7.626272 l -3e-5,0 z"
     id="path2867"
     style="fill:#e6e6e6;fill-opacity:1;stroke:none" />
  <path
     d="m 360.48645,1.0027458 c -5.046,1.8417421 -10.17223,3.7752266 -18.04635,7.9326362 -0.0887,-2.4729651 -0.10721,-4.8727821 -0.91709,-7.9362203 l 18.96344,0.003584 z"
     id="path2869"
     style="fill:#e6e6e6;fill-opacity:1;stroke:none" />
  <path
     d="m 312.35008,24.76512 c 0.71956,-0.05788 15.3499,-8.86382 15.3499,-8.86382 -1.70859,-4.680401 -1.16865,-9.9174181 0.30826,-14.90346825 l -9.15871,-0.001552 C 322.1441,15.52552 317.15592,20.104198 312.35008,24.76512 z"
     id="path2871"
     style="fill:#e6e6e6;fill-opacity:1;stroke:none" />
  <path
     d="m 291.32059,1.0003896 12.03096,0.00325 c 2.37747,5.5166793 -9.93707,25.0470014 -4.13241,32.1187744 L 283.50947,44.61223 c 6.32691,-10.133427 11.63887,-28.16469 7.81112,-43.6118404 z"
     id="path2873"
     style="fill:#e6e6e6;fill-opacity:1;stroke:none" />
  <path
     d="m 243.87551,88.74342 8.45383,-10.790446 c -9.68264,-32.325846 2.77258,-31.216099 4.43695,-58.101961 22.36748,28.250704 5.74965,37.088968 1.19989,51.106335 6.78626,-6.107584 12.59105,-13.429752 18.10756,-21.106787 -9.0724,-22.240533 5.79837,-35.886858 6.41108,-48.85113955 l -32.30634,-0.004253 C 249.553,30.813704 245.06031,58.726669 243.87551,88.74342 z"
     id="path2875"
     style="fill:#e6e6e6;fill-opacity:1;stroke:none" />
  <path
     d="m 234.04412,0.9989631 4.19677,0 C 237.66271,33.212625 234.55202,64.421149 230.14367,94.739088 L 217.672,46.078733 C 237.15698,32.427725 234.22365,16.474338 234.04412,0.9989631 z"
     id="path2877"
     style="fill:#e6e6e6;fill-opacity:1;stroke:none" />
  <path
     d="M 228.57583,1.0009466 C 222.83761,7.4203098 217.4592,17.06058 214.91434,24.705372 l -1.31951,-23.6953425 14.981,-0.00908 z"
     id="path2879"
     style="fill:#e6e6e6;fill-opacity:1;stroke:none" />
  <path
     d="m 174.50054,166.93199 c -10.50507,0.4199 -21.54649,-9.71305 -29.74101,-14.99011 10.44543,-16.35094 5.22827,-32.25626 -5.7555,-49.76707 -18.90455,26.3741 -3.10021,34.10731 -2.75861,45.08995 l -16.78901,-9.35327 c 9.10558,-15.15974 6.74301,-36.60947 -2.61697,-50.66995 3.18357,-1.580456 6.54823,-3.884676 8.5552,-5.16045 34.82748,26.50123 31.39736,57.34893 49.1059,84.8509 z"
     id="path2881"
     style="fill:#e6e6e6;fill-opacity:1;stroke:none" />
  <path
     d="m 94.392516,91.492768 c 4.727482,0.700798 12.408434,-1.04907 16.909564,-2.6084 -6.63709,10.911982 -8.74346,22.614592 0.23922,47.947782 L 96.551184,130.9561 c 5.201196,-11.16379 4.246636,-27.74447 -2.158668,-39.463332 z"
     id="path2883"
     style="fill:#e6e6e6;fill-opacity:1;stroke:none" />
  <path
     d="m 63.36236,71.475905 c 25.653774,-1.95972 26.667725,-7.554075 36.7866,-10.794225 4.24249,-1.35835 15.81642,3.490567 15.70967,10.793294 -13.37869,2.322556 -25.951735,9.817622 -38.854969,10.193428 2.374468,3.087406 4.58952,6.16914 6.87135,7.248758 -6.300012,13.9185 -1.515385,25.28426 2.003367,38.80093 -2.312199,-0.95585 -13.959542,-2.29791 -17.224774,-3.05439 1.458417,-24.19711 9.36678,-30.694437 -5.291244,-53.187795 z"
     id="path2885"
     style="fill:#e6e6e6;fill-opacity:1;stroke:none" />
  <path
     d="m 62.783165,123.16059 -24.0293,-3.23705 C 41.486597,110.23163 51.25564,96.075108 32.761397,63.319808 17.551312,84.94142 22.022185,101.61505 30.209968,118.84421 L 6.7730044,119.5633 C 4.1080365,94.602531 2.493089,69.545293 1.6411643,44.417953 26.626115,39.294882 36.509626,27.153772 49.01823,23.386146 57.325166,25.86388 63.109129,31.316315 69.665623,35.85795 40.193161,33.276342 23.427379,47.929491 18.403019,56.724171 51.902512,68.762336 57.117929,45.716023 76.310441,42.333848 c 6.540643,-1.153117 11.377704,3.880888 13.764766,8.15449 -31.771074,0.802686 -22.56161,7.102562 -46.752876,14.630323 4.254771,4.990194 10.951427,4.057077 16.612872,5.636761 -19.500597,21.34706 4.83508,39.300618 2.847962,52.405168 z"
     id="path2887"
     style="fill:#e6e6e6;fill-opacity:1;stroke:none" />
  <path
     d="m 197.28521,183.60139 c 10.59484,-10.29832 18.048,-30.85695 20.62696,-47.79912 2.1876,-14.37672 -24.95274,-12.65653 -16.54884,-49.951146 6.47073,3.14362 14.33967,11.462739 19.3065,28.919186 C 226.81357,111.1189 203.66442,58.159955 202.3221,1.0069646 l -10.55316,0 c -2.12101,24.6117084 -2.16285,49.6841394 -6.83578,73.7312414 4.77612,-11.453627 8.77398,-17.10957 22.66601,-19.359399 -9.67382,13.782504 8.25704,22.589215 -25.18351,37.403194 -1.39009,4.582495 -11.00961,19.495429 -9.35423,31.070249 2.59293,18.12753 11.13513,42.68847 24.22378,59.74914 z"
     id="path2891"
     style="fill:#e6e6e6;fill-opacity:1;stroke:none" />
  <path
     d="m 165.62666,101.33564 c 4.98276,-2.893246 8.03269,-31.088621 11.75211,-46.304938 -16.49105,-14.6512 -25.38985,-31.221339 -11.99229,-53.4279243 8.0231,8.6085563 9.44936,16.1485953 13.19123,41.0802603 1.23285,-13.733997 2.66713,-27.323165 -0.45205,-41.6727608 l -26.41074,0.00161 C 156.22174,34.738 159.97507,70.4439 165.62666,101.33564 z"
     id="path2893"
     style="fill:#e6e6e6;fill-opacity:1;stroke:none" />
  <path
     d="M 152.43448,92.941128 140.2147,1.0224006 l -26.83693,0.0016 c 7.49862,29.7435754 3.01243,41.0632894 -4.71469,46.9650024 l 13.43139,11.14907 c -0.27884,-8.376634 -2.93693,-26.558459 11.87267,-40.800593 13.24806,42.947739 -0.66628,40.643492 -2.0534,47.011776 -2.0884,9.585699 13.23801,19.719474 20.52074,27.591872 z"
     id="path2895"
     style="fill:#e6e6e6;fill-opacity:1;stroke:none" />
  <path
     d="M 85.278481,28.286716 C 90.824799,23.148395 90.874855,8.5754345 89.476149,0.9759172 l 17.268431,0 C 100.35916,11.227283 95.417523,26.703528 99.42941,38.736121 L 85.278481,28.286716 z"
     id="path2897"
     style="fill:#e6e6e6;fill-opacity:1;stroke:none" />
  <path
     d="M 73.105463,1.0026904 C 72.186464,8.206212 70.769269,15.693539 74.485955,22.306884 L 62.013608,14.517689 C 63.517617,10.050377 62.765131,5.4670312 61.414341,0.99972522 l 11.691122,0.002965 z"
     id="path2899"
     style="fill:#e6e6e6;fill-opacity:1;stroke:none" />
  <path
     d="M 46.327424,0.98090368 C 45.998681,2.2736786 46.615662,6.4729784 46.924698,7.765745 40.580855,4.0516872 34.378379,2.0232262 31.547025,0.97949915 l 14.780399,0.001404 z"
     id="path2901"
     style="fill:#e6e6e6;fill-opacity:1;stroke:none" />
  <path
     d="M 0.95077699,0.9336801 C 0.93737998,8.9909016 1.0427922,17.01803 1.1591822,25.060206 8.62959,20.908366 27.147574,17.511393 37.252247,17.7314 29.279743,10.977743 15.332001,2.345429 0.95077699,0.9336801 z"
     id="path2903"
     style="fill:#e6e6e6;fill-opacity:1;stroke:none" />
</svg>
