<?xml version="1.0" encoding="UTF-8" standalone="no"?>
<!-- Created with Inkscape (http://www.inkscape.org/) -->

<svg
   xmlns:svg="http://www.w3.org/2000/svg"
   xmlns="http://www.w3.org/2000/svg"
   xmlns:xlink="http://www.w3.org/1999/xlink"
   version="1.1"
   width="390"
   height="480"
   id="svg4228">
  <defs
     id="defs4232" />
  <path
     d="M 0,0 C 130,0 260,0 390,0 389.98981,114.99797 370.78556,350.14732 194.88837,479.99815 20.79131,350.08886 0.081386,115.02225 0,0 z"
     id="path4240-0"
     style="color:#000000;fill:#008c31;fill-opacity:1;fill-rule:nonzero;stroke:none;marker:none;visibility:visible;display:inline;overflow:visible;enable-background:accumulate" />
  <path
     d="m 101.34298,262.41874 c 48.45552,-36.00246 56.77662,-69.7115 58.68326,-107.94231 l -50.36117,0.12267 -0.0614,-95.398004 c 17.68237,-7.415989 26.86979,-20.768945 25.41354,-43.548363 l -64.860602,-0.0434 c -1.924237,22.293836 4.868626,36.133171 22.197096,43.528789 l -0.08647,95.408658 -52.009547,0 c 2.361817,37.16867 13.622516,74.274 61.085363,107.87206 l -7e-5,-10e-5 z"
     id="path2830"
     style="fill:#ececec;stroke:none" />
  <path
     d="m 81.302652,28.26803 40.386778,0 c -0.0834,6.833197 -6.3279,19.254698 -19.7957,19.306043 C 87.766802,47.628002 81.448742,35.895611 81.302652,28.26803 z"
     id="path2832"
     style="fill:#008c31;fill-opacity:1;stroke:none" />
  <use
     transform="translate(190,0)"
     id="use2834"
     x="0"
     y="0"
     width="390"
     height="480"
     xlink:href="#path2830" />
  <use
     transform="translate(190,0)"
     id="use2836"
     x="0"
     y="0"
     width="390"
     height="480"
     xlink:href="#path2832" />
  <path
     d="m 195.7863,399.63581 c 62.5033,-43.4562 68.435,-84.0266 70.73316,-130.10792 l -60.7022,0.14755 -0.0739,-122.98763 c 21.31308,-8.93846 32.38707,-25.03346 30.63164,-52.49046 l -78.17918,-0.052 c -2.31948,26.87173 5.86831,43.55284 26.7551,52.46723 l -0.1043,123.00014 -62.68941,0 c 2.84669,44.80145 10.41028,86.34485 73.62895,130.02326 l 1.4e-4,-1.7e-4 z"
     id="path2830-1"
     style="fill:#ececec;stroke:none" />
  <path
     d="m 171.26699,107.02875 50.63444,0 c -0.10287,8.56707 -7.93321,24.14047 -24.81865,24.20487 -17.71148,0.0669 -25.6328,-14.64176 -25.81579,-24.20487 z"
     id="path2832-7"
     style="fill:#008c31;fill-opacity:1;stroke:none" />
</svg>
