<?xml version="1.0" encoding="UTF-8" standalone="no"?>
<!-- Created with Inkscape (http://www.inkscape.org/) -->

<svg
   xmlns:svg="http://www.w3.org/2000/svg"
   xmlns="http://www.w3.org/2000/svg"
   version="1.1"
   width="390"
   height="480"
   id="svg4228">
  <defs
     id="defs4232" />
  <path
     d="M 0,0 C 130,0 260,0 390,0 389.98981,114.99797 370.78556,350.14732 194.88837,479.99815 20.79131,350.08886 0.081386,115.02225 0,0 z"
     id="path4240-0"
     style="color:#000000;fill:#d61a1a;fill-opacity:1;fill-rule:nonzero;stroke:none;marker:none;visibility:visible;display:inline;overflow:visible;enable-background:accumulate" />
  <path
     d="M 183.27848,275.46337 245.97429,140.40222 223.0083,96.6953 223.0532,-0.00341658 166.11013,-0.00109342 166.2899,102.94562 c 0.0183,10.47454 -32.56801,25.14227 -28.11197,38.39403 l 45.10051,134.12372 4e-5,0 z"
     id="path2839"
     style="fill:#ececec;stroke:none" />
  <path
     d="m 246.01624,143.47035 -80.98471,174.78486 9.24813,102.38038 48.81356,-76.65254 22.92302,-200.5127 z"
     id="path2841"
     style="fill:#ececec;stroke:none" />
  <path
     d="m 193.57049,456.04526 c 21.38114,-11.41713 31.3235,-63.90511 13.94288,-85.15918 l -32.62315,51.21019 17.10725,11.34255 1.57302,22.60644 z"
     id="path2843"
     style="fill:#ececec;stroke:none" />
</svg>
