<?xml version="1.0" encoding="UTF-8" standalone="no"?>
<!-- Created with Inkscape (http://www.inkscape.org/) -->

<svg
   xmlns:svg="http://www.w3.org/2000/svg"
   xmlns="http://www.w3.org/2000/svg"
   version="1.1"
   width="390"
   height="480"
   id="svg4228">
  <defs
     id="defs4232" />
  <path
     d="m 0.51202379,0.50512952 c 129.66265621,0 259.32532621,0 388.98797621,0 C 389.48983,115.23328 370.33544,349.8309 194.89467,479.37706 21.249382,349.77255 0.5931986,115.2575 0.51202379,0.50512952 z"
     id="path4240-0-1"
     style="fill:#207dbf;fill-opacity:1;stroke:#999999;stroke-width:0.99999905;stroke-opacity:1" />
  <path
     d="m 288.41007,381.64158 c 5.45398,-7.86831 11.0476,-16.39388 16.07628,-24.9943 l -77.29681,-89.32702 c -12.11146,-13.99645 -13.95429,-31.54515 -25.22876,-46.53595 -34.22511,-45.5065 -68.56739,-75.53196 -106.011474,-114.33535 -4.76574,-4.93875 -11.140385,-5.73529 -17.844731,-3.11567 -6.347747,2.48028 -13.992707,7.28554 -15.555555,9.01961 -1.850583,2.05332 -6.171717,10.14152 -7.93557,14.81417 -3.884137,10.28953 0.230213,16.77483 3.606783,21.08563 28.29106,36.11868 54.133387,70.15973 101.126177,114.49236 11.2582,10.62089 35.21217,21.20581 45.35947,31.7647 l 83.79085,87.18955 -0.0867,-0.0577 z"
     id="path3619"
     style="fill:#f2f2f2;fill-opacity:1;stroke:none" />
  <path
     d="M 346.96199,266.21836 282.6489,191.89554 C 270.53746,177.89907 268.69461,160.35039 257.42014,145.35959 223.19503,99.853087 188.85275,69.827627 151.40866,31.024237 c -4.76574,-4.93875 -11.14038,-5.73529 -17.84473,-3.11567 -6.34775,2.48028 -13.99271,7.28554 -15.55555,9.01961 -1.85059,2.05332 -6.17172,10.14152 -7.93557,14.81417 -3.88414,10.28953 0.23021,16.77483 3.60678,21.08563 28.29106,36.118683 54.13339,70.159733 101.12618,114.492363 11.2582,10.62089 35.21215,21.20583 45.35947,31.7647 l 74.73007,77.76088 c 4.22704,-9.85299 8.31677,-19.94477 12.06668,-30.62756 z"
     id="path3619-1"
     style="fill:#f2f2f2;fill-opacity:1;stroke:none" />
</svg>
