<?xml version="1.0" encoding="UTF-8" standalone="no"?>
<!-- Created with Inkscape (http://www.inkscape.org/) -->

<svg
   xmlns:dc="http://purl.org/dc/elements/1.1/"
   xmlns:cc="http://creativecommons.org/ns#"
   xmlns:rdf="http://www.w3.org/1999/02/22-rdf-syntax-ns#"
   xmlns:svg="http://www.w3.org/2000/svg"
   xmlns="http://www.w3.org/2000/svg"
   xmlns:xlink="http://www.w3.org/1999/xlink"
   version="1.1"
   width="390"
   height="480"
   id="svg4228">
  <metadata
     id="metadata13">
    <rdf:RDF>
      <cc:Work
         rdf:about="">
        <dc:format>image/svg+xml</dc:format>
        <dc:type
           rdf:resource="http://purl.org/dc/dcmitype/StillImage" />
        <dc:title></dc:title>
      </cc:Work>
    </rdf:RDF>
  </metadata>
  <defs
     id="defs4232" />
  <path
     d="M 0,0 C 130,0 260,0 390,0 389.98981,114.99797 370.78556,350.14732 194.88837,479.99815 20.79131,350.08886 0.081386,115.02225 0,0 z"
     id="path4240-0"
     style="fill:#d61a1a;fill-opacity:1;stroke:none" />
  <path
     d="m 176.69202,105.96958 c 11.75344,0.95552 11.11193,3.41634 2.72323,7.61256 -33.06625,16.54049 -68.8777,26.22968 -97.970383,30.14409 C 47.892812,148.24064 29.584168,124.194 29.429658,96.045626 29.276557,68.153973 53.75295,51.297435 74.600761,51.330798 c 43.548139,0.06969 49.063379,48.660805 54.887279,67.762442 1.18332,3.88115 -3.98963,6.73004 -9.74822,7.07348 -3.18579,-10.83957 -12.07601,-9.89888 -13.75446,-16.71218 -2.77852,-11.278788 -2.04179,-40.339437 -29.521037,-40.651921 -10.667484,-0.121307 -31.026958,2.491385 -31.963722,29.899025 -0.361325,10.571586 7.146264,34.054846 33.588357,31.664016 10.083733,-0.91174 19.602103,-8.22788 29.025622,-7.19917 5.4559,0.59559 7.04912,4.18822 12.2601,3.54898 17.25398,-2.11658 6.9566,-11.3376 13.38932,-13.55064 19.43931,-6.68768 32.2974,-8.14078 43.92802,-7.19525 z"
     id="path3008"
     style="fill:#faf700;fill-opacity:1;stroke:none" />
  <path
     d="m 131.69201,133.1236 c -4.29356,1.1261 -7.43672,2.06316 -10.62126,3.0307 -0.52281,2.09676 -2.15092,3.75536 -7.65821,4.25229 4.50962,19.98374 11.87055,36.81347 20.84601,53.05349 0.93211,1.68652 4.3559,4.69517 4.61977,-0.69087 0.85975,-17.549 -2.5134,-39.65282 -7.18631,-59.64561 z"
     id="path3778"
     style="fill:#faf700;fill-opacity:1;stroke:none" />
  <use
     transform="matrix(-1,0,0,1,391.05613,0)"
     id="use3780"
     x="0"
     y="0"
     width="390"
     height="480"
     xlink:href="#path3008" />
  <use
     transform="matrix(-1,0,0,1,391.05613,0)"
     id="use3782"
     x="0"
     y="0"
     width="390"
     height="480"
     xlink:href="#path3778" />
  <use
     transform="matrix(-0.53974861,-0.84182625,0.84182625,-0.53974861,152.3091,434.33354)"
     id="use3784"
     x="0"
     y="0"
     width="390"
     height="480"
     xlink:href="#path3008" />
  <use
     transform="matrix(-0.53974861,-0.84182625,0.84182625,-0.53974861,152.3091,434.33354)"
     id="use3786"
     x="0"
     y="0"
     width="390"
     height="480"
     xlink:href="#path3778" />
</svg>
