<?xml version="1.0" encoding="UTF-8" standalone="no"?>
<!-- Created with Inkscape (http://www.inkscape.org/) -->

<svg
   xmlns:svg="http://www.w3.org/2000/svg"
   xmlns="http://www.w3.org/2000/svg"
   xmlns:xlink="http://www.w3.org/1999/xlink"
   version="1.1"
   width="390"
   height="480"
   id="svg4228">
  <defs
     id="defs4232" />
  <path
     d="M 0,0 C 130,0 260,0 390,0 389.98981,114.99797 370.78556,350.14732 194.88837,479.99815 20.79131,350.08886 0.081386,115.02225 0,0 z"
     id="path4240-0"
     style="fill:#207dbf;fill-opacity:1;stroke:none" />
  <path
     d="m 81.864712,308.9515 54.088988,0.0636 c 0,0 -12.96952,-101.83047 -9.34322,-161.44067 0.63219,-10.3922 55.16949,7.37288 55.16949,7.37288 l 0,-49.00424 c 0,0 -50.27218,9.59591 -53.89831,2.98729 -5.31889,-9.693668 6.1017,-53.898311 6.1017,-53.898311 l -50.211869,0 c 0,0 11.021285,44.251313 6.165255,53.961871 -3.75036,7.49956 -54.088984,-3.05085 -54.088984,-3.05085 l 0.01589,49.03602 c 0,0 54.174438,-17.53831 54.708687,-8.2945 3.505421,60.65235 -8.707627,162.26695 -8.707627,162.26695 l 0,-4e-5 z"
     id="path2827"
     style="fill:#ececec;stroke:none" />
  <use
     transform="translate(173.20152,-0.11406876)"
     id="use2993"
     x="0"
     y="0"
     width="390"
     height="480"
     xlink:href="#path2827" />
</svg>
