<?xml version="1.0" encoding="UTF-8" standalone="no"?>
<!-- Created with Inkscape (http://www.inkscape.org/) -->

<svg
   xmlns:svg="http://www.w3.org/2000/svg"
   xmlns="http://www.w3.org/2000/svg"
   xmlns:xlink="http://www.w3.org/1999/xlink"
   version="1.1"
   width="390"
   height="480"
   id="svg4228">
  <defs
     id="defs4232" />
  <path
     d="M 0,0 C 130,0 260,0 390,0 389.98981,114.99797 370.78556,350.14732 194.88837,479.99815 20.79131,350.08886 0.081386,115.02225 0,0 z"
     id="path4240-0"
     style="fill:#207dbf;fill-opacity:1;stroke:none" />
  <path
     d="m 77.5817,153.92157 c 11.418882,-10.55194 17.316621,-8.86752 26.20915,-10.26144 14.457,-2.26617 26.94449,-13.37527 35.29412,-36.07843 2.65869,-7.22916 -15.341,-3.08507 -4.57517,-24.444442 4.88824,-9.700109 4.09077,-27.062995 -8.23529,-38.823529 -0.6972,24.357312 -17.75722,27.879001 -17.38562,37.385621 0.24817,6.348783 5.06598,9.027593 3.00654,13.594771 -4.4877,9.952279 -12.564273,14.007119 -16.993469,9.411759 -3.964564,-4.11329 5.193399,-8.167048 5.490199,-12.941171 0.3966,-6.379447 -6.886733,-9.21054 -3.006539,-13.986928 C 111.40367,60.522038 108.57492,34.509669 85.751634,26.66667 96.498676,54.861666 58.43775,63.535747 63.267974,80.000003 c 1.979321,6.746697 9.131917,15.285158 -0.261438,18.692811 -6.393892,2.319526 -9.758791,-2.587277 -9.411765,-3.660131 10.207314,-8.182519 6.355969,-12.550374 -0.130719,-18.431372 -11.022216,-9.993025 22.180802,-18.12011 0.392157,-45.09804 0.47568,27.624695 -43.358379,32.2056 -26.405229,58.562092 -4.801903,8.812756 -5.361353,17.625767 -4.381299,23.920337 5.476262,35.17231 46.615854,13.29592 54.512019,39.93587 z"
     id="path3632"
     style="fill:#ececec;stroke:none" />
  <use
     transform="translate(90.583616,87.256054)"
     id="use3634"
     x="0"
     y="0"
     width="390"
     height="480"
     xlink:href="#path3632" />
  <use
     transform="translate(185.23425,174.51211)"
     id="use3636"
     x="0"
     y="0"
     width="390"
     height="480"
     xlink:href="#path3632" />
</svg>
