<?xml version="1.0" encoding="UTF-8" standalone="no"?>
<!-- Created with Inkscape (http://www.inkscape.org/) -->

<svg
   xmlns:svg="http://www.w3.org/2000/svg"
   xmlns="http://www.w3.org/2000/svg"
   xmlns:xlink="http://www.w3.org/1999/xlink"
   version="1.1"
   width="390"
   height="480"
   id="svg4228">
  <defs
     id="defs4232">
    <linearGradient
       id="linearGradient3653">
      <stop
         id="stop3655"
         style="stop-color:#ffffff;stop-opacity:1"
         offset="0" />
      <stop
         id="stop3657"
         style="stop-color:#ffffff;stop-opacity:0"
         offset="1" />
    </linearGradient>
    <linearGradient
       x1="0"
       y1="109.87704"
       x2="390"
       y2="109.87704"
       id="linearGradient2858"
       xlink:href="#linearGradient3653"
       gradientUnits="userSpaceOnUse" />
  </defs>
  <path
     d="M 0,0 C 130,0 260,0 390,0 389.98981,114.99797 370.78556,350.14732 194.88837,479.99815 20.79131,350.08886 0.081386,115.02225 0,0 z"
     id="path4240-0"
     style="color:#000000;fill:#008c31;fill-opacity:1;fill-rule:nonzero;stroke:none;marker:none;visibility:visible;display:inline;overflow:visible;enable-background:accumulate" />
  <path
     d="m 61.841881,231.37406 c -7.362215,-51.77078 35.263393,-49.25123 44.044359,-46.20163 39.59341,13.75065 71.3887,54.79474 105.70648,87.01009 3.37438,-2.0583 6.37285,-2.52894 8.53921,-0.7191 1.86094,1.55468 1.10047,3.99995 0.26966,5.12353 19.57513,18.07729 35.98322,38.96122 48.98812,62.47109 2.49813,4.51604 0.98527,11.26433 -1.61796,12.67399 l -22.74127,12.31444 c -3.64602,1.87914 -12.31559,-5.73798 -10.78638,-9.16842 1.45387,-3.26144 6.057,-6.75309 2.24716,-10.6066 -12.55172,-12.69558 -24.09337,-26.06454 -32.35912,-41.61743 -4.37047,0.98205 -6.97813,1.52258 -9.34819,1.61796 -3.62998,0.14608 -7.98938,-5.44336 -7.14598,-8.13473 0.94725,-3.02274 3.61833,-5.75983 5.97746,-7.95495 l -7.37069,-7.10103 c -2.62169,2.2172 -6.42715,7.4179 -10.02235,4.49433 l -61.3475,-49.88699 C 95.068944,219.58267 73.038028,224.70008 61.841881,231.37406 z"
     id="path3613"
     style="fill:#faf700;fill-opacity:1;stroke:none" />
  <use
     transform="matrix(1.233183,-0.07397645,0.07397645,1.233183,-48.190168,-138.64955)"
     id="use3615"
     x="0"
     y="0"
     width="390"
     height="480"
     xlink:href="#path3613" />
  <use
     transform="translate(69.032798,-153.88561)"
     id="use3617"
     x="0"
     y="0"
     width="390"
     height="480"
     xlink:href="#path3613" />
</svg>
