<?xml version="1.0" encoding="UTF-8" standalone="no"?>
<!-- Created with Inkscape (http://www.inkscape.org/) -->

<svg
   xmlns:svg="http://www.w3.org/2000/svg"
   xmlns="http://www.w3.org/2000/svg"
   version="1.1"
   width="390"
   height="480"
   id="svg4228">
  <defs
     id="defs4232" />
  <path
     d="M 0,0 C 130,0 260,0 390,0 389.98981,114.99797 370.78556,350.14732 194.88837,479.99815 20.79131,350.08886 0.081386,115.02225 0,0 z"
     id="path4240-0"
     style="color:#000000;fill:#d61a1a;fill-opacity:1;fill-rule:nonzero;stroke:none;marker:none;visibility:visible;display:inline;overflow:visible;enable-background:accumulate" />
  <path
     d="m 95.084746,154.83051 c 29.095324,45.71419 97.706804,34.05565 130.805074,71.94915 2.68377,3.07259 -14.21541,11.94301 -10.80508,16.27118 6.07386,7.70857 31.09859,8.02354 22.40466,25.77331 8.15385,3.23962 20.22734,13.70222 11.53601,22.27754 17.45316,8.43843 14.10864,21.58047 -1.77966,27.20339 5.18227,3.71407 10.57956,11.18984 6.03814,12.20339 -41.81054,9.33124 -24.63726,68.82221 -59.36441,82.94492 -6.09244,2.47765 2.53145,-9.84914 2.90571,-17.58137 0.67272,-13.89801 -13.40229,-24.65608 -12.37604,-37.1432 0.84037,-10.22552 12.05268,-14.02601 10.2966,-17.6695 -16.50215,-34.23839 -16.72021,-60.44849 -20.59322,-56.18644 -1.51315,1.66514 -4.85831,4.93905 -7.43644,6.4195 -4.498,2.5829 1.48575,-24.35841 -4.25847,-32.22458 -3.00435,-4.11418 -7.96387,-2.72524 -13.85593,-4.95763 -2.83483,-1.07407 4.55284,-6.64252 2.28813,-8.26271 -22.86885,-12.28985 -34.54158,-20.82243 -40.16948,-25.93221 -4.49648,-4.08251 -0.92859,10.73968 -10.16949,9.27966 -10.193393,-1.61051 -2.836241,-12.6869 -4.957629,-15.25423 L 82.5,204.40678 c 4.734301,-0.63131 13.928113,0.98352 16.398305,2.28813 -0.278309,-4.15088 0.477928,-10.45078 1.768755,-15.5348 -23.181226,-9.57933 -61.788979,-31.47241 -59.989094,-43.32113 0.339456,-2.23465 15.525969,2.15488 14.618644,5.65679 -3.204944,12.36981 33.761687,29.13809 46.65254,31.77966 0.11247,-0.84679 2.69603,-9.84169 3.43221,-10.99577 -8.253197,-7.01676 -16.866113,-12.93174 -10.296614,-19.44915 z"
     id="path2827"
     style="fill:#faf700;fill-opacity:1;stroke:none" />
  <path
     d="m 149.40797,44.33739 c 34.70965,42.494077 98.3468,23.36827 136.34115,57.67363 3.08078,2.78164 -13.28127,16.69156 -7.85209,18.05307 9.84869,2.46983 41.1749,12.17159 27.25727,23.08954 13.03807,1.37111 25.27136,15.37319 12.92953,19.70753 21.35778,6.86193 23.12504,30.7001 4.3514,29.27487 5.71442,3.16404 10.7759,16.65797 6.21906,18.13085 -41.95242,13.55996 -0.48852,66.40127 -34.6603,84.00243 -5.99501,3.0879 0.79648,-11.83549 0.36395,-19.56494 -0.77742,-13.89299 -22.97879,-22.13671 -23.24409,-34.66249 -0.21727,-10.25718 5.04804,-12.23901 3.11436,-15.83261 -18.78478,-34.91023 -23.55741,-62.22994 -27.08461,-57.59423 -1.37804,1.81113 -7.00992,6.68113 -9.50118,8.41752 -4.34644,3.02944 -4.86114,-22.34711 -11.59132,-29.58371 -3.52005,-3.7849 -8.4666,-1.89585 -14.75342,-3.51346 -3.02476,-0.77828 6.51624,-10.88666 4.01928,-12.26651 -24.78407,-9.88446 -33.85951,-13.87219 -40.17905,-18.37893 -5.04906,-3.60072 0.18094,7.98102 -9.46341,7.47433 -10.63846,-0.5589 -6.79544,-12.32926 -9.24528,-14.66587 l -14.4536,-8.143485 c 4.79529,-1.11239 13.64497,0.0616 17.59081,0.979366 -0.14171,-1.738141 0.30904,-11.244762 0.80083,-15.135769 C 132.37374,74.89605 85.766662,58.764426 86.058913,47.241427 c 0.0573,-2.25944 22.297397,2.221345 22.510497,5.833744 0.65627,11.12493 39.05557,20.959873 53.18365,23.168504 0.38193,-1.873087 2.29649,-9.762591 3.14595,-11.798023 -9.2171,-6.134959 -23.4511,-15.789564 -15.49104,-20.108262 z"
     id="path2827-7"
     style="fill:#faf700;fill-opacity:1;stroke:none" />
  <path
     d="m 212.13202,110.11724 c 1.40076,-7.21419 -29.01959,-22.802243 -46.60028,-27.206631 -0.59426,4.176848 -0.86243,11.00431 -0.39491,15.845568 2.86162,3.109783 46.59061,13.444693 46.99519,11.361063 z"
     id="path2873"
     style="fill:#d61a1a;fill-opacity:1;stroke:none" />
  <path
     d="m 168.88791,67.41026 c -0.1117,-0.081 -2.38052,9.56631 -2.34747,9.575168 24.22317,6.491051 40.54063,17.030167 50.55076,24.794182 3.4457,2.67253 11.11578,-8.049672 2.59129,-11.347512 C 199.43924,82.600663 179.36048,75.004713 168.88791,67.41026 z"
     id="path2875"
     style="fill:#d61a1a;fill-opacity:1;stroke:none" />
  <path
     d="m 140.52859,225.93778 c 2.49043,-5.72491 -25.07686,-30.60992 -35.54611,-33.82285 -1.85484,5.34179 -2.03403,12.68213 -1.7052,16.38567 2.54662,2.16475 36.58496,18.96896 37.25131,17.43718 z"
     id="path2873-4"
     style="fill:#d61a1a;fill-opacity:1;stroke:none" />
  <path
     d="m 109.39836,177.57008 c -0.18327,-0.17415 -3.20058,8.82789 -2.8583,8.96605 15.63545,6.3109 37.18187,28.16957 43.37659,33.37926 3.33734,2.80667 9.43129,-1.48564 6.34207,-10.33693 -3.2431,-9.29219 -25.84966,-12.04382 -46.86036,-32.00838 z"
     id="path2875-0"
     style="fill:#d61a1a;fill-opacity:1;stroke:none" />
  <path
     d="m 167.79661,206.63607 c 2.87408,-5.91287 36.41924,6.31137 30.80867,21.78251 -1.41237,3.89459 -11.16866,3.52311 -11.96799,1.10137 -3.42369,-10.37277 -9.61227,-15.10728 -18.84068,-22.88388 z"
     id="path2902"
     style="fill:#d61a1a;fill-opacity:1;stroke:none" />
  <path
     d="m 227.07654,88.730262 c 3.18557,-8.334219 38.99006,3.638773 34.21578,17.632288 -1.27113,3.72572 -10.47248,3.66527 -12.13327,1.84391 -6.17498,-6.77207 -10.81311,-13.535617 -22.08251,-19.476198 z"
     id="path2902-9"
     style="fill:#d61a1a;fill-opacity:1;stroke:none" />
  <path
     d="m 219.40677,252.91219 c 0,0 9.80641,16.1756 9.47896,16.20965 18.74216,-1.16126 3.78601,-19.10097 -9.47896,-16.20965 z"
     id="path2926"
     style="fill:#d61a1a;fill-opacity:1;stroke:none" />
  <path
     d="m 230.30832,272.87117 c 0,0 9.62254,16.95367 9.29373,16.98871 22.09258,0.19445 2.82508,-21.93155 -9.29373,-16.98871 z"
     id="path2926-4"
     style="fill:#d61a1a;fill-opacity:1;stroke:none" />
  <path
     d="m 240.71024,293.92538 c 0,0 9.01926,17.39378 8.70804,17.42658 17.55748,1.13386 6.06111,-22.06254 -8.70804,-17.42658 z"
     id="path2926-8"
     style="fill:#d61a1a;fill-opacity:1;stroke:none" />
  <path
     d="m 277.07507,126.52104 c 0,0 15.60684,17.44688 15.27606,17.55095 27.6365,-3.93261 -1.54634,-22.51241 -15.27606,-17.55095 z"
     id="path2926-8-2"
     style="fill:#d61a1a;fill-opacity:1;stroke:none" />
  <path
     d="m 294.61628,146.8154 c 0,0 13.62576,16.18742 13.28688,16.27687 26.39403,-3.99771 2.39023,-22.22554 -13.28688,-16.27687 z"
     id="path2926-8-2-4"
     style="fill:#d61a1a;fill-opacity:1;stroke:none" />
  <path
     d="m 309.13778,167.22769 c 0,0 14.27726,20.98568 13.93057,21.08487 19.92317,3.01949 5.21207,-28.28604 -13.93057,-21.08487 z"
     id="path2926-8-2-5"
     style="fill:#d61a1a;fill-opacity:1;stroke:none" />
  <path
     d="m 294.90357,265.44443 c 6.00921,-0.32896 9.91569,-32.38819 -4.61989,-39.87053 -9.79971,-5.0445 -20.87811,16.8462 -10.61273,23.78865 10.56174,7.14287 12.32636,16.16672 15.23262,16.08188 z"
     id="path3012"
     style="fill:#d61a1a;fill-opacity:1;stroke:none" />
  <path
     d="m 202.15234,391.96128 c 3.07367,0.0636 11.62549,-17.67926 10.01469,-32.30497 -2.07017,-18.79674 -28.13118,-9.68374 -22.48982,7.11198 2.53626,7.55104 10.08796,23.7507 12.47513,25.19299 z"
     id="path3012-1"
     style="fill:#d61a1a;fill-opacity:1;stroke:none" />
</svg>
