<?xml version="1.0" encoding="UTF-8" standalone="no"?>
<!-- Created with Inkscape (http://www.inkscape.org/) -->

<svg
 xmlns:dc="http://purl.org/dc/elements/1.1/"
 xmlns:cc="http://creativecommons.org/ns#"
 xmlns:rdf="http://www.w3.org/1999/02/22-rdf-syntax-ns#"
 xmlns:svg="http://www.w3.org/2000/svg"
 xmlns="http://www.w3.org/2000/svg"
 version="1.1"
 width="398"
 height="480"
 id="svg2815">
<metadata
 id="metadata10">
<rdf:RDF>
<cc:Work
 rdf:about="">
<dc:format>image/svg+xml</dc:format>
<dc:type
 rdf:resource="http://purl.org/dc/dcmitype/StillImage" />
<dc:title></dc:title>
</cc:Work>
</rdf:RDF>
</metadata>
<defs
 id="defs2819" />
<path
 d="M 0.30682967,1.1878012 397.5064,0.73654354 397.41128,295.53695 C 391.42632,375.57848 268.11446,445.89299 199.56849,479.44393 128.41447,444.80728 18.04029,388.58646 0.31662163,296.07854 L 0.3066298,1.1878012 z"
 id="path2827"
 style="fill:#d61a1a;fill-opacity:1;stroke:#9e832a;stroke-opacity:1" />
<path
 d="m 0.81266791,192.32856 -0.0294208,23.31712 38.34220589,62.10117 53.461321,-87.34391 52.851846,87.45287 53.97456,-87.16398 53.47559,87.08144 53.26767,-87.08144 53.434,87.08144 37.34142,-61.12209 0.0832,-23.11166 -37.88199,61.34908 -52.93501,-87.32906 -53.41321,87.12271 -53.4132,-87.12271 -53.89142,87.0608 L 92.649147,167.70398 38.872093,254.68225 0.81264775,192.32856 z"
 id="path2842-1"
 style="fill:#faf700;fill-opacity:1;stroke:none" />
<path
 d="m 0.85425226,247.17749 -0.0294208,23.31712 38.34220354,62.10117 53.46132,-87.34391 52.851835,87.45287 53.97459,-87.16398 53.47558,87.08144 53.26767,-87.08144 53.43399,87.08144 37.34143,-61.12209 0.0831,-23.11166 -37.88201,61.34908 -52.935,-87.32906 -53.41319,87.12271 -53.41324,-87.12271 -53.8914,87.0608 L 92.69073,222.55291 38.913674,309.53118 0.85423211,247.17749 z"
 id="path2842-4"
 style="fill:#faf700;fill-opacity:1;stroke:none" />
<path
 d="m 0.79759016,138.00584 -0.0294036,23.31712 38.34220844,62.10117 53.46132,-87.34391 52.851835,87.45287 53.97457,-87.16398 53.47558,87.08144 53.26768,-87.08144 53.43399,87.08144 37.34143,-61.12209 0.0831,-23.11166 -37.88198,61.34908 -52.93501,-87.32906 -53.41321,87.12271 -53.4132,-87.12271 -53.89142,87.0608 L 92.634089,113.38126 38.857034,200.35953 0.79759016,138.00584 z"
 id="path2842"
 style="fill:#faf700;fill-opacity:1;stroke:none" />
</svg>
