<?xml version="1.0" encoding="UTF-8" standalone="no"?>
<!-- Created with Inkscape (http://www.inkscape.org/) -->

<svg
   xmlns:svg="http://www.w3.org/2000/svg"
   xmlns="http://www.w3.org/2000/svg"
   version="1.1"
   width="390"
   height="480"
   id="svg4228">
  <defs
     id="defs4232" />
  <path
     d="m 0.51202379,0.50512952 c 129.66265621,0 259.32532621,0 388.98797621,0 C 389.48983,115.23328 370.33544,349.8309 194.89467,479.37706 21.249382,349.77255 0.5931986,115.2575 0.51202379,0.50512952 z"
     id="path4240-0-1"
     style="fill:#d61a1a;fill-opacity:1;stroke:#999999;stroke-width:0.99999905;stroke-opacity:1" />
  <path
     d="M 380.99289,124.06973 C 280.7279,72.488245 102.84941,72.594339 9.3450785,123.91981 12.016538,145.92819 17.20182,171.5459 20.731939,187.05913 l 348.966611,-0.003 c 4.83798,-17.81386 9.61094,-50.96287 11.29434,-62.98643 z"
     id="path2827"
     style="fill:#ececec;stroke:none" />
  <path
     d="m 171.83588,185.75674 a 59.121615,47.999366 0 1 1 -118.243221,0 59.121615,47.999366 0 1 1 118.243221,0 z"
     id="path2829-1-4"
     style="fill:#d61a1a;fill-opacity:1;stroke:none" />
  <path
     d="m 336.17535,185.75674 a 58.994497,47.999367 0 0 1 -117.98899,0 58.994497,47.999367 0 1 1 117.98899,0 z"
     id="path2829-1-4-0"
     style="fill:#d61a1a;fill-opacity:1;stroke:none" />
  <path
     d="m 346.77178,266.71291 c -81.98275,-40.02255 -226.03497,-39.82227 -302.934194,-0.0768 6.059868,17.53337 13.206022,33.58839 22.423427,53.34941 l 258.048847,8.1e-4 c 8.47919,-17.28778 16.38541,-35.74683 22.46192,-53.27342 z"
     id="path2827-9"
     style="fill:#ececec;stroke:none" />
  <path
     d="m 178.36876,319.05298 a 49.793402,39.450549 0 1 1 -99.586796,0 49.793402,39.450549 0 1 1 99.586796,0 z"
     id="path2829-1-4-4"
     style="fill:#d61a1a;fill-opacity:1;stroke:none" />
  <path
     d="m 311.03612,319.05298 a 49.793402,39.450549 0 1 1 -99.5868,0 49.793402,39.450549 0 1 1 99.5868,0 z"
     id="path2829-1-4-0-8"
     style="fill:#d61a1a;fill-opacity:1;stroke:none" />
</svg>
