<?xml version="1.0" encoding="UTF-8" standalone="no"?>
<!-- Created with Inkscape (http://www.inkscape.org/) -->

<svg
 xmlns:dc="http://purl.org/dc/elements/1.1/"
 xmlns:cc="http://creativecommons.org/ns#"
 xmlns:rdf="http://www.w3.org/1999/02/22-rdf-syntax-ns#"
 xmlns:svg="http://www.w3.org/2000/svg"
 xmlns="http://www.w3.org/2000/svg"
 version="1.1"
 width="390"
 height="480"
 id="svg4228">
<metadata
 id="metadata8">
<rdf:RDF>
<cc:Work
 rdf:about="">
<dc:format>image/svg+xml</dc:format>
<dc:type
 rdf:resource="http://purl.org/dc/dcmitype/StillImage" />
<dc:title></dc:title>
</cc:Work>
</rdf:RDF>
</metadata>
<defs
 id="defs4232" />
<g
 id="g3760">
<path
 d="M 0,0 C 130,0 260,0 390,0 389.98981,114.99797 370.78556,350.14732 194.88837,479.99815 20.79131,350.08886 0.081386,115.02225 0,0 z"
 id="path4240-0"
 style="fill:#d61a1a;fill-opacity:1;stroke:none" />
<path
 d="M 206.57243,91.847125 C 187.7508,73.630013 235.98672,52.173887 195.78824,12.976355 155.36942,51.824569 203.2798,73.591138 184.26311,92.037803 164.16215,7.5570368 97.303575,78.661252 157.21862,106.02086 c -1.89674,-10.633486 12.9908,-17.862273 12.99788,-4.76695 l 0.0318,58.82415 -58.50388,-0.0699 c -11.09318,-0.0132 -6.59197,-16.60448 5.48308,-14.06723 -28.938103,-57.085655 -99.515956,8.29312 -16.27651,27.60923 -12.911066,19.26686 -38.356592,-28.79191 -77.789669,11.53632 37.536698,40.92679 63.042786,-9.91219 78.013879,11.87191 -82.960881,19.06007 -11.125286,85.06571 15.03178,26.0911 -12.55096,2.97303 -14.27086,-12.58227 -7.00741,-13.01377 l 60.98517,-0.0477 0.0477,93.94068 c 0.005,10.01813 -17.7293,7.39561 -14.18962,-5.89513 -58.774321,33.62967 12.38273,97.15128 27.17161,15.03178 21.51082,10.16461 -27.79167,44.43018 11.53602,78.97246 39.61692,-34.45507 -9.9022,-68.47763 12.44173,-78.98835 16.42182,83.91192 83.84289,15.41649 25.98887,-15.06562 4.2782,13.17284 -12.96024,15.02999 -12.96612,5.28083 l -0.0562,-93.2572 59.88685,0 c 8.21406,0 7.88399,16.37409 -5.74149,14.0897 29.95987,56.28689 98.6191,-5.84678 14.91138,-27.10703 14.19766,-21.21881 40.41314,29.86065 78.92479,-11.52013 -37.2696,-40.53889 -64.03551,9.23352 -78.97246,-12.42585 84.05074,-16.93706 16.43694,-85.381555 -14.96822,-26.18644 15.15279,-1.34951 13.80905,13.15914 5.05296,13.15678 l -59.03072,-0.0159 0.0156,-56.70883 c 0.004,-14.643085 15.77818,-7.631154 14.06723,3.55051 C 293.86783,74.755857 223.06974,9.0349046 206.5725,91.847115 l -7e-5,1e-5 z"
 id="path2827"
 style="fill:#faf700;fill-opacity:1;stroke:none" />
</g>
</svg>
