<?xml version="1.0" encoding="UTF-8" standalone="no"?>
<!-- Created with Inkscape (http://www.inkscape.org/) -->

<svg
 xmlns:dc="http://purl.org/dc/elements/1.1/"
 xmlns:cc="http://creativecommons.org/ns#"
 xmlns:rdf="http://www.w3.org/1999/02/22-rdf-syntax-ns#"
 xmlns:svg="http://www.w3.org/2000/svg"
 xmlns="http://www.w3.org/2000/svg"
 version="1.1"
 width="390"
 height="480"
 id="svg4228">
<metadata
 id="metadata13">
<rdf:RDF>
<cc:Work
 rdf:about="">
<dc:format>image/svg+xml</dc:format>
<dc:type
 rdf:resource="http://purl.org/dc/dcmitype/StillImage" />
<dc:title></dc:title>
</cc:Work>
</rdf:RDF>
</metadata>
<defs
 id="defs4232" />
<g
 id="g3765">
<path
 d="M 0,0 C 130,0 260,0 390,0 389.98981,114.99797 370.78556,350.14732 194.88837,479.99815 20.79131,350.08886 0.081386,115.02225 0,0 z"
 id="path4240-0"
 style="fill:#d61a1a;fill-opacity:1;stroke:none" />
<path
 d="m 193.97497,111.10599 c 41.8761,41.88526 8.17977,60.33082 -15.10092,84.85281 -26.36994,-6.6255 -41.27491,30.3897 -58.4262,37.75231 3.52193,12.97303 -12.64808,21.75626 -20.853657,26.24685 -4.577473,2.50507 -11.736117,-0.17755 -13.098967,-4.92194 13.771704,-14.52416 15.390584,-22.62053 9.872088,-27.18934 -8.152139,-6.74921 -19.920163,13.62915 -28.592927,20.24626 C 53.655859,246.75674 40.730006,201.0366 56.988013,201.98119 L 99.978814,131.82203 C 94.279187,126.19404 95.74295,113.94222 98.580509,110.27542 L 140.33898,56.313558 109.19492,29.618643 c 13.70806,-1.057573 32.39844,3.322591 50.72033,13.474576 24.96019,-5.522092 41.91718,-6.274174 61.27119,-6.737287 54.18584,-1.296587 75.75994,24.894951 92.97206,53.384472 13.8164,22.868926 23.43291,46.580306 28.68048,55.746886 l 15.3178,13.09322 -154.83051,273.55932 c -18.14328,-24.66635 -10.3052,-89.08519 11.44068,-107.66949 l -7.5,-129.59746 c -1.07063,-18.50021 28.45936,-49.22852 -13.29198,-83.76689 z"
 id="path2827"
 style="fill:#faf700;fill-opacity:1;stroke:none" />
<path
 d="m 113.35557,106.33475 c -9.38475,6.61222 -6.12414,17.95594 -5.26644,25.99488 3.02485,-5.87074 10.79819,-16.29811 15.47019,-16.81644 -6.70367,6.74735 -12.49359,15.27136 -18.36674,23.42749 0.57958,-2.23515 1.6403,-6.36033 1.44827,-7.44544 -2.8132,-15.89721 -3.21136,-20.56064 6.71472,-25.16049 z"
 id="path3645"
 style="fill:#d61a1a;fill-opacity:1;stroke:none" />
<path
 d="m 116.50424,118.85593 a 4.76695,5.0211872 0 1 1 -9.5339,0 4.76695,5.0211872 0 1 1 9.5339,0 z"
 transform="matrix(1.1227159,0,0,1.0721987,-13.711942,-8.7401357)"
 id="path3647"
 style="fill:none;stroke:#d61a1a;stroke-width:1.12663829;stroke-miterlimit:4;stroke-opacity:1;stroke-dasharray:none" />
<path
 d="m 59.491525,216.22881 a 4.7033896,7.5 0 1 1 -9.406779,0 4.7033896,7.5 0 1 1 9.406779,0 z"
 transform="matrix(0.83021825,-0.55743848,0.55743848,0.83021825,-103.35087,70.557804)"
 id="path3649"
 style="fill:none;stroke:#d61a1a;stroke-width:1.5;stroke-linecap:round;stroke-linejoin:round;stroke-miterlimit:4;stroke-opacity:1;stroke-dasharray:none" />
<path
 d="m 139.27724,56.954071 c -63.898309,2.303247 -39.700651,40.924085 -64.776124,59.174899 7.508438,2.61093 18.534539,2.32908 21.439965,-1.46881 C 110.22727,95.985635 128.52006,75.994759 139.27724,56.954071 z"
 id="path3651"
 style="fill:#faf700;fill-opacity:1;stroke:#d22828;stroke-width:1.20000005;stroke-linecap:butt;stroke-linejoin:miter;stroke-miterlimit:4;stroke-opacity:1;stroke-dasharray:none" />
<path
 d="M 161.81133,42.106291 C 176.31268,28.459898 215.47614,18.262712 238.28899,19.017313 336.78083,22.275215 343.00277,109.82021 342.74933,143.80949 330.60253,117.66657 314.19331,84.783386 292.4365,61.881556 270.95146,39.265791 244.24072,28.773336 161.81133,42.106291 z"
 id="path3653"
 style="fill:#faf700;fill-opacity:1;stroke:#d61a1a;stroke-width:1.20000005;stroke-linecap:butt;stroke-linejoin:miter;stroke-miterlimit:4;stroke-opacity:1;stroke-dasharray:none" />
</g>
</svg>
