<?xml version="1.0" encoding="UTF-8" standalone="no"?>
<!-- Created with Inkscape (http://www.inkscape.org/) -->

<svg
   xmlns:svg="http://www.w3.org/2000/svg"
   xmlns="http://www.w3.org/2000/svg"
   version="1.1"
   width="390"
   height="480"
   id="svg4228">
  <defs
     id="defs4232" />
  <path
     d="M 0,0 C 130,0 260,0 390,0 389.98981,114.99797 370.78556,350.14732 194.88837,479.99815 20.79131,350.08886 0.081386,115.02225 0,0 z"
     id="path4240-0"
     style="color:#000000;fill:#008c31;fill-opacity:1;fill-rule:nonzero;stroke:none;marker:none;visibility:visible;display:inline;overflow:visible;enable-background:accumulate" />
  <path
     d="m 81.764706,318.36601 c 4.312298,4.69537 23.414194,4.40167 26.601304,1.17647 16.76013,-16.96043 32.01848,-42.2349 45.4902,-49.60784 9.25608,-5.06576 13.30235,2.59984 17.38562,-0.65359 1.89839,-1.51258 0.0121,-7.20692 4.57516,-7.18955 13.73604,0.0523 23.46267,7.31099 31.37255,15.42484 -31.14567,9.15819 -33.42471,29.95923 -23.66013,45.88235 19.17128,31.26265 53.68387,16.11782 82.87582,33.98693 1.35748,-32.69144 24.51675,-85.2106 0.26144,-103.79085 -15.62671,-11.9705 -43.18943,-19.29732 -54.11765,15.94771 -8.64303,-11.70852 -20.3365,-19.83611 -40.26144,-18.30065 2.56285,-4.87469 29.32246,-35.81907 44.96732,-32.81046 6.05977,1.56568 0.48309,-11.22639 5.32198,-14.61896 20.94838,-14.68699 40.01865,-19.84342 58.78692,-25.04914 1.44148,27.5809 18.8853,28.95811 32.16642,22.46104 43.01657,-21.04355 31.00135,-56.66434 48.24964,-86.88633 -27.38083,-0.22354 -55.08159,-20.916256 -80.78579,-10.16755 -32.95108,13.77913 -30.70608,48.84399 -8.13404,66.36637 -25.89439,9.25065 -47.1627,20.09467 -66.73609,30.31778 9.63036,-27.46888 11.60543,-61.96837 0.55459,-84.11336 31.3192,-1.21609 41.53916,-34.096012 28.09941,-52.501521 -20.1813,-27.637959 -40.39034,-16.342834 -65.25718,-31.981562 -6.41098,32.492434 -33.09882,55.751483 -22.73833,81.894983 18.60918,46.9581 54.49519,8.42536 51.39233,9.61295 11.43396,27.24675 6.19988,55.75442 -2.95783,73.94581 -2.43005,4.82718 -7.11852,0.77393 -9.61295,4.62161 -3.00508,4.63537 -2.85015,10.0037 -7.20972,14.97403 l -38.26696,43.62803 c -2.02079,2.30334 -6.12684,1.63171 -6.47025,-3.88216 -1.96908,-31.61618 -3.34147,-56.77123 -18.30159,-70.80311 19.4496,-2.31039 37.79683,-31.1099 14.78916,-52.68639 -18.8016,-17.63206 -46.67503,-21.92546 -80.600929,-18.11672 13.41643,20.38758 -6.830458,64.26737 11.4616,89.84416 10.568586,14.77748 29.565943,18.60285 48.434499,-11.09188 16.58728,15.20666 13.73328,47.31642 15.15889,70.80311 -4.3135,1.34482 -12.54198,-0.0907 -14.23456,3.32757 -2.29964,4.64432 3.7925,12.10248 -0.36973,17.00753 l -28.229684,33.02835 z"
     id="path3633"
     style="fill:#faf700;fill-opacity:1;stroke:none" />
</svg>
