<?xml version="1.0" encoding="UTF-8" standalone="no"?>
<!-- Created with Inkscape (http://www.inkscape.org/) -->

<svg
   xmlns:svg="http://www.w3.org/2000/svg"
   xmlns="http://www.w3.org/2000/svg"
   version="1.1"
   width="390"
   height="480"
   id="svg4228">
  <defs
     id="defs4232" />
  <path
     d="m 0.51202379,0.50512952 c 129.66265621,0 259.32532621,0 388.98797621,0 C 389.48983,115.23328 370.33544,349.8309 194.89467,479.37706 21.249382,349.77255 0.5931986,115.2575 0.51202379,0.50512952 z"
     id="path4240-0-1"
     style="fill:#faf700;fill-opacity:1;stroke:#9e832a;stroke-width:0.99999905;stroke-opacity:1" />
  <path
     d="m 163.68552,168.44606 c -3.40925,5.39289 6.18052,25.13102 0.16435,38.54779 -10.29481,-3.12675 -0.7885,11.98979 -6.77584,20.78843 -11.52794,-5.0712 -1.32062,7.98331 -12.6797,18.94706 -9.57018,-6.19063 -6.97768,7.16729 -13.09321,11.63135 -9.20445,-9.79945 -10.51508,1.2203 -17.6695,6.03814 -7.77864,-10.04578 -6.92666,0.8033 -15.889828,4.19491 -7.450164,-13.07424 -11.496663,1.23894 -17.161017,0.12712 -6.879376,-9.35307 -6.084449,-2.05649 -17.161017,-0.76271 -2.96525,-8.45592 4.537689,-15.98276 -4.067797,-16.77966 -2.778271,-10.41618 10.462195,-19.29884 -0.773617,-21.94074 0.393864,-7.8188 7.359802,-12.92101 -0.116209,-16.19485 2.582127,-8.82372 15.657593,-10.20771 4.275768,-16.06696 1.699665,-7.28298 14.432807,-12.39225 7.673385,-16.3483 4.232394,-7.86183 17.575795,-6.09485 10.2748,-12.97887 6.141745,-8.85871 24.850412,-4.39516 28.750632,-10.91943 -7.33507,-0.0336 -16.86705,-2.61455 -20.211873,-7.5 3.895007,-6.75984 -15.623401,-2.16869 -21.610169,-8.89831 3.753055,-6.63971 -11.485584,-5.80263 -12.584746,-13.85593 4.729215,-3.13812 -6.248171,-6.35886 -4.703389,-13.34746 7.383678,-1.12459 -2.792489,-7.50541 -2.415255,-12.83898 6.711597,-2.923722 -4.535379,-9.279652 -3.813559,-15.635592 7.803622,-1.90503 -1.584662,-12.12999 0.06356,-19.00423 11.129825,-1.17443 1.543866,-14.91471 5.402542,-22.43644 7.768233,-2.43747 16.118357,8.88252 18.622882,-1.14407 7.104562,-2.06969 15.421208,7.3783 15.95339,1.46186 10.386951,0.36237 12.074291,8.53051 12.838983,2.73305 8.932184,-0.0383 11.213074,9.23305 13.728824,4.0678 7.95369,1.96813 11.07978,14.33102 14.74576,7.88136 7.5832,4.50062 6.73063,16.11762 11.31354,12.13983 4.85413,2.75288 2.19413,17.01009 8.89831,11.82203 4.81599,4.72233 0.71721,17.40592 4.83051,22.055082 0.69275,-5.054382 1.06037,-17.326872 3.68644,-18.432202 10.37707,4.32902 3.49576,-16.69491 11.18643,-22.37288 5.9431,5.28117 7.57216,-14.65872 15.6356,-15.06356 1.01759,6.80355 6.178,-5.53888 11.82204,-4.89407 0.29658,5.99585 8.50104,-2.13449 15.38135,-2.03389 0.39193,7.03838 8.60599,-2.35219 18.94069,-0.88983 -0.76008,6.83015 6.92148,-2.25565 20.4661,-0.6356 4.5544,7.3052 -0.62015,19.88862 6.14797,19.69062 3.03515,9.18374 -6.19433,15.95004 -0.28509,16.30841 1.73902,10.47711 -5.84927,13.72298 -0.14254,15.22979 0.49761,10.956212 -10.92564,15.826322 -4.19491,19.576262 0.73323,8.54919 -14.59614,9.1692 -8.77119,16.14406 -1.93509,8.54842 -20.87574,8.54675 -17.0339,14.87289 -5.0397,4.74618 -16.19428,0.62594 -12.45762,8.00847 -8.44026,6.37536 -24.54478,7.87312 -39.54237,6.478 -0.16588,-0.0154 -0.33325,0.004 -0.50001,0.005 -2.37433,8.73933 14.46461,19.73859 28.32565,19.05502 28.17818,-1.39849 40.27418,-43.02694 62.34079,-61.93762 25.62026,-21.956092 76.49197,-24.363772 72.5539,-66.820782 l 14.61865,1.14407 c 4.11399,32.90535 -10.97093,56.350352 -39.91526,72.966092 -1.72652,11.88242 -7.09324,34.17458 10.48729,12.96611 0.89307,3.39432 1.92977,6.75272 0.19068,10.80508 4.90789,-0.87851 8.11208,-5.81296 9.72457,-8.83475 3.30308,4.10541 1.73942,8.80105 0.95339,10.86865 2.63518,7.69575 8.50655,15.61092 9.15254,25.67797 1.28327,19.99827 -10.96924,28.06715 -23.39038,61.15364 -3.79114,10.09856 -27.6633,10.52641 -34.35627,0.32927 -17.32466,-26.39516 -21.40569,-36.45856 -20.81267,-59.95749 0.4911,-19.46033 16.39831,-28.34746 16.39831,-28.34746 -1.35152,-3.64333 -1.44509,-7.7126 1.90677,-10.67797 0.4629,4.27334 4.36931,7.43981 6.7373,8.1356 0.42303,-2.7375 0.28338,-6.35566 3.17796,-9.15254 10.47827,20.11544 13.25401,-10.83592 5.59322,-8.26272 -16.81456,5.64788 -33.18913,11.14315 -40.06947,35.01557 -7.87703,27.33057 -22.85426,43.03528 -22.85426,43.03528 l 0.50848,23.51694 c 0.14205,6.56954 12.02519,-0.91212 13.41126,-7.14084 2.81701,4.48226 3.42047,9.41772 0.45209,12.60966 4.61096,-0.33168 7.81992,-6.06641 8.61103,-9.79498 2.61489,2.72827 2.60455,8.33495 -0.27076,13.62925 0,0 15.14063,12.04891 14.58077,31.87886 -0.34454,12.20366 -4.76302,21.7485 -11.80247,35.26323 -9.06834,17.4099 -16.38973,38.23646 -30.85205,37.8992 -14.8649,-0.34666 -20.81388,-16.77299 -29.46631,-35.1368 -6.93436,-14.71738 -9.37724,-29.83244 -9.21363,-40.97381 0.25951,-17.67179 16.85503,-31.24963 16.85503,-31.24963 -1.78727,-3.71756 -1.06921,-6.4358 0.80261,-8.8578 1.44858,2.77257 3.74868,5.29839 6.38833,5.65647 -1.36901,-3.68212 -1.50945,-6.49405 0.80787,-8.87431 10.03709,17.95554 13.87404,1.80845 10.33804,-11.11507 -24.20859,24.2418 -74.19553,31.41485 -69.43596,78.66078 4.89826,-2.70321 7.74226,-6.6317 9.38278,-9.64075 2.78777,4.45444 0.041,8.40041 -1.01166,11.45655 7.08037,2.85177 9.9992,-5.32529 10.73217,-10.55769 4.27926,4.53035 3.12545,12.51643 0.58449,16.36836 0,0 17.34479,10.33664 15.51686,25.98358 -3.22817,27.63285 -16.27229,42.94643 -29.56812,61.0513 -6.14231,8.36394 -31.69725,8.59558 -34.87455,0.0703 -11.05183,-29.65385 -13.03825,-32.78898 -18.71772,-57.25917 -4.08306,-17.59201 18.20068,-29.95135 18.20068,-29.95135 -3.61897,-5.05938 -5.80212,-9.35205 -1.66532,-16.17582 0.068,3.80012 1.6193,8.24354 7.21648,9.44446 -0.62727,-2.28112 -0.74084,-7.08813 2.47849,-10.38694 0.37568,3.38665 3.05203,9.16862 9.36471,10.03643 7.45704,-38.98938 26.68918,-51.40305 45.38098,-61.90593 26.28976,-14.77215 49.17659,-39.03215 52.9548,-51.53078 21.35885,-70.65686 73.28249,-51.97635 87.18986,-81.077572 -92.71742,10.811702 -79.26044,87.807322 -127.09944,88.448262 -7.9856,0.10699 -24.29555,-4.44772 -35.69201,-15.28023 l 0,5e-5 -2e-5,0 0,-2e-5 0,4e-5 z"
     id="path2829"
     style="fill:#d61a1a;fill-opacity:1;stroke:none" />
</svg>
