<?xml version="1.0" encoding="UTF-8" standalone="no"?>
<!-- Created with Inkscape (http://www.inkscape.org/) -->

<svg
   xmlns:svg="http://www.w3.org/2000/svg"
   xmlns="http://www.w3.org/2000/svg"
   xmlns:xlink="http://www.w3.org/1999/xlink"
   version="1.1"
   width="390"
   height="480"
   id="svg4228">
  <defs
     id="defs4232">
    <linearGradient
       id="linearGradient3652">
      <stop
         id="stop3654"
         style="stop-color:#ffffff;stop-opacity:1"
         offset="0" />
      <stop
         id="stop3656"
         style="stop-color:#ffffff;stop-opacity:0"
         offset="1" />
    </linearGradient>
    <linearGradient
       x1="1.041629"
       y1="110.18271"
       x2="389.03033"
       y2="110.18271"
       id="linearGradient2933"
       xlink:href="#linearGradient3652"
       gradientUnits="userSpaceOnUse"
       gradientTransform="translate(0,3.7e-6)" />
  </defs>
  <path
     d="m 0.51202379,0.50512952 c 129.66265621,0 259.32532621,0 388.98797621,0 C 389.48983,115.23328 370.33544,349.8309 194.89467,479.37706 21.249382,349.77255 0.5931986,115.2575 0.51202379,0.50512952 z"
     id="path4240-0-1"
     style="fill:#207dbf;fill-opacity:1;stroke:#9e832a;stroke-width:0.99999905;stroke-opacity:1" />
  <path
     d="m 165.8436,42.077377 -29.97676,-14.078842 0.0449,51.187622 29.99925,-14.101337 0,79.05296 -30.02172,-14.03386 0.0225,51.09765 29.99925,-14.03387 -0.0112,78.09712 -30.02171,-14.04511 0.0787,52.13221 29.94306,-14.11258 0,78.07461 -30.01048,-14.01137 -0.0225,51.16515 30.02172,-13.14551 0.18874,83.70682 c 7.26544,6.9993 23.02903,19.49606 28.82726,23.73896 6.11537,-4.29475 18.08268,-13.71478 28.30566,-23.01023 l -0.31188,-84.40181 30.98798,12.99931 0.0326,-51.05036 -31.04308,13.01948 0.0899,-77.09628 31.01044,14.12381 -0.13483,-52.26715 -30.9655,14.2138 0.0899,-78.08587 30.87561,13.94391 0.0899,-51.99728 -30.92056,13.9889 -0.0449,-77.051343 31.05539,13.044292 -0.17978,-51.142644 -30.92056,13.08928 -0.0254,-40.077775 -56.831,6.037e-4 -0.22092,41.0667333 z"
     id="path2827"
     style="fill:#faf700;fill-opacity:1;stroke:none" />
</svg>
