<?xml version="1.0" encoding="UTF-8"?>
<svg xmlns="http://www.w3.org/2000/svg" xmlns:xlink="http://www.w3.org/1999/xlink" width="390" height="480">
<path d="M0,0C130,0 260,0 390,0 390,115 371,350 195,480 21,350 0,115 0,0 z" fill="#207dbf"/>
<path d="m51,53.2c5-1.5 10-2.1 14.2-1.7 0,1.8 1.8,3.8 3,5.4-6.1-2.6-11.7-3-17.2-3.7zm-2.8-8.8c5.7-1.8 11-3.5 16.1-6.7 1.1,1.7 4.3,5.2 5.7,6-1.2,3.4-11.6,4.5-21.8,0.7zm17.3-7.1c3,4.5 7.4,7.7 14.1,9.3 4.1,1-2.8,5.1-5.7,5.1-3.5,0-5.8-7.1-7.1-3.9-3.8,8.7 9,11.1 9.2,16.8 1.2,39.5 3.4,73-29.6,103.8-2.3,2.1 1.3,21.1 7.6,21.2l105.5,1.9c6.7,0.1 28.3-22.2 28.3-33.6-10.4,6.2-42.6,32.2-52.7,8 5.4,3.3 11.1,5.3 17.2,4.6 4.9-0.5 7.4-5.4 7.4-7.9-10.1-1.1-17.9-4.8-18.7-10.5 6.3,3.6 15.1,7 21.5,4.8 4.9-1.7 5.8-5.6 6.1-8.4-10.3-0.3-19.1-2.1-19.7-6.8 5.8,2 15,4.1 21,1.9 4.4-1.7 5.3-5.6 5.5-9.2-6.5,0.2-17.4,0.6-20.5-3.9 6.9,0.3 16.7,1.5 22.9,-1.9 4.2-2.3 3.8-8 3.4-10.5-6.7,2-17.5,5.6-22.2,1.8 9.5-1.7 19.6-4.6 23.4-8.6 2.1-2.3 2.2-5.9 1.3-11.4-5.7,5.1-17.1,11.5-22.7,7.2 10.7-4.4 21.4-7.2 25.3-14.4 1.7-3.2 1.9-7.6 0.2-12.8-5.1,5-12,12.1-18.4,10.5 8.7-6.8 17-14.5 20.3-23.2 2.9-7.7 2-16.2 0.1-23.1-18.3,26.8-34.2,55.3-70,70.1-5.6,20.6-25.4,52.5-40,53 10.7-22.7 6-38.2 8.3-69.2 2.7-35.9 4.1-71.9-21.1-60.7z" id="a" fill="#ececec"/>
<use x="166" xlink:href="#a"/>
<use x="91" y="187" xlink:href="#a"/>
</svg>