<?xml version="1.0" encoding="UTF-8" standalone="no"?>
<!-- Created with Inkscape (http://www.inkscape.org/) -->

<svg
   xmlns:svg="http://www.w3.org/2000/svg"
   xmlns="http://www.w3.org/2000/svg"
   xmlns:xlink="http://www.w3.org/1999/xlink"
   version="1.1"
   width="390"
   height="480"
   id="svg4228">
  <defs
     id="defs4232" />
  <path
     d="m 0.51202379,0.50512952 c 129.66265621,0 259.32532621,0 388.98797621,0 C 389.48983,115.23328 370.33544,349.8309 194.89467,479.37706 21.249382,349.77255 0.5931986,115.2575 0.51202379,0.50512952 z"
     id="path4240-0-1"
     style="fill:#d9d9d9;fill-opacity:1;stroke:#999999;stroke-width:0.99999905;stroke-opacity:1" />
  <use
     transform="matrix(-1,0,0,1,389.55201,0.68441002)"
     id="use2996"
     x="0"
     y="0"
     width="390"
     height="480"
     xlink:href="#path2827-8" />
  <use
     transform="matrix(-0.30944029,-0.95091886,-0.95091886,0.30944029,399.78727,300.43106)"
     id="use3000"
     x="0"
     y="0"
     width="390"
     height="480"
     xlink:href="#path2827-8" />
  <use
     transform="matrix(0.30742304,-0.95157295,0.95157295,0.30742304,-9.0020125,299.93992)"
     id="use3002"
     x="0"
     y="0"
     width="390"
     height="480"
     xlink:href="#path2827-8" />
  <use
     transform="matrix(-0.78926365,-0.61405447,0.61405447,-0.78926365,251.7066,420.20304)"
     id="use3004"
     x="0"
     y="0"
     width="390"
     height="480"
     xlink:href="#path2827-8" />
  <path
     d="m 188.09119,148.30233 c -4.80215,3.88457 -20.52909,-1.01562 -33.6434,-9.23662 -4.10489,-2.57326 -7.89554,-7.52729 -4.89874,-11.89654 -8.49794,1.24453 -27.65954,-3.96896 -34.00256,-11.09269 -2.70096,-3.03338 4.47009,-11.9523 4.47009,-11.9523 C 110.2354,102.01458 99.531447,100.17173 90.201931,92.36754 80.872417,84.56333 79.435841,80.695446 90.834559,72.436713 77.780383,56.210041 78.159513,52.518055 87.290805,38.574438 81.864006,26.307078 89.618916,14.35358 104.81524,25.08703 c 17.18662,-6.615938 21.26595,-2.583387 32.0819,10.406567 9.60474,-7.735805 15.39143,-5.639553 21.17107,5.725353 5.77966,11.364901 3.10241,20.730472 2.45537,29.837955 5.8433,-2.593926 11.3672,-3.17844 13.01416,-0.884214 5.58302,7.777138 4.10301,25.835689 0.96054,36.113089 4.99866,-2.09783 10.81451,0.37587 12.75407,6.21533 5.29768,15.94984 5.35828,32.14533 0.83885,35.80122 z"
     id="path2827-8"
     style="fill:#008c31;fill-opacity:1;stroke:none" />
</svg>
