<?xml version="1.0" encoding="UTF-8" standalone="no"?>
<!-- Created with Inkscape (http://www.inkscape.org/) -->

<svg
   xmlns:svg="http://www.w3.org/2000/svg"
   xmlns="http://www.w3.org/2000/svg"
   xmlns:xlink="http://www.w3.org/1999/xlink"
   version="1.1"
   width="390"
   height="480"
   id="svg4228">
  <defs
     id="defs4232">
    <linearGradient
       id="linearGradient3653">
      <stop
         id="stop3655"
         style="stop-color:#ffffff;stop-opacity:1"
         offset="0" />
      <stop
         id="stop3657"
         style="stop-color:#ffffff;stop-opacity:0"
         offset="1" />
    </linearGradient>
    <linearGradient
       x1="0"
       y1="109.87704"
       x2="390"
       y2="109.87704"
       id="linearGradient2915"
       xlink:href="#linearGradient3653"
       gradientUnits="userSpaceOnUse" />
  </defs>
  <path
     d="M 0,0 C 130,0 260,0 390,0 389.98981,114.99797 370.78556,350.14732 194.88837,479.99815 20.79131,350.08886 0.081386,115.02225 0,0 z"
     id="path4240-0"
     style="color:#000000;fill:#008c31;fill-opacity:1;fill-rule:nonzero;stroke:none;marker:none;visibility:visible;display:inline;overflow:visible;enable-background:accumulate" />
  <path
     d="m 152.98941,377.9081 c -0.47715,10.045 0.68228,19.60865 5.94279,27.9661 3.20831,-0.5636 6.38633,-1.17263 8.93009,-2.73305 3.39668,6.06989 -1.78439,13.65869 -9.8517,18.71822 15.25288,4.81324 18.91177,-15.39083 21.99153,-22.77699 4.69449,-1.47573 6.09262,-2.08237 12.26695,-3.85157 -6.13726,12.70884 3.09741,30.86708 -9.2161,49.79593 15.33311,-3.48653 15.32738,-29.51817 17.66949,-39.40678 3.77068,-15.92016 10.17943,-15.37936 17.95082,-18.41304 9.07014,-3.54066 6.07217,19.02568 20.05765,20.31982 -7.72558,-7.81659 -4.05053,-16.83317 -8.77118,-24.78813 6.82889,-4.62409 17.07775,-6.68321 26.44067,-9.40678 1.36821,-9.7849 0.18751,-18.64291 -2.16101,-27.07627 -6.88174,0.27341 -32.70801,9.66121 -43.6017,10.29661 -1.42819,-7.57718 37.52217,-46.28359 44.25536,-46.62699 25.95839,-1.32391 50.37793,-0.67433 71.04125,-12.10183 -4.73703,-7.6614 -12.25781,-11.14718 -21.73729,-11.69491 18.05291,-12.07292 29.31802,-27.63147 34.83051,-46.14407 -14.91653,3.07722 -28.4799,11.90532 -42.07627,20.59322 18.05682,-17.45569 24.01676,-38.84286 28.72882,-60.63559 -24.38489,8.99487 -40.46231,25.85997 -51.99153,47.03389 0.0845,-16.99145 -5.56693,-32.17154 -11.82203,-47.16101 -9.78139,16.99402 -11.43272,36.99918 -12.20339,57.33051 -5.4376,-23.93565 -14.82439,-45.16922 -26.69492,-64.70339 -9.89566,35.42066 -4.18765,70.38239 8.89831,105.12712 -5.80849,15.07453 -18.41196,25.01836 -25.42373,27.83898 2.87746,-24.72937 -4.0466,-192.42827 -3.68645,-217.75424 0.39348,-27.670057 8.27251,-46.960653 18.81618,-58.841202 20.53341,-23.136956 51.17279,-18.170416 56.31095,7.739513 C 199.83697,67.476183 206.10907,191.60377 289.47308,189.28397 377.48086,186.83495 373.66083,68.069417 300.89195,56.869967 298.77252,37.748597 272.6387,18.719788 247.88348,18.035221 229.09532,17.515664 208.28637,30.220916 198.56144,49.306408 184.63266,27.703714 160.86872,14.058097 143.01059,14.603018 129.58747,15.012611 109.10866,19.08379 91.654659,55.535222 -3.6218357,79.74657 29.80064,191.72691 99.663129,188.75556 174.69258,185.56446 194.94875,78.674405 110.59534,55.916577 c 6.79266,-45.62132 74.61426,-19.859968 77.92373,21.991525 0.9076,11.477531 -3.94422,46.241788 -1.87854,103.647628 2.06567,57.40583 2.05312,150.22817 -11.59604,151.22525 -8.61775,-3.03084 -10.91247,-7.52085 -13.47457,-11.94915 18.13702,-50.76324 7.00536,-90.79462 -2.79661,-131.31356 -12.2584,17.95257 -18.41427,38.34616 -21.1017,60.12712 -9.0131,-23.03503 -25.37202,-30.24826 -40.296611,-40.55085 -0.0255,15.97859 0.67145,31.89463 12.361351,55.37108 -19.457641,-27.70742 -38.503971,-38.96221 -57.488471,-47.74396 2.87794,23.95809 13.43032,48.18082 43.98305,73.09322 -14.19495,-3.06146 -22.26294,-1.91064 -28.85593,0.25424 7.75271,14.25919 23.42396,24.77908 48.432201,30.88983 -9.69303,3.10703 -19.687211,5.51291 -23.008471,17.41525 9.866521,6.29653 22.769691,10.69961 53.644071,1.65254 19.07872,7.24428 21.30322,19.64424 25.80508,27.07627 -4.49712,5.18466 -5.35038,6.71353 -19.25847,10.80509 z"
     id="path3856"
     style="fill:#ececec;fill-opacity:1;stroke:none" />
  <use
     transform="translate(-189.58175,1.140685)"
     id="use3778"
     x="0"
     y="0"
     width="390"
     height="480"
     xlink:href="#path2838-6" />
  <use
     transform="translate(-189.35362,0.171103)"
     id="use3770"
     x="0"
     y="0"
     width="390"
     height="480"
     xlink:href="#path2838-1-1" />
  <use
     transform="matrix(-1.0286379,0,0,1.0349128,395.88724,-1.2578548)"
     id="use3776"
     x="0"
     y="0"
     width="390"
     height="480"
     xlink:href="#path2838-6" />
  <use
     transform="matrix(-1,0,0,1,388.13854,0.057035)"
     id="use3772"
     x="0"
     y="0"
     width="390"
     height="480"
     xlink:href="#path2838-1-1" />
  <path
     d="m 273.67457,59.715948 c -39.52584,6.494705 -58.80427,65.115832 -41.31716,65.341792 26.65931,0.34445 10.79755,-29.092247 41.31716,-65.341792 z"
     id="path2838-6"
     style="fill:#008c31;fill-opacity:1;stroke:none" />
  <path
     d="M 287.46042,58.309313 C 263.7389,55.75478 243.99444,128.03087 266.84701,127.58895 291.84357,127.10554 286.65156,96.906533 287.46042,58.309313 z"
     id="path2838-1-1"
     style="fill:#008c31;fill-opacity:1;stroke:none" />
  <use
     transform="matrix(-0.98090804,0,0,1,573.3761,1.197718)"
     id="use3774"
     x="0"
     y="0"
     width="390"
     height="480"
     xlink:href="#path2838-6" />
  <use
     transform="matrix(-1,0,0,1,577.72789,-0.114069)"
     id="use3768"
     x="0"
     y="0"
     width="390"
     height="480"
     xlink:href="#path2838-1-1" />
</svg>
