<?xml version="1.0" encoding="UTF-8" standalone="no"?>
<!-- Created with Inkscape (http://www.inkscape.org/) -->

<svg
   xmlns:svg="http://www.w3.org/2000/svg"
   xmlns="http://www.w3.org/2000/svg"
   xmlns:xlink="http://www.w3.org/1999/xlink"
   version="1.1"
   width="390"
   height="480"
   id="svg4228">
  <defs
     id="defs4232">
    <linearGradient
       id="linearGradient3653">
      <stop
         id="stop3655"
         style="stop-color:#ffffff;stop-opacity:1"
         offset="0" />
      <stop
         id="stop3657"
         style="stop-color:#ffffff;stop-opacity:0"
         offset="1" />
    </linearGradient>
    <linearGradient
       x1="0"
       y1="109.87704"
       x2="390"
       y2="109.87704"
       id="linearGradient2991"
       xlink:href="#linearGradient3653"
       gradientUnits="userSpaceOnUse" />
  </defs>
  <path
     d="m 0.51202379,0.50512952 c 129.66265621,0 259.32532621,0 388.98797621,0 C 389.48983,115.23328 370.33544,349.8309 194.89467,479.37706 21.249382,349.77255 0.5931986,115.2575 0.51202379,0.50512952 z"
     id="path4240-0-1"
     style="fill:#207dbf;fill-opacity:1;stroke:#999999;stroke-width:0.99999905;stroke-opacity:1" />
  <path
     d="M 80.572353,347.0682 109.04227,317.82177 62.765321,272.14243 116.5432,218.3197 l 46.1498,46.31555 43.47998,-44.40695 -46.02267,-46.06106 54.03214,-53.05927 45.25987,46.06106 44.87846,-44.53417 -46.53121,-46.188319 53.90501,-53.568248 45.89553,46.442781 30.67138,-30.383596 c 0.69496,-12.988057 0.81349,-26.606033 0.73994,-37.9344171 L 0.92251344,0.99291 C 1.0602914,192.08169 56.607558,304.8878 80.572353,347.0682 z"
     id="path2827"
     style="fill:#e5e5e5;fill-opacity:1;stroke:none" />
</svg>
