<?xml version="1.0" encoding="UTF-8" standalone="no"?>
<!-- Created with Inkscape (http://www.inkscape.org/) -->

<svg
   xmlns:svg="http://www.w3.org/2000/svg"
   xmlns="http://www.w3.org/2000/svg"
   version="1.1"
   width="390"
   height="480"
   id="svg4228">
  <defs
     id="defs4232" />
  <path
     d="M 0,0 C 130,0 260,0 390,0 389.98981,114.99797 370.78556,350.14732 194.88837,479.99815 20.79131,350.08886 0.081386,115.02225 0,0 z"
     id="path4240-0"
     style="fill:#207dbf;fill-opacity:1;stroke:none" />
  <path
     d="m 194.75373,36.58779 c -2.57815,0.22124 -7.01484,2.711839 -10.1843,8.923689 -7.07559,13.871361 -20.4104,19.113696 -53.44061,25.895746 -22.56988,4.634407 -29.12972,3.823898 -41.801428,-5.237582 -2.906705,-2.077678 -5.850477,-3.169979 -7.081511,-1.938958 -2.63086,2.629474 5.302576,55.009065 14.452477,92.623315 5.579842,22.94664 8.549302,28.94899 23.082242,46.45872 16.60013,19.99679 37.5223,56.79082 44.22733,77.78485 10.21102,31.96766 12.36539,52.06513 7.85646,73.61468 -4.7732,22.8097 -15.82368,34.03137 -2.32784,39.08614 1.46838,0.54997 12.37744,1.99325 25.21718,2.03686 0.199,2.2e-4 0.37982,-9e-5 0.58196,0 12.83975,-0.0469 23.76372,-1.4486 25.21718,-2.03686 14.18025,-5.73918 2.44536,-16.27644 -2.32784,-39.08614 -4.50893,-21.54955 -2.35455,-41.64702 7.85646,-73.61468 6.70503,-20.99403 27.62721,-57.78806 44.22733,-77.78485 14.53294,-17.50973 17.50241,-23.51208 23.08224,-46.45872 9.14993,-37.61425 17.08342,-89.993841 14.45255,-92.623315 -1.23107,-1.231021 -4.17482,-0.14137 -7.0816,1.938958 -12.67169,9.06148 -19.23153,9.871989 -41.80141,5.237582 -33.03021,-6.78205 -46.36501,-12.024385 -53.44061,-25.895746 -3.16945,-6.21185 -7.60615,-8.700284 -10.1843,-8.923689 z"
     id="path1878"
     style="fill:#ececec;fill-opacity:1;fill-rule:nonzero;stroke:none" />
</svg>
