<?xml version="1.0" encoding="UTF-8" standalone="no"?>
<!-- Created with Inkscape (http://www.inkscape.org/) -->

<svg
   xmlns:svg="http://www.w3.org/2000/svg"
   xmlns="http://www.w3.org/2000/svg"
   version="1.1"
   width="420"
   height="480"
   id="svg4228">
  <defs
     id="defs4232" />
  <path
     d="M 0,0 C 139.98032,0 279.96064,0 419.94096,0 419.92998,114.99797 399.25139,350.14732 209.85028,479.99815 22.387494,350.08886 0.08763414,115.02225 0,0 z"
     id="path4240-0"
     style="color:#000000;fill:#207dbf;fill-opacity:1;fill-rule:nonzero;stroke:none;marker:none;visibility:visible;display:inline;overflow:visible;enable-background:accumulate" />
  <path
     d="M 134.42966,35.774714 C 121.55777,53.95971 103.79272,69.122819 81.464438,80.701742 66.299531,88.565907 43.359748,83.361586 63.091312,53.879445 70.013581,43.536459 86.139092,25.488888 117.74889,17.861667 c 1.50837,-0.363959 0.45573,-1.708736 -0.10874,-1.826454 C 82.528846,8.7129017 51.755213,41.642029 34.448669,60.912547 26.285796,50.987235 18.4228,38.936944 19.605189,11.84967 c 0.03727,-0.853836 -2.429721,-1.409193 -2.819932,0.09648 -11.481855,44.304006 8.366061,65.479943 11.74905,73.460076 0.417209,25.546674 16.036645,60.149274 48.804096,76.799094 39.882967,20.26537 82.552497,35.80005 142.585547,44.37263 2.42968,0.34695 1.87869,8.84282 -0.45627,8.55513 -29.91594,-3.686 -60.0482,-9.15486 -90.09134,-7.75904 -15.01944,0.69781 -29.805508,0.41408 -43.394306,-6.29137 -15.365693,-7.58227 -17.919939,3.79337 -21.374521,5.72676 -5.351999,2.99529 -6.486282,15.09204 -1.69383,17.74488 1.354352,0.74969 3.665868,3.76963 1.69383,5.24281 -4.070898,3.0411 -6.277949,14.42068 2.097123,18.39015 10.714917,5.07847 13.307,6.44072 19.438715,11.37286 13.327467,10.72015 25.405219,32.90822 40.490599,55.57376 15.58553,23.41701 47.04539,39.06012 54.05046,56.72923 4.94286,12.46752 4.94917,26.07941 7.41445,42.09125 0,0 9.16974,-8.25347 12.77567,-17.56654 l 0.79847,39.01141 c 0,0 9.37055,-8.46929 13.80229,-16.9962 l 0.22813,33.76426 c 40.85069,-38.17699 91.96068,-90.30108 122.01401,-158.81123 -14.62609,-0.0269 -40.85829,-9.83356 -42.91036,-24.27823 14.36367,-1.64386 39.4848,3.81129 57.43628,-13.6786 -5.44161,-0.46959 -11.70916,-3.68771 -14.41415,-6.12056 -9.3457,-8.40546 -25.23598,-18.77352 -44.8198,-12.181 -7.9483,2.67564 -12.76052,4.32951 -25.51891,-0.51973 -4.1419,-1.57426 -20.10976,-16.31897 7.07225,-26.57795 21.34323,-8.05531 48.38839,-6.68743 74.71483,-30.68441 19.93399,-18.17016 36.04554,-42.62813 28.74524,-72.31939 -6.44305,-26.20469 -6.69995,-29.858797 0.91255,-40.608368 11.02546,-15.568994 16.54433,-39.331857 7.30038,-54.524715 -0.66305,-1.089757 -2.49416,0.85059 -2.44699,1.908061 0.72139,16.171339 -7.49397,37.692768 -19.82739,42.20539 -4.24617,1.553612 -10.13697,-3.904765 -15.14007,-9.208508 -26.62238,-28.222177 -60.70028,-37.6416352 -79.78278,-32.450096 -2.16779,0.589765 -0.39629,2.029932 0.89774,2.063448 15.50794,0.401781 38.02059,10.087249 51.73675,25.1395 7.68609,8.434787 16.81129,27.12075 -20.07604,22.813688 -26.91078,-3.142173 -49.11642,-15.120669 -64.94302,-27.218083 -0.68613,-0.524456 -2.80264,0.911112 -2.12922,2.008957 28.04839,45.725912 86.13829,28.331941 116.57794,57.8327 12.71255,12.320436 3.6693,59.283376 -41.06464,38.326996 -9.53025,-4.46461 -24.26656,-14.35841 -33.3793,-34.48211 -0.20999,-0.46371 -2.1905,0.24007 -2.03894,1.4593 3.25171,26.15872 15.97718,40.27571 52.87071,57.20532 11.80269,5.41599 -14.92394,24.88416 -35.58935,15.39924 -20.46048,-9.39086 -32.55424,-25.97916 -40.39253,-49.17014 -0.23842,-0.70541 -2.35518,0.67901 -2.54445,1.9033 -2.26949,14.68076 3.18232,32.13141 20.23736,51.0311 4.42562,4.90429 -2.89219,7.9217 -8.96416,8.76369 -24.25234,3.36305 -51.94319,2.76302 -72.8587,-5.3531 -12.50215,-4.85138 -9.93533,-6.00479 4.02818,-25.53987 9.55541,-13.3681 13.0398,-34.7509 3.97982,-48.10149 -0.35938,-0.52958 -1.61459,-0.20361 -1.63163,0.61225 -0.81869,39.19594 -19.29434,47.14287 -37.76475,55.8797 -16.43875,7.77581 -44.79521,-5.32137 -32.79637,-17.51594 7.5117,-7.63422 37.61494,-26.44926 37.18631,-59.315584 -0.007,-0.524421 -0.96289,-1.601181 -2.11307,0.47764 -13.13603,23.741844 -29.97177,48.072334 -62.421982,49.606514 -17.313454,0.81854 -51.771815,-25.4536 -13.71589,-43.011911 26.904612,-15.369687 51.574872,-33.70075 55.109222,-59.975221 0.1567,-1.164919 -1.33094,-1.471069 -2.80884,0.616856 z"
     id="path3002"
     style="fill:#ececec;stroke:none" />
  <path
     d="m 76.06103,216.0045 c 0.898131,-1.67361 3.329009,-0.88114 2.25844,0.9679 -1.357916,2.34534 4.611064,4.00585 6.412356,1.85516 2.29348,-2.73836 0.264628,-8.80292 -3.710294,-11.0099 -2.405004,-1.33533 -8.674558,-0.12313 -10.525943,3.34733 -2.481084,4.65084 3.826532,8.07985 5.565441,4.83951 z"
     id="path3772"
     style="fill:#207dbf;fill-opacity:1;stroke:none" />
  <path
     d="m 193.82254,237.3387 c 0.69433,5.71447 10.17866,15.64471 22.26176,7.86421 1.80178,-0.56341 3.81744,-0.48516 6.0494,0.24197 0.83611,0.27239 2.99741,-2.85035 1.85514,-3.79095 -1.72145,-1.41752 -4.15972,-3.21329 -5.08149,-5.60577 -3.92729,-10.19337 -16.73825,-11.02498 -23.18933,-4.87985 -7.34947,-2.12653 -8.12394,-1.06856 -8.22718,0.84692 -0.16112,2.98932 6.28154,4.91068 6.3317,5.32347 z"
     id="path3774"
     style="fill:#207dbf;fill-opacity:1;stroke:none" />
</svg>
