<?xml version="1.0" encoding="UTF-8" standalone="no"?>
<!-- Created with Inkscape (http://www.inkscape.org/) -->

<svg
   xmlns:svg="http://www.w3.org/2000/svg"
   xmlns="http://www.w3.org/2000/svg"
   version="1.1"
   width="200.00005"
   height="240"
   id="svg2844">
  <defs
     id="defs2846" />
  <g
     transform="translate(-201.02544,-465.00053)"
     id="layer1">
    <path
       d="m 201.02544,465.00053 c -0.18108,0 199.24514,0 200.00004,0 l 0,30.00001 c 0,157.03536 -97.82731,209.99999 -100.00002,209.99999 -4.56964,0 -100.00002,-52.12842 -100.00002,-209.99999 l 0,-30.00001 z"
       id="path2841"
       style="fill:#0000ff;stroke:none;stroke-width:3;marker:none;visibility:visible;display:block" />
    <g
       transform="matrix(1.2061364,0,0,1.2061364,-842.01036,-119.46746)"
       id="g2849">
      <path
         d="m 982.69808,495.28 c -2.22856,2.50306 -73.77182,127.12348 -74.27807,131.02578 -0.56485,4.35408 22.8405,12.93724 37.31017,12.93724 2.4868,0 7.57543,-0.43804 10.27802,-3.98758 7.77827,-10.21592 24.27535,-39.95778 24.28758,-43.08173 0.0509,-12.99759 -14.45654,-33.92604 -14.35515,-40.89678 0.14011,-9.63362 27.05879,-48.49564 27.05879,-53.28606 0,-2.4314 -9.94081,-3.11581 -10.30134,-2.71087 z"
         id="use2835"
         style="fill:#ffff00;stroke:none" />
      <path
         d="m 997.51756,513.53324 c -1.17581,0.78231 -28.87373,-1.39423 -55.30163,-1.57837 -19.86165,-0.13841 -38.18538,2.66272 -45.54306,2.66272 -1.70495,0 -2.09246,-2.37611 0.54217,-4.51813 4.48922,-3.64982 103.53046,-10.12173 102.83266,-6.14466 -0.49971,2.8481 -1.3598,8.79976 -2.53014,9.57844 z"
         id="use2837"
         style="fill:#ffff00;stroke:none" />
    </g>
  </g>
</svg>
