<?xml version="1.0" encoding="UTF-8" standalone="no"?>
<!-- Created with Inkscape (http://www.inkscape.org/) -->

<svg
   xmlns:svg="http://www.w3.org/2000/svg"
   xmlns="http://www.w3.org/2000/svg"
   xmlns:xlink="http://www.w3.org/1999/xlink"
   version="1.1"
   width="390"
   height="480"
   id="svg4228">
  <defs
     id="defs4232" />
  <path
     d="M 0,0 C 130,0 260,0 390,0 389.98981,114.99797 370.78556,350.14732 194.88837,479.99815 20.79131,350.08886 0.081386,115.02225 0,0 z"
     id="path4240-0"
     style="fill:#207dbf;fill-opacity:1;stroke:none" />
  <path
     d="m 170.06536,230.42484 c 2.21363,2.36566 4.65939,-1.56817 3.49673,-2.9085 -7.75636,-8.94166 -21.47434,-21.81357 -22.90849,-30.45752 11.84798,-1.06693 26.11954,11.12293 36.07843,17.45098 2.26061,1.43643 3.49354,-3.06506 1.96078,-4.24836 -21.30936,-16.45098 -55.40436,-32.62012 -47.9085,-56.14379 10.8598,-34.08045 36.64488,-40.21787 84.31373,-43.79085 -15.44561,-6.79459 -59.17576,-9.82563 -86.8026,-3.41283 -5.92272,1.3748 -11.10599,6.15909 -17.24969,14.65466 L 115.03268,98.562091 C 138.5303,67.5939 162.66635,60.17413 189.28105,46.013071 148.09446,50.213817 110.74613,63.1146 80,90.980392 91.558485,106.80292 92.979209,118.97681 89.150327,129.15033 67.719723,127.32911 63.28763,138.57352 58.235294,146.79738 l 4.575164,6.20916 c 12.435235,-1.89669 21.145598,0.49107 27.254902,5.94771 25.18981,22.49873 56.02708,45.85124 80,71.47059 z"
     id="path3673"
     style="fill:#ececec;stroke:none" />
  <path
     d="m 57.581699,147.71242 4.183007,5.68627 -20.980392,11.04575 16.797385,-16.73202 z"
     id="path3675"
     style="fill:#ececec;stroke:none" />
  <use
     transform="translate(140.49703,-2.9578323)"
     id="use3677"
     x="0"
     y="0"
     width="390"
     height="480"
     xlink:href="#path3673" />
  <use
     transform="translate(140.49703,-2.9578323)"
     id="use3679"
     x="0"
     y="0"
     width="390"
     height="480"
     xlink:href="#path3675" />
  <use
     transform="translate(64.332852,168.59644)"
     id="use3681"
     x="0"
     y="0"
     width="390"
     height="480"
     xlink:href="#path3673" />
  <use
     transform="translate(64.332852,168.59644)"
     id="use3683"
     x="0"
     y="0"
     width="390"
     height="480"
     xlink:href="#path3675" />
</svg>
