<?xml version="1.0" encoding="UTF-8" standalone="no"?>
<!-- Created with Inkscape (http://www.inkscape.org/) -->

<svg
   xmlns:svg="http://www.w3.org/2000/svg"
   xmlns="http://www.w3.org/2000/svg"
   version="1.1"
   width="390"
   height="480"
   id="svg4228">
  <defs
     id="defs4232" />
  <path
     d="m 0.51202379,0.50512952 c 129.66265621,0 259.32532621,0 388.98797621,0 C 389.48983,115.23328 370.33544,349.8309 194.89467,479.37706 21.249382,349.77255 0.5931986,115.2575 0.51202379,0.50512952 z"
     id="path4240-0-1"
     style="fill:#207dbf;fill-opacity:1;stroke:#999999;stroke-width:0.99999905;stroke-opacity:1" />
  <path
     d="M 382.28541,4.2867006 191.36527,475.12573"
     id="path4113"
     style="fill:#800080;stroke:#ececec;stroke-width:5.5;stroke-linecap:butt;stroke-linejoin:miter;stroke-miterlimit:4;stroke-opacity:1;stroke-dasharray:none" />
  <path
     d="M 7.1908561,2.14729 199.35412,474.37276"
     id="path4113-8"
     style="fill:#800080;stroke:#ececec;stroke-width:5.47599173;stroke-linecap:butt;stroke-linejoin:miter;stroke-miterlimit:4;stroke-opacity:1;stroke-dasharray:none" />
  <path
     d="M 102.5037,3.1618291 23.612134,188.05841"
     id="path4647"
     style="fill:none;stroke:#ececec;stroke-width:5.5;stroke-linecap:butt;stroke-linejoin:miter;stroke-miterlimit:4;stroke-opacity:1;stroke-dasharray:none" />
  <path
     d="M 197.86328,3.1685469 65.870575,314.55625"
     id="path4649"
     style="fill:none;stroke:#ececec;stroke-width:5.5;stroke-linecap:butt;stroke-linejoin:miter;stroke-miterlimit:4;stroke-opacity:1;stroke-dasharray:none" />
  <path
     d="M 294.35452,2.2606382 123.93059,408.30275"
     id="path4651"
     style="fill:none;stroke:#ececec;stroke-width:5.5;stroke-linecap:butt;stroke-linejoin:miter;stroke-miterlimit:4;stroke-opacity:1;stroke-dasharray:none" />
  <path
     d="M 107.3633,3.4980751 268.91035,404.87374"
     id="path4653"
     style="fill:none;stroke:#ececec;stroke-width:5.5;stroke-linecap:butt;stroke-linejoin:miter;stroke-miterlimit:4;stroke-opacity:1;stroke-dasharray:none" />
  <path
     d="M 201.44977,2.4841888 326.05753,309.8553"
     id="path4655"
     style="fill:none;stroke:#ececec;stroke-width:5.5;stroke-linecap:butt;stroke-linejoin:miter;stroke-miterlimit:4;stroke-opacity:1;stroke-dasharray:none" />
  <path
     d="M 299.11923,4.016712 368.29035,181.69612"
     id="path4657"
     style="fill:none;stroke:#ececec;stroke-width:5.5;stroke-linecap:butt;stroke-linejoin:round;stroke-miterlimit:4;stroke-opacity:1;stroke-dasharray:none" />
  <path
     d="m 194.92605,478.78782 c 5.11688,-3.78804 8.87387,-6.45335 13.65031,-10.62972 -1.6713,-15.74695 -25.01922,-15.80135 -26.31575,0.74806 3.43849,2.85743 8.27271,6.62084 12.66544,9.88166 z"
     id="path4659"
     style="fill:#ececec;stroke:none" />
  <path
     d="M 15.901212,0.97430679 0.95032151,1.0163682 0.99635555,6.6542741 C 7.1487342,10.064461 14.514706,6.2227906 15.901212,0.97430679 z"
     id="path4661"
     style="fill:#ececec;stroke:none" />
  <path
     d="m 94.898967,0.9845527 c -0.0024,13.6440423 19.671203,13.1618523 20.118623,-0.00238 l -20.118623,0.00238 z"
     id="path4663"
     style="fill:#ececec;stroke:none" />
  <path
     d="m 189.43561,1.0016308 c -0.002,12.6916642 19.68616,12.2480032 20.13358,0.00266 l -20.13358,-0.00266 z"
     id="path4663-5"
     style="fill:#ececec;stroke:none" />
  <path
     d="m 285.9787,1.0023083 c -0.002,12.6916627 19.68063,12.2410897 20.12805,-0.004253 l -20.12805,0.004253 z"
     id="path4663-6"
     style="fill:#ececec;stroke:none" />
  <path
     d="m 388.98582,1.0161184 0.0332,4.8476575 c -6.15235,3.4101872 -13.118,0.3366679 -14.5045,-4.91181599 l 14.4713,0.0641585 z"
     id="path4661-1"
     style="fill:#ececec;stroke:none" />
  <path
     d="m 68.014318,112.27696 a 14.114622,13.454288 0 1 1 -28.229244,0 14.114622,13.454288 0 1 1 28.229244,0 z"
     transform="matrix(0.97660819,0,0,1.006135,0.4163947,-1.9269383)"
     id="path3978"
     style="opacity:0.98999999;fill:#ececec;fill-opacity:1;fill-rule:evenodd;stroke:none" />
  <path
     d="m 68.014318,112.27696 a 14.114622,13.454288 0 1 1 -28.229244,0 14.114622,13.454288 0 1 1 28.229244,0 z"
     transform="matrix(0.97660819,0,0,1.006135,98.829103,-1.9269396)"
     id="path3978-5"
     style="opacity:0.98999999;fill:#ececec;fill-opacity:1;fill-rule:evenodd;stroke:none" />
  <path
     d="m 68.014318,112.27696 a 14.114622,13.454288 0 1 1 -28.229244,0 14.114622,13.454288 0 1 1 28.229244,0 z"
     transform="matrix(0.97660819,0,0,1.006135,194.99418,-1.9269396)"
     id="path3978-5-5"
     style="opacity:0.98999999;fill:#ececec;fill-opacity:1;fill-rule:evenodd;stroke:none" />
  <path
     d="m 68.014318,112.27696 a 14.114622,13.454288 0 1 1 -28.229244,0 14.114622,13.454288 0 1 1 28.229244,0 z"
     transform="matrix(0.97660819,0,0,1.006135,287.32435,-1.9269396)"
     id="path3978-5-5-1"
     style="opacity:0.98999999;fill:#ececec;fill-opacity:1;fill-rule:evenodd;stroke:none" />
  <path
     d="m 68.014318,112.27696 a 14.114622,13.454288 0 1 1 -28.229244,0 14.114622,13.454288 0 1 1 28.229244,0 z"
     transform="matrix(0.97660819,0,0,1.006135,48.172674,115.81753)"
     id="path3978-5-5-11"
     style="opacity:0.98999999;fill:#ececec;fill-opacity:1;fill-rule:evenodd;stroke:none" />
  <path
     d="m 68.014318,112.27696 a 14.114622,13.454288 0 1 1 -28.229244,0 14.114622,13.454288 0 1 1 28.229244,0 z"
     transform="matrix(0.97660819,0,0,1.006135,145.58132,116.44252)"
     id="path3978-5-5-2"
     style="opacity:0.98999999;fill:#ececec;fill-opacity:1;fill-rule:evenodd;stroke:none" />
  <path
     d="m 68.014318,112.27696 a 14.114622,13.454288 0 1 1 -28.229244,0 14.114622,13.454288 0 1 1 28.229244,0 z"
     transform="matrix(0.97660819,0,0,1.006135,239.53005,115.88003)"
     id="path3978-5-5-14"
     style="opacity:0.98999999;fill:#ececec;fill-opacity:1;fill-rule:evenodd;stroke:none" />
  <path
     d="m 68.014318,112.27696 a 14.114622,13.454288 0 1 1 -28.229244,0 14.114622,13.454288 0 1 1 28.229244,0 z"
     transform="matrix(0.97660819,0,0,1.006135,191.88005,232.86158)"
     id="path3978-5-5-3"
     style="opacity:0.98999999;fill:#ececec;fill-opacity:1;fill-rule:evenodd;stroke:none" />
  <path
     d="m 68.014318,112.27696 a 14.114622,13.454288 0 1 1 -28.229244,0 14.114622,13.454288 0 1 1 28.229244,0 z"
     transform="matrix(0.97660819,0,0,1.006135,95.371113,233.08012)"
     id="path3978-5-5-16"
     style="opacity:0.98999999;fill:#ececec;fill-opacity:1;fill-rule:evenodd;stroke:none" />
  <path
     d="m 21.269337,186.53328 -0.427523,0.95903 2.159398,9.30963 3.862268,-9.39205 -5.594143,-0.87661 z"
     id="path4833"
     style="fill:#ececec;stroke:none" />
  <path
     d="m 63.345288,313.47196 -0.04802,0.11101 c 1.021624,2.2729 2.134691,4.47838 3.224552,6.73179 l 2.409803,-6.00525 -5.586331,-0.83755 z"
     id="path4833-7"
     style="fill:#ececec;stroke:none" />
  <path
     d="m 121.41136,407.16119 -0.11225,0.25775 c 1.27831,1.66345 2.65479,3.32982 3.95106,4.86389 l 1.68798,-4.03086 -5.52679,-1.09078 z"
     id="path4833-7-9"
     style="fill:#ececec;stroke:none" />
  <path
     d="m 271.45173,403.82432 0.20227,0.4698 c -1.31822,1.69348 -2.91557,3.71426 -3.93666,4.91741 -0.54914,-1.32393 -1.13798,-2.6214 -1.63146,-3.98243 l 5.36585,-1.40478 z"
     id="path4833-7-9-5"
     style="fill:#ececec;stroke:none" />
  <path
     d="m 329.05327,309.99197 c -1.16017,2.47285 -2.13556,4.63434 -3.22258,6.84792 l -2.50924,-6.4091 5.26664,-1.65534 0.46518,1.21652 z"
     id="path4833-7-4"
     style="fill:#ececec;stroke:none" />
  <path
     d="m 370.64445,180.1821 0.42673,0.84794 -2.16081,9.8017 -3.24366,-8.28084 4.97774,-2.3688 z"
     id="path4833-3"
     style="fill:#ececec;stroke:none" />
</svg>
