<?xml version="1.0" encoding="UTF-8" standalone="no"?>
<!-- Created with Inkscape (http://www.inkscape.org/) -->

<svg
   xmlns:svg="http://www.w3.org/2000/svg"
   xmlns="http://www.w3.org/2000/svg"
   version="1.1"
   width="421"
   height="480"
   id="svg3056">
  <defs
     id="defs3060" />
  <path
     d="M 210.82868,478.38204 C 398.14372,298.78821 420.89883,101.21142 420.88236,0.15466972 L 0.67880875,0.39903407 C 0.85735737,100.98889 24.227063,298.9443 210.82868,478.38204 z"
     id="path2831"
     style="fill:#d61a1a;fill-opacity:1;stroke:none" />
  <path
     d="m 177.9085,310.45752 2.02614,-5.42484 c -10.99192,-3.82545 -21.6876,-8.44091 -32.15686,-13.66013 l -5.1634,6.47059 C 123.64286,285.20046 106.07526,270.52987 93.333333,248.88889 l 5.228759,-4.44445 c -5.937265,-11.52515 -10.0078,-22.63548 -12.810458,-33.46405 l -9.019608,1.30719 c -6.660667,-25.75689 -2.8551,-48.75706 1.830066,-68.23529 l 6.535947,3.79085 c 2.847018,-11.38335 8.272835,-21.79965 13.85621,-32.15687 l -6.27451,-6.40522 C 104.13923,90.347033 121.67956,73.499444 141.30719,61.307189 l 4.18301,6.27451 c 9.86734,-5.38579 20.0704,-9.988224 30.98039,-12.941177 l -0.13072,-8.366013 c 23.05011,-4.824915 46.10022,-4.67391 69.15033,0.261438 l -0.26144,7.581699 c 10.5671,2.97888 21.02228,6.965077 31.24183,13.071896 l 5.88235,-6.666667 c 20.51761,11.900695 37.72783,27.108773 49.54249,47.712415 l -5.4902,6.40523 c 6.13969,9.50302 10.53795,20.74745 14.24837,32.67974 l 7.45098,-1.83006 c 6.03046,23.33712 4.4714,45.93978 -0.26144,68.23529 l -7.71242,-1.56863 c -3.53607,12.05301 -8.46187,22.43834 -13.72549,32.4183 l 5.88235,4.70589 c -13.95402,19.45016 -29.98418,36.47816 -50.19608,48.62745 l -3.52941,-5.88236 c -11.15468,4.56085 -22.30937,8.54726 -33.46405,12.4183 l 0.39216,7.05883 c -23.73324,5.40314 -46.11223,4.34756 -67.5817,-1.04575 z"
     id="path2855"
     style="fill:#faf700;fill-opacity:1;stroke:none" />
  <path
     d="m 161.04575,134.64052 c 0.0345,-3.02799 8.88228,-3.67478 8.88889,0.13072 l 0.0654,37.64706 c 0.0154,8.86503 22.00794,26.96188 35.68627,39.54248 l -0.13071,-10.65359 c -11.47992,-12.23555 -29.91702,-27.87221 -30,-40.58824 l -0.26144,-40.06536 c -0.0191,-2.92304 8.78163,-3.72888 8.82353,0.19608 l 0.28471,26.67149 c 0.29535,8.02602 13.61751,17.26858 21.99887,24.21726 l 0.0924,-8.5962 -15.71349,-16.17565 0,-51.669633 c 0,-2.620998 7.76431,-3.119382 7.76431,0.09243 l 0,40.947493 7.48702,9.61296 0,-10.25999 c 0,-3.92927 13.17976,-4.03484 13.21781,0 l 0.0924,9.79782 6.83999,-8.87349 -0.0924,-40.577768 c -0.008,-3.584678 8.70128,-3.577965 8.68863,-0.09243 l -0.17676,48.696418 c 0.31732,5.9776 -9.82,12.93231 -15.25943,18.964 l 0.0924,8.22647 c 6.99618,-5.68239 23.6383,-14.39336 23.4778,-25.7886 l -0.36973,-26.25076 c -0.0644,-4.5715 6.99087,-5.45937 7.02485,0 l 0.2773,44.55235 c -0.7722,13.5271 -18.37481,25.52763 -29.94806,37.52749 l -0.27729,10.25998 c 11.14945,-10.21689 35.49399,-31.06407 35.49399,-41.59451 l 0,-33.73778 c 0,-5.23307 10.62971,-5.21696 10.62971,0.36973 l 0,63.68583 c 0,10.36438 -23.74104,28.72694 -41.59453,45.93883 -13.49134,13.00652 -1.62761,38.78644 14.69674,33.46048 28.79695,-9.39525 77.79846,-35.63837 79.76907,-102.96954 C 320.37322,117.17577 263.95579,76.033632 212.5942,75.516434 169.95397,75.087058 110.10789,108.27503 107.22142,176.82219 c -1.62484,38.58643 19.3167,82.43645 72.65176,100.93603 22.0259,7.63981 38.00137,-12.36619 19.04104,-32.53616 -13.86724,-14.75196 -39.20736,-33.63801 -38.63668,-43.2583 l 0.76821,-67.32324 z"
     id="path2857"
     style="fill:#d61a1a;fill-opacity:1;stroke:none" />
</svg>
