<?xml version="1.0" encoding="UTF-8" standalone="no"?>
<!-- Created with Inkscape (http://www.inkscape.org/) -->

<svg
   xmlns:svg="http://www.w3.org/2000/svg"
   xmlns="http://www.w3.org/2000/svg"
   version="1.1"
   width="200"
   height="240"
   id="svg2919">
  <defs
     id="defs2921" />
  <g
     transform="translate(-275,-412.36722)"
     id="layer1">
    <path
       d="m 275,412.37731 c 0,0 200,0 200,0 l 0,29.99874 c 0,157.48389 -100,209.99117 -100,209.99117 0,0 -100,-52.50728 -100,-209.99117 l 0,-29.99874 z"
       id="path2897"
       style="fill:#008000;fill-opacity:1;fill-rule:nonzero;stroke:none;stroke-width:3;marker:none;visibility:visible;display:block" />
    <path
       d="m 359.9879,412.36722 c 2,4.99979 4,10.03083 4,15.03062 0,9.99958 -8,19.99916 -8,29.99874 0,9.99958 8,19.99916 8,29.99874 0,9.99958 -8,19.99916 -8,29.99874 0,9.99958 8,19.99916 8,29.99874 0,9.99958 -8,19.99916 -8,29.99874 0,9.99958 8,19.99916 8,29.99874 0,9.99958 -8,19.99916 -8,29.99874 0,0.54185 0.049,1.08308 0.094,1.62493 11.169,9.25326 18.9062,13.34319 18.9062,13.34319 0,0 4.7463,-2.4518 12.125,-7.93717 -0.6729,-2.34365 -1.125,-4.6873 -1.125,-7.03095 0,-9.99958 8,-19.99916 8.0001,-29.99874 -2e-4,-9.99958 -8.0001,-19.99916 -8.0001,-29.99874 0,-9.99958 8,-19.99916 8.0001,-29.99874 -2e-4,-9.99958 -8.0001,-19.99916 -8.0001,-29.99874 0,-9.99958 8,-19.99916 8.0001,-29.99874 -2e-4,-9.99958 -8.0001,-19.99916 -8.0001,-29.99874 0,-9.99958 8,-19.98356 8.0001,-29.99874 0,-5.01539 -2.0001,-10.03083 -4.0001,-15.03062 l -30,0 z"
       id="path2899"
       style="fill:#cccccc;fill-opacity:1;fill-rule:nonzero;stroke:none" />
  </g>
</svg>
