<?xml version="1.0" encoding="UTF-8" standalone="no"?>
<!-- Created with Inkscape (http://www.inkscape.org/) -->

<svg
   xmlns:svg="http://www.w3.org/2000/svg"
   xmlns="http://www.w3.org/2000/svg"
   version="1.0"
   width="200"
   height="239.99994"
   id="svg1061">
  <defs
     id="defs1063" />
  <g
     transform="translate(-25.078465,-712.26798)"
     id="layer1">
    <path
       d="m 25.078465,712.26798 200.000005,0 0,29.99999 c 0,157.49043 -95.43031,209.99995 -100.00001,209.99995 -4.5696,0 -99.999995,-52.50952 -99.999995,-209.99995 l 0,-29.99999 z"
       id="path1015"
       style="fill:#ff0000;fill-opacity:1;fill-rule:nonzero;stroke:none;stroke-width:3;marker:none;visibility:visible;display:block" />
    <path
       d="m 165.24942,799.46743 -6.83187,6.83191 14.85153,16.1822 -48.19832,45.56378 -48.108993,-45.48339 14.851535,-16.1822 -6.83188,-6.83191 -19.3079,12.34206 -2.545228,-2.40231 -5.920956,5.92095 2.402339,2.54523 -9.238689,23.0364 19.91071,-11.74815 45.233372,47.84106 -29.667397,28.05094 11.44903,11.44899 27.782997,-29.38159 27.85445,29.46197 11.44902,-11.449 -29.74775,-28.12238 45.31373,-47.93038 16.1822,14.85153 6.8319,-6.83188 -12.34208,-19.3079 2.40234,-2.53628 -5.9299,-5.9299 -2.53629,2.40234 -19.3079,-12.34208 z"
       id="path1017"
       style="fill:#ffd215;fill-opacity:1;fill-rule:nonzero;stroke:none" />
    <path
       d="m 125.0797,723.92462 c -11.33677,0 -44.170614,4.02433 -44.170614,37.07083 0,36.90316 40.518014,37.49054 40.518014,37.49054 l 0,11.74369 -18.63811,-1.61641 4.05448,13.36905 12.96719,-2.2237 -3.24179,19.2454 17.02167,0 -3.2418,-19.2454 12.96719,2.2237 4.05448,-13.36905 -18.6381,1.61641 0,-11.74369 c 0,0 40.51801,-0.58738 40.51801,-37.49054 0,-33.0465 -32.83385,-37.07083 -44.17062,-37.07083 z m 0,9.3146 c 11.27789,0 29.17619,7.96513 29.17619,28.16703 0,22.62659 -18.43842,28.15812 -29.17619,28.15812 -10.73776,0 -29.176181,-5.53153 -29.176181,-28.15812 0,-20.2019 17.898301,-28.16703 29.176181,-28.16703 z"
       id="path1034"
       style="fill:#ffd215;fill-opacity:1;fill-rule:nonzero;stroke:none" />
  </g>
</svg>
