<?xml version="1.0" encoding="UTF-8" standalone="no"?>
<!-- Created with Inkscape (http://www.inkscape.org/) -->

<svg
   xmlns:svg="http://www.w3.org/2000/svg"
   xmlns="http://www.w3.org/2000/svg"
   version="1.1"
   width="390"
   height="480"
   id="svg4228">
  <defs
     id="defs4232" />
  <path
     d="M 0,0 C 130,0 260,0 390,0 389.98981,114.99797 370.78556,350.14732 194.88837,479.99815 20.79131,350.08886 0.081386,115.02225 0,0 z"
     id="path4240-0"
     style="fill:#d61a1a;fill-opacity:1;stroke:none" />
  <path
     d="m 152.0339,309.02542 c 7.0339,-2.54237 16.14523,-3.53855 21.10169,-7.62712 6.33607,-5.2266 8.22974,-16.21733 4.19492,-24.53389 -55.08359,-17.4367 -73.38983,-68.89831 -59.36441,-139.19492 -9.68669,-4.97407 -18.094778,-12.53623 -19.830507,-24.66102 -4.311717,-0.59278 -8.932798,-2.21599 -12.457627,-4.8305 15.607654,-22.699977 39.564274,-29.384862 53.771184,-13.983055 17.12054,18.560495 9.20216,40.421625 58.09322,59.364405 48.95505,18.96757 78.82135,76.83312 100.42373,138.30509 l -17.28813,8.51695 -31.39831,-26.94916 c -11.17616,0.16879 -18.34616,4.44006 -20.33898,5.33899 l -8.00848,38.77118 -21.10169,5.59322 3.30508,-6.10169 -8.51695,-0.38136 7.27755,-8.70763 -8.35806,-1.77966 16.84323,-6.54661 c -0.51526,-6.02193 -3.01597,-11.17522 -6.22882,-16.01695 -11.75821,10.6635 -21.31098,26.49949 -29.61864,39.27967 l -19.0678,5.72033 5.72034,-7.24576 -12.58474,-3.55932 8.77118,-5.08475 -5.33898,-3.68644 z"
     id="path2883"
     style="fill:#ececec;stroke:none" />
  <path
     d="m 115.36017,99.692798 c -2.60002,-0.427459 -3.8601,4.579052 -6.99152,1.048722 -0.62251,-6.22028 5.51255,-7.507475 8.64406,-6.324148 4.4477,1.680685 2.30036,5.925308 -1.65254,5.275426 z"
     id="path2885"
     style="fill:#d61a1a;fill-opacity:1;stroke:none" />
</svg>
