<?xml version="1.0" encoding="UTF-8" standalone="no"?>
<!-- Created with Inkscape (http://www.inkscape.org/) -->

<svg
 xmlns:dc="http://purl.org/dc/elements/1.1/"
 xmlns:cc="http://creativecommons.org/ns#"
 xmlns:rdf="http://www.w3.org/1999/02/22-rdf-syntax-ns#"
 xmlns:svg="http://www.w3.org/2000/svg"
 xmlns="http://www.w3.org/2000/svg"
 version="1.1"
 width="390"
 height="480"
 id="svg4228">
<metadata
 id="metadata16">
<rdf:RDF>
<cc:Work
 rdf:about="">
<dc:format>image/svg+xml</dc:format>
<dc:type
 rdf:resource="http://purl.org/dc/dcmitype/StillImage" />
<dc:title></dc:title>
</cc:Work>
</rdf:RDF>
</metadata>
<defs
 id="defs4232" />
<path
 d="M 0.00351796,0.00350638 390.01124,-0.03065059 C 389.99631,270.00335 389.99205,273.98676 389.99209,273.99895 390.99231,548.63218 0.01014203,548.63782 0.0068261,273.99819 L 0.00351796,0.00350638 z"
 id="path2902"
 style="fill:#d61a1a;fill-opacity:1;stroke:none" />
<path
 d="m 64.877047,354.48855 c -7.763358,0.32195 -15.855387,12.45201 -8.131728,16.26345 5.835041,2.87946 19.98211,2.92427 30.228815,0.70711 4.885553,-1.05713 8.467738,-5.95966 15.556346,-3.71231 7.76952,2.46323 21.06896,2.96142 21.92031,-2.2981 4.35514,-26.90554 -8.4794,-19.05264 -4.15685,-43.21625 l 6.27817,-35.09582 10.25305,19.79899 35.35534,-10.07628 -0.88388,49.3207 c -0.0476,2.65824 5.88644,11.1385 21.38998,6.36396 3.41355,5.38496 5.77596,15.94378 10.25305,16.08668 31.84296,1.01636 63.29595,-0.49779 97.0504,-6.36396 6.80656,13.44713 24.40136,17.5806 22.27386,23.5113 -2.75403,7.67724 7.43585,25.13288 13.25826,4.06587 3.83101,-13.86157 1.63924,-14.08455 -2.98376,-23.55052 -3.20966,-6.57204 1.29766,-20.09582 -0.70711,-28.99138 -0.7833,-3.47565 -8.18215,-16.34462 -27.42183,1.80698 l -56.03821,-1.23743 c 3.02443,-1.40407 6.53888,-3.67322 7.07106,-8.30851 -2.47572,-2.3567 -7.48442,-3.85615 -7.42462,-7.07107 1.02273,-54.98474 -7.33456,-109.9551 4.06587,-164.93265 9.91658,-4.3549 33.22128,5.27948 31.64303,-2.65165 -0.59237,-2.97681 0.21512,-6.09275 0,-10.42983 18.76748,0.2078 58.30985,11.19036 58.51308,-10.42982 0.23347,-24.83673 5.18353,-52.311529 -1.23744,-76.721087 -2.52397,-9.594952 -12.33735,-13.707749 -19.79899,-19.26866 -4.86624,-3.626649 -13.48822,-4.211228 -16.97056,1.414214 -4.4921,7.256633 -19.98694,17.989147 -12.55114,24.57196 1.82403,1.614789 2.76807,0.06899 4.83782,1.363458 1.68922,1.056478 1.86776,3.698885 3.66719,4.607896 0.9774,0.493752 4.50987,0.416923 6.16507,0.757735 2.5155,0.517953 3.35758,2.189843 5.30568,1.932969 3.81137,-0.502563 4.68026,-3.280876 6.54074,-4.419417 1.00053,15.850776 -1.75006,31.076366 -3.35876,46.492272 l -32.17336,1.94454 c -2.19964,0.13294 -1.1151,-3.93639 -3.88908,-4.06586 -12.86569,-0.6005 -38.59863,6.25648 -38.62571,-1.01647 l -0.0442,-11.866129 c -3.05673,5.623739 -8.96667,1.822139 -7.99915,-1.922452 -6.27253,4.041371 -8.22381,-2.613487 -7.68979,-4.728776 -6.14766,3.814054 -9.57719,-0.07871 -7.99286,-4.913136 0.85714,-5.050294 2.4209,-7.499485 2.33601,-17.360727 2.54853,9.501747 -4.8668,20.158908 -0.53033,22.494834 2.56157,1.379841 5.57002,0.172941 7.68979,-2.784233 -0.79807,2.352123 -1.36494,5.339368 0.92808,7.380427 3.15547,1.323732 5.06643,-0.423374 6.67331,-3.049398 -1.15594,2.053033 -1.69251,6.54538 2.3423,7.00478 2.12744,0.24222 2.96068,-1.20581 3.93328,-3.204081 6.54676,5.957911 16.21649,-8.504739 7.46881,-8.374796 -4.04175,0.06004 -13.24447,1.27624 -14.76085,-4.176349 -1.96085,-7.050813 -3.27304,-11.664484 -5.78944,-16.882175 -1.6548,-3.431171 -23.19378,-6.440306 -25.19068,-2.828427 -1.2605,2.279913 -2.1511,5.492737 -3.25977,9.792845 -0.7225,2.802323 -2.3169,5.948038 -3.10419,8.415155 -1.12381,3.521684 1.89007,1.92965 4.41942,1.679379 0.0621,2.414467 0.0172,5.160715 -0.45673,7.567926 -0.16728,0.849725 3.52001,0.470572 4.86739,0.538175 0.87281,0.04379 0.54326,0.629245 -0.0644,0.666293 -1.62697,0.09919 -5.03094,-0.18992 -4.90286,0.803919 0.24656,1.913339 -1.25566,3.704046 -1.296,5.227366 -0.0701,2.64615 1.83462,4.69194 5.21143,4.81857 l 7.07106,0.26517 c -0.0295,2.74004 2.71569,7.62272 -0.0884,8.22011 -5.51577,1.17509 -6.45526,-3.08434 -11.84404,-2.74003 -13.59829,0.86884 -37.06144,-2.04854 -43.57546,2.03292 -4.61424,2.89113 -5.37598,1.44434 -11.66726,1.76778 -6.21932,0.31974 -8.80408,-4.96126 -20.32932,-4.15426 -24.663666,-0.44812 -58.191923,1.01978 -68.676989,1.59776 -4.777248,0.26334 -7.01739,-3.5526 -9.811864,-5.92879 -2.346746,-1.92015 -6.65531,0.90429 -5.480078,4.15426 1.730478,4.78543 -2.589083,7.96484 -8.043339,6.0104 -3.942008,-1.41255 -10.295289,-5.93559 -12.197592,-3.0052 -3.523319,5.42747 -2.372278,8.55279 5.767834,8.6664 0.237147,0.003 0.44707,0.14818 0.19838,0.17243 -3.187828,0.31092 -7.041223,-1.49699 -7.203651,2.82843 -0.193772,5.16009 4.865887,5.24349 8.6953,5.12344 0.510176,-0.016 0.37765,0.43309 0.05515,0.44505 -3.601689,0.13355 -8.221092,-1.71169 -8.087534,3.18199 0.08569,3.13958 0.900814,4.61526 7.424622,4.11006 0.624662,-0.0484 0.907226,0.14829 0.09659,0.41185 -1.103655,0.35875 -3.59721,0.0635 -4.751558,0.34519 -2.448902,0.59761 -1.509134,8.15656 4.875986,7.59565 5.613347,-0.49312 10.537701,1.32114 16.351864,-2.56326 4.952921,-3.30903 6.347683,-10.21764 13.215359,-9.37176 34.334887,4.22891 37.870481,10.6272 57.06527,9.64386 3.89719,-0.19965 5.97502,-0.31705 15.5,-0.75 l 22,-1 c -0.6134,1.28255 -1.24495,10.5379 2.25,15.75 9.57003,0.29293 19,-4.37183 19,6.75 l 0,67.5 -67.25,0 -0.25,7.125 c -5.280336,0.0835 -8.19746,4.22355 -8.249999,9.5 L 94.125,337.5 c -9.749318,5.66285 -18.945712,16.56132 -29.247953,16.98855 z"
 id="path3824"
 style="fill:#faf700;fill-opacity:1;stroke:none" />
<path
 d="m 194.25,71.500001 c -1.65203,1.606143 -5.95424,-1.577099 -4.875,-3.5 9.65935,-17.210223 24.47796,-34.339836 40.3125,-49.125 12.85127,18.391359 23.19787,44.262475 24.6875,70.5 -4.84526,0.631306 -12.85891,0.864367 -16.5,0.25 -0.0673,-0.01135 -0.13348,-0.02352 -0.19882,-0.03588 -4.64291,-0.878404 -4.64047,-4.029319 -5.90473,-8.233731 -1.24514,-4.140827 -2.46348,-8.253289 -4.69953,-12.309359 -1.92133,-3.48519 -22.08875,-7.981061 -28.32192,-1.92103 z"
 id="path3826"
 style="fill:#faf700;fill-opacity:1;stroke:none" />
<path
 d="m 72.777728,138.79289 7.795495,1.56694 L 79.875,228.125 c -0.0395,4.96456 2.749286,3.48702 1.375,13.625 3.997045,5.32901 0.693639,14.9399 -6.5,12.625 -4.067672,-1.30897 -0.648859,-7.0676 -1.125,-15.25 C 47.459611,219.40047 19,181.5 24.375,148 l 12.25,-0.25 c 2.35,38.5142 20.646413,60.9451 35.05795,75.57024 z"
 id="path3828"
 style="fill:#faf700;fill-opacity:1;stroke:none" />
<path
 d="M 80.035626,110.93573 79.375,27.89641 c -0.0395,-4.96456 2.749286,-3.48702 1.375,-13.625 3.997045,-5.32901 0.693639,-14.93989948 -6.5,-12.6249995 -4.067672,1.30897 -0.648859,7.0675995 -1.125,15.2499995 -26.165389,19.72453 -57.3125,62.0625 -51.9375,95.5625 8.111015,1.89448 8.924262,5.93806 15.557952,3.51394 L 36.125,108.27141 c 2.35,-38.5142 20.646413,-60.9451 35.05795,-75.57024 l 1.016524,78.48537 c 2.730079,-0.0771 6.323876,-0.22507 7.836152,-0.25081 z"
 id="path3828-7"
 style="fill:#faf700;fill-opacity:1;stroke:none" />
<path
 d="m 204.10715,72.016611 4.90265,-0.01993"
 id="path3850"
 style="fill:none;stroke:#d61a1a;stroke-width:0.63133055;stroke-linecap:round;stroke-linejoin:miter;stroke-miterlimit:4;stroke-opacity:1;stroke-dasharray:none" />
<path
 d="m 206.09953,74.573698 c -1.14004,0.250093 -2.0208,0.973597 -1.37002,2.728991 0.66348,1.78965 1.13006,2.192767 2.85052,0.68501 1.04492,-0.915735 1.56317,-3.986913 -1.4805,-3.414001 z"
 id="path3852"
 style="fill:#d61a1a;fill-opacity:1;stroke:none" />
<path
 d="m 304.01172,58.696942 c -2.4124,1.141584 3.57955,8.165532 5.17072,6.010407 l 3.49134,-4.728776 c 1.18964,-1.611288 -2.64014,-4.131288 -3.71231,-3.623922 z"
 id="path3854"
 style="fill:#d61a1a;fill-opacity:1;stroke:none" />
</svg>
