<?xml version="1.0" encoding="UTF-8" standalone="no"?>
<!-- Created with Inkscape (http://www.inkscape.org/) -->

<svg
   xmlns:svg="http://www.w3.org/2000/svg"
   xmlns="http://www.w3.org/2000/svg"
   version="1.0"
   width="200"
   height="240"
   id="svg1116">
  <defs
     id="defs1118" />
  <g
     transform="translate(-275,-412.36218)"
     id="layer1">
    <path
       d="m 275,412.36218 0,30 c 0,37.31467 5.45092,68.55534 13.6875,94.78125 l 0,-73.40625 12.34375,-12.34375 12.3125,12.3125 0,73.9375 12.34375,12.34375 12.3125,-12.3125 0,-73.90625 12.34375,-12.34375 12.3125,12.3125 0,73.90625 12.34375,12.34375 12.3125,-12.3125 0,-73.90625 12.34375,-12.34375 12.3125,12.3125 0,73.9375 12.34375,12.34375 12.3125,-12.34375 0,-73.90625 12.34375,-12.34375 12.3125,12.3125 0,73.4375 C 469.52311,510.94279 475,479.69094 475,442.36218 l 0,-30 -200,0 z"
       id="path223"
       style="fill:#59a0e0;fill-opacity:1;fill-rule:nonzero;stroke:none;stroke-width:3;marker:none;visibility:visible;display:block" />
    <path
       d="m 461.28125,537.17468 0,-73.4375 -12.3125,-12.3125 -12.34375,12.34375 0,73.90625 -12.3125,12.34375 -12.34375,-12.34375 0,-73.9375 -12.3125,-12.3125 -12.34375,12.34375 0,73.90625 -12.3125,12.3125 -12.34375,-12.34375 0,-73.90625 -12.3125,-12.3125 L 338,463.76843 l 0,73.90625 -12.3125,12.3125 -12.34375,-12.34375 0,-73.9375 -12.3125,-12.3125 -12.34375,12.34375 0,73.40625 c 0.27935,0.88947 0.49537,1.87246 0.78125,2.75 0.61105,1.87573 1.26676,3.64711 1.90625,5.46875 1.54914,4.41264 3.17795,8.71193 4.875,12.8125 0.65192,1.57468 1.29776,3.15808 1.96875,4.6875 2.07942,4.74091 4.23602,9.27924 6.46875,13.59375 0.33717,0.65142 0.65993,1.35814 1,2 2.58491,4.87945 5.25494,9.44299 7.96875,13.78125 0.73799,1.17994 1.47444,2.26543 2.21875,3.40625 2.04976,3.14106 4.10948,6.18131 6.1875,9.03125 0.85334,1.17018 1.70781,2.31544 2.5625,3.4375 2.17751,2.85888 4.36795,5.57206 6.53125,8.125 0.59755,0.70483 1.18639,1.47431 1.78125,2.15625 2.63944,3.02721 5.23189,5.81925 7.78125,8.40625 3.96355,4.02196 7.72249,7.3954 11.28125,10.40625 0.88879,0.75184 1.73912,1.465 2.59375,2.15625 3.31669,2.68065 6.51743,5.10215 9.1875,6.90625 2.60733,1.76171 4.61144,2.92522 6.40625,3.90625 2.3377,1.26431 4.32399,2.1875 4.8125,2.1875 0.5011,0 2.46564,-0.91798 4.90625,-2.25 1.76371,-0.96824 3.71367,-2.10089 6.25,-3.8125 0.0663,-0.0448 0.15195,-0.11096 0.21875,-0.15625 2.71759,-1.84311 5.90513,-4.25537 9.28125,-7 0.67186,-0.54583 1.33843,-1.10454 2.03125,-1.6875 3.6924,-3.11166 7.61748,-6.63499 11.75,-10.84375 0.01,-0.01 0.0214,-0.0212 0.0312,-0.0312 2.37998,-2.4224 4.79124,-5.03873 7.25,-7.84375 0.96126,-1.09729 1.93818,-2.31147 2.90625,-3.46875 1.76503,-2.10899 3.53862,-4.31283 5.3125,-6.625 1.1259,-1.46882 2.25142,-2.97887 3.375,-4.53125 1.83373,-2.53167 3.65712,-5.21016 5.46875,-7.96875 0.86277,-1.31477 1.73932,-2.57029 2.59375,-3.9375 2.62766,-4.20233 5.21111,-8.63419 7.71875,-13.34375 0.6513,-1.22394 1.23445,-2.58482 1.875,-3.84375 1.89323,-3.71916 3.75069,-7.56385 5.53125,-11.59375 0.84746,-1.91882 1.65152,-3.91567 2.46875,-5.90625 1.57516,-3.83597 3.08493,-7.83039 4.53125,-11.9375 0.6701,-1.90329 1.36096,-3.75628 2,-5.71875 0.2797,-0.85889 0.50781,-1.81719 0.78125,-2.6875 z"
       id="path287"
       style="fill:#cccccc;fill-opacity:1;fill-rule:nonzero;stroke:none;stroke-width:3;marker:none;visibility:visible;display:block" />
  </g>
</svg>
