<?xml version="1.0" encoding="UTF-8" standalone="no"?>
<!-- Created with Inkscape (http://www.inkscape.org/) -->
<svg
   xmlns:svg="http://www.w3.org/2000/svg"
   xmlns="http://www.w3.org/2000/svg"
   version="1.0"
   width="200"
   height="242.58475"
   id="svg2554">
  <defs
     id="defs2556" />
  <g
     transform="translate(-275,-411.06981)"
     id="layer1">
    <path
       d="M 474.99989,411.06981 C 475.17285,411.06981 275.75668,411.06981 275,411.06981 L 275,441.36641 C 275,600.10583 372.82721,653.65456 375.01077,653.65456 C 379.57241,653.65456 474.99989,600.95329 474.99989,441.36641 L 474.99989,411.06981 z"
       id="path2122"
       style="fill:#66bc46;fill-opacity:1;fill-rule:nonzero;stroke:none;stroke-width:0.0001402;stroke-linecap:round;stroke-linejoin:bevel;marker:none;marker-start:none;marker-mid:none;marker-end:none;stroke-miterlimit:4;stroke-dasharray:none;stroke-dashoffset:0;stroke-opacity:1;visibility:visible;display:block" />
    <path
       d="M 374.96816,420.55252 C 367.1191,423.07716 360.29196,429.92452 360.29196,440.36539 C 360.29193,458.66712 372.03279,473.78528 374.96816,488.58717 C 377.90353,473.78528 389.64439,458.66712 389.64435,440.36539 C 389.64435,429.92452 382.81723,423.07716 374.96816,420.55252 z M 371.6136,488.58717 C 367.83962,477.93651 360.67509,466.36912 350.22829,460.91206 C 341.43592,456.31927 328.11349,458.53542 320.87589,465.21009 C 313.01807,472.45677 309.72453,485.68511 314.16678,496.13493 C 318.73582,506.8829 332.48898,515.22918 343.41434,509.97249 C 340.55364,508.33634 332.26063,498.01946 336.39073,490.99826 C 339.76344,485.26475 345.20094,481.5636 351.90557,481.56356 C 357.36125,481.5636 361.59531,486.95571 364.06584,490.99826 C 366.20793,494.50347 367.4204,502.63439 367.4204,502.63439 C 364.45846,504.92408 362.49339,508.45499 362.49339,512.4884 C 362.49339,516.52183 364.45846,520.05274 367.4204,522.34243 L 367.4204,617.42321 C 364.45846,619.7129 362.49339,623.24381 362.49339,627.27723 C 362.49339,634.19167 368.05371,639.75199 374.96816,639.75199 C 381.88261,639.75199 387.54776,634.19167 387.54776,627.27723 C 387.54776,623.19185 385.54337,619.60357 382.51592,617.31838 L 382.51592,522.44725 C 385.54337,520.16209 387.54776,516.57376 387.54776,512.4884 C 387.54776,508.42664 385.51355,504.92176 382.51592,502.63439 C 382.51592,502.63439 383.72839,494.50347 385.87047,490.99826 C 388.34101,486.95571 392.57506,481.5636 398.03076,481.56356 C 404.73537,481.5636 410.17292,485.26475 413.54559,490.99826 C 417.67569,498.01946 409.48751,508.33634 406.62681,509.97249 C 417.55217,515.22918 431.20054,506.8829 435.76954,496.13493 C 440.21178,485.68511 436.91824,472.45677 429.06042,465.21009 C 421.82283,458.53542 408.5003,456.31927 399.70803,460.91206 C 389.26124,466.36912 382.0967,477.93651 378.32272,488.58717 C 376.08634,488.58721 373.84999,488.58717 371.6136,488.58717 z"
       id="path6991"
       style="font-style:normal;font-variant:normal;font-weight:normal;font-stretch:normal;letter-spacing:normal;word-spacing:normal;text-anchor:start;fill:#ffe400;fill-opacity:1;fill-rule:nonzero;stroke:none;stroke-width:0;stroke-linecap:butt;stroke-linejoin:miter;stroke-miterlimit:10.43299961;stroke-dasharray:none;stroke-dashoffset:0;stroke-opacity:1" />
  </g>
</svg>
