<?xml version="1.0" encoding="UTF-8" standalone="no"?>
<!-- Created with Inkscape (http://www.inkscape.org/) -->
<svg
   xmlns:svg="http://www.w3.org/2000/svg"
   xmlns="http://www.w3.org/2000/svg"
   version="1.0"
   width="200.00003"
   height="240"
   id="svg3300">
  <defs
     id="defs3302">
  
  
  
  
  
  
  
  
  
  
 </defs>
  <path
     d="M 0,0 C 0,0 200.00003,0 200.00003,0 L 200.00003,29.999997 C 200.00003,187.49047 100,240 100,240 C 100,240 0,187.49047 0,29.999997 L 0,0 z"
     id="path2122"
     style="opacity:1;fill:#59a0e0;fill-opacity:1;fill-rule:nonzero;stroke:none;stroke-width:3;stroke-linecap:round;stroke-linejoin:bevel;marker:none;marker-start:none;marker-mid:none;marker-end:none;stroke-miterlimit:4;stroke-dasharray:none;stroke-dashoffset:0;stroke-opacity:1;visibility:visible;display:block" />
  <path
     d="M 99.5,43.25 C 93.599051,43.250001 79.750003,46.132537 95.375,66.96875 C 75.959444,51.918733 70.803586,62.035669 70.78125,70.71875 C 70.758897,79.401817 76.704245,90.528688 96.5,73.59375 C 97.536813,115.51168 62.198055,142.0895 29.96875,162.5 C 59.427999,218.68333 100,240 100,240 C 100,240 140.48527,218.7182 169.9375,162.65625 C 136.2173,142.95099 101.47665,115.54365 102.34375,73.46875 C 122.5422,91.769996 129.52842,77.587462 129.1875,70.125 C 128.8466,62.662543 122.80378,51.604315 103.625,66.84375 C 117.87656,45.723414 105.40094,43.25 99.5,43.25 z"
     id="path2652"
     style="opacity:1;fill:#cccccc;fill-opacity:1;fill-rule:evenodd;stroke:none;stroke-width:1px;stroke-linecap:butt;stroke-linejoin:miter;stroke-opacity:1" />
</svg>
