<?xml version="1.0" encoding="UTF-8" standalone="no"?>
<!-- Created with Inkscape (http://www.inkscape.org/) -->
<svg
   xmlns:svg="http://www.w3.org/2000/svg"
   xmlns="http://www.w3.org/2000/svg"
   version="1.0"
   width="400"
   height="486.05579"
   id="svg2">
  <defs
     id="defs4" />
  <g
     transform="translate(-193.92856,-311.83429)"
     id="g6199">
    <g
       id="layer4"
       style="display:inline">
      <path
         d="M 193.92856,311.83429 L 593.92856,311.83429 C 593.92856,350.10143 588.76373,436.55391 563.05208,531.1057 C 536.69086,628.04623 481.31236,725.11451 393.92856,797.89008 C 301.23268,724.58331 247.65044,628.52343 223.67624,531.22341 C 200.24748,436.13707 193.92856,349.59826 193.92856,311.83429 z"
         id="path2624"
         style="opacity:1;fill:#fe0f05;fill-opacity:1;fill-rule:evenodd;stroke:none;stroke-width:1px;stroke-linecap:butt;stroke-linejoin:miter;stroke-opacity:1" />
      <path
         d="M 394.22571,732.54437 C 412.87866,708.53841 437.62281,685.29136 462.77319,667.21568 C 434.641,633.93008 416.66429,572.61734 416.66429,538.64994 C 457.32996,538.64994 478.02199,558.00552 505.81436,577.97265 C 520.19525,553.40743 541.83632,531.22341 558.40733,518.47729 C 541.83635,502.1851 520.2019,479.67878 506.34889,456.00717 C 493.03701,469.18915 457.32851,496.07358 416.66429,496.07357 C 416.7431,468.79483 433.08948,422.56723 458.68289,386.03041 C 434.33383,366.83748 413.13531,346.16041 394.22571,322.97928 C 375.31612,346.16041 354.1176,366.83748 329.76854,386.03041 C 355.36195,422.56723 371.70832,468.79483 371.78713,496.07357 C 331.12292,496.07358 295.41441,469.18915 282.10253,456.00717 C 268.24953,479.67878 246.61508,502.1851 230.0441,518.47729 C 246.61508,531.22341 268.25617,553.40743 282.63706,577.97265 C 310.42942,558.00552 331.12146,538.64994 371.78713,538.64994 C 371.78714,572.61734 353.81043,633.93008 325.67823,667.21568 C 350.82862,685.29136 375.57277,708.53841 394.22571,732.54437 z"
         id="path3459"
         style="fill:#fefe21;fill-opacity:1;fill-rule:evenodd;stroke:none;stroke-width:1px;stroke-linecap:butt;stroke-linejoin:miter;stroke-opacity:1" />
    </g>
  </g>
</svg>
