<?xml version="1.0" encoding="UTF-8" standalone="no"?>
<!-- Created with Inkscape (http://www.inkscape.org/) -->
<svg
   xmlns:svg="http://www.w3.org/2000/svg"
   xmlns="http://www.w3.org/2000/svg"
   version="1.0"
   width="200.00002"
   height="240.0014"
   id="svg2557">
  <defs
     id="defs2559" />
  <g
     transform="translate(-274.99999,-412.36148)"
     id="layer1">
    <path
       d="M 274.99999,412.36148 C 274.99999,412.36148 475.00001,412.36148 475.00001,412.36148 L 475.00001,442.36148 C 475.00001,599.85195 374.99999,652.36148 374.99999,652.36148 C 374.99999,652.36148 274.99999,599.85195 274.99999,442.36148 L 274.99999,412.36148 z"
       id="path2523"
       style="opacity:1;fill:#cccccc;fill-opacity:1;fill-rule:nonzero;stroke:none;stroke-width:3;stroke-linecap:round;stroke-linejoin:bevel;marker:none;marker-start:none;marker-mid:none;marker-end:none;stroke-miterlimit:4;stroke-dasharray:none;stroke-dashoffset:0;stroke-opacity:1;visibility:visible;display:block" />
    <path
       d="M 324.99374,412.36289 C 324.99374,412.36289 295.43125,554.30039 295.43125,554.30039 C 324.67845,625.90366 374.99375,652.36289 374.99374,652.36289 C 374.99374,652.36287 324.99374,412.36289 324.99374,412.36289 z M 374.99374,652.36289 C 374.99374,652.36289 425.30705,625.90992 454.55625,554.33164 C 454.55625,554.33164 424.99374,412.36289 424.99374,412.36289 C 424.99374,412.36289 374.99378,652.36291 374.99374,652.36289 z"
       id="path2525"
       style="opacity:1;fill:#008000;fill-opacity:1;fill-rule:nonzero;stroke:none;stroke-width:3;stroke-linecap:round;stroke-linejoin:bevel;marker:none;marker-start:none;marker-mid:none;marker-end:none;stroke-miterlimit:4;stroke-dasharray:none;stroke-dashoffset:0;stroke-opacity:1;visibility:visible;display:block" />
  </g>
</svg>
