<?xml version="1.0" encoding="UTF-8" standalone="no"?>
<!-- Created with Inkscape (http://www.inkscape.org/) -->
<svg
   xmlns:dc="http://purl.org/dc/elements/1.1/"
   xmlns:cc="http://creativecommons.org/ns#"
   xmlns:rdf="http://www.w3.org/1999/02/22-rdf-syntax-ns#"
   xmlns:svg="http://www.w3.org/2000/svg"
   xmlns="http://www.w3.org/2000/svg"
   xmlns:sodipodi="http://sodipodi.sourceforge.net/DTD/sodipodi-0.dtd"
   xmlns:inkscape="http://www.inkscape.org/namespaces/inkscape"
   width="200.00011"
   height="239.99997"
   id="svg2524"
   sodipodi:version="0.32"
   inkscape:version="0.46"
   version="1.0"
   sodipodi:docname="Namskogan.svg"
   inkscape:output_extension="org.inkscape.output.svg.inkscape">
  <defs
     id="defs2526">
    <inkscape:perspective
       sodipodi:type="inkscape:persp3d"
       inkscape:vp_x="0 : 526.18109 : 1"
       inkscape:vp_y="0 : 1000 : 0"
       inkscape:vp_z="744.09448 : 526.18109 : 1"
       inkscape:persp3d-origin="372.04724 : 350.78739 : 1"
       id="perspective2532" />
  </defs>
  <sodipodi:namedview
     id="base"
     pagecolor="#ffffff"
     bordercolor="#666666"
     borderopacity="1.0"
     gridtolerance="10000"
     guidetolerance="10"
     objecttolerance="10"
     inkscape:pageopacity="0.0"
     inkscape:pageshadow="2"
     inkscape:zoom="3.2000004"
     inkscape:cx="100.00005"
     inkscape:cy="119.99998"
     inkscape:document-units="px"
     inkscape:current-layer="layer1"
     showgrid="false"
     inkscape:window-width="1680"
     inkscape:window-height="978"
     inkscape:window-x="0"
     inkscape:window-y="51" />
  <metadata
     id="metadata2529">
    <rdf:RDF>
      <cc:Work
         rdf:about="">
        <dc:format>image/svg+xml</dc:format>
        <dc:type
           rdf:resource="http://purl.org/dc/dcmitype/StillImage" />
      </cc:Work>
    </rdf:RDF>
  </metadata>
  <g
     inkscape:label="Layer 1"
     inkscape:groupmode="layer"
     id="layer1"
     transform="translate(-274.99995,-412.3622)">
    <path
       d="M 274.99995,412.3622 C 274.99995,412.3622 475.00005,412.3622 475.00005,412.3622 L 475.00005,442.36219 C 475.00005,599.85267 374.99995,652.36217 374.99995,652.36217 C 374.99995,652.36217 274.99995,599.85267 274.99995,442.36219 L 274.99995,412.3622 z"
       id="path2811"
       style="opacity:1;fill:#000000;fill-opacity:1;fill-rule:nonzero;stroke:none;stroke-width:3;stroke-linecap:round;stroke-linejoin:bevel;marker:none;marker-start:none;marker-mid:none;marker-end:none;stroke-miterlimit:4;stroke-dasharray:none;stroke-dashoffset:0;stroke-opacity:1;visibility:visible;display:block"
       sodipodi:nodetypes="cccccc" />
    <path
       id="path2813"
       d="M 346.89175,600.94776 C 347.11365,595.56018 347.02745,594.69117 346.04405,592.40523 C 344.62745,589.11231 342.50085,587.0848 335.48975,582.34262 C 328.85025,577.8517 328.18255,576.6494 332.07935,576.20112 C 334.76285,575.89242 336.01765,575.03697 335.99515,573.53159 C 335.97115,571.91832 335.15635,571.13242 330.26105,568.00059 C 327.78605,566.41715 324.78625,564.187 323.59485,563.04471 C 321.57045,561.10385 319.51105,557.92333 319.51105,556.73773 C 319.51105,555.72217 321.31155,556.24281 323.95435,558.02255 C 328.46305,561.05887 331.85285,562.33745 336.01105,562.57008 C 339.17795,562.74726 340.01825,562.61795 341.41515,561.73851 C 343.39655,560.49109 344.99115,557.24217 344.98375,554.46781 C 344.96625,547.89412 338.61285,538.76706 330.19915,533.22864 C 326.69645,530.92288 324.97715,530.12385 315.51105,526.40215 C 308.16905,523.51556 303.78395,520.61807 302.21645,517.61764 C 301.21055,515.69206 301.33275,515.50499 302.82855,516.68152 C 304.46535,517.96909 307.07495,518.02851 308.18355,516.80344 C 309.27895,515.59306 309.27085,511.39558 308.16765,508.60293 C 307.70375,507.42861 306.02935,504.10531 304.44675,501.21781 C 302.86405,498.33031 301.40675,495.29896 301.20805,494.48148 L 300.84675,492.99516 L 302.16135,493.85648 C 303.67925,494.85106 306.53565,494.99325 307.41105,494.11781 C 308.34875,493.18013 308.11315,490.14145 306.95565,488.24259 C 306.37715,487.29371 303.95185,484.59371 301.56605,482.24259 C 296.83515,477.58042 293.19595,473.03993 292.93015,471.46781 C 292.79385,470.66185 293.05215,470.45663 294.26105,470.41017 C 295.08605,470.37847 296.25005,470.32221 296.84775,470.28517 C 298.53185,470.18078 300.85165,467.91866 301.78745,465.46823 C 302.58615,463.37695 302.58565,463.09274 301.77865,460.60745 C 300.64725,457.12342 296.39775,448.73232 293.90755,445.06531 C 292.81525,443.45679 292.04255,442.01971 292.19045,441.87179 C 292.33845,441.72386 293.87725,442.38578 295.61025,443.34271 C 299.43715,445.45589 300.87875,445.83075 303.54135,445.40498 C 306.50285,444.93142 306.88705,443.13168 305.20885,437.59281 C 304.82755,436.33447 305.71915,436.47684 310.63585,438.45939 C 316.31875,440.75096 318.78645,441.27553 321.26425,440.71874 C 324.81325,439.92125 327.99905,435.41908 328.00825,431.18838 C 328.00985,430.4847 328.31915,429.48763 328.69565,428.9727 C 329.94085,427.26992 334.06105,429.87687 341.63725,437.16101 C 349.18615,444.41891 350.21975,445.21781 352.06115,445.21781 C 353.80375,445.21781 354.68665,444.0787 354.60605,441.93433 C 354.52055,439.65834 352.78945,436.81655 348.70145,432.24103 C 346.87005,430.19128 345.61135,428.4344 345.90405,428.33681 C 346.77975,428.04492 350.07675,429.98266 353.07965,432.55416 C 360.02425,438.50114 363.77215,445.08457 365.83955,454.96781 C 367.02785,460.64872 367.30945,478.89229 366.29845,484.69826 C 364.64005,494.22225 361.00585,502.66878 353.24505,515.03652 C 345.88585,526.76441 344.35925,530.4778 345.48945,533.90224 C 346.53775,537.07869 351.09465,540.20426 354.69295,540.21502 C 355.20555,540.21654 356.49925,539.72639 357.56795,539.12577 C 359.56435,538.00372 361.51105,534.90579 361.51105,532.85084 C 361.51105,530.96578 362.08365,530.23645 363.93745,529.76004 C 366.31845,529.14817 383.72155,529.15267 386.10595,529.76576 C 387.99385,530.25119 388.18385,530.54459 388.73735,533.82809 C 389.10055,535.98309 390.97645,538.41568 393.13645,539.53267 C 397.65565,541.86963 405.01105,536.83731 405.01105,531.4085 C 405.01105,529.34957 401.95085,523.24315 396.87795,515.17982 C 385.99355,497.87878 383.01105,488.62824 383.01105,472.16951 C 383.01105,451.83904 386.71205,441.31493 396.94255,432.55416 C 399.94975,429.97894 403.24265,428.045 404.12135,428.33792 C 404.41595,428.43611 403.35615,429.96801 401.76625,431.74214 C 400.17635,433.51626 398.11315,436.10914 397.18135,437.5041 C 394.51105,441.50195 394.88665,445.21781 397.96105,445.21781 C 399.80245,445.21781 400.83605,444.41892 408.38495,437.16101 C 415.96105,429.87686 420.08135,427.26991 421.32645,428.9727 C 421.70295,429.48764 422.01235,430.48469 422.01385,431.18838 C 422.02305,435.41909 425.20895,439.92124 428.75785,440.71874 C 431.23565,441.27554 433.70335,440.75096 439.38635,438.45939 C 444.30535,436.47589 445.20015,436.3327 444.80195,437.59281 C 444.09325,439.83517 443.70915,443.13721 444.04995,444.0584 C 444.31095,444.76401 445.05615,445.17716 446.47765,445.40447 C 449.14355,445.83077 450.58405,445.45643 454.41195,443.34271 C 456.14485,442.38577 457.67565,441.71568 457.81355,441.8536 C 457.95145,441.99151 457.06645,443.64864 455.84675,445.53609 C 452.93455,450.04285 449.33685,457.25705 448.23735,460.79481 C 447.36105,463.61416 447.36195,463.62831 448.55985,466.01883 C 450.15085,469.19374 451.85395,470.38613 454.73535,470.34257 C 455.98525,470.32368 457.14585,470.53133 457.31435,470.80403 C 457.83525,471.64679 453.98395,476.71166 449.10275,481.60336 C 446.54065,484.17093 443.89685,487.07847 443.22775,488.06453 C 441.91135,490.00435 441.59575,493.10246 442.61105,494.11781 C 443.46735,494.97406 446.33065,494.85908 447.77865,493.91031 C 448.90545,493.17203 449.01105,493.17141 449.01105,493.90296 C 449.01105,494.34304 447.84825,496.90017 446.42715,499.58546 C 441.83775,508.25684 441.39045,509.35552 441.12705,512.60199 C 440.91985,515.1545 441.03915,515.92004 441.76935,516.72699 C 442.94735,518.02859 445.50845,518.00713 447.19365,516.68152 C 448.68935,515.50499 448.81165,515.69207 447.80575,517.61764 C 446.15405,520.77901 441.83785,523.53315 433.26105,526.89833 C 422.07015,531.28919 418.95255,533.08413 413.85895,538.06906 C 406.64165,545.13235 403.55345,553.02836 405.91775,558.37331 C 407.45905,561.85774 409.33715,562.83157 414.01105,562.57008 C 418.16935,562.33746 421.55915,561.05889 426.06785,558.02255 C 429.35375,555.80968 430.76495,555.63803 430.29555,557.50827 C 429.44545,560.89558 426.62645,563.6374 419.01105,568.48397 C 414.87525,571.11606 414.05065,571.95125 414.02695,573.53159 C 414.00445,575.03697 415.25925,575.89242 417.94285,576.20112 C 421.83965,576.64941 421.17195,577.85171 414.53235,582.34262 C 407.52125,587.08479 405.39475,589.1123 403.97815,592.40523 C 402.99475,594.69118 402.90845,595.56018 403.13035,600.94776 L 403.37745,606.94547 L 401.62745,604.95664 C 393.77025,596.0268 391.86195,586.93465 393.70645,567.21781 C 394.75185,556.04341 394.23265,553.71781 390.69255,553.71781 C 389.31545,553.71781 388.80995,554.02355 388.00555,555.34281 C 387.46065,556.23656 387.01395,557.58656 387.01295,558.34281 C 387.01075,559.97901 386.04755,560.13939 384.76105,558.71781 C 382.12585,555.8059 378.98465,559.43084 377.28705,567.34281 C 377.02625,568.55833 376.76505,568.71781 375.03525,568.71781 C 372.90955,568.71781 373.03485,568.89841 372.00705,564.35205 C 371.25295,561.01589 368.93045,557.71781 367.33545,557.71781 C 366.69225,557.71781 365.75885,558.16781 365.26105,558.71781 C 363.97455,560.13939 363.01145,559.97901 363.00925,558.34281 C 363.00815,557.58656 362.56145,556.23656 362.01655,555.34281 C 361.21215,554.02355 360.70665,553.71781 359.32965,553.71781 C 355.81395,553.71781 355.28335,556.05073 356.31725,566.96365 C 357.42855,578.69363 357.09225,587.57259 355.33095,593.00702 C 353.99195,597.13839 351.50685,601.41961 348.39465,604.95664 L 346.64475,606.94547 L 346.89175,600.94776 z"
       style="opacity:1;fill:#ffff00;fill-opacity:1;stroke:none;stroke-width:0.1;stroke-linejoin:miter" />
  </g>
</svg>
