<?xml version="1.0" encoding="UTF-8" standalone="no"?>
<!-- Created with Inkscape (http://www.inkscape.org/) -->
<svg
   xmlns:svg="http://www.w3.org/2000/svg"
   xmlns="http://www.w3.org/2000/svg"
   version="1.0"
   width="200"
   height="239.99995"
   id="svg3514">
  <defs
     id="defs3516" />
  <g
     transform="translate(-44.404743,-200.21936)"
     id="layer1">
    <path
       d="M 44.404743,200.21936 C 44.404743,200.21936 244.40474,200.21936 244.40474,200.21936 L 244.40474,230.21934 C 244.40474,387.7098 144.40472,440.21932 144.40472,440.21932 C 144.40472,440.21932 44.404743,387.7098 44.404743,230.21934 L 44.404743,200.21936 z"
       id="path2122"
       style="opacity:1;fill:#008000;fill-opacity:1;fill-rule:nonzero;stroke:none;stroke-width:3;stroke-linecap:round;stroke-linejoin:bevel;marker:none;marker-start:none;marker-mid:none;marker-end:none;stroke-miterlimit:4;stroke-dasharray:none;stroke-dashoffset:0;stroke-opacity:1;visibility:visible;display:block" />
    <path
       d="M 166.3985,368.2326 C 163.90579,373.35149 160.40662,384.23002 160.48514,388.17912 C 160.5301,390.44 164.30652,396.08454 164.30652,396.08454 C 162.29646,396.20579 160.28642,396.25227 158.27637,394.57701 C 159.08803,404.24405 159.57485,411.44135 159.1078,417.96439 C 158.81691,422.02743 154.41799,416.60115 152.19368,416.52083 C 145.41431,416.27601 142.79907,419.05652 141.74285,421.53892 C 141.44105,422.24821 139.23004,422.4245 139.407,421.55508 C 139.82106,419.52095 139.68229,416.91129 138.89861,415.35964 C 138.18881,413.95425 136.15672,412.41256 135.77522,411.85431 C 133.82127,408.99506 127.34321,411.39135 124.95979,412.5624 C 124.86156,410.79445 125.47938,407.17381 133.04796,403.85752 C 148.14996,397.24031 150.4538,394.97958 151.74142,392.40023 C 155.24154,385.38876 156.02943,375.79231 156.92877,366.60292"
       id="path3457"
       style="fill:#000000;fill-rule:evenodd;stroke:none;stroke-width:0.25;stroke-linecap:butt;stroke-linejoin:miter;stroke-opacity:1" />
    <path
       d="M 139.91102,358.66106 C 135.03353,364.65582 129.52211,370.70753 119.22761,370.92864 C 106.81004,371.19535 103.84301,367.49897 97.330625,367.49899 C 94.24623,367.49899 92.057596,368.4981 93.399721,371.11332 C 95.586878,370.93849 97.413021,371.44672 98.702484,372.69623 C 99.954608,373.90956 101.4057,376.97727 101.34067,377.89347 C 101.21044,379.72856 98.00639,381.43718 97.515299,382.61583 C 97.052885,383.72562 96.67464,386.68382 98.808012,385.46507 C 100.16705,384.68868 101.5337,384.43289 103.82057,384.77914 C 106.0059,385.11001 111.35098,388.28936 111.26027,394.40854 C 111.22771,396.60494 110.43689,398.29826 110.97007,401.18869 C 116.44677,395.37634 122.43589,388.9898 126.87836,379.76658 C 127.86884,380.99776 129.03474,383.22064 130.91479,383.30176 C 133.38468,370.31721 140.85606,364.7611 145.71504,362.06432 C 143.69748,361.00937 141.76675,359.86328 139.91102,358.66106 z"
       id="path3459"
       style="fill:#000000;fill-rule:evenodd;stroke:none;stroke-width:0.25;stroke-linecap:butt;stroke-linejoin:miter;stroke-opacity:1" />
    <path
       d="M 181.06303,254.91281 C 172.42663,272.67387 162.64393,300.23637 142.24393,300.8927 C 137.41929,301.04793 132.05468,294.09303 132.29419,287.47563 C 132.97258,268.73191 170.73639,260.39992 170.73639,233.95804 C 170.73639,226.19418 162.6362,209.08367 149.63087,209.08367 C 145.31206,209.08367 140.77317,211.15791 135.76152,212.36142 L 136.11557,226.98111 C 137.41237,228.86036 139.11995,230.93388 144.9575,230.64146 C 149.79187,230.3993 157.84563,229.83838 157.92232,238.40528 C 157.98215,245.0887 140.04262,253.58464 131.76655,261.54598 C 122.72245,270.24614 112.25166,282.29948 111.59707,290.5097 C 111.35996,293.48372 110.89151,295.58553 109.53037,295.84245 C 106.12774,293.07793 105.12866,289.80643 105.00776,282.35 C 104.89311,275.2789 109.03003,262.32476 107.11831,259.66156 C 95.989732,244.15839 87.353185,228.25048 82.997723,207.80226 C 75.908495,210.66153 76.045394,219.5921 76.967562,229.28467 C 74.084125,227.73662 64.671981,215.57338 62.193695,211.04347 C 57.08918,219.44076 65.856288,232.1693 69.429876,235.61633 C 63.518024,234.30966 58.562168,230.68128 54.052998,225.96809 C 53.654746,233.74367 54.63237,242.01741 77.118323,258.07864 C 69.932052,258.52575 62.646307,257.48077 55.259027,254.91281 C 58.176841,264.12592 56.905326,274.23997 77.57058,279.63643 C 74.210226,281.90632 68.516454,282.89284 61.138419,282.95301 C 63.688084,288.43178 66.010181,293.99523 85.409772,293.20426 C 81.1654,298.11865 73.919595,300.34754 65.887162,301.87261 C 69.131123,304.27935 69.32775,307.51718 80.81179,307.67663 C 78.024662,309.79293 75.233524,311.90763 71.465056,313.6314 C 78.254568,318.93034 85.223334,317.57537 91.816807,316.79723 C 89.031336,321.77006 84.977269,326.62201 79.982638,329.98818 C 88.801235,335.13936 96.026481,330.27526 103.50023,326.9731 C 100.61016,334.25665 97.185014,339.04316 93.701235,343.55602 C 100.95949,344.24592 104.77085,340.19634 108.92736,336.62134 C 109.6971,341.90252 108.05076,345.65776 105.00776,348.53089 C 108.55319,349.31068 112.19986,347.74821 117.06806,340.46556 C 132.94232,353.2747 146.35568,369.06681 176.08815,369.3349 C 181.08846,369.37999 186.62585,369.31469 191.76654,365.33993 C 188.88287,363.72748 186.79814,362.00089 186.7163,359.98817 C 194.69277,360.65983 197.04313,358.51842 199.98262,356.67159 C 196.45341,355.88973 193.3138,356.47143 189.05297,353.12888 C 194.21666,349.82794 200.33913,354.6888 205.86202,342.04848 C 198.92652,340.95166 191.60097,343.95037 185.058,338.73189 C 185.82015,336.91446 187.8754,334.25621 188.22383,332.40024 C 185.40292,326.06051 179.08813,319.32176 182.19369,314.53592 C 186.44315,318.33142 190.58757,329.88932 198.24895,326.9731 C 196.46867,322.46942 196.21542,320.43947 196.21378,317.92787 C 199.13075,321.13862 201.92654,324.5218 209.93237,320.49069 C 207.11919,317.02291 201.8469,314.78468 202.24393,309.7118 C 207.74407,311.17856 212.26412,312.32671 215.96252,310.39019 C 211.14379,307.3331 208.24477,304.05016 206.84192,300.5912 C 220.26398,301.0076 221.66402,299.78535 223.72634,295.3902 C 214.00479,291.97104 204.31613,288.519 197.34443,282.35 C 210.05643,282.2734 225.00252,283.95906 228.92734,270.89271 C 214.84796,272.60748 215.1604,270.31141 212.72132,268.78216 C 228.0345,265.11498 230.5857,259.45893 230.58563,253.40527 C 224.39739,256.03196 215.08298,261.0832 210.83689,258.2294 C 216.64522,253.44355 233.69387,248.16458 233.60071,230.64146 C 228.58392,232.22009 225.03922,236.04677 219.2791,235.76708 C 219.2791,235.76708 228.92734,225.66659 230.13337,219.03342 C 231.3394,212.40025 228.62583,212.40025 228.62583,212.40025 C 223.58348,224.51774 198.48046,239.30984 181.06303,254.91281 z"
       id="path3452"
       style="fill:#ffffff;fill-rule:evenodd;stroke:none;stroke-width:0.5;stroke-linecap:butt;stroke-linejoin:miter;stroke-opacity:1" />
    <path
       d="M 132.55892,212.14101 C 129.71106,212.30125 129.85376,213.48942 125.47577,214.78769 C 121.23034,216.04665 113.37502,219.41142 111.99663,220.45848 C 110.43237,221.64673 109.33802,223.92167 111.86706,223.18013 C 117.09689,221.64667 124.85952,219.85998 130.80926,221.52791 C 127.27564,223.84937 118.15733,227.11851 115.69243,227.62213 C 112.86216,228.20041 114.02408,229.48141 116.77409,229.67992 C 119.42206,229.87106 128.84503,227.17457 136.11203,226.98896 L 135.87459,217.43872 C 136.58436,217.03172 137.66445,216.45216 138.4864,216.33067 C 139.15097,216.23246 140.92911,218.09826 142.02157,218.09826 C 143.15536,218.09826 143.99131,217.26741 144.58062,216.38344 C 145.0876,215.62296 147.09959,215.48062 147.90474,214.27289 C 148.00296,214.27289 143.64058,214.27289 142.7075,214.27289 C 141.77441,214.27289 141.37097,215.01157 140.78162,215.01158 C 140.31999,215.01158 137.37126,214.97187 135.82183,214.95882 L 135.76906,212.37339 C 134.90518,212.31635 133.76982,212.07211 132.55892,212.14101 z"
       id="path3474"
       style="fill:#000000;fill-rule:evenodd;stroke:none;stroke-width:0.25;stroke-linecap:butt;stroke-linejoin:miter;stroke-opacity:1" />
  </g>
</svg>
