<?xml version="1.0" encoding="UTF-8" standalone="no"?>
<!-- Created with Inkscape (http://www.inkscape.org/) -->
<svg
   xmlns:svg="http://www.w3.org/2000/svg"
   xmlns="http://www.w3.org/2000/svg"
   version="1.0"
   width="200.00003"
   height="240"
   id="svg3611">
  <defs
     id="defs3613" />
  <g
     transform="translate(-275.00029,-412.02365)"
     id="layer1">
    <path
       d="M 275.00029,412.02365 C 275.00029,412.02365 475.00032,412.02365 475.00032,412.02365 L 475.00032,442.02365 C 475.00032,599.51412 375.00029,652.02365 375.00029,652.02365 C 375.00029,652.02365 275.00029,599.51412 275.00029,442.02365 L 275.00029,412.02365 z"
       id="path3632"
       style="opacity:1;fill:#ffe000;fill-opacity:1;fill-rule:nonzero;stroke:none;stroke-width:3;stroke-linecap:round;stroke-linejoin:bevel;marker:none;marker-start:none;marker-mid:none;marker-end:none;stroke-miterlimit:4;stroke-dasharray:none;stroke-dashoffset:0;stroke-opacity:1;visibility:visible;display:block" />
    <path
       d="M 364.34892,614.64381 L 385.6517,614.64383 L 385.6517,550.58084 L 391.06868,546.78894 L 391.06868,540.51665 C 428.15431,521.15246 426.99197,499.66497 426.99197,492.61908 C 426.99197,466.90556 418.43881,462.62284 418.43881,450.4236 C 418.43881,438.22437 426.12884,437.79361 423.01196,432.39502 C 419.83217,426.88749 410.17075,436.27663 410.17075,445.57683 C 410.17075,456.981 415.01753,467.52581 415.01753,477.50855 C 415.01753,508.70256 386.35726,515.44883 375.00031,515.44882 C 363.64336,515.44881 334.98307,508.70253 334.98307,477.50853 C 334.98307,467.52579 339.82986,456.98099 339.82986,445.57681 C 339.82986,436.27661 330.16845,426.88747 326.98866,432.395 C 323.87178,437.79359 331.5618,438.22435 331.5618,450.42358 C 331.5618,462.62282 323.00865,466.90554 323.00865,492.61906 C 323.00865,499.66495 321.8463,521.15244 358.93193,540.51663 L 358.93193,546.78892 L 364.34892,550.58081 L 364.34892,614.64381 z M 380.00032,603.98662 C 380.00032,606.74662 377.76031,608.98662 375.0003,608.98662 C 372.24029,608.98662 370.00029,606.74662 370.00029,603.98662 C 370.00029,601.22662 372.24029,598.98662 375.0003,598.98662 C 377.76031,598.98662 380.00032,601.22662 380.00032,603.98662 z"
       id="path3256"
       style="fill:#000000;fill-rule:evenodd;stroke:none;stroke-width:1px;stroke-linecap:butt;stroke-linejoin:miter;stroke-opacity:1" />
  </g>
</svg>
