<?xml version="1.0" encoding="UTF-8" standalone="no"?>
<!-- Created with Inkscape (http://www.inkscape.org/) -->
<svg
   xmlns:svg="http://www.w3.org/2000/svg"
   xmlns="http://www.w3.org/2000/svg"
   version="1.0"
   width="200"
   height="239.99995"
   id="svg4658">
  <defs
     id="defs4660" />
  <g
     transform="translate(-213.78462,-487.06618)"
     id="layer1">
    <path
       d="M 213.78462,487.06618 C 213.78462,487.06618 413.78462,487.06618 413.78462,487.06618 L 413.78462,517.06617 C 413.78462,674.55662 313.78461,727.06613 313.78461,727.06613 C 313.78461,727.06613 213.78462,674.55662 213.78462,517.06617 L 213.78462,487.06618 z"
       id="path2122"
       style="opacity:1;fill:#ffec00;fill-opacity:1;fill-rule:nonzero;stroke:none;stroke-width:3;stroke-linecap:round;stroke-linejoin:bevel;marker:none;marker-start:none;marker-mid:none;marker-end:none;stroke-miterlimit:4;stroke-dasharray:none;stroke-dashoffset:0;stroke-opacity:1;visibility:visible;display:block" />
    <path
       d="M 313.60549,568.42968 C 320.17524,568.41921 328.94129,564.91426 333.20034,562.07116 C 333.8423,561.64266 334.74518,562.04478 334.82164,562.17249 C 335.01034,562.48766 335.25382,563.19163 334.77097,563.79379 C 331.56749,567.78883 324.54703,578.29242 321.69929,583.9333 C 318.76125,589.75304 315.34938,606.32374 315.01145,613.42059 C 314.97206,614.24771 314.49828,614.63655 313.61815,614.63656 C 312.73802,614.63657 312.26425,614.24772 312.22485,613.42059 C 311.88691,606.32374 308.44971,589.75306 305.51168,583.9333 C 302.66395,578.29242 295.64347,567.78884 292.43999,563.79379 C 291.95715,563.19163 292.20064,562.48767 292.38933,562.17249 C 292.43712,562.09268 292.79698,561.89048 293.22531,561.8685 C 293.48231,561.85531 293.76989,561.91046 294.01062,562.07116 C 298.26967,564.91426 307.03574,568.41922 313.60549,568.42968 z M 282.73756,497.44739 C 278.09836,497.54961 273.60277,501.52289 271.3125,507.9098 C 265.23498,524.85826 282.77496,540.91897 283.8522,548.03683 C 272.02394,545.52916 266.8522,516.26243 257.32884,503.67924 C 251.72137,496.27009 245.54359,498.99585 239.24127,499.778 C 236.58794,500.10729 230.39469,502.079 228.5762,500.56331 C 227.25969,499.46601 225.81115,498.00783 224.5483,499.09401 C 223.57631,500.44672 225.13905,501.77939 226.34692,502.99525 C 228.01533,504.67472 226.59571,511.01373 226.49892,513.68566 C 226.26904,520.03216 224.57691,525.74034 231.97078,531.3679 C 244.92676,541.22887 271.49984,547.33106 275.74573,556.32063 C 268.14817,557.59634 251.40017,539.51632 235.72003,548.36616 C 226.60192,553.5124 227.471,565.13051 235.21337,570.20297 C 239.11733,572.76066 243.2754,574.23326 246.81576,574.35753 C 254.21577,574.61727 258.31061,575.43407 252.99694,581.52669 C 251.5422,583.19469 248.81905,583.82282 246.58776,583.83197 C 249.13131,586.75649 259.88848,585.26684 263.33269,584.23729 C 270.15023,582.19945 275.54102,573.27424 270.2232,570.48163 C 265.05202,567.76602 259.51721,564.6454 260.74876,561.18452 C 262.6585,555.81781 272.02049,560.32364 279.31764,563.23647 C 275.56893,569.46146 281.05123,571.27213 285.52416,567.2897 C 288.66335,569.53471 297.23469,584.03399 299.00117,588.61986 C 299.91187,590.98405 305.0739,606.60255 304.57437,612.76194 C 296.18819,611.7225 294.62812,620.183 302.26909,621.72973 C 303.06878,629.83563 293.28988,633.63576 288.96941,633.7881 C 281.62684,634.04697 283.06278,621.7085 284.66285,615.64987 C 286.30831,609.41944 285.21954,601.9841 277.82301,601.8182 C 271.4585,601.67546 265.72341,610.71644 266.85394,615.24455 C 268.47844,613.48628 270.02742,610.69062 272.75647,611.67263 C 280.91738,614.6092 270.28944,629.62115 265.13132,635.66272 C 262.66353,638.55316 261.72131,646.97574 262.62338,651.901 C 264.86081,664.1175 270.58068,670.86268 281.2176,667.25263 C 298.38517,661.42602 300.28419,634.3287 307.66496,629.12688 C 313.7508,638.25459 292.24843,664.19701 292.97198,682.83225 C 293.35876,692.79348 298.29844,699.87097 303.48506,704.28907 C 305.66869,706.14918 311.72569,709.63053 311.84486,712.16755 C 311.93112,714.00415 311.84368,716.21178 313.61815,716.42344 C 315.39262,716.21179 315.27985,714.00412 315.36611,712.16755 C 315.48526,709.63054 321.56761,706.14918 323.75124,704.28907 C 328.93785,699.87096 333.85222,692.79347 334.23899,682.83225 C 334.96253,664.19702 313.46017,638.2546 319.54601,629.12688 C 326.92677,634.32867 328.85113,661.426 346.0187,667.25263 C 356.65562,670.86268 362.35015,664.11749 364.58759,651.901 C 365.48964,646.97574 364.57276,638.55318 362.10498,635.66272 C 356.94686,629.62116 346.29359,614.60918 354.4545,611.67263 C 357.18353,610.69063 358.73254,613.48628 360.35702,615.24455 C 361.48755,610.71643 355.75247,601.67545 349.38795,601.8182 C 341.99143,601.9841 340.90267,609.41946 342.54812,615.64987 C 344.14821,621.70848 345.58412,634.04694 338.24156,633.7881 C 333.9211,633.63578 324.16752,629.83562 324.96721,621.72973 C 332.60817,620.183 331.02277,611.7225 322.6366,612.76194 C 322.13707,606.60254 327.2991,590.98406 328.2098,588.61986 C 329.97628,584.03399 338.54762,569.53471 341.68681,567.2897 C 346.15974,571.27217 351.64204,569.46146 347.89332,563.23647 C 355.19047,560.32368 364.5778,555.81781 366.48754,561.18452 C 367.71909,564.64544 362.18428,567.76602 357.0131,570.48163 C 351.69529,573.27423 357.08607,582.19945 363.9036,584.23729 C 367.34783,585.26683 378.07966,586.75649 380.6232,583.83197 C 378.39192,583.82281 375.66876,583.19469 374.21402,581.52669 C 368.90036,575.43406 373.02053,574.61727 380.42054,574.35753 C 383.9609,574.2333 388.09363,572.76066 391.99759,570.20297 C 399.73996,565.1305 400.60905,553.5124 391.49094,548.36616 C 375.81079,539.51632 359.0628,557.59634 351.46524,556.32063 C 355.71112,547.33105 382.30954,541.22887 395.26552,531.3679 C 402.6594,525.74033 400.96726,520.03216 400.73738,513.68566 C 400.6406,511.01372 399.19564,504.67472 400.86405,502.99525 C 402.07191,501.77939 403.65999,500.44672 402.688,499.09401 C 401.42515,498.00784 399.97661,499.46601 398.6601,500.56331 C 396.84161,502.07899 390.62303,500.10729 387.96969,499.778 C 381.66738,498.99587 375.51493,496.27009 369.90746,503.67924 C 360.38409,516.26245 355.18702,545.52916 343.35877,548.03683 C 344.43601,540.91899 362.00132,524.85826 355.9238,507.9098 C 353.63352,501.52289 349.1126,497.54961 344.47341,497.44739 C 340.86514,497.36788 337.17562,499.63692 334.36565,504.94587 C 332.18232,509.07091 332.49441,512.37413 331.75638,515.83894 C 330.2907,522.71985 327.73627,526.55261 322.12994,520.72816 C 320.59509,519.13358 319.46201,517.85989 319.64734,515.63628 C 317.44889,519.88218 318.36693,525.11647 318.81136,529.01196 C 319.61793,536.08169 327.54826,541.8433 330.79374,536.7891 C 333.94971,531.8743 337.22753,529.17447 340.11618,531.4439 C 344.92136,535.21904 339.51698,543.40192 335.88561,549.4808 C 330.01104,545.20379 327.72294,550.50432 331.30039,555.30733 C 328.82845,558.19438 323.60193,561.562 313.61815,561.56451 C 303.61763,561.56701 298.38462,558.19686 295.91058,555.30733 C 299.48803,550.50432 297.19993,545.2038 291.32535,549.4808 C 287.69399,543.40192 282.2896,535.21904 287.09479,531.4439 C 289.98343,529.17447 293.28661,531.87428 296.44256,536.7891 C 299.68804,541.8433 307.61836,536.0817 308.42494,529.01196 C 308.86937,525.11647 309.7874,519.88218 307.58896,515.63628 C 307.77429,517.85989 306.6412,519.13357 305.10635,520.72816 C 299.50002,526.55261 296.9456,522.71984 295.47992,515.83894 C 294.74189,512.37413 295.02864,509.0709 292.84532,504.94587 C 290.03535,499.63692 286.34582,497.36788 282.73756,497.44739 z"
       id="path4576"
       style="opacity:1;fill:#c1001f;fill-opacity:1;stroke:none;stroke-width:0.09999999;stroke-miterlimit:4;stroke-dasharray:none;stroke-opacity:1" />
  </g>
</svg>
