<?xml version="1.0" encoding="UTF-8" standalone="no"?>
<!-- Created with Inkscape (http://www.inkscape.org/) -->
<svg
   xmlns:svg="http://www.w3.org/2000/svg"
   xmlns="http://www.w3.org/2000/svg"
   version="1.0"
   width="200.00003"
   height="240"
   id="svg2463">
  <defs
     id="defs2465" />
  <g
     transform="translate(-639.99999,-143.79075)"
     id="layer1">
    <path
       d="M 639.99999,143.79075 C 639.99999,143.79075 840.00002,143.79075 840.00002,143.79075 L 840.00002,173.79074 C 840.00002,331.28122 739.99999,383.79075 739.99999,383.79075 C 739.99999,383.79075 639.99999,331.28122 639.99999,173.79074 L 639.99999,143.79075 z"
       id="path2457"
       style="opacity:1;fill:#ff0000;fill-opacity:1;fill-rule:nonzero;stroke:none;stroke-width:3;stroke-linecap:round;stroke-linejoin:bevel;marker:none;marker-start:none;marker-mid:none;marker-end:none;stroke-miterlimit:4;stroke-dasharray:none;stroke-dashoffset:0;stroke-opacity:1;visibility:visible;display:block" />
    <path
       d="M 717.19642,264.32646 C 706.51985,264.32646 706.42956,217.71932 678.57142,217.71932 C 667.4738,217.71932 663.08131,221.71096 658.21428,226.29075 C 658.25463,201.64079 683.62401,207.343 699.99999,212.00503 C 696.35748,203.56925 689.1008,189.71467 652.49999,193.79075 C 659.05628,163.39519 694.91879,192.38641 709.55356,200.75503 C 696.61304,176.96994 682.9597,171.55889 670.71428,167.00503 C 688.91445,147.51625 722.50078,196.59543 727.85714,202.00503 C 725.18453,189.01925 726.4364,176.2515 707.49999,162.36217 C 729.29261,150.89693 737.1169,187.03673 740.35712,200.9336 C 746.09152,192.99728 753.20867,175.78335 742.85712,159.14789 C 765.3974,155.5301 756.22426,183.01585 755.71428,202.00503 C 767.93417,194.08751 771.05335,178.44296 770.71428,159.86217 C 787.90391,160.43337 777.12645,185.63663 770.44641,205.48717 C 782.85766,198.94509 792.89585,187.14585 797.4107,160.9336 C 815.73865,179.82325 790.71891,203.91168 782.09821,214.6836 C 794.62527,212.21711 809.07501,199.1225 817.67856,218.34432 C 799.50384,212.44086 789.72563,220.32596 784.06249,229.32646 C 819.59524,223.44762 814.25392,239.01117 814.5982,244.41575 C 805.44329,240.88377 799.1903,232.81169 783.21428,239.95146 C 796.24586,246.66749 809.74736,253.05616 802.14285,274.14789 C 795.99136,264.13581 790.79675,250.90512 779.64285,257.71932 C 782.06254,263.23567 785.71428,267.58823 785.71428,274.86218 C 785.71428,284.98462 763.0357,288.83792 763.0357,296.11217 C 763.0357,301.06778 778.0357,302.97653 778.0357,314.32646 C 778.0357,316.92029 775.7683,319.16329 775.43528,321.72589 C 774.95118,325.45121 773.76701,328.55696 770.35712,332.18361 C 772.60343,321.53692 769.35439,323.13842 768.0762,320.35401 C 764.8808,313.39315 760.30144,310.21932 757.49999,310.21932 C 746.78421,310.21932 744.64285,318.0257 744.64285,323.07646 C 744.64285,331.91746 748.36207,337.73957 752.35491,340.67745 C 753.94454,341.84709 753.79633,344.96932 761.56249,343.96932 C 760.56218,346.20389 756.57611,349.23674 752.38764,348.52245 C 747.18011,347.63438 746.59493,349.75919 742.21681,348.59949 C 735.54309,346.83172 737.63136,328.50086 738.30356,318.25504 C 735.34266,317.88342 727.14285,329.91255 727.14285,334.86218 C 727.14285,337.09439 728.35682,341.93226 729.71769,346.68349 C 730.57094,349.66247 728.56197,352.39664 734.37499,358.12111 C 728.48214,358.12111 728.52636,356.97336 726.02257,355.11555 C 724.22074,353.77859 722.33468,354.5373 720.49909,353.01205 C 714.70228,348.19529 713.21428,341.39405 713.21428,337.89789 C 713.21428,330.56776 724.31897,317.53812 729.64285,312.71932 C 719.30479,310.50402 714.36594,313.58068 710.60582,317.97051 C 708.02588,320.98254 705.83155,313.76696 703.21428,327.36218 C 700.27859,324.5815 702.12925,317.76512 702.3328,313.3402 C 702.47138,310.32767 701.39233,309.98382 701.51785,306.73718 C 701.65965,303.06933 708.1897,300.3843 716.79561,300.3843 C 729.7773,300.3843 740.10619,309.25895 753.12499,291.5586 C 755.75622,287.98117 752.45468,281.92286 745.80356,281.82647 C 748.91503,274.49624 750.16062,267.85812 747.14285,263.43361 C 738.06844,250.12912 725.2559,264.32646 717.19642,264.32646 z"
       id="path2461"
       style="fill:#ffe000;fill-opacity:1;fill-rule:evenodd;stroke:none;stroke-width:0.1;stroke-linecap:butt;stroke-linejoin:miter;stroke-opacity:1" />
  </g>
</svg>
