<?xml version="1.0" encoding="UTF-8" standalone="no"?>
<!-- Created with Inkscape (http://www.inkscape.org/) -->

<svg
   xmlns:dc="http://purl.org/dc/elements/1.1/"
   xmlns:cc="http://creativecommons.org/ns#"
   xmlns:rdf="http://www.w3.org/1999/02/22-rdf-syntax-ns#"
   xmlns:svg="http://www.w3.org/2000/svg"
   xmlns="http://www.w3.org/2000/svg"
   version="1.0"
   width="382.73468"
   height="500"
   id="svg2">
  <metadata
     id="metadata9">
    <rdf:RDF>
      <cc:Work
         rdf:about="">
        <dc:format>image/svg+xml</dc:format>
        <dc:type
           rdf:resource="http://purl.org/dc/dcmitype/StillImage" />
        <dc:title></dc:title>
      </cc:Work>
    </rdf:RDF>
  </metadata>
  <defs
     id="defs5" />
  <path
     d="m 381.08393,1.6507614 0,249.1682986 c -17.80617,143.85943 -190.24489,249.1683 -189.71659,249.1683 0.52831,0 -171.910407,-105.30887 -189.7165786,-249.1683 l 0,-249.1682967"
     id="path2384"
     style="fill:#d61a1a;fill-opacity:1;fill-rule:evenodd;stroke:none" />
  <path
     d="M 193.37969,29.546027 180.68946,151.08333 c -3.71426,0.6192 -7.34056,1.50264 -10.83312,2.68249 L 98.048218,54.513792 147.7774,165.94018 c -2.93761,2.41453 -5.64114,5.08988 -8.15063,7.94429 L 27.890861,124.05211 126.62702,195.55072 c -1.52862,4.07135 -2.6534,8.30015 -3.40469,12.69022 l -99.664718,11.55533 99.561548,11.55533 c 0.68551,4.26378 1.676,8.41037 3.09517,12.38071 l -81.403165,55.81637 93.680705,-34.56282 c 2.89397,3.46215 6.09313,6.64445 9.59505,9.49188 L 98.254564,386.11048 170.26903,286.65211 c 3.429,1.13394 6.98668,1.98416 10.62677,2.57931 l 12.69023,121.84682 12.69023,-122.36268 c 3.48516,-0.70858 6.83426,-1.58003 10.11091,-2.78566 l 72.53033,100.18058 -50.65774,-113.2835 c 2.77188,-2.4215 5.37667,-5.01625 7.73794,-7.84112 l 93.68071,34.56282 -81.40317,-55.81637 c 1.41917,-3.97034 2.40966,-8.11692 3.09518,-12.38071 l 99.56154,-11.55533 -99.66471,-11.55533 c -0.66953,-3.91232 -1.70161,-7.68627 -2.99201,-11.34898 l 100.4901,-72.83985 -113.2835,50.55457 c -2.20184,-2.57373 -4.5709,-4.9913 -7.11891,-7.22208 L 288.71115,54.513792 216.38717,154.38485 c -3.3846,-1.24741 -6.81383,-2.27578 -10.42043,-2.992 L 193.37969,29.546027 z"
     id="path2390"
     style="fill:#faf700;fill-opacity:1;stroke:none" />
</svg>
