<?xml version="1.0" encoding="UTF-8" standalone="no"?>
<!-- Created with Inkscape (http://www.inkscape.org/) -->

<svg
 xmlns:dc="http://purl.org/dc/elements/1.1/"
 xmlns:cc="http://creativecommons.org/ns#"
 xmlns:rdf="http://www.w3.org/1999/02/22-rdf-syntax-ns#"
 xmlns:svg="http://www.w3.org/2000/svg"
 xmlns="http://www.w3.org/2000/svg"
 version="1.1"
 width="390"
 height="480"
 id="svg4228">
<metadata
 id="metadata9">
<rdf:RDF>
<cc:Work
 rdf:about="">
<dc:format>image/svg+xml</dc:format>
<dc:type
 rdf:resource="http://purl.org/dc/dcmitype/StillImage" />
<dc:title></dc:title>
</cc:Work>
</rdf:RDF>
</metadata>
<defs
 id="defs4232" />
<path
 d="M 0.00351796,0.00350638 390.01124,-0.03065059 C 389.99631,270.00335 389.99205,273.98676 389.99209,273.99895 390.99231,548.63218 0.01014203,548.63782 0.0068261,273.99819 L 0.00351796,0.00350638 z"
 id="path2902"
 style="fill:#d61a1a;fill-opacity:1;stroke:none" />
<path
 d="m 220.27119,388.92373 c 44.63707,-5.32547 88.58149,-38.86537 105.82627,-60.88983 l -23.00848,-11.8856 70.42373,-60.31779 -7.88135,91.01695 -17.54238,-8.19916 c -17.66059,33.63136 -78.57574,94.52846 -150.40627,94.29609 -71.5237,-0.23138 -124.536089,-50.68476 -150.559815,-93.93135 l -17.31561,8.97307 -8.706519,-92.02815 71.778775,60.84692 -22.8356,11.28696 c 19.928081,28.01155 69.007879,58.63164 104.897489,60.85313 l 3.88908,-223.81361 c 0.0927,-5.33651 -80.75648,-1.31387 -115.741527,6.92796 l 0,-47.0339 c 30.530646,7.02611 64.361457,11.70975 108.146187,11.02755 1.27385,-0.0196 2.02971,-2.47047 0.63559,-3.05086 -58.31097,-24.27551 -35.53789,-114.266767 25.13772,-114.120755 63.37891,0.152517 84.23554,86.927345 26.12288,114.152545 -1.00163,0.46925 -0.80779,3.10019 0.76271,3.1144 35.5724,0.32186 71.55158,-2.90492 108.08263,-11.15466 l 0,47.0339 c -34.90762,-5.61976 -116.06505,-12.7251 -115.96399,-7.0233 l 4.25848,223.91949 z"
 id="path2827"
 style="fill:#faf700;fill-opacity:1;stroke:none" />
<path
 d="m 179.97458,110.59746 -0.12712,-17.033902 c -0.0435,-4.625934 35.44803,-3.741493 35.4661,0 l 0.0636,17.288132 C 243.53184,96.64221 238.32249,43.851236 197.51699,43.542372 158.9611,43.250536 150.12686,93.220748 179.97462,110.59746 l -4e-5,0 z"
 id="path2829"
 style="fill:#d61a1a;fill-opacity:1;stroke:none" />
</svg>
