<?xml version="1.0" encoding="UTF-8" standalone="no"?>
<!-- Created with Inkscape (http://www.inkscape.org/) -->

<svg
   xmlns:svg="http://www.w3.org/2000/svg"
   xmlns="http://www.w3.org/2000/svg"
   version="1.1"
   width="390"
   height="480"
   id="svg4228">
  <defs
     id="defs4232" />
  <path
     d="m 0.51202379,0.50512952 c 129.66265621,0 259.32532621,0 388.98797621,0 C 389.48983,115.23328 370.33544,349.8309 194.89467,479.37706 21.249382,349.77255 0.5931986,115.2575 0.51202379,0.50512952 z"
     id="path4240-0-1"
     style="fill:#207dbf;fill-opacity:1;stroke:#9e832a;stroke-width:0.99999905;stroke-opacity:1" />
  <path
     d="m 313.14708,55.815519 c -0.52802,-3.179593 -4.88967,-6.425562 -20.49411,-5.922296 -11.22466,0.36201 -23.19774,1.559197 -23.64014,9.601298 -1.89892,34.519249 -3.66168,71.561649 0.35955,108.037029 5.55246,50.36473 17.82043,110.26584 18.33683,166.18322 l 0.43397,48.3149 c 4.90599,-6.78702 13.24205,-20.19343 13.94242,-21.40939 l 0.006,-30.94344 c 0.006,-30.38825 11.60986,-109.79232 15.37323,-164.92697 1.55631,-22.80054 1.95661,-71.155172 -4.3172,-108.934351 z"
     id="path2827-4"
     style="fill:#faf700;fill-opacity:1;stroke:none" />
  <path
     d="m 219.95216,106.23917 c -0.16748,-3.52444 -11.01282,-8.172609 -21.41464,-8.302519 -13.61104,-0.16999 -21.82969,5.809209 -22.35108,8.448469 -5.47607,27.71968 -7.99409,76.20301 -4.35662,115.93744 0,0 12.31966,108.21072 14.88191,162.56465 1.26618,26.85999 0.19387,79.95068 0.03,87.60459 3.01252,2.44994 6.06017,4.74357 8.16535,6.30219 2.20686,-1.68162 4.12305,-3.00161 5.97571,-4.56384 -0.13322,-7.53209 -1.07118,-64.6552 0.57468,-93.65825 3.00014,-52.86786 17.43301,-160.47164 17.43301,-160.47164 4.20888,-37.8818 2.86733,-75.86311 1.06166,-113.86109 l -2e-5,0 1e-5,0 z"
     id="path2898"
     style="fill:#faf700;fill-opacity:1;stroke:none" />
  <path
     d="m 77.32158,55.929587 c 0.52802,-3.179593 4.88967,-6.425562 20.49411,-5.922296 11.22466,0.36201 23.19774,1.559197 23.64014,9.601298 1.89892,34.519249 3.66168,71.561651 -0.35955,108.037031 -5.55246,50.36473 -17.82043,110.26584 -18.33683,166.18322 l -0.41381,48.12334 C 97.439655,375.16516 89.08343,361.59743 88.38306,360.38147 l -0.006,-30.59056 C 88.37106,299.40266 76.7672,219.99859 73.00383,164.86394 71.44752,142.0634 71.04722,93.708766 77.32103,55.929587 z"
     id="path2827-4-1"
     style="fill:#faf700;fill-opacity:1;stroke:none" />
</svg>
