<?xml version="1.0" encoding="UTF-8" standalone="no"?>
<!-- Created with Inkscape (http://www.inkscape.org/) -->

<svg
   xmlns:svg="http://www.w3.org/2000/svg"
   xmlns="http://www.w3.org/2000/svg"
   version="1.1"
   width="390"
   height="480"
   id="svg4228">
  <defs
     id="defs4232" />
  <path
     d="m 0.51202379,0.50512952 c 129.66265621,0 259.32532621,0 388.98797621,0 C 389.48983,115.23328 370.33544,349.8309 194.89467,479.37706 21.249382,349.77255 0.5931986,115.2575 0.51202379,0.50512952 z"
     id="path4240-0-1"
     style="fill:#d9d9d9;fill-opacity:1;stroke:#999999;stroke-width:0.99999905;stroke-opacity:1" />
  <path
     d="m 34.231351,237.89869 c 15.325059,-0.0674 20.840883,7.69916 23.164898,19.10343 3.425168,-23.78188 39.03246,-26.13249 46.183381,-0.0636 5.98001,-26.51626 40.95189,-25.13399 45.75118,0.0318 3.84972,-24.88068 41.09909,-26.42605 46.33772,0.0159 4.36621,-26.77674 42.89763,-23.75269 46.10619,0 3.93739,-23.93275 40.70598,-25.99756 46.38972,0.005 3.51179,-26.80788 41.51466,-24.68647 46.05137,-0.0225 3.1773,-11.49305 8.99191,-18.89622 22.40366,-19.85367 10.59655,-34.76238 20.40739,-79.60938 24.76587,-116.1216 -3.53326,26.17134 -45.50251,27.23494 -47.59889,-0.99338 -4.24406,28.19279 -44.50679,23.62464 -45.75117,0 -3.11266,25.08321 -42.97697,24.47194 -46.46122,-0.0318 -3.34052,26.75989 -43.5798,24.08372 -45.78204,0.0318 -1.46898,23.40374 -43.67411,28.4797 -46.55383,0 -3.14529,28.4968 -44.077,25.4117 -45.72031,-0.0318 -3.42188,25.28052 -42.057874,25.94075 -46.102582,-0.0674 -3.317541,27.02533 -45.609306,25.22909 -48.5359958,0.60385 7.6626508,59.65298 19.9712818,99.35772 25.3520488,117.39397 z"
     id="path3160"
     style="fill:#207dbf;fill-opacity:1;stroke:none" />
</svg>
