<?xml version="1.0" encoding="UTF-8" standalone="no"?>
<!-- Created with Inkscape (http://www.inkscape.org/) -->

<svg
 xmlns:dc="http://purl.org/dc/elements/1.1/"
 xmlns:cc="http://creativecommons.org/ns#"
 xmlns:rdf="http://www.w3.org/1999/02/22-rdf-syntax-ns#"
 xmlns:svg="http://www.w3.org/2000/svg"
 xmlns="http://www.w3.org/2000/svg"
 version="1.1"
 width="390"
 height="480"
 id="svg4228">
<metadata
 id="metadata8">
<rdf:RDF>
<cc:Work
 rdf:about="">
<dc:format>image/svg+xml</dc:format>
<dc:type
 rdf:resource="http://purl.org/dc/dcmitype/StillImage" />
<dc:title></dc:title>
</cc:Work>
</rdf:RDF>
</metadata>
<defs
 id="defs4232" />
<path
 d="m 0.51202379,0.50512952 c 129.66265621,0 259.32532621,0 388.98797621,0 C 389.48983,115.23328 370.33544,349.8309 194.89467,479.37706 21.249382,349.77255 0.5931986,115.2575 0.51202379,0.50512952 z"
 id="path4240-0"
 style="fill:#faf700;fill-opacity:1;stroke:#9e832a;stroke-width:0.99999905;stroke-opacity:1" />
<path
 d="m 226.12639,1.011486 1.91186,-0.00325 0.0665,27.981167 19.73041,-19.0077809 0,38.0155639 -19.75257,19.075267 0,26.9933 19.73041,-18.018028 -0.0222,37.048315 -19.70824,19.05277 0.0222,30.00755 28.64235,-0.0225 20.70584,-20.98729 35.44821,-0.0225 -18.71063,21.00978 27.62256,-0.0225 28.17133,-20.96479 28.47027,-0.0538 c -0.50133,3.12638 -0.99924,6.26644 -1.52051,9.31304 l -10.30084,11.75048 8.20342,-0.0216 c -2.59657,14.10807 -9.36693,49.15592 -21.65306,86.04886 l -4.25275,0.006 -27.21326,-20.96405 -27.58948,0 17.83912,21.02767 -35.61553,-0.0637 -19.75154,-20.96405 -28.53005,0.0318 -0.0314,30.92117 19.75156,19.08714 0.0627,37.06088 -19.72022,-18.9599 -0.0627,28.8534 19.68886,20.16876 0.0314,36.0747 -19.68886,-18.19641 0.49623,88.58812 c -7.34637,7.29336 -25.11262,22.00586 -33.70834,27.91892 -12.31568,-9.0216 -24.24636,-19.34753 -31.41766,-26.09354 l -0.51902,-91.08155 -20.62941,18.67359 -0.0627,-36.01108 20.72346,-20.0097 -0.0314,-29.01246 -20.53536,18.9599 -0.15675,-36.29738 20.66076,-19.78701 0,-30.73031 -29.34518,-0.0954 -19.18723,21.02766 -37.339857,-0.0318 18.716954,-20.96404 -26.492172,-0.12725 -26.724174,21.65492 -4.85445,0.008 C 29.230897,224.84706 19.584405,185.21366 15.821483,163.34723 l 11.365872,-0.23132 -14.073515,-14.75046 -0.958986,-5.7669 30.739695,0.0623 26.536065,19.63694 27.464074,-0.12725 -18.811009,-21.05948 35.552811,0 20.75482,21.02767 28.65544,0.0637 -0.0627,-29.1079 -20.69212,-20.0097 -0.0627,-37.124503 20.78618,19.246206 -0.0314,-28.15354 -20.75482,-20.073315 0,-35.947459 20.75869,18.032885 0.0627,-28.0581031 63.07571,0.00447 1.3e-4,1.004e-4 0,-5e-5 0,5.47e-5 0,3e-5 0,-5e-5 0,-2e-5 z"
 id="path2827"
 style="fill:#008c31;fill-opacity:1;stroke:none" />
</svg>
