<?xml version="1.0" encoding="UTF-8" standalone="no"?>
<!-- Created with Inkscape (http://www.inkscape.org/) -->

<svg
   xmlns:svg="http://www.w3.org/2000/svg"
   xmlns="http://www.w3.org/2000/svg"
   version="1.1"
   width="390"
   height="480"
   id="svg4228">
  <defs
     id="defs4232" />
  <path
     d="M 0,0 C 130,0 260,0 390,0 389.98981,114.99797 370.78556,350.14732 194.88837,479.99815 20.79131,350.08886 0.081386,115.02225 0,0 z"
     id="path4240-0"
     style="fill:#207dbf;fill-opacity:1;stroke:none" />
  <path
     d="m 130.78479,50.118023 c -7.62901,2.154556 -14.57312,5.158387 -20.08962,9.932453 -9.94876,42.325184 -13.295956,109.048914 -8.76393,176.447114 0.36604,5.44354 -10.026365,4.05614 -9.977396,-0.0899 l 0.13483,-11.41558 c 0.02766,-2.7621 -11.154313,-2.24835 -11.280751,0 l -1.803685,32.07355 c -0.377801,6.71814 12.848494,6.48415 12.902542,-0.19068 l 0.06356,-7.84958 c 0.541843,-4.1594 9.02365,-2.77325 9.88347,0.12712 13.72148,46.28582 41.71903,87.65072 75.95339,118.82415 5.72839,-2.1733 9.60842,-5.57885 12.80721,-9.43855 -12.82227,-20.76542 -46.06782,-90.25291 -45.4767,-108.49577 l 99.8517,0 c -4.09652,29.84843 -27.52613,73.74072 -45.50848,108.52754 3.45586,3.88258 7.58559,7.15256 12.90255,9.34323 35.06134,-32.29275 64.3714,-80.53996 74.62397,-115.01127 0.40232,-1.35268 3.85208,-3.27895 4.22467,0.0899 1.66612,15.06471 9.73971,29.81722 19.32558,44.22413 l 5.34825,-2.51682 c -13.44248,-41.43434 -8.20251,-68.91597 5.03364,-90.42577 l -6.83137,-3.19097 c -6.60783,10.14282 -13.30003,19.35461 -18.93873,38.98123 -1.17144,4.07743 -6.35524,2.63699 -6.22881,0 3.00276,-62.63199 0.32265,-130.70183 -9.12414,-180.37263 -5.10455,-4.450249 -14.58555,-8.855391 -21.12332,-9.61785 6.76053,57.05899 4.46239,122.46132 -8.6291,184.94139 l -110.06597,-0.0225 C 120.68749,165.92757 126.67313,107.58248 130.78479,50.117993 l 0,3e-5 z"
     id="path3715"
     style="fill:#faf700;fill-opacity:1;stroke:none" />
</svg>
