<?xml version="1.0" encoding="UTF-8" standalone="no"?>
<!-- Created with Inkscape (http://www.inkscape.org/) -->

<svg
   xmlns:svg="http://www.w3.org/2000/svg"
   xmlns="http://www.w3.org/2000/svg"
   xmlns:xlink="http://www.w3.org/1999/xlink"
   version="1.1"
   width="390"
   height="480"
   id="svg4228">
  <defs
     id="defs4232" />
  <path
     d="M 0,0 C 130,0 260,0 390,0 389.98981,114.99797 370.78556,350.14732 194.88837,479.99815 20.79131,350.08886 0.081386,115.02225 0,0 z"
     id="path4240-0"
     style="fill:#207dbf;fill-opacity:1;stroke:none" />
  <path
     d="m 122.24558,147.42011 c -0.30491,-4.25956 -4.82769,-2.81233 -5.21342,-0.17977 -1.49664,10.21445 -0.88556,26.89328 -9.70773,29.75242 -15.6387,5.06829 -61.130093,-20.80059 -57.257674,-49.07801 1.523945,-11.12824 16.584782,-8.61254 24.718775,-13.39308 2.396631,-1.40856 2.680937,-4.57237 -1.887616,-5.48307 -6.686424,-1.33288 -17.072339,3.61085 -22.471613,0.35954 C 32.10383,98.364807 57.003106,37.143891 94.201005,41.354094 101.59085,43.291507 104.20351,54.5756 106.1559,67.151506 c 0.73769,4.751659 5.07672,7.190454 6.47183,0.449432 2.24748,-10.859546 -0.32468,-29.181147 11.9549,-30.65128 30.9032,-3.699789 58.87043,39.619581 50.69594,54.111645 -4.51036,7.996155 -16.51546,6.775378 -24.62889,9.258307 -3.57285,1.09339 -6.87474,5.11887 0.89886,5.21342 8.25002,0.10034 17.0395,-1.00107 24.98844,5.75273 10.57884,8.98829 6.454,31.25429 -14.38183,53.39255 17.50477,32.69805 31.77403,75.93422 32.17935,118.91978 7.327,-64.23789 18.90967,-97.52547 31.46026,-123.77364 -9.169,-9.98499 -26.49395,-41.33497 -9.43808,-52.04426 5.45826,-3.42721 14.68107,-2.09766 22.02218,-3.14603 3.71957,-0.53119 4.95488,-4.644618 0.62921,-5.213416 -13.4051,-1.762687 -24.31468,-4.961668 -26.65589,-9.378571 -11.19243,-21.1155 38.48061,-64.271397 59.64421,-48.957738 4.70765,3.406387 4.95245,18.357823 3.14603,26.60639 -0.44761,2.043914 3.84018,6.97405 4.6741,-0.179773 1.34331,-11.523693 6.60009,-28.278286 22.83116,-27.685027 17.6205,0.644044 50.23643,43.801604 36.94333,65.617115 -4.11129,6.7471 -17.30529,3.0996 -26.42662,4.13478 -2.43201,0.27601 -2.75999,3.51065 0.0899,4.40443 8.91982,2.79742 19.02216,0.59731 26.15696,10.87626 9.71296,13.99324 -28.19772,65.27392 -60.13404,47.72971 -8.75915,-4.81184 -4.48706,-17.2998 -6.6516,-25.97718 -0.84719,-3.39628 -5.4046,-4.55543 -5.39318,-0.89887 0.019,6.08316 -0.87116,18.09908 -7.28081,23.01093 -4.57343,2.67523 -13.86687,3.0497 -21.66264,-0.0899 -21.45204,38.95133 -28.90517,86.65199 -31.28048,137.52628 -0.33504,6.02553 3.69834,7.84899 8.53921,3.59545 6.46732,-5.68265 8.50451,-20.40642 9.25831,-37.75231 5.48917,0.26169 6.93815,-4.32287 8.62909,-7.55046 6.71272,2.22422 8.16489,16.36696 12.674,16.26945 9.72876,-0.21039 -1.42174,-20.68901 2.42693,-29.66253 3.87785,-0.72112 6.3757,-7.52029 6.6516,-11.50547 1.66041,3.34295 3.71825,6.04007 7.2808,6.29205 -0.34426,2.2061 -1.44134,6.12365 4.49432,7.55047 6.62938,1.59358 6.8674,-12.05402 6.11228,-19.32559 7.80418,0.51925 6.76463,-12.08766 15.99979,-10.78638 -0.31404,2.5554 -0.65809,6.05198 3.59546,7.46058 -1.7487,5.50007 1.30545,10.89087 3.3258,13.12342 -0.0913,8.95644 -9.9127,9.18633 -13.12342,15.55036 -2.52469,5.00423 0.12156,8.29284 4.5842,6.20216 4.7778,-2.23833 8.86694,-6.83776 15.19082,-3.77523 5.41842,-2.1251 6.05869,3.55206 4.22466,6.20217 -6.53622,3.12001 -7.17669,11.6497 -13.66274,12.94365 -11.78968,2.35202 -14.31534,-1.93515 -22.29184,2.69659 -6.10318,3.54395 -2.11039,7.68645 0.89886,7.01114 3.81742,-0.85667 5.87692,-3.47127 12.49422,-1.52806 -0.0489,3.74328 4.08684,3.0637 5.3033,6.65159 -1.12212,7.27274 -11.27893,11.77541 -17.97729,9.79763 -11.34419,-3.34952 -18.97519,-3.21595 -24.35923,0.26966 -2.79951,1.8124 -0.49762,10.21433 2.87637,9.34819 4.55108,-1.16832 9.78046,-4.02522 13.48296,-0.26966 3.5528,3.60372 9.74456,4.68565 4.94376,9.16842 -5.64237,5.52339 -15.51332,11.80623 -20.13457,7.91 -9.164,-7.72627 -14.64447,-8.25541 -20.31434,-4.49432 17.66463,7.93814 15.70774,11.55068 5.12353,13.21331 -3.76332,0.59117 -0.98007,5.46845 2.78648,5.66285 6.03552,0.3115 11.46521,-3.35774 18.24695,1.70784 -5.1197,0.39571 -8.84245,2.06138 -11.32569,4.85387 1.09606,2.98562 12.47353,3.66834 10.75406,9.44809 -1.77117,5.95355 -10.33384,-5.14794 -14.43941,-4.0549 -2.5494,1.13632 -9.02066,-1.339 -6.47182,1.79772 8.64423,10.63801 -4.17673,4.92957 -3.50557,-0.44943 0.3724,-2.98461 -3.49622,-4.71539 -5.21342,0.89887 -1.21985,3.98821 1.65701,8.40692 0.89536,10.50318 -3.44345,9.47718 -11.40554,-2.39523 -9.34468,-11.13239 0.91974,-3.89932 0.77809,-9.8373 -1.54738,-11.82068 -3.7988,-3.23998 -10.70806,1.73504 -4.78679,8.3238 1.54326,1.71723 -0.29392,3.46467 -1.45379,2.93895 -9.86281,-4.47042 -10.82701,2.12214 -6.86354,7.29942 4.19993,5.48615 -4.96561,13.85604 -9.97257,10.75759 -3.21338,-1.98853 -3.60073,-10.13642 -1.17335,-11.29691 5.37364,-2.56905 3.26025,-15.92109 -3.77523,-7.9999 -5.46934,6.15789 -6.17319,-3.8176 -3.3258,-5.48307 3.81617,-2.23212 -1.17947,-9.77117 -5.84262,-3.41569 -4.0544,5.5258 1.00637,18.02662 -3.50557,23.73003 -4.14928,5.24498 -11.8862,-0.40678 -7.73023,-5.84262 6.00309,-7.85181 -3.28554,-12.55983 -4.94376,-2.87637 -1.75532,10.25051 -10.98248,5.01541 -4.49432,-3.68534 6.00709,-8.05562 -4.41766,-5.87588 -5.75273,-2.87637 -7.81499,17.55808 -15.95387,-3.58887 -4.85387,-5.39319 4.14089,-0.67311 4.42965,-5.43864 -1.25841,-5.03364 -7.65437,0.54501 -1.52922,-8.60089 4.04489,-3.955 6.10907,5.09175 19.59337,-2.42437 7.2808,-5.84262 -7.96898,-2.21237 -1.78163,-6.19152 3.14603,-5.84262 11.23026,0.79514 2.83273,-12.71484 -4.6741,-6.47183 -8.663,7.20454 -19.78269,7.15937 -24.17944,1.88762 -12.80516,-1.61875 -8.05702,-9.81919 -1.25841,-11.50547 -1.03604,-9.9037 8.76484,-4.47534 13.66275,-5.75273 9.00509,-2.34856 1.70086,-10.55486 -6.20217,-9.43808 -7.83602,1.10731 -12.17885,6.12151 -22.11207,6.29205 -8.70932,0.14953 -15.526678,-11.34594 -13.03353,-11.77512 4.91059,-0.84533 8.56937,-4.18954 10.96614,-10.06728 0.47521,-1.1654 1.71455,-1.69206 8.80888,2.69659 9.03873,0.92884 4.05105,-8.74086 -0.44944,-7.9999 -26.681034,4.40017 -29.866904,-3.88465 -37.123102,-15.99978 -1.116812,-1.86466 4.793462,1.23499 11.595352,-5.66285 2.110201,-2.13997 4.509577,2.68183 6.6516,4.76398 5.54796,5.3929 7.52691,-2.05668 4.94375,-4.13478 -7.386137,-5.94202 -17.327254,-9.79715 -9.977393,-18.87615 2.311495,-2.8553 -4.577521,-5.87694 -1.348297,-7.91001 3.284658,-2.06797 9.09928,-10.66236 13.03354,-10.6066 1.14174,0.0162 2.15682,8.55893 10.42682,13.66274 2.84695,1.75699 -2.92075,8.8127 -0.17977,16.53911 1.52151,4.28891 3.54284,3.66506 4.76398,1.52807 l 3.23592,-5.66285 c 5.23144,0.90876 6.85597,-3.94669 9.97739,-5.93251 0.79202,-0.50388 0.6255,7.24182 7.37069,10.78638 1.97506,3.37704 -3.9498,11.59261 -1.88761,21.30309 1.50305,7.07759 7.88274,6.09939 7.55044,3.41568 -0.51399,-4.1511 -0.62394,-9.21421 1.25841,-8.44932 4.63594,1.88381 6.44963,-7.9185 7.55046,-4.40444 2.1598,6.8945 11.52679,6.05678 11.05604,9.52797 -1.63351,12.04511 -0.42261,22.69269 2.96625,31.72991 2.52201,6.72555 9.21841,5.87198 9.34819,-0.44943 1.4011,-68.2463 -16.07266,-107.79034 -30.02208,-132.85218 0.67959,-2.38179 -28.1689,15.58828 -29.30296,-24.44912 l -1e-5,2e-5 z"
     id="path3754"
     style="fill:#faf700;fill-opacity:1;stroke:none" />
  <path
     d="m 280.42584,85.389876 a 3.9406818,4.0678007 12.365403 0 1 -7.69853,-1.687758 3.9406818,4.0678007 12.365403 0 1 7.69853,1.687758 z"
     id="path3756-76"
     style="fill:#207dbf;fill-opacity:1;stroke:none" />
  <path
     d="m 293.55536,91.391582 a 3.9406818,4.0678007 12.365403 0 1 -7.69853,-1.687758 3.9406818,4.0678007 12.365403 0 1 7.69853,1.687758 z"
     id="path3756-9-1"
     style="fill:#207dbf;fill-opacity:1;stroke:none" />
  <path
     d="m 299.82448,104.34822 a 3.940682,4.0678009 12.365403 0 1 -7.69853,-1.68776 3.940682,4.0678009 12.365403 0 1 7.69853,1.68776 z"
     id="path3756-8-8"
     style="fill:#207dbf;fill-opacity:1;stroke:none" />
  <path
     d="m 299.00735,117.57325 a 3.940682,4.0678009 12.365403 0 1 -7.69853,-1.68776 3.940682,4.0678009 12.365403 0 1 7.69853,1.68776 z"
     id="path3756-2-9"
     style="fill:#207dbf;fill-opacity:1;stroke:none" />
  <path
     d="m 290.47306,127.41465 a 3.940682,4.0678009 12.365403 0 1 -7.69853,-1.68776 3.940682,4.0678009 12.365403 0 1 7.69853,1.68776 z"
     id="path3756-5-2"
     style="fill:#207dbf;fill-opacity:1;stroke:none" />
  <path
     d="m 276.83111,130.2801 a 3.940682,4.0678009 12.365403 0 1 -7.69853,-1.68776 3.940682,4.0678009 12.365403 0 1 7.69853,1.68776 z"
     id="path3756-7-7"
     style="fill:#207dbf;fill-opacity:1;stroke:none" />
  <path
     d="m 264.63191,126.56455 a 3.9406818,4.0678007 12.365403 0 1 -7.69853,-1.68775 3.9406818,4.0678007 12.365403 0 1 7.69853,1.68775 z"
     id="path3756-52-9"
     style="fill:#207dbf;fill-opacity:1;stroke:none" />
  <path
     d="m 256.50357,114.37156 a 3.940682,4.0678009 12.365403 0 1 -7.69853,-1.68776 3.940682,4.0678009 12.365403 0 1 7.69853,1.68776 z"
     id="path3756-6-5"
     style="fill:#207dbf;fill-opacity:1;stroke:none" />
  <path
     d="m 258.76155,98.729516 a 3.9406818,4.0678007 12.365403 0 1 -7.69853,-1.687758 3.9406818,4.0678007 12.365403 0 1 7.69853,1.687758 z"
     id="path3756-23-4"
     style="fill:#207dbf;fill-opacity:1;stroke:none" />
  <path
     d="m 266.89611,88.93062 a 3.9406818,4.0678007 12.365403 0 1 -7.69853,-1.687758 3.9406818,4.0678007 12.365403 0 1 7.69853,1.687758 z"
     id="path3756-21-3"
     style="fill:#207dbf;fill-opacity:1;stroke:none" />
  <path
     d="m 286.41029,109.73624 a 12.330514,12.711872 12.365398 0 1 -24.08893,-5.28105 12.330514,12.711872 12.365398 1 1 24.08893,5.28105 z"
     id="path3756-85-1"
     style="fill:#207dbf;fill-opacity:1;stroke:none" />
  <use
     transform="matrix(0.90335563,0.42889231,-0.42889231,0.90335563,-90.688815,-107.08327)"
     id="use3014"
     x="0"
     y="0"
     width="390"
     height="480"
     xlink:href="#path3756-76" />
  <use
     transform="matrix(0.90335563,0.42889231,-0.42889231,0.90335563,-90.688815,-107.08327)"
     id="use3016"
     x="0"
     y="0"
     width="390"
     height="480"
     xlink:href="#path3756-9-1" />
  <use
     transform="matrix(0.90335563,0.42889231,-0.42889231,0.90335563,-90.688815,-107.08327)"
     id="use3018"
     x="0"
     y="0"
     width="390"
     height="480"
     xlink:href="#path3756-8-8" />
  <use
     transform="matrix(0.90335563,0.42889231,-0.42889231,0.90335563,-90.688815,-107.08327)"
     id="use3020"
     x="0"
     y="0"
     width="390"
     height="480"
     xlink:href="#path3756-2-9" />
  <use
     transform="matrix(0.90335563,0.42889231,-0.42889231,0.90335563,-90.688815,-107.08327)"
     id="use3022"
     x="0"
     y="0"
     width="390"
     height="480"
     xlink:href="#path3756-5-2" />
  <use
     transform="matrix(0.90335563,0.42889231,-0.42889231,0.90335563,-90.688815,-107.08327)"
     id="use3024"
     x="0"
     y="0"
     width="390"
     height="480"
     xlink:href="#path3756-7-7" />
  <use
     transform="matrix(0.90335563,0.42889231,-0.42889231,0.90335563,-90.688815,-107.08327)"
     id="use3026"
     x="0"
     y="0"
     width="390"
     height="480"
     xlink:href="#path3756-52-9" />
  <use
     transform="matrix(0.90335563,0.42889231,-0.42889231,0.90335563,-90.688815,-107.08327)"
     id="use3028"
     x="0"
     y="0"
     width="390"
     height="480"
     xlink:href="#path3756-6-5" />
  <use
     transform="matrix(0.90335563,0.42889231,-0.42889231,0.90335563,-90.688815,-107.08327)"
     id="use3030"
     x="0"
     y="0"
     width="390"
     height="480"
     xlink:href="#path3756-23-4" />
  <use
     transform="matrix(0.90335563,0.42889231,-0.42889231,0.90335563,-90.688815,-107.08327)"
     id="use3032"
     x="0"
     y="0"
     width="390"
     height="480"
     xlink:href="#path3756-21-3" />
  <use
     transform="matrix(0.90335563,0.42889231,-0.42889231,0.90335563,-90.688815,-107.08327)"
     id="use3034"
     x="0"
     y="0"
     width="390"
     height="480"
     xlink:href="#path3756-85-1" />
</svg>
