<?xml version="1.0" encoding="UTF-8" standalone="no"?>
<!-- Created with Inkscape (http://www.inkscape.org/) -->

<svg
   xmlns:svg="http://www.w3.org/2000/svg"
   xmlns="http://www.w3.org/2000/svg"
   version="1.1"
   width="390"
   height="480"
   id="svg4228">
  <defs
     id="defs4232" />
  <path
     d="M 0,0 C 130,0 260,0 390,0 389.98981,114.99797 370.78556,350.14732 194.88837,479.99815 20.79131,350.08886 0.081386,115.02225 0,0 z"
     id="path4240-0"
     style="fill:#207dbf;fill-opacity:1;stroke:none" />
  <path
     d="m 103.02966,346.93857 c 1.70501,-13.03401 14.49854,-14.74566 23.45339,-16.30298 1.11624,-5.20525 4.8217,-10.70055 7.9957,-12.56294 6.24218,-3.66269 14.37838,1.11413 20.35176,-5.61502 6.79164,-7.65095 6.65094,-21.4741 7.24576,-37.11865 0.23719,-6.23853 11.30123,-8.07486 11.82204,-16.27118 1.274,-20.04986 -15.36159,-20.69042 -15.50848,-30 -0.14387,-9.11842 15.41887,-14.08658 17.0339,-26.94916 1.08138,-8.61242 -11.18215,-13.55772 -16.36653,-18.1144 -0.11102,-0.0976 0.10544,-4.1915 0.0663,-5.86382 C 146.54,175.60639 118.2902,158.72104 106.01687,137.79661 94.415354,118.0174 95.692095,88.383757 94.957627,62.415251 94.637273,51.088525 89.312626,48.886423 79.004237,40.99576 l 227.002123,0.01589 c -9.65204,8.48069 -15.56072,12.101187 -16.17585,22.674789 -1.60692,27.621696 2.07278,61.392361 -12.74271,78.835371 -14.40404,16.9586 -31.63627,28.03522 -50.14566,35.45519 0,0 -0.0888,5.5974 -0.26779,5.79933 -5.91834,6.67606 -16.10614,9.46347 -15.6574,18.34231 0.68472,13.54806 15.76182,17.91043 16.27119,27.45763 0.5296,9.9264 -16.48723,7.25431 -15.12712,29.36441 0.65355,10.62412 10.47099,8.7938 10.80508,15.25423 0.83736,16.19242 -1.7176,28.23852 6.80272,37.53085 5.38986,5.87823 17.11393,3.46666 23.95999,6.45221 3.65769,1.59511 7.42213,9.5084 6.89874,12.64817 10.52553,1.96573 18.94336,5.48724 22.33501,16.11943 l -179.9329,-0.007 z"
     id="path2827"
     style="fill:#ececec;stroke:none" />
</svg>
