<?xml version="1.0" encoding="UTF-8" standalone="no"?>
<!-- Created with Inkscape (http://www.inkscape.org/) -->

<svg
   xmlns:svg="http://www.w3.org/2000/svg"
   xmlns="http://www.w3.org/2000/svg"
   version="1.1"
   width="390"
   height="480"
   id="svg4228">
  <defs
     id="defs4232" />
  <path
     d="M 0,0 C 130,0 260,0 390,0 389.98981,114.99797 370.78556,350.14732 194.88837,479.99815 20.79131,350.08886 0.081386,115.02225 0,0 z"
     id="path4240-0"
     style="fill:#207dbf;fill-opacity:1;stroke:none" />
  <path
     d="m 88.9726,280.98428 52.70159,-51.22749 c -51.67998,3.97897 -89.68958,-6.70305 -94.77786,-52.692 l 72.52598,1.36144 C 60.87854,123.96196 72.16972,96.357291 91.77133,71.948938 l 51.07798,53.055482 C 141.5463,84.293567 138.49577,42.718767 195.91116,31.03723 l -0.55798,70.99576 C 226.94767,69.453227 258.63912,37.671504 298.84544,75.973671 L 247.4173,125.0061 c 42.49121,0.37075 87.29559,-2.87544 93.63153,54.02901 l -70.48597,-1.46998 c 45.61234,40.08741 51.24102,74.7924 26.37427,105.39224 l -49.10048,-50.98809 c 8.05505,61.37565 -13.24277,88.50629 -53.95435,92.98754 l 1.97751,-71.97658 c -33.99911,37.58762 -68.85249,60.3678 -106.88725,28.004 l 4e-5,4e-5 z"
     id="path3761"
     style="fill:#ececec;stroke:none" />
  <path
     d="m 180.03125,177.5 15.5,-15.5625 15.4375,15.53125 -15.53125,15.5 L 180.03125,177.5 z"
     id="path3839"
     style="fill:#207dbf;fill-opacity:1;stroke:none" />
</svg>
