<?xml version="1.0" encoding="UTF-8" standalone="no"?>
<!-- Created with Inkscape (http://www.inkscape.org/) -->

<svg
   xmlns:svg="http://www.w3.org/2000/svg"
   xmlns="http://www.w3.org/2000/svg"
   version="1.1"
   width="390"
   height="480"
   id="svg4228">
  <defs
     id="defs4232" />
  <path
     d="M 0,0 C 130,0 260,0 390,0 389.98981,114.99797 370.78556,350.14732 194.88837,479.99815 20.79131,350.08886 0.081386,115.02225 0,0 z"
     id="path4240-0"
     style="fill:#207dbf;fill-opacity:1;stroke:none" />
  <path
     d="m 125.88239,120.13242 7.59346,-13.248 -0.53959,-0.538 -7.66312,13.56373 2.02173,17.26656 -5.22396,3.05404 -2.52635,-18.07241 -0.64296,0.3728 2.51497,18.09249 -6.12484,3.78887 -2.14378,-19.50474 -0.70067,0.39156 2.18483,19.41286 -4.02349,2.57895 -9.82991,-14.34045 -3.749661,-0.004 -12.216417,12.70543 0.329363,-19.50594 -0.629946,-0.49624 -0.290536,20.02531 -7.27209,-6.27243 0.607201,-17.65587 -0.582472,-0.48214 -0.666244,17.79341 -5.457922,-4.31067 0.828997,-18.02132 -6.912076,-6.51483 7.245763,-24.279661 -13.15678,-19.894067 3.177966,-5.466102 24.915255,20.084746 21.292379,-0.381356 27.83898,-19.322034 4.89407,5.974576 -12.45763,17.033898 c 0,0 17.61701,0.780527 25.16124,3.08808 3.887,1.188916 9.22436,5.492429 9.22436,5.492429 37.88855,3.595264 97.03739,-14.053506 108.9141,-15.323579 23.44363,-2.507021 12.8247,7.110027 32.44901,10.696488 l 44.67649,8.164899 -2.33999,4.733803 -11.55041,-2.247158 10.65155,4.629158 -2.15729,4.89881 -10.42682,-3.50557 9.52796,6.337 -1.43819,4.31455 -36.17929,-19.055938 c 5.40817,9.647818 14.98542,13.041988 16.2245,28.943438 l -6.47182,43.68482 c 7.73019,7.52053 15.78995,14.84332 25.8873,20.94355 -1.12132,16.11219 -2.46373,32.22439 0.13542,48.33658 l -12.64831,14.42797 -21.92797,0.12711 c -5.41414,-8.06325 -11.65374,-1.5988 -12.90254,-0.0635 l -7.29069,-0.0558 c 1.01209,-8.72716 7.34269,-21.38822 15.8712,-25.8128 28.92642,12.34302 6.87135,-13.21374 9.47035,-25.67797 -21.48659,-7.27136 -43.65155,-15.00952 -64.21806,-22.51091 3.18904,-24.10308 3.41549,-41.80363 -3.44503,-49.46005 l -0.31361,0.41905 c 3.25197,4.1669 6.18838,14.31237 4.87771,29.46711 l -8.94458,-14.17159 -0.51486,0.31648 8.89445,14.19686 -6.7277,-0.0481 -6.56043,-10.8475 -0.44905,0.23881 6.39063,10.67544 -7.49042,0.0225 -5.34538,-8.34196 -0.54278,0.30622 5.2128,8.03574 -7.41915,0.0524 -4.33867,-6.14404 -0.55369,0.33575 4.24333,5.8452 -41.89715,0.28188 1.89587,-7.73694 c -3.01943,-6.45943 -6.35053,-10.84106 -9.72458,-14.93644 l -0.76205,0.5457 c 3.57084,4.3585 7.21425,8.53522 9.49667,14.4164 l -20.25615,85.4462 -10.46998,12.85441 -24.40678,-0.38136 c -0.7832,-2.33071 -2.61483,-5.09923 -9.00361,-0.0835 -1.42424,-5.95726 -6.08077,-3.01027 -8.07522,-0.0591 -1.88626,-8.9929 5.25115,-23.79011 13.39239,-23.75576 27.46067,15.11239 8.88638,-12.15567 12.33051,-20.59322 12.69314,-31.09612 2.58705,-36.69592 0.13417,-39.71302 l -0.59704,0.61887 c 2.63741,2.78957 5.84536,6.44778 5.54057,11.59797 l -48.140075,72.7568 -22.403726,0.37497 c -1.521476,-3.73274 -6.194228,-5.16421 -8.906017,-0.14892 -2.603151,-5.76723 -7.123029,-3.46432 -9.625107,-0.29522 1.116708,-11.85439 10.354038,-18.17347 16.751463,-24.34399 23.974721,13.25896 18.966258,-13.78827 21.737288,-24.15255 2.742338,-10.25696 8.046249,-16.53113 12.076274,-24.78813 -5.329426,-7.8728 -10.813851,-24.15632 -11.758477,-37.62712 l 5.752118,-6.21293 3.370579,-0.0213 9.8775,14.68207 17.47374,-10.72069 -2.05337,-17.2977 0,-8e-5 z"
     id="path2827"
     style="fill:#ececec;stroke:none" />
  <path
     d="m 240.46544,248.89179 25.2581,0.53932 37.2837,-38.2815 -14.75679,-16.95769 -41.98469,-15.46952 c 0.80412,-4.93212 1.54642,-13.68768 1.9732,-18.84932 l -16.903,0.0101 -3.90686,12.59981 42.35739,39.19049 c -9.32405,15.04543 -15.6297,23.53387 -30.67631,11.86462 -6.75358,4.83634 -13.1515,10.45243 -15.57205,24.78814 l 8.19917,0.3178 c 5.31488,-7.31327 8.16645,-0.24844 8.72814,0.24772 l 0,3e-5 0,3e-5 0,-2e-5 z"
     id="path3623"
     style="fill:#ececec;stroke:none" />
  <path
     d="m 232.05509,243.4322 c -0.0802,-1.80421 6.8086,-12.11102 9.59746,-12.9661 1.63758,-0.50209 3.52432,0.77874 4.5127,1.97034 -6.6596,-2.08702 -13.09395,8.68615 -14.11016,10.99576 z"
     id="path3625"
     style="fill:#207dbf;fill-opacity:1;stroke:none" />
  <path
     d="m 294.4707,246.28479 c -0.0802,-1.80421 6.80861,-12.11102 9.59745,-12.9661 1.63758,-0.50209 3.52431,0.77874 4.51272,1.97034 -6.65961,-2.08702 -13.09396,8.68615 -14.11017,10.99576 z"
     id="path3625-7"
     style="fill:#207dbf;fill-opacity:1;stroke:none" />
  <path
     d="m 119.7779,242.69368 c -0.0802,-1.80421 4.80649,-9.7911 7.59533,-10.64618 1.63757,-0.50209 3.52432,0.77874 4.51271,1.97034 -6.75494,-1.6421 -11.7592,6.74759 -12.10804,8.67584 z"
     id="path3625-0"
     style="fill:#207dbf;fill-opacity:1;stroke:none" />
  <path
     d="m 62.320264,244.18734 c -0.0802,-1.80421 6.84039,-11.28475 9.62923,-12.13983 1.63757,-0.50209 3.52432,0.77874 4.51271,1.97034 -6.6596,-2.08702 -14.460475,9.44886 -14.14194,10.16949 z"
     id="path3625-4"
     style="fill:#207dbf;fill-opacity:1;stroke:none" />
  <path
     d="m 116.52737,93.491903 c -4.70748,-1.731767 -10.46341,0.358793 -9.91525,7.245767 2.41087,0.0168 9.68299,-2.79583 9.91525,-7.245767 z"
     id="path3669"
     style="fill:#207dbf;fill-opacity:1;stroke:none" />
  <path
     d="m 83.053847,92.83113 c 4.707479,-1.731767 10.463409,0.358793 9.915249,7.24576 -2.41087,0.0168 -9.682989,-2.795823 -9.915249,-7.24576 z"
     id="path3669-8"
     style="fill:#207dbf;fill-opacity:1;stroke:none" />
  <path
     d="m 104.96673,107.30664 c 0.51551,-0.0131 0.9676,0.14618 1.12536,-0.78708 0.21591,-1.27726 0.44647,-4.06956 0.46843,-5.30379 -0.44263,1.56266 -0.47525,3.58855 -0.92315,5.26148 -0.11577,0.43241 -0.1119,0.79479 -1.32083,0.45899 -1.20893,-0.3358 -7.193789,-0.39282 -8.476477,0.0217 -0.230368,0.0744 -0.68152,-0.0579 -1.02469,-0.49102 -0.34317,-0.43311 -1.316803,-4.30229 -1.82315,-5.79632 0.150753,1.37436 0.806038,4.61609 1.339223,5.76812 0.22249,0.48073 0.586479,0.87884 0.873468,0.92607 1.692577,0.27857 4.052649,1.04478 4.154196,4.08442 0.01968,0.58896 0.215844,1.07052 -0.270128,1.77966 -1.590139,2.32038 -4.689348,3.02813 -7.372882,4.06779 2.627119,-0.38732 5.254237,-0.65377 7.881356,-2.35169 2.305614,1.36706 4.997944,1.57398 7.627124,1.97034 -2.59178,-0.80091 -5.32305,-1.47098 -6.99153,-3.81356 -0.341321,-0.47922 -0.0906,-1.07177 -0.0635,-1.65254 0.11248,-2.42063 2.20067,-4.07676 4.79718,-4.14252 l 0,-5e-5 z"
     id="path3693"
     style="fill:#207dbf;fill-opacity:1;stroke:none" />
</svg>
