<?xml version="1.0" encoding="UTF-8" standalone="no"?>
<!-- Created with Inkscape (http://www.inkscape.org/) -->

<svg
 xmlns:dc="http://purl.org/dc/elements/1.1/"
 xmlns:cc="http://creativecommons.org/ns#"
 xmlns:rdf="http://www.w3.org/1999/02/22-rdf-syntax-ns#"
 xmlns:svg="http://www.w3.org/2000/svg"
 xmlns="http://www.w3.org/2000/svg"
 version="1.1"
 width="390"
 height="480"
 id="svg4228">
<metadata
 id="metadata14">
<rdf:RDF>
<cc:Work
 rdf:about="">
<dc:format>image/svg+xml</dc:format>
<dc:type
 rdf:resource="http://purl.org/dc/dcmitype/StillImage" />
<dc:title></dc:title>
</cc:Work>
</rdf:RDF>
</metadata>
<defs
 id="defs4232" />
<path
 d="M 0,0 C 130,0 260,0 390,0 389.98981,114.99797 370.78556,350.14732 194.88837,479.99815 20.79131,350.08886 0.081386,115.02225 0,0 z"
 id="path4240-0"
 style="fill:#d61a1a;fill-opacity:1;stroke:none" />
<path
 d="M 156.67209,158.97052 178.02013,145.5325 C 130.48723,92.164954 150.11138,22.737887 194.51445,22.915717 239.07814,23.09419 266.03967,80.764032 214.01965,145.51 l 19.61772,14.49419 c 50.92178,-79.571995 114.797,-53.39331 123.08862,-17.9905 7.65085,32.66696 -28.27581,84.96007 -118.12239,51.02377 l -6.38194,22.92105 c 99.78561,25.1264 92.76024,92.61159 60.45625,114.89956 -19.89243,13.72468 -86.14746,7.5114 -82.88292,-95.57398 l -28.67378,-0.0899 C 182.41707,332.81643 127.38145,344.26832 99.250703,330.4588 64.146574,313.22601 57.960562,244.59802 157.16647,215.32928 L 149.61601,193.3071 C 59.307727,225.74916 22.945277,173.99478 35.509485,137.50377 47.248486,103.40947 107.03584,86.928263 156.67209,158.97047 l 0,5e-5 z"
 id="path2827"
 style="fill:#faf700;fill-opacity:1;stroke:none" />
<path
 d="m 196.13225,126.02714 c 25.96886,-34.461612 22.73095,-74.7779 0.80897,-74.785532 -24.82704,-0.0086 -24.91707,41.056656 -0.80897,74.785532 z"
 id="path2829"
 style="fill:#d61a1a;fill-opacity:1;stroke:none" />
<path
 d="m 257.64492,170.87254 c 40.74623,14.20314 78.14734,-1.1931 71.4594,-22.06999 -7.57387,-23.64357 -46.70493,-11.1874 -71.4594,22.06999 z"
 id="path2829-1"
 style="fill:#d61a1a;fill-opacity:1;stroke:none" />
<path
 d="m 132.92898,171.14802 c -40.746233,14.20314 -78.14734,-1.1931 -71.4594,-22.06999 7.57387,-23.64357 46.70493,-11.1874 71.4594,22.06999 z"
 id="path2829-1-7"
 style="fill:#d61a1a;fill-opacity:1;stroke:none" />
<path
 d="m 154.0733,242.59413 c 2.09406,43.09989 -23.25529,74.61651 -41.38683,62.29496 -20.534491,-13.95408 2.4844,-47.96182 41.38683,-62.29496 z"
 id="path2829-1-7-4"
 style="fill:#d61a1a;fill-opacity:1;stroke:none" />
<path
 d="m 237.14176,243.35264 c -2.09406,43.09989 23.25529,74.61651 41.38683,62.29496 20.53449,-13.95408 -2.4844,-47.96182 -41.38683,-62.29496 z"
 id="path2829-1-7-4-0"
 style="fill:#d61a1a;fill-opacity:1;stroke:none" />
<path
 d="m 195.87242,168.01283 22.14877,17.0319 -6.43265,25.4382 -32.82112,0 -6.72505,-25.5113 23.83005,-16.9588 z"
 id="path2919"
 style="fill:#d61a1a;fill-opacity:1;stroke:none" />
</svg>
