<?xml version="1.0" encoding="UTF-8" standalone="no"?>
<!-- Created with Inkscape (http://www.inkscape.org/) -->

<svg
   xmlns:svg="http://www.w3.org/2000/svg"
   xmlns="http://www.w3.org/2000/svg"
   version="1.1"
   width="390"
   height="480"
   id="svg4228">
  <defs
     id="defs4232" />
  <path
     d="m 0.51202379,0.50512952 c 129.66265621,0 259.32532621,0 388.98797621,0 C 389.48983,115.23328 370.33544,349.8309 194.89467,479.37706 21.249382,349.77255 0.5931986,115.2575 0.51202379,0.50512952 z"
     id="path4240-0-1"
     style="fill:#d9d9d9;fill-opacity:1;stroke:#999999;stroke-width:0.99999905;stroke-opacity:1" />
  <path
     d="M 353.074,34.028354 C 251.92927,77.813373 148.96783,79.36014 43.988184,33.98341 40.194728,75.353651 41.143897,116.72389 45.010643,158.09413 93.39083,132.06778 169.70996,107.93632 171.03814,122.06381 c 7.80266,82.99491 -9.43726,163.60426 -37.05509,242.86204 l 129.02543,0.0953 c -28.49179,-79.42787 -44.33469,-160.07606 -37.05509,-243.38049 1.22035,-13.96514 87.08417,14.48951 126.04197,36.45343 3.44078,-40.47489 4.34028,-81.675866 1.07864,-124.065736 z"
     id="path2827"
     style="fill:#207dbf;fill-opacity:1;stroke:none" />
</svg>
