<?xml version="1.0" encoding="UTF-8" standalone="no"?>
<!-- Created with Inkscape (http://www.inkscape.org/) -->

<svg
   xmlns:svg="http://www.w3.org/2000/svg"
   xmlns="http://www.w3.org/2000/svg"
   version="1.1"
   width="390"
   height="480"
   id="svg4228">
  <defs
     id="defs4232" />
  <path
     d="m 0.51202379,0.50512952 c 129.66265621,0 259.32532621,0 388.98797621,0 C 389.48983,115.23328 370.33544,349.8309 194.89467,479.37706 21.249382,349.77255 0.5931986,115.2575 0.51202379,0.50512952 z"
     id="path4240-0-1"
     style="fill:#d9d9d9;fill-opacity:1;stroke:#999999;stroke-width:0.99999905;stroke-opacity:1" />
  <path
     d="m 129.29891,417.10782 c 33.95879,-80.47705 -43.868017,-150.14831 16.52426,-236.38666 45.03116,-6.83685 84.27744,-39.00683 63.97182,-71.4129 -2.24366,-3.5807 -3.29366,7.46166 -4.04489,11.32569 -10.77895,-1.91263 12.89767,-2.7189 -64.04411,-86.515716 -3.30934,-3.621708 5.48858,-7.940448 -10.9661,-9.617851 17.0248,-20.529389 55.32428,29.516359 68.53842,28.089518 16.944,-1.829585 14.25868,-14.709101 13.3032,-19.325588 -1.53392,-7.411199 -3.30137,-10.067284 -6.56171,-17.437973 13.08599,10.47235 19.0611,16.912881 21.30308,30.920941 2.26737,-1.627715 3.45487,-4.33529 3.3258,-8.359441 4.10916,4.116105 4.18799,11.722763 3.68535,17.348086 4.73401,-0.03 11.83506,-0.05989 15.64024,5.033642 -4.8936,0.182389 -8.47666,1.080173 -10.51671,6.022392 10.97957,0.386285 15.8038,7.748612 19.68513,16.179562 -5.23465,-4.091123 -10.12671,-6.469321 -13.9324,-3.415685 5.31193,15.427187 15.18867,34.869083 13.85755,47.924633 -3.90919,38.34112 -70.74104,50.34407 -65.17178,92.40178 2.34326,17.69578 42.14758,60.83002 60.95228,204.32323 -25.15851,28.61737 -49.70422,47.0003 -59.93956,54.56046 -15.81052,-11.2988 -46.57113,-37.80253 -65.60987,-61.65812 z"
     id="path4272"
     style="fill:#000000;stroke:none" />
  <path
     d="m 197.38891,87.327719 c -2.20857,-3.886452 -3.6974,-9.34997 -0.62921,-8.539215 22.18054,5.861102 19.04342,-27.462069 -2.69659,-11.865013 -3.2442,2.327501 -0.92069,-10.411394 -0.36858,-14.986581 -14.94981,-6.320705 -47.52487,-44.9597042 -62.0754,-27.718518 18.49087,-1.365301 45.31774,34.482026 55.52272,46.929763 -16.43859,-17.516486 -27.12787,-32.280659 -44.86612,-43.26623 0,0 -1.15989,3.932093 0.43401,5.544763 14.34355,14.512387 29.18538,32.535325 44.9895,52.453812 3.50205,4.41376 9.68967,1.447219 9.68967,1.447219 z"
     id="path4274-4"
     style="fill:#ececec;stroke:none" />
  <path
     d="m 207.07627,71.122878 a 4.353815,4.4491539 0 1 1 -8.70763,0 4.353815,4.4491539 0 1 1 8.70763,0 z"
     id="path4342"
     style="fill:#000000;fill-opacity:1;stroke:none" />
  <path
     d="m 53.88958,180.85788 c 45.03116,-6.83685 84.21103,-39.14355 63.90541,-71.54962 -2.24366,-3.5807 -3.29366,7.46166 -4.04489,11.32569 -10.77895,-1.91263 12.89767,-2.7189 -64.04411,-86.515716 -3.30934,-3.621708 5.48858,-7.940448 -10.9661,-9.617851 17.0248,-20.529389 55.32428,29.516359 68.53842,28.089518 16.944,-1.829585 14.25868,-14.709101 13.3032,-19.325588 -1.53392,-7.411199 -3.30137,-10.067284 -6.56171,-17.437973 13.08599,10.47235 19.0611,16.912881 21.30308,30.920941 2.26737,-1.627715 3.45487,-4.33529 3.3258,-8.359441 4.10916,4.116105 4.18799,11.722763 3.68535,17.348086 4.73401,-0.03 11.83506,-0.05989 15.64024,5.033642 -4.8936,0.182389 -8.47666,1.080173 -10.51671,6.022392 10.97957,0.386285 15.8038,7.748612 19.68513,16.179562 -5.23465,-4.091123 -10.12671,-6.469321 -13.9324,-3.415685 5.31193,15.427187 15.28242,34.888613 13.9513,47.944163 -3.90919,38.34112 -74.839336,51.12761 -69.024585,96.8589 C 100.86973,245.851 147.43461,349.02828 123.5247,410.17252 69.348452,344.79619 41.007119,265.48316 27.916542,216.07851 32.615724,200.16348 44.30719,186.98287 53.88958,180.85788 z"
     id="path4272-8"
     style="fill:#000000;stroke:none" />
  <path
     d="m 105.38891,87.327719 c -2.20857,-3.886452 -3.6974,-9.34997 -0.62921,-8.539215 22.18054,5.861102 19.04342,-27.462069 -2.69659,-11.865013 -3.2442,2.327501 -0.92069,-10.411394 -0.36858,-14.986581 C 86.74472,45.616205 54.16966,6.9772058 39.61913,24.218392 58.11,22.853091 84.93687,58.700418 95.14185,71.148155 78.70326,53.631669 68.01398,38.867496 50.27573,27.881925 c 0,0 -1.15989,3.932093 0.43401,5.544763 14.34355,14.512387 29.18538,32.535325 44.9895,52.453812 3.50205,4.41376 9.68967,1.447219 9.68967,1.447219 z"
     id="path4274-4-8"
     style="fill:#ececec;stroke:none" />
  <path
     d="m 115.07627,71.122878 a 4.353815,4.4491539 0 1 1 -8.70763,0 4.353815,4.4491539 0 1 1 8.70763,0 z"
     id="path4342-2"
     style="fill:#000000;fill-opacity:1;stroke:none" />
  <path
     d="M 261.87426,416.20164 C 247.06441,278.40791 192.79623,250.13906 239.79583,180.85788 c 47.18843,-8.99412 76.77987,-29.73367 63.99916,-71.54962 -1.23511,-4.04103 -3.29366,7.46166 -4.04489,11.32569 -10.77895,-1.91263 12.89767,-2.7189 -64.04411,-86.515716 -3.30934,-3.621708 5.48858,-7.940448 -10.9661,-9.617851 17.0248,-20.529389 55.32428,29.516359 68.53842,28.089518 16.944,-1.829585 14.25868,-14.709101 13.3032,-19.325588 -1.53392,-7.411199 -3.30137,-10.067284 -6.56171,-17.437973 13.08599,10.47235 19.0611,16.912881 21.30308,30.920941 2.26737,-1.627715 3.45487,-4.33529 3.3258,-8.359441 4.10916,4.116105 4.18799,11.722763 3.68535,17.348086 4.73401,-0.03 11.83506,-0.05989 15.64024,5.033642 -4.8936,0.182389 -8.47666,1.080173 -10.51671,6.022392 10.97957,0.386285 15.8038,7.748612 19.68513,16.179562 -5.23465,-4.091123 -10.12671,-6.469321 -13.9324,-3.415685 5.31193,15.427187 15.18867,34.888613 13.85755,47.944163 -3.90919,38.34112 -57.7227,43.66064 -55.13263,84.32289 0.87736,13.77391 25.84215,23.5965 46.62499,60.92728 -18.95394,53.20727 -53.55544,111.40123 -82.68594,143.45147 z"
     id="path4272-1"
     style="fill:#000000;stroke:none" />
  <path
     d="m 291.38891,87.327719 c -2.20857,-3.886452 -3.6974,-9.34997 -0.62921,-8.539215 22.18054,5.861102 19.04342,-27.462069 -2.69659,-11.865013 -3.2442,2.327501 -0.92069,-10.411394 -0.36858,-14.986581 -14.94981,-6.320705 -47.52487,-44.9597042 -62.0754,-27.718518 18.49087,-1.365301 45.31774,34.482026 55.52272,46.929763 -16.43859,-17.516486 -27.12787,-32.280659 -44.86612,-43.26623 0,0 -1.15989,3.932093 0.43401,5.544763 14.34355,14.512387 29.18538,32.535325 44.9895,52.453812 3.50205,4.41376 9.68967,1.447219 9.68967,1.447219 z"
     id="path4274-4-1"
     style="fill:#ececec;stroke:none" />
  <path
     d="m 301.07627,71.122878 a 4.353815,4.4491539 0 1 1 -8.70763,0 4.353815,4.4491539 0 1 1 8.70763,0 z"
     id="path4342-5"
     style="fill:#000000;fill-opacity:1;stroke:none" />
</svg>
