<?xml version="1.0" encoding="UTF-8" standalone="no"?>
<!-- Created with Inkscape (http://www.inkscape.org/) -->

<svg
   xmlns:svg="http://www.w3.org/2000/svg"
   xmlns="http://www.w3.org/2000/svg"
   xmlns:xlink="http://www.w3.org/1999/xlink"
   version="1.1"
   width="390"
   height="480"
   id="svg4228">
  <defs
     id="defs4232" />
  <path
     d="M 0,0 C 130,0 260,0 390,0 389.98981,114.99797 370.78556,350.14732 194.88837,479.99815 20.79131,350.08886 0.081386,115.02225 0,0 z"
     id="path4240-0"
     style="color:#000000;fill:#207dbf;fill-opacity:1;fill-rule:nonzero;stroke:none;marker:none;visibility:visible;display:inline;overflow:visible;enable-background:accumulate" />
  <use
     transform="matrix(-1,0,0,1,391.6006,0)"
     id="use3763"
     x="0"
     y="0"
     width="390"
     height="480"
     xlink:href="#path2827-0" />
  <use
     transform="matrix(-1,0,0,1,391.6006,0)"
     id="use3765"
     x="0"
     y="0"
     width="390"
     height="480"
     xlink:href="#path2895-9" />
  <path
     d="m 253.54975,68.00847 c 29.13338,20.627538 32.17999,22.033148 69.32329,-22.69255 -8.02304,41.151467 -12.43834,80.38945 -13.5182,122.41713 -11.31744,-7.16487 -43.77887,78.9786 -55.48729,110.65678 -20.29745,-13.62446 -6.91825,47.43394 9.40678,80.59322 -6.27119,-3.4836 -13.30508,-7.57102 -19.57627,-12.9661 -3.1212,6.83255 -4.44721,13.12653 -12.01271,21.29237 l -9.99876,-59.67381 c -5.34051,-31.87283 14.00353,-35.59348 0.0835,-41.70331 35.86666,-30.43165 57.0433,-137.70332 22.86616,-132.08494 13.70079,-21.0331 10.6169,-43.494693 8.9135,-65.83879 z"
     id="path2827-0"
     style="fill:#f2f2f2;stroke:none" />
  <path
     d="m 291.17687,113.8983 c 1.8702,23.86074 2.35923,38.97076 -3.51571,56.76938 -0.99131,3.00327 -41.77995,79.82653 -52.62446,113.83927 -1.50598,4.72335 -1.76689,17.07642 -1.76689,17.07642 0,0 -2.49128,-13.87779 -0.51486,-18.20507 20.45342,-44.78185 51.58677,-110.71874 52.28526,-113.39669 3.97591,-15.24339 5.88884,-33.07432 6.13666,-56.08331 z"
     id="path2895-9"
     style="fill:#207dbf;fill-opacity:1;stroke:none" />
</svg>
