<?xml version="1.0" encoding="UTF-8" standalone="no"?>
<!-- Created with Inkscape (http://www.inkscape.org/) -->

<svg
   xmlns:svg="http://www.w3.org/2000/svg"
   xmlns="http://www.w3.org/2000/svg"
   version="1.1"
   width="390"
   height="480"
   id="svg4228">
  <defs
     id="defs4232" />
  <path
     d="M 0,0 C 130,0 260,0 390,0 389.98981,114.99797 370.78556,350.14732 194.88837,479.99815 20.79131,350.08886 0.081386,115.02225 0,0 z"
     id="path4240-0"
     style="color:#000000;fill:#207dbf;fill-opacity:1;fill-rule:nonzero;stroke:none;marker:none;visibility:visible;display:inline;overflow:visible;enable-background:accumulate" />
  <path
     d="m 127.93774,335.13619 c 3.87105,14.50416 21.57648,25.00942 31.28404,38.40467 6.76851,9.33972 13.75086,23.25619 19.72764,37.12062 30.11672,-20.7393 34.56212,-57.62164 51.1284,-76.22568 13.56541,-15.23406 28.5012,-29.45674 39.33851,-51.01168 8.0399,-0.0444 32.58749,0.87747 33.21013,-3.56031 3.02875,-21.58706 -0.007,-42.25388 -2.74319,-62.74319 -1.08079,-8.09454 30.51487,-8.57393 29.64979,-13.77432 -7.16737,-43.08646 -45.25299,-68.89811 -35.60311,-75.99222 C 307.06066,117.70106 344.3673,72.332222 335.9533,65.019458 278.80729,15.352786 242.44449,45.654546 222.60699,35.836579 152.92991,1.3520133 39.304435,44.928491 39.455253,66.186774 c 0.02593,3.654192 4.471117,6.039714 11.322957,7.237354 l -0.04377,4.698443 c -7.52852,-0.446595 -15.617316,-0.08639 -18.195525,8.200389 7.732699,0.2355 15.015999,-1.510023 20.661478,1.984436 6.49595,4.020887 -5.372673,6.778434 -6.361868,10.972762 -2.470037,10.473312 16.291991,9.116982 17.714008,17.334632 1.064321,6.15058 2.842145,19.79957 -6.770428,33.61867 11.008877,-0.16274 17.543793,-20.6269 16.10895,-36.1284 31.879505,4.20394 57.762455,-0.58228 65.521785,9.81027 11.78989,15.79094 28.11312,30.56347 44.86139,42.0137 0.9964,14.25263 -3.65271,24.87899 -5.81919,37.39137 -1.17897,6.80915 -0.67465,19.30868 2.47625,24.92757 1.52957,2.72764 14.27943,1.39691 25.07204,0 -3.7602,17.13857 -18.85347,27.43881 -13.97018,47.00747 5.58385,2.27708 12.8038,3.51301 21.81163,3.6112 -0.0774,15.36728 -1.44482,42.1495 -12.59963,42.32013 -12.27406,0.18775 -48.76048,-0.16467 -73.30741,13.94942 z"
     id="path2849"
     style="fill:#ededed;fill-opacity:1;stroke:none" />
  <path
     d="m 114.15703,47.605583 a 6.7290674,6.4814423 0 1 1 -13.45813,0 6.7290674,6.4814423 0 1 1 13.45813,0 z"
     id="path3623"
     style="opacity:0.98999999;fill:none;stroke:#207dbf;stroke-width:2.66598725;stroke-miterlimit:4;stroke-opacity:1;stroke-dasharray:none" />
  <path
     d="m 59.698243,74.534794 0.04127,5.716009 c 3.071188,1.047718 7.813007,1.680909 8.336706,0.185719 0.564889,-1.612788 0.500475,-3.465443 0.536521,-5.096947 -2.81972,0.06326 -5.724652,0.118518 -8.914498,-0.804781 z"
     id="path3625"
     style="fill:#207dbf;fill-opacity:1;stroke:none" />
  <path
     d="m 73.864455,76.371346 c -0.310412,1.666849 -0.168213,3.277122 -0.05159,4.890592 2.333903,0.494551 5.953751,0.623052 7.593831,0 0.776226,-2.441996 -1.568981,-6.058465 -7.542243,-4.890592 z"
     id="path3627"
     style="fill:#207dbf;fill-opacity:1;stroke:none" />
  <path
     d="m 86.410788,77.681698 -0.06191,3.6731 c 1.382573,0.536522 8.123023,0.790562 8.109717,-0.309527 l -0.03095,-2.558792 c -0.0117,-0.967134 -4.422987,0.293209 -8.016857,-0.804781 z"
     id="path3629"
     style="fill:#207dbf;fill-opacity:1;stroke:none" />
  <path
     d="m 87.989392,92.714592 c -0.245577,1.04586 -0.527972,2.623044 0.02063,4.127082 1.316534,0.638662 7.237992,1.939427 8.316071,-2.641332 -5.000256,-0.317128 -5.190211,-1.831878 -8.336706,-1.48575 z"
     id="path3631"
     style="fill:#207dbf;fill-opacity:1;stroke:none" />
  <path
     d="m 80.663826,92.63205 c -0.331887,1.145629 -0.454391,2.376179 -0.08254,3.900093 -2.064266,0.436 -4.825159,0.579817 -6.809686,-0.515885 0.144442,-0.787612 0.296607,-1.538543 0.226989,-3.342937 1.775432,0.404507 4.499175,0.481353 6.665238,-0.04127 z"
     id="path3633"
     style="fill:#207dbf;fill-opacity:1;stroke:none" />
  <path
     d="m 62.814194,91.86854 c 5.12752,-0.993293 6.661458,3.246786 5.901728,4.292166 -0.797303,1.09708 -5.901728,0.288896 -5.901728,0.288896 -0.499399,-1.527021 -0.399737,-3.322302 0,-4.581062 z"
     id="path3635"
     style="fill:#207dbf;fill-opacity:1;stroke:none" />
</svg>
