<?xml version="1.0" encoding="UTF-8" standalone="no"?>
<!-- Created with Inkscape (http://www.inkscape.org/) -->

<svg
   xmlns:svg="http://www.w3.org/2000/svg"
   xmlns="http://www.w3.org/2000/svg"
   version="1.1"
   width="390"
   height="480"
   id="svg4228">
  <defs
     id="defs4232" />
  <path
     d="M 0,0 C 130,0 260,0 390,0 389.98981,114.99797 370.78556,350.14732 194.88837,479.99815 20.79131,350.08886 0.081386,115.02225 0,0 z"
     id="path4240-0"
     style="fill:#008c31;fill-opacity:1;stroke:none" />
  <path
     d="m 162.01271,352.94491 c -17.85706,-4.69185 -26.92622,8.72711 -44.11017,5.08475 9.14789,17.46068 25.25213,26.08491 52.11865,21.03814 -10.02511,9.53053 -13.48779,18.78762 -12.01272,27.83898 8.52077,-9.50858 15.0945,-5.56705 29.04662,-13.98305 -8.52591,21.94681 -5.43378,28.63851 9.47033,46.01695 16.19615,-17.89081 18.8049,-25.4922 12.58475,-45.88983 8.89355,8.74023 16.44303,4.85895 26.03991,11.88265 -0.72917,-8.96088 -2.17954,-17.92177 -8.11618,-26.88265 21.63171,8.90647 34.40545,-5.03132 47.14333,-19.06156 -21.93214,1.12969 -29.37596,-7.74147 -48.19206,-6.0126 20.13791,-18.23094 17.33755,-38.48596 12.87076,-51.89618 -9.67523,10.12935 -19.54584,19.9982 -27.83898,31.97034 1.91505,-161.87887 65.23761,-137.48728 66.99153,-106.08051 -17.23975,-21.9941 -33.27661,-10.05671 -34.95763,-6.1017 4.26207,-0.19499 10.49608,-1.1546 12.83898,2.09746 -8.98398,1.93272 -14.69782,6.56687 -15.88983,14.93644 5.14292,-3.04834 11.20603,-6.05113 20.72034,-3.24153 -14.20932,2.94696 -27.03921,29.93109 -13.04401,47.50562 13.99521,17.57453 13.56932,36.12742 23.34062,36.83761 2.65072,0.19266 16.45434,2.05171 22.33818,-2.5271 12.98562,-10.10542 11.19583,-21.07216 22.60438,-35.86446 11.40855,-14.79229 6.24877,-33.09636 -12.94044,-47.60421 7.17083,-6.59968 15.84567,-0.67505 22.97669,2.95551 -2.75121,-8.54002 -8.28636,-14.89572 -21.99152,-14.8411 1.82513,-4.20241 8.79647,-5.92811 15.09534,-7.1822 -8.72643,-2.61155 -18.2481,-5.92147 -31.7161,11.02754 -3.97397,-42.99464 -84.06265,-60.21657 -84.56568,96.99153 -7.60167,-125.82232 45.95713,-193.99605 59.23729,-190.90043 -0.29661,5.63559 -3.4261,18.61527 -0.88984,16.90678 5.41263,-3.64609 -0.45992,16.00724 2.98729,13.91949 5.89608,-3.57088 1.95391,13.71078 5.14831,12.33051 7.55155,-3.26296 5.18893,13.90451 8.8983,11.88559 9.79168,-5.32938 7.31757,13.75952 11.12288,11.05933 7.32491,-5.19765 10.52263,8.29951 12.20339,5.78389 4.28504,-6.41348 16.13949,4.12295 16.20763,0.95339 0.19145,-8.90552 16.11683,0.71205 16.08051,-2.86017 -0.0802,-7.8857 9.44771,-3.16288 14.17373,-5.40254 0.38735,-5.9582 -6.26415,-18.5903 -0.54119,-18.02904 4.9445,0.48491 -10.16252,-18.40672 -3.65373,-17.75486 5.18956,0.51974 -14.27291,-14.5179 -8.64406,-14.80932 7.2406,-0.37487 -20.2991,-9.88496 -13.22034,-12.21242 7.29666,-2.39911 -19.48704,-3.28735 -15.38136,-6.29237 4.33408,-3.17219 -11.81806,0.2152 -11.05932,-3.61385 0.82262,-4.15143 13.70472,1.5972 12.52119,-1.08051 -2.94203,-6.65626 19.70284,-3.68071 17.86016,-5.72034 -4.67759,-5.17753 16.67895,-5.47782 13.34746,-8.19915 -5.36417,-4.38172 16.75645,-10.728604 13.85593,-12.711867 -9.26334,-6.333923 11.38632,-16.97914 6.99153,-18.368644 -6.73919,-2.130735 7.72947,-17.540758 3.05085,-16.906779 -10.40712,1.410224 3.77912,-17.407479 0.12712,-16.90678 -9.19594,1.260788 -1.59761,-7.32704 -1.27119,-16.144068 -6.81479,-2.301843 -19.75591,7.111369 -18.24153,-1.016949 0.49275,-2.644824 -16.52948,9.005639 -15.88983,1.207627 0.34657,-4.225051 -18.56729,14.837409 -18.09072,4.841413 0.21082,-4.422013 -14.71203,13.93041 -18.70826,7.10774 -1.94793,-3.325645 -3.80307,20.489478 -11.88746,12.076271 -2.30359,-2.397288 -1.68212,20.895613 -7.24576,16.144068 -4.45201,-3.802173 3.31163,19.319016 -3.47131,13.974016 -2.6148,-2.060477 -0.27837,11.519723 -3.58377,11.386153 -7.42247,-0.305076 3.73887,-14.489119 -0.88983,-12.521186 -5.56008,2.363916 3.62294,-16.14635 -0.0636,-14.11017 -6.84741,3.782021 -4.47218,-20.614841 -7.18221,-16.716102 -3.42944,4.933707 -8.69783,-13.774106 -10.36017,-10.805084 -5.74035,10.252554 -14.37853,-15.142862 -15.82627,-9.851695 -2.92664,10.696192 -13.97953,-6.780127 -14.61864,-2.097458 -0.79637,5.834948 -3.18445,3.336804 -11.63136,0.508475 -2.36092,-0.790522 0.83556,13.772126 -5.21186,10.868644 -3.90555,-1.87513 4.65375,16.697853 -2.22458,14.173729 -3.43529,-1.260639 5.66239,17.144894 0.25424,16.207627 -3.72066,-0.644813 10.0611,14.000779 2.0339,14.173728 -4.54927,0.09913 11.24837,12.284244 4.06779,15.572035 -3.41069,1.561662 16.35959,5.482126 11.12288,9.597456 -2.32022,1.82338 16.31588,3.47025 10.42374,9.15254 -2.00212,1.93081 16.24023,-4.27667 13.15677,3.94068 -0.84281,2.24608 16.88853,-5.04553 10.99577,1.14407 -56.12443,58.95167 -52.59054,125.15609 -53.83475,191.0911 -7.21825,-65.30823 6.07786,-128.6128 -58.85593,-192.36229 3.70109,-3.60011 15.99662,-0.27746 13.85593,-2.54237 -5.09563,-5.39132 14.16929,-1.71251 11.82203,-4.0678 -6.0062,-6.02676 14.18253,-5.91451 10.80509,-8.58051 -4.29331,-3.38894 14.9718,-14.311092 10.42373,-14.237283 -8.23543,0.133651 9.50695,-13.260681 5.08474,-12.966102 -9.35665,0.623279 6.48238,-15.141477 1.90678,-14.04661 -7.03036,1.682252 2.05485,-13.154179 -1.27118,-12.266949 -7.47514,1.994018 2.57837,-12.236178 -1.39831,-11.440678 -5.73312,1.146862 -3.493,-7.485907 -4.63983,-11.504238 -5.68399,-0.796151 -15.39194,3.128974 -14.36441,-0.762712 1.09631,-4.152181 -14.42537,13.123236 -14.68858,6.757228 -0.18407,-4.451987 -6.96357,11.439075 -8.76481,6.272434 -1.91876,-5.503755 -7.4209,18.726877 -11.94277,13.801406 -3.09031,-3.366136 0.37219,15.555368 -4.90044,11.368085 -3.26249,-2.590924 2.83162,18.652644 -2.18736,14.908243 -2.29968,-1.715673 1.46629,11.493527 -3.46943,10.579045 -5.90402,-1.093887 2.97731,-13.394635 -0.50843,-12.966101 -8.70182,1.069793 0.74645,-15.390721 -2.79661,-13.728814 -9.26602,4.346314 -5.40848,-17.855588 -9.27966,-15.381356 C 100.5178,55.759714 99.389991,33.226188 96.101696,38.135592 91.170631,45.497642 80.483385,23.918199 78.449497,28.209433 74.188555,37.199454 60.935652,20.132867 60.254237,23.961863 58.413891,34.303108 43.175624,19.19107 42.902543,22.627117 c -1.126609,14.175587 -4.994446,1.982561 -19.830509,2.478814 0.315404,13.87776 9.642763,21.712815 -0.06356,21.165254 -3.495128,-0.19717 8.719633,17.515149 1.376495,16.536329 -4.140021,-0.551853 11.121948,14.697533 3.581132,14.353502 -4.322997,-0.197226 12.493212,14.250785 6.101695,14.872881 -6.049542,0.588812 20.78224,10.798113 15.254237,17.097463 -3.446928,3.92789 19.520768,-1.12845 14.809322,6.48305 -2.50757,4.05107 17.414353,-6.46929 14.04661,2.76576 -1.56326,4.28678 16.177689,-4.0933 15.762712,3.90796 -0.332406,6.40919 -17.183053,-1.03611 -14.809322,1.84322 5.130707,6.22354 -16.929499,2.63878 -14.04661,5.08475 5.711928,4.84625 -17.298049,13.78489 -14.11017,15.69915 5.657295,3.39709 -11.125035,12.70798 -8.072034,14.17373 7.154621,3.43495 -9.121811,14.78562 -5.402542,15.76271 8.812154,2.31504 -2.519329,11.82363 -1.525424,18.94068 8.425108,3.12938 16.272836,-2.71002 15.381356,4.83051 -0.352518,2.98175 17.442688,-6.4184 16.207628,3.81356 -0.500076,4.14292 16.527957,-9.08863 18.177966,-1.33475 0.947436,4.45228 9.489324,-11.19648 14.427965,-4.44915 2.2382,3.05791 5.76747,-14.69836 13.09322,-9.47034 2.91002,2.07673 -1.04339,-13.3213 7.62712,-11.37712 2.77486,0.62221 -5.73394,-14.59842 4.76695,-14.87288 3.01797,-0.0789 -8.17102,-15.33601 3.11441,-15.31779 2.59892,0.004 -4.25173,-7.45197 -3.43221,-14.11018 68.77228,51.91074 55.93366,125.91086 60.69916,191.25001 C 174.26385,132.76424 103.3752,198.84234 99.234646,226.34042 94.5711,212.0873 84.060447,209.52839 71.99905,210.07097 c 4.2363,4.53576 10.270413,8.27249 11.775125,14.02229 -9.623516,-0.34759 -16.980472,3.20538 -17.707631,11.41558 3.803609,-2.30871 9.484358,-4.03643 17.707631,-0.26966 -19.919534,11.30302 -19.287531,31.45712 -9.228535,46.09461 9.998444,14.54937 16.619662,31.97705 25.94258,31.95768 4.62705,-0.01 15.27077,1.43956 18.8213,-0.23396 8.8508,-4.17177 12.04525,-20.56089 18.87979,-30.85911 7.68953,-11.5865 20.36168,-35.96233 -11.62918,-48.12774 4.29842,-3.63867 10.43595,-4.05889 17.43797,-2.96626 -1.27461,-5.53946 -8.90532,-8.79011 -13.76541,-9.01309 3.91866,-4.22793 10.37969,-2.00893 14.93394,-1.05417 -7.63215,-11.08925 -20.27812,-13.40427 -35.68493,7.46058 4.31687,-32.80109 63.59673,-60.9607 68.13394,104.08851 -8.79718,-11.9046 -20.42237,-21.54679 -31.49276,-31.63282 -3.76395,16.38001 -1.62983,35.28782 15.88983,51.9915 z"
     id="path2827"
     style="fill:#faf700;fill-opacity:1;stroke:none" />
</svg>
