<?xml version="1.0" encoding="UTF-8" standalone="no"?>
<!-- Created with Inkscape (http://www.inkscape.org/) -->

<svg
   xmlns:svg="http://www.w3.org/2000/svg"
   xmlns="http://www.w3.org/2000/svg"
   version="1.1"
   width="390"
   height="480"
   id="svg4228">
  <defs
     id="defs4232" />
  <path
     d="m 0.51202379,0.50512952 c 129.66265621,0 259.32532621,0 388.98797621,0 C 389.48983,115.23328 370.33544,349.8309 194.89467,479.37706 21.249382,349.77255 0.5931986,115.2575 0.51202379,0.50512952 z"
     id="path4240-0-1"
     style="fill:#faf700;fill-opacity:1;stroke:#9e832a;stroke-width:0.99999905;stroke-opacity:1" />
  <path
     d="M 37.385621,76.470588 30.06536,42.745097 c 115.3399,-18.612139 224.66958,-15.32995 330.26144,1.568628 l -7.77778,30.392156 C 247.99115,75.300635 226.90928,86.88599 219.73856,130.06536 c -0.69198,4.16683 -7.89282,4.86431 -11.37255,5.09804 l -1.56862,139.73856 c 8.14193,4.67878 12.84321,10.04863 13.72549,23.13726 l -31.76471,44.70588 c -7.77355,-17.59916 -19.44223,-35.49911 -16.99346,-49.41177 1.33849,-7.6046 6.7007,-13.19184 12.02614,-19.3464 L 180,135.68627 c -4.99269,-0.57571 -12.52523,-2.05395 -13.0719,-6.9281 C 160.29568,69.62356 92.926643,78.449538 37.385621,76.470588 z"
     id="path3628"
     style="fill:#000000;stroke:none" />
  <path
     d="m 221.17647,300.45752 -37.52756,54.1625 c -3.06765,4.42747 -4.56791,17.22695 -2.29682,24.07422 l 9.24323,31.5194 23.66266,-32.07399 6.91849,-77.68213 z"
     id="path3630"
     style="fill:#000000;stroke:none" />
  <path
     d="m 191.19613,412.29337 13.21781,-17.83943 c 3.64192,7.45375 6.94107,15.64503 7.62566,24.3559 0.25477,3.24173 -5.06766,16.10326 -9.42809,20.15024 -0.3128,-3.65292 0.36978,-7.7796 -1.01675,-9.70539 -3.54005,-4.91689 -9.54522,-9.2455 -10.39863,-16.96132 z"
     id="path3632"
     style="fill:#000000;stroke:none" />
</svg>
