<?xml version="1.0" encoding="UTF-8" standalone="no"?>
<!-- Created with Inkscape (http://www.inkscape.org/) -->

<svg
   xmlns:svg="http://www.w3.org/2000/svg"
   xmlns="http://www.w3.org/2000/svg"
   version="1.1"
   width="390"
   height="480"
   id="svg4228">
  <defs
     id="defs4232" />
  <path
     d="m 0.51202379,0.50512952 c 129.66265621,0 259.32532621,0 388.98797621,0 C 389.48983,115.23328 370.33544,349.8309 194.89467,479.37706 21.249382,349.77255 0.5931986,115.2575 0.51202379,0.50512952 z"
     id="path4240-0"
     style="fill:#207dbf;fill-opacity:1;stroke:#999999;stroke-width:0.99999905;stroke-opacity:1" />
  <path
     d="M 194.54324,0.00223091 C 167.48808,91.515315 138.55901,168.50606 27.812338,215.70506 c 11.300305,42.52952 27.610683,84.84113 47.68916,122.15277 50.058142,-22.83299 87.126872,-51.93331 119.248612,-98.18003 30.25419,44.27583 71.75201,77.19624 119.78651,99.30407 22.84541,-42.0721 37.64963,-84.15525 47.69281,-121.31067 C 253.68726,166.50191 222.72743,94.255197 194.54324,0.00223091 z"
     id="path3010"
     style="fill:#f2f2f2;stroke:none" />
</svg>
