<?xml version="1.0" encoding="UTF-8" standalone="no"?>
<!-- Created with Inkscape (http://www.inkscape.org/) -->

<svg
   xmlns:svg="http://www.w3.org/2000/svg"
   xmlns="http://www.w3.org/2000/svg"
   version="1.1"
   width="420"
   height="480"
   id="svg4228">
  <defs
     id="defs4232" />
  <path
     d="m 0.5070884,0.50209145 c 139.6632216,0 279.3264716,0 418.9897016,0 C 419.48584,115.23404 398.85409,349.83946 209.88201,479.38992 22.84387,349.78113 0.59452403,115.25827 0.5070884,0.50209145 z"
     id="path4240-0"
     style="color:#000000;fill:#faf700;fill-opacity:1;fill-rule:nonzero;stroke:#9e832a;stroke-width:0.99771082;stroke-opacity:1;marker:none;visibility:visible;display:inline;overflow:visible;enable-background:accumulate" />
  <path
     d="m 20.682873,71.822612 c -2.59509,-1.343003 -3.781913,-14.236783 -1.325825,-15.02602 7.77501,-2.498415 21.133262,2.747791 27.046834,2.474874 3.439051,-0.158715 12.125095,-4.30214 20.594485,-4.507806 12.078695,-0.293312 20.04055,10.036471 26.162951,10.341437 3.830105,0.190783 4.633331,-4.966194 13.169872,-5.303301 4.91942,-0.194268 12.14099,4.218583 15.20279,7.778175 -3.17245,1.819957 -6.29128,5.917199 -6.45235,7.336233 2.27281,3.039555 8.38422,4.283771 13.75381,3.186422 -0.0639,2.636925 -0.35785,4.63178 -0.8491,6.978238 5.43424,0.396102 9.06405,-1.012219 13.08147,-2.032932 0.46848,3.645153 -0.13567,6.432203 -0.44194,9.457553 57.24209,-2.07608 79.31192,-31.649489 138.43663,-34.942984 -1.16606,2.115897 -2.34002,4.234054 -2.9375,6.1875 7.83619,-0.8755 12.59876,-1.159712 19.25,-0.125 -1.06247,2.08851 -1.97449,3.988943 -2.375,5.25 3.78051,-0.630313 11.39995,-0.253795 17.5,1 -2.07853,2.48354 -4.30006,5.006077 -5.5,7.25 l 19,2.5 c -2.13734,2.231487 -4.30928,4.411079 -6.125,7.125 6.50276,1.039277 13.50416,1.646397 17.625,4.75 -16.30326,12.142539 24.91356,11.712629 31.875,13.749999 25.01234,7.32023 15.83404,30.29132 24.125,44.875 -1.69815,0.44995 -6.1528,0.97705 -8.375,-0.125 3.76965,9.10879 6.42002,20.33385 6.75,32.625 -2.48473,-0.473 -5.84638,-1.73873 -7.75,-3.125 0.0567,18.00904 -8.71165,25.51051 -7.3125,38.25 -5.18698,-1.47969 -8.35469,-8.10364 -9.0625,-12.75 -1.14048,2.14309 -2.97302,4.24301 -4.75,5.125 -0.967,-11.178 -3.41956,-17.15655 -6.375,-21.375 -1.75532,2.2678 -1.89051,6.96138 -1.75,8.8125 -13.16675,-2.16109 -19.29226,-20.74935 -18,-34.4375 -23.31911,18.91944 3.74443,46.63078 18.625,52.875 -1.75375,2.28417 -3.81903,3.94526 -6.125,5.125 5.24507,1.60098 11.50269,4.89972 16.25,8.5 -3.07646,0.91378 -6.52605,2.07654 -7.5,3.25 -1.09841,1.32341 12.48983,10.05505 9.39515,12.67391 -24.22782,20.50267 -29.54962,26.08058 -28.1832,44.64514 -4.45374,-0.93221 -7.27979,-4.70814 -8.46195,-7.31905 -1.15799,4.00841 0.47881,8.7876 1.5,12.25 -3.35376,0.73248 -9.26487,-2.72234 -11.875,-6 -0.33839,2.52159 0.69936,7.62283 2,11.25 -2.38843,0.36954 -10.37368,-3.59042 -12.125,-9.75 -2.50611,3.39087 -2.57885,7.57637 -2.125,10.375 -10.83987,-5.63601 -13.13975,-17.67369 -13,-23.75 0.0765,-3.32586 11.99171,-12.79495 18.375,-18.75 2.65807,-2.47975 0.39906,-20.86095 -7.125,-30.125 -15.48404,-19.06482 -16.36491,21.22553 -14,25.625 -3.13408,-0.0702 -9.08339,-2.63457 -11.5,-5.75 -2.24714,2.76117 -2.29278,13.45729 0.25,17.125 -2.81324,0.24392 -7.78771,-1.19907 -8.875,-3.625 -0.29167,5.04167 1.47551,14.7996 -0.875,15.125 -15.60082,2.15972 -26.44487,9.22081 -32.375,22.125 -3.9889,-2.89993 -4.97689,-7.211 -5.375,-10.25 -2.53729,2.68508 -3.92648,5.82941 -4.625,9.25 -3.34276,-1.76169 -5.10718,-5.55267 -5.875,-10.625 -2.79695,2.64332 -4.22158,5.42361 -5.375,8.25 -3.40983,-2.61266 -4.69727,-6.36813 -5.75,-10.25 -2.53435,1.08671 -4.51039,3.06671 -6.125,5.625 -5.31955,-6.22479 -3.29382,-19.18958 -0.76917,-23.47476 5.319,-9.02814 23.29777,-2.38029 39.26917,-25.40024 10.25524,-14.7811 -1.04916,-32.44663 -8.125,-32.25 -10.41184,0.28933 -21.14843,16.3574 -22.53325,28.15121 -2.63732,-0.32265 -5.17797,-1.81147 -6.71675,-4.15121 -0.63695,7.60395 -1.50389,14.00039 -2.875,17.75 -1.97609,-0.44605 -4.09093,-1.44704 -6.25,-2.625 -1.4327,4.72674 -0.38785,7.95412 0.5,11.25 -2.66001,-0.0328 -5.53813,-0.35639 -8.75,-1.125 -2.10465,7.52856 -0.37171,17.10186 -13.01214,22.30947 -7.66899,3.15946 -24.84083,-3.02122 -37.25801,26.09526 -3.45816,-2.26259 -5.49007,-8.9642 -5.85485,-12.27973 -3.69118,3.58676 -5.81268,7.55652 -7.375,11.5 -2.86336,-2.72166 -4.06905,-7.24469 -4.625,-10.875 -2.50423,2.32452 -4.0704,4.90508 -5.52973,7.32864 -2.48143,-3.18048 -3.11289,-9.61127 -2.72027,-12.70364 -3.13878,1.15978 -4.93341,2.99163 -6.625,4.875 -3.59741,-12.07772 -0.56511,-29.16452 10,-28.75 11.25019,0.4414 41.94987,-17.86339 39,-32.625 -5.89176,-29.48322 -20.78419,-14.73448 -29.625,-3.75 -1.66448,-2.90233 -2.15965,-5.87219 -2.625,-8.875 -4.1867,7.09001 -5.93209,12.58365 -7.25,19.5 -1.78013,-0.8696 -4.04027,-3.53651 -4.625,-6.125 -2.12095,4.17881 -4.90462,6.36948 -7.75,8.375 -13.916857,-6.13472 -34.508405,-4.67605 -45.125,3.625 -0.192821,-3.41667 0.50328,-6.83333 1.875,-10.25 -2.879398,0.5122 -5.26033,1.66529 -7.5,3 -0.969627,-5.51 2.645685,-9.84199 5,-13.375 -3.185243,0.96904 -6.215879,2.19576 -9.125,3.625 0.459607,-4.15793 1.11616,-8.30766 3.75,-12.375 -3.140912,0.70303 -5.352509,1.81941 -7.125,2.875 3.147409,-21.43995 19.877595,-21.16678 26.5,-20.5 21.132581,2.12774 21.933472,2.09149 25.125,-7 4.131914,-11.77031 3.057004,-28.65006 -5.75,-43 -2.403076,-3.91552 -5.731976,1.72839 -9.309466,3.70364 -2.743833,-4.95144 -2.942703,-8.77483 -3.565534,-17.32864 -1.908397,1.74196 -3.715132,3.40963 -5.75,4 -2.197523,-5.89859 -5.156565,-13.4915 -9.269531,-15.21094 C 60.966803,126.57683 60.98207,129.62259 59.125,131.125 56.082675,121.18197 46.401762,114.22085 29.912097,105.64997 24.219398,102.69106 21.596277,94.357722 21.5,89.875001 c 1.881203,1.212281 4.19011,3.788043 5.28125,3.40625 1.448183,-0.506723 2.153236,-1.63272 3.09375,-2.5625 0.578609,1.681014 1.357971,4.084821 2.75,4.4375 1.160249,0.293956 2.889233,-0.85449 4.5,-2.625 0,0 0.300983,4.179506 1.90625,4.59375 1.327904,0.342669 3.52949,-2.907767 3.52949,-2.907767 0.685282,1.844936 1.178511,4.30085 2.622603,4.5179 1.261548,0.189614 2.514479,-3.238836 3.807707,-4.498877 0.645527,1.265415 2.086773,3.297471 3.88395,3.826244 2.616735,0.769907 2.624011,-13.6717 -1.0625,-14.375 -1.958155,-0.37357 -3.787791,0.281006 -5.5625,1.375 -0.129991,-1.350332 0.49444,-3.580015 -1.18926,-4.264867 -1.389088,-0.565017 -2.525236,0.41137 -3.37324,1.202367 0,0 -1.223875,-2.705002 -2.668477,-3.02494 C 36.931942,78.512833 35,81.125001 35,81.125001 c 0,0 -0.8591,-3.310553 -2.493447,-3.393386 -1.896095,-0.0961 -3.50176,2.423119 -3.50176,2.423119 -0.804322,-1.366069 -1.486907,-2.575459 -2.743015,-3.651358 -1.993101,-1.707159 -3.514349,-3.612321 -5.578905,-4.680764 z"
     id="path3655"
     style="fill:#000000;stroke:none" />
  <path
     d="m 57.141686,70.685989 c -1.660497,-1.119976 1.316289,-6.063637 8.387535,-5.47299 3.73309,0.311818 9.546555,3.681225 8.493566,7.388714 -0.603067,2.123349 -10.166784,2.612964 -16.881101,-1.915724 z"
     id="path3701"
     style="fill:#faf700;fill-opacity:1;stroke:none" />
</svg>
