<?xml version="1.0" encoding="UTF-8" standalone="no"?>
<!-- Created with Inkscape (http://www.inkscape.org/) -->

<svg
   xmlns:svg="http://www.w3.org/2000/svg"
   xmlns="http://www.w3.org/2000/svg"
   xmlns:xlink="http://www.w3.org/1999/xlink"
   version="1.1"
   width="390"
   height="480"
   id="svg4228">
  <defs
     id="defs4232" />
  <path
     d="M 0,0 C 130,0 260,0 390,0 389.98981,114.99797 370.78556,350.14732 194.88837,479.99815 20.79131,350.08886 0.081386,115.02225 0,0 z"
     id="path4240-0"
     style="color:#000000;fill:#207dbf;fill-opacity:1;fill-rule:nonzero;stroke:none;marker:none;visibility:visible;display:inline;overflow:visible;enable-background:accumulate" />
  <path
     d="m 207.45384,371.51423 c -5.34443,12.81819 -16.29077,16.616 -29.03709,38.79677 1.86409,0.62468 4.07028,0.6678 6.69466,0 -1.00219,1.71331 -1.7552,3.6758 -1.77448,6.37202 2.21934,0.36902 4.48507,0.4597 6.85597,-0.0806 -1.15389,2.49459 -1.51512,4.83066 -1.53251,7.09795 2.11634,0.3586 4.42591,0.48106 7.22364,0.007 -0.46867,3.02015 -0.33541,5.87613 0.0285,8.66921 2.65062,-0.35112 5.39137,-1.10779 8.19396,-2.14277 0.25167,1.93533 1.0688,3.72668 2.01646,5.48479 8.75528,-2.93605 3.22717,-11.05338 24.25155,-46.07562 14.47184,-24.10707 34.8142,-53.50576 45.80042,-74.83158 9.52076,-18.48116 11.09516,-40.59701 10.64693,-63.23632 C 285.5837,189.03867 250.71126,146.7574 202.29169,103.4858 182.90807,86.163049 172.98133,63.109451 159.70397,42.50793 150.48796,28.208118 140.15477,23.192267 114.8578,32.183633 c -9.47701,3.368436 -19.504784,6.82423 -29.601693,7.178612 -8.7419,0.306824 -8.131732,19.369257 -3.95227,22.181106 7.37278,4.960242 15.79633,8.539163 19.750663,11.56368 1.7549,1.227109 0.73519,1.066213 -0.42388,0.478928 -3.985754,-2.039406 -10.191782,-5.166605 -16.14077,-8.493631 -1.34431,13.228005 20.47823,18.044235 26.41568,31.053549 5.6921,12.471723 -7.86718,27.886783 -5.51775,47.541213 0.97608,8.1655 2.95094,13.40477 8.22439,21.94029 -5.65268,-0.2431 -15.657457,-5.64313 -19.619774,-1.93917 -8.103319,7.57495 -19.627755,21.28852 -20.874525,36.5019 3.155894,-1.13109 6.311787,-2.55179 9.467681,-4.22053 -0.134702,1.98878 -0.103026,4.05138 1.254752,5.93156 3.755711,-2.16645 6.666071,-5.08432 9.467681,-8.09886 0.414615,2.27163 1.495358,4.18457 3.307985,5.70342 2.728516,-1.478 4.35872,-3.34825 5.58935,-5.36121 0.66544,2.53516 1.98231,4.97261 4.79088,7.18631 2.46759,-1.50085 4.67764,-3.2236 6.27376,-5.47529 0.48215,2.13535 1.29771,4.10399 2.85171,5.70342 1.9739,-1.02164 3.45951,-2.43391 4.90495,-3.87832 -0.0657,3.13049 0.41736,6.35244 2.27899,9.80415 3.23638,-2.24508 5.58425,-3.60165 7.64496,-4.67107 -8.89734,8.93536 -19.68373,16.34217 -26.69201,26.80608 -5.296943,7.90875 -15.516578,35.73434 -15.399244,52.81369 2.464832,-0.41666 4.372501,-1.76193 6.159696,-3.30799 1.027742,1.59614 2.470358,2.89055 4.3346,3.87833 2.568778,-2.37418 4.524778,-5.36115 6.501898,-8.32699 1.54194,1.30239 3.21551,2.45669 5.36122,3.07984 2.91274,-3.76617 4.9717,-8.23089 7.07224,-12.66159 1.03037,1.39307 2.1636,2.40902 3.42206,2.96578 1.85599,-2.863 2.92247,-5.92338 3.87832,-9.01141 0.66043,1.20917 1.7732,2.17477 3.42206,2.85171 1.86551,-3.65596 3.73389,-8.74253 5.01901,-16.08365 0.84337,-4.81772 18.70181,-5.4767 20.87452,-0.91255 17.85443,37.50636 41.30337,40.96604 60.93739,63.93758 18.6954,21.87336 1.58597,43.10549 -16.13171,47.1046 -15.62139,3.52595 -35.96278,-2.92227 -42.26509,5.16215 l 3.95227,2.41976 -6.53335,6.04939 4.59754,3.54898 -4.59754,3.79095 3.95227,4.11359 -4.19424,4.03293 c 0,0 7.48142,4.50361 13.71195,2.74239 30.50187,-8.62215 39.11941,-16.29303 39.11941,-16.29303 z"
     id="path3009"
     style="fill:#f2f2f2;stroke:none" />
  <path
     d="m 104.43726,53.925859 c 6.32802,0.0215 21.33306,3.732306 25.38023,10.750951 -3.018,-7.669474 -18.85402,-11.950982 -25.38023,-10.750951 z"
     id="path3779"
     style="fill:#000000;stroke:none" />
  <use
     transform="matrix(0.82456154,0.27270453,-0.25673588,0.80293321,31.016157,-11.41352)"
     id="use3781"
     x="0"
     y="0"
     width="390"
     height="480"
     xlink:href="#path3779" />
  <use
     transform="matrix(0.53030823,0.36482889,-0.36358789,0.70076004,65.895641,-10.968312)"
     id="use3783"
     x="0"
     y="0"
     width="390"
     height="480"
     xlink:href="#path3779" />
  <use
     transform="matrix(0.85020592,-0.60785273,0.3212798,1.6085667,-0.901664,22.277002)"
     id="use3787"
     x="0"
     y="0"
     width="390"
     height="480"
     xlink:href="#path3779" />
  <path
     d="m 108.87833,43.574147 c -0.3943,4.507171 10.57476,8.510338 11.74905,5.076046 1.45233,-4.247425 -0.0403,-7.766755 -2.28137,-7.870722 -3.74983,-0.35531 -9.28855,0.747068 -9.46768,2.794676 z"
     id="path3789"
     style="fill:#000000;stroke:none" />
  <path
     d="m 92.480989,43.003805 c -2.642586,0.351371 -5.513876,1.502714 -7.927757,-0.02852 -1.101717,-0.698869 0.978635,-3.038536 -0.256654,-3.193917 -12.961649,-1.630388 -9.440074,16.787253 -0.05703,17.994297 0.03958,-6.0093 2.943157,-8.61763 6.387833,-10.266159 2.563547,-1.226844 3.221516,-4.687585 1.853608,-4.505701 z"
     id="path3791"
     style="fill:#000000;stroke:none" />
</svg>
