<?xml version="1.0" encoding="UTF-8" standalone="no"?>
<!-- Created with Inkscape (http://www.inkscape.org/) -->

<svg
   xmlns:svg="http://www.w3.org/2000/svg"
   xmlns="http://www.w3.org/2000/svg"
   version="1.1"
   width="390"
   height="480"
   id="svg4228">
  <defs
     id="defs4232" />
  <path
     d="M 0,0 C 130,0 260,0 390,0 389.98981,114.99797 370.78556,350.14732 194.88837,479.99815 20.79131,350.08886 0.081386,115.02225 0,0 z"
     id="path4240-0"
     style="color:#000000;fill:#207dbf;fill-opacity:1;fill-rule:nonzero;stroke:none;marker:none;visibility:visible;display:inline;overflow:visible;enable-background:accumulate" />
  <path
     d="m 33.050848,109.32203 c 11.937059,-6.62226 15.107863,-18.451455 26.059322,-20.847453 1.449433,-2.713328 0.996484,-5.945489 0.635593,-9.152542 4.151785,1.510841 6.850743,4.606585 9.152542,8.135593 3.124714,-2.876775 2.850421,-7.26422 3.050848,-11.440678 8.623449,3.668119 8.644717,9.794003 10.550847,15.381356 5.918049,-0.875676 11.621014,-1.536267 14.872882,0.254238 -6.001383,5.91865 2.218888,4.415538 3.559318,6.991525 -3.9966,2.210571 -2.380374,0.891476 3.05085,5.974571 43.08161,40.3202 78.21221,15.93148 125.97457,32.41526 36.13399,12.47059 60.22116,49.18145 98.26272,75.12712 7.85237,5.35559 10.21251,26.03523 8.77119,29.87288 -2.18696,5.823 -24.50469,6.27073 -30.33951,-0.6962 -4.83738,-5.77596 -7.91832,-1.82723 -11.60965,-3.49871 -26.23473,-11.87948 -36.78017,-34.66643 -53.26271,-51.99153 -3.78145,7.04558 -9.41346,5.50185 -8.8983,9.40678 0.95586,7.24552 16.81971,12.78862 18.05084,22.11864 0.62883,4.76551 0.15471,10.44985 -1.52542,13.22034 -3.2443,5.34976 -4.63051,12.80217 -10.04237,14.74577 -4.61316,0.60817 -9.30484,0.59202 -13.60169,0.25423 -2.09678,-8.1187 12.0093,-8.74201 12.20338,-18.05085 0.20346,-9.75844 -8.65691,-10.85179 -20.84746,-11.56779 0.81676,10.81632 -10.62174,15.85731 -17.68297,22.74675 -2.44635,2.38683 -1.72567,8.06528 -5.07126,8.14308 l -16.39831,0.38135 c -3.11915,0.10119 -0.8468,-6.23715 6.22881,-7.11864 8.17841,-1.01888 9.44915,-16.39831 13.22034,-24.15254 -15.69243,-3.26863 -16.00142,-10.43355 -21.99152,-15.12712 -9.71188,-7.60979 -14.94785,-7.5602 -15.12712,-3.55932 -2.70732,-1.90598 -6.63383,-8.26111 -8.2491,-2.92094 -1.74579,-0.60604 -3.58421,-1.74422 -4.717,-3.30788 -0.83692,6.85477 5.66932,13.19566 3.81356,18.94068 -5.66424,-4.91221 -3.86215,1.55287 -3.30509,7.11864 -5.88896,-1.86857 4.49401,24.02337 -12.9661,32.6695 -1.33999,-2.3822 -3.76655,-3.97981 -7.24576,-1.77966 -1.40795,-1.39136 -1.99077,-2.19614 -5.59322,-1.39831 0.38213,-6.9646 7.37624,-6.30015 11.69491,-9.02542 2.1115,-22.01892 -8.47455,-27.16107 -14.23728,-27.20339 l -0.76272,8.38983 c -5.45401,-3.80713 -3.14045,3.77818 -4.06779,6.61017 -4.90149,-3.40978 -5.05822,2.23861 -6.48305,5.4661 -2.74839,-1.49896 -4.36556,-0.60977 -4.0678,4.32203 -4.25247,4.55021 -5.940626,12.07886 -13.474577,12.20339 l -15.381356,0.25424 c -0.387481,-6.75166 3.338198,-6.40828 7.500001,-7.11865 3.936268,-0.67188 12.254358,-13.01535 14.237288,-19.95762 3.083434,-10.79516 0.466102,-36.61017 -8.262712,-41.5678 -7.005974,0.87442 -5.106323,-9.9102 -11.822034,-9.15254 3.858793,-7.53493 -12.006195,-10.66622 -8.644068,-21.1017 -4.770602,-2.05654 -7.363409,-9.55758 -10.932203,-14.61864 -1.538786,-13.48526 -6.755945,-13.28153 -11.186441,-13.72881 -3.610664,-0.36452 -5.927222,-0.38373 -7.627119,-2.54238 -1.712368,-2.17449 8.222454,-2.22017 7.372882,-4.95762 -1.296249,-4.17671 -8.431979,0.67776 -12.838983,-3.55933 z"
     id="path2827"
     style="fill:#f2f2f2;fill-opacity:1;stroke:none" />
</svg>
