<?xml version="1.0" encoding="UTF-8" standalone="no"?>
<!-- Created with Inkscape (http://www.inkscape.org/) -->

<svg
 xmlns:dc="http://purl.org/dc/elements/1.1/"
 xmlns:cc="http://creativecommons.org/ns#"
 xmlns:rdf="http://www.w3.org/1999/02/22-rdf-syntax-ns#"
 xmlns:svg="http://www.w3.org/2000/svg"
 xmlns="http://www.w3.org/2000/svg"
 version="1.1"
 width="390"
 height="480"
 id="svg4228">
<metadata
 id="metadata3020">
<rdf:RDF>
<cc:Work
 rdf:about="">
<dc:format>image/svg+xml</dc:format>
<dc:type
 rdf:resource="http://purl.org/dc/dcmitype/StillImage" />
<dc:title></dc:title>
</cc:Work>
</rdf:RDF>
</metadata>
<defs
 id="defs4232" />
<path
 d="m 0,2.2e-6 c 130,0 260,0 390,0 C 389.98981,114.99797 370.78556,350.14732 194.88837,479.99815 20.79131,350.08886 0.081386,115.02225 0,2.2e-6 z"
 id="path4240-0"
 style="fill:#000000;fill-opacity:1;stroke:none" />
<path
 d="m 251.00946,301.90588 c -13.8307,8.92723 -34.03791,14.00181 -34.03791,-20.32596 l 0,-72.67337 66.78529,0.0807 c 38.22685,0.0462 38.29993,18.64996 23.55231,36.45767 38.08802,-2.40266 45.85462,-37.18181 28.06918,-58.55812 21.8668,-31.0907 0.75494,-56.79328 -27.10128,-57.10626 14.5029,17.1006 9.89832,34.95939 -27.2626,35.00581 l -64.60751,0.0807 -0.32264,-65.898047 C 215.82471,45.947792 244.91372,66.546863 251.17871,72.775745 249.47757,42.524664 227.74038,25.394892 194.71483,46.197798 177.66376,30.953553 135.90248,32.765961 137.90875,73.460155 152.18617,58.678273 172.09831,58.349277 172.12928,95.81757 l 0.057,68.95437 -73.517108,0.057 c -35.335981,0.0274 -29.65227,-21.94327 -18.935362,-35.47529 -20.842086,0.57877 -50.309379,19.47119 -26.806083,57.94677 -23.76461,37.82032 6.387232,59.49178 26.34981,56.0076 -13.142232,-12.51013 -11.557889,-34.47179 18.593156,-34.44866 l 74.315587,0.057 -0.057,64.61977 c -0.0432,48.98535 -18.7907,39.40492 -34.79088,28.06084 0.52803,37.73447 34.10495,46.28489 57.14829,27.03422 35.80301,27.18616 60.18053,-8.19813 56.52277,-26.72531 z"
 id="path3777"
 style="fill:#faf700;fill-opacity:1;stroke:none" />
</svg>
