<?xml version="1.0" encoding="UTF-8" standalone="no"?>
<!-- Created with Inkscape (http://www.inkscape.org/) -->

<svg
   xmlns:svg="http://www.w3.org/2000/svg"
   xmlns="http://www.w3.org/2000/svg"
   version="1.1"
   width="390"
   height="480"
   id="svg4228">
  <defs
     id="defs4232" />
  <path
     d="M 0,0 C 130,0 260,0 390,0 389.98981,114.99797 370.78556,350.14732 194.88837,479.99815 20.79131,350.08886 0.081386,115.02225 0,0 z"
     id="path4240-0"
     style="color:#000000;fill:#d61a1a;fill-opacity:1;fill-rule:nonzero;stroke:none;marker:none;visibility:visible;display:inline;overflow:visible;enable-background:accumulate" />
  <path
     d="m 35.59322,161.5678 -4.160034,-3.6287 c -22.5515143,21.90019 14.948337,43.11537 24.24478,17.86598 38.730697,-5.89112 63.554844,-9.318 96.228814,3.81356 L 122.0339,266.5678 c 31.40332,-20.59695 30.41212,-47.80268 46.77966,-84.40678 l 34.32203,9.02542 c 1.18699,34.46735 -23.29224,68.8913 -61.52542,85.9322 22.11864,6.84374 44.23729,12.92058 66.35593,16.39831 l 12.45763,-12.33051 c 71.64576,-6.07739 103.26278,-19.80362 102.71186,-39.40678 -0.32494,-11.56199 -11.81883,-18.5929 -21.99152,-19.19491 l -2.41526,-31.52543 15.88983,-0.38135 3.68645,-18.30509 -19.44916,-0.12712 23.26992,-103.184333 c 10.4259,-5.802747 19.71955,-11.462237 49.42754,-9.166943 l 4.46356,-12.860586 C 307.10833,37.973127 307.8361,61.617109 182.41525,162.33051 l -7.62711,-2.41526 5.97457,-14.23729 -14.3644,-5.08474 -7.11865,17.0339 c -37.07395,-2.69853 -72.947774,1.50368 -108.68644,6.48305 3.036859,25.77712 -32.138501,14.97837 -15,-2.54237 z"
     id="path4636"
     style="fill:#f0ed00;fill-opacity:1;stroke:none" />
  <path
     d="m 223.09322,204.78814 0,-8.1356 57.45763,-4.06779 2.28813,26.31355 -59.74576,-14.11016 z"
     id="path4638"
     style="fill:#d61a1a;fill-opacity:1;stroke:none" />
  <path
     d="M 212.54237,168.94068 201.22881,166.3983 303.30509,80.084746 280.9322,172.5 l -52.62711,-1.39831 1.3983,-9.40678 c -3.16904,-1.79305 -9.98993,-2.68459 -15.50847,-1.14406 l -1.65255,8.38983 z"
     id="path4640"
     style="fill:#d61a1a;fill-opacity:1;stroke:none" />
</svg>
