<?xml version="1.0" encoding="UTF-8" standalone="no"?>
<!-- Created with Inkscape (http://www.inkscape.org/) -->

<svg
   xmlns:svg="http://www.w3.org/2000/svg"
   xmlns="http://www.w3.org/2000/svg"
   version="1.1"
   width="390"
   height="480"
   id="svg4228">
  <defs
     id="defs4232" />
  <path
     d="M 0,0 C 130,0 260,0 390,0 389.98981,114.99797 370.78556,350.14732 194.88837,479.99815 20.79131,350.08886 0.081386,115.02225 0,0 z"
     id="path4240-0"
     style="color:#000000;fill:#d61a1a;fill-opacity:1;fill-rule:nonzero;stroke:none;marker:none;visibility:visible;display:inline;overflow:visible;enable-background:accumulate" />
  <path
     d="m 304.70339,326.69491 -49.76695,-0.0636 10.99576,30.19067 c 0.92935,2.55169 -11.37327,1.81321 -12.52118,-0.0636 l -18.35794,-30.01488 -102.2009,0 -8.89876,29.93219 c -0.63157,2.12437 -13.98592,2.23341 -13.57285,-0.17977 l 5.12353,-29.93219 -20.044684,0.0899 c -2.102853,-0.15584 -2.41918,-15.0885 0.179773,-14.92115 L 117.03216,311.5527 132.13309,210.52033 87.330509,183.68636 C 86.771311,176.44407 80.670615,168.2842 67.372882,172.24568 L 41.313559,154.00416 c 1.311749,-8.04572 7.010382,-15.39574 12.966102,-18.62288 l 28.093221,18.55932 c 1.26442,7.18819 6.680766,13.57188 21.228818,11.88559 l 20.08474,13.09322 -10.78905,-43.54416 C 91.524178,133.96344 75.094562,104.2201 101.21215,83.241108 100.11619,73.122564 99.844025,65.558367 93.302141,62.387451 L 88.268499,39.196745 C 86.601963,33.670996 111.11528,27.450152 112.71761,33.444012 l 4.31455,23.190705 c -4.31618,6.462355 -1.74875,14.771962 0.35955,24.08957 28.71994,2.317555 32.49916,36.286453 13.30319,51.415053 l 14.92116,59.6846 35.50515,23.55026 5.9325,-8.3145 C 103.27453,121.24389 170.91286,25.695273 251.23403,24.227135 343.56763,22.53943 403.35378,157.82617 284.49063,223.64375 l 20.21276,103.05108 0,8e-5 z"
     id="path2849"
     style="fill:#f2f2f2;fill-opacity:1;stroke:none" />
  <path
     d="m 158.55971,225.89099 14.38183,8.80887 -19.41547,37.93209 c -1.23021,2.40346 10.11643,9.19354 11.41558,6.74148 1.86569,-3.52138 15.45746,-25.80125 26.15695,-31.72992 l 37.213,63.99916 -91.32464,0 21.57275,-85.75168 z"
     id="path2851"
     style="fill:#d61a1a;fill-opacity:1;stroke:none" />
  <path
     d="m 231.99694,274.51956 25.97719,16.71888 c 5.36492,3.93318 16.93995,-14.46141 12.94365,-17.61774 l -66.06655,-43.86459 6.29205,-10.51672 c 13.49956,7.72289 36.84331,10.27524 55.23384,7.73095 l 16.7161,84.72457 -34.95763,0 -16.13865,-37.17535 z"
     id="path2853"
     style="fill:#d61a1a;fill-opacity:1;stroke:none" />
  <path
     d="m 293.67383,65.074971 c 10.64509,6.386594 22.69146,22.668076 25.55075,35.825839 -14.65774,1.3453 -33.92297,4.83587 -49.73147,15.54964 -1.07161,-2.45413 -3.71201,-5.88004 -5.71981,-7.46657 12.95342,-9.449126 23.74109,-28.470471 29.90053,-43.908909 z"
     id="path2855"
     style="fill:#d61a1a;fill-opacity:1;stroke:none" />
  <path
     d="m 240.64055,50.718294 c 12.10107,-2.822486 32.10105,0.492741 43.32064,7.960773 -9.60084,11.175836 -21.02004,27.102926 -24.92334,45.815423 -2.47963,-1.01798 -6.76393,-1.64199 -9.31235,-1.38423 2.73151,-15.814835 -2.76076,-37.003023 -9.08495,-52.391966 z"
     id="path2855-7"
     style="fill:#d61a1a;fill-opacity:1;stroke:none" />
  <path
     d="m 192.63134,78.842812 c 6.64294,-10.483601 23.20965,-22.126331 36.43015,-24.663083 0.987,14.682763 4.00566,34.022918 14.32804,50.084361 -2.47898,1.01117 -5.96749,3.56659 -7.60216,5.5346 C 226.65934,96.621652 207.9113,85.375657 192.63134,78.842812 z"
     id="path2855-7-4"
     style="fill:#d61a1a;fill-opacity:1;stroke:none" />
  <path
     d="m 322.22917,111.34682 c 3.30299,11.98466 0.78463,32.10975 -6.23447,43.62267 -11.55403,-9.15296 -27.93004,-19.93457 -46.79147,-23.09204 0.91898,-2.51928 1.37231,-6.82696 1.01325,-9.36425 15.91813,2.10136 36.8806,-4.23204 52.01269,-11.16638 z"
     id="path2855-7-9"
     style="fill:#d61a1a;fill-opacity:1;stroke:none" />
  <path
     d="m 310.19937,165.72728 c -6.17215,10.7741 -22.21118,23.14895 -35.31163,26.27356 -1.6408,-14.63098 -5.51981,-33.82632 -16.55248,-49.4192 2.43255,-1.12112 5.80534,-3.83064 7.35144,-5.87046 9.71045,12.76323 28.94971,23.16772 44.51267,29.0161 z"
     id="path2855-7-8"
     style="fill:#d61a1a;fill-opacity:1;stroke:none" />
  <path
     d="m 263.11894,196.18685 c -12.04512,3.06401 -32.11179,0.14769 -43.48072,-7.09673 9.37818,-11.36767 20.47996,-27.52305 24.01003,-46.31397 2.50001,0.96855 6.79689,1.50712 9.34025,1.1985 -2.4161,15.86977 3.49903,36.94901 10.13044,52.2122 z"
     id="path2855-7-2"
     style="fill:#d61a1a;fill-opacity:1;stroke:none" />
  <path
     d="m 210.39989,184.65397 c -11.06373,-5.65465 -24.19873,-21.09498 -27.94753,-34.03993 14.54561,-2.33882 33.54653,-7.13275 48.60505,-18.90492 1.23674,2.37788 4.10608,5.61963 6.21877,7.06757 -12.29337,10.31539 -21.774,30.04241 -26.87629,45.87728 z"
     id="path2855-7-5"
     style="fill:#d61a1a;fill-opacity:1;stroke:none" />
  <path
     d="m 179.06153,137.99362 c -3.56669,-11.912 -1.49109,-32.09253 5.27469,-43.759863 11.75543,8.898723 28.36867,19.320043 47.29961,22.062533 -0.86356,2.53951 -1.22213,6.85715 -0.80722,9.38656 -15.9644,-1.75116 -36.78753,5.04349 -51.76708,12.31077 z"
     id="path2855-7-7"
     style="fill:#d61a1a;fill-opacity:1;stroke:none" />
</svg>
