<?xml version="1.0" encoding="UTF-8" standalone="no"?>
<!-- Created with Inkscape (http://www.inkscape.org/) -->
<svg
   xmlns:svg="http://www.w3.org/2000/svg"
   xmlns="http://www.w3.org/2000/svg"
   version="1.0"
   width="393"
   height="482"
   id="svg2">
  <defs
     id="defs5" />
  <path
     d="M 173.25295,456.43618 C 146.91806,428.83265 137.82102,418.77652 121.92246,399.69405 C 54.8801,319.22549 23.579148,252.06584 10.433258,160.4816 C 5.6513985,127.1676 3.2914585,91.530014 2.2525385,36.944046 L 1.5625985,0.69404618 L 196.88093,0.69404618 L 392.19926,0.69404618 L 391.50932,36.944046 C 389.61695,136.37093 382.08649,191.3968 362.68468,247.56875 C 342.6527,305.56514 307.06642,361.49127 249.34201,425.69405 C 236.98636,439.43636 198.21975,480.05068 197.09032,480.43618 C 196.70015,480.56935 185.97334,469.76935 173.25295,456.43618 z"
     id="path2591"
     style="fill:#c6c6c7;fill-opacity:1;stroke:#b0b0b0;stroke-width:3.12519693;stroke-miterlimit:4;stroke-dasharray:none;stroke-opacity:1" />
  <path
     d="M 176.07115,417.25793 C 172.34527,416.13657 164.50218,410.26464 159.54045,404.8818 C 151.17133,395.80238 148.35546,386.28615 148.33311,367.00665 C 148.32486,359.89035 147.91037,354.25665 147.39506,354.25665 C 144.99501,354.25665 140.00634,360.10898 136.69487,366.80927 C 133.44909,373.37666 133.10357,374.79551 133.64229,379.34419 C 133.98689,382.25378 135.56656,386.80667 137.2926,389.86506 C 140.01845,394.695 140.14183,395.25665 138.47692,395.25665 C 135.4922,395.25665 128.46598,389.55893 125.30587,384.57594 C 123.70192,382.04678 121.13606,376.32778 119.60396,371.86706 C 117.13221,364.6705 116.83524,362.46087 116.96839,352.25665 C 117.38053,320.67264 128.33208,292.18235 148.78146,269.49549 C 151.38971,266.60185 153.2912,263.62833 153.00698,262.88768 C 152.29072,261.02113 147.71096,260.31291 142.06833,261.1961 C 139.45583,261.60501 137.31833,261.76357 137.31833,261.54845 C 137.31833,259.37975 141.60669,254.30192 147.37248,249.64338 C 151.24585,246.51383 154.05573,243.60364 153.61665,243.17628 C 153.17757,242.74891 151.26638,242.25467 149.36956,242.07796 L 145.92078,241.75666 L 149.1309,238.11172 C 151.4395,235.49042 155.13904,233.2861 162.30413,230.26265 L 172.26723,226.05852 L 170.84167,223.3018 L 169.41611,220.54507 L 177.70159,220.50697 C 192.41318,220.4393 211.40385,213.47904 218.29677,205.62845 C 225.23035,197.73151 227.86436,187.34173 225.74827,176.23608 C 222.7049,160.26387 216.68256,155.86292 189.68932,149.88526 C 183.56837,148.52978 176.69898,146.47117 174.42404,145.31058 C 172.1491,144.14999 160.28215,136.80807 148.05306,128.99521 C 114.37432,107.47871 93.096804,97.470323 71.818324,93.136353 C 68.518325,92.464213 60.125235,91.878813 53.167015,91.835463 C 39.530755,91.750513 39.653345,91.819923 44.039875,86.667813 C 47.024665,83.162083 51.575285,80.528543 57.749855,78.733543 C 62.577375,77.330143 66.353745,77.113183 78.727754,77.528363 C 93.593254,78.027113 94.161354,78.131483 116.81833,84.526133 C 142.63593,91.812813 154.64621,94.668933 156.53766,93.971623 C 158.86354,93.114153 145.99761,81.623883 138.4629,77.829463 C 123.151,70.118513 108.45085,67.991003 73.525954,68.431323 C 46.493505,68.772143 47.361965,68.986813 47.333635,61.956993 C 47.315895,57.554166 49.517015,52.755876 52.217435,51.310656 C 53.792175,50.467876 54.297675,50.792606 55.344235,53.319226 C 57.742035,59.108026 61.964755,60.154746 87.318324,61.244913 C 106.47582,62.068663 113.89767,63.025393 140.81504,68.141013 C 145.40836,69.013963 145.65056,68.966733 143.81504,67.555983 C 139.56633,64.290483 117.30377,54.151246 106.96443,50.772766 C 91.156134,45.607266 72.592934,41.982646 61.318325,41.860006 C 53.158755,41.771246 51.123715,42.098526 46.895415,44.179576 C 44.187815,45.512176 40.212815,48.362176 38.062075,50.512906 C 35.911345,52.663636 33.851655,54.123236 33.484995,53.756446 C 33.118325,53.389666 32.856125,50.314666 32.902325,46.923116 C 33.033155,37.318616 38.267735,28.722536 47.173725,23.487046 C 51.621505,20.872366 52.369205,20.761006 64.818325,20.859296 C 81.525524,20.991206 90.426684,23.284206 118.98814,34.813836 L 140.15794,43.359626 L 148.2063,39.312986 C 182.89341,21.872656 227.60722,25.755996 288.61681,51.507466 C 312.75021,61.693903 327.55011,74.739393 341.08582,97.756653 C 349.59021,112.21825 357.711,137.04932 352.10166,131.43998 C 348.77064,128.10896 348.51553,131.38495 351.31833,141.49921 C 352.41833,145.46869 353.31833,149.83169 353.31833,151.19476 C 353.31833,153.55776 353.1158,153.4743 348.96521,149.4008 L 344.61209,145.12853 L 343.9739,150.44259 C 343.6229,153.36532 343.31419,157.78165 343.28788,160.25665 L 343.24005,164.75665 L 341.91582,161.75665 C 340.41747,158.36221 336.63027,154.61137 335.67042,155.57123 C 335.32081,155.92083 334.92281,163.08057 334.78597,171.48176 C 334.54561,186.23872 334.41176,187.11148 330.8386,197.22125 C 324.71763,214.53966 319.97327,222.66364 298.40623,252.75666 C 277.43609,282.01679 270.19088,295.58283 266.82107,311.89712 C 263.93465,325.87117 265.45687,339.3229 271.54311,353.62536 C 274.05461,359.5273 274.42198,361.41767 273.8684,365.59074 C 272.19134,378.23306 264.3233,385.25665 251.83805,385.25665 L 245.25846,385.25665 L 247.53839,382.17287 C 249.3336,379.74472 249.81833,377.77389 249.81833,372.90302 C 249.81833,367.41218 249.39163,366.07409 246.02165,360.997 C 243.93347,357.85102 241.31842,354.79188 240.21043,354.1989 C 238.44188,353.2524 238.05132,353.52589 237.01184,356.4387 C 236.36061,358.26357 233.63182,364.2104 230.94786,369.65387 C 222.99019,385.79322 208.93236,398.10095 195.35357,400.8169 L 191.8888,401.5099 L 195.09743,397.85547 C 201.50031,390.56299 202.81834,386.79053 202.81834,375.75665 C 202.81834,366.64554 202.55167,365.22332 199.81834,359.75665 C 197.99623,356.11244 196.07327,353.61854 194.92071,353.40489 C 191.67635,352.8035 178.21323,367.66587 173.672,376.862 C 170.28019,383.73055 169.82302,385.51021 169.85744,391.71124 C 169.88647,396.94031 170.4537,399.81689 172.05765,402.86922 C 174.47812,407.47537 183.65111,416.21883 186.17649,416.32694 C 187.45712,416.38176 187.37832,416.5863 185.81834,417.25665 C 183.31702,418.3315 179.63984,418.33199 176.07115,417.25793 z M 221.83359,141.80058 C 226.9322,138.81259 231.98999,131.99802 233.95494,125.46899 C 237.15829,114.82508 234.73673,95.751863 228.4107,81.800113 L 225.6262,75.659013 L 218.22227,73.359463 C 214.15011,72.094703 207.64295,70.825583 203.76193,70.539193 C 197.80148,70.099363 196.03332,70.361413 192.37764,72.226403 C 181.66983,77.689123 180.83413,82.019603 188.31921,93.256653 C 194.56601,102.63473 195.15579,105.43919 192.28473,112.11315 C 189.96568,117.50393 186.13419,121.47498 177.70045,127.22866 L 172.61118,130.70066 L 182.71476,135.55534 C 204.2426,145.89928 212.5709,147.22888 221.83359,141.80058 z M 184.56834,67.460643 C 187.29707,65.099963 186.83489,59.808136 183.68348,57.329236 C 180.14376,54.544896 177.12806,54.719656 173.95469,57.893026 C 166.80829,65.039423 176.87629,74.115173 184.56834,67.460643 z M 174.11548,64.710793 C 173.09593,62.473133 173.27456,61.845883 175.59106,59.529386 C 177.9179,57.202556 178.52811,57.031206 180.80054,58.066596 C 184.03934,59.542296 184.89277,61.700503 183.47124,64.820423 C 181.84554,68.388453 175.75863,68.317123 174.11548,64.710793 z"
     id="path3363"
     style="fill:#000000" />
</svg>
