<?xml version="1.0" encoding="UTF-8" standalone="no"?>
<!-- Created with Inkscape (http://www.inkscape.org/) -->

<svg
   xmlns:svg="http://www.w3.org/2000/svg"
   xmlns="http://www.w3.org/2000/svg"
   version="1.1"
   width="390"
   height="480"
   id="svg4228">
  <defs
     id="defs4232" />
  <path
     d="M 0,0 C 130,0 260,0 390,0 389.98981,114.99797 370.78556,350.14732 194.88837,479.99815 20.79131,350.08886 0.081386,115.02225 0,0 z"
     id="path4240-0"
     style="color:#000000;fill:#008c31;fill-opacity:1;fill-rule:nonzero;stroke:none;marker:none;visibility:visible;display:inline;overflow:visible;enable-background:accumulate" />
  <path
     d="m 230.83272,191.00528 c -2.11775,3.80591 -9.87446,7.01793 -10.08645,6.83666 -7.63917,-12.91467 -13.97654,-54.52023 -11.98954,-62.86768 6.40948,-5.1002 17.48089,-10.54397 26.48042,-13.81076 45.24858,-77.026512 91.92801,-97.602849 115.60109,-105.91903 5.54994,-1.949653 7.2985,3.913054 5.34347,6.36934 -25.54485,32.09436 -20.78483,31.579988 -21.10618,38.249304 -1.0006,20.76651 -10.12349,19.349537 -8.51695,2.288136 -3.2823,18.241349 7.65277,21.41164 10.36017,-1.144068 1.36729,-11.391035 26.5129,-8.280795 28.15678,-23.771186 8.46754,16.961761 -14.2318,16.101303 -31.90678,55.423729 -42.07898,12.684255 -38.49286,-9.477858 -40.29661,-17.669492 -0.81672,19.858936 8.01741,28.379547 39.72458,19.894068 -7.98289,31.839219 -16.72545,62.952079 -22.05508,98.771179 9.8708,4.48544 21.8289,12.53281 27.17266,25.14982 -2.92724,5.83745 -17.10533,15.1947 -19.07882,14.63232 -2.89519,-8.6336 -5.84472,-15.1247 -10.00062,-22.1762 -1.28073,25.17108 -6.15339,50.94082 -11.44068,76.77966 6.70093,5.22802 10.25393,13.77491 12.03579,20.72695 -2.04919,4.08455 -21.71993,25.17996 -27.26912,24.91819 -0.44865,-3.87767 0.83903,-7.72123 -1.80057,-12.08582 l -16.5382,19.4747 c -5.88157,6.9259 9.97049,40.71493 -20.45333,66.4575 2.09644,-16.72922 -20.77153,-29.27621 -8.77119,-44.74576 -18.13117,1.61351 -14.99793,-15.41682 -25.55084,-18.94068 13.23073,-9.08418 28.52775,-13.00266 42.9661,-19.06779 13.94277,-31.57836 0.0347,-13.30561 -6.20782,-9.62782 -1.40759,-2.10151 -3.34162,-6.5643 -4.67342,-9.13299 l 18.50836,-13.40021 c -1.97416,-45.80669 -19.91855,-67.8661 -28.60722,-101.61207 z"
     id="path3683"
     style="fill:#f2f2f2;fill-opacity:1;stroke:none" />
  <path
     d="m 158.45979,191.00528 c 2.11775,3.80591 9.87446,7.01793 10.08645,6.83666 7.63917,-12.91467 13.97654,-54.52023 11.98954,-62.86768 -6.40948,-5.1002 -17.48089,-10.54397 -26.48042,-13.81076 C 108.80678,44.136988 62.127347,23.560651 38.454267,15.24447 c -5.549937,-1.949653 -7.2985,3.913054 -5.34347,6.36934 25.544848,32.09436 20.784829,31.579988 21.106181,38.249304 1.000606,20.76651 10.123496,19.349537 8.51695,2.288136 3.282299,18.241349 -7.652766,21.41164 -10.360169,-1.144068 -1.367287,-11.391035 -26.512904,-8.280795 -28.15678,-23.771186 -8.467543,16.961761 14.231799,16.101303 31.906779,55.423729 42.078985,12.684255 38.492865,-9.477858 40.296615,-17.669492 0.81672,19.858936 -8.01741,28.379547 -39.72458,19.894068 7.982889,31.839219 16.725443,62.952079 22.05508,98.771179 -9.8708,4.48544 -21.828906,12.53281 -27.172663,25.14982 2.927244,5.83745 17.105329,15.1947 19.078824,14.63232 2.895181,-8.6336 5.84472,-15.1247 10.000619,-22.1762 1.28073,25.17108 6.15339,50.94082 11.44068,76.77966 -6.700929,5.22802 -10.253931,13.77491 -12.035798,20.72695 2.049199,4.08455 21.719935,25.17996 27.269125,24.91819 0.44865,-3.87767 -0.83903,-7.72123 1.80057,-12.08582 l 16.5382,19.4747 c 5.88157,6.9259 -9.97049,40.71493 20.45333,66.4575 -2.09644,-16.72922 20.77153,-29.27621 8.77119,-44.74576 18.13117,1.61351 14.99793,-15.41682 25.55084,-18.94068 -13.23073,-9.08418 -28.52775,-13.00266 -42.9661,-19.06779 -13.94277,-31.57836 -0.0347,-13.30561 6.20782,-9.62782 1.40759,-2.10151 3.34162,-6.5643 4.67342,-9.13299 l -18.50836,-13.40021 c 1.97416,-45.80669 19.91855,-67.8661 28.60722,-101.61207 z"
     id="path2827"
     style="fill:#f2f2f2;fill-opacity:1;stroke:none" />
  <path
     d="m 73.157657,51.918201 a 5.0847462,5.275424 0 0 1 -10.169492,0 5.0847462,5.275424 0 1 1 10.169492,0 z"
     id="path3711"
     style="fill:#008c31;fill-opacity:1;stroke:none" />
  <path
     d="m 82.818673,106.89701 c -0.58981,8.77397 -4.51206,14.82141 -8.771186,20.59322 l 18.305086,16.52542 c 6.87862,-17.13919 2.78583,-28.96963 -0.50848,-41.18644 2.7003,13.13864 5.22603,27.83682 -0.19067,38.58051 L 76.017826,127.23598 c 3.786187,-6.12546 7.417047,-13.53622 6.800847,-20.33897 z"
     id="path3717"
     style="fill:#008c31;fill-opacity:1;stroke:none" />
  <path
     d="m 306.8691,107.09216 c 0.58982,8.77397 4.51207,14.82141 8.77119,20.59322 l -18.30508,16.52542 c -6.87862,-17.13919 -2.78583,-28.96963 0.50847,-41.18644 -2.7003,13.13864 -5.22603,27.83682 0.19068,38.58051 l 15.63559,-14.17374 c -3.78618,-6.12546 -7.41704,-13.53622 -6.80085,-20.33897 z"
     id="path3717-1"
     style="fill:#008c31;fill-opacity:1;stroke:none" />
  <path
     d="m 72.235663,51.918731 a 4.1627527,4.318856 0 0 1 -8.325503,0 4.1627527,4.318856 0 1 1 8.325503,0 z"
     id="path3711-4"
     style="fill:#f2f2f2;fill-opacity:1;stroke:none" />
  <path
     d="m 70.379052,51.791646 a 2.2425847,2.2425847 0 0 1 -4.485169,0 2.2425847,2.2425847 0 1 1 4.485169,0 z"
     id="path3713-17"
     style="fill:#008000;fill-opacity:1;stroke:none" />
  <path
     d="m 326.50424,52.056896 a 5.0847462,5.275424 0 0 1 -10.16949,0 5.0847462,5.275424 0 1 1 10.16949,0 z"
     id="path3711-0"
     style="fill:#008c31;fill-opacity:1;stroke:none" />
  <path
     d="m 325.58224,52.057426 a 4.1627527,4.318856 0 0 1 -8.3255,0 4.1627527,4.318856 0 1 1 8.3255,0 z"
     id="path3711-4-9"
     style="fill:#f2f2f2;fill-opacity:1;stroke:none" />
  <path
     d="m 323.72563,51.930341 a 2.242585,2.242585 0 0 1 -4.48517,0 2.242585,2.242585 0 1 1 4.48517,0 z"
     id="path3713-17-4"
     style="fill:#008000;fill-opacity:1;stroke:none" />
</svg>
