<?xml version="1.0" encoding="UTF-8" standalone="no"?>
<!-- Created with Inkscape (http://www.inkscape.org/) -->

<svg
 xmlns:dc="http://purl.org/dc/elements/1.1/"
 xmlns:cc="http://creativecommons.org/ns#"
 xmlns:rdf="http://www.w3.org/1999/02/22-rdf-syntax-ns#"
 xmlns:svg="http://www.w3.org/2000/svg"
 xmlns="http://www.w3.org/2000/svg"
 xmlns:xlink="http://www.w3.org/1999/xlink"
 version="1.2"
 width="415"
 height="470"
 id="svg2816">
<metadata
 id="metadata19">
<rdf:RDF>
<cc:Work
 rdf:about="">
<dc:format>image/svg+xml</dc:format>
<dc:type
 rdf:resource="http://purl.org/dc/dcmitype/StillImage" />
<dc:title></dc:title>
</cc:Work>
</rdf:RDF>
</metadata>
<defs
 id="defs2820" />
<path
 d="m 205.98663,470.03566 c 12.46333,-15.69307 31.38216,-34.79583 56.16015,-34.77982 l 102.61365,0.0663 c 36.64813,0.0236 45.90244,-20.71267 45.94907,-45.87405 L 411.42145,5.345567 2.2224811,4.45562 1.6291802,387.49002 c -0.044976,29.04049 13.9052558,47.26673 40.0477428,47.28606 l 102.759727,0.0755 c 30.4418,0.0224 53.92421,19.69995 61.54998,35.18408 z"
 id="path4127"
 style="fill:#ff0000;fill-opacity:1;stroke:none" />
<path
 d="m 205.77022,449.10016 c 17.21508,-22.34674 24.63656,-26.2122 51.20588,-26.12646 l 97.51145,0.31467 c 15.18799,0.049 22.50417,2.17446 33.6435,-9.12481 9.75578,-9.89585 8.58631,-16.81279 8.62203,-36.03494 L 397.41809,20.180337 15.294543,19.35115 15.65088,376.98447 c 0.0205,20.57647 -0.567858,27.70924 6.491707,35.98626 6.998355,8.20527 12.251422,9.36956 27.492292,9.44288 33.897178,0.16307 67.556661,0.74356 99.089381,0.18147 20.09437,-0.35819 41.53372,2.75534 57.04596,26.50508 z"
 id="path4127-0"
 style="fill:#ffffff;fill-opacity:1;stroke:none" />
<path
 d="m 204.93958,432.54378 c 11.46817,-15.0618 32.09333,-21.66564 47.58472,-21.61499 l 90.77002,0.29681 c 3.82278,0.0125 26.52511,2.84824 34.34043,-5.512 7.46088,-7.98109 4.9431,-12.063 5.00376,-37.00821 L 383.45841,31.559077 27.752678,30.29884 27.598035,368.08389 c -0.0071,15.49536 -1.952994,29.49056 3.818595,36.39266 5.329263,6.37313 13.172528,6.42599 27.359564,6.49491 31.553815,0.15525 63.595966,-0.26797 92.980346,-0.3992 23.74407,-0.10604 40.85453,8.51154 53.18304,21.97152 z"
 id="path4127-0-9"
 style="fill:#0752e9;fill-opacity:1;stroke:none" />
<path
 d="m 205.14635,414.56412 c 9.99486,-8.96438 24.58091,-17.91698 45.11615,-17.87677 31.73937,0.0622 70.17672,0.4694 100.08289,0.32927 21.7196,-0.10177 19.38128,0.18284 19.3221,-20.82704 -0.30768,-109.23215 0.26826,-221.9546 0.53455,-332.258897 L 42.532864,43.91091 c 0.221223,117.63853 -1.898475,235.78819 -0.581821,341.01677 0.10583,8.45806 -0.04039,11.20017 11.078493,11.26824 34.537049,0.21144 71.625614,0.68246 103.713464,0.95914 23.71673,0.22255 37.90076,8.72192 48.40335,17.40906 z"
 id="path4127-0-9-4"
 style="fill:#c0dce3;fill-opacity:1;stroke:none" />
<text
 x="-57.384014"
 y="139.60422"
 transform="matrix(0.6633801,-0.7482826,0.7482826,0.6633801,0,0)"
 id="text3192"
 xml:space="preserve"
 style="font-size:19.27828026px;font-style:normal;font-variant:normal;font-weight:normal;font-stretch:normal;text-align:start;line-height:125%;letter-spacing:0px;word-spacing:0px;writing-mode:lr-tb;text-anchor:start;fill:#000000;fill-opacity:1;stroke:none;font-family:Sans;-inkscape-font-specification:Sans"><tspan
 x="-57.384014"
 y="139.60422"
 id="tspan3194">V</tspan></text>
<text
 x="-24.189905"
 y="144.21916"
 transform="matrix(0.75954284,-0.65045728,0.65045728,0.75954284,0,0)"
 id="text4271"
 xml:space="preserve"
 style="font-size:18.21717072px;font-style:normal;font-weight:normal;line-height:125%;letter-spacing:0px;word-spacing:0px;fill:#000000;fill-opacity:1;stroke:none;font-family:Sans"><tspan
 x="-24.189905"
 y="144.21916"
 id="tspan4273">A</tspan></text>
<text
 x="1.2729948"
 y="144.29497"
 transform="matrix(0.80030172,-0.59674408,0.58976676,0.80976981,0,0)"
 id="text4283"
 xml:space="preserve"
 style="font-size:17.85100937px;font-style:normal;font-weight:normal;line-height:125%;letter-spacing:0px;word-spacing:0px;fill:#000000;fill-opacity:1;stroke:none;font-family:Sans"><tspan
 x="1.2729948"
 y="144.29497"
 id="tspan4285">R</tspan></text>
<text
 x="27.065096"
 y="142.99458"
 transform="matrix(0.84575094,-0.52987586,0.5251452,0.85336971,0,0)"
 id="text4287"
 xml:space="preserve"
 style="font-size:17.89409828px;font-style:normal;font-weight:normal;line-height:125%;letter-spacing:0px;word-spacing:0px;fill:#000000;fill-opacity:1;stroke:none;font-family:Sans"><tspan
 x="27.065096"
 y="142.99458"
 id="tspan4289">D</tspan></text>
<text
 x="56.497089"
 y="138.11343"
 transform="matrix(0.90652886,-0.42668579,0.42927731,0.90105623,0,0)"
 id="text4291"
 xml:space="preserve"
 style="font-size:18.44691849px;font-style:normal;font-weight:normal;line-height:125%;letter-spacing:0px;word-spacing:0px;fill:#000000;fill-opacity:1;stroke:none;font-family:Sans"><tspan
 x="56.497089"
 y="138.11343"
 id="tspan4293">Ö</tspan></text>
<text
 x="85.010788"
 y="131.24417"
 transform="matrix(0.93656611,-0.34798841,0.34718603,0.93873062,0,0)"
 id="text4295"
 xml:space="preserve"
 style="font-size:18.06935883px;font-style:normal;font-weight:normal;line-height:125%;letter-spacing:0px;word-spacing:0px;fill:#000000;fill-opacity:1;stroke:none;font-family:Sans"><tspan
 x="85.010788"
 y="131.24417"
 id="tspan4297">E</tspan></text>
<text
 x="109.7757"
 y="122.30318"
 transform="matrix(0.96180825,-0.26632707,0.26508775,0.96630483,0,0)"
 id="text4299"
 xml:space="preserve"
 style="font-size:18.44215012px;font-style:normal;font-weight:normal;line-height:125%;letter-spacing:0px;word-spacing:0px;fill:#000000;fill-opacity:1;stroke:none;font-family:Sans"><tspan
 x="109.7757"
 y="122.30318"
 id="tspan4301">N</tspan></text>
<text
 x="172.32233"
 y="80.366074"
 id="text4303"
 xml:space="preserve"
 style="font-size:18.10554123px;font-style:normal;font-weight:normal;line-height:125%;letter-spacing:0px;word-spacing:0px;fill:#000000;fill-opacity:1;stroke:none;font-family:Sans"><tspan
 x="172.32233"
 y="80.366074"
 id="tspan4305">S</tspan></text>
<text
 x="151.49329"
 y="106.85777"
 transform="matrix(0.98806532,-0.15403544,0.15403544,0.98806532,0,0)"
 id="text4307"
 xml:space="preserve"
 style="font-size:18.38199043px;font-style:normal;font-weight:normal;line-height:125%;letter-spacing:0px;word-spacing:0px;fill:#000000;fill-opacity:1;stroke:none;font-family:Sans"><tspan
 x="151.49329"
 y="106.85777"
 id="tspan4309">I</tspan></text>
<text
 x="130.7193"
 y="116.94666"
 transform="matrix(0.96807288,-0.22674711,0.2238628,0.98054576,0,0)"
 id="text4311"
 xml:space="preserve"
 style="font-size:18.28655434px;font-style:normal;font-weight:normal;line-height:125%;letter-spacing:0px;word-spacing:0px;fill:#000000;fill-opacity:1;stroke:none;font-family:Sans"><tspan
 x="130.7193"
 y="116.94666"
 id="tspan4313">S</tspan></text>
<text
 x="190.20406"
 y="88.114494"
 transform="matrix(0.99893623,-0.04611295,0.04611295,0.99893623,0,0)"
 id="text4315"
 xml:space="preserve"
 style="font-size:18.38199043px;font-style:normal;font-weight:normal;line-height:125%;letter-spacing:0px;word-spacing:0px;fill:#000000;fill-opacity:1;stroke:none;font-family:Sans"><tspan
 x="190.20406"
 y="88.114494"
 id="tspan4317">I</tspan></text>
<text
 x="249.42047"
 y="11.263495"
 transform="matrix(0.96043541,0.27850283,-0.27850283,0.96043541,0,0)"
 id="text4331"
 xml:space="preserve"
 style="font-size:18.10554123px;font-style:normal;font-weight:normal;line-height:125%;letter-spacing:0px;word-spacing:0px;fill:#000000;fill-opacity:1;stroke:none;font-family:Sans"><tspan
 x="249.42047"
 y="11.263495"
 id="tspan4333">G</tspan></text>
<text
 x="198.52072"
 y="85.339592"
 transform="matrix(0.9994618,-0.03280424,0.03280424,0.9994618,0,0)"
 id="text4335"
 xml:space="preserve"
 style="font-size:18.38199043px;font-style:normal;font-weight:normal;line-height:125%;letter-spacing:0px;word-spacing:0px;fill:#000000;fill-opacity:1;stroke:none;font-family:Sans"><tspan
 x="198.52072"
 y="85.339592"
 id="tspan4337">N</tspan></text>
<text
 x="286.44504"
 y="-31.204029"
 transform="matrix(0.90846725,0.41795604,-0.41795604,0.90846725,0,0)"
 id="text4343"
 xml:space="preserve"
 style="font-size:18.181633px;font-style:normal;font-weight:normal;line-height:125%;letter-spacing:0px;word-spacing:0px;fill:#000000;fill-opacity:1;stroke:none;font-family:Sans"><tspan
 x="286.44504"
 y="-31.204029"
 id="tspan4345">A</tspan></text>
<text
 x="302.17175"
 y="-63.817234"
 transform="matrix(0.85909914,0.51180922,-0.51180922,0.85909914,0,0)"
 id="text4347"
 xml:space="preserve"
 style="font-size:18.24144936px;font-style:normal;font-weight:normal;line-height:125%;letter-spacing:0px;word-spacing:0px;fill:#000000;fill-opacity:1;stroke:none;font-family:Sans"><tspan
 x="302.17175"
 y="-63.817234"
 id="tspan4349">U</tspan></text>
<text
 x="312.63382"
 y="-83.866493"
 transform="matrix(0.8261171,0.56414976,-0.56529166,0.82444831,0,0)"
 id="text4351"
 xml:space="preserve"
 style="font-size:17.79493904px;font-style:normal;font-weight:normal;line-height:125%;letter-spacing:0px;word-spacing:0px;fill:#000000;fill-opacity:1;stroke:none;font-family:Sans"><tspan
 x="312.63382"
 y="-83.866493"
 id="tspan4353">R</tspan></text>
<text
 x="323.17169"
 y="-101.44659"
 transform="matrix(0.79447695,0.60703386,-0.60605042,0.79562645,0,0)"
 id="text4355"
 xml:space="preserve"
 style="font-size:18.00374603px;font-style:normal;font-weight:normal;line-height:125%;letter-spacing:0px;word-spacing:0px;fill:#000000;fill-opacity:1;stroke:none;font-family:Sans"><tspan
 x="323.17169"
 y="-101.44659"
 id="tspan4357">B</tspan></text>
<text
 x="220.71255"
 y="65.418129"
 transform="matrix(0.99813748,0.06100468,-0.06100468,0.99813748,0,0)"
 id="text4363"
 xml:space="preserve"
 style="font-size:18.10554123px;font-style:normal;font-weight:normal;line-height:125%;letter-spacing:0px;word-spacing:0px;fill:#000000;fill-opacity:1;stroke:none;font-family:Sans"><tspan
 x="220.71255"
 y="65.418129"
 id="tspan4365">S</tspan></text>
<use
 transform="matrix(0.98318979,0.18258652,-0.18258652,0.98318979,53.688607,-33.205071)"
 id="use4367"
 style="fill:#000000"
 x="0"
 y="0"
 width="417"
 height="480"
 xlink:href="#text4315" />
<use
 transform="matrix(0.97593829,0.21804689,-0.21804689,0.97593829,59.547589,-39.430128)"
 id="use4369"
 style="fill:#000000"
 x="0"
 y="0"
 width="417"
 height="480"
 xlink:href="#use4367" />
<use
 transform="matrix(0.78315041,0.62183231,-0.62183231,0.78315041,214.28473,-67.938777)"
 id="use4371"
 style="fill:#000000"
 x="0"
 y="0"
 width="417"
 height="480"
 xlink:href="#text4363" />
<text
 x="264.21078"
 y="0.30781138"
 transform="matrix(0.95530313,0.31738545,-0.32269783,0.93957653,0,0)"
 id="use4373"
 xml:space="preserve"
 style="font-size:18.07984924px;font-style:normal;font-weight:normal;line-height:125%;letter-spacing:0px;word-spacing:0px;fill:#000000;fill-opacity:1;stroke:none;font-family:Sans"><tspan
 x="264.21078"
 y="0.30781138"
 id="tspan4377">N</tspan></text>
<use
 transform="matrix(0.7354111,0.67762121,-0.67762121,0.7354111,240.05512,-66.036009)"
 id="use4381"
 style="fill:#000000"
 x="0"
 y="0"
 width="417"
 height="480"
 xlink:href="#text4315" />
<text
 x="-98.287842"
 y="170.18674"
 id="text4499"
 xml:space="preserve"
 style="font-size:40px;font-style:normal;font-weight:normal;line-height:125%;letter-spacing:0px;word-spacing:0px;fill:#000000;fill-opacity:1;stroke:none;font-family:Sans"><tspan
 x="-98.287842"
 y="170.18674"
 id="tspan4501" /></text>
<text
 x="50.922897"
 y="73.597946"
 transform="scale(1.0375447,0.9638139)"
 id="text4503"
 xml:space="preserve"
 style="font-size:29.15263557px;font-style:normal;font-variant:normal;font-weight:bold;font-stretch:normal;text-align:start;line-height:125%;letter-spacing:0px;word-spacing:0px;writing-mode:lr-tb;text-anchor:start;fill:#000000;fill-opacity:1;stroke:none;font-family:Times New Roman;-inkscape-font-specification:'Times New Roman, Bold'"><tspan
 x="50.922897"
 y="73.597946"
 id="tspan4505">1</tspan></text>
<text
 x="65.626328"
 y="71.693855"
 transform="scale(1.015838,0.98440893)"
 id="text4507"
 xml:space="preserve"
 style="font-size:27.87839699px;font-style:normal;font-variant:normal;font-weight:bold;font-stretch:normal;text-align:start;line-height:125%;letter-spacing:0px;word-spacing:0px;writing-mode:lr-tb;text-anchor:start;fill:#000000;fill-opacity:1;stroke:none;font-family:Times New Roman;-inkscape-font-specification:'Times New Roman, Bold'"><tspan
 x="65.626328"
 y="71.693855"
 id="tspan4509">7</tspan></text>
<text
 x="322.1304"
 y="73.235565"
 transform="scale(1.0225094,0.97798612)"
 id="text4511"
 xml:space="preserve"
 style="font-size:29.06067467px;font-style:normal;font-variant:normal;font-weight:bold;font-stretch:normal;text-align:start;line-height:125%;letter-spacing:0px;word-spacing:0px;writing-mode:lr-tb;text-anchor:start;fill:#000000;fill-opacity:1;stroke:none;font-family:Times New Roman;-inkscape-font-specification:'Times New Roman, Bold'"><tspan
 x="322.1304"
 y="73.235565"
 id="tspan4513">8</tspan></text>
<text
 x="346.91064"
 y="70.974808"
 transform="scale(0.99097646,1.0091057)"
 id="text4515"
 xml:space="preserve"
 style="font-size:27.93537521px;font-style:normal;font-variant:normal;font-weight:bold;font-stretch:normal;text-align:start;line-height:125%;letter-spacing:0px;word-spacing:0px;writing-mode:lr-tb;text-anchor:start;fill:#000000;fill-opacity:1;stroke:none;font-family:Times New Roman;-inkscape-font-specification:'Times New Roman, Bold'"><tspan
 x="346.91064"
 y="70.974808"
 id="tspan4517">9</tspan></text>
<text
 x="213.84331"
 y="212.40782"
 transform="matrix(0.85700079,0.51659849,-0.51806823,0.8545695,0,0)"
 id="text4519"
 xml:space="preserve"
 style="font-size:17.87885284px;font-style:normal;font-variant:normal;font-weight:normal;font-stretch:normal;text-align:start;line-height:125%;letter-spacing:0px;word-spacing:0px;writing-mode:lr-tb;text-anchor:start;fill:#000000;fill-opacity:1;stroke:none;font-family:Sans;-inkscape-font-specification:Sans"><tspan
 x="213.84331"
 y="212.40782"
 id="tspan4521">C</tspan></text>
<text
 x="217.26207"
 y="224.06325"
 transform="matrix(0.88309642,0.46919155,-0.46919155,0.88309642,0,0)"
 id="text4523"
 xml:space="preserve"
 style="font-size:18.38199043px;font-style:normal;font-variant:normal;font-weight:normal;font-stretch:normal;text-align:start;line-height:125%;letter-spacing:0px;word-spacing:0px;writing-mode:lr-tb;text-anchor:start;fill:#000000;fill-opacity:1;stroke:none;font-family:Sans;-inkscape-font-specification:Sans"><tspan
 x="217.26207"
 y="224.06325"
 id="tspan4525">E</tspan></text>
<text
 x="220.31013"
 y="232.94778"
 transform="matrix(0.90118095,0.42622153,-0.42207699,0.91003,0,0)"
 id="text4527"
 xml:space="preserve"
 style="font-size:17.7362957px;font-style:normal;font-variant:normal;font-weight:normal;font-stretch:normal;text-align:start;line-height:125%;letter-spacing:0px;word-spacing:0px;writing-mode:lr-tb;text-anchor:start;fill:#000000;fill-opacity:1;stroke:none;font-family:Sans;-inkscape-font-specification:Sans"><tspan
 x="220.31013"
 y="232.94778"
 id="tspan4529">D</tspan></text>
<text
 x="220.37624"
 y="242.52318"
 transform="matrix(0.91138294,0.3685767,-0.35513085,0.95361346,0,0)"
 id="text4531"
 xml:space="preserve"
 style="font-size:18.18580627px;font-style:normal;font-variant:normal;font-weight:normal;font-stretch:normal;text-align:start;line-height:125%;letter-spacing:0px;word-spacing:0px;writing-mode:lr-tb;text-anchor:start;fill:#000000;fill-opacity:1;stroke:none;font-family:Sans;-inkscape-font-specification:Sans"><tspan
 x="220.37624"
 y="242.52318"
 id="tspan4533">A</tspan></text>
<text
 x="215.64891"
 y="261.76038"
 transform="matrix(0.94516667,0.29490731,-0.28789555,0.96818638,0,0)"
 id="text4535"
 xml:space="preserve"
 style="font-size:18.23517609px;font-style:normal;font-variant:normal;font-weight:normal;font-stretch:normal;text-align:start;line-height:125%;letter-spacing:0px;word-spacing:0px;writing-mode:lr-tb;text-anchor:start;fill:#000000;fill-opacity:1;stroke:none;font-family:Sans;-inkscape-font-specification:Sans"><tspan
 x="215.64891"
 y="261.76038"
 id="tspan4537">N</tspan></text>
<text
 x="209.89462"
 y="286.43008"
 transform="matrix(0.98846752,0.21896373,-0.22454012,0.96192726,0,0)"
 id="text4539"
 xml:space="preserve"
 style="font-size:18.55652237px;font-style:normal;font-variant:normal;font-weight:normal;font-stretch:normal;text-align:start;line-height:125%;letter-spacing:0px;word-spacing:0px;writing-mode:lr-tb;text-anchor:start;fill:#000000;fill-opacity:1;stroke:none;font-family:Sans;-inkscape-font-specification:Sans"><tspan
 x="209.89462"
 y="286.43008"
 id="tspan4541">T</tspan></text>
<text
 x="197.64882"
 y="316.06039"
 transform="matrix(1.0291223,0.11671415,-0.12544785,0.9574746,0,0)"
 id="text4543"
 xml:space="preserve"
 style="font-size:18.85880661px;font-style:normal;font-variant:normal;font-weight:normal;font-stretch:normal;text-align:start;line-height:125%;letter-spacing:0px;word-spacing:0px;writing-mode:lr-tb;text-anchor:start;fill:#000000;fill-opacity:1;stroke:none;font-family:Sans;-inkscape-font-specification:Sans"><tspan
 x="197.64882"
 y="316.06039"
 id="tspan4545">T</tspan></text>
<text
 x="198.76581"
 y="315.17633"
 transform="matrix(0.99788177,0.06505355,-0.06505355,0.99788177,0,0)"
 id="text4547"
 xml:space="preserve"
 style="font-size:18.38199043px;font-style:normal;font-variant:normal;font-weight:normal;font-stretch:normal;text-align:start;line-height:125%;letter-spacing:0px;word-spacing:0px;writing-mode:lr-tb;text-anchor:start;fill:#000000;fill-opacity:1;stroke:none;font-family:Sans;-inkscape-font-specification:Sans"><tspan
 x="198.76581"
 y="315.17633"
 id="tspan4549">E</tspan></text>
<text
 x="192.41658"
 y="328.22586"
 id="text4551"
 xml:space="preserve"
 style="font-size:18.38199043px;font-style:normal;font-variant:normal;font-weight:normal;font-stretch:normal;text-align:start;line-height:125%;letter-spacing:0px;word-spacing:0px;writing-mode:lr-tb;text-anchor:start;fill:#000000;fill-opacity:1;stroke:none;font-family:Sans;-inkscape-font-specification:Sans"><tspan
 x="192.41658"
 y="328.22586"
 id="tspan4553">N</tspan></text>
<text
 x="195.86823"
 y="335.66159"
 transform="matrix(0.99931632,-0.03697161,0.03697161,0.99931632,0,0)"
 id="text4555"
 xml:space="preserve"
 style="font-size:17.97699738px;font-style:normal;font-variant:normal;font-weight:normal;font-stretch:normal;text-align:start;line-height:125%;letter-spacing:0px;word-spacing:0px;writing-mode:lr-tb;text-anchor:start;fill:#000000;fill-opacity:1;stroke:none;font-family:Sans;-inkscape-font-specification:Sans"><tspan
 x="195.86823"
 y="335.66159"
 id="tspan4557">E</tspan></text>
<text
 x="183.40973"
 y="351.18845"
 transform="matrix(0.99326154,-0.11589444,0.11589444,0.99326154,0,0)"
 id="text4559"
 xml:space="preserve"
 style="font-size:18.38199043px;font-style:normal;font-variant:normal;font-weight:normal;font-stretch:normal;text-align:start;line-height:125%;letter-spacing:0px;word-spacing:0px;writing-mode:lr-tb;text-anchor:start;fill:#000000;fill-opacity:1;stroke:none;font-family:Sans;-inkscape-font-specification:Sans"><tspan
 x="183.40973"
 y="351.18845"
 id="tspan4561">B</tspan></text>
<text
 x="178.47455"
 y="360.09756"
 transform="matrix(0.97407304,-0.18108458,0.17752314,0.99361471,0,0)"
 id="text4563"
 xml:space="preserve"
 style="font-size:17.34746933px;font-style:normal;font-variant:normal;font-weight:normal;font-stretch:normal;text-align:start;line-height:125%;letter-spacing:0px;word-spacing:0px;writing-mode:lr-tb;text-anchor:start;fill:#000000;fill-opacity:1;stroke:none;font-family:Sans;-inkscape-font-specification:Sans"><tspan
 x="178.47455"
 y="360.09756"
 id="tspan4565">R</tspan></text>
<text
 x="162.00911"
 y="377.96289"
 transform="matrix(0.98065712,-0.24279934,0.24848944,0.9582013,0,0)"
 id="text4567"
 xml:space="preserve"
 style="font-size:17.8421917px;font-style:normal;font-variant:normal;font-weight:normal;font-stretch:normal;text-align:start;line-height:125%;letter-spacing:0px;word-spacing:0px;writing-mode:lr-tb;text-anchor:start;fill:#000000;fill-opacity:1;stroke:none;font-family:Sans;-inkscape-font-specification:Sans"><tspan
 x="162.00911"
 y="377.96289"
 id="tspan4569">Æ</tspan></text>
<text
 x="163.63028"
 y="388.54874"
 transform="matrix(0.93344545,-0.33473377,0.32758025,0.95382952,0,0)"
 id="text4571"
 xml:space="preserve"
 style="font-size:18.13992882px;font-style:normal;font-variant:normal;font-weight:normal;font-stretch:normal;text-align:start;line-height:125%;letter-spacing:0px;word-spacing:0px;writing-mode:lr-tb;text-anchor:start;fill:#000000;fill-opacity:1;stroke:none;font-family:Sans;-inkscape-font-specification:Sans"><tspan
 x="163.63028"
 y="388.54874"
 id="tspan4573">S</tspan></text>
<text
 x="166.64056"
 y="393.54974"
 transform="matrix(0.93724356,-0.34867537,0.34867537,0.93724356,0,0)"
 id="text4575"
 xml:space="preserve"
 style="font-size:18.2189312px;font-style:normal;font-variant:normal;font-weight:normal;font-stretch:normal;text-align:start;line-height:125%;letter-spacing:0px;word-spacing:0px;writing-mode:lr-tb;text-anchor:start;fill:#000000;fill-opacity:1;stroke:none;font-family:Sans;-inkscape-font-specification:Sans"><tspan
 x="166.64056"
 y="393.54974"
 id="tspan4577">O</tspan></text>
<text
 x="143.03307"
 y="409.76309"
 transform="matrix(0.89596742,-0.4431128,0.44246123,0.89728683,0,0)"
 id="text4579"
 xml:space="preserve"
 style="font-size:18.21072578px;font-style:normal;font-variant:normal;font-weight:normal;font-stretch:normal;text-align:start;line-height:125%;letter-spacing:0px;word-spacing:0px;writing-mode:lr-tb;text-anchor:start;fill:#000000;fill-opacity:1;stroke:none;font-family:Sans;-inkscape-font-specification:Sans"><tspan
 x="143.03307"
 y="409.76309"
 id="tspan4581">L</tspan></text>
<use
 transform="matrix(0.94444486,-0.32866989,0.32866989,0.94444486,136.57903,276.0275)"
 id="use4583"
 style="fill:#000000"
 x="0"
 y="0"
 width="417"
 height="480"
 xlink:href="#text4307" />
<path
 d="m 179.59922,89.98242 c 2.97279,-0.716474 12.03928,-2.531137 18.36268,-2.87262 l 5.94412,99.61367 -3.66812,0.44194 z"
 id="path4595"
 style="fill:#ffff00;stroke:#000000;stroke-width:1.29999995;stroke-linecap:butt;stroke-linejoin:miter;stroke-miterlimit:4;stroke-opacity:1;stroke-dasharray:none" />
<use
 transform="matrix(-0.99999376,-0.00353279,-0.00353279,0.99999376,411.46726,0.853662)"
 id="use4597"
 x="0"
 y="0"
 width="417"
 height="480"
 xlink:href="#path4595" />
<path
 d="m 144.87509,98.69626 20.25211,-5.24884 31.17742,93.50774 -4.63595,1.3776 z"
 id="path4601"
 style="fill:#ffff00;stroke:#000000;stroke-width:1.29999995;stroke-linecap:butt;stroke-linejoin:miter;stroke-miterlimit:4;stroke-opacity:1;stroke-dasharray:none" />
<path
 d="m 245.60322,92.32471 c 6.08777,1.50256 12.79871,2.95202 18.78253,5.72315 l -44.96758,90.08982 -3.97747,-1.85615 z"
 id="path4599"
 style="fill:#ffff00;stroke:#000000;stroke-width:1.29999995;stroke-linecap:butt;stroke-linejoin:miter;stroke-miterlimit:4;stroke-opacity:1;stroke-dasharray:none" />
<path
 d="m 222.15625,189.6875 54.94023,-86.25266 c 4.29721,2.00115 13.5283,5.93625 18.53454,11.25213 l -69.62792,77.73755 z"
 id="path4603"
 style="fill:#ffff00;stroke:#000000;stroke-width:1.29999995;stroke-linecap:butt;stroke-linejoin:miter;stroke-miterlimit:4;stroke-opacity:1;stroke-dasharray:none" />
<path
 d="m 189.28125,188.6875 -21.04799,-32.16919 c -2.73995,1.40234 -6.9761,6.33438 -7.26451,9.41919 l 23.1875,25.875 z"
 id="path4625"
 style="fill:#ffff00;stroke:#000000;stroke-width:1.29999995;stroke-linecap:butt;stroke-linejoin:miter;stroke-miterlimit:4;stroke-opacity:1;stroke-dasharray:none" />
<path
 d="m 181.46875,193.0625 -23.375,-21 c -1.75097,1.78138 -4.86876,9.71761 -2.25,11.4375 l 23.125,15.1875 z"
 id="path4623"
 style="fill:#ffff00;stroke:#000000;stroke-width:1.29999995;stroke-linecap:butt;stroke-linejoin:miter;stroke-miterlimit:4;stroke-opacity:1;stroke-dasharray:none" />
<path
 d="m 152.99433,188.62382 c -1.39916,1.08949 -2.68774,5.82362 -0.53033,8.81673 l 23.75475,8.05945 2,-4.25 z"
 id="path4621"
 style="fill:#ffff00;stroke:#000000;stroke-width:1.29999995;stroke-linecap:butt;stroke-linejoin:miter;stroke-miterlimit:4;stroke-opacity:1;stroke-dasharray:none" />
<path
 d="m 151.35914,202.45659 c 0.11852,2.59295 0.39561,5.22159 1.85616,7.42462 l 20.41771,1.85616 2.03293,-3.8007 z"
 id="path4619"
 style="fill:#ffff00;stroke:#000000;stroke-width:1.29999995;stroke-linecap:butt;stroke-linejoin:miter;stroke-miterlimit:4;stroke-opacity:1;stroke-dasharray:none" />
<path
 d="m 234.88613,212.35609 123.03658,-9.72272 c 0.28526,-3.60201 -1.17488,-10.42667 -4.59619,-16.04249 L 235.94679,209.2625 z"
 id="path4633"
 style="fill:#ffff00;stroke:#000000;stroke-width:1.29999995;stroke-linecap:butt;stroke-linejoin:miter;stroke-miterlimit:4;stroke-opacity:1;stroke-dasharray:none" />
<path
 d="M 235.53125,200.8125 263.679,187.65782 c -0.64411,3.85529 -0.99768,7.98932 -0.14775,12.15468 l -25.25,6.875 z"
 id="path4639"
 style="fill:#ffff00;stroke:#000000;stroke-width:1.29999995;stroke-linecap:butt;stroke-linejoin:miter;stroke-miterlimit:4;stroke-opacity:1;stroke-dasharray:none" />
<path
 d="m 230.46875,194.1875 46.84375,-40.84375 c 3.71482,0.63294 12.95171,3.85967 15.96875,8.1875 l -4.1875,3.71875 -17.1875,-2.1875 -6.75,16.5 -31.6875,18.6875 z"
 id="path4627"
 style="fill:#ffff00;stroke:#000000;stroke-width:1.29999995;stroke-linecap:butt;stroke-linejoin:miter;stroke-miterlimit:4;stroke-opacity:1;stroke-dasharray:none" />
<path
 d="m 172.26299,219.47135 67.39611,0.22097 c -0.22769,-16.71005 -10.88405,-37.7409 -32.70369,-35.88567 -23.26384,-2.42562 -35.34374,16.86616 -34.69242,35.6647 z"
 id="path4593"
 style="fill:#ffff00;stroke:none" />
<path
 d="m 43.260196,219.25038 326.064614,0.92808"
 id="path4587"
 style="fill:none;stroke:#000000;stroke-width:1.39999998;stroke-linecap:butt;stroke-linejoin:miter;stroke-miterlimit:4;stroke-opacity:1;stroke-dasharray:none" />
<path
 d="m 171.86524,219.25038 c -1.9946,-47.43729 69.27018,-48.37636 68.05903,0.26516"
 id="path4591"
 style="fill:#ffff00;stroke:#000000;stroke-width:2.20000005;stroke-linecap:butt;stroke-linejoin:miter;stroke-miterlimit:4;stroke-opacity:1;stroke-dasharray:none" />
<path
 d="m 137.74734,138.6844 1.98874,-8.22012 -14.80505,-13.6118 16.23312,-4.19086 -4.65425,-9.46514 c -4.75441,2.19256 -14.3016,5.42971 -19.93157,12.02081 z"
 id="path4605"
 style="fill:#ffff00;stroke:#000000;stroke-width:1.29999995;stroke-linecap:butt;stroke-linejoin:miter;stroke-miterlimit:4;stroke-opacity:1;stroke-dasharray:none" />
<path
 d="m 105.90625,121.9375 c -7.52271,4.66326 -14.281767,13.25429 -16.84375,16.1875 3.594135,2.20987 7.176697,4.43596 10.6875,6.3125 4.17091,-4.66489 9.76621,-9.40942 14.84375,-14.125 z"
 id="path4607"
 style="fill:#ffff00;stroke:#000000;stroke-width:1.29999995;stroke-linecap:butt;stroke-linejoin:miter;stroke-miterlimit:4;stroke-opacity:1;stroke-dasharray:none" />
<path
 d="m 81.046214,147.87679 c -4.8697,3.26595 -11.282073,13.51638 -12.904699,20.94804 l 18.384777,4.5078 c 0.249309,-5.21163 2.991188,-12.03101 6.629126,-18.38477 z"
 id="path4609"
 style="fill:#ffff00;stroke:#000000;stroke-width:1.29999995;stroke-linecap:butt;stroke-linejoin:miter;stroke-miterlimit:4;stroke-opacity:1;stroke-dasharray:none" />
<path
 d="m 63.501127,179.47562 c -5.485145,4.84161 -5.817913,13.86199 -6.51864,18.82672 l 33.113729,3.43734 -4.64889,-16.49607 z"
 id="path4611"
 style="fill:#ffff00;stroke:#000000;stroke-width:1.29999995;stroke-linecap:butt;stroke-linejoin:miter;stroke-miterlimit:4;stroke-opacity:1;stroke-dasharray:none" />
<path
 d="m 154.1934,132.20801 -2.34965,8.44687 7.71525,1.459 z"
 id="path4613"
 style="fill:#ffff00;stroke:#000000;stroke-width:1.52648878;stroke-linecap:butt;stroke-linejoin:miter;stroke-miterlimit:4;stroke-opacity:1;stroke-dasharray:none" />
<path
 d="m 48.3125,219.09375 9.09375,0.0937 -0.09375,-11.4375 -8.28125,-1.65625 c -1.033403,5.19359 -0.912857,9.54884 -0.71875,13 z"
 id="path4615"
 style="fill:#ffff00;stroke:#000000;stroke-width:1.29999995;stroke-linecap:butt;stroke-linejoin:miter;stroke-miterlimit:4;stroke-opacity:1;stroke-dasharray:none" />
<path
 d="m 70.15625,219.21875 c 0.408141,-4.70561 2.547107,-8.99662 4,-12.15625 l 7.21875,1.6875 -1.5,10.59375 z"
 id="path4617"
 style="fill:#ffff00;stroke:#000000;stroke-width:1.29999995;stroke-linecap:butt;stroke-linejoin:miter;stroke-miterlimit:4;stroke-opacity:1;stroke-dasharray:none" />
<path
 d="m 284.90625,146.5625 17.0625,0.4375 0.375,7.0625 22.1875,-14.875 c -3.46054,-7.14575 -14.89579,-14.82674 -16.6875,-15.125 z"
 id="path4629"
 style="fill:#ffff00;stroke:#000000;stroke-width:1.29999995;stroke-linecap:butt;stroke-linejoin:miter;stroke-miterlimit:4;stroke-opacity:1;stroke-dasharray:none" />
<path
 d="m 307.28125,165.625 20.125,3.4375 -6.6875,13.875 27.875,-7.3125 c -1.61192,-8.14113 -9.08997,-20.53967 -15,-25.125 z"
 id="path4631"
 style="fill:#ffff00;stroke:#000000;stroke-width:1.29999995;stroke-linecap:butt;stroke-linejoin:miter;stroke-miterlimit:4;stroke-opacity:1;stroke-dasharray:none" />
<path
 d="m 346.05658,207.50578 c 2.87193,0.14128 6.44833,0.75288 8.77254,1.62413 -0.77135,3.53348 -1.62382,7.43535 -2.23181,10.80548 l -11.24741,0 c -0.12125,-4.62442 2.71261,-8.96329 4.70668,-12.42961 z"
 id="path4635"
 style="fill:#ffff00;stroke:#000000;stroke-width:1.29999995;stroke-linecap:butt;stroke-linejoin:miter;stroke-miterlimit:4;stroke-opacity:1;stroke-dasharray:none" />
<path
 d="m 333.43914,219.91329 2.91682,-9.67852 -9.94369,0.0884 c -1.06209,1.83078 -2.77043,6.12723 -2.96101,9.63433 z"
 id="path4637"
 style="fill:#ffff00;stroke:#000000;stroke-width:1.29999995;stroke-linecap:butt;stroke-linejoin:miter;stroke-miterlimit:4;stroke-opacity:1;stroke-dasharray:none" />
<path
 d="m 242.26656,219.69232 c -0.16492,-1.7059 1.84276,-4.9611 3.27037,-6.27558 l 7.42462,1.63519 -1.10486,4.68459 z"
 id="path4641"
 style="fill:#ffff00;stroke:#000000;stroke-width:1.29999995;stroke-linecap:butt;stroke-linejoin:miter;stroke-miterlimit:4;stroke-opacity:1;stroke-dasharray:none" />
<path
 d="m 255.87837,219.8691 c 0.89147,-2.04811 1.73924,-4.00882 2.74003,-6.27558 l 6.45235,0.97228 -1.67938,5.43588 z"
 id="path4643"
 style="fill:#ffff00;stroke:#000000;stroke-width:1.29999995;stroke-linecap:butt;stroke-linejoin:miter;stroke-miterlimit:4;stroke-opacity:1;stroke-dasharray:none" />
<path
 d="m 276.60543,216.73131 c 0.78777,-2.04944 -1.88764,-4.97937 -4.24264,-2.51907 -1.9552,2.04262 -2.31842,4.7633 -4.41942,6.18719 l -0.26516,4.72877 c 0.73889,0.19148 2.55753,0.4315 2.43068,1.76777 -0.38411,4.04643 4.0505,7.3689 5.65686,7.38043 3.32139,0.0238 7.21757,-8.10402 8.27535,-1.83406 2.67273,-1.71168 3.92422,-0.16573 3.70126,1.03856 -0.15929,0.86038 1.18326,1.44398 2.43068,0.92808 6.75067,-2.79188 9.90745,-11.54992 15.42377,-17.23573 -0.82076,-1.65459 -3.16444,-2.94708 -4.11006,-3.13778 -2.83542,-0.5718 -3.13664,2.41031 -3.53553,3.35875 -0.33876,0.80548 -2.33726,-1.02756 -2.07713,-3.18198 0.14131,-1.17033 -3.9473,-2.27952 -2.56326,-5.65685 l -4.552,-0.30936 c 0.11744,3.7589 -0.37477,5.14072 -1.32582,6.36396 -1.37821,1.77265 -3.38763,0.33743 -2.65165,-0.79549 0.63595,-0.97893 0.62957,-2.0466 0.61871,-3.0936 -0.0226,-2.18204 -3.52588,-2.25181 -3.97747,-0.61871 -0.85295,3.08455 -1.75892,6.78175 -4.81717,6.62912 z"
 id="path4649"
 style="fill:#000000;stroke:none" />
<path
 d="m 118.34375,210.75 c -0.0328,2.60136 -4.5763,2.21223 -4.6875,-1.01563 -0.0694,-2.01518 2.851,-4.747 0,-7.35937 l 1.0625,-2.75 9.875,1.6875 c 0.6501,0.11109 2.40367,-1.58757 1.625,-2.23437 -0.72328,-0.6008 -1.39715,-1.59236 -2.5625,-1.89063 l -21,-5.375 c -0.8392,-0.21479 -2.28104,0.67772 -2.625,2 2.89911,1.66385 6.56069,2.67417 10,3.875 -3.17102,0.66224 -6.15447,1.09277 -10.6875,3.4375 l -4.375,-10.9375 -2.815641,0.57322 4.706266,12.05178 c -3.164465,1.44289 -6.722734,5.81277 -4.720423,12.28363 1.407443,4.54842 1.785233,9.27729 3.226174,13.74439 0.547656,1.6978 -0.342851,3.29921 -0.839689,4.90555 -1.295444,4.18833 6.858173,11.55355 11.357903,11.04854 12.53125,-1.40638 11.84404,-3.97747 16.30765,-10.6066 9.84062,-2.94472 19.80061,-2.30831 29.52171,-8.83883 -0.30963,-1.14526 -3.04245,-0.54081 -3.29247,-1.25954 -1.55022,-4.45655 -1.5056,-9.45921 -4.78608,-13.33114 -1.01788,-1.2014 -3.93842,0.56439 -3.57165,2.304 0.70391,3.33864 1.20583,6.72131 2.21875,9.90625 0.50439,1.58594 -3.09058,1.25691 -3,-0.4375 0.0927,-1.7332 -0.23156,-4.405 -0.5,-6.71875 -0.26094,-2.2491 -3.94665,-3.37715 -4.41291,-2.15181 -0.94213,2.47592 -1.45756,3.63105 -2.36834,7.80806 l -3.4375,-2.1875 22.21875,-99.21875 -20.625,-2.625 13.625,9.625 -20.5,88.75 c -0.3992,-0.9221 -0.88283,-2.45648 -0.36363,-3.04419 0.91192,-1.03225 1.88107,-2.6605 2.98863,-3.95581 -0.62469,-1.68854 -0.67994,-3.78883 -2.8125,-4.375 -4.14595,-1.13959 -4.70454,2.70556 -4.75,6.3125 z"
 id="path4647"
 style="fill:#000000;stroke:none" />
<path
 d="m 151.46875,225.3125 c -16.03568,7.11825 -25.4375,-4.10417 -38.15625,-6.15625 3.83326,4.92709 3.95426,9.12261 6.625,13.65625 -2.76917,-0.10585 -5.69403,-1.7244 -8.5625,-4.375 0.11075,2.90328 1.84464,4.70856 4.125,6.5625 1.34271,1.09163 0.22924,1.75861 -0.875,1.1875 -2.57851,-1.3336 -4.35435,-2.59267 -7.21875,-4.84375 0.5106,3.40517 2.42371,6.60433 7.09375,8.125 -3.58113,0.0801 -6.54244,-2.16729 -8.875,-4.3125 0.39481,3.50553 3.79221,8.65992 7.90625,7.9375 4.46357,-0.7838 7.97965,-5.28956 9.5,-7.96875 6.6714,1.08388 15.9391,0.68316 26.8125,-2.15625 2.36344,-0.57565 4.53919,-2.31481 5.09375,-5.75 0.13788,-0.85407 -0.91779,-1.11677 -1.3125,-0.625 l -1.90625,2.375 c 0.82977,0.7672 0.21823,1.93155 -0.8125,0.90625 -1.57585,0.52435 -3.155,1.0058 -4.8125,0.46875 4.48719,-1.41406 5.62823,-3.08855 5.375,-5.03125 z"
 id="path4645"
 style="fill:#ff0000;stroke:none" />
<path
 d="m 285.28959,227.66937 c -0.4163,-0.0622 -0.64257,1.34277 -0.30936,1.43631 2.01292,0.5651 5.48386,1.94663 6.45235,1.17114 3.17558,-2.54277 5.50356,-6.25266 7.22575,-8.99351 l -6.8943,5.92202 c -1.93338,1.66072 -4.44138,0.768 -6.47444,0.46404 z"
 id="path4651"
 style="fill:#ff0000;stroke:none" />
<path
 d="m 175.5886,224.06754 c -4.13122,0.0292 -3.42873,2.99048 -0.14363,2.87263 0.91063,-0.0327 66.11645,0.0372 69.7826,0.13258 2.77882,0.0723 3.32401,-3.52076 -0.83969,-3.49134 z"
 id="path4653"
 style="fill:#ffff00;stroke:none" />
<path
 d="m 181.45944,233.06485 c -2.98742,0.0276 -4.53315,2.64576 -1.50666,2.62622 l 15.07847,-0.0973 c 4.63228,-0.0299 6.5455,-2.71511 3.5625,-2.6875 z"
 id="path4655"
 style="fill:#ffff00;stroke:none" />
<path
 d="m 209.09883,231.91201 c -3.89083,0.1485 -1.45504,2.8776 1.03857,2.89472 l 28.96928,0.19887 c 3.60495,0.0248 6.80999,-4.49885 1.83405,-4.30893 z"
 id="path4657"
 style="fill:#ffff00;stroke:none" />
<path
 d="m 179.35615,243.71185 c -3.18712,0.0771 -2.54986,2.6381 0.88389,2.71795 9.25394,0.21519 16.97351,1.45684 29.01347,-0.22097 3.0979,-0.4317 2.95939,-3.44691 -0.17677,-3.49134 -10.17016,-0.14407 -19.87776,0.7563 -29.72059,0.99436 z"
 id="path4659"
 style="fill:#ffff00;stroke:none" />
<path
 d="m 215.61747,243.86653 c -4.56017,0.0489 -2.51808,3.25079 0.0111,3.35876 5.38384,0.22983 9.64902,0.74233 16.51757,0.48614 3.80449,-0.1419 6.26434,-3.60425 2.82843,-3.8449 -6.59084,-0.46162 -12.92541,-0.069 -19.35705,0 z"
 id="path4661"
 style="fill:#ffff00;stroke:none" />
<path
 d="m 181.94151,253.45667 c -2.93023,0.12209 -2.00739,3.06929 0.97227,3.13779 l 15.37958,0.35355 -3.62393,-4.02167 z"
 id="path4663"
 style="fill:#ffff00;stroke:none" />
<path
 d="m 281.82035,150.48425 12.28598,5.65685 1.06066,9.63433 2.69584,0.79549 -1.01647,-15.51215 z"
 id="path4665"
 style="fill:#000000;stroke:none" />
<path
 d="m 274.66089,168.95741 c 13.34347,0.30384 29.09117,1.77096 43.13352,4.68458 -8.6162,10.35297 -11.5688,24.39009 -10.60661,38.44893 -9.04563,-4.01182 -21.49841,-8.18403 -35.35534,-6.09879 -4.94301,-10.07221 -2.89935,-24.05655 2.82843,-37.03472 z"
 id="path4667"
 style="fill:#ffff00;stroke:#000000;stroke-width:2.29999995;stroke-linecap:butt;stroke-linejoin:miter;stroke-miterlimit:4;stroke-opacity:1;stroke-dasharray:none" />
<path
 d="m 145.52551,201.13077 c -3.34694,-25.65857 9.52643,-42.20983 19.09189,-53.12139 l -49.58587,-8.83884 c -19.596121,12.90803 -25.479175,36.62156 -21.831918,51.61879 23.773128,-8.73014 35.727328,0.40269 52.325898,10.34144 z"
 id="path4669"
 style="fill:#ffff00;stroke:#000000;stroke-width:2.29999995;stroke-linecap:butt;stroke-linejoin:miter;stroke-miterlimit:4;stroke-opacity:1;stroke-dasharray:none" />
<path
 d="m 260.03852,361.25024 a 4.6624851,4.7729707 0 1 1 -9.32497,0 4.6624851,4.7729707 0 1 1 9.32497,0 z"
 transform="matrix(1.0775148,0,0,1.0201649,-21.83426,-15.331923)"
 id="path4695"
 style="fill:#c0dce3;fill-opacity:1;stroke:#000000;stroke-width:1.5;stroke-linecap:round;stroke-miterlimit:4;stroke-opacity:1;stroke-dasharray:none" />
<path
 d="m 316.86633,218.23391 -7.99915,-6.31976 c 1.0525,0.41766 1.99253,0.56797 2.91681,1.78986 0.54535,0.72095 0.42001,0.91501 -1.28163,2.93891 -1.06535,1.26711 0.63491,2.44034 1.90035,1.81196 2.12456,-0.12039 1.84843,-2.42787 3.66812,-2.91681 1.98292,-0.34316 1.25821,0.78565 1.01647,1.37002 -0.18282,0.44194 -0.27359,0.88388 -0.22097,1.32582 z"
 id="path4671"
 style="fill:#000000;stroke:none" />
<path
 d="m 315.69518,212.00253 c -0.10431,0.85317 -0.71886,2.35002 2.20971,0.95018 1.43471,-0.68578 1.05901,-2.99659 -0.7513,-2.51907 -1.29716,0.34217 -1.30802,0.33882 -1.45841,1.56889 z"
 id="path4673"
 style="fill:#000000;stroke:none" />
<use
 transform="matrix(-0.95418135,-0.29922892,0.29922892,-0.95418135,546.1986,524.11249)"
 id="use4675"
 x="0"
 y="0"
 width="417"
 height="480"
 xlink:href="#path4673" />
<use
 transform="matrix(0.54704829,0.2848371,-0.24919958,0.47860411,192.32877,32.665253)"
 id="use4677"
 x="0"
 y="0"
 width="417"
 height="480"
 xlink:href="#path4673" />
<use
 transform="matrix(-0.12609342,0.49778144,0.53998597,0.11623814,226.73743,46.941684)"
 id="use4679"
 x="0"
 y="0"
 width="417"
 height="480"
 xlink:href="#path4673" />
<use
 transform="matrix(-0.8832391,0,0,0.96040541,629.03142,21.833292)"
 id="use4681"
 x="0"
 y="0"
 width="417"
 height="480"
 xlink:href="#path4673" />
<use
 transform="matrix(0.10940349,0.63559894,0.54149205,-0.12841692,89.915097,51.366349)"
 id="use4683"
 x="0"
 y="0"
 width="417"
 height="480"
 xlink:href="#path4673" />
<use
 transform="matrix(0.71890834,0.92323974,-0.96376682,0.61811671,290.20318,-134.69482)"
 id="use4685"
 x="0"
 y="0"
 width="417"
 height="480"
 xlink:href="#use4683" />
<use
 transform="matrix(0.80820383,-0.1256002,0.10638622,0.93474907,34.267657,44.878293)"
 id="use4687"
 x="0"
 y="0"
 width="417"
 height="480"
 xlink:href="#use4685" />
<use
 transform="matrix(-0.37342903,1.2074591,1.1071841,0.37017997,87.917452,-153.42151)"
 id="use4689"
 x="0"
 y="0"
 width="417"
 height="480"
 xlink:href="#use4687" />
<use
 transform="matrix(0.75121315,0.1314836,-0.13560159,0.77474075,-39.378648,18.673653)"
 id="use4691"
 x="0"
 y="0"
 width="417"
 height="480"
 xlink:href="#path4673" />
<path
 d="m 257.47525,362.4877 a 2.4527767,2.1655145 0 1 1 -4.90555,0 2.4527767,2.1655145 0 1 1 4.90555,0 z"
 transform="matrix(1.2792793,0,0,1.3163265,-72.737007,-123.16827)"
 id="path4697"
 style="fill:#000000;fill-opacity:1;stroke:none" />
<path
 d="m 150.03332,329.0729 c 1.69887,0.39986 1.45756,-4.42014 -0.48614,-3.84489 -18.46022,5.4634 -25.61295,21.80145 -25.7652,32.70369 -0.10016,7.172 3.22555,12.83135 5.70105,18.25219 -0.49626,2.65322 -0.17442,4.75777 0.17678,7.15946 0.19403,1.32689 1.30782,1.84482 2.03293,0.48613 1.93185,-3.61985 4.41694,-2.21959 4.64039,-2.07712 6.59784,4.20678 12.02566,2.78241 17.19153,3.33666 2.74985,0.29503 4.36814,1.87705 5.03813,2.93891 1.62189,-0.16851 2.0986,0.90359 3.0936,1.41421 1.26114,1.48038 2.49194,0.87251 2.96101,0.22097 1.1335,0.84883 1.17436,1.64386 1.19324,2.38649 3.09347,-1.24771 4.58789,3.12869 5.89992,2.87262 1.82876,-0.35691 4.4143,-3.59846 7.77818,-3.62393 9.57824,-0.0725 24.97469,1.56414 37.18939,10e-6 2.84229,-0.36396 2.1418,1.43647 2.12132,2.78423 -0.0292,1.92298 -0.8462,3.36064 -1.67937,4.90555 -0.2748,0.50955 0.27899,1.42979 0.7513,1.23744 8.19304,-3.33671 8.14281,-7.61991 9.36916,-8.72835 3.59987,-3.25373 7.1367,-3.82304 10.51821,-2.71794 4.40855,-7.34367 10.00569,-9.17005 17.14734,-9.36916 7.46375,-0.20809 12.42763,3.88286 12.06501,9.23658 -0.0932,1.37671 0.77231,1.52972 1.23744,1.06066 2.78615,-2.80971 0.0295,-9.03035 3.09359,-10.96016 3.75412,0.86348 6.61542,-2.68557 9.94369,-3.27037 0.20269,-3.08757 -3.69917,-5.20621 -6.01041,-7.38042 -0.53591,-0.50414 -0.60571,-0.87468 0.17678,-1.45841 2.62799,-1.96046 4.88026,-5.24591 7.47946,-8.71381 0.70479,-0.94034 0.27454,-1.65608 1.14597,-2.88282 1.77597,-2.5001 3.14434,-4.5741 2.77667,-6.61137 -0.19987,-1.10747 -2.14174,-0.79263 -2.03293,-0.30936 0.15424,0.68504 0.97858,1.26921 -2.38649,2.20971 -11.90915,1.81835 -16.38527,13.97483 -24.48357,17.89864 -1.02274,0.49554 -0.9246,1.50317 0.22097,1.10485 7.84994,-2.72944 15.51555,-17.36475 22.80419,-15.64473 -6.45669,1.3454 -11.11306,11.72439 -17.32411,15.60054 -1.06005,0.66155 -0.57115,1.48715 -1.28164,2.87262 3.45206,1.09258 15.61556,-0.26614 16.57282,1.72357 -1.54055,1.2744 -11.25693,5.43459 -17.19153,4.06587 -5.35909,-1.23599 -10.32794,1.51581 -15.37958,0.61872 -8.04921,-1.42941 -9.74617,-9.63889 -2.82842,-16.52863 0.55863,-0.55637 0.56803,-3.6738 -1.19325,-2.51906 -7.68111,5.03593 -7.66905,15.44888 -2.87262,19.35705 0.6687,1.79096 -0.0969,2.43522 -0.7071,2.03293 -0.12624,1.7542 -0.58741,1.7333 -1.14905,1.98873 -19.23334,8.74717 -39.03229,7.20008 -45.65258,6.143 -1.67978,-0.26821 -11.08205,-1.54605 -21.75044,-3.26097 -18.40177,-2.95805 -40.74425,-6.6008 -41.31465,-19.72001 -0.11631,-2.67506 2.24731,-1.48799 2.2981,-0.61871 0.41559,7.11321 9.91183,8.88674 14.09794,10.51821 7.23892,2.82126 19.47912,-0.012 22.76,-0.88388 2.11209,-0.56127 7.73253,-2.57016 17.80131,-4.88478 1.93104,-0.44391 2.82564,-1.58991 6.3729,-1.87693 13.71629,-6.88502 28.90653,-8.7107 39.46169,-9.06733 1.44113,-0.0487 1.25392,0.62008 0.5,1.5 -1.92424,2.24585 -0.98924,5.74682 -2.3125,9.25 2.07731,1.3044 0.9097,2.77194 1.375,4.125 1.01542,2.95277 3.44447,0.93201 1.75,-1.1875 -1.00478,-1.25682 -1.38076,-2.7286 -0.51491,-4.60593 1.7415,-3.77591 -1.59806,-2.48843 6.01491,-10.64407 -0.34293,-0.40499 -1.07222,-1.14768 -2.26631,-0.85387 -3.86181,0.9502 -9.62504,1.02092 -13.85869,1.54137 -12.54718,1.54245 -22.31631,3.92216 -33.24278,9.19103 -6.20908,2.99409 -13.49551,2.49075 -20.5061,5.12652 -15.89265,5.97516 -23.85453,2.37756 -29.21235,0.13258 -1.30076,-0.54503 -0.54196,-1.53979 0.61872,-1.63518 4.19404,-0.3447 10.62858,1.00598 15.55635,0 0.91061,-0.1859 1.84367,-0.84087 1.63519,-1.85616 -0.264,-1.28566 2.65327,-1.53556 2.46347,-0.39629 -0.0987,0.59229 -1.38214,1.77956 0.6875,1.5 6.71636,-0.90723 14.89355,-2.14206 20.29687,-6.3125 0.32248,-0.2489 -2.56664,0.21743 -4.8125,0.51563 -1.26546,0.41924 14.92059,-12.51957 28.70313,-14.51563 1.39763,-0.20241 1.40153,2.0893 -0.0781,2.17187 -3.17684,0.17729 -5.30576,1.614 -8.3855,3.14986 -2.42917,1.21142 -6.21805,2.60141 -6.28638,2.67827 -1.93928,2.18134 -0.43502,2.79714 0.25,2.5 12.10835,-5.25212 23.4887,-10.47554 36.8125,-11.375 8.79284,-0.59358 8.91387,0.99911 12.03125,-0.65625 -3.85137,-0.15536 -5.65625,-1.5 -5.65625,-1.5 6.26665,-1.64031 16.81381,-2.47201 22.37498,-1.65625 4.87138,0.71457 4.95688,4.80055 12.9375,5.875 2.28232,-0.1954 2.56443,-0.17573 1.75,-2.625 -0.58536,-1.76039 9.71712,-0.66481 12.73234,-0.43433 0.94321,0.0721 0.99297,-1.2298 0.20516,-1.44067 -6.06124,-1.62242 -10.70998,-2.12781 -16.14218,-2.17207 -6.34167,-0.0517 -5.29995,-2.46409 -21.05351,-2.08831 -23.11712,-2.45983 -32.17947,3.06601 -45.78516,6.01041 -3.80795,-3.83401 -9.00555,-4.90457 -10.51821,-3.0494 -0.88431,1.08454 -1.71401,2.40214 -2.74004,2.12132 -1.16824,-0.31974 -2.08111,1.11012 -2.65165,2.07713 -0.91762,1.55528 -2.3826,1.35305 -2.51907,1.90035 -0.78152,3.13432 -4.4832,2.52405 -3.49134,6.36396 -9.03951,6.03771 -17.31943,6.60077 -23.90905,4.41942 -1.25102,-0.41412 -2.00063,0.68234 -2.2539,1.37002 -0.38613,1.04843 -1.15535,0.49312 -1.90035,0.39775 0.21561,1.62982 -1.08263,1.74579 -2.16551,2.07712 -1.88988,0.40914 -0.96749,1.54182 -1.59099,1.98874 -0.99491,0.71315 -9.53877,0.42144 -10.34144,-3.75651 -0.85746,-4.46316 2.80807,-8.91479 7.68979,-9.19238 4.39204,-0.24974 5.78169,2.25948 11.13693,1.63518 0.7148,-0.0833 0.6397,-1.31268 -0.0884,-1.5026 -4.74255,-1.23703 -2.03788,-2.67638 -1.59099,-3.35876 0.60856,-0.92923 -0.11355,-1.66436 -1.37002,-1.98874 -6.8562,-1.77006 -10.795,2.28486 -15.9541,3.44715 1.44855,-4.93881 10.84177,-6.07623 14.4073,-5.52427 1.65436,0.2561 0.99822,-4.05322 -0.53033,-3.93328 -6.33151,0.49682 -12.33017,4.28683 -15.29118,6.82799 0.402,-4.90842 10.51094,-8.86019 13.08147,-9.30287 2.1412,-0.36874 0.34403,-2.62752 -2.47487,-2.29809 -4.77657,0.55821 -7.21838,4.18371 -10.82757,6.27557 -0.56625,-1.0577 1.94465,-2.73782 2.53051,-4.42765 0.62876,-1.81358 2.78874,-3.31089 4.49636,-3.39472 6.26872,-0.30773 7.7654,-5.04505 6.45235,-5.21491 -4.83957,-0.62605 -13.09608,6.02306 -17.85445,13.87697 -0.39617,0.65389 -1.27048,0.22949 -0.79549,-0.7955 3.5186,-7.59283 16.62767,-17.52469 20.85966,-16.52862 z"
 id="path4699"
 style="fill:#000000;stroke:none" />
<path
 d="m 213.67899,354.21664 c -3.11108,0.38383 -6.56037,0.0827 -9.08796,1.79261 -1.44649,0.97857 0.70392,1.2914 1.06066,1.19324 1.31299,-0.36128 2.80159,-1.28161 3.91081,-0.99936 0.26047,0.0663 0.57408,0.77679 0.98437,0.25 0.54953,-0.70557 3.71868,-1.49314 3.53605,-2.12656 -0.0696,-0.24151 -0.27785,-0.12548 -0.40393,-0.10993 z"
 id="path4701"
 style="fill:#000000;stroke:none" />
<path
 d="m 216.9433,354.35197 c 1.78328,-0.0417 3.45794,-0.0978 4.68458,0.22097 1.36866,0.35569 0.59942,1.84281 1.65728,1.34792 3.88572,-1.81784 8.17797,-0.29097 8.92723,-1.34792 0.4742,-0.66893 0.56524,-2.99153 2.96101,-2.38649 1.63315,0.41244 4.74974,-1.22889 2.29809,-1.43631 -6.9897,-0.59136 -16.8461,-0.66773 -20.52819,3.60183 z"
 id="path4703"
 style="fill:#000000;stroke:none" />
<path
 d="m 223.19677,366.85892 c 0.69861,-0.74697 2.42883,-0.011 2.36439,1.01647 -0.51104,8.14804 -2.50271,11.36543 -4.94975,12.92679 -3.23083,2.06146 -5.15179,3.85582 -8.63996,5.39169 -1.49364,0.65766 -4.46887,-0.56886 -4.46361,-1.10485 0.10236,-10.42767 10.21265,-12.37468 15.68893,-18.2301 z"
 id="path4705"
 style="fill:#000000;stroke:none" />
<path
 d="m 255.85938,365.625 c 0.91244,-1.6106 -0.74718,-2.87224 -2.54688,-0.96875 -3.01991,3.19408 -3.09954,2.74223 -1.1875,6.25 0.54303,0.99622 1.91908,1.4962 2.54932,1.26827 0.40503,-0.14648 -0.0948,-1.56273 -0.23682,-2.20577 -0.32988,-1.89141 0.6224,-2.93255 1.42188,-4.34375 z"
 id="path4707"
 style="fill:#000000;stroke:none" />
<path
 d="m 222.71875,370.875 c -5.91956,2.84365 -12.39451,7.86954 -12.75,12.53125 -0.22838,2.9949 3.58235,1.70597 2.5625,-0.375 -0.41097,-0.83858 2.22248,-3.56034 3.875,-5.34375 z"
 id="path4709"
 style="fill:#c0dce3;fill-opacity:1;stroke:none" />
<path
 d="m 222.125,353.1875 c 0.42993,0.50899 1.07269,1.09126 1.65625,1.4375 0.2981,-0.17835 2.97765,-1.14981 7.375,-1.03125 0.44972,-0.39493 0.85233,-0.81342 1.21875,-1.25 -2.89738,-0.84746 -7.9195,-0.47466 -10.25,0.84375 z"
 id="path4711"
 style="fill:#c0dce3;fill-opacity:1;stroke:none" />
<path
 d="m 166.96875,367.75 c 1.89269,-1.76074 4.57781,-2.1635 7.375,-2.53125 -1.54137,2.14951 -4.66567,1.45796 -7.375,2.53125 z"
 id="path4717"
 style="fill:#c0dce3;fill-opacity:1;stroke:none" />
<path
 d="m 162.5625,368.625 c 0.9979,-1.5884 2.00909,-0.59719 3.375,-0.60938 -0.6131,0.80162 -2.08877,0.23159 -3.375,0.60938 z"
 id="path4719"
 style="fill:#c0dce3;fill-opacity:1;stroke:none" />
<path
 d="m 192.99089,348.11816 c 0.76737,0.36749 1.02095,0.41254 1.65004,0.82545 1.0363,0.68016 -0.30955,1.69048 -1.86928,0.2647 -0.78499,-0.71753 -0.49638,-1.43316 0.21925,-1.09015 z"
 id="path4721"
 style="fill:#c0dce3;fill-opacity:1;stroke:none" />
<use
 transform="matrix(-0.96329927,0.79538223,-0.72499233,-1.0568265,649.24008,564.87311)"
 id="use4723"
 x="0"
 y="0"
 width="417"
 height="480"
 xlink:href="#path4721" />
<use
 transform="matrix(0.72767712,-0.78941126,1.3333576,0.73616607,-336.90819,135.24084)"
 id="use4725"
 x="0"
 y="0"
 width="417"
 height="480"
 xlink:href="#use4723" />
<path
 d="m 244.28125,239.875 c -1.34767,0.6387 -1.09233,5.40594 1.8125,4.5625 2.41933,-0.70247 7.04972,0.24132 9.9375,-2.8125 1.3957,-1.47595 2.56764,-5.3296 -3.125,-5.6875 -4.09562,-0.2575 -5.77365,2.58616 -8.625,3.9375 z"
 id="path4727"
 style="fill:#0752e9;fill-opacity:1;stroke:none" />
<path
 d="m 259.71875,250.125 c -0.48241,0.24532 -1.83063,-5.34715 -1.39063,-5.78125 1.96483,-1.93846 2.89063,-4.40625 2.89063,-4.40625 1.81194,-2.38992 2.73209,-2.64688 3.71875,-4.25 2.33865,-3.79985 5.67948,-1.06227 4.21875,1.09375 -1.55287,2.29201 1.53233,2.78583 3.03125,1.21875 3.54732,-3.70862 3.39018,-1.35527 5.125,-1.46875 3.2598,-0.21323 2.82793,1.02583 0.8125,1.625 -1.8371,0.33934 -4.52786,1.91152 -2.1875,2.15625 2.79769,0.29255 1.47821,5.2136 -0.90625,3.9375 -2.4402,-1.30593 -2.36916,1.85249 -3.5,2.84375 -2.36892,2.07652 -3.06895,0.72605 -6.59375,0.65625 -3.26,-0.0646 -3.90769,1.22121 -5.21875,2.375 z"
 id="path4729"
 style="fill:#0752e9;fill-opacity:1;stroke:none" />
<path
 d="m 64.21875,232.34375 c -0.958333,1.09203 -1.363099,3.26399 -2.875,3.375 -2.02862,0.14895 -3.195598,0.17394 -2.75,1 1.989799,3.68874 -0.543915,7.89185 3.96875,7.78125 2.96875,-2.61458 5.569971,-2.04392 8.90625,-7.84375 0.791088,-1.37524 0.0362,-1.892 -2,-1.25 -2.712317,0.85518 -5.260279,4.04889 -8.34375,2.875 -0.779843,-0.29689 -0.906804,-1.20503 0.4375,-1.34375 3.264675,-0.33689 3.989958,-6.05351 2.65625,-4.59375 z"
 id="path4731"
 style="fill:#0752e9;fill-opacity:1;stroke:none" />
<path
 d="m 72.4375,251.4375 c 7.704774,-1.30791 13.315981,-5.2377 14.316231,-7.15148 0.933561,-1.78619 1.325959,-1.61486 -0.253731,1.40148 -1.152901,2.20141 2.30606,1.53844 1.78125,3.29688 -0.623168,2.08801 3.03405,1.77532 4.28125,0.76562 0.375255,-0.3038 -0.897647,-0.94807 -0.46875,-1.09375 0.89426,-0.30374 1.389529,-1.45378 2.015625,-2.34375 0.255208,1.27083 -1.581301,2.92187 0.46875,4.29687 1.042679,0.69935 6.294475,-2.75132 5.500005,0.0313 -1.79859,6.29954 -16.113545,13.27865 -20.70313,8.57812 -1.022132,-1.04684 1.451018,-1.65957 -1.5,-4.125 -1.588416,-1.32705 -3.220518,-2.97338 -5.4375,-3.65629 z"
 id="path4733"
 style="fill:#0752e9;fill-opacity:1;stroke:none" />
<path
 d="m 104.28125,271.3125 c -3.98494,0.11984 -1.18432,4.97083 -0.1875,5.4375 3.30327,1.54646 10.14392,-0.63555 10.4375,2.875 0.32672,3.90687 1.5084,4.11567 3.32871,2.29272 1.83733,-1.84 3.86573,-0.7709 5.25911,1.85615 3.26336,6.1527 4.49553,5.48643 8.26431,5.74525 3.52236,0.24189 6.19348,-1.89539 9.19239,-4.33103 10.28968,-8.35702 1.26259,-20.75087 6.09879,-22.53903 2.12106,-0.78425 0.95118,-4.97682 -3.27037,-12.28598 L 111.496,248.15337 c -0.52953,0.92854 0.18203,2.7071 -2.12132,2.47487 -1.67969,-0.16935 -4.40319,0.39986 -5.15553,1.22112 -0.45301,0.49452 0.21279,1.77536 1.44322,1.6515 2.92988,-0.29493 9.19309,-1.51625 7.82237,3.71231 l 1.90035,2.60746 0.7513,-2.34229 c 0.39251,-1.22372 2.10662,0.19928 1.54679,1.98874 -0.19999,0.63925 -0.30853,1.25564 -0.17677,1.81196 l 8.79464,1.90035 c -0.23407,-1.19124 -0.30934,-2.35776 0.0442,-4.15425 0.43713,-2.22124 1.42783,-1.01062 2.91682,0.0884 1.88061,-1.57128 3.64063,1.50627 2.71415,2.91996 -1.34349,2.04999 -2.13451,3.73194 -2.34765,5.79388 l -4.43237,5.51669 c -1.0102,-0.36546 -1.70314,-0.83668 -3.40295,-0.97227 l 2.2981,-2.25391 c 3.31543,-3.25168 -0.0888,-3.5167 -1.81196,-3.49134 -8.02869,-2.20159 -6.08142,4.32757 -17.99814,4.68595 z"
 id="path4735"
 style="fill:#0752e9;fill-opacity:1;stroke:none" />
<path
 d="m 165.84375,295.5 c -1.87603,0.62926 -2.08787,4.67423 0.5,4.0625 3.15791,-0.74647 8.8123,-5.79164 8.375,-0.4375 -0.50306,6.15923 5.0121,2.97842 5.6875,1.9375 1.01653,-1.56665 2.46536,-2.07194 3.0625,-1.625 2.47386,-2.2162 1.76809,0.49342 4.4375,-1.0625 17.92038,-12.59956 30.08617,-2.37207 41.94175,-0.3706 2.86959,-2.1235 4.67833,-7.22006 6.18718,-5.21492 1.63557,2.17354 4.59296,-1.44921 3.18198,-2.12132 -0.96897,-0.46156 -2.46673,-0.98209 -0.39775,-1.10485 4.52206,-12.34521 8.51475,-8.80937 12.77212,-13.21406 -1.46164,0.51333 -3.5791,1.97534 -3.49778,0.52575 -2.05015,-0.0574 -0.0714,-1.71717 0.6875,-2.5 -4.32242,-6.43453 -10.86945,-2.8583 -16.3125,-4.25 -4.31846,5.03105 -7.86997,8.14755 -11.40847,11.84153 -2.25318,-1.63009 -3.63943,3.621 -5.57636,5.25888 -3.73815,0.32993 -2.53171,-2.51109 -0.51517,-5.78791 3.34213,-5.43088 -5.10779,-2.66289 -6.9375,-0.5 -4.55508,5.38454 -5.60741,1.86946 -9.61905,3.3414 -3.97922,1.46004 -3.2604,4.24808 -7.31845,3.4086 l -5.375,-10.6875 -5.4375,7 c 3.49144,1.90963 1.20237,3.75251 -2.1875,6.75 -4.6223,4.08728 -8.2743,4.49396 -12.25,4.75 z"
 id="path4737"
 style="fill:#0752e9;fill-opacity:1;stroke:none" />
<path
 d="m 162.80544,237.90032 c -0.16536,-2.88011 4.30455,-2.54747 4.77297,-0.70711 0.39671,1.5586 1.72469,-0.15504 1.63518,1.90035 -3.6694,0.89326 -7.93828,5.73992 -8.48528,7.95495 -3.12395,0.85348 -5.14974,1.48478 -7.15946,0.83969 -1.10836,-0.35577 2.01628,-2.25199 -1.67938,-3.18198 l 5.3475,-2.74004 c -0.59495,0.97505 -2.3961,2.72962 -0.83969,2.87263 1.32636,0.12187 6.53937,-4.65323 6.40816,-6.93849 z"
 id="path4739"
 style="fill:#0752e9;fill-opacity:1;stroke:none" />
<path
 d="m 145.93935,241.50594 c -7.06956,4.14296 -5.59063,0.4969 -8.23621,0.94638 l -2.01564,-0.23357 c 1.18744,-0.2891 1.74493,-0.9682 2.25,-1.6875 0.61856,-0.88093 2.47482,-1.8837 4.25,-1.75 z"
 id="path4741"
 style="fill:#0752e9;fill-opacity:1;stroke:none" />
<path
 d="m 171.65625,265.25 c -1.10401,0.2477 -0.82386,1.0863 0.125,0.90625 1.22462,-0.23237 2.36729,-1.13808 4.65625,-2.53125 3.86979,-2.35534 4.26386,2.27319 1.84375,3.25 -1.5787,0.6372 -1.66665,1.99375 -1.34375,2.875 -3.99984,2.57974 -4.94511,2.7837 -7.03125,3.875 -1.53246,0.34878 -3.15945,0.89605 -3.6667,-0.86206 2.06341,-0.48077 2.41948,-1.99936 0.38545,-2.35669 -3.06589,-0.5386 0.78307,1.92022 -0.0495,2.79799 -3.43963,0.9347 -8.20344,-1.13714 -8.60669,-3.57924 -0.14006,-0.84823 -0.34269,-1.66555 -0.28125,-2.59375 0.16525,-2.49636 2.85521,-2.44913 3.875,-5.25 l 7.46875,-1.90625 c 0.59569,0.77083 1.69322,3.1892 2.8359,2.35826 1.05468,-0.76694 4.36802,0.0789 1.2891,2.39174 -0.42505,0.31929 -0.90798,0.49216 -1.50005,0.625 z"
 id="path4743"
 style="fill:#0752e9;fill-opacity:1;stroke:none" />
<path
 d="m 258.39743,275.37698 c 3.75208,-0.76808 -1.95353,-2.16552 8.57367,-9.81111 l 12.41857,-1.4584 16.04248,4.24264 c 0.8039,1.16027 0.83174,2.27372 0.0884,3.09359 -0.95611,1.05456 -0.32031,2.52982 -0.22097,3.88909 l -19.93157,4.72877 c 0.19179,-1.54651 -2.06916,-3.35188 -2.96101,-2.03293 l -8.83884,4.72877 c 1.12614,-1.24561 3.85485,-3.99538 4.64039,-5.70104 0.31601,-0.68616 0.33682,-0.99681 -0.26517,-1.23744 -1.44653,-0.5782 0.63584,-2.53861 1.27091,-3.71231 0.94157,-1.74017 -2.82736,-0.51501 -2.53201,0.53439 -2.81429,1.20119 -5.69939,4.62399 -8.28485,2.73598 z"
 id="path4745"
 style="fill:#0752e9;fill-opacity:1;stroke:none" />
<path
 d="m 305.125,256.875 c -4.67814,6.71357 -3.87284,1.72779 -1.84375,-0.78125 1.79121,-2.2149 9.53125,-4.9375 9.53125,-4.9375 1.45074,1.18758 1.24918,4.18967 2.9375,3.75 2.68878,-0.70021 4.88346,-2.14948 5.71875,-3.875 4.84522,-0.24034 -0.91266,7.40698 -3,7.21875 -1.48371,-0.1338 -2.98588,-1.56179 -4.4375,-0.53125 l -4.09375,2.90625 c -1.319,0.20115 -3.76419,-0.35181 -2.84375,-2.46875 1.27781,-2.93884 -1.40164,-2.09511 -1.96875,-1.28125 z"
 id="path4747"
 style="fill:#0752e9;fill-opacity:1;stroke:none" />
<path
 d="m 293.4375,256.125 c -1.45181,1.77375 1.65444,1.18812 2.4375,0.46875 1.72804,-1.58749 4.18186,-5.2186 5.90625,-5.96875 l 0.0937,-11.75 c -1.67724,0.80218 -4.70771,3.00378 -8.3125,4.4375 -2.3594,0.9384 -5.4375,-2.60417 -7.65625,-3.78125 -3.78622,3.74603 -2.94968,5.49398 -8.09375,10.25 3.07368,0.68597 7.24756,-0.82846 11.1875,-1.875 3.48183,-1.29715 4.55651,1.89041 0.9375,3.28125 -2.28268,0.87727 0.65192,4.10156 -0.375,6.59375 0.74967,-0.65658 1.10502,-1.64028 2.25,-1.96875 0.52877,-0.1517 2.80137,-1.12467 1.62505,0.3125 z"
 id="path4749"
 style="fill:#0752e9;fill-opacity:1;stroke:none" />
<path
 d="m 159.96875,294.625 c -1.9225,-0.0471 -4.27137,3.29021 0.77589,2.054 5.77221,-1.59789 8.29652,0.17719 10.59911,-3.33525 1.67529,-1.57759 2.90776,-3.54055 5.28125,-4.5625 2.57119,-1.10707 2.10228,-3.41019 3.375,-4.28125 5.70515,-3.90465 9.3546,-3.31894 7.75092,0.64867 -0.48102,2.62022 1.27598,5.35951 5.56158,0.72633 2.48248,-2.68381 5.3914,-3.94052 6.70268,-5.24138 2.72434,-2.7027 2.3633,-3.54405 3.67232,-3.38362 3.47912,0.42638 1.76847,-2.5631 4.57924,-4.89553 1.42968,-1.77332 -1.85712,-2.64975 -4.64174,-1.66697 -2.15686,0.76123 -7.36434,5.71111 -6.28125,0.71875 0.17098,-0.78811 2.35501,-5.23275 -1.34375,-4.65625 -2.80769,0.43762 -2.45921,-1.87187 -2.875,-1.78125 -0.68155,0.14854 1.27768,-2.00728 -2.42521,0.0937 -3.66645,2.08031 -7.5785,3.13257 -10.48104,5.03125 -1.6857,1.10269 -2.05512,-0.0874 -3.1875,-0.375 -2.6681,-0.67759 -5.82725,1.03815 -7.79799,2.69286 -0.45637,0.38319 -0.94711,1.0649 0.048,1.40089 1.19344,0.40296 2.17586,1.21302 1.34375,2.1875 -0.65958,0.77243 -3.02603,1.97674 -1.3125,2.75 0.19505,0.93619 0.4694,0.91214 1.90625,1.34375 0.63274,0.19007 -0.0453,1.6107 -0.5625,2.3125 -1.50077,2.03646 -4.31405,4.53333 -8.54688,6.70313 -0.95484,0.48946 -2.00955,2.33192 0.26563,1.89062 4.65724,-0.90332 4.64326,0.88135 2.40625,2.15625 -0.92249,0.52574 -1.31808,1.55437 -4.81251,1.4688 z"
 id="path6459"
 style="fill:#000000;stroke:none" />
<path
 d="m 137.78125,290.5 c -5.85506,0.9446 -2.6626,4.8675 0.75,2.875 2.9379,-1.71534 5.47312,-1.09176 8.25,-1.25 5.78915,-0.32988 10.9059,-1.7136 14.5625,-5.875 1.70992,-1.94597 1.53539,-2.8863 4,-3.125 -0.29804,-3.6284 -4.45434,-2.92329 -1.625,-6.5 l 3.3125,-4.1875 c -1.96886,-0.29541 -2.61827,0.36394 -3.875,-1.125 -1.40259,-1.66175 -2.72417,-2.12674 -5.375,-1.9375 -0.97074,-2.22424 -4.3095,-2.74175 -5.9375,-1.9375 -2.08393,1.02949 -4.2045,2.26961 -6.0625,2 0.82336,-1.84204 -0.0378,-3.23112 -0.3125,-4.25 -0.55397,-2.05482 -3.15083,-2.26641 -4.4375,-0.5 -1.71506,2.35452 -3.48846,0.7125 -4,0.25 -3.01274,-2.72392 -5.09769,-0.68643 -7.0625,1.5 -8.44154,9.39368 -11.78845,8.0017 -15.125,9.8125 -1.46315,0.79408 -1.05648,2.44335 -0.125,2.4375 3.77279,-0.0237 7.26646,-3.55135 11.0625,-3.5625 2.81579,-0.008 3.75743,-0.132 5.0625,1.875 1.29851,1.99692 4.71166,3.33417 5.25,2.0625 0.64456,-1.52258 3.50604,-3.77207 3.4375,-2.25 -0.25056,5.56415 1.92188,2.94271 3.10938,4.54688 l -3.9375,2.375 c -1.15695,0.85684 -0.83446,1.97076 0.89062,2.07812 1.41505,0.0881 6.12178,-1.69581 4.3125,1.6875 -1.23387,2.3073 -3.85683,2.63407 -6.125,3 z"
 id="path6461"
 style="fill:#000000;stroke:none" />
<path
 d="m 168.25,259.4375 c 1.93949,0.85238 -0.0835,3.23239 -1.96875,4.78125 -1.16946,0.96079 -4.01721,1.21099 -4,-1.3125 0.0133,-1.94405 -3.12539,0.20649 -4.75,0.375 -3.76042,0.81985 -8.635,3.48061 -11.28125,-2.40181 -0.56111,-1.24731 -2.14675,-2.62749 -4.23169,-2.04641 -2.04764,0.57067 -3.09531,0.59959 -4.48706,-1.45803 -0.85459,-1.26346 -2.71159,-1.98935 -5.59375,-1.78125 -0.85206,0.0615 -1.63268,-0.89675 0.4375,-2.40625 4.64772,-3.38895 0.99027,-3.26115 -1.71875,-1.65625 -2.96437,1.75618 -6.4498,3.79807 -9.32705,4.42239 1.21248,1.69358 2.62018,3.46224 4.90556,5.56847 1.22294,1.14878 2.56746,0.53588 3.66811,-1.14905 0.51414,-0.78707 1.88002,-0.55606 1.30373,0.39775 -2.78711,4.61286 -2.26301,2.60748 -7.91455,5.57003 -3.26933,1.71379 -6.064,2.63248 -9.07811,0.57296 -2.2037,-1.50577 -6.6327,1.50166 -10.00998,2.14342 -1.75424,0.33334 -3.07872,-0.13064 -4.90555,-1.12696 -1.578663,-0.86097 -5.03822,2.36881 -7.954953,2.07713 -2.125174,-0.21252 -1.730055,-2.10548 -0.751301,-2.20971 5.8136,-0.61913 12.490824,-4.71997 16.661204,-9.78901 0.33533,-0.40759 1.55072,-2.85165 2.98311,-0.7734 0.18848,0.27347 -0.0187,1.05828 -0.15468,1.74567 l 3.7565,-2.62955 c 1.51786,-1.0625 2.05523,-0.32112 1.94454,0.92808 l -0.30935,3.49134 c -0.0874,0.9868 0.50556,2.22968 1.72357,0.19887 0.96862,-1.615 2.153,-3.15585 3.44714,-5.06023 l -1.67937,-0.0442 c -1.7849,-0.047 -1.15162,-1.96525 0,-2.18761 2.02798,-0.39158 3.76302,-1.03245 8.41899,-4.61829 -5.70342,0.29391 -10.68838,0.48519 -15.57845,0.66291 -0.83057,-0.40988 -1.12231,-0.92753 -1.67938,-1.39211 -0.28716,-0.23949 -0.8932,-1.25963 0.26517,-1.34793 2.53088,-0.19293 6.03462,-0.20345 9.50174,-4.5741 0.54867,-0.69165 3.46299,-0.39578 2.91682,1.06067 l -0.7955,2.12132 c -0.41609,1.10956 1.55646,1.59655 2.89472,0.44194 0.99226,-0.8561 2.23638,-1.54248 2.85053,-2.67375 0.44186,-0.81391 2.51801,0.32554 2.36438,1.5468 -0.0572,0.45496 -0.0709,0.7202 -0.24306,1.43631 2.29566,-1.31517 2.25759,-1.17264 3.49134,-1.76777 0.5059,-0.24403 0.80747,-0.44095 0.95017,-1.96664 0.052,-0.55591 3.5813,-1.8437 3.22618,0.46404 -0.2537,1.64866 -1.30598,4.75138 0.0442,4.28683 2.0653,-0.71059 4.28405,-2.55038 7.13736,-2.01083 1.04152,0.19695 2.82089,0.44115 2.45278,1.65728 -0.37776,1.24801 0.43676,2.50202 1.01646,1.96664 0.60142,-0.55544 0.93033,-1.50339 2.60746,-1.21534 2.08643,0.35835 1.82966,2.12914 1.30373,4.04377 -0.21181,0.77111 -0.0706,1.43918 -0.39775,2.38648 -0.15097,0.43711 1.08314,2.42286 2.58536,1.67938 0.91084,-0.45079 1.76521,-0.74625 3.20407,0.26517 1.25581,0.88275 1.96573,2.60139 4.08797,2.12132 0.95295,-0.21557 2.32546,-2.16254 2.82842,-0.35356 0.12674,0.45584 0.76031,0.72101 0.39775,1.37002 -0.23522,0.42106 0.0317,0.78707 0.7292,0.0884 0.93674,-0.93826 1.48061,-0.45699 2.70452,0.0809 z"
 id="path6463"
 style="fill:#000000;stroke:none" />
<path
 d="m 55.25,229.53125 c -0.690951,-0.0995 -2.351117,1.07868 -0.479473,2.1654 2.878569,1.67137 6.587224,0.85595 8.385723,-0.88415 3.138144,-3.03624 -1.688207,-2.06515 -2.540133,-1.43214 -1.718023,1.27656 -4.467129,0.28038 -5.366117,0.15089 z"
 id="path6465"
 style="fill:#000000;stroke:none" />
<path
 d="m 74.682253,229.50343 c -1.21395,0.0133 -2.41967,3.37816 0.198707,3.03507 2.067606,-0.27093 0.957607,-0.40901 3.445628,-0.37296 2.241524,0.0325 2.688186,-2.73171 0.377335,-2.70631 z"
 id="path6467"
 style="fill:#000000;stroke:none" />
<path
 d="m 75.035806,225.30498 c -3.989887,0.77621 1.290024,4.81924 4.065864,2.47488 1.209617,-1.02159 3.041625,-2.1462 4.46083,-3.52986 0.797326,-0.77736 -1.336793,-1.36936 -1.875,-0.90625 -2.561818,2.20438 -4.607392,1.56352 -6.651694,1.96123 z"
 id="path6469"
 style="fill:#000000;stroke:none" />
<use
 transform="matrix(0.46536864,0.05913244,-0.14762045,0.81423929,96.630682,38.398374)"
 id="use6471"
 x="0"
 y="0"
 width="417"
 height="480"
 xlink:href="#path6465" />
<path
 d="m 59.875,243.28125 c 2.894824,-4.11368 6.941852,-5.19837 10.03125,-4.78125 0.141649,0.63506 0.164937,1.67999 1.9375,1.75 3.375978,0.13333 5.985644,-0.1799 6.65625,-2.21875 0.553894,-1.98948 1.581907,-3.32249 3.21875,-3.8125 0.539797,1.31805 -0.209054,2.30034 -0.5,3.5 -0.496629,2.04775 1.489696,1.36408 2.28125,0.25 0.10492,-0.14767 0.05777,-0.15611 1.21875,-0.84375 -0.332668,-2.90774 0.553673,-2.52431 1.03125,-3.5 1.210561,-2.47318 3.165701,0.76357 3,1.34375 -1.080827,3.19313 -1.397088,7.05694 -2.78125,8.71875 -1.729507,2.07643 -6.871332,4.31191 -12.9375,5.90625 -3.108881,0.81709 -7.171791,-1.21244 -6.6875,-3.09375 0.287945,-1.11857 0.276622,-2.92985 -0.46875,-2.75 -2.146378,0.5179 -4.270134,1.0922 -6,-0.46875 z"
 id="path6473"
 style="fill:#000000;stroke:none" />
<path
 d="m 87.875,244.34375 c -2.166854,1.35535 -1.019149,4.87258 2,3.625 1.300405,-0.53736 4.431529,-2.10794 4,-0.875 l -0.4375,1.25 c -0.877137,2.50611 2.868999,2.2909 2.65625,-0.75 -0.225438,-3.22226 -2.698298,-4.78782 -2.625,-7.125 0.05566,-1.77467 -2.693685,-1.90529 -2.875,-0.5625 -0.212627,1.57469 -0.638275,3.13618 -2.71875,4.4375 z"
 id="path6475"
 style="fill:#000000;stroke:none" />
<path
 d="m 79.25,258.78125 c 12.273127,1.46818 18.020833,-2.67708 21.21875,-8.5625 0.5064,2.03878 -1.09413,3.312 -2.65625,5.28125 -1.570709,1.98008 1.24822,3.72027 1.78125,3.15625 l 2.6875,-2.84375 c 0.20906,-0.22121 3.04414,-0.95748 2.03125,0.71875 -3.5034,5.79778 -4.88542,3.14583 -12.25,8 -0.952364,0.62772 -1.940648,-0.74985 -1.125,-1.375 2.81667,-2.15882 1.937198,-3.73711 -1.21875,-3.15625 -4.505135,0.82918 -9.181529,2.33105 -10.46875,-1.21875 z"
 id="path6477"
 style="fill:#000000;stroke:none" />
<path
 d="m 141.875,238.625 c -3.00214,0.94004 2.85707,4.69961 4.21875,2.875 1.81349,-2.43002 3.79942,-2.95874 4.1875,-5.03125 0.30437,-1.62549 -1.43319,-0.53519 -2.96875,-0.3125 -1.5904,0.23064 -2.87045,1.66494 -5.4375,2.46875 z"
 id="path6479"
 style="fill:#000000;stroke:none" />
<path
 d="m 150,241.1875 c -2.60279,1.22922 -2.72789,5.05926 0.1875,4.40625 2.15301,-0.48225 3.59956,-1.25624 5.3125,-2.125 2.14828,-1.08955 3.95787,0.36895 5.09375,-2.3125 1.23437,-2.91394 1.4259,-7.47059 -1.625,-5.6875 -3.0511,1.78321 -4.21391,3.99926 -8.96875,5.71875 z"
 id="path6481"
 style="fill:#000000;stroke:none" />
<path
 d="m 156.9375,244.9375 c 5.17532,-1.56865 7.68609,-4.31232 10.9375,-6.28125 0.4623,-0.27995 0.93274,0.002 1.21875,0.15625 0.5726,0.30809 0.99249,1.79491 1.8125,0.71875 0.38852,-0.50988 1.98028,-0.51306 1.625,1.0625 -0.16085,0.7133 0.21474,2.96879 2.125,1.71875 1.2529,-0.81987 2.75168,0.72748 1.5,2.21875 -1.45164,1.7295 -1.14894,2.8228 0.71875,2.96875 3.55574,0.27786 0.87878,3.70071 -1.3125,4.3125 -2.44096,0.6815 -5.45845,1.27438 -7.59375,0.25 -2.90027,-1.39136 -6.37929,-2.51578 -8.75,-1.03125 -0.73818,0.46224 -3.27273,-0.89773 -0.875,-1.75 0.84423,-0.30008 2.88091,-1.34122 0.34375,-2.8125 -0.72852,-0.42246 -2.32454,-1.3571 -1.75,-1.53125 z"
 id="path6483"
 style="fill:#000000;stroke:none" />
<path
 d="m 188.65625,295.25 c -2.87152,2.17829 -1.50284,2.96234 0.4375,2.8125 2.25939,-0.17447 1.75399,1.98719 0.625,2.59375 -1.89797,1.0197 -2.2156,3.5775 0.40625,1.53125 1.26811,-0.98971 2.41633,2.83915 6.40625,-0.5 1.327,-1.11056 3.28275,-2.21389 3.25,-0.78125 -0.0477,2.08485 4.20835,2.0567 5.21339,0.27968 0.95281,-1.68468 3.706,-0.6382 4.75536,0.87657 1.457,2.10322 3.55495,1.08633 5.21875,0.0312 2.71358,-1.72087 5.19701,-3.23446 7.3125,-4.5 3.99951,-2.39261 1.67789,3.62394 0.25,4.03125 3.11734,1.09388 8.20136,-2.53036 7.46875,-4.96875 -0.43744,-1.45596 -1.77579,-3.24824 -2.6875,-4.875 -1.75765,-2.3444 -4.32669,-2.14675 -7,-0.125 -6.29044,4.7573 -3.85156,-1.2367 -2.1875,-2.28125 1.60101,-1.00497 2.62694,-1.76858 3.53125,-3.96875 1.12192,-2.7296 -1.6529,-3.58589 -3.15625,-1.59375 -2.3873,3.1635 -6.44052,4.01144 -4.71875,0.0625 0.9013,-2.06718 2.0361,-2.74074 -0.9375,-2.3125 -1.18034,0.16998 -3.36326,0.5781 -2.46875,3.34375 1.06228,3.28436 -0.23548,3.14328 -1.6875,3.75 -3.87835,1.62054 -7.48371,1.46847 -11.21875,1.53125 -2.04213,0.0343 -1.63712,1.32708 -2.21875,2.1875 -1.34368,1.98774 -4.38533,1.92831 -6.59375,2.87505 z"
 id="path6485"
 style="fill:#000000;stroke:none" />
<path
 d="m 215.78125,268.75 c -3.69564,4.87358 -1.56452,3.89196 -0.0937,3.71875 1.44683,-0.17039 2.41749,-1.16513 4.71875,-1.03125 1.35281,0.0787 -0.0316,1.02433 -0.5,1.78125 l 0.65625,1.3125 c 4.91633,-1.03962 9.11974,-5.01787 12.4375,-8.4375 1.36546,-1.40739 -0.32583,-3.44815 -2.28125,-2.90625 -0.75258,0.20856 -1.53641,0.42262 -1.9375,0.8125 -0.64332,0.62533 -1.20087,0.22797 -1.78125,0.125 -1.49054,-0.26446 -1.78421,0.24642 -2.375,0.84375 -0.88623,0.89604 -2.271,0.091 -3.40625,0.0625 -1.54899,-0.0389 -3.62503,2.47917 -5.43755,3.71875 z"
 id="path6487"
 style="fill:#000000;stroke:none" />
<path
 d="m 202.75,264.6875 c 5.79851,1.52175 14.40728,-2.77104 16,-5.0625 0.72443,-1.04225 0.0964,-1.95454 -0.53125,-2.46875 -1.57813,-1.29297 -4.38976,-2.45619 -3.71875,-4.03125 0.44147,-1.03627 -1.84999,-0.54125 -2.46875,0.0625 -2.63608,2.57218 -5.97789,1.36628 -4.875,-0.4375 -2.32605,-0.70061 -2.75492,0.31971 -3.375,0.59375 -1.05902,-2.57427 -3.54186,-2.15442 -4.5,-1.28125 -1.3919,1.26847 -4.14836,1.07358 -4.875,0.46875 -2.33089,2.60087 -7.01419,1.71718 -9.03125,1.5625 -0.22086,2.05974 1.52184,1.86479 2.75,2 1.21458,0.13371 2.59814,0.22134 2.9375,0.59375 3.23217,-1.66967 4.6787,-1.5537 5.59375,-0.90625 -0.78176,0.56729 -1.74324,0.99193 -2.25,1.78125 -1.13218,1.76344 0.47773,2.68948 2.40625,2.09375 1.31006,-0.40469 2.47326,-1.26162 3.6875,-1.96875 -0.73079,3.71505 5.44482,4.16865 2.25,7 z"
 id="path6489"
 style="fill:#000000;stroke:none" />
<path
 d="m 194.3125,246.65625 c 0.10478,-2.5304 1.34569,-4.92754 2.9375,-3.96875 2.63099,1.58472 3.69137,0.66512 5.53125,-0.40625 0.25661,2.59095 3.32473,0.92295 4.34375,0.625 2.20064,-0.64344 2.32977,2.04687 0.6875,3.375 -1.82269,1.47403 -3.06711,0.63661 -5.78125,1.75 -0.85732,-2.0442 -1.53638,-1.85369 -4.15625,-1 -1.44832,-1.87752 -2.79746,-0.33193 -3.5625,-0.375 z"
 id="path6491"
 style="fill:#000000;stroke:none" />
<path
 d="m 238.45044,296.17364 c -2.91796,1.5919 1.76848,3.1392 3.95581,2.35761 12.0559,-4.3079 12.8231,-1.11209 15.75,-4.96875 1.19857,-1.57931 3.76439,-1.51417 5.35033,-3.53467 3.14267,-4.00378 6.59763,-7.00542 8.81202,-10.31982 1.50681,-2.25533 -2.14993,-3.2976 -3.71231,-1.59099 l -2.87262,3.13779 c -1.71189,1.86992 -2.67499,-0.35957 -1.7343,-1.45083 1.04427,-1.21142 2.70217,-2.18488 2.17624,-3.41053 -0.93605,-2.18142 -0.22957,-2.61393 0.44194,-3.35876 1.41556,-1.57013 -1.00816,-2.07219 -1.63518,-1.45841 -1.75017,1.71323 -3.30477,2.78001 -4.41942,3.35876 -2.64135,1.37145 -1.96326,-0.58111 -2.16552,-1.28163 -0.35744,-1.23798 -0.81392,-1.39455 -1.72357,-0.13259 -0.30848,0.42795 -0.51759,1.30755 -1.77091,0.97228 -1.49909,-0.40102 -7.99951,5.67866 -12.72478,6.18718 -1.36779,0.1472 -2.80395,2.07628 -4.41942,2.87262 -3.1045,1.53036 1.00869,6.60117 2.38649,5.96622 2.58872,-1.193 4.13949,-1.68904 5.21491,-1.63519 3.18308,0.1594 2.40267,2.51048 0.26517,4.37522 -1.71415,1.49541 -4.78317,2.60968 -7.17488,3.91449 z"
 id="path6493"
 style="fill:#000000;stroke:none" />
<path
 d="m 227.39522,257.56673 c -0.33717,0.81771 -0.84395,1.37158 -0.68501,2.96101 2.28852,0.34756 6.61152,0.69913 10.34144,-2.78424 1.06574,-0.99529 2.96672,0.27511 1.85615,1.5468 -1.20105,1.37531 -2.15594,3.96894 1.39212,2.2539 1.59109,-0.34318 3.49715,-3.46211 4.35313,-3.27037 1.05241,0.23574 1.84328,1.64433 3.13778,0.75131 2.6471,0.43215 5.1274,-0.30322 7.66769,-0.61872 1.58259,-0.19656 2.42189,1.47443 3.35876,1.01646 2.15495,-1.05341 4.24532,-2.19379 4.68458,-4.552 0.18667,-1.00216 0.51779,-2.58688 -1.30373,-2.07712 -1.2273,0.34347 -2.34826,1.30751 -3.51343,2.03293 -0.70721,0.4403 -2.30207,0.28231 -1.50261,-1.25953 0.57017,-1.09962 0.22706,-2.51053 0.42543,-3.50137 0.25572,-1.27736 0.65874,-2.25069 0.0386,-3.92326 -0.35489,-0.95718 -0.0776,-1.38061 -1.06066,-0.77339 -0.78288,0.48358 -1.40682,1.38727 -2.58536,0.97227 -0.49807,-0.17539 -0.6494,0.10394 -0.87556,0.31513 -3.30302,3.08433 -8.01358,5.55945 -11.47671,6.09302 -2.52827,0.38954 -2.16847,-1.05798 -2.67375,-2.85052 -0.15153,-0.53755 0.01,-1.47606 -1.30372,-1.08276 -1.99273,0.59665 -3.4011,1.89232 -5.92203,3.99958 -1.47192,1.23039 -3.93279,1.45303 -4.57409,2.2097 -0.69718,0.82261 -1.03369,1.93154 0.22097,2.54117 z"
 id="path6495"
 style="fill:#000000;stroke:none" />
<path
 d="m 230.70978,273.18937 c 0.7486,-1.71091 1.67149,-2.95462 2.93892,-3.46924 2.22712,-0.90429 3.52188,-2.83951 5.2591,-4.24264 0.69006,-0.55735 1.45652,-0.57307 1.94455,-0.13259 1.59608,1.44056 3.18049,-0.0782 5.10442,-1.63518 1.85796,-1.5036 4.45057,-2.20652 4.17635,-0.0221 -0.23095,1.83973 -0.2194,3.46349 0.19888,4.77297 1.02722,3.21581 2.98006,-0.0674 4.04376,-0.99437 0.57362,2.88955 -2.64682,4.3478 -5.48007,7.00478 -1.29109,1.21076 -3.12157,-0.34585 -2.82843,-0.95018 0.65616,-1.35271 -2.49841,-1.47067 -3.8007,-0.0663 -2.09247,2.25649 -4.50159,1.91872 -5.96621,0.61872 -0.91679,-0.81374 -4.38953,0.30705 -5.59057,-0.88387 z"
 id="path6497"
 style="fill:#000000;stroke:none" />
<path
 d="m 259.76745,265.58797 c -2.80127,2.01479 -0.70307,4.10988 1.37002,3.75651 1.7913,-0.30534 3.83569,-2.7333 6.29767,-3.0715 2.95285,3.49889 5.11711,2.1366 7.77818,0.99437 1.34582,-0.57767 3.06715,-1.61238 4.06586,-3.11569 2.45835,3.53155 7.06858,7.12666 9.39126,5.52427 1.49352,-1.03036 2.99595,-2.1605 3.42505,-1.28163 0.67185,1.37607 2.14592,1.56571 3.53553,0.0221 1.27814,-1.41979 2.77805,-1.10546 4.68459,-4.46361 0.94712,-1.66825 -1.23049,-1.38046 -1.61309,-0.72921 -2.47733,4.2168 -4.59234,0.47313 -3.33666,-2.45277 0.66528,-1.55019 -0.48641,-1.76291 -0.97227,-1.59099 -3.65317,1.29263 -3.71648,-2.22557 -3.97748,-3.75651 -0.29636,-1.73832 -2.17048,-0.95827 -2.80633,-0.30936 -1.93676,1.97656 -3.84933,4.00511 -6.14299,5.21491 -0.24677,-0.80266 -0.28605,-1.69497 -0.0221,-2.49697 0.59073,-1.79493 -2.33523,-1.37828 -2.96101,-0.35355 -3.51891,5.76226 -5.05667,1.0075 -6.34991,0.27118 -0.90288,-0.51406 -1.17473,-0.6594 -1.87021,0.17076 -3.02553,3.61144 -6.98402,5.14165 -10.49611,7.66769 z"
 id="path6499"
 style="fill:#000000;stroke:none" />
<path
 d="m 272.51562,284.42188 c -1.37905,1.39375 0.71639,1.09834 0.85156,0.57812 0.0863,-0.33206 0.70835,-1.22864 1.50782,-1.32812 4.22521,0.19666 5.63085,1.92434 7.83776,0.73884 1.08079,-0.58038 1.72866,-1.61775 2.20118,-1.87428 2.31569,-1.25715 3.72401,0.42518 2.85745,1.00554 -1.29313,0.86606 -2.10315,1.33173 -3.03423,2.13224 -1.85057,1.59107 -1.03317,4.1075 0.70711,2.71794 2.1616,-1.72597 7.97102,-4.57131 8.41899,-6.0546 1.56886,-5.19475 5.63985,-3.30925 10.62111,-12.21256 1.04639,-1.87026 -0.80153,-2.26 -1.73437,-1.125 -1.12909,1.37379 -2.33009,2.86447 -3.48438,3.70312 -4.54279,3.30061 -4.36978,-0.55729 -5.32812,-1.39062 -1.28209,0.69032 -1.80806,3.69061 -3.9375,4.625 -0.43212,-1.32578 -1.14474,-2.23081 -1.90625,-3.0625 -2.03706,1.91056 -4.34818,5.74277 -5.4375,3.6875 -0.71105,-1.34157 -1.51814,-2.60632 -2.4375,-3.78125 -4.31686,3.86722 -4.33512,8.2367 -7.70313,11.64063 z"
 id="path6501"
 style="fill:#000000;stroke:none" />
<path
 d="m 305.03125,263.03125 c -4.30302,2.78478 0.37955,2.79677 1.1875,2.40625 2.5362,-1.22587 4.09786,1.89042 10.03125,-2.0625 1.34954,-0.89908 0.008,-1.44291 -0.625,-1.25 -4.66101,1.42059 -2.6101,-0.65936 -2,-2.125 1.18115,-2.8375 -1.01905,-1.59934 -2.40625,-1.09375 -2.02042,0.73638 -2.43398,0.68201 -3.3125,0.78125 0.1588,2.23172 -1.64109,2.5452 -2.875,3.34375 z"
 id="path6503"
 style="fill:#000000;stroke:none" />
<path
 d="m 301.4375,245.96875 c -0.22741,-0.33299 -4.80238,-0.7744 -2.84375,-3.75 -0.21464,-0.29502 -0.68681,-0.53061 0.125,-1.0625 1.56327,-0.80902 2.62396,-3.11961 4.75,-2.15625 2.58746,1.17245 5.57485,-2.34229 5,1.5 -0.20971,1.40169 -2.43043,3.97734 -1.46848,5.02835 0.41115,0.44922 1.18281,0.52102 2.43723,-0.1221 2.91561,-1.49479 4.47794,-5.11906 6.25,-8.8125 0.69871,-1.45629 2.96366,-1.63311 1.90625,1.0625 -0.72291,1.8429 -2.21925,4.48937 -0.0625,5 0.89205,0.2112 1.50815,0.85662 1.65625,2.125 0.16323,1.39787 1.3929,1.88546 3.34375,-0.53125 0.64273,-0.79621 2.27391,-0.4143 3.28125,0.15625 1.35613,-0.41609 5.19108,-0.0814 2.78125,2.25 -1.93434,1.87139 -3.81385,3.44321 -5.5,5.9375 -0.28893,0.4274 -0.99156,0.52615 -1.3125,-0.15625 -0.55564,-1.18144 -0.92131,-1.66125 -2.40625,-0.375 -1.20641,1.31706 -2.86025,1.60796 -4.09375,2.53125 -1.46387,-0.49577 -2.32457,-0.79293 -2.78125,-3.28125 -0.14686,-0.80018 -0.70419,-0.73362 -2.125,-0.5 -3.27166,0.53795 -3.51117,2.91886 -6.625,2.0625 -2.24816,-0.61828 -4.59725,-4.48667 -2.3125,-6.90625 z"
 id="path6505"
 style="fill:#000000;stroke:none" />
<path
 d="m 319.46875,264.0625 c 4.4375,-4.6875 4.32243,-3.62115 6.25,-3.71875 2.54315,-0.12876 -1.24136,2.32903 -4.15625,4.03125 z"
 id="path6507"
 style="fill:#000000;stroke:none" />
<path
 d="m 333.78125,247.625 c 0.9825,-0.36118 2.81308,-0.6845 4.125,0.0312 -1.85339,1.27519 -2.06818,3.33097 -3.53125,4.03125 -1.81702,1.78526 -3.93078,-0.18443 -4.34375,0.71875 -0.38845,0.84956 -3.36266,2.42588 -1.6875,-0.9375 0.72617,-1.458 1.10717,-3.46569 2.53125,-2.5 1.26207,2.72468 2.63552,1.69338 3.31893,0.49921 0.48049,-0.83961 1.95064,-1.46127 -0.41268,-1.84291 z"
 id="path6509"
 style="fill:#000000;stroke:none" />
<path
 d="m 323.21875,239.92188 c -1.29108,0.86513 -0.0963,1.43342 0.53125,1.15625 1.03566,-0.45738 2.29024,-1.03098 2.40625,-0.53125 0.13384,0.57654 1.30664,-0.20354 2.94204,-0.50224 2.48823,-0.45446 3.21561,0.78764 5.77716,-2.16642 -2.88248,-0.7755 -2.65918,-1.36602 -2.40858,-1.94454 0.5327,-1.22975 -0.61124,-1.53911 -1.06066,-1.21534 -0.59508,0.4287 -1.06484,1.25981 -1.5247,1.41421 -3.09341,1.03865 -4.4852,2.33019 -6.66276,3.78933 z"
 id="path6511"
 style="fill:#000000;stroke:none" />
<path
 d="m 324.29095,227.60308 c -3.75546,1.2043 -6.02461,-0.1089 -7.02688,1.4805 -1.13535,1.80046 0.68721,2.05138 1.21534,1.65728 2.06716,-1.54254 5.76552,-0.30838 5.81154,-3.13778 z"
 id="path6513"
 style="fill:#000000;stroke:none" />
<path
 d="m 336.55483,230.4757 c -1.43946,-0.45732 -1.04294,1.1746 -0.97227,1.87825 0.20934,2.08432 8.77805,1.50408 9.98788,0.0442 1.40736,-0.88954 -0.64385,-1.08825 -1.14905,-1.01646 -3.72339,0.52909 -5.74178,-0.23093 -7.86656,-0.90597 z"
 id="path6515"
 style="fill:#000000;stroke:none" />
<path
 d="m 343.56551,232.66731 a 1.9224466,1.1711456 0 1 1 -3.84489,0 1.9224466,1.1711456 0 1 1 3.84489,0 z"
 transform="matrix(1.0710592,-0.37908338,0.36238499,1.1204127,-110.52036,93.83449)"
 id="path6517"
 style="fill:#000000;fill-opacity:1;fill-rule:nonzero;stroke:none" />
<use
 transform="matrix(-0.16381499,-0.70150012,0.89020995,-0.12908891,204.45315,492.76023)"
 id="use6519"
 x="0"
 y="0"
 width="417"
 height="480"
 xlink:href="#path6517" />
<path
 d="m 162.23681,240.04773 a 1.9666407,1.0385631 0 1 1 -3.93328,0 1.9666407,1.0385631 0 1 1 3.93328,0 z"
 transform="matrix(0.96932386,0.24578703,-0.24578703,0.96932386,60.55243,-40.606255)"
 id="path6521"
 style="fill:#000000;fill-opacity:1;fill-rule:nonzero;stroke:none" />
<path
 d="m 165.23612,233.39252 c -1.40991,1.26965 -1.97279,-0.087 -2.47488,-0.97228 l -1.67938,-2.96101 c -0.59145,-1.25399 0.97166,-3.49083 3.97748,-2.74004 2.73346,0.68276 5.04146,0.70836 5.96621,2.07713 1.09053,1.61415 0.32291,2.57876 -1.41421,2.87262 -1.52594,0.25813 -2.66201,0.18081 -4.37522,1.72358 z"
 id="path6523"
 style="fill:#000000;stroke:none" />
<path
 d="m 181.41708,240.57806 a 2.20971,1.8340593 0 1 1 -4.41942,0 2.20971,1.8340593 0 1 1 4.41942,0 z"
 transform="matrix(0.97154808,-0.23684242,0.23684242,0.97154808,-54.714625,41.683422)"
 id="path6525"
 style="fill:#000000;fill-opacity:1;fill-rule:nonzero;stroke:none" />
<path
 d="m 181.52167,226.25516 c -1.81282,-0.54937 -2.10618,2.38989 -1.61309,2.62955 1.21788,0.59194 1.96147,2.61993 3.60183,2.56326 2.96336,-0.10237 0.35782,-4.4817 -1.98874,-5.19281 z"
 id="path6527"
 style="fill:#000000;stroke:none" />
<path
 d="m 181.58796,236.88385 c -1.08929,0.23496 -2.88879,2.2887 -0.19292,2.93179 0.40249,0.096 1.52137,-1.16299 2.13746,-1.03144 3.05226,0.6517 4.29179,-2.54112 6.67332,-2.29809 2.73893,0.2795 4.77509,-0.23264 6.45235,-1.14905 2.09429,-0.46278 1.12673,-2.28057 -0.0884,-2.56326 -2.45941,-0.57216 -4.12044,-0.15819 -6.49654,-0.57453 -3.1333,-0.54901 -2.47187,3.3875 -8.48527,4.68458 z"
 id="path6529"
 style="fill:#000000;stroke:none" />
<path
 d="m 205.5412,232.44234 c -0.8264,2.00366 1.50457,3.15928 2.03293,2.93891 0.63029,-1.51614 1.73795,-1.59242 2.78424,-1.61308 5.66484,-0.11188 4.49906,-3.01422 5.19281,-3.8449 -2.53592,-1.02808 -4.39428,0.96079 -5.92201,1.94454 -1.10322,0.7104 -2.3972,1.03925 -4.08797,0.57453 z"
 id="path6531"
 style="fill:#000000;stroke:none" />
<path
 d="m 223.35145,234.43108 c 2.53552,-1.66881 2.57781,0.17056 1.10486,1.28163 -0.80447,0.60683 -1.82351,1.67476 -2.67375,3.46924 -1.05194,2.22017 -6.573,-0.57801 -3.07149,-1.32582 2.57602,-0.55016 3.03449,-2.3681 4.64038,-3.42505 z"
 id="path6533"
 style="fill:#000000;stroke:none" />
<use
 transform="matrix(1.4410809,-1.0648387,-1.2598241,-1.5019395,214.70544,822.84354)"
 id="use6535"
 x="0"
 y="0"
 width="417"
 height="480"
 xlink:href="#path6533" />
<use
 transform="matrix(-0.62375059,0.78162344,0.78162344,0.62375059,179.5211,-60.926264)"
 id="use6537"
 x="0"
 y="0"
 width="417"
 height="480"
 xlink:href="#path6531" />
<path
 d="m 266.92691,231.09442 c 1.80857,-0.0969 4.9007,5.1509 -1.45841,3.88909 -5.1774,-1.02733 -7.31926,0.95083 -10.29724,-0.61872 -1.67628,-0.88349 -1.1718,-2.12307 0.39775,-1.76777 1.34512,0.3045 1.53599,-1.41773 0.61871,-1.94454 -2.37635,-1.36478 -0.92974,-2.86829 0.39775,-2.78424 4.87553,0.3087 1.63465,3.69262 10.34144,3.22618 z"
 id="path6539"
 style="fill:#000000;stroke:none" />
<path
 d="m 241.07922,247.40607 a 3.4029515,1.4142135 0 1 1 -6.8059,0 3.4029515,1.4142135 0 1 1 6.8059,0 z"
 transform="matrix(1.0937132,-0.27186161,0.23704902,1.2543339,-84.638989,-7.5934775)"
 id="path6541"
 style="fill:#000000;fill-opacity:1;fill-rule:nonzero;stroke:none" />
<text
 x="-73.539108"
 y="116.09306"
 id="text6547"
 xml:space="preserve"
 style="font-size:40px;font-style:normal;font-variant:normal;font-weight:normal;font-stretch:normal;text-align:start;line-height:125%;letter-spacing:0px;word-spacing:0px;writing-mode:lr-tb;text-anchor:start;fill:#000000;fill-opacity:1;stroke:none;font-family:Sans;-inkscape-font-specification:Sans"><tspan
 x="-73.539108"
 y="116.09306"
 id="tspan6549" /></text>
</svg>
