<?xml version="1.0" encoding="UTF-8" standalone="no"?>
<!-- Created with Inkscape (http://www.inkscape.org/) -->

<svg
 xmlns:dc="http://purl.org/dc/elements/1.1/"
 xmlns:cc="http://creativecommons.org/ns#"
 xmlns:rdf="http://www.w3.org/1999/02/22-rdf-syntax-ns#"
 xmlns:svg="http://www.w3.org/2000/svg"
 xmlns="http://www.w3.org/2000/svg"
 version="1.1"
 width="407"
 height="480"
 id="svg2815">
<metadata
 id="metadata11">
<rdf:RDF>
<cc:Work
 rdf:about="">
<dc:format>image/svg+xml</dc:format>
<dc:type
 rdf:resource="http://purl.org/dc/dcmitype/StillImage" />
<dc:title></dc:title>
</cc:Work>
</rdf:RDF>
</metadata>
<defs
 id="defs2819" />
<path
 d="M 13.442797,0.50847281 391.52744,0.53727359 C 421.086,180.15721 424.16233,348.77677 202.55913,479.95506 24.815574,376.08505 -26.02899,244.09034 13.442797,0.50847281 z"
 id="path2827"
 style="fill:#d61a1a;fill-opacity:1;stroke:none" />
<path
 d="m 207.7276,428.54 c 46.71255,-15.79687 41.08237,-41.98401 98.33578,-70.42603 -5.0309,-25.08369 -33.95691,-21.31518 -51.05551,-46.11176 -2.45823,-3.56495 14.14357,-2.41038 20.67389,1.25842 19.56609,10.99242 46.52089,-15.70803 46.38141,-23.99969 -0.25452,-15.13025 -36.88905,-10.02804 -46.65107,-5.9325 -23.22678,9.74453 -34.96174,4.80755 -37.75231,1.9775 -4.36769,-4.42949 9.39094,-26.05396 21.03343,-24.71878 18.36292,2.10589 77.50104,-23.59403 71.6395,-30.56139 -1.8989,-2.25714 -19.91105,3.84091 -17.97729,-2.87637 7.57081,-26.29863 11.17778,-60.41308 18.6065,-80.53826 15.2961,-41.43872 47.52615,-60.98018 36.58379,-60.94302 -19.34106,0.06568 -29.48644,20.09172 -30.20185,8.988645 -0.98875,-27.175671 14.33963,-45.402952 7.2808,-42.156747 -30.7419,14.13755 -30.15823,65.189822 -32.80856,97.526802 -13.49957,-16.67355 -38.57027,-37.51615 -40.17924,-71.010298 -0.69145,-14.394011 1.31855,-23.947075 17.97729,-45.39266 3.88217,-4.997697 -14.38005,-9.190929 -19.68513,-5.57296 -15.73856,10.733411 -24.62889,47.5799 -23.99969,72.178828 C 232.89978,91.336958 202.9354,93.28194 193.88508,82.432208 174.70197,59.435051 169.90592,50.188289 179.8628,31.017155 c 2.7012,-5.200939 -4.20393,-11.794534 -11.41558,-7.370689 -26.77507,16.424643 -15.14958,57.815857 -8.98865,66.066544 -13.1705,0.02138 -39.73172,3.541229 -42.42641,2.876367 C 102.27254,71.325134 85.424441,45.23854 73.094485,28.035127 70.069092,23.813937 66.996014,22.476726 66.254084,28.887725 64.565896,43.475314 62.939355,77.566634 79.189967,97.173586 57.249591,103.4743 26.520213,105.82515 19.77502,119.46543 c 12.832352,2.83651 62.631648,6.97378 81.79667,0.89886 93.3485,-29.532559 126.0609,-3.12792 157.48107,13.93241 59.96934,32.56177 50.34577,118.17382 -39.19049,117.57148 -64.56136,-0.43433 -112.64886,-64.08104 -135.908321,-88.71794 -2.275866,-2.41064 -10.362785,3.71794 -6.741484,6.20217 7.889157,5.41199 3.718196,9.88904 0.449433,11.41558 -2.549676,1.19072 -1.785012,8.89002 0.898864,9.9774 10.437954,4.22896 11.047127,20.27106 -0.359546,30.4715 -3.207268,2.86811 -2.830225,10.608 0.449433,12.76388 6.499014,4.27212 18.288626,17.59734 -0.449433,30.29174 -1.942998,1.31632 -7.962976,-0.75309 -7.640348,7.64035 0.107202,2.78896 -0.109885,6.32032 -4.404437,9.34819 -4.406629,3.10689 -0.35767,8.9103 2.606707,6.38194 16.087178,-13.72101 31.379052,-25.17525 48.983062,-29.305 37.24431,-8.73721 79.94422,4.18998 84.76798,21.93431 0.60124,-0.62386 -4.71885,1.72317 -6.11227,7.2808 -26.29845,-1.64441 -118.336764,15.29825 -120.627628,20.40422 -4.221709,9.40952 -4.278825,33.15734 6.921257,29.93219 11.191991,-3.22282 12.379131,-9.39827 24.224401,-6.33699 3.36522,0.8697 6.87737,3.97341 5.52802,6.24711 -4.24076,7.14584 -22.772723,2.73389 -29.213102,2.78648 -7.872502,0.0643 -3.794511,16.41989 3.775231,14.11217 13.476951,-4.1086 25.238091,-5.59859 35.774811,-0.80898 17.85717,8.11722 43.09977,13.8958 58.78574,3.3258 L 207.7276,428.54 z"
 id="path2842"
 style="fill:#f2f2f2;stroke:none" />
<path
 d="m 86.917373,317.92373 c -0.665921,-0.66073 0.873281,-1.05931 1.159958,-0.82627 1.793219,1.4577 3.00778,6.99132 -2.8125,7.0233 -3.265199,0.0179 -3.599077,-4.81004 -3.495763,-6.61017 0.177984,-3.10118 2.32436,-6.19075 5.148306,-5.87924 2.138925,0.23595 3.37295,0.38853 5.752118,1.36653 0.515879,0.21206 -0.0076,1.45381 -0.381356,1.39831 -3.916865,-0.98212 -8.027751,-2.70919 -8.739407,3.5911 -0.250964,1.74017 0.658673,4.02965 1.716101,4.19491 3.194144,0.49921 3.489559,-2.43577 1.652543,-4.25847 z"
 id="path2866"
 style="fill:#d61a1a;fill-opacity:1;stroke:none" />
<path
 d="m 160.46405,310.67672 c 8.2845,-3.25588 12.02529,-10.61193 18.86766,-10.65924 6.33743,-0.0441 6.83932,3.54582 16.52678,3.30275 -8.6626,3.54835 -9.14985,10.98197 -15.46895,12.31558 -9.7004,2.04722 -6.24367,-4.67793 -19.92549,-4.95909 z"
 id="path3640"
 style="fill:#ececec;stroke:#d61a1a;stroke-width:1.5;stroke-linecap:round;stroke-linejoin:round;stroke-miterlimit:4;stroke-opacity:1;stroke-dasharray:none" />
<path
 d="m 183.62681,308.54159 a 6.3707153,6.1132352 0 1 1 -12.74143,0 6.3707153,6.1132352 0 1 1 12.74143,0 z"
 id="path3644"
 style="fill:#d61a1a;fill-opacity:1;stroke:none" />
</svg>
