<?xml version="1.0" encoding="utf-8"?>
<!-- Generator: Adobe Illustrator 16.0.0, SVG Export Plug-In . SVG Version: 6.00 Build 0)  -->
<!DOCTYPE svg [
	<!ENTITY ns_flows "http://ns.adobe.com/Flows/1.0/">
	<!ENTITY ns_extend "http://ns.adobe.com/Extensibility/1.0/">
	<!ENTITY ns_ai "http://ns.adobe.com/AdobeIllustrator/10.0/">
	<!ENTITY ns_graphs "http://ns.adobe.com/Graphs/1.0/">
]>
<svg version="1.2" baseProfile="tiny" id="Layer_1" xmlns:x="&ns_extend;" xmlns:i="&ns_ai;" xmlns:graph="&ns_graphs;"
	 xmlns="http://www.w3.org/2000/svg" xmlns:xlink="http://www.w3.org/1999/xlink" xmlns:a="http://ns.adobe.com/AdobeSVGViewerExtensions/3.0/"
	 x="0px" y="0px" width="109.689px" height="156.562px" viewBox="0 0 109.689 156.562" xml:space="preserve">
<g>
	<polygon fill="#FFDD00" stroke="#000000" stroke-width="0.6" stroke-linecap="round" points="60.007,0.3 60.007,3.237 
		56.603,3.237 56.603,0.3 52.929,0.3 52.929,3.237 49.526,3.237 49.526,0.3 45.858,0.3 46.336,6.568 63.198,6.568 63.675,0.3 	"/>
	<path fill="#FFDD00" stroke="#000000" stroke-width="0.6" stroke-linecap="round" d="M20.521,11.585l2.814,15.819
		c0,0-1.51,0.424-1.207,1.59c0.258,0.985,1.5,0.842,1.5,0.842l0.476,2.619c0,0-1.722,0.773-1.187,2.322
		c0.467,1.356,1.976,0.715,1.976,0.715c20.195-7.094,39.552-7.106,59.757-0.036l1.98-0.621c0.594-1.845-1.367-2.381-1.367-2.381
		l0.357-2.677c0,0,1.188,0.476,1.604-0.776c0.416-1.249-0.961-1.638-0.961-1.638l2.742-15.679l-9.49-2.632l-0.756,2.119
		C62.718,7.575,46.807,7.579,30.767,11.2L30.06,9.109L20.521,11.585z"/>
	<path fill="none" stroke="#000000" stroke-width="0.6" stroke-linecap="round" d="M77.902,13.502
		c-14.777-3.31-31.578-3.334-46.414,0.037"/>
	<path fill="none" stroke="#000000" stroke-width="0.6" stroke-linecap="round" d="M76.096,18.669
		c-13.725-2.796-29.027-2.813-42.802,0.032"/>
	<polyline fill="#FFDD00" stroke="#000000" stroke-width="0.6" stroke-linecap="round" points="47.257,22.299 48.661,6.598 
		60.863,6.61 62.279,22.18 	"/>
	<line fill="none" stroke="#000000" stroke-width="0.6" stroke-linecap="round" x1="36.193" y1="12.683" x2="37.023" y2="18.027"/>
	<line fill="none" stroke="#000000" stroke-width="0.6" stroke-linecap="round" x1="43.258" y1="11.639" x2="43.743" y2="16.917"/>
	<line fill="none" stroke="#000000" stroke-width="0.6" stroke-linecap="round" x1="40.349" y1="17.541" x2="41.042" y2="23.163"/>
	<line fill="none" stroke="#000000" stroke-width="0.6" stroke-linecap="round" x1="73.315" y1="12.683" x2="72.483" y2="18.027"/>
	<line fill="none" stroke="#000000" stroke-width="0.6" stroke-linecap="round" x1="66.251" y1="11.639" x2="65.765" y2="16.917"/>
	<line fill="none" stroke="#000000" stroke-width="0.6" stroke-linecap="round" x1="69.159" y1="17.541" x2="68.467" y2="23.163"/>
	<path fill="none" stroke="#000000" stroke-width="0.6" stroke-linecap="round" d="M51.31,21.965l0.19-8.263
		c-0.026-1.46,1.359-2.673,3.098-2.707l0,0c1.74-0.035,3.169,1.123,3.197,2.585l0.429,8.417"/>
	<g>
		<polygon fill="#FFDD00" stroke="#000000" stroke-width="0.6" stroke-linecap="round" points="27.964,3.09 28.711,5.929 
			25.777,6.708 25.025,3.869 21.858,4.712 22.606,7.546 19.67,8.328 18.919,5.49 15.753,6.331 17.768,12.281 32.319,8.417 
			31.129,2.248 		"/>
		<polygon fill="#FFDD00" stroke="#000000" stroke-width="0.6" stroke-linecap="round" points="81.454,3.09 80.705,5.929 
			83.643,6.708 84.394,3.869 87.561,4.712 86.809,7.546 89.75,8.328 90.5,5.49 93.663,6.331 91.652,12.281 77.099,8.417 
			78.291,2.248 		"/>
	</g>
	<line fill="none" stroke="#000000" stroke-width="0.6" stroke-linecap="round" x1="30.775" y1="11.241" x2="35.219" y2="24.108"/>
	<path fill="none" stroke="#000000" stroke-width="0.6" stroke-linecap="round" d="M86.251,27.386
		c-21.229-7.031-41.62-7.081-62.845-0.019"/>
	<path fill="none" stroke="#000000" stroke-width="0.6" stroke-linecap="round" d="M86.015,29.883
		c-21.188-7.031-41.199-7.062-62.385-0.002"/>
	<path fill="none" stroke="#000000" stroke-width="0.6" stroke-linecap="round" d="M85.25,32.476
		c-19.959-6.679-40.894-6.807-61.161,0"/>
	<g>
		<line fill="none" stroke="#000000" stroke-width="0.6" stroke-linecap="round" x1="78.759" y1="11.172" x2="74.263" y2="23.966"/>
	</g>
	<path fill="none" stroke="#000000" stroke-width="0.6" stroke-linecap="round" d="M26.455,26.296l-1.948-8.449
		c-0.397-1.481,0.477-3.003,1.955-3.403l0,0c1.479-0.398,2.997,0.478,3.397,1.959l2.516,8.477"/>
	<path fill="none" stroke="#000000" stroke-width="0.6" stroke-linecap="round" d="M83.083,26.296l1.949-8.449
		c0.398-1.481-0.477-3.003-1.955-3.403l0,0c-1.477-0.398-2.998,0.478-3.395,1.959l-2.519,8.477"/>
	<path fill="#E84427" stroke="#000000" stroke-width="0.6" stroke-linecap="round" d="M109.388,34.498H0.331L0.3,137.992
		c0,6.71,5.544,12.143,12.252,12.143c0,0,31.678,0,32.761,0c1.079,0,6.214,1.117,9.618,5.904c3.318-4.807,8.215-5.904,9.512-5.904
		c1.299,0,32.845,0,32.845,0c6.708,0,12.101-5.433,12.101-12.143V34.498z"/>
	<g>
		<path fill="#FFFFFF" stroke="#000000" stroke-width="0.6" stroke-linecap="round" d="M10.581,68.707c0,0-2.856,1.237-4.06,1.1
			c-1.204-0.141-2.107-0.805-2.335-1.012c-0.226-0.209-1.308-0.07-0.645,0.854c0.663,0.924,1.786,1.247,2.01,1.247
			c0.228,0,5.587-0.62,5.587-0.62L10.581,68.707z"/>
		<path fill="#FFFFFF" stroke="#000000" stroke-width="0.6" stroke-linecap="round" d="M6.417,67.103c0,0,0.541,1.954,1.133,2.266
			c0,0,0.348-1.846,0.278-2.037"/>
		<path fill="#FFFFFF" stroke="#000000" stroke-width="0.6" stroke-linecap="round" d="M46.857,69.68
			c0.597-0.119,2.5-0.834,2.856-0.955c0.357-0.12,7.855,2.143,8.45,2.143c0.596,0,17.318-3.29,20.088-3.29
			c2.774,0,5.546-0.353,6.352-0.102c0.807,0.253,7.258,4.233,10.432,7.005c3.176,2.772,7.258,7.709,7.408,8.067
			c0.15,0.351,1.059,7.406,0.955,7.709c-0.1,0.301-1.711,3.224-2.113,3.277c-0.402,0.051-1.31-0.054-1.31-0.054
			s0.048,5.343,0.856,6.654c0.805,1.31,4.636,7.456,4.737,7.659c0.1,0.203-1.11,0.605-1.261,0.809
			c-0.152,0.198,0.906,2.417,1.01,4.031c0.098,1.611,0.351,3.476,0.199,3.679c-0.152,0.2-1.611,0-1.611,0s-0.065,5.965-0.306,6.35
			c-0.25,0.401-1.358,0.757-2.113,0.907c-0.758,0.15-6.102-0.102-6.251-0.053c-0.149,0.053-3.073,3.226-3.227,3.124
			c-0.148-0.098,0.102-2.721,0-2.972c-0.1-0.25-3.326,3.073-3.576,2.972c-0.253-0.098,0.199-2.769,0-2.972
			c-0.203-0.201-2.822,2.62-3.023,2.519c-0.201-0.099,0.1-2.519-0.254-2.769c-0.352-0.254-1.26-0.307-1.26-0.604
			c0-0.305,0.643-3.586,3.668-6.006c0,0,2.062,1.161,3.928,0.658c1.863-0.506,3.392-1.762,3.342-2.117
			c-0.051-0.349-2.721-5.442-3.882-6.899c-1.157-1.464-3.276-2.873-3.276-2.873s-1.512,2.518-1.562,3.122
			c-0.048,0.607,0.304,3.731,0.201,3.935c-0.101,0.201-1.864,0-1.964,0.147c-0.102,0.152-0.15,3.633-0.907,4.639
			c0,0-1.108-0.152-1.61-0.554c-0.506-0.404-2.876,6.098-3.38,6.5c-0.505,0.404-3.173,0.607-3.88,0.554
			c-0.707-0.048-3.275-0.655-3.477-0.452c-0.205,0.201-3.432,3.122-3.432,2.921s0.08-3.031,0.08-3.031s-3.201,3.334-3.354,3.135
			c-0.149-0.207,0.102-2.62-0.099-2.722c-0.202-0.102-2.472,2.772-2.571,2.468c-0.102-0.302,0.201-2.722,0-2.921
			c-0.201-0.205-1.209-0.1-1.261-0.455c-0.05-0.353,2.118-5.798,3.327-6.301c1.208-0.503,4.789,1.767,7.006,0.706
			c2.217-1.057,2.467-7.106,2.467-7.106h-1.66l0.052-6.248c0,0-7.271-2.509-8.117-2.372c-0.3,0.051,0.604,5.999,0.604,5.999
			s-1.915-1.005-2.418-0.201c-0.505,0.804-0.049,1.462,0.251,2.069c0.303,0.601,1.865,3.073,1.815,3.325
			c-0.049,0.251-1.716,0.603-1.967,0.505c-0.25-0.104-0.271,4.396-0.905,5.141c-0.304,0.351-1.665-0.254-1.915-0.152
			c-0.253,0.102-1.211,4.938-1.966,5.241c0,0-3.83,0.757-6.704,0c0,0-3.88,3.071-4.031,2.972c-0.152-0.1,0.303-2.972,0.05-3.073
			c-0.25-0.102-3.073,3.073-3.276,2.872c-0.201-0.203,0.203-2.62-0.049-2.722c-0.251-0.098-2.672,2.62-2.824,2.369
			c-0.149-0.25,0-2.721-0.149-2.822c-0.153-0.1-1.11-0.201-1.11-0.455c0-0.249,2.27-5.488,3.627-5.996
			c1.363-0.503,6.504,2.066,7.51,0.305c1.009-1.767-0.25-3.479-0.25-3.479l-3.376-7.661c0,0-3.325,5.04-3.578,5.094
			c-0.25,0.051-1.161-0.91-1.359-0.91c-0.204,0-2.977,7.257-3.177,7.257c-0.202,0-1.762-1.156-2.017-1.207
			c-0.25-0.051-3.261,5.634-5.24,7.608c-0.605,0.606-6.148-0.4-6.399-0.301c-0.253,0.102-3.226,2.87-3.379,2.718
			c-0.149-0.149,0-2.671-0.25-2.771c-0.253-0.1-3.126,3.325-3.275,3.124c-0.153-0.201-0.153-2.771-0.153-2.771l-2.571,2.371
			l0.051-3.025c0,0-1.21,0.254-1.359,0c-0.15-0.251,1.813-5.091,3.526-6.502c0.8-0.657,4.472,1.303,6.374,0.409
			c2.145-1.005,4.31-6.153,4.663-6.862c0.354-0.702,3.074-8.468,3.074-8.468l-2.795-0.144c0,0,2.974-5.891,1.667-6.784
			c-1.312-0.892-3.215,1.19-3.215,1.19L26.98,91.34c0,0-1.368,0.953-1.667,0.834s-1.368-3.809-1.068-4.583
			c0,0-2.561,0.475-2.74,0.177c-0.179-0.296,1.011-2.436,0.654-3.868c-0.358-1.425-4.523-6.782-4.523-6.782
			s-2.261,1.547-2.676,1.248v-2.199c0,0-2.736,0.118-3.512-0.595c0,0,1.547-1.25,1.489-1.489c0,0-5-0.417-6.368-1.31
			c-1.24-0.806-1.072-1.904-1.072-1.904s5.236-0.356,5.473-0.714c0.242-0.356-0.416-2.141-1.068-2.558
			c-0.656-0.418-4.404-0.359-4.823-1.132c-0.416-0.773-0.535-2.141-0.535-2.141s-0.772-0.539-0.717-1.312
			c0.063-0.772,2.444-1.306,3.336-1.427c0.891-0.119,4.148-0.22,4.76-0.476c1.429-0.595,2.678-1.726,3.335-1.726
			c0.894,0,8.031,1.666,8.688,2.083c0.654,0.418,0.892,1.904,2.26,2.379c1.368,0.479,5,1.133,7.144,1.728
			C35.49,66.167,46.857,69.68,46.857,69.68z"/>
		
			<line fill="#FFFFFF" stroke="#000000" stroke-width="0.6" stroke-linecap="round" x1="31.383" y1="101.542" x2="34.24" y2="101.456"/>
		<path fill="#FFFFFF" stroke="#000000" stroke-width="0.6" stroke-linecap="round" d="M42.634,100.03c0,0,3.175,4.239,3.818,5.747"
			/>
		<path fill="#FFFFFF" stroke="#000000" stroke-width="0.6" stroke-linecap="round" d="M62.509,94.38c0,0,0.953,6.602,0.953,7.377"
			/>
		<path fill="#FFFFFF" stroke="#000000" stroke-width="0.6" stroke-linecap="round" d="M71.653,103.914c0,0,4.427,1.648,5.2,2.184
			c0,0,0.653-2.022,0.474-2.318c-0.179-0.299,3.63,2.439,3.929,2.976c0.296,0.537,1.726-2.499,1.726-2.499"/>
		<path fill="#FFFFFF" stroke="#000000" stroke-width="0.6" stroke-linecap="round" d="M87.675,105.578c0,0-6.897-5.016-7.728-5.548
			"/>
		<path fill="#FFFFFF" stroke="#000000" stroke-width="0.6" stroke-linecap="round" d="M99.978,93.57c0,0-0.066-2.392,0.381-4.672"
			/>
		<path fill="#FFFFFF" stroke="#000000" stroke-width="0.6" stroke-linecap="round" d="M22.937,63.945c0,0,2.523,0.416,2.133,2.245
			c-0.385,1.831-2.467,1.859-2.467,1.859"/>
		<path fill="#FFFFFF" stroke="#000000" stroke-width="0.6" stroke-linecap="round" d="M14.375,62.229c0,0-0.444,0.749-0.139,1.716"
			/>
		<path fill="#FFFFFF" stroke="#000000" stroke-width="0.6" stroke-linecap="round" d="M13.984,63.172c0,0-0.718-0.25-1.385-0.002"
			/>
		<path fill="#FFFFFF" stroke="#000000" stroke-width="0.6" stroke-linecap="round" d="M5.963,70.641c0,0-0.137-1.986-0.019-2.231
			c0.124-0.242,1.708,2.197,1.708,2.197"/>
		<path fill="none" stroke="#000000" stroke-width="0.6" stroke-linecap="round" d="M4.539,64.29c0,0,0.914-0.222,1.289-0.361"/>
	</g>
</g>
</svg>
