<?xml version="1.0" encoding="UTF-8" standalone="no"?>
<!-- Created with Inkscape (http://www.inkscape.org/) -->

<svg
 xmlns:dc="http://purl.org/dc/elements/1.1/"
 xmlns:cc="http://creativecommons.org/ns#"
 xmlns:rdf="http://www.w3.org/1999/02/22-rdf-syntax-ns#"
 xmlns:svg="http://www.w3.org/2000/svg"
 xmlns="http://www.w3.org/2000/svg"
 version="1.1"
 width="390"
 height="480"
 id="svg4228">
<metadata
 id="metadata9">
<rdf:RDF>
<cc:Work
 rdf:about="">
<dc:format>image/svg+xml</dc:format>
<dc:type
 rdf:resource="http://purl.org/dc/dcmitype/StillImage" />
<dc:title></dc:title>
</cc:Work>
</rdf:RDF>
</metadata>
<defs
 id="defs4232" />
<path
 d="m 0.51202379,0.50512952 c 129.66265621,0 259.32532621,0 388.98797621,0 C 389.48983,115.23328 370.33544,349.8309 194.89467,479.37706 21.249382,349.77255 0.5931986,115.2575 0.51202379,0.50512952 z"
 id="path4240-0"
 style="fill:#faf700;fill-opacity:1;stroke:#9e832a;stroke-width:0.99999905;stroke-opacity:1" />
<path
 d="m 132.01563,147.99258 c -1.02939,-48.92289 51.36019,-63.937782 44.43112,-105.647092 -1.05778,-6.367829 -32.49021,-7.754954 -43.97137,-8.130682 -2.02104,-0.06514 -4.47709,-1.909685 -4.89011,-3.663546 l -9.61006,0.561798 c 13.04968,-11.478168 33.75943,-3.22766 51.17032,-7.613135 9.32477,-9.587388 17.61688,-11.321353 24.84072,-11.109197 22.09333,0.64909 23.0042,13.414128 31.06401,22.768406 -1.97069,0.690891 -3.73177,0.230361 -5.47148,-0.35284 0.69506,5.215964 1.03473,10.463888 0.44172,15.796768 -2.40665,0.09974 -4.21197,-0.930709 -5.47148,-2.29453 -0.0972,4.076925 -0.46613,11.565924 -2.47141,16.414493 -1.83827,-1.599639 -2.88709,-3.792002 -3.79456,-6.089133 -1.06323,5.27376 -2.08249,10.62297 -4.05939,14.29674 -1.96415,-1.10461 -3.49242,-3.043933 -4.85387,-4.853849 -13.26738,17.148355 -21.07085,33.708719 -21.00349,49.508189 0.102,23.93175 26.0109,19.83946 44.74221,40.85971 1.31382,1.47356 3.63925,1.34865 4.58905,0.52966 40.65705,-35.04151 96.73927,-82.971834 120.4615,-86.485325 16.30599,-2.414995 21.35711,22.679931 20.47484,35.741975 -4.05275,59.99927 -34.94752,139.67015 -51.53885,205.44583 -6.46811,-25.24855 12.0533,-86.34088 8.29566,-89.48543 -3.44206,-2.88116 -12.70782,34.82959 -19.06173,52.24439 -5.91344,-19.10216 8.85588,-66.79624 7.06037,-68.48294 -4.84067,-4.54456 -9.97453,28.63609 -15.17915,45.89047 -8.21164,-19.00486 5.84034,-56.67067 0,-62.30491 -1.71499,-1.65314 -22.66972,55.50064 -40.59588,79.95556 -3.70912,-0.84971 -6.15082,-3.17839 -8.47155,-5.64837 -10.32949,29.94284 20.00313,57.89176 50.65541,78.89525 -6.23599,-0.99038 -12.47209,-1.76767 -18.70897,-3.8825 4.71345,4.55633 8.14698,9.75261 11.47262,15.00234 l -19.41462,-8.11877 c 5.14792,6.02789 10.52178,11.91698 12.70794,19.76828 L 223.903,332.56267 c -9.52517,6.25181 -12.78317,15.02863 -11.6485,22.2387 -17.57586,-14.61113 -8.94364,19.47309 -0.17723,24.18144 -20.46319,1.841 -6.69601,20.2948 1.41209,27.18051 -8.60769,-0.31443 -15.83318,7.54976 -16.23855,13.76715 -1.89583,-7.18126 -8.82961,-16.79978 -20.12106,-6.70669 -4.54849,-13.77461 -9.49264,-13.78086 -16.41444,-11.82539 50.52684,-31.82172 33.04227,-84.59848 30.35847,-88.25123 -6.76482,9.52192 -20.15382,5.32019 -21.71003,18.18031 -7.96595,-17.42522 -21.93496,11.04664 -14.82546,24.7101 -16.41753,-0.9681 -21.36566,12.26734 -18.70897,30.18158 -2.48169,-4.09523 -9.83002,-7.19556 -16.23855,-4.58904 2.46933,-11.39072 -4.30611,-17.90805 -12.17817,-17.47376 3.20979,-6.2458 1.05756,-13.10278 -6.35391,-16.06167 36.60885,1.84178 55.88614,-26.79492 67.06985,-53.83237 -12.50158,-19.24838 -16.3431,-26.78843 -21.35626,-34.94752 -1.84789,-3.00623 -3.60697,2.56926 -4.76593,12.88471 -14.73553,-16.02906 -33.91879,-49.5348 -45.183954,-73.77753 -0.210167,25.24795 5.135964,64.20618 -1.235217,75.36651 -7.046547,-20.91163 -10.482294,-70.04175 -15.003278,-56.12789 -1.541613,4.74744 12.88397,57.39556 4.765865,73.95442 C 74.755958,265.36713 71.62759,229.11446 68.052751,239.19374 65.30675,246.93516 82.05491,291.08536 71.582597,314.38337 39.083384,226.00469 35.374869,161.49932 27.810534,85.285698 26.844969,75.557487 38.055399,74.194535 43.518941,75.225154 64.065428,79.099539 107.04652,138.5043 132.01529,147.99258 z"
 id="path2827"
 style="fill:#000000;stroke:none" />
<path
 d="m 197.47037,25.505324 a 7.6740043,3.9302966 5.6844119 0 1 -15.26291,-1.607285 7.6740043,3.9302966 5.6844119 1 1 15.26291,1.607285 z"
 id="path2831"
 style="fill:#faf700;fill-opacity:1;stroke:none" />
</svg>
