<?xml version="1.0" encoding="UTF-8" standalone="no"?>
<!-- Created with Inkscape (http://www.inkscape.org/) -->

<svg
 xmlns:dc="http://purl.org/dc/elements/1.1/"
 xmlns:cc="http://creativecommons.org/ns#"
 xmlns:rdf="http://www.w3.org/1999/02/22-rdf-syntax-ns#"
 xmlns:svg="http://www.w3.org/2000/svg"
 xmlns="http://www.w3.org/2000/svg"
 version="1.1"
 width="390"
 height="480"
 id="svg4228">
<metadata
 id="metadata21">
<rdf:RDF>
<cc:Work
 rdf:about="">
<dc:format>image/svg+xml</dc:format>
<dc:type
 rdf:resource="http://purl.org/dc/dcmitype/StillImage" />
<dc:title></dc:title>
</cc:Work>
</rdf:RDF>
</metadata>
<defs
 id="defs4232" />
<path
 d="M 0.00351796,0.00350638 390.01124,-0.03065059 C 389.99631,270.00335 389.99205,273.98676 389.99209,273.99895 390.99231,548.63218 0.01014203,548.63782 0.0068261,273.99819 L 0.00351796,0.00350638 z"
 id="path2902"
 style="fill:#d61a1a;fill-opacity:1;stroke:none" />
<path
 d="m 364.44915,336.48306 c -38.77119,2.37287 -163.51871,-80.18531 -178.91949,-90.25424 -0.83215,-0.54406 -29.13127,-47.03396 -43.41102,-69.91526 -0.58626,-0.9394 5.97524,-8.48058 9.27967,-12.58475 0.53801,-0.66822 7.76483,2.3411 11.56779,3.55932 0.82638,0.26472 0.93929,-1.45645 0.22276,-1.66601 -4.1467,-1.21277 -11.93272,-4.44356 -12.4268,-3.68534 -3.20228,4.91424 -11.23702,12.99395 -10.35942,14.38183 14.94239,23.63052 43.14916,70.11603 44.58369,71.05524 31.75049,20.7875 64.98197,41.23571 111.63897,67.10025 5.7656,10.01658 13.20693,19.81102 24.35923,29.52769 -4.39446,0.0661 -10.58136,-3.16885 -15.64024,-7.32574 7.87697,10.63646 15.39479,21.33038 26.15696,31.5052 -4.43512,-0.71575 -9.62846,-3.04244 -13.75263,-7.01114 0,0 12.08051,21.01094 13.84251,24.71877 1.762,3.70783 -11.89462,8.6598 -13.48296,4.94376 l -3.14603,-7.9999 c -0.197,-0.50094 -1.33723,0.0579 -1.16852,0.53932 l 3.97121,11.33133 c 2.32083,5.02471 -12.73295,14.34032 -15.54025,7.05508 l -4.19492,-12.52118 c -0.22119,-0.66021 -1.24535,-0.15919 -1.01695,0.57203 l 4.23347,13.55356 c 0.51192,1.63892 -11.32915,9.27614 -13.96576,4.19172 -6.01691,-11.60298 -12.44018,-23.86434 -14.61093,-36.87663 0.32642,5.20012 0.87334,14.66074 -4.44915,20.08474 0.64659,-15.35997 -2.23482,-29.45917 -5.33898,-40.86864 0.25842,4.19111 1.12542,14.06873 -2.5828,17.22722 -1.9766,-24.26496 -9.89588,-43.58645 -15.49306,-55.95853 -3.32319,-7.34564 -17.55901,-0.3078 -14.08516,2.31182 l 7.75424,5.84745 c 1.90543,1.43688 -2.28783,6.22991 -4.95763,3.49577 l -5.27542,-5.40255 c -0.50698,-0.5192 -1.44356,0.54725 -0.95339,1.08051 l 5.78389,6.29238 c 0.79795,3.82584 -5.19034,9.48084 -11.37711,7.75423 l -7.43644,36.03814 c 4.85284,-1.39665 7.76536,4.52543 8.5805,0.57203 1.73003,-8.3905 9.85061,-3.85964 10.86865,-5.97458 1.76259,-3.66172 3.95162,-11.47533 11.12288,-8.13559 5.70338,2.65613 -0.7839,6.24104 -1.08051,10.23305 -0.22287,2.99959 6.82954,4.03748 3.11441,8.00848 -2.70276,2.8889 -7.90119,3.80348 -10.42372,0.76271 -1.80736,-2.17867 -4.27657,-1.45676 -5.27543,0.69915 -2.20951,4.76896 -9.97882,5.91992 -17.09746,2.79661 -1.65761,6.07067 -0.59593,17.45017 -9.2161,17.92373 -1.60088,0.0879 -4.14553,1.42159 -2.41526,3.11441 6.9333,8.22435 -9.26405,23.15883 -14.11017,12.26695 -3.28905,-7.3923 -7.05608,-1.37371 -6.73728,-6.22882 0.5725,-8.71875 9.32284,-4.70099 9.66101,-7.43643 0.41391,-3.34814 1.95164,-6.29537 5.84746,-6.03814 2.6141,0.1726 3.68728,-2.37105 5.4661,-3.94068 1.39869,-1.23421 -1.42916,-4.89132 -3.55932,-2.98729 -4.5065,4.02811 -5.18891,2.10985 -7.56356,4.51271 -8.21065,8.30818 -15.16194,0.16153 -14.6822,3.30509 2.05102,13.43949 -18.81979,12.35437 -17.22458,3.55932 1.59812,-8.81107 -8.23253,-8.51095 -1.08051,-13.85593 9.00969,-6.7333 15.21464,4.66713 17.54237,2.54237 2.84708,-2.59882 4.28157,-6.60491 12.39407,-3.36864 6.77918,2.70438 27.44397,-31.30698 25.71971,-53.26856 -4.09887,5.38356 -10.1327,8.38463 -14.88767,7.67571 10.98851,-7.33102 14.31189,-20.93738 3.3822,-30.86642 0.6695,7.9585 -1.71861,19.87137 -11.59535,19.77502 6.41879,-5.64854 7.32583,-18.77758 2.98167,-27.22017 -4.76998,-9.27014 -18.82827,-11.0461 -17.90282,2.5014 0.168,2.45935 1.74296,7.4011 12.39717,8.22406 -3.48034,5.83356 -12.99928,6.46998 -15.00388,0.22526 -0.42181,-1.31402 -1.02359,2.97898 -6.47183,4.49433 -18.44786,5.131 -41.86449,27.01551 -39.37027,27.68503 7.66563,2.05766 4.31399,3.99169 6.0224,2.24716 4.58213,-4.67902 5.60956,-4.69844 12.05382,-1.2539 4.51904,2.41549 1.03224,-6.28399 11.90115,-10.317 7.38986,-2.74208 3.27413,5.18903 5.05634,8.55378 1.41211,2.66599 7.38189,2.87096 4.51634,6.16314 -2.4487,2.81327 -6.21655,7.05602 -13.43483,3.00536 -1.57729,-0.88513 -4.22503,-1.5915 -5.71099,1.21931 -2.13617,4.04071 -8.25507,4.7035 -12.83647,0.0891 -1.75041,-1.76301 -8.28722,-5.57568 -9.09582,-1.96715 -1.63029,7.27546 -8.18093,5.81248 -7.37069,7.63077 2.16425,4.85688 -1.47827,12.39522 -9.48302,9.07853 -1.44215,-0.59754 -3.43579,1.79671 -2.60671,2.78649 9.91485,11.83656 -9.796762,13.08592 -11.226315,9.33112 -2.921582,-7.67372 -8.04428,-3.63771 -8.503763,-5.64578 -3.11326,-13.60583 11.780828,-6.20101 12.134672,-8.44933 1.282386,-8.14827 7.740546,-4.98626 8.269556,-7.14598 1.25548,-5.12554 2.99637,-5.89048 7.73023,-5.70778 1.95496,0.0754 2.31023,-3.71549 0.3146,-3.82018 -7.0934,-0.37212 -9.87835,-1.87876 -11.46052,0.045 -1.90249,2.31317 -8.228986,5.91331 -11.59535,-2.6966 -0.548489,-1.40283 -3.493266,-0.56859 -4.31455,1.3483 -3.392156,7.91734 -15.234362,3.78775 -11.235807,-3.50557 1.377698,-2.5129 5.141242,-6.46773 2.516821,-8.6291 -7.241535,-5.96385 11.859062,-12.84772 12.224558,3.3258 0.03784,1.67451 10.793558,-4.27207 13.932398,4.67409 0.71971,2.05127 33.24228,-20.89234 49.16789,-35.59504 5.28596,-4.88005 0.68766,-17.16757 0.26966,-26.69627 0.60743,12.54781 -2.50436,19.94559 -8.6291,21.2132 3.62968,-12.35985 5.18183,-15.85843 -10.6066,-44.85334 4.66218,10.24138 1.55529,21.25244 -4.85387,24.89855 3.8018,-28.947 -5.84625,-21.43881 -11.41557,-43.50505 C 116.38709,224.1428 96.741345,218.4333 96.717826,205.75647 l -0.08989,-48.44879 c -0.01453,-7.83133 17.566434,-21.7552 17.977294,-30.20185 0.20833,-4.28294 0.97095,-9.40971 4.22466,-14.6515 3.86689,-6.22963 -63.238381,-16.999763 -66.066545,-36.67367 -0.05273,-0.366841 47.503885,11.180997 70.381095,19.505361 2.85713,1.039627 4.22814,-2.199743 3.41569,-4.853919 C 124.67717,84.280676 119.60975,77.653663 107.88104,71.796633 103.9333,69.825225 99.002978,72.69338 93.481914,68.949239 85.539172,63.562823 71.306676,55.724282 54.111646,57.713432 c 2.505876,-8.916549 19.034036,-10.219889 32.764936,-9.47531 0.532241,-0.878339 1.923722,-1.642701 3.189646,-1.400951 10.318732,1.970538 27.699602,8.57524 29.033322,7.28532 1.82311,-1.76324 2.99798,-2.421573 5.75725,-3.225007 3.84228,-1.118779 12.67286,0.122194 11.54339,3.405433 -3.38686,9.845135 7.86533,6.001138 9.87801,12.949233 0.20925,-6.081015 -12.43986,-5.229006 -9.27967,-10.423729 50.16299,-0.356335 61.48483,100.545919 54.24056,100.184909 -3.19303,-0.15912 -5.95929,2.59972 -4.5018,2.99726 48.99754,13.36437 88.66637,105.54681 177.71186,176.47247 z"
 id="path2849"
 style="fill:#faf700;fill-opacity:1;stroke:none" />
<path
 d="m 121.46186,82.913134 c 1.1206,0.2791 5.03375,7.740921 4.29026,7.56356 C 112.4973,87.314737 101.2606,83.29449 90.06356,78.749999 85.780658,77.011717 83.149009,68.162328 85.010593,68.993642 c 10.714078,4.784512 18.880097,9.543163 36.451267,13.919492 z"
 id="path3667"
 style="fill:#faf700;fill-opacity:1;stroke:none" />
<path
 d="m 198.78178,371.31356 c -1.39831,1.91737 -2.76803,3.69482 -4.44915,5.27542 -7.01271,0.72034 -7.52526,-3.92245 -9.88348,-2.60593 -13.54731,7.56304 -9.81156,-6.80495 -11.98093,-4.38559 -4.1849,4.66715 -10.04323,6.21485 -12.61652,-5.4661 -0.62323,-2.82905 -9.83064,-1.09557 -11.94916,0.12711 0.76241,-5.27332 14.71548,-8.43619 14.61865,-6.61017 -0.0509,0.95945 -1.72761,4.92654 -0.38136,5.14831 0,0 6.44011,-12.63421 13.6017,-7.1822 4.02249,3.06226 -1.62564,9.15668 0.69915,10.67796 6.16449,4.03389 9.29366,0.5929 13.31568,2.95551 3.25297,1.91086 5.3072,1.51483 9.02542,2.06568 z"
 id="path3669"
 style="fill:#faf700;fill-opacity:1;stroke:none" />
<path
 d="m 111.26059,336.89619 c 0.56594,-0.11563 5.83233,-3.7562 5.62501,-3.79767 -1.90678,-1.52543 -5.72899,-5.87724 -5.05298,-6.49895 3.25111,-2.98993 2.15266,-8.48732 -2.38346,-8.19914 -2.15322,0.13881 -4.55509,-4.86727 -3.05085,-5.68857 10.02304,-5.47248 -2.26583,-17.48287 -7.595343,-12.52118 -1.622962,1.51095 -2.961625,5.37162 -7.59534,5.625 -6.356203,0.34757 -1.071501,19.55873 7.944916,10.36017 1.113877,-1.13637 3.128917,2.86149 1.938557,4.00423 -4.531384,4.35011 -0.38093,11.57994 5.13443,9.25851 3.01831,-1.27042 3.93137,4.46454 5.03506,7.4576 z"
 id="path3671"
 style="fill:#faf700;fill-opacity:1;stroke:none" />
<path
 d="m 280.69676,250.20288 27.36481,31.66042 c 26.19463,-2.87498 53.46986,-10.09873 71.89606,-22.92262 -46.47556,0.48633 -59.49008,-7.43293 -99.26087,-8.7378 z"
 id="path3673"
 style="fill:#faf700;fill-opacity:1;stroke:none" />
<path
 d="m 248.01215,360.92358 c -2.98061,-0.1548 -4.92353,6.45828 -1.52807,6.42688 4.84905,-0.0454 7.35111,-0.45267 10.56166,5.25835 2.20804,-7.06092 -2.95296,-11.36942 -9.03359,-11.68523 z"
 id="path3675"
 style="fill:#faf700;fill-opacity:1;stroke:none" />
<path
 d="m 183.56996,407.67864 c 1.66592,-0.24497 3.94358,2.4475 3.82017,3.61793 -0.0451,0.42812 -8.80238,3.18975 -6.62913,13.84251 -7.87348,-7.06264 -1.13803,-16.88003 2.80896,-17.46044 z"
 id="path3677"
 style="fill:#faf700;fill-opacity:1;stroke:none" />
<path
 d="m 155.96071,388.29269 c 1.26057,-0.50214 4.78899,6.31791 1.21347,5.84262 -8.67649,-1.15335 -11.92017,6.86856 -12.53916,13.21331 -6.51351,-19.24097 5.77143,-16.84343 11.32569,-19.05593 z"
 id="path3679"
 style="fill:#faf700;fill-opacity:1;stroke:none" />
<path
 d="m 163.35454,334.99772 c -1.82668,1.21966 1.73215,6.78063 2.92131,5.88757 4.33989,-3.25928 11.97878,-6.11117 17.5728,-0.22472 -1.97922,-10.28378 -14.56969,-9.61852 -20.49411,-5.66285 z"
 id="path3681"
 style="fill:#faf700;fill-opacity:1;stroke:none" />
<path
 d="m 89.113774,372.49034 c 3.018259,-0.4662 6.339815,3.68596 4.251264,4.48641 -5.046213,1.93401 -7.986153,9.78098 -4.954021,16.90036 -10.547925,-5.75817 -6.227675,-20.31629 0.702757,-21.38677 z"
 id="path3683"
 style="fill:#faf700;fill-opacity:1;stroke:none" />
<path
 d="m 76.398305,338.45339 c 1.219615,0.557 3.414359,-4.04366 2.288136,-5.24364 -5.551834,-5.91542 -19.899169,0.29646 -18.336864,10.99576 2.330508,-2.93432 8.884675,-9.02394 16.048728,-5.75212 z"
 id="path3685"
 style="fill:#faf700;fill-opacity:1;stroke:none" />
<path
 d="m 90.349577,304.0678 c 2.135665,2.2109 7.166177,-2.15243 6.612983,-3.42828 -5.065286,-11.6822 -22.731731,-3.71717 -25.204085,3.61895 4.030302,-2.4236 14.211116,-4.72495 18.591102,-0.19067 z"
 id="path3687"
 style="fill:#faf700;fill-opacity:1;stroke:none" />
<path
 d="m 152.24518,76.140155 c -5.63038,2.063369 -8.51624,-3.50206 -10.0891,-5.545036 -2.08695,-2.710731 -5.1689,-1.02457 -6.05389,0.502086 -0.88499,1.526656 -0.60927,3.479033 -2.03067,4.731147 -2.70362,2.381636 -2.84408,7.066283 -1.84854,9.030789 3.39966,6.708549 12.66303,5.795394 13.82004,0.157302 1.62708,-7.928728 -8.44384,-9.915747 -9.34076,-10.581872 -2.10631,-1.564315 2.09472,-7.168214 5.09615,-2.812145 1.03678,1.504711 5.97818,8.163472 10.44677,4.517729 z"
 id="path3744"
 style="fill:#d61a1a;fill-opacity:1;stroke:none" />
<path
 d="m 132.64994,82.050189 c 2.55923,-1.746553 10.75849,0.370758 11.50546,4.494324 2.22495,-3.690058 0.43611,-7.47396 -3.16387,-9.203458 -3.45523,-1.659954 -9.06048,-1.030848 -8.34159,4.709134 z"
 id="path3746"
 style="fill:#faf700;fill-opacity:1;stroke:none" />
</svg>
