<?xml version="1.0" encoding="UTF-8" standalone="no"?>
<!-- Created with Inkscape (http://www.inkscape.org/) -->

<svg
 xmlns:dc="http://purl.org/dc/elements/1.1/"
 xmlns:cc="http://creativecommons.org/ns#"
 xmlns:rdf="http://www.w3.org/1999/02/22-rdf-syntax-ns#"
 xmlns:svg="http://www.w3.org/2000/svg"
 xmlns="http://www.w3.org/2000/svg"
 version="1.1"
 width="424"
 height="480"
 id="svg4674">
<metadata
 id="metadata18">
<rdf:RDF>
<cc:Work
 rdf:about="">
<dc:format>image/svg+xml</dc:format>
<dc:type
 rdf:resource="http://purl.org/dc/dcmitype/StillImage" />
<dc:title></dc:title>
</cc:Work>
</rdf:RDF>
</metadata>
<defs
 id="defs4678" />
<path
 d="M 211.79496,480.02247 C 423.99769,334.78767 430.23073,90.19672 421.02816,0.00632765 l -418.0169637,0 C -6.191126,82.887367 -0.18699045,334.80466 211.79496,480.02247 z"
 id="path4686"
 style="fill:#d61a1a;fill-opacity:1;stroke:none" />
<path
 d="m 211.01695,120.03178 18.97246,-0.0636 0,42.04449 -14.04661,-0.0318 0.0318,66.00636 25.01059,-0.0636 -0.0318,-128.898307 -40.9322,0 0.0636,-55.233051 29.87288,0.06356 0.0636,32.224576 17.09745,0 0.0636,-32.033898 41.75848,-0.06356 0.0636,32.224576 16.7161,-0.254237 0.3178,-31.970339 30,0.127118 -0.0636,54.915255 -41.12288,0.127118 0.0636,128.834749 25.16949,0 -0.12712,-66.03814 -13.91949,0.0636 0,-42.07627 19.00423,0.12712 0,26.88559 10.99577,0 -0.12712,-27.01271 20.27542,0.0636 -0.0636,42.07627 -13.98305,0 -0.0636,168.87712 -148.09322,0.0636 0,-168.94068 -13.91949,0.0636 -0.0636,-42.26695 19.00424,0.0636 -0.0636,26.88559 12.13983,0.19068 -0.0636,-26.98093 z"
 id="path5198"
 style="fill:#faf700;fill-opacity:1;stroke:none" />
<path
 d="m 142.46822,113.64407 c -2.04963,2.72186 -4.51271,5.72034 -7.24576,9.15254 L 37.690678,121.97034 C 35.2875,121.74988 39.033909,102.72594 37.372881,99.2161 34.586472,93.328272 22.563559,92.37288 18.432203,96.800846 c 4.4857,0.169093 8.535453,3.818254 8.51695,8.008474 -5.697225,-0.49129 -10.63264,2.22352 -10.741526,6.48305 2.622923,-1.97511 10.721852,-3.35111 10.105932,5.4661 -3.897292,-0.29797 -7.706416,1.77346 -8.961864,6.35594 8.220878,-4.47984 6.558003,4.45167 10.741525,4.8305 9.185768,0.83179 2.526124,6.00955 0.190678,6.35594 0.02816,5.39429 6.976554,6.28478 10.805085,2.22457 1.706218,-1.80947 10.974576,6.69492 17.478814,5.27543 3.09322,0.42372 1.494563,4.22536 15.572034,5.4661 6.646774,1.54698 11.981839,7.50882 24.443165,7.65868 l 13.415284,-1.28154 c 0.30177,-0.0288 0.30117,0.33115 0.12852,0.34817 l -12.848313,1.26659 c 0.533459,6.90544 1.616369,18.62635 8.357103,25.7581 6.56993,6.95104 9.94313,16.62114 13.85593,25.80509 -4.38532,9.4545 -5.12741,19.2786 -5.30966,34.06329 -0.36841,29.8855 9.40793,45.56329 21.96221,54.85619 1.03729,0.76782 4.36441,16.80085 3.30508,24.91526 -16.41638,-10.89231 -33.55026,-5.93931 -31.27118,11.88559 l 7.56356,-6.35593 2.98728,8.70763 5.46611,-7.56356 3.49576,7.37288 c 1.522,-1.74126 2.43022,-4.95564 4.70339,-4.89407 9.04683,0.24506 23.74047,3.31693 23.70763,-1.46186 -0.23499,-34.19112 5.01636,-34.09261 8.51694,-44.93644 5.31795,-13.85039 2.65993,-25.0559 -0.25423,-34.00424 -0.12894,-0.3959 0.49747,-0.48951 0.56432,-0.26338 1.35779,4.59247 2.54706,9.2355 3.30828,14.00695 7.84204,-0.47601 5.75248,-12.47114 5.73576,-18.94905 -0.0678,-26.25278 -17.78985,-61.47668 -12.83898,-105.12712 0.86897,-7.66145 3.72931,-7.17672 4.76695,-10.61441 11.07311,-36.68514 2.21917,-63.068605 -0.24,-66.252015 -0.74602,-0.965722 5.00345,-2.591567 3.05614,-6.381938 -2.19675,-2.109865 -0.0655,-4.164171 -0.62921,-6.112279 -1.13651,-3.927921 -6.59974,-4.276072 -8.98864,-3.775231 -1.23882,0.259723 -1.72332,1.984096 -2.24717,3.595458 -5.84283,-4.939063 -9.55411,-6.927419 -16.08967,-6.651598 -8.18072,0.345252 -19.3932,2.694455 -25.34798,7.145973 -1.12947,0.844338 -0.1667,2.727192 0.13483,3.865118 -10.43444,1.344052 -21.16077,9.145947 -16.224506,12.112199 0.927436,-1.101557 1.739126,-2.297745 3.101086,-2.898838 0.25456,-0.11235 0.89045,0.451538 0.44943,0.719092 -4.821743,2.925191 -1.9775,10.02983 0.26966,11.505466 10.45421,3.473799 29.10614,-10.356363 31.08848,8.412095 0.28711,2.718261 -3.03845,4.684289 -4.25738,3.542804 -1.20471,-1.128177 -2.22581,-1.898732 -3.01384,-3.212779 -3.04799,-5.082526 -20.46741,0.07726 -20.03207,2.639422 0.18776,1.10506 2.02024,2.005297 3.81021,1.786824 13.86233,-1.691952 13.20932,3.262529 10.69649,6.426882 -6.78125,7.590335 -23.514492,11.992005 -31.190599,26.917795 l 44.521059,0.0572 6.90667,-8.63869 c 0.25668,-0.32105 1.06323,0.0245 0.79449,0.38136 l 0,-2e-5 z"
 id="path5200"
 style="fill:#faf700;fill-opacity:1;stroke:none" />
<path
 d="m 103.63909,75.848023 c 1.04047,0.377151 3.62508,0.437545 4.83139,0.359547 -0.006,2.268342 -0.1657,4.688955 -0.20225,7.954951 -2.62798,-1.568348 -4.71045,-4.011532 -4.62914,-8.314498 z"
 id="path5202"
 style="fill:#faf700;fill-opacity:1;stroke:none" />
<path
 d="m 114.08839,82.510858 -5.10107,-5.719025 -0.14608,7.516758 c 1.41419,-0.741056 3.53808,-1.491538 5.24715,-1.797733 z"
 id="path5204"
 style="fill:#faf700;fill-opacity:1;stroke:none" />
<path
 d="m 109.1671,76.252513 c 2.98544,-0.16814 7.1862,-1.091186 8.91,-1.47189 l -3.33704,7.696528 -5.57296,-6.224638 z"
 id="path5206"
 style="fill:#faf700;fill-opacity:1;stroke:none" />
<path
 d="m 115.50409,82.218726 c 1.7388,-0.538429 5.00611,-1.122989 8.39316,-0.393252 l -5.51678,-6.539239 -2.87638,6.932491 z"
 id="path5208"
 style="fill:#faf700;fill-opacity:1;stroke:none" />
<path
 d="m 94.818338,114.12461 c -1.788707,1.74573 -4.166157,5.08733 -5.29696,7.64494 l -26.665063,-0.003 -20.335128,-32.529533 c -1.600347,-2.56003 2.325005,-6.481828 3.495762,-9.724576 1.535821,-4.253899 -1.097142,-8.054741 -7.817796,-10.868644 -2.797812,-1.171429 -6.402949,-0.07646 -9.216102,1.334745 -1.371921,-3.683398 3.418819,-7.947462 9.152542,-7.309322 0.763733,-1.939289 0.240135,-5.365693 -1.334746,-6.292372 -2.523937,-1.485116 -6.114426,-1.394377 -9.27966,0.826271 -0.545242,-3.208339 2.063221,-6.343469 5.720339,-6.673729 2.181079,-0.196965 4.424162,0.303686 6.54661,1.620762 1.025713,-1.90797 0.364479,-3.732528 -0.317797,-5.116525 -0.942595,-1.912053 -5.91975,-1.65708 -9.025424,-0.508474 -2.350757,-9.434447 21.535087,-5.811664 23.008475,0.06356 2.871882,11.451805 1.337708,33.659625 2.79661,34.894338 l 38.568338,32.641559 z"
 id="path5210"
 style="fill:#faf700;fill-opacity:1;stroke:none" />
<path
 d="m 115.02771,218.26271 c -1.62933,11.83711 -2.50479,30.62517 0.2217,44.04662 l -67.871828,-7.37289 c -1.766828,-0.19193 -1.760426,-15.24193 -1.773599,-15.50847 -0.122893,-2.48665 -5.046841,-4.96476 -8.297909,-1.77967 -1.130434,-5.71503 5.201145,-9.85324 8.361252,-5.02118 2.37609,-3.77462 -0.237674,-9.49509 -9.40128,-7.06467 -0.62528,-3.54003 5.172825,-7.35597 9.337937,-4.75737 1.205323,-2.12121 1.216457,-4.73047 0.110398,-6.09398 -1.435004,-1.76903 -4.233789,-2.18009 -6.622341,-2.14428 4.484671,-6.14833 15.601342,-1.80664 17.723621,5.0603 1.923757,6.22459 -2.426766,9.41914 -1.076827,13.15678 0.78174,2.16444 3.223249,7.05795 2.280341,11.44068 5.372376,-0.80252 13.42018,-2.53168 13.825022,-3.48619 4.90745,-11.57047 23.195512,-24.76147 43.183513,-20.47568 z"
 id="path5212"
 style="fill:#faf700;fill-opacity:1;stroke:none" />
<path
 d="m 120.23057,54.909546 c -0.30434,2.175409 11.03532,0.948287 16.21152,1.081057"
 id="path5214"
 style="fill:none;stroke:#d61a1a;stroke-width:0.69999999;stroke-linecap:round;stroke-linejoin:round;stroke-miterlimit:4;stroke-opacity:1;stroke-dasharray:none" />
<path
 d="m 128.61612,56.070675 c -0.32494,1.32674 -0.33083,3.475797 0.7676,4.015077 0.99376,0.487895 3.89331,0.689966 5.10425,-0.176987 1.16996,-0.8376 0.64623,-3.949409 0.64623,-3.949409"
 id="path5216"
 style="fill:none;stroke:#d61a1a;stroke-width:0.69999999;stroke-linecap:butt;stroke-linejoin:miter;stroke-miterlimit:4;stroke-opacity:1;stroke-dasharray:none" />
<path
 d="m 160.6144,52.468219 c 0.70529,-3.318388 6.67948,0.894972 4.16314,2.097458 -2.28698,1.092884 -3.08388,3.852707 -4.51271,2.510593 -1.56036,-1.465671 -0.0841,-2.567428 0.34957,-4.608051 z"
 id="path5218"
 style="fill:none;stroke:#d61a1a;stroke-width:0.69999999;stroke-linecap:butt;stroke-linejoin:miter;stroke-miterlimit:4;stroke-opacity:1;stroke-dasharray:none" />
</svg>
