<?xml version="1.0" encoding="UTF-8" standalone="no"?>
<!-- Created with Inkscape (http://www.inkscape.org/) -->

<svg
   xmlns:svg="http://www.w3.org/2000/svg"
   xmlns="http://www.w3.org/2000/svg"
   xmlns:xlink="http://www.w3.org/1999/xlink"
   version="1.1"
   width="390"
   height="480"
   id="svg4228">
  <defs
     id="defs4232">
    <linearGradient
       id="linearGradient3653">
      <stop
         id="stop3655"
         style="stop-color:#ffffff;stop-opacity:1"
         offset="0" />
      <stop
         id="stop3657"
         style="stop-color:#ffffff;stop-opacity:0"
         offset="1" />
    </linearGradient>
    <linearGradient
       x1="0"
       y1="109.87704"
       x2="390"
       y2="109.87704"
       id="linearGradient2843"
       xlink:href="#linearGradient3653"
       gradientUnits="userSpaceOnUse" />
  </defs>
  <path
     d="M 0,0 C 130,0 260,0 390,0 389.98981,114.99797 370.78556,350.14732 194.88837,479.99815 20.79131,350.08886 0.081386,115.02225 0,0 z"
     id="path4240-0"
     style="color:#000000;fill:#207dbf;fill-opacity:1;fill-rule:nonzero;stroke:none;marker:none;visibility:visible;display:inline;overflow:visible;enable-background:accumulate" />
  <path
     d="m 151.19844,331.05058 c -14.98146,4.89089 -40.17124,2.81328 -41.32295,-15.75875 -1.56608,-25.25398 64.6094,-86.50404 84.98054,-100.62257 23.30739,16.42024 85.66616,68.88427 85.33074,100.38911 -0.20709,19.4519 -25.7974,19.72661 -40.15564,15.87548 15.74883,23.62817 66.64761,28.64844 69.22179,-17.50973 2.21706,-39.75448 -43.42503,-84.23835 -90.70039,-117.19844 l 46.69261,-31.75097 c 4.48486,-3.0497 -8.51453,-22.56416 -12.9572,-20.54475 l -7.70428,3.50195 -33.26848,-25.9144 c 1.59044,-9.32191 -2.06463,-17.80377 -8.17121,-21.828793 -23.57411,-15.538388 -45.88345,-30.784992 -50.89494,-41.089494 -3.62302,-7.449554 -5.25874,-14.563878 6.3035,-14.59144 l 97.93774,-0.233463 c 5.90614,-0.01408 6.70872,2.089779 6.88716,7.937743 l 22.99611,-0.116731 0,-13.774319 c 0,-15.297384 -15.52698,-20.567963 -22.76264,-20.544747 L 154.46693,17.62646 c -22.06081,0.07078 -33.40383,21.47706 -32.91829,32.451362 1.38664,31.341139 43.80014,47.927885 54.16342,59.299608 4.58345,5.02947 6.94463,10.96825 0,15.75876 l -50.42801,34.78599 c -6.14596,4.23958 10.60706,24.14337 15.23346,21.12841 l 5.19455,-3.38522 25.68094,18.85214 c -16.26459,10.68094 -91.443907,67.01047 -90.116735,116.08949 1.107745,40.7311 48.031965,46.84744 69.922175,18.44358 z"
     id="path3923"
     style="fill:#ededed;fill-opacity:1;stroke:none" />
  <path
     d="m 195.33272,142.01121 -30.28007,20.02575 29.91819,19.1814 30.03877,-19.42257 -29.67689,-19.78458 z"
     id="path3925"
     style="fill:#207dbf;fill-opacity:1;stroke:none" />
</svg>
