<?xml version="1.0" encoding="UTF-8" standalone="no"?>
<!-- Created with Inkscape (http://www.inkscape.org/) -->

<svg
   xmlns:svg="http://www.w3.org/2000/svg"
   xmlns="http://www.w3.org/2000/svg"
   xmlns:xlink="http://www.w3.org/1999/xlink"
   version="1.1"
   width="390"
   height="480"
   id="svg4228">
  <defs
     id="defs4232">
    <linearGradient
       id="linearGradient3662">
      <stop
         id="stop3664"
         style="stop-color:#ffffff;stop-opacity:1"
         offset="0" />
      <stop
         id="stop3666"
         style="stop-color:#ffffff;stop-opacity:0"
         offset="1" />
    </linearGradient>
    <linearGradient
       x1="0.00351796"
       y1="119.72324"
       x2="390.01123"
       y2="119.72324"
       id="linearGradient2843"
       xlink:href="#linearGradient3662"
       gradientUnits="userSpaceOnUse"
       gradientTransform="matrix(0.99463219,0,0,0.99412834,1.0288854,1.1121649)" />
  </defs>
  <path
     d="M 0.53145838,0.62914189 389.47568,0.59506224 C 389.46078,270.01765 389.45654,273.99204 389.45658,274.0042 390.45407,548.01562 0.53806439,548.02123 0.5347575,274.00344 L 0.53145838,0.62914189 z"
     id="path2902-1"
     style="fill:#207dbf;fill-opacity:1;stroke:#999999;stroke-width:0.99750447;stroke-opacity:1" />
  <path
     d="M 1.0090737,1.0874502 62.849617,1.1230074 C 73.744269,26.087191 104.6973,23.659464 131.00116,59.112667 c 17.6935,23.84792 18.63321,54.117623 37.60046,73.386783 20.22514,20.54705 46.19242,22.16718 70.87433,51.83395 31.82097,38.24767 12.49601,50.39693 44.00801,81.2176 31.19256,30.50824 42.73613,22.16734 66.91854,47.21183 11.64348,12.61102 14.20461,29.71633 25.30828,42.80662 -5.79214,17.01215 -18.09939,41.25493 -35.34787,60.23178 -18.17733,-15.26851 -15.94778,-41.87224 -32.485,-60.28361 -22.32089,-24.8505 -47.8105,-18.95982 -66.75372,-40.11355 C 220.69245,292.5881 222.55171,263.20219 203.87396,240.62445 178.34942,209.77031 146.13704,210.7768 122.12127,183.50803 99.49645,157.81863 107.15567,139.88298 82.563499,110.21411 59.953669,82.936818 42.543417,86.024569 17.293197,58.545209 10.76246,51.437928 1.6910762,40.303418 1.0111928,22.833843 0.97476769,15.328598 1.0311666,8.6929586 1.0090737,1.0874502 z"
     id="path2827"
     style="fill:#ececec;stroke:none" />
  <path
     d="m 245.00368,1.1070233 c 5.83984,16.1084357 10.4409,30.9916577 21.88284,42.9575757 19.96111,20.875241 45.9435,22.871016 70.23756,52.946769 31.32093,38.774972 11.7937,50.669352 42.91141,81.999152 3.47158,3.49524 5.98289,5.99706 8.93338,8.5453 -0.005,24.61448 0.11588,49.63209 -0.005,70.89139 -19.3592,-12.28623 -36.86037,-12.61979 -52.06305,-30.09939 -20.1357,-23.15145 -17.85361,-52.56481 -36.23604,-75.45228 C 275.54366,121.61812 243.26938,122.16423 219.60815,94.500437 197.31735,68.438916 205.24438,50.58005 181.0402,20.503472 173.0698,10.599282 166.00106,6.0059779 158.69529,1.11266 176.72203,1.1168 216.03546,1.101286 245.00368,1.10702 z"
     id="path2827-9"
     style="fill:#ececec;stroke:none" />
  <path
     d="m 1.021594,124.78306 c 13.348937,7.84978 30.341517,14.64721 46.524805,36.21479 17.801236,23.72383 18.798679,53.81289 37.852007,72.95993 20.316914,20.41684 46.286414,21.91272 71.101764,51.41262 31.99304,38.03256 12.7288,50.25113 44.37823,80.871 31.32861,30.30947 42.83085,21.92902 67.12523,46.81702 15.40815,15.78463 8.74516,22.91566 24.32916,41.27405 -17.32075,10.01021 -37.61984,16.87716 -55.85553,20.54547 -2.70227,-7.43216 -5.76222,-14.29895 -10.7898,-18.93994 C 201.03711,433.18312 177.79829,437.23469 158.76018,416.20622 138.22611,393.52537 139.94775,364.1817 121.16841,341.73046 95.50505,311.04917 63.304038,312.20458 39.165852,285.09539 17.135262,260.35321 23.102635,242.71977 1.0350119,214.81846 1.0299769,185.33235 0.99978784,151.88703 1.021594,124.78306 z"
     id="path2827-9-4"
     style="fill:#ececec;stroke:none" />
</svg>
