<?xml version="1.0" encoding="UTF-8" standalone="no"?>
<!-- Created with Inkscape (http://www.inkscape.org/) -->
<svg
   xmlns:dc="http://purl.org/dc/elements/1.1/"
   xmlns:cc="http://web.resource.org/cc/"
   xmlns:rdf="http://www.w3.org/1999/02/22-rdf-syntax-ns#"
   xmlns:svg="http://www.w3.org/2000/svg"
   xmlns="http://www.w3.org/2000/svg"
   xmlns:xlink="http://www.w3.org/1999/xlink"
   xmlns:sodipodi="http://sodipodi.sourceforge.net/DTD/sodipodi-0.dtd"
   xmlns:inkscape="http://www.inkscape.org/namespaces/inkscape"
   width="328.17569"
   height="412.13885"
   id="svg2"
   sodipodi:version="0.32"
   inkscape:version="0.44.1"
   version="1.0"
   sodipodi:docbase="C:\Documents and Settings\Jon Harald Søby\Mine dokumenter\wikimedia"
   sodipodi:docname="Skiptvet komm.svg">
  <defs
     id="defs4">
    <linearGradient
       id="linearGradient8204">
      <stop
         style="stop-color:#eee;stop-opacity:1;"
         offset="0"
         id="stop8206" />
      <stop
         style="stop-color:#ccc;stop-opacity:1;"
         offset="1"
         id="stop8208" />
    </linearGradient>
    <linearGradient
       id="linearGradient6373">
      <stop
         style="stop-color:#faa;stop-opacity:1;"
         offset="0"
         id="stop6375" />
      <stop
         style="stop-color:red;stop-opacity:1;"
         offset="1"
         id="stop6377" />
    </linearGradient>
    <marker
       inkscape:stockid="Arrow2Lend"
       orient="auto"
       refY="0"
       refX="0"
       id="Arrow2Lend"
       style="overflow:visible">
      <path
         id="path2975"
         style="font-size:12px;fill-rule:evenodd;stroke-width:0.625;stroke-linejoin:round"
         d="M 8.7185878,4.0337352 L -2.2072895,0.016013256 L 8.7185884,-4.0017078 C 6.97309,-1.6296469 6.9831476,1.6157441 8.7185878,4.0337352 z "
         transform="matrix(-1.1,0,0,-1.1,-1.1,0)" />
    </marker>
    <marker
       inkscape:stockid="Arrow1Mstart"
       orient="auto"
       refY="0"
       refX="0"
       id="Arrow1Mstart"
       style="overflow:visible">
      <path
         id="path2990"
         d="M 0,0 L 5,-5 L -12.5,0 L 5,5 L 0,0 z "
         style="fill-rule:evenodd;stroke:black;stroke-width:1pt;marker-start:none"
         transform="matrix(0.4,0,0,0.4,4,0)" />
    </marker>
    <marker
       inkscape:stockid="RazorWire"
       id="RazorWire"
       refX="0"
       refY="0"
       orient="auto">
       style=&quot;overflow:visible&quot;&gt;
      <path
   id="path2826"
   transform="scale(0.8,0.8)"
   style="fill:gray;fill-opacity:1;fill-rule:evenodd;stroke:black;stroke-width:0.1pt"
   d="M 0.022727273,-0.74009011 L 0.022727273,0.69740989 L -7.7585227,3.0099099 L 10.678977,3.0099099 L 3.4914773,0.69740989 L 3.4914773,-0.74009011 L 10.741477,-2.8963401 L -7.7272727,-2.8963401 L 0.022727273,-0.74009011 z " />
</marker>
    <marker
       inkscape:stockid="Scissors"
       orient="auto"
       refY="0"
       refX="0"
       id="Scissors"
       style="overflow:visible">
      <path
         id="schere"
         style="marker-start:none"
         d="M 9.0898857,-3.6061018 C 8.1198849,-4.7769976 6.3697607,-4.7358294 5.0623558,-4.2327734 L -3.1500488,-1.1548705 C -5.5383421,-2.461584 -7.8983361,-2.0874077 -7.8983361,-2.7236578 C -7.8983361,-3.2209742 -7.4416699,-3.11198 -7.5100293,-4.4068519 C -7.5756648,-5.6501286 -8.8736064,-6.5699315 -10.100428,-6.4884954 C -11.327699,-6.49585 -12.599867,-5.5553341 -12.610769,-4.2584343 C -12.702194,-2.9520479 -11.60356,-1.7387447 -10.304005,-1.6532027 C -8.7816644,-1.4265411 -6.085747,-2.3487593 -4.82106,-0.082342643 C -5.7633447,1.6559151 -7.4350844,1.6607341 -8.9465707,1.5737277 C -10.201445,1.5014928 -11.708664,1.8611256 -12.307219,3.0945882 C -12.885586,4.2766744 -12.318421,5.9591904 -10.99047,6.3210002 C -9.6502788,6.8128279 -7.8098011,6.1912892 -7.4910978,4.650276 C -7.2454393,3.462453 -8.0864637,2.9043186 -7.7636052,2.4731223 C -7.5199917,2.1477623 -5.9728246,2.3362771 -3.2164999,1.0982979 L 5.6763468,4.2330688 C 6.8000164,4.5467672 8.1730685,4.5362646 9.1684433,3.4313614 L -0.05164093,-0.053722219 L 9.0898857,-3.6061018 z M -9.2179159,-5.5066058 C -7.9233569,-4.783806 -8.0290767,-2.8230356 -9.3743431,-2.4433169 C -10.590861,-2.0196559 -12.14537,-3.2022863 -11.757521,-4.5207817 C -11.530373,-5.6026336 -10.104134,-6.0014137 -9.2179159,-5.5066058 z M -9.1616516,2.5107591 C -7.8108215,3.0096239 -8.0402087,5.2951947 -9.4138723,5.6023681 C -10.324932,5.9187072 -11.627422,5.4635705 -11.719569,4.3902287 C -11.897178,3.0851737 -10.363484,1.9060805 -9.1616516,2.5107591 z " />
    </marker>
    <marker
       inkscape:stockid="Dot_l"
       orient="auto"
       refY="0"
       refX="0"
       id="Dot_l"
       style="overflow:visible">
      <path
         id="path2934"
         d="M -2.5,-1 C -2.5,1.76 -4.74,4 -7.5,4 C -10.26,4 -12.5,1.76 -12.5,-1 C -12.5,-3.76 -10.26,-6 -7.5,-6 C -4.74,-6 -2.5,-3.76 -2.5,-1 z "
         style="fill-rule:evenodd;stroke:black;stroke-width:1pt;marker-start:none;marker-end:none"
         transform="matrix(0.8,0,0,0.8,5.92,0.8)" />
    </marker>
    <marker
       inkscape:stockid="Arrow1Lend"
       orient="auto"
       refY="0"
       refX="0"
       id="Arrow1Lend"
       style="overflow:visible">
      <path
         id="path2993"
         d="M 0,0 L 5,-5 L -12.5,0 L 5,5 L 0,0 z "
         style="fill-rule:evenodd;stroke:black;stroke-width:1pt;marker-start:none"
         transform="matrix(-0.8,0,0,-0.8,-10,0)" />
    </marker>
    <marker
       inkscape:stockid="Arrow1Lstart"
       orient="auto"
       refY="0"
       refX="0"
       id="Arrow1Lstart"
       style="overflow:visible">
      <path
         id="path2996"
         d="M 0,0 L 5,-5 L -12.5,0 L 5,5 L 0,0 z "
         style="fill-rule:evenodd;stroke:black;stroke-width:1pt;marker-start:none"
         transform="matrix(0.8,0,0,0.8,10,0)" />
    </marker>
    <linearGradient
       id="linearGradient2789">
      <stop
         style="stop-color:red;stop-opacity:1;"
         offset="0"
         id="stop2791" />
      <stop
         style="stop-color:red;stop-opacity:0;"
         offset="1"
         id="stop2793" />
    </linearGradient>
    <radialGradient
       inkscape:collect="always"
       xlink:href="#linearGradient6373"
       id="radialGradient6379"
       cx="240.93398"
       cy="344.47954"
       fx="240.93398"
       fy="344.47954"
       r="164.08784"
       gradientTransform="matrix(1,0,0,1.255848,0,-88.13445)"
       gradientUnits="userSpaceOnUse" />
    <radialGradient
       inkscape:collect="always"
       xlink:href="#linearGradient8204"
       id="radialGradient2845"
       cx="243.49879"
       cy="325.15143"
       fx="243.49879"
       fy="325.15143"
       r="150.77213"
       gradientTransform="matrix(1,0,0,1.191283,0,-62.19603)"
       gradientUnits="userSpaceOnUse" />
  </defs>
  <sodipodi:namedview
     id="base"
     pagecolor="#ffffff"
     bordercolor="#666666"
     borderopacity="1.0"
     gridtolerance="10000"
     guidetolerance="10"
     objecttolerance="10"
     inkscape:pageopacity="0.0"
     inkscape:pageshadow="2"
     inkscape:zoom="1.2520052"
     inkscape:cx="164.08784"
     inkscape:cy="206.06943"
     inkscape:document-units="px"
     inkscape:current-layer="layer2"
     inkscape:window-width="1024"
     inkscape:window-height="712"
     inkscape:window-x="-4"
     inkscape:window-y="-4" />
  <metadata
     id="metadata7">
    <rdf:RDF>
      <cc:Work
         rdf:about="">
        <dc:format>image/svg+xml</dc:format>
        <dc:type
           rdf:resource="http://purl.org/dc/dcmitype/StillImage" />
      </cc:Work>
    </rdf:RDF>
  </metadata>
  <g
     inkscape:groupmode="layer"
     id="layer2"
     inkscape:label="Grå bakgrunn"
     style="opacity:1;display:inline"
     transform="translate(-76.84614,-138.4101)">
    <path
       id="rect5685"
       style="fill:url(#radialGradient2845);fill-opacity:1;fill-rule:nonzero;stroke:none;stroke-width:0.80000001;stroke-linecap:butt;stroke-linejoin:miter;stroke-miterlimit:4;stroke-dashoffset:1.7;stroke-opacity:1"
       d="M 127.58882,145.53912 L 348.45679,145.53912 C 350.78172,145.53912 352.65342,147.41082 352.65342,149.73576 L 352.65342,385.20634 C 352.65342,387.53127 350.78172,389.40297 348.45679,389.40297 L 135.60697,389.40297 C 133.28204,389.40297 124.65218,380.54403 124.65218,378.2191 L 123.39219,149.73576 C 123.39219,147.41082 125.26389,145.53912 127.58882,145.53912 z M 96.92331,166.71294 L 168.84449,166.71294 C 171.16942,166.71294 173.04112,168.58463 173.04112,170.90957 L 173.04112,253.05258 C 173.04112,255.37752 171.16942,257.24921 168.84449,257.24921 L 96.92331,257.24921 C 94.598375,257.24921 92.726677,255.37752 92.726677,253.05258 L 92.726677,170.90957 C 92.726677,168.58463 94.598375,166.71294 96.92331,166.71294 z M 115.90672,247.02737 L 135.25845,247.02737 C 137.58338,247.02737 139.45508,248.89907 139.45508,251.22401 L 139.45508,283.71809 C 139.45508,286.04303 137.58338,287.91473 135.25845,287.91473 L 115.90672,287.91473 C 113.58179,287.91473 111.71009,286.04303 111.71009,283.71809 L 111.71009,251.22401 C 111.71009,248.89907 113.58179,247.02737 115.90672,247.02737 z M 116.63686,295.21603 L 124.30648,295.21603 C 126.63141,295.21603 128.50311,297.08773 128.50311,299.41267 L 128.50311,320.22465 C 128.50311,322.54959 126.63141,324.42129 124.30648,324.42129 L 116.63686,324.42129 C 114.31192,324.42129 112.44022,322.54959 112.44022,320.22465 L 112.44022,299.41267 C 112.44022,297.08773 114.31192,295.21603 116.63686,295.21603 z M 121.74777,322.2309 L 135.98858,322.2309 C 138.31351,322.2309 140.18521,324.10259 140.18521,326.42753 L 140.18521,345.04912 C 140.18521,347.37406 138.31351,349.24575 135.98858,349.24575 L 121.74777,349.24575 C 119.42284,349.24575 117.55114,347.37406 117.55114,345.04912 L 117.55114,326.42753 C 117.55114,324.10259 119.42284,322.2309 121.74777,322.2309 z M 177.96787,368.22916 L 313.41047,368.22916 C 315.7354,368.22916 317.6071,370.10085 317.6071,372.42579 L 317.6071,444.34697 C 317.6071,446.6719 315.7354,448.5436 313.41047,448.5436 L 177.96787,448.5436 C 175.64294,448.5436 173.77124,446.6719 173.77124,444.34697 L 173.77124,372.42579 C 173.77124,370.10085 175.64294,368.22916 177.96787,368.22916 z M 302.82032,371.87982 L 338.76646,371.87982 C 341.09139,371.87982 342.96309,373.75152 342.96309,376.07646 L 342.96309,407.8876 C 342.96309,410.21254 341.09139,412.08424 338.76646,412.08424 L 302.82032,412.08424 C 300.49539,412.08424 298.62369,410.21254 298.62369,407.8876 L 298.62369,376.07646 C 298.62369,373.75152 300.49539,371.87982 302.82032,371.87982 z M 310.12165,390.13312 L 328.74324,390.13312 C 331.06818,390.13312 332.93988,392.00482 332.93988,394.32975 L 332.93988,428.2841 C 332.93988,430.60903 331.06818,432.48073 328.74324,432.48073 L 310.12165,432.48073 C 307.79672,432.48073 305.92502,430.60903 305.92502,428.2841 L 305.92502,394.32975 C 305.92502,392.00482 307.79672,390.13312 310.12165,390.13312 z M 324.72428,146.26926 L 390.07428,146.26926 C 392.39921,146.26926 394.27091,148.14096 394.27091,150.46589 L 394.27091,237.71982 C 394.27091,240.04476 392.39921,241.91646 390.07428,241.91646 L 324.72428,241.91646 C 322.39935,241.91646 320.52765,240.04476 320.52765,237.71982 L 320.52765,150.46589 C 320.52765,148.14096 322.39935,146.26926 324.72428,146.26926 z M 331.29545,224.3933 L 343.34586,224.3933 C 345.67079,224.3933 347.54249,226.26499 347.54249,228.58993 L 347.54249,263.27441 C 347.54249,265.59934 345.67079,267.47104 343.34586,267.47104 L 331.29545,267.47104 C 328.97051,267.47104 327.09882,265.59934 327.09882,263.27441 L 327.09882,228.58993 C 327.09882,226.26499 328.97051,224.3933 331.29545,224.3933 z M 338.59675,225.85356 L 379.85241,225.85356 C 382.17734,225.85356 384.04904,227.72526 384.04904,230.05019 L 384.04904,285.90848 C 384.04904,288.23342 382.0628,293.31238 379.73787,293.31238 L 338.48221,293.31238 C 336.15727,293.31238 334.40012,288.23342 334.40012,285.90848 L 334.40012,230.05019 C 334.40012,227.72526 336.27181,225.85356 338.59675,225.85356 z M 324.72428,271.85184 L 368.90047,271.85184 C 371.2254,271.85184 373.0971,273.72354 373.0971,276.04847 L 373.0971,329.71636 C 373.0971,332.0413 371.2254,333.913 368.90047,333.913 L 324.72428,333.913 C 322.39935,333.913 320.52765,332.0413 320.52765,329.71636 L 320.52765,276.04847 C 320.52765,273.72354 322.39935,271.85184 324.72428,271.85184 z M 195.49104,434.67111 L 267.41222,434.67111 C 269.73715,434.67111 271.60885,436.54281 271.60885,438.86775 L 271.60885,500.56708 C 271.60885,502.89202 269.73715,504.76372 267.41222,504.76372 L 198.12557,504.76372 C 195.80063,504.76372 191.2944,498.65386 191.2944,496.32892 L 191.2944,438.86775 C 191.2944,436.54281 193.1661,434.67111 195.49104,434.67111 z M 257.55219,414.95758 L 300.26812,414.95758 C 302.59305,414.95758 304.46475,416.82928 304.46475,419.15421 L 304.46475,469.90158 C 304.46475,472.22651 302.59305,474.09821 300.26812,474.09821 L 257.55219,474.09821 C 255.22726,474.09821 253.35556,472.22651 253.35556,469.90158 L 253.35556,419.15421 C 253.35556,416.82928 255.22726,414.95758 257.55219,414.95758 z M 310.12165,423.71915 L 310.48996,423.71915 C 312.8149,423.71915 314.68659,425.59085 314.68659,427.91578 L 314.68659,461.87013 C 314.68659,464.19506 312.8149,466.06676 310.48996,466.06676 L 310.12165,466.06676 C 307.79672,466.06676 305.92502,464.19506 305.92502,461.87013 L 305.92502,427.91578 C 305.92502,425.59085 307.79672,423.71915 310.12165,423.71915 z M 265.58363,466.06677 L 289.31614,466.06677 C 291.64107,466.06677 293.51277,467.93847 293.51277,470.26341 L 293.51277,493.99592 C 293.51277,496.32085 291.64107,498.19255 289.31614,498.19255 L 265.58363,498.19255 C 263.25869,498.19255 261.38699,496.32085 261.38699,493.99592 L 261.38699,470.26341 C 261.38699,467.93847 263.25869,466.06677 265.58363,466.06677 z "
       sodipodi:nodetypes="cccccccccccccccccccccccccccccccccccccccccccccccccccccccccccccccccccccccccccccccccccccccccccccccccccccccccccccccccccccccccccccccccccccccccccccccc" />
    <path
       style="fill:none;fill-rule:evenodd;stroke:black;stroke-width:0.92813522px;stroke-linecap:butt;stroke-linejoin:miter;stroke-opacity:1"
       d="M 306.47434,420.99057 C 306.47434,420.99057 307.28734,428.15848 306.91779,433.87466 C 306.54825,439.59084 306.47434,439.59084 306.47434,439.59084"
       id="path2830" />
  </g>
  <g
     inkscape:label="Layer 1"
     inkscape:groupmode="layer"
     id="layer1"
     style="opacity:1;display:inline"
     transform="translate(-76.84614,-138.4101)">
    <path
       style="opacity:1;fill:url(#radialGradient6379);fill-opacity:1;stroke:black;stroke-width:1;stroke-linecap:butt;stroke-linejoin:miter;marker-start:none;marker-mid:none;stroke-miterlimit:4;stroke-dasharray:none;stroke-dashoffset:1.7;stroke-opacity:1"
       d="M 225.45009,537.54077 C 173.4973,488.0757 128.43419,408.52842 103.75876,322.72616 C 90.389756,276.23904 81.818416,222.57609 78.828706,166.64568 L 77.346136,138.91012 L 240.93397,138.91012 L 404.52182,138.91012 L 403.16249,167.73335 C 397.04594,297.43039 359.25245,410.91347 293.58835,496.75319 C 279.77306,514.8133 245.46271,550.04896 241.69215,550.04896 C 239.98451,550.04896 232.67559,544.42028 225.45009,537.54077 z M 267.07314,492.81189 C 272.39298,490.19385 279.98778,484.82946 283.95048,480.89101 C 291.06423,473.82078 306.52227,444.50483 306.52227,438.78202 C 306.66468,436.88105 308.72367,436.39398 311.62997,434.83857 C 317.9063,431.47959 334.16614,410.15079 335.98986,402.88458 C 336.69515,400.07447 338.67877,397.77532 340.39794,397.77532 C 347.98313,397.77532 335.53076,367.62772 326.51687,364.16876 C 324.65178,363.45308 322.90294,363.13528 322.63055,363.46254 C 322.35817,363.78982 321.65008,371.15462 321.05701,379.82878 C 320.07241,394.23004 320.33628,395.59998 324.09483,395.59998 C 328.02138,395.59998 328.04638,395.92552 324.6376,402.66983 C 320.08299,411.68114 310.36212,421.60753 306.7031,421.60753 C 306.48492,421.60753 305.86615,416.83671 305.17859,413.54652 C 301.87251,397.72568 296.7167,379.80742 290.67585,363.14424 C 284.33166,345.64435 284.21211,344.69927 287.99289,341.9347 C 293.10424,338.19719 307.25467,338.38951 318.31017,342.34675 C 326.381,345.23564 327.24796,345.158 330.27453,341.2753 C 334.53547,335.80905 343.65107,332.51518 354.51769,332.51518 C 363.03318,332.51518 363.21565,332.35747 361.85691,326.1712 C 359.74401,316.55125 364.42603,302.79679 373.07069,293.22818 C 378.67776,287.02184 380.2147,283.89104 378.61665,281.93095 C 377.40077,280.4396 375.23274,275.26512 373.7988,270.43211 C 370.29187,258.61208 373.51662,247.4459 384.37884,233.79714 L 392.82813,223.18028 L 386.33982,210.9561 C 380.35368,199.67804 379.93904,197.46916 380.98253,182.41688 C 381.60459,173.44361 383.6781,162.43096 385.59031,157.94433 L 389.06704,149.78681 L 382.33902,149.78681 C 365.79773,149.78681 328.94433,168.71844 310.80913,186.53179 C 286.79559,210.11916 280.3286,223.3664 287.92462,233.40925 C 291.26606,237.82703 292.20079,251.36358 289.45363,255.55204 C 288.57463,256.89221 281.98203,262.09876 274.80341,267.12215 L 261.75139,276.25557 L 261.06968,270.7362 C 260.63819,267.24274 263.69762,259.64586 269.40475,250.03934 C 277.18842,236.93748 278.37516,233.28381 278.08245,223.32289 C 277.4079,200.36802 277.76652,196.78973 283.65378,167.73335 C 285.5065,158.58929 282.19181,158.58929 274.9852,167.73335 C 269.84433,174.2563 269.41145,174.42458 269.38919,169.90868 C 269.35615,163.20448 263.27008,163.62707 261.55701,170.45252 C 259.9924,176.68638 257.9926,177.27272 254.1377,172.62786 C 250.66833,168.44752 244.55504,168.44752 241.08567,172.62786 C 237.47924,176.97335 232.58267,176.74088 221.29762,171.68841 C 216.13507,169.37707 211.18663,167.93375 210.30109,168.48104 C 209.41556,169.02833 211.13683,174.34559 214.12614,180.29717 C 218.27597,188.5593 220.74345,191.11823 224.56051,191.11823 C 232.13819,191.11823 242.76,195.37628 244.1376,198.96626 C 245.97106,203.74417 240.54836,204.76429 233.32896,200.99958 C 229.81832,199.16889 222.51401,197.66501 217.09715,197.65764 C 206.72914,197.64353 197.1817,192.83359 198.60126,188.33952 C 199.06333,186.87672 196.08562,182.89149 191.98413,179.48345 L 184.52689,173.28702 L 184.52689,180.1703 C 184.52689,188.08081 187.89535,195.4689 191.50199,195.4689 C 192.86123,195.4689 195.73546,197.06361 197.88918,199.01269 C 200.04289,200.96178 207.44991,203.16431 214.34921,203.9072 C 227.97618,205.37451 232.09989,210.04641 223.22541,213.96335 C 218.00378,216.26803 213.02936,226.87589 215.85154,229.68803 C 216.7755,230.6087 219.33463,229.1379 221.53851,226.41959 C 227.33112,219.27485 236.94534,214.68879 240.29793,217.4712 C 244.23928,220.74222 241.51756,225.92036 230.89857,235.35369 C 225.73355,239.94201 221.50763,245.38939 221.50763,247.45898 C 221.50763,249.61246 218.27463,252.7636 213.94877,254.82646 C 205.88503,258.67179 198.86376,271.10465 201.24763,277.31692 C 203.72531,283.77364 196.95821,284.78323 193.11104,278.53083 C 191.13553,275.32024 182.01633,263.39383 172.84616,252.02769 C 157.07373,232.47825 156.23353,230.89197 157.29133,222.66062 C 157.90635,217.87488 159.02084,205.95769 159.76798,196.17798 C 161.0717,179.1128 160.90073,178.171 155.52282,172.79309 C 152.44085,169.71112 147.91694,167.18951 145.46969,167.18951 C 139.86246,167.18951 139.86202,168.93936 145.46772,174.90635 C 149.30879,178.99499 149.82793,181.98059 149.27456,196.79993 L 148.63381,213.95927 L 145.0991,206.18739 C 140.69159,196.49646 129.05583,183.05529 123.56562,181.31276 C 119.04884,179.87919 110.5654,183.48872 110.5654,186.84409 C 110.5654,187.99843 112.82951,188.94289 115.59676,188.94289 C 120.75306,188.94289 127.00669,194.64728 137.72094,209.12397 C 144.09119,217.73121 143.78226,222.49477 137.22663,216.74615 C 132.33476,212.45649 120.24317,206.32192 112.04613,203.97104 C 104.1084,201.69453 98.040626,204.67557 95.153066,212.27043 C 92.096266,220.31042 95.878976,223.20734 101.75779,217.32854 C 106.98479,212.10154 109.24752,212.41005 127.20159,220.79762 C 143.27896,228.30845 144.68498,230.6118 139.80216,241.43996 C 134.22609,253.80547 125.20545,262.90437 118.52237,262.90437 C 110.7512,262.90437 109.26889,266.75759 115.88108,269.77031 C 124.2003,273.5608 131.03408,269.38952 140.50081,254.74265 C 144.97396,247.82182 149.37393,241.68772 150.27853,241.11132 C 151.60914,240.26347 167.12419,263.27519 167.12419,266.09658 C 167.12419,266.53602 171.37846,274.09137 176.57814,282.88624 C 181.77781,291.68112 187.21185,302.45162 188.65377,306.82069 C 190.09569,311.18977 192.71265,315.95723 194.46924,317.41507 C 196.65585,319.22979 197.25073,322.26343 196.35561,327.0348 C 195.24482,332.9558 196.21998,335.24638 202.83957,342.26519 C 207.12483,346.80889 210.63094,351.16145 210.63094,351.93755 C 210.63094,352.71365 208.67314,357.18876 206.28027,361.88224 C 203.8874,366.57573 201.92959,371.6772 201.92959,373.21889 C 201.92959,379.10043 196.23415,375.47924 189.97852,365.62032 C 186.39652,359.97508 180.17614,350.17852 176.15545,343.8502 C 170.21226,334.49598 168.30305,328.46314 165.94662,311.5917 C 162.42314,286.36445 159.0613,280.30708 148.58366,280.30708 C 140.44291,280.30708 138.39491,283.53136 145.16985,285.68164 C 147.45219,286.40603 149.98503,288.67452 150.79837,290.72274 C 153.91484,298.5708 159.76258,323.81383 158.46417,323.81383 C 157.7144,323.81383 153.72749,320.30416 149.60438,316.01455 C 138.35446,304.31038 131.39625,301.2226 124.1248,304.70771 C 120.88392,306.26103 117.92032,309.15181 117.53904,311.13168 C 116.96438,314.1156 118.26235,314.54669 125.12612,313.65157 C 132.30657,312.71516 134.63449,313.62983 142.65163,320.53762 C 147.73649,324.91887 151.89682,329.25096 151.89682,330.16449 C 151.89682,331.07802 147.25933,331.12165 141.59128,330.26146 C 124.98149,327.74072 117.21943,333.40231 123.58941,343.39187 C 125.34765,346.14919 126.23136,345.85788 129.29165,341.51216 C 132.45788,337.01598 134.23416,336.49637 143.4205,337.37906 C 156.57673,338.64321 160.59817,341.91593 160.59817,351.35857 C 160.59817,359.32065 153.20287,376.02194 149.67727,376.02194 C 148.50515,376.02194 147.54614,377.00084 147.54614,378.19728 C 147.54614,379.39371 150.33418,380.37261 153.74178,380.37261 C 159.90477,380.37261 162.81526,376.20541 168.15885,359.73036 C 169.64081,355.16127 173.65859,360.66593 191.51385,391.72844 C 195.44786,398.57236 199.64549,404.20103 200.84192,404.23657 C 202.03836,404.27212 205.83164,400.77398 209.27143,396.46294 C 212.71122,392.15189 218.77546,387.2668 222.74753,385.60715 C 226.7196,383.94752 230.97249,380.86718 232.19842,378.76195 C 233.79896,376.01341 234.44601,375.80591 234.49351,378.02599 C 234.58684,382.38811 241.09645,389.07397 245.25023,389.07397 C 247.16987,389.07397 249.96316,391.03177 251.45753,393.42464 C 252.9519,395.81751 255.41664,397.77532 256.93473,397.77532 C 260.05371,397.77532 271.43679,413.19149 272.15183,414.43739 C 272.02955,414.33703 272.34859,416.17232 267.73356,414.03007 C 244.5218,403.25538 228.74497,404.2076 214.40519,414.59527 C 201.48136,423.95725 194.7132,437.26831 196.19464,450.41031 C 198.23345,468.49685 211.16566,487.82021 226.40666,495.55318 C 237.546,501.20508 251.99764,500.2309 267.07314,492.81189 z M 236.69175,469.67017 C 217.403,459.46851 218.61972,431.87691 238.62261,425.8839 C 248.92901,422.79603 261.41486,428.03186 269.45492,431.99646 C 273.55053,433.57142 273.7872,433.64902 276.09748,434.96975 C 275.60917,437.45274 275.87724,441.30225 274.92759,447.24272 C 272.87291,456.5976 266.27551,464.47898 256.19408,469.62216 C 246.11454,474.76435 246.32259,474.76385 236.69175,469.67017 z M 244.28117,182.30763 C 242.21412,178.96308 245.04547,176.80519 247.83749,179.5972 C 249.39977,181.15948 249.43731,182.37625 247.95154,183.2945 C 246.73353,184.04728 245.08186,183.60318 244.28117,182.30763 z "
       id="path1900"
       sodipodi:nodetypes="cscccccssccscsssssssscsssssssssscccscccssscccsssssssssssssssscccsssssssssssssssssscccsssssssssssssssssssssssssssssssssssssssssssssssssssssscssssccscccsccssc" />
    <rect
       style="opacity:1;fill:blue;fill-opacity:1;fill-rule:nonzero;stroke:black;stroke-width:0.79999983;stroke-linecap:butt;stroke-linejoin:miter;stroke-miterlimit:4;stroke-dasharray:none;stroke-dashoffset:1.7;stroke-opacity:1"
       id="rect3021"
       width="5.5388355"
       height="8.3932648"
       x="-3.9528406"
       y="301.53586"
       ry="4.1966324"
       transform="matrix(0.58873,-0.80833,0.80833,0.58873,0,0)" />
  </g>
  <g
     inkscape:groupmode="layer"
     id="layer3"
     inkscape:label="svart ting"
     style="display:inline"
     transform="translate(-76.84614,-138.4101)">
    <path
       style="fill:none;fill-rule:evenodd;stroke:black;stroke-width:1.03876233px;stroke-linecap:butt;stroke-linejoin:miter;stroke-opacity:1"
       d="M 200.98643,281.89523 C 200.98643,281.89523 185.61056,294.41918 188.49998,306.33518"
       id="path6640" />
    <path
       style="fill:none;fill-rule:evenodd;stroke:black;stroke-width:1.01952744px;stroke-linecap:butt;stroke-linejoin:miter;stroke-opacity:1"
       d="M 272.02189,414.24251 C 272.02189,414.24251 273.67424,416.97506 274.86761,424.64382 C 276.06097,432.31259 275.87737,431.87186 276.06097,434.78071"
       id="path2828" />
  </g>
</svg>
