<?xml version="1.0" encoding="UTF-8" standalone="no"?>
<!-- Created with Inkscape (http://www.inkscape.org/) -->

<svg
   xmlns:dc="http://purl.org/dc/elements/1.1/"
   xmlns:cc="http://creativecommons.org/ns#"
   xmlns:rdf="http://www.w3.org/1999/02/22-rdf-syntax-ns#"
   xmlns:svg="http://www.w3.org/2000/svg"
   xmlns="http://www.w3.org/2000/svg"
   version="1.1"
   width="390"
   height="480"
   id="svg4228">
  <metadata
     id="metadata8">
    <rdf:RDF>
      <cc:Work
         rdf:about="">
        <dc:format>image/svg+xml</dc:format>
        <dc:type
           rdf:resource="http://purl.org/dc/dcmitype/StillImage" />
        <dc:title></dc:title>
      </cc:Work>
    </rdf:RDF>
  </metadata>
  <defs
     id="defs4232" />
  <path
     d="m 0.51202379,0.50512952 c 129.66265621,0 259.32532621,0 388.98797621,0 C 389.48983,115.23328 370.33544,349.8309 194.89467,479.37706 21.249382,349.77255 0.5931986,115.2575 0.51202379,0.50512952 z"
     id="path4240-0"
     style="fill:#008c31;fill-opacity:1;stroke:#999999;stroke-width:0.99999905;stroke-opacity:1" />
  <path
     d="m 136.99154,1.0059473 c -2.92182,38.7458957 20.15666,46.9603657 50.89015,33.6909377 23.52318,-10.156316 28.52224,-10.160577 43.66884,-9.820375 23.96484,0.538264 44.85404,24.788887 44.23574,48.381079 -0.57168,21.976884 -11.1601,54.571471 -53.96617,54.017811 -28.4487,-0.36796 -42.18572,-18.33083 -69.08758,-12.62115 -37.09264,7.87258 -24.9818,53.694 8.85723,52.8834 20.05426,-0.48039 47.59989,-15.60245 65.33758,-15.8604 65.38024,-0.95079 65.24105,104.384 -1.864,105.35649 -28.55759,0.41386 -32.24725,-16.22806 -62.21625,-14.51223 -47.36853,2.68958 -34.30072,65.92302 10.21968,58.59348 25.91693,-4.26679 34.15865,-14.6803 55.82607,-13.47774 69.82273,3.87522 54.66383,106.73209 -2.54394,100.77982 -24.16432,-2.51421 -35.20255,-16.4047 -62.85013,-11.84737 -16.17745,2.66663 -33.34984,14.94432 -42.23889,30.8202 -7.09751,-8.52803 -11.19921,-14.43768 -15.02602,-19.89814 9.17735,-15.30428 28.13944,-28.41754 47.82242,-31.49951 45.2419,-7.08399 49.73638,11.70607 74.95422,10.86951 33.85117,-1.12295 34.46501,-58.20806 -3.13858,-58.30193 -20.10764,-0.0502 -31.34707,14.14021 -59.85691,12.3182 -40.48637,-2.58743 -57.86939,-29.16879 -52.01139,-62.4771 3.95931,-22.51241 24.94762,-36.42016 49.87433,-36.49249 23.83884,-0.0692 36.77725,11.75065 57.19843,14.81216 40.90408,6.13224 43.56363,-58.37585 7.0837,-59.49277 -19.23217,-0.58883 -34.84264,14.14182 -63.55982,13.38503 -39.84746,-1.05011 -57.52148,-24.84613 -56.15467,-53.57084 1.2642,-26.56829 17.72354,-44.467641 51.22395,-45.180043 27.36986,-0.582033 41.01987,12.819433 66.45811,12.402003 36.11985,-0.59271 41.76245,-54.845948 0.32951,-55.871216 C 206.81098,47.906616 196.90688,65.132568 165.6187,63.703698 124.00196,61.803139 109.76086,36.967537 111.79651,1.005333 z"
     id="path2827"
     style="fill:#f2f2f2;fill-opacity:1;stroke:none" />
</svg>
