<?xml version="1.0" encoding="UTF-8" standalone="no"?>
<!-- Created with Inkscape (http://www.inkscape.org/) -->

<svg
   xmlns:svg="http://www.w3.org/2000/svg"
   xmlns="http://www.w3.org/2000/svg"
   xmlns:xlink="http://www.w3.org/1999/xlink"
   version="1.1"
   width="390"
   height="480"
   id="svg4228">
  <defs
     id="defs4232">
    <linearGradient
       id="linearGradient3653">
      <stop
         id="stop3655"
         style="stop-color:#ffffff;stop-opacity:1"
         offset="0" />
      <stop
         id="stop3657"
         style="stop-color:#ffffff;stop-opacity:0"
         offset="1" />
    </linearGradient>
    <linearGradient
       x1="0"
       y1="109.87704"
       x2="390"
       y2="109.87704"
       id="linearGradient2991"
       xlink:href="#linearGradient3653"
       gradientUnits="userSpaceOnUse" />
  </defs>
  <path
     d="M 0,0 C 130,0 260,0 390,0 389.98981,114.99797 370.78556,350.14732 194.88837,479.99815 20.79131,350.08886 0.081386,115.02225 0,0 z"
     id="path4240-0"
     style="color:#000000;fill:#207dbf;fill-opacity:1;fill-rule:nonzero;stroke:none;marker:none;visibility:visible;display:inline;overflow:visible;enable-background:accumulate" />
  <path
     d="m 220.67797,286.08051 c 0.77991,-19.22247 -37.91202,-35.79091 -51.86441,-2.60593 1.05023,-6.07058 6.99729,-13.23247 12.0527,-16.03001 22.10822,-24.03839 53.10456,-39.5395 84.17611,-39.64796 -1.37847,7.16733 1.65768,11.02369 4.19492,15.25424 2.26744,-4.76603 4.57866,-9.17376 8.83474,-12.58475 -0.53783,6.06315 2.91081,11.60633 10.1695,16.65254 1.82014,-10.60428 5.36325,-17.57118 10.23305,-21.73728 -2.3052,11.80361 1.15922,24.80101 11.05932,32.09745 2.87324,-47.99311 34.54264,-43.92733 37.02476,-102.61977 4.5888,2.978 13.70625,16.20121 13.70625,16.20121 1.13275,-13.72822 1.75537,-27.13951 -3.41568,-41.97697 -11.28444,-32.378758 -58.1898,-79.749275 -84.13372,-107.144653 -6.00838,-6.344528 -27.17992,-0.795887 -24.53901,5.752733 4.33166,10.741139 16.40561,22.18881 6.20217,30.381622 -4.57411,3.672762 -10.60804,-0.153987 -15.2807,-10.247056 -3.84943,-8.314869 -11.93457,0.546902 -9.54868,12.676636 2.22198,11.296398 13.68319,13.19619 17.72835,21.030785 4.09697,7.934934 7.23419,16.472444 13.64159,25.177513 1.33915,-3.41906 3.42037,-6.39283 7.03229,-7.649654 -15.16282,8.694744 -10.0251,45.985834 20.67389,42.696064 -5.09703,1.68788 -13.91013,0.85879 -20.89903,-5.28541 -24.63653,-8.39198 -37.14839,-15.9537 -57.93139,-50.713849 4.41246,-0.880635 7.56624,-4.530362 10.81942,-7.961398 -6.00322,-0.766011 -11.89268,-1.805028 -16.7161,-5.402542 8.39769,-3.919492 10.3781,-7.838983 14.3644,-11.758475 -8.97984,-0.547348 -18.14813,-0.885313 -25.04237,-3.75 8.16402,-3.042039 15.99194,-9.444955 23.19915,-22.055085 -43.6342,15.155965 -70.76125,-12.283405 -105.44491,7.881356 3.35032,-7.85339 9.59311,-13.290328 17.28813,-21.991525 -19.34502,6.542766 -36.118163,15.158666 -48.050845,33.940678 -17.504333,27.551779 -41.075872,68.50039 -53.389831,110.97457 -1.600948,5.5221 8.503725,25.8813 15.4246,19.26718 8.332564,-7.96324 16.500345,-24.33463 25.258094,-21.12332 6.586114,2.41501 11.087144,10.48471 1.707843,20.31433 -7.563057,7.92618 8.950034,13.54589 14.304378,4.93164 8.739411,-14.06026 16.607461,-31.29879 26.105911,-44.54748 -3.6142,0.24872 -7.0505,-0.3303 -8.3093,-1.91438 10.11732,5.27211 44.53183,-3.43719 26.44067,-44.173727 4.87292,7.596347 7.86132,19.611127 4.77408,29.789847 6.46265,28.28451 -0.86093,66.22331 -20.85458,86.33303 -2.61936,-4.3183 -8.42769,-6.99453 -13.538136,-6.92796 3.020416,2.85156 8.630246,10.50266 8.262716,17.66949 -8.570055,-7.15827 -13.048221,-10.64817 -23.453394,-8.83475 7.422857,5.9184 13.363337,13.33219 13.283898,23.45339 -6.907568,-7.95432 -19.662153,-12.68168 -33.432204,-8.00848 34.875843,18.09965 11.584035,71.93764 68.07203,90.50848 -12.5303,3.00511 -17.29732,2.07918 -24.5339,1.33475 8.85903,10.25145 28.39367,23.69736 57.2034,20.7839 40.95202,-4.14137 87.01323,1.75925 122.66033,-14.06259 8.09912,-3.59477 9.33421,-20.99219 1.25841,-21.75252 -10.54531,-0.99283 -27.71834,2.64302 -27.8648,-11.9549 -0.10301,-10.26742 9.42534,-13.96587 18.06718,-9.9774 7.08734,3.27102 4.24816,-17.93945 -8.17967,-16.44922 -19.03166,2.28209 -29.51811,8.52527 -52.02884,4.87381 3.10999,3.40882 4.20871,9.09835 3.22722,10.9118 z"
     id="path3638"
     style="fill:#ececec;stroke:none" />
  <path
     d="m 246.99153,38.802969 4.73517,-3.209746 c 1.71852,3.012111 5.45669,9.508393 5.56144,11.663135 l -2.67259,0.843425 -7.62402,-9.296814 z"
     id="path4150"
     style="fill:#f2f2f2;stroke:none" />
  <path
     d="m 49.728419,185.14031 -4.268411,-2.84545 c 2.439067,-2.90923 6.752927,-8.57942 8.013716,-9.89395 l 2.034209,2.19645 -5.779514,10.54295 z"
     id="path4150-4"
     style="fill:#ececec;stroke:none" />
  <path
     d="m 283.29411,307.96281 c -4.23353,0.10645 -11.4525,-0.0129 -13.44902,-0.75912 l 1.29663,-2.78089 11.95007,-0.88539 0.20232,4.4254 z"
     id="path4150-4-0"
     style="fill:#f2f2f2;stroke:none" />
  <path
     d="m 70.787089,95.848867 c 0,0 1.272588,-1.441427 4.654445,-2.155212 -7.145863,-1.27977 -16.841968,10.277295 -13.237235,17.269525 -0.09898,-2.01942 -0.268224,-2.48214 0.512694,-3.90242 6.562033,3.95908 12.839253,-5.07859 8.070084,-11.211877 l -7e-6,-1.3e-5 1.9e-5,-3e-6 z"
     id="path4205-8"
     style="fill:#207dbf;fill-opacity:1;stroke:none" />
  <path
     d="m 38.448059,159.3237 c 2.492194,-8.72512 11.03178,-4.12166 8.012794,5.47484 1.936232,-3.19472 1.29692,-9.19634 -0.74936,-10.59975 -2.702709,-1.85365 -6.946384,-0.5843 -7.26343,5.12491 z"
     id="path4246"
     style="fill:#207dbf;fill-opacity:1;stroke:none" />
  <use
     transform="matrix(-0.1739596,1.0114697,-1.0136526,-0.17446505,441.27853,21.51819)"
     id="use3773"
     x="0"
     y="0"
     width="390"
     height="480"
     xlink:href="#path4246" />
  <use
     transform="matrix(-0.30110152,0.95359209,-0.95359209,-0.30110152,433.61942,53.357155)"
     id="use3771"
     x="0"
     y="0"
     width="390"
     height="480"
     xlink:href="#path4205-8" />
  <use
     transform="matrix(-0.61592812,-0.78780236,0.78780236,-0.61592812,165.40764,446.52708)"
     id="use3769"
     x="0"
     y="0"
     width="390"
     height="480"
     xlink:href="#path4205-8" />
  <use
     transform="matrix(-0.78654934,-0.69720678,0.80962241,-0.67733739,174.77612,460.26857)"
     id="use3775"
     x="0"
     y="0"
     width="390"
     height="480"
     xlink:href="#path4246" />
</svg>
