<?xml version="1.0" encoding="UTF-8" standalone="no"?>
<!-- Created with Inkscape (http://www.inkscape.org/) -->

<svg
   xmlns:svg="http://www.w3.org/2000/svg"
   xmlns="http://www.w3.org/2000/svg"
   version="1.1"
   width="390"
   height="480"
   id="svg4228">
  <defs
     id="defs4232" />
  <path
     d="m 0.51202379,0.50512952 c 129.66265621,0 259.32532621,0 388.98797621,0 C 389.48983,115.23328 370.33544,349.8309 194.89467,479.37706 21.249382,349.77255 0.5931986,115.2575 0.51202379,0.50512952 z"
     id="path4240-0-1"
     style="fill:#207dbf;fill-opacity:1;stroke:#999999;stroke-width:0.99999905;stroke-opacity:1" />
  <path
     d="m 8.794484,119.90551 40.394747,0 -0.127174,28.18819 38.007809,-0.12712 -0.127174,-28.02929 45.967088,-0.0318 0.0636,28.18819 41.11163,-0.12712 -0.12716,-28.09284 44.15784,0.0318 -4e-5,28.12463 40.03664,0 -0.032,-28.12463 45.11165,-0.0318 -0.15897,28.1564 38.06545,0 -0.17211,-28.13587 40.53636,4e-5 c -3.88402,32.12844 -14.44818,88.96488 -28.94929,130.10792 l -314.492882,-1e-5 C 25.776213,213.08685 15.658778,170.33942 8.794484,119.90551 z"
     id="path2827"
     style="fill:#ececec;fill-opacity:1;stroke:none" />
</svg>
