<?xml version="1.0" encoding="UTF-8" standalone="no"?>
<!-- Created with Inkscape (http://www.inkscape.org/) -->

<svg
   xmlns:dc="http://purl.org/dc/elements/1.1/"
   xmlns:cc="http://creativecommons.org/ns#"
   xmlns:rdf="http://www.w3.org/1999/02/22-rdf-syntax-ns#"
   xmlns:svg="http://www.w3.org/2000/svg"
   xmlns="http://www.w3.org/2000/svg"
   version="1.1"
   width="390"
   height="480"
   id="svg4228">
  <metadata
     id="metadata18">
    <rdf:RDF>
      <cc:Work
         rdf:about="">
        <dc:format>image/svg+xml</dc:format>
        <dc:type
           rdf:resource="http://purl.org/dc/dcmitype/StillImage" />
        <dc:title></dc:title>
      </cc:Work>
    </rdf:RDF>
  </metadata>
  <defs
     id="defs4232" />
  <path
     d="m 0.51202379,0.50512952 c 129.66265621,0 259.32532621,0 388.98797621,0 C 389.48983,115.23328 370.33544,349.8309 194.89467,479.37706 21.249382,349.77255 0.5931986,115.2575 0.51202379,0.50512952 z"
     id="path4240-0"
     style="fill:#faf700;fill-opacity:1;stroke:#9e832a;stroke-width:0.99999905;stroke-opacity:1" />
  <path
     d="m 47.323994,229.4676 c 14.46739,6.37792 33.769237,3.59747 51.792687,3.23883 L 87.284391,198.5872 c -15.18989,7.85014 -29.544437,16.79185 -39.960397,30.8804 z"
     id="path4424-2-1"
     style="fill:#d61a1a;fill-opacity:1;stroke:#000000;stroke-width:1px;stroke-linecap:butt;stroke-linejoin:miter;stroke-opacity:1" />
  <path
     d="m 200.07051,337.08814 c -11.09173,-11.2675 -15.33323,-30.30173 -21.38619,-47.28217 l 36.098,-1.02927 c -1.95651,16.98615 -5.22981,33.57811 -14.71181,48.31144 z"
     id="path4424-2-8"
     style="fill:#d61a1a;fill-opacity:1;stroke:#000000;stroke-width:1px;stroke-linecap:butt;stroke-linejoin:miter;stroke-opacity:1" />
  <path
     d="M 166.00353,318.06892 C 144.02778,318.85979 130.8995,297.47036 122.79286,290.4661 106.5291,276.41398 96.2445,287.55186 81.020813,259.93759 73.058668,245.49504 77.301456,218.3511 90.470581,213.90983 l 106.990939,-36.08253 1.83869,104.48889 c 0.34686,19.71151 -12.98473,35.02174 -33.29668,35.75273 z"
     id="path4272"
     style="fill:#d61a1a;fill-opacity:1;stroke:#000000;stroke-width:1px;stroke-linecap:butt;stroke-linejoin:miter;stroke-opacity:1" />
  <path
     d="m 342.95491,225.06855 c -14.46739,6.37792 -33.76924,3.59747 -51.79269,3.23883 l 11.83229,-34.11923 c 15.18989,7.85014 29.54444,16.79185 39.9604,30.8804 z"
     id="path4424-2"
     style="fill:#d61a1a;fill-opacity:1;stroke:#000000;stroke-width:1px;stroke-linecap:butt;stroke-linejoin:miter;stroke-opacity:1" />
  <path
     d="m 237.71312,318.3239 c 21.94353,-1.42626 32.8094,-23.40834 40.15556,-30.98624 14.73804,-15.20295 26.11239,-5.46315 38.42416,-33.67057 6.43918,-14.75276 -1.22125,-36.02312 -14.35902,-40.4777 l -103.92997,-35.23917 1.20807,108.95724 c 0.21238,19.15467 18.21903,32.73471 38.5012,31.41644 z"
     id="path4272-5"
     style="fill:#d61a1a;fill-opacity:1;stroke:#000000;stroke-width:0.98578185px;stroke-linecap:butt;stroke-linejoin:miter;stroke-opacity:1" />
  <path
     d="m 284.55508,53.516949 c -15.62466,2.419334 -30.3893,15.158942 -45.38136,25.169492 l 28.34746,22.372889 c 8.56939,-14.796039 15.84702,-30.061802 17.0339,-47.542381 z"
     id="path4424-1"
     style="fill:#d61a1a;fill-opacity:1;stroke:#000000;stroke-width:1px;stroke-linecap:butt;stroke-linejoin:miter;stroke-opacity:1" />
  <path
     d="m 337.12363,187.28047 c 6.71236,-20.99719 -10.32252,-39.47717 -14.86972,-49.20396 -9.1227,-19.51415 4.38397,-26.41694 -18.07565,-48.609782 C 292.43164,77.859646 267.8464,76.082569 259.79192,87.437984 l -63.8186,89.973026 97.44739,32.83999 c 18.68828,6.29799 37.49877,-3.56307 43.70292,-22.97053 z"
     id="path4272-5-5"
     style="fill:#d61a1a;fill-opacity:1;stroke:#000000;stroke-width:1.00134897px;stroke-linecap:butt;stroke-linejoin:miter;stroke-opacity:1" />
  <path
     d="m 100.29661,52.499999 c 15.62466,2.419334 30.3893,15.158942 45.38136,25.169492 L 117.33051,100.04237 C 108.76112,85.246341 101.48349,69.980578 100.29661,52.499999 z"
     id="path4424"
     style="fill:#d61a1a;fill-opacity:1;stroke:#000000;stroke-width:1px;stroke-linecap:butt;stroke-linejoin:miter;stroke-opacity:1" />
  <path
     d="m 53.280915,189.29336 c -6.71236,-20.99718 10.32252,-39.47716 14.86972,-49.20395 9.1227,-19.51415 -4.38397,-26.41694 18.075653,-48.609787 11.74662,-11.607082 36.270322,-13.433045 44.163892,-1.965185 l 61.98908,90.058392 -95.665082,32.15174 C 78.02072,218.00719 59.485065,208.70082 53.280915,189.29336 z"
     id="path4272-5-5-1"
     style="fill:#d61a1a;fill-opacity:1;stroke:#000000;stroke-width:1.00134897px;stroke-linecap:butt;stroke-linejoin:miter;stroke-opacity:1" />
  <path
     d="M 247.12793,49.919253 C 229.32471,36.919902 206.41105,47.2476 195.74605,48.490633 174.34963,50.984426 172.06514,35.989102 143.91559,50.291536 129.19308,57.771864 119.76998,73.351477 127.55665,84.89218 l 65.79512,97.51562 60.98484,-86.35163 c 11.37658,-16.10869 9.24663,-34.121774 -7.20868,-46.136917 z"
     id="path4272-5-5-11"
     style="fill:#d61a1a;fill-opacity:1;stroke:#000000;stroke-width:1.00134897px;stroke-linecap:butt;stroke-linejoin:miter;stroke-opacity:1" />
  <path
     d="m 238.98305,176.18645 a 45,45 0 1 1 -90,0 45,45 0 1 1 90,0 z"
     transform="matrix(0.99435028,0,0,1.0112994,2.875611,2.0769893)"
     id="path4550"
     style="opacity:0.98999999;fill:#d61a1a;fill-opacity:1;fill-rule:evenodd;stroke:#000000;stroke-opacity:1" />
</svg>
