<?xml version="1.0" encoding="UTF-8" standalone="no"?>
<!-- Created with Inkscape (http://www.inkscape.org/) -->

<svg
   xmlns:dc="http://purl.org/dc/elements/1.1/"
   xmlns:cc="http://creativecommons.org/ns#"
   xmlns:rdf="http://www.w3.org/1999/02/22-rdf-syntax-ns#"
   xmlns:svg="http://www.w3.org/2000/svg"
   xmlns="http://www.w3.org/2000/svg"
   version="1.1"
   width="390"
   height="480"
   id="svg4228">
  <metadata
     id="metadata8">
    <rdf:RDF>
      <cc:Work
         rdf:about="">
        <dc:format>image/svg+xml</dc:format>
        <dc:type
           rdf:resource="http://purl.org/dc/dcmitype/StillImage" />
        <dc:title></dc:title>
      </cc:Work>
    </rdf:RDF>
  </metadata>
  <defs
     id="defs4232" />
  <path
     d="m 0.51202379,0.50512952 c 129.66265621,0 259.32532621,0 388.98797621,0 C 389.48983,115.23328 370.33544,349.8309 194.89467,479.37706 21.249382,349.77255 0.5931986,115.2575 0.51202379,0.50512952 z"
     id="path4240-0"
     style="fill:#008c31;fill-opacity:1;stroke:#9e832a;stroke-width:0.99999905;stroke-opacity:1" />
  <path
     d="m 43.760459,21.274586 c 7.458194,64.997914 9.54776,141.113574 21.5127,209.023764 8.613094,48.88589 36.353991,86.4871 82.978601,97.6031 10.01696,2.38819 13.57984,5.4892 17.03386,14.74657 3.45403,9.25738 -3.10994,48.11387 6.8644,54.28261 l -0.91097,62.68633 c 5.53099,4.88679 16.78082,14.0944 23.64952,19.18655 6.35728,-4.66722 18.3553,-14.1929 23.84039,-19.12894 l -0.30786,-62.77572 c 11.52115,-5.78685 7.02512,-37.40318 7.37286,-52.47108 0.21235,-9.20131 7.19645,-18.22361 18.30505,-18.94171 37.18695,-2.40395 67.06619,-44.11157 70.42358,-64.07129 13.33658,-79.28615 27.81824,-190.184864 30.5084,-239.758806 -16.08708,-2.597436 -27.11334,166.494316 -48.55921,235.182286 -7.88904,25.26744 -27.95621,48.12799 -57.45751,48.81621 -31.13985,0.72645 -33.21741,-34.03013 -33.81348,-48.05346 -3.38983,-79.7501 -1.65116,-231.434216 -10.16947,-239.250301 -8.83416,9.065994 -7.36672,158.654301 -9.66099,238.487551 -1.21422,42.25066 -13.57132,49.35159 -33.81349,48.81621 -24.59985,-0.6506 -57.240241,-36.12702 -63.813426,-59.2405 C 66.978483,173.39766 61.332792,18.587682 43.760459,21.274586 z"
     id="path3700"
     style="fill:#faf700;fill-opacity:1;stroke:none" />
</svg>
