<?xml version="1.0" encoding="UTF-8" standalone="no"?>
<!-- Created with Inkscape (http://www.inkscape.org/) -->

<svg
   xmlns:dc="http://purl.org/dc/elements/1.1/"
   xmlns:cc="http://creativecommons.org/ns#"
   xmlns:rdf="http://www.w3.org/1999/02/22-rdf-syntax-ns#"
   xmlns:svg="http://www.w3.org/2000/svg"
   xmlns="http://www.w3.org/2000/svg"
   version="1.1"
   width="369"
   height="480"
   id="svg4694">
  <metadata
     id="metadata9">
    <rdf:RDF>
      <cc:Work
         rdf:about="">
        <dc:format>image/svg+xml</dc:format>
        <dc:type
           rdf:resource="http://purl.org/dc/dcmitype/StillImage" />
        <dc:title></dc:title>
      </cc:Work>
    </rdf:RDF>
  </metadata>
  <defs
     id="defs4698" />
  <path
     d="M 183.62312,479.41332 368.1418,369.09764 368.63133,0.48408403 0.42573054,0.48018725 0.92377309,369.05959 z"
     id="path2986"
     style="fill:#faf700;fill-opacity:1;stroke:#9e832a;stroke-width:0.99784434px;stroke-linecap:butt;stroke-linejoin:miter;stroke-opacity:1" />
  <path
     d="m 207.51877,93.625869 c 12.2788,1.56891 29.50459,8.495131 40.86798,16.294701 l 53.48315,0 -0.12964,15.50599 -26.93883,0.12964 c 13.20128,6.24371 23.78882,24.73166 27.99002,34.6918 l 40.45784,21.77353 -8.98548,14.82338 -25.49302,-18.06836 c 6.96191,12.17488 9.99699,32.76899 9.92119,47.83257 l 22.86465,38.89662 -13.92913,7.8843 -12.61513,-25.36164 c -2.13714,16.07204 -8.07939,30.35362 -16.16332,43.62735 l -0.12927,45.99305 -16.0318,0.12964 0.52572,-27.20188 c -10.41786,14.9365 -22.7608,23.54569 -35.61165,30.48746 l -22.33962,38.63364 -14.06042,-9.19896 16.42593,-24.17908 c -21.406,10.98149 -33.74167,9.49152 -47.04404,9.33035 l -38.23971,22.33962 -9.19866,-14.45539 26.93876,-13.929 c -18.0274,-1.30562 -31.34447,-7.58291 -43.10179,-15.50651 l -47.569861,1.44612 0,-16.55763 28.909633,0.26278 C 81.836737,309.59038 73.140086,296.95324 69.149246,287.18708 l -41.787804,-24.57328 8.804302,-14.45493 23.3906,13.27213 c -4.763053,-13.61303 -7.534731,-27.4752 -6.7019,-41.78764 l -24.441854,-40.86791 13.929209,-8.93567 14.586384,25.62451 c 1.963835,-14.76657 7.340378,-27.09578 14.191932,-38.37104 l -0.394262,-51.38067 15.243467,0.12964 -0.26279,30.74941 c 9.343123,-11.54701 20.3553,-21.61056 32.85174,-30.35524 l 24.70464,-43.101732 14.45534,9.06737 -14.32395,25.36176 c 13.14346,-6.117807 26.9378,-8.328612 41.13088,-8.14775 l 42.57617,-25.361594 7.22728,14.192428 -26.80688,15.374418 z"
     id="path3833"
     style="fill:#d61a1a;fill-opacity:1;stroke:none" />
  <path
     d="m 215.92915,190.99925 c -4.2671,-6.68592 -12.06243,-10.47817 -19.18587,-10.51278 l 0,-50.59195 c 22.31096,-1.18172 51.66741,18.74852 62.9446,35.21742 l -43.75873,25.88731 z"
     id="path3721"
     style="fill:#faf700;fill-opacity:1;stroke:none" />
  <path
     d="m 153.77285,190.99925 c 3.98089,-5.94543 11.17859,-9.61217 19.18593,-10.51278 l 0,-50.59195 c -22.31108,-1.18172 -51.66754,18.74852 -62.9448,35.21742 l 43.75887,25.88731 z"
     id="path3721-0"
     style="fill:#faf700;fill-opacity:1;stroke:none" />
  <path
     d="m 215.92915,253.2366 c -4.95421,7.13935 -10.60929,9.85343 -19.18587,10.51239 l 0,50.59237 c 22.31096,1.18131 51.66741,-18.74854 62.9446,-35.21741 L 215.92915,253.2366 z"
     id="path3721-9"
     style="fill:#faf700;fill-opacity:1;stroke:none" />
  <path
     d="m 153.9851,252.67881 c 4.95421,7.13974 10.60913,9.85373 19.18587,10.51278 l 0,50.59191 c -22.31108,1.18175 -51.66754,-18.74851 -62.94475,-35.21703 l 43.75888,-25.88766 z"
     id="path3721-9-4"
     style="fill:#faf700;fill-opacity:1;stroke:none" />
  <path
     d="m 144.59177,211.35701 c -3.71148,7.8576 -3.23848,14.11226 0.47344,21.87177 l -43.83137,25.26605 C 89.068095,239.75512 91.6739,204.36875 100.3101,186.37397 l 44.28167,24.98304 z"
     id="path3721-9-4-8"
     style="fill:#faf700;fill-opacity:1;stroke:none" />
  <path
     d="m 227.53582,210.90137 c 3.71098,7.85756 3.23848,14.11227 -0.47391,21.87173 l 43.83138,25.2661 c 12.16613,-18.73938 9.5599,-54.12607 0.92375,-72.12088 l -44.28122,24.98305 z"
     id="path3721-9-4-8-8"
     style="fill:#faf700;fill-opacity:1;stroke:none" />
  <path
     d="m 228.39549,224.02734 a 45.254833,43.840622 0 1 1 -90.50967,0 45.254833,43.840622 0 1 1 90.50967,0 z"
     transform="matrix(0.98777256,0,0,1.0544084,5.068545,-15.281395)"
     id="path3777"
     style="fill:#d61a1a;fill-opacity:1;stroke:none" />
  <rect
     width="33.224442"
     height="32.993805"
     x="-35.402924"
     y="270.97009"
     transform="matrix(0.69687304,-0.71719451,0.68926906,0.72450546,0,0)"
     id="rect3719"
     style="fill:#faf700;fill-opacity:1;stroke:none" />
</svg>
