<?xml version="1.0" encoding="UTF-8" standalone="no"?>
<!-- Created with Inkscape (http://www.inkscape.org/) -->
<svg
   xmlns:svg="http://www.w3.org/2000/svg"
   xmlns="http://www.w3.org/2000/svg"
   version="1.0"
   width="474.37332"
   height="600"
   id="svg2">
  <defs
     id="defs4">
    <clipPath
       id="clipPath2516">
      <path
         d="M 0,0 L 0,0 L 0,0 L 0,0 z"
         id="path2518" />
    </clipPath>
    <clipPath
       id="clipPath2500">
      <path
         d="M 0,0 L 0,0 L 0,0 L 0,0 z"
         id="path2502" />
    </clipPath>
  </defs>
  <g
     transform="translate(1.1585771e-7,-8.3071009e-6)"
     id="layer1">
    <g
       transform="matrix(1.25,0,0,-1.25,55.67417,991.5332)"
       id="g2414" />
    <g
       transform="matrix(0.6792909,0,0,0.6792909,-13.573278,-87.720369)"
       id="g2665">
      <g
         transform="matrix(1.0451594,0,0,1.0451594,-38.207104,-23.901674)"
         id="g2704">
        <path
           d="M 723.83667,146.42445 L 55.67442,146.42445 L 55.67442,657.3082 L 55.67667,657.3082 C 55.67667,657.3557 55.67442,657.40445 55.67442,657.4532 C 55.67442,841.96195 205.24667,991.53382 389.75542,991.53382 C 574.26167,991.53382 723.83667,841.96195 723.83667,657.4532 C 723.83667,657.40445 723.83542,657.3557 723.83542,657.3082 L 723.83667,657.3082 L 723.83667,146.42445 z"
           id="path2418"
           style="fill:#ed1c24;fill-opacity:1;fill-rule:nonzero;stroke:none" />
        <g
           transform="matrix(1.25,0,0,-1.25,55.67417,991.5332)"
           id="g2420">
          <path
             d="M 405.196,170.873 C 405.196,170.873 434.204,170.091 466.606,194.705 C 506.481,224.992 495.077,282.951 495.077,282.951 C 486.505,257.678 466.727,232.845 439.038,219.878 C 411.346,206.913 386.198,211.65 386.198,211.65 C 386.198,211.65 399.042,215.704 414.645,222.077 C 464.551,242.46 463.651,282.95 463.651,282.95 C 448.706,257.676 425.852,253.722 410.909,252.842 C 395.965,251.962 362.169,252.941 362.169,252.941 C 329.423,252.062 314.214,233.284 308.06,227.35 C 305.102,224.498 303.134,223.686 302.073,223.444 L 302.073,223.444 C 302.073,223.444 306.953,231.199 312.02,243.304 C 317.089,255.411 314.272,261.043 314.272,261.043 C 314.272,261.043 301.604,251.188 290.624,243.868 C 279.643,236.547 277.11,225.005 277.11,225.005 C 277.11,225.005 264.344,231.48 248.296,228.665 C 232.248,225.849 216.673,205.956 204.285,191.035 C 191.898,176.113 180.541,170.668 180.541,170.668 C 185.609,168.134 200.249,167.289 212.073,172.919 C 223.898,178.55 233.47,185.996 244.169,198.384 C 254.867,210.773 269.226,215.432 269.226,215.432 C 269.226,215.432 257.294,200.978 244.45,185.589 C 229.398,167.554 207.599,148.425 191.833,137.164 C 176.067,125.902 180.259,108.447 181.667,104.787 C 183.074,101.127 189.55,91.273 196.026,94.933 C 202.501,98.593 208.851,106.195 211.384,108.166 C 213.918,110.136 218.362,114.095 226.527,110.435 C 234.692,106.775 235.462,103.705 231.801,100.326 C 228.141,96.947 220.365,90.404 215.759,88.019 C 212.358,86.259 208.287,82.527 214.888,79.73 C 223.583,76.048 233.189,77.603 239.382,81.826 C 245.576,86.048 246.139,88.459 249.236,93.525 C 252.334,98.593 254.586,101.816 259.935,103.224 C 265.284,104.632 286.084,108.677 305.546,123.087 C 320.211,133.947 324.971,144.203 324.971,144.203 C 314.653,117.908 295.691,107.322 295.691,107.322 C 303.856,84.517 312.02,72.974 312.02,72.974 C 313.991,102.253 328.631,113.515 335.106,117.175 C 341.582,120.835 354.809,122.371 366.921,119.427 C 397.046,112.107 428.423,117.581 428.423,117.581 C 428.423,117.581 415.95,118.357 395.411,135.597 C 406.883,133.205 433.147,129.902 453.958,143.597 C 487.385,165.599 495.174,197.023 495.174,197.023 C 495.174,197.023 478.376,183.619 457.938,175.706 C 426.747,163.63 405.196,170.873 405.196,170.873 z"
             id="path2422"
             style="fill:#ffffff;fill-opacity:1;fill-rule:nonzero;stroke:none" />
        </g>
        <g
           transform="matrix(1.25,0,0,-1.25,55.67417,991.5332)"
           id="g2424">
          <path
             d="M 194.903,122.828 C 192.141,122.828 189.492,122.132 188.689,115.992 C 187.844,109.531 191.787,103.283 193.454,106.464 C 195.732,110.814 198.77,115.855 198.563,119.584 C 198.437,121.849 197.208,122.828 194.903,122.828 z"
             id="path2426"
             style="fill:#ed1c24;fill-opacity:1;fill-rule:nonzero;stroke:none" />
        </g>
        <g
           transform="matrix(1.25,0,0,-1.25,55.67417,991.5332)"
           id="g2428">
          <path
             d="M 263.447,174.826 C 263.447,174.826 268.282,171.089 269.381,165.595 C 269.381,165.595 263.447,162.739 259.711,164.498 C 255.975,166.255 259.052,175.485 261.689,177.902 C 264.326,180.32 269.82,183.396 273.337,180.54 C 276.854,177.683 273.997,170.431 273.997,170.431 C 273.997,170.431 270.7,176.584 263.447,174.826 z"
             id="path2430"
             style="fill:#ed1c24;fill-opacity:1;fill-rule:nonzero;stroke:none" />
        </g>
        <g
           transform="matrix(1.25,0,0,-1.25,55.67417,991.5332)"
           id="g2432">
          <path
             d="M 359.485,180.103 C 359.485,180.103 379.264,182.3 394.208,189.113 C 394.208,189.113 376.477,186.526 366.737,187.134 C 361.401,187.468 352.2,189.388 346.727,189.335 C 352.368,183.328 358.606,176.097 365.44,167.382 C 364.893,169.896 363.426,174.556 359.485,180.103 z"
             id="path2434"
             style="fill:#ed1c24;fill-opacity:1;fill-rule:nonzero;stroke:none" />
        </g>
        <g
           transform="matrix(1.25,0,0,-1.25,55.67417,991.5332)"
           id="g2436">
          <path
             d="M 332.233,209.55 C 332.233,209.55 349.596,209.99 366.298,220.099 C 366.298,220.099 349.108,214.091 326.96,216.363 C 320.323,217.044 315.151,216.802 313.147,216.66 C 318.165,214.271 326.876,208.914 339.139,197.054 C 338.524,199.669 336.834,204.505 332.233,209.55 z"
             id="path2438"
             style="fill:#ed1c24;fill-opacity:1;fill-rule:nonzero;stroke:none" />
        </g>
        <g
           transform="matrix(1.25,0,0,-1.25,55.67417,991.5332)"
           id="g2440">
          <path
             d="M 387.985,142.25 C 387.485,143.96 386.356,147.437 384.757,149.996 C 384.757,149.996 408.272,149.117 416.622,152.853 C 416.622,152.853 394.667,151.525 383.438,156.808 C 380.003,158.425 375.26,161.337 370.073,161.623 C 376.462,153.888 382.454,147.507 387.985,142.25 z"
             id="path2442"
             style="fill:#ed1c24;fill-opacity:1;fill-rule:nonzero;stroke:none" />
        </g>
        <g
           transform="matrix(1.25,0,0,-1.25,55.67417,991.5332)"
           id="g2444">
          <path
             d="M 331.091,350.429 C 331.091,350.429 360.099,349.649 392.502,374.262 C 432.377,404.549 420.972,462.508 420.972,462.508 C 412.4,437.235 392.623,412.402 364.933,399.436 C 337.242,386.47 312.093,391.206 312.093,391.206 C 312.093,391.206 324.937,395.261 340.541,401.634 C 390.447,422.018 389.547,462.507 389.547,462.507 C 374.601,437.233 351.748,433.279 336.804,432.399 C 321.861,431.52 288.064,432.498 288.064,432.498 C 255.313,431.619 240.105,412.841 233.951,406.907 C 230.994,404.055 229.025,403.243 227.964,403.001 L 227.964,403.001 C 227.964,403.001 232.844,410.756 237.912,422.862 C 242.98,434.968 240.164,440.599 240.164,440.599 C 240.164,440.599 227.495,430.745 216.515,423.425 C 205.535,416.104 203.001,404.562 203.001,404.562 C 203.001,404.562 190.236,411.037 174.188,408.222 C 158.14,405.406 142.565,385.513 130.177,370.591 C 117.79,355.67 106.433,350.225 106.433,350.225 C 111.501,347.691 126.141,346.846 137.965,352.477 C 149.79,358.108 159.362,365.553 170.061,377.941 C 180.759,390.33 195.118,394.989 195.118,394.989 C 195.118,394.989 183.186,380.535 170.342,365.147 C 155.29,347.111 133.491,327.986 117.725,316.724 C 101.959,305.462 106.152,288.007 107.559,284.347 C 108.966,280.687 115.442,270.833 121.918,274.494 C 128.393,278.154 134.743,285.755 137.277,287.726 C 139.81,289.697 144.255,293.656 152.419,289.996 C 160.584,286.335 161.354,283.265 157.694,279.886 C 154.033,276.507 146.257,269.964 141.651,267.58 C 138.25,265.818 134.179,262.085 140.78,259.291 C 149.475,255.607 159.081,257.164 165.275,261.386 C 171.468,265.609 172.031,268.017 175.129,273.085 C 178.226,278.152 180.478,281.375 185.827,282.783 C 191.176,284.191 211.975,288.238 231.436,302.648 C 246.102,313.507 250.862,323.763 250.862,323.763 C 240.544,297.466 221.582,286.88 221.582,286.88 C 229.747,264.076 237.912,252.533 237.912,252.533 C 239.882,281.814 254.523,293.074 260.998,296.734 C 267.473,300.394 280.705,301.931 292.816,298.988 C 322.941,291.667 354.318,297.142 354.318,297.142 C 354.318,297.142 341.845,297.918 321.306,315.156 C 332.779,312.763 359.043,309.46 379.853,323.158 C 413.281,345.156 421.07,376.581 421.07,376.581 C 421.07,376.581 404.271,363.176 383.834,355.264 C 352.642,343.188 331.091,350.429 331.091,350.429 z"
             id="path2446"
             style="fill:#ffffff;fill-opacity:1;fill-rule:nonzero;stroke:none" />
        </g>
        <g
           transform="matrix(1.25,0,0,-1.25,55.67417,991.5332)"
           id="g2448">
          <path
             d="M 120.796,302.388 C 118.033,302.388 115.384,301.693 114.581,295.552 C 113.736,289.089 117.679,282.841 119.346,286.023 C 121.624,290.373 124.662,295.414 124.455,299.142 C 124.329,301.408 123.1,302.388 120.796,302.388 z"
             id="path2450"
             style="fill:#ed1c24;fill-opacity:1;fill-rule:nonzero;stroke:none" />
        </g>
        <g
           transform="matrix(1.25,0,0,-1.25,55.67417,991.5332)"
           id="g2452">
          <path
             d="M 189.339,354.383 C 189.339,354.383 194.174,350.647 195.273,345.153 C 195.273,345.153 189.339,342.296 185.603,344.054 C 181.867,345.812 184.944,355.042 187.581,357.459 C 190.218,359.877 195.712,362.954 199.228,360.097 C 202.745,357.24 199.888,349.988 199.888,349.988 C 199.888,349.988 196.591,356.141 189.339,354.383 z"
             id="path2454"
             style="fill:#ed1c24;fill-opacity:1;fill-rule:nonzero;stroke:none" />
        </g>
        <g
           transform="matrix(1.25,0,0,-1.25,55.67417,991.5332)"
           id="g2456">
          <path
             d="M 285.381,359.66 C 285.381,359.66 305.16,361.857 320.103,368.67 C 320.103,368.67 302.373,366.083 292.632,366.692 C 287.297,367.025 278.095,368.945 272.621,368.893 C 278.263,362.885 284.502,355.654 291.336,346.939 C 290.789,349.453 289.322,354.113 285.381,359.66 z"
             id="path2458"
             style="fill:#ed1c24;fill-opacity:1;fill-rule:nonzero;stroke:none" />
        </g>
        <g
           transform="matrix(1.25,0,0,-1.25,55.67417,991.5332)"
           id="g2460">
          <path
             d="M 258.125,389.108 C 258.125,389.108 275.49,389.547 292.193,399.656 C 292.193,399.656 275.003,393.649 252.851,395.92 C 246.214,396.601 241.042,396.36 239.039,396.216 C 244.056,393.828 252.767,388.472 265.03,376.612 C 264.415,379.227 262.725,384.063 258.125,389.108 z"
             id="path2462"
             style="fill:#ed1c24;fill-opacity:1;fill-rule:nonzero;stroke:none" />
        </g>
        <g
           transform="matrix(1.25,0,0,-1.25,55.67417,991.5332)"
           id="g2464">
          <path
             d="M 313.881,321.808 C 313.381,323.521 312.252,326.998 310.652,329.554 C 310.652,329.554 334.168,328.677 342.517,332.412 C 342.517,332.412 320.562,331.083 309.334,336.366 C 305.898,337.982 301.156,340.895 295.969,341.18 C 302.357,333.449 308.349,327.068 313.881,321.808 z"
             id="path2466"
             style="fill:#ed1c24;fill-opacity:1;fill-rule:nonzero;stroke:none" />
        </g>
        <g
           transform="matrix(1.25,0,0,-1.25,55.67417,991.5332)"
           id="g2468">
          <path
             d="M 250.976,525.985 C 250.976,525.985 279.989,525.205 312.391,549.817 C 352.266,580.104 340.862,638.063 340.862,638.063 C 332.29,612.791 312.512,587.958 284.823,574.992 C 257.127,562.025 231.978,566.762 231.978,566.762 C 231.978,566.762 244.822,570.816 260.425,577.189 C 310.337,597.574 309.436,638.063 309.436,638.063 C 294.491,612.789 271.633,608.835 256.689,607.955 C 241.745,607.076 207.949,608.054 207.949,608.054 C 175.202,607.175 159.994,588.396 153.84,582.463 C 150.883,579.611 148.913,578.799 147.852,578.557 L 147.852,578.557 C 147.852,578.557 152.733,586.311 157.801,598.417 C 162.869,610.523 160.053,616.155 160.053,616.155 C 160.053,616.155 147.384,606.301 136.404,598.981 C 125.424,591.66 122.89,580.118 122.89,580.118 C 122.89,580.118 110.125,586.593 94.077,583.777 C 78.03,580.962 62.454,561.068 50.067,546.147 C 37.679,531.226 26.323,525.78 26.323,525.78 C 31.39,523.247 46.03,522.402 57.855,528.033 C 69.679,533.664 79.252,541.109 89.95,553.497 C 100.648,565.885 115.007,570.545 115.007,570.545 C 115.007,570.545 103.075,556.091 90.232,540.702 C 75.179,522.667 53.38,503.539 37.614,492.277 C 21.848,481.015 26.041,463.56 27.448,459.9 C 28.856,456.24 35.332,446.386 41.807,450.046 C 48.282,453.706 54.632,461.308 57.166,463.279 C 59.699,465.25 64.144,469.208 72.308,465.548 C 80.473,461.888 81.243,458.818 77.583,455.439 C 73.923,452.06 66.147,445.517 61.54,443.132 C 58.139,441.372 54.069,437.639 60.67,434.843 C 69.364,431.161 78.97,432.716 85.164,436.939 C 91.358,441.162 91.921,443.571 95.018,448.638 C 98.115,453.706 100.367,456.928 105.716,458.336 C 111.065,459.745 131.864,463.791 151.325,478.201 C 165.991,489.06 170.752,499.316 170.752,499.316 C 160.433,473.02 141.471,462.434 141.471,462.434 C 149.636,439.629 157.801,428.086 157.801,428.086 C 159.772,457.367 174.412,468.627 180.887,472.288 C 187.362,475.948 200.59,477.484 212.701,474.541 C 242.825,467.22 274.205,472.695 274.205,472.695 C 274.205,472.695 261.73,473.47 241.191,490.71 C 252.664,488.317 278.932,485.014 299.743,498.71 C 333.171,520.711 340.96,552.136 340.96,552.136 C 340.96,552.136 324.161,538.731 303.723,530.819 C 272.528,518.744 250.976,525.985 250.976,525.985 z"
             id="path2470"
             style="fill:#ffffff;fill-opacity:1;fill-rule:nonzero;stroke:none" />
        </g>
        <g
           transform="matrix(1.25,0,0,-1.25,55.67417,991.5332)"
           id="g2472">
          <path
             d="M 40.685,477.941 C 37.923,477.941 35.274,477.246 34.471,471.105 C 33.626,464.643 37.569,458.395 39.235,461.577 C 41.514,465.926 44.551,470.967 44.344,474.696 C 44.218,476.961 42.989,477.941 40.685,477.941 z"
             id="path2474"
             style="fill:#ed1c24;fill-opacity:1;fill-rule:nonzero;stroke:none" />
        </g>
        <g
           transform="matrix(1.25,0,0,-1.25,55.67417,991.5332)"
           id="g2476">
          <path
             d="M 109.228,529.938 C 109.228,529.938 114.063,526.203 115.162,520.708 C 115.162,520.708 109.228,517.852 105.492,519.61 C 101.756,521.368 104.833,530.598 107.47,533.015 C 110.108,535.433 115.601,538.509 119.117,535.652 C 122.634,532.795 119.777,525.544 119.777,525.544 C 119.777,525.544 116.481,531.697 109.228,529.938 z"
             id="path2478"
             style="fill:#ed1c24;fill-opacity:1;fill-rule:nonzero;stroke:none" />
        </g>
        <g
           transform="matrix(1.25,0,0,-1.25,55.67417,991.5332)"
           id="g2480">
          <path
             d="M 205.265,535.215 C 205.265,535.215 225.044,537.413 239.987,544.226 C 239.987,544.226 222.257,541.639 212.517,542.248 C 207.181,542.581 197.981,544.5 192.508,544.448 C 198.148,538.441 204.386,531.21 211.22,522.495 C 210.674,525.008 209.206,529.669 205.265,535.215 z"
             id="path2482"
             style="fill:#ed1c24;fill-opacity:1;fill-rule:nonzero;stroke:none" />
        </g>
        <g
           transform="matrix(1.25,0,0,-1.25,55.67417,991.5332)"
           id="g2484">
          <path
             d="M 178.014,564.664 C 178.014,564.664 195.376,565.103 212.077,575.212 C 212.077,575.212 194.889,569.205 172.74,571.476 C 166.104,572.157 160.931,571.916 158.928,571.772 C 163.945,569.384 172.656,564.027 184.919,552.167 C 184.304,554.782 182.614,559.619 178.014,564.664 z"
             id="path2486"
             style="fill:#ed1c24;fill-opacity:1;fill-rule:nonzero;stroke:none" />
        </g>
        <g
           transform="matrix(1.25,0,0,-1.25,55.67417,991.5332)"
           id="g2488">
          <path
             d="M 233.765,497.362 C 233.265,499.074 232.136,502.55 230.537,505.108 C 230.537,505.108 254.052,504.23 262.402,507.965 C 262.402,507.965 240.446,506.637 229.219,511.921 C 225.782,513.538 221.04,516.451 215.854,516.736 C 222.242,509.002 228.235,502.621 233.765,497.362 z"
             id="path2490"
             style="fill:#ed1c24;fill-opacity:1;fill-rule:nonzero;stroke:none" />
        </g>
      </g>
    </g>
  </g>
</svg>
