<?xml version="1.0" encoding="UTF-8" standalone="no"?>
<!-- Created with Inkscape (http://www.inkscape.org/) -->

<svg
   xmlns:dc="http://purl.org/dc/elements/1.1/"
   xmlns:cc="http://creativecommons.org/ns#"
   xmlns:rdf="http://www.w3.org/1999/02/22-rdf-syntax-ns#"
   xmlns:svg="http://www.w3.org/2000/svg"
   xmlns="http://www.w3.org/2000/svg"
   version="1.1"
   width="390"
   height="480"
   id="svg4228">
  <metadata
     id="metadata10">
    <rdf:RDF>
      <cc:Work
         rdf:about="">
        <dc:format>image/svg+xml</dc:format>
        <dc:type
           rdf:resource="http://purl.org/dc/dcmitype/StillImage" />
        <dc:title></dc:title>
      </cc:Work>
    </rdf:RDF>
  </metadata>
  <defs
     id="defs4232" />
  <path
     d="M 0,0 C 130,0 260,0 390,0 389.98981,114.99797 370.78556,350.14732 194.88837,479.99815 20.79131,350.08886 0.081386,115.02225 0,0 z"
     id="path4240-0"
     style="fill:#008c31;fill-opacity:1;stroke:none" />
  <path
     d="M 19.217082,63.736654 55.836299,31.601423 68.86121,47.08185 c 2.212539,-2.056712 4.121926,-6.235486 5.765125,-12.27758 3.979025,1.676549 9.658253,8.318598 12.597864,19.217081 -0.177466,7.537292 -2.471413,16.234352 3.950179,22.633453 12.912612,12.867389 18.884392,28.463276 34.270462,34.163696 3.60423,-5.62042 1.62994,-15.206811 4.48399,-18.149462 5.95299,9.372392 13.59988,10.768742 19.53736,22.526692 -4.46185,5.88838 -7.1033,12.29687 -7.58007,19.32384 -0.78383,11.55269 20.36844,28.1874 35.12456,51.24555 -10.52617,14.31415 -28.8546,20.05274 -39.71531,32.34876 -11.35231,-10.2847 -15.16637,-23.52155 -29.03914,-30.74733 -9.938683,-5.17667 -17.826881,-3.3081 -24.448401,-1.28114 -4.928496,-11.22862 -10.268335,-15.25259 -15.587188,-19.64413 8.131299,0.93681 24.628238,2.22189 22.953736,-4.27046 -2.660584,-10.31558 -23.92806,-34.77554 -29.039146,-37.58007 -2.987392,-1.63923 -6.978412,-1.84579 -11.957295,-0.64057 L 32.882562,100.46263 c 6.942251,0.40742 12.068468,-4.295949 7.259787,-10.355869 z"
     id="path2998"
     style="fill:#faf700;fill-opacity:1;stroke:none" />
  <path
     d="m 205.08897,184.91103 c 5.2669,-14.30605 23.12779,-25.61607 24.25856,-36.60626 0.50081,-4.86751 -1.7937,-7.40456 -4.18739,-9.6215 2.70928,-4.8175 12.86502,-17.73399 18.84721,-24.79995 1.69002,4.23978 -0.97938,10.00042 5.70795,11.8818 3.69884,1.04062 24.41585,-29.401226 28.07829,-41.209961 1.45506,-4.69152 -1.207,-13.252117 -4.37722,-17.508897 l 16.58154,-20.596474 c 1.50965,2.685968 0.22429,7.489405 0.56176,11.08456 0.35194,3.749373 5.54889,10.766824 11.36204,3.533267 l 23.5943,-29.359431 38.80783,34.964413 c -12.86955,22.938449 -36.81867,42.224453 -42.43772,56.637013 3.25915,1.04912 9.18919,-3.30469 13.80037,-2.88701 l -20.73987,26.05427 c -8.00213,-2.74351 -9.03165,-1.41821 -10.5694,0.32028 -11.23841,12.70547 -30.81543,30.8889 -24.76868,31.06762 l 21.88612,0.10676 -15.80071,19.4306 c -7.07954,-0.95277 -14.86879,-4.19554 -20.60498,-0.32028 -7.85044,5.30361 -15.22355,11.15276 -20.2847,19.64413 z"
     id="path3786"
     style="fill:#faf700;fill-opacity:1;stroke:none" />
  <path
     d="m 166.33452,224.83986 50.2847,1.3879 c 1.42112,18.82612 1.47781,24.33595 2.56228,36.40569 0.43228,4.8111 6.27445,6.69822 10.35587,7.68683 0.83892,3.43365 0.75018,13.66143 -0.96086,21.13879 -2.7619,-2.54826 -6.07446,-4.00145 -9.92882,-4.37722 -4.46457,12.38191 -4.70609,32.03162 -2.98933,50.2847 4.0882,1.90438 8.81924,6.38016 13.45196,10.46263 0.53476,8.52843 0.31877,17.55736 -0.85409,27.2242 -4.16886,-7.97757 -6.94917,-15.08904 -10.24911,-11.74377 -3.26178,3.30658 -1.42349,37.72242 -2.13523,56.58363 l -49.64413,-0.10676 c -1.05039,-14.22229 -2.20603,-27.76045 -4.37723,-34.69751 -1.99067,-6.36028 -8.74297,-0.2289 -11.1032,2.34875 l -0.64057,-17.61566 c 6.07095,-4.03525 15.75486,-10.84228 15.69395,-19.4306 l -0.53381,-75.26691 c -0.0643,-9.06337 -6.77978,-6.3122 -13.23843,0.64057 -1.8858,-5.87682 -1.56212,-16.43955 0.10676,-21.24555 16.96794,-4.15311 13.53087,-24.57148 14.19929,-29.67971 z"
     id="path3806"
     style="fill:#faf700;fill-opacity:1;stroke:none" />
</svg>
