<?xml version="1.0" encoding="UTF-8" standalone="no"?>
<!-- Created with Inkscape (http://www.inkscape.org/) -->

<svg
 xmlns:dc="http://purl.org/dc/elements/1.1/"
 xmlns:cc="http://creativecommons.org/ns#"
 xmlns:rdf="http://www.w3.org/1999/02/22-rdf-syntax-ns#"
 xmlns:svg="http://www.w3.org/2000/svg"
 xmlns="http://www.w3.org/2000/svg"
 version="1.1"
 width="340"
 height="390"
 id="svg2816">
<metadata
 id="metadata123">
<rdf:RDF>
<cc:Work
 rdf:about="">
<dc:format>image/svg+xml</dc:format>
<dc:type
 rdf:resource="http://purl.org/dc/dcmitype/StillImage" />
<dc:title></dc:title>
</cc:Work>
</rdf:RDF>
</metadata>
<defs
 id="defs2820" />
<path
 d="m 38.619383,2.132278 262.145617,0 36.25549,35.950442 c -8.59903,2.51793 -26.36028,18.99762 -26.37445,30.94958 l -0.29048,247.59604 c -0.0191,13.9683 -0.21282,27.83374 -12.04343,40.29482 -12.45089,13.11455 -26.19226,16.07559 -40.85117,16.38519 l -65.17282,1.37687 c -7.45082,0.15784 -15.95033,8.4884 -20.99732,14.42366 -5.64573,-5.86297 -13.67455,-13.96803 -20.63532,-14.20594 l -82.096676,-2.80968 c -9.390334,-0.32133 -18.594089,-4.94791 -26.510449,-14.35005 -7.847214,-9.3203 -12.11095,-23.62423 -12.220581,-41.2603 L 28.279595,68.2721 C 28.198087,55.0098 10.859975,41.72015 1.6668838,38.95577 L 38.619383,2.132278 z"
 id="path6167"
 style="fill:#ffffff;stroke:#000000;stroke-width:1.21225619;stroke-linecap:round;stroke-linejoin:miter;stroke-miterlimit:4;stroke-opacity:1;stroke-dasharray:none" />
<path
 d="m 190.32031,171.43253 c -11.74158,7.15509 -16.18569,22.05838 -16.74931,36.15573 4.7901,5.84404 18.65665,24.02197 34.01134,23.72725 23.56306,-0.45244 33.48415,-29.62387 14.48821,-40.88112 -0.42212,6.65187 -0.8559,12.88368 -11.81641,13.04476 -16.9558,0.25424 -19.83254,-20.71344 -19.93383,-32.04662 z"
 id="path3770"
 style="fill:#000000;stroke:none" />
<path
 d="m 149.56757,171.2268 c 11.74073,7.15512 15.56832,22.05838 16.13195,36.15574 -4.79011,5.84403 -18.34797,24.22769 -33.70266,23.93297 -23.56307,-0.45244 -33.484144,-29.62387 -14.48822,-40.88112 0.42212,6.65187 0.8559,12.88368 11.81642,13.04476 16.95494,0.25424 20.14036,-20.91829 20.24251,-32.25235 z"
 id="path3770-2"
 style="fill:#000000;stroke:none" />
<path
 d="m 85.146008,145.9018 c -1.375633,-1.80962 -4.597373,0.4946 -3.181877,2.35665 l 18.390129,24.19182 3.18205,-2.35641 -18.390302,-24.19206 z"
 id="path6282"
 style="fill:#008000;stroke:#000000;stroke-width:0.69999999;stroke-linecap:butt;stroke-linejoin:miter;stroke-miterlimit:4;stroke-opacity:1;stroke-dasharray:none" />
<path
 d="m 76.444767,146.4314 c -1.359855,-1.8215 -4.581138,0.48237 -3.181877,2.35665 l 21.140129,28.31682 3.18205,-2.35641 -21.140302,-28.31706 z"
 id="path6282-5"
 style="fill:#008000;stroke:#000000;stroke-width:0.69999999;stroke-linecap:butt;stroke-linejoin:miter;stroke-miterlimit:4;stroke-opacity:1;stroke-dasharray:none" />
<path
 d="m 66.819767,147.5564 c -1.360241,-1.82121 -4.581535,0.48266 -3.181877,2.35665 l 23.390129,31.31682 3.18205,-2.35641 -23.390302,-31.31706 z"
 id="path6282-8"
 style="fill:#008000;stroke:#000000;stroke-width:0.69999999;stroke-linecap:butt;stroke-linejoin:miter;stroke-miterlimit:4;stroke-opacity:1;stroke-dasharray:none" />
<path
 d="m 58.694767,150.8064 c -1.389594,-1.79892 -4.611738,0.5056 -3.181877,2.35665 l 23.515129,30.44182 3.18205,-2.35641 -23.515302,-30.44206 z"
 id="path6282-83"
 style="fill:#008000;stroke:#000000;stroke-width:0.69999999;stroke-linecap:butt;stroke-linejoin:miter;stroke-miterlimit:4;stroke-opacity:1;stroke-dasharray:none" />
<path
 d="m 51.319767,153.9314 c -1.34256,-1.83429 -4.563341,0.46921 -3.181877,2.35665 l 19.765129,27.00432 3.18205,-2.35641 -19.765302,-27.00456 z"
 id="path6282-4"
 style="fill:#008000;stroke:#000000;stroke-width:0.69999999;stroke-linecap:butt;stroke-linejoin:miter;stroke-miterlimit:4;stroke-opacity:1;stroke-dasharray:none" />
<path
 d="m 43.944767,156.8064 c -1.369371,-1.81436 -4.590933,0.48971 -3.181877,2.35665 l 15.569817,20.62932 3.18205,-2.35641 -15.56999,-20.62956 z"
 id="path6282-15"
 style="fill:#008000;stroke:#000000;stroke-width:0.69999999;stroke-linecap:butt;stroke-linejoin:miter;stroke-miterlimit:4;stroke-opacity:1;stroke-dasharray:none" />
<path
 d="m 89.815391,205.0944 c -0.661612,2.17472 3.233084,2.83753 3.913867,0.5998 l 8.888882,-29.21767 -3.91382,-0.60009 -8.888929,29.21796 z"
 id="path6282-1-9"
 style="fill:#008000;stroke:#000000;stroke-width:0.71047282;stroke-linecap:butt;stroke-linejoin:miter;stroke-miterlimit:4;stroke-opacity:1;stroke-dasharray:none" />
<path
 d="m 80.697097,206.28526 c -0.748497,2.14636 3.115933,2.96761 3.886121,0.75906 l 9.265675,-26.56974 -3.886065,-0.75935 -9.265731,26.57003 z"
 id="path6282-1-5"
 style="fill:#008000;stroke:#000000;stroke-width:0.71047282;stroke-linecap:butt;stroke-linejoin:miter;stroke-miterlimit:4;stroke-opacity:1;stroke-dasharray:none" />
<path
 d="m 69.993435,205.97487 c -1.055388,2.01328 2.723029,3.15311 3.808999,1.0815 l 12.781648,-24.38234 -3.80892,-1.08178 -12.781727,24.38262 z"
 id="path6282-1-1"
 style="fill:#008000;stroke:#000000;stroke-width:0.71047282;stroke-linecap:butt;stroke-linejoin:miter;stroke-miterlimit:4;stroke-opacity:1;stroke-dasharray:none" />
<path
 d="m 58.980824,203.38612 c -1.388433,1.79983 1.862424,4.05353 3.291085,2.20156 L 79.332555,183.472 76.041631,181.2702 58.980824,203.38612 z"
 id="path6282-1-0"
 style="fill:#008000;stroke:#000000;stroke-width:0.71047282;stroke-linecap:butt;stroke-linejoin:miter;stroke-miterlimit:4;stroke-opacity:1;stroke-dasharray:none" />
<path
 d="m 42.604807,193.78936 c -1.828784,1.35006 0.870721,4.23555 2.752501,2.84637 l 19.523837,-14.41294 -2.752293,-2.84657 -19.524045,14.41314 z"
 id="path6282-1-4"
 style="fill:#008000;stroke:#000000;stroke-width:0.71047282;stroke-linecap:butt;stroke-linejoin:miter;stroke-miterlimit:4;stroke-opacity:1;stroke-dasharray:none" />
<path
 d="m 50.755047,199.84102 c -1.584647,1.62972 1.514929,4.08191 3.145502,2.40497 l 18.102324,-18.61714 -3.145326,-2.4052 -18.1025,18.61737 z"
 id="path6282-1-4-5"
 style="fill:#008000;stroke:#000000;stroke-width:0.71047282;stroke-linecap:butt;stroke-linejoin:miter;stroke-miterlimit:4;stroke-opacity:1;stroke-dasharray:none" />
<path
 d="m 36.374865,187.15632 c -2.004081,1.07275 0.222382,4.33788 2.284525,3.23405 l 18.832432,-10.08062 -2.284289,-3.23422 -18.832668,10.08079 z"
 id="path6282-1-3"
 style="fill:#008000;stroke:#000000;stroke-width:0.71047282;stroke-linecap:butt;stroke-linejoin:miter;stroke-miterlimit:4;stroke-opacity:1;stroke-dasharray:none" />
<path
 d="m 32.863141,178.84812 c -1.978777,0.59719 -1.080533,4.44418 0.955571,3.82968 l 17.250508,-5.20619 -0.955319,-3.82977 -17.25076,5.20628 z"
 id="path6282-1-3-0"
 style="fill:#008000;stroke:#000000;stroke-width:0.67602265;stroke-linecap:butt;stroke-linejoin:miter;stroke-miterlimit:4;stroke-opacity:1;stroke-dasharray:none" />
<path
 d="m 251.90529,143.9018 c 1.37563,-1.80962 4.59737,0.4946 3.18187,2.35665 l -18.39013,24.19182 -3.18205,-2.35641 18.3903,-24.19206 z"
 id="path6282-3"
 style="fill:#008000;stroke:#000000;stroke-width:0.69999999;stroke-linecap:butt;stroke-linejoin:miter;stroke-miterlimit:4;stroke-opacity:1;stroke-dasharray:none" />
<path
 d="m 260.60653,144.4314 c 1.35985,-1.8215 4.58113,0.48237 3.18187,2.35665 l -21.14013,28.31682 -3.18205,-2.35641 21.14031,-28.31706 z"
 id="path6282-5-2"
 style="fill:#008000;stroke:#000000;stroke-width:0.69999999;stroke-linecap:butt;stroke-linejoin:miter;stroke-miterlimit:4;stroke-opacity:1;stroke-dasharray:none" />
<path
 d="m 270.23153,145.5564 c 1.36024,-1.82121 4.58153,0.48266 3.18187,2.35665 l -23.39013,31.31682 -3.18205,-2.35641 23.39031,-31.31706 z"
 id="path6282-8-2"
 style="fill:#008000;stroke:#000000;stroke-width:0.69999999;stroke-linecap:butt;stroke-linejoin:miter;stroke-miterlimit:4;stroke-opacity:1;stroke-dasharray:none" />
<path
 d="m 278.35653,148.8064 c 1.38959,-1.79892 4.61173,0.5056 3.18187,2.35665 l -23.51513,30.44182 -3.18205,-2.35641 23.51531,-30.44206 z"
 id="path6282-83-7"
 style="fill:#008000;stroke:#000000;stroke-width:0.69999999;stroke-linecap:butt;stroke-linejoin:miter;stroke-miterlimit:4;stroke-opacity:1;stroke-dasharray:none" />
<path
 d="m 285.73153,151.9314 c 1.34256,-1.83429 4.56334,0.46921 3.18187,2.35665 l -19.76513,27.00432 -3.18205,-2.35641 19.76531,-27.00456 z"
 id="path6282-4-0"
 style="fill:#008000;stroke:#000000;stroke-width:0.69999999;stroke-linecap:butt;stroke-linejoin:miter;stroke-miterlimit:4;stroke-opacity:1;stroke-dasharray:none" />
<path
 d="m 293.10653,154.8064 c 1.34088,-1.83551 4.56161,0.46794 3.18187,2.35665 l -15.39303,21.07126 -3.18205,-2.35641 15.39321,-21.0715 z"
 id="path6282-15-3"
 style="fill:#008000;stroke:#000000;stroke-width:0.69999999;stroke-linecap:butt;stroke-linejoin:miter;stroke-miterlimit:4;stroke-opacity:1;stroke-dasharray:none" />
<path
 d="m 247.2359,203.0944 c 0.66161,2.17472 -3.24771,2.84193 -3.91386,0.5998 l -9.47728,-31.89889 4.50221,2.0811 8.88893,29.21796 0,3e-5 z"
 id="path6282-1-9-1"
 style="fill:#008000;stroke:#000000;stroke-width:0.71047282;stroke-linecap:butt;stroke-linejoin:miter;stroke-miterlimit:4;stroke-opacity:1;stroke-dasharray:none" />
<path
 d="m 256.3542,204.28526 c 0.74849,2.14636 -3.1217,2.96961 -3.88612,0.75906 l -9.70762,-28.07234 4.32801,0.74325 9.26573,26.57003 z"
 id="path6282-1-5-3"
 style="fill:#008000;stroke:#000000;stroke-width:0.71047282;stroke-linecap:butt;stroke-linejoin:miter;stroke-miterlimit:4;stroke-opacity:1;stroke-dasharray:none" />
<path
 d="m 267.05786,203.97487 c 1.05539,2.01328 -2.73328,3.15845 -3.809,1.0815 l -13.22359,-25.53139 4.25086,0.0673 12.78173,24.38262 z"
 id="path6282-1-1-3"
 style="fill:#008000;stroke:#000000;stroke-width:0.71047282;stroke-linecap:butt;stroke-linejoin:miter;stroke-miterlimit:4;stroke-opacity:1;stroke-dasharray:none" />
<path
 d="m 278.07047,201.38612 c 1.38843,1.79983 -1.86242,4.05353 -3.29109,2.20156 l -17.06064,-22.11568 3.29092,-2.2018 17.06081,22.11592 z"
 id="path6282-1-0-7"
 style="fill:#008000;stroke:#000000;stroke-width:0.71047282;stroke-linecap:butt;stroke-linejoin:miter;stroke-miterlimit:4;stroke-opacity:1;stroke-dasharray:none" />
<path
 d="m 294.44649,191.78936 c 1.82878,1.35006 -0.87072,4.23555 -2.75251,2.84637 l -19.52383,-14.41294 2.75229,-2.84657 19.52405,14.41314 z"
 id="path6282-1-4-0"
 style="fill:#008000;stroke:#000000;stroke-width:0.71047282;stroke-linecap:butt;stroke-linejoin:miter;stroke-miterlimit:4;stroke-opacity:1;stroke-dasharray:none" />
<path
 d="m 286.29625,197.84102 c 1.58464,1.62972 -1.51412,4.08112 -3.14551,2.40497 l -18.76523,-19.28005 3.80824,-1.74229 18.1025,18.61737 z"
 id="path6282-1-4-5-9"
 style="fill:#008000;stroke:#000000;stroke-width:0.71047282;stroke-linecap:butt;stroke-linejoin:miter;stroke-miterlimit:4;stroke-opacity:1;stroke-dasharray:none" />
<path
 d="m 300.67643,185.15632 c 2.02135,1.03984 -0.22238,4.33788 -2.28453,3.23405 l -18.83243,-10.08062 3.22179,-2.35922 17.89517,9.20579 z"
 id="path6282-1-3-5"
 style="fill:#008000;stroke:#000000;stroke-width:0.71047282;stroke-linecap:butt;stroke-linejoin:miter;stroke-miterlimit:4;stroke-opacity:1;stroke-dasharray:none" />
<path
 d="m 304.639,176.93404 c 2.05272,0.56773 1.10515,4.48595 -0.98784,3.82666 l -16.51451,-5.20208 3.37516,-2.53181 14.12719,3.90723 z"
 id="path6282-1-3-0-5"
 style="fill:#008000;stroke:#000000;stroke-width:0.68707216;stroke-linecap:butt;stroke-linejoin:miter;stroke-miterlimit:4;stroke-opacity:1;stroke-dasharray:none" />
<path
 d="m 94.16554,231.18807 c -1.383269,-1.8038 -4.491446,0.64691 -3.068101,2.50297 l 23.455191,30.58589 3.06829,-2.50274 -23.45538,-30.58612 z"
 id="path6282-1-8"
 style="fill:#008000;stroke:#000000;stroke-width:0.71047282;stroke-linecap:butt;stroke-linejoin:miter;stroke-miterlimit:4;stroke-opacity:1;stroke-dasharray:none" />
<path
 d="m 84.238678,231.52107 c -1.380314,-1.80606 -4.488406,0.64458 -3.068101,2.50297 l 25.955193,33.96089 3.06829,-2.50274 -25.955382,-33.96112 z"
 id="path6282-1-8-3"
 style="fill:#008000;stroke:#000000;stroke-width:0.71047282;stroke-linecap:butt;stroke-linejoin:miter;stroke-miterlimit:4;stroke-opacity:1;stroke-dasharray:none" />
<path
 d="m 75.11301,233.08421 c -1.387963,-1.80019 -4.496279,0.65062 -3.068101,2.50297 l 26.955193,34.96089 3.068288,-2.50274 -26.95538,-34.96112 z"
 id="path6282-1-8-3-7"
 style="fill:#008000;stroke:#000000;stroke-width:0.71047282;stroke-linecap:butt;stroke-linejoin:miter;stroke-miterlimit:4;stroke-opacity:1;stroke-dasharray:none" />
<path
 d="m 66.98974,234.83256 c -1.387963,-1.80019 -4.496279,0.65062 -3.068101,2.50297 l 26.955193,34.96089 3.068288,-2.50274 -26.95538,-34.96112 z"
 id="path6282-1-8-3-7-8"
 style="fill:#008000;stroke:#000000;stroke-width:0.71047282;stroke-linecap:butt;stroke-linejoin:miter;stroke-miterlimit:4;stroke-opacity:1;stroke-dasharray:none" />
<path
 d="m 59.36474,237.83256 c -1.334099,-1.84046 -4.441116,0.60937 -3.068101,2.50297 l 20.455193,28.21089 4.693288,-0.25274 -22.08038,-30.46112 z"
 id="path6282-1-8-3-7-8-3"
 style="fill:#008000;stroke:#000000;stroke-width:0.71047282;stroke-linecap:butt;stroke-linejoin:miter;stroke-miterlimit:4;stroke-opacity:1;stroke-dasharray:none" />
<path
 d="m 51.165233,240.96889 c -1.379746,-1.80649 -4.483382,0.64075 -3.068101,2.50297 l 15.455193,20.33589 5.818288,0.99726 -18.20538,-23.83612 z"
 id="path6282-1-8-3-7-8-3-7"
 style="fill:#008000;stroke:#000000;stroke-width:0.71047282;stroke-linecap:butt;stroke-linejoin:miter;stroke-miterlimit:4;stroke-opacity:1;stroke-dasharray:none" />
<path
 d="m 115.72978,291.85433 c -0.0223,2.27302 -3.98243,2.33888 -3.95956,0 l 0.25,-25.563 3.95956,0.0622 -0.25,25.50079 z"
 id="path6282-1-93"
 style="fill:#008000;stroke:#000000;stroke-width:0.71047282;stroke-linecap:butt;stroke-linejoin:miter;stroke-miterlimit:4;stroke-opacity:1;stroke-dasharray:none" />
<path
 d="m 108.22388,293.71689 c -0.16758,2.26695 -4.12127,2.04061 -3.94878,-0.29201 l 1.87596,-25.36873 3.94881,0.29172 -1.87599,25.36902 z"
 id="path6282-1-93-9"
 style="fill:#008000;stroke:#000000;stroke-width:0.71047282;stroke-linecap:butt;stroke-linejoin:miter;stroke-miterlimit:4;stroke-opacity:1;stroke-dasharray:none" />
<path
 d="m 99.702447,294.58274 c -0.347526,2.24641 -4.270651,1.70602 -3.913003,-0.60546 l 3.889678,-25.13885 3.913058,0.60516 -3.889733,25.13915 z"
 id="path6282-1-93-9-1"
 style="fill:#008000;stroke:#000000;stroke-width:0.71047282;stroke-linecap:butt;stroke-linejoin:miter;stroke-miterlimit:4;stroke-opacity:1;stroke-dasharray:none" />
<path
 d="m 91.475633,294.23732 c -0.54207,2.20755 -4.472639,1.31317 -3.846278,-0.94038 l 6.41639,-23.08518 3.221358,0.44009 -5.79147,23.58547 z"
 id="path6282-1-93-9-1-8"
 style="fill:#008000;stroke:#000000;stroke-width:0.71047282;stroke-linecap:butt;stroke-linejoin:miter;stroke-miterlimit:4;stroke-opacity:1;stroke-dasharray:none" />
<path
 d="m 68.465117,290.88591 c -1.967137,1.9854 -5.287776,0.011 -3.612347,-1.62146 l 19.84231,-19.33369 3.049978,1.49619 -19.279941,19.45896 z"
 id="path6282-1-93-9-1-8-2"
 style="fill:#008000;stroke:#000000;stroke-width:0.71047282;stroke-linecap:butt;stroke-linejoin:miter;stroke-miterlimit:4;stroke-opacity:1;stroke-dasharray:none" />
<path
 d="m 59.944526,287.75123 c -1.810555,1.3744 -4.621093,-1.49167 -2.729941,-2.86804 l 22.295174,-16.22635 3.292665,1.74284 -22.857898,17.35155 z"
 id="path6282-1-93-9-1-8-2-8"
 style="fill:#008000;stroke:#000000;stroke-width:0.71047282;stroke-linecap:butt;stroke-linejoin:miter;stroke-miterlimit:4;stroke-opacity:1;stroke-dasharray:none" />
<path
 d="m 51.864745,283.42567 c -1.980703,1.11531 -4.465636,-1.9805 -2.427552,-3.12812 l 25.076089,-14.12008 2.427796,3.12796 -25.076333,14.12024 z"
 id="path6282-1-93-9-1-8-2-8-0"
 style="fill:#008000;stroke:#000000;stroke-width:0.71047282;stroke-linecap:butt;stroke-linejoin:miter;stroke-miterlimit:4;stroke-opacity:1;stroke-dasharray:none" />
<path
 d="m 43.823308,277.94407 c -2.117226,0.82732 -4.225438,-2.58525 -2.032295,-3.39823 l 26.716431,-9.90359 3.220056,2.39809 -27.904192,10.90373 z"
 id="path6282-1-93-9-1-8-2-8-0-1"
 style="fill:#008000;stroke:#000000;stroke-width:0.71047282;stroke-linecap:butt;stroke-linejoin:miter;stroke-miterlimit:4;stroke-opacity:1;stroke-dasharray:none" />
<path
 d="m 36.825007,271.96355 c -2.077389,0.49178 -3.135422,-3.35068 -0.991309,-3.8239 l 27.453304,-6.05924 2.044531,3.13478 -28.506526,6.74836 z"
 id="path6282-1-93-9-1-8-2-8-0-1-8"
 style="fill:#008000;stroke:#000000;stroke-width:0.68812084;stroke-linecap:butt;stroke-linejoin:miter;stroke-miterlimit:4;stroke-opacity:1;stroke-dasharray:none" />
<path
 d="m 81.054863,292.74934 c -1.049233,2.01649 -4.973535,1.10904 -3.846278,-0.94038 l 11.66639,-21.21018 3.346359,0.69009 -11.166471,21.46047 z"
 id="path6282-1-93-9-1-8-8"
 style="fill:#008000;stroke:#000000;stroke-width:0.71047282;stroke-linecap:butt;stroke-linejoin:miter;stroke-miterlimit:4;stroke-opacity:1;stroke-dasharray:none" />
<path
 d="m 246.9756,229.18807 c 1.38327,-1.8038 4.49145,0.64691 3.0681,2.50297 l -23.45519,30.58589 -3.06829,-2.50274 23.45538,-30.58612 z"
 id="path6282-1-8-0"
 style="fill:#008000;stroke:#000000;stroke-width:0.71047282;stroke-linecap:butt;stroke-linejoin:miter;stroke-miterlimit:4;stroke-opacity:1;stroke-dasharray:none" />
<path
 d="m 256.90246,229.52107 c 1.38032,-1.80606 4.48841,0.64458 3.0681,2.50297 l -25.95519,33.96089 -3.06829,-2.50274 25.95538,-33.96112 z"
 id="path6282-1-8-3-9"
 style="fill:#008000;stroke:#000000;stroke-width:0.71047282;stroke-linecap:butt;stroke-linejoin:miter;stroke-miterlimit:4;stroke-opacity:1;stroke-dasharray:none" />
<path
 d="m 266.02813,231.08421 c 1.38796,-1.80019 4.49628,0.65062 3.0681,2.50297 l -26.95519,34.96089 -3.06829,-2.50274 26.95538,-34.96112 z"
 id="path6282-1-8-3-7-3"
 style="fill:#008000;stroke:#000000;stroke-width:0.71047282;stroke-linecap:butt;stroke-linejoin:miter;stroke-miterlimit:4;stroke-opacity:1;stroke-dasharray:none" />
<path
 d="m 274.1514,232.83256 c 1.38796,-1.80019 4.49628,0.65062 3.0681,2.50297 l -26.95519,34.96089 -3.06829,-2.50274 26.95538,-34.96112 z"
 id="path6282-1-8-3-7-8-0"
 style="fill:#008000;stroke:#000000;stroke-width:0.71047282;stroke-linecap:butt;stroke-linejoin:miter;stroke-miterlimit:4;stroke-opacity:1;stroke-dasharray:none" />
<path
 d="m 281.7764,235.83256 c 1.3341,-1.84046 4.44112,0.60937 3.0681,2.50297 l -20.45519,28.21089 -4.69329,-0.25274 22.08038,-30.46112 z"
 id="path6282-1-8-3-7-8-3-0"
 style="fill:#008000;stroke:#000000;stroke-width:0.71047282;stroke-linecap:butt;stroke-linejoin:miter;stroke-miterlimit:4;stroke-opacity:1;stroke-dasharray:none" />
<path
 d="m 289.97591,238.96889 c 1.37974,-1.80649 4.48338,0.64075 3.0681,2.50297 l -15.4552,20.33589 -5.81828,0.99726 18.20538,-23.83612 z"
 id="path6282-1-8-3-7-8-3-7-8"
 style="fill:#008000;stroke:#000000;stroke-width:0.71047282;stroke-linecap:butt;stroke-linejoin:miter;stroke-miterlimit:4;stroke-opacity:1;stroke-dasharray:none" />
<path
 d="m 225.41136,289.85433 c 0.0223,2.27302 3.98243,2.33888 3.95956,0 l -0.25,-25.563 -3.95956,0.0622 0.25,25.50079 z"
 id="path6282-1-93-7"
 style="fill:#008000;stroke:#000000;stroke-width:0.71047282;stroke-linecap:butt;stroke-linejoin:miter;stroke-miterlimit:4;stroke-opacity:1;stroke-dasharray:none" />
<path
 d="m 232.91726,291.71689 c 0.16758,2.26695 4.12127,2.04061 3.94878,-0.29201 l -1.87596,-25.36873 -3.94881,0.29172 1.87599,25.36902 z"
 id="path6282-1-93-9-6"
 style="fill:#008000;stroke:#000000;stroke-width:0.71047282;stroke-linecap:butt;stroke-linejoin:miter;stroke-miterlimit:4;stroke-opacity:1;stroke-dasharray:none" />
<path
 d="m 241.43869,292.58274 c 0.34753,2.24641 4.27065,1.70602 3.91301,-0.60546 l -3.88968,-25.13885 -3.91306,0.60516 3.88973,25.13915 z"
 id="path6282-1-93-9-1-3"
 style="fill:#008000;stroke:#000000;stroke-width:0.71047282;stroke-linecap:butt;stroke-linejoin:miter;stroke-miterlimit:4;stroke-opacity:1;stroke-dasharray:none" />
<path
 d="m 249.66551,292.23732 c 0.54207,2.20755 4.47264,1.31317 3.84628,-0.94038 l -6.4164,-23.08518 -3.22135,0.44009 5.79147,23.58547 z"
 id="path6282-1-93-9-1-8-5"
 style="fill:#008000;stroke:#000000;stroke-width:0.71047282;stroke-linecap:butt;stroke-linejoin:miter;stroke-miterlimit:4;stroke-opacity:1;stroke-dasharray:none" />
<path
 d="m 272.67602,288.88591 c 1.96714,1.9854 5.28778,0.011 3.61235,-1.62146 l -19.84231,-19.33369 -3.04998,1.49619 19.27994,19.45896 z"
 id="path6282-1-93-9-1-8-2-6"
 style="fill:#008000;stroke:#000000;stroke-width:0.71047282;stroke-linecap:butt;stroke-linejoin:miter;stroke-miterlimit:4;stroke-opacity:1;stroke-dasharray:none" />
<path
 d="m 281.19661,285.75123 c 1.81056,1.3744 4.6211,-1.49167 2.72994,-2.86804 l -22.29517,-16.22635 -3.29266,1.74284 22.85789,17.35155 z"
 id="path6282-1-93-9-1-8-2-8-5"
 style="fill:#008000;stroke:#000000;stroke-width:0.71047282;stroke-linecap:butt;stroke-linejoin:miter;stroke-miterlimit:4;stroke-opacity:1;stroke-dasharray:none" />
<path
 d="m 289.27639,281.42567 c 1.98071,1.11531 4.46564,-1.9805 2.42756,-3.12812 l -25.07609,-14.12008 -2.4278,3.12796 25.07633,14.12024 z"
 id="path6282-1-93-9-1-8-2-8-0-8"
 style="fill:#008000;stroke:#000000;stroke-width:0.71047282;stroke-linecap:butt;stroke-linejoin:miter;stroke-miterlimit:4;stroke-opacity:1;stroke-dasharray:none" />
<path
 d="m 297.31783,275.94407 c 2.11723,0.82732 4.22544,-2.58525 2.0323,-3.39823 l -26.71643,-9.90359 -3.22006,2.39809 27.90419,10.90373 z"
 id="path6282-1-93-9-1-8-2-8-0-1-3"
 style="fill:#008000;stroke:#000000;stroke-width:0.71047282;stroke-linecap:butt;stroke-linejoin:miter;stroke-miterlimit:4;stroke-opacity:1;stroke-dasharray:none" />
<path
 d="m 303.66229,269.96733 c 2.03002,0.49216 3.06392,-3.35325 0.9687,-3.82684 l -26.82729,-6.06389 -1.99791,3.13719 27.8565,6.75354 z"
 id="path6282-1-93-9-1-8-2-8-0-1-8-9"
 style="fill:#008000;stroke:#000000;stroke-width:0.68049139;stroke-linecap:butt;stroke-linejoin:miter;stroke-miterlimit:4;stroke-opacity:1;stroke-dasharray:none" />
<path
 d="m 260.08628,290.74934 c 1.04923,2.01649 4.97353,1.10904 3.84627,-0.94038 l -11.66638,-21.21018 -3.34636,0.69009 11.16647,21.46047 z"
 id="path6282-1-93-9-1-8-8-4"
 style="fill:#008000;stroke:#000000;stroke-width:0.71047282;stroke-linecap:butt;stroke-linejoin:miter;stroke-miterlimit:4;stroke-opacity:1;stroke-dasharray:none" />
<path
 d="m 131.04884,302.29872 c -1.29174,-1.87044 -4.61914,0.2786 -3.28997,2.20323 l 12.65456,18.32373 3.29013,-2.20299 -12.65472,-18.32397 z"
 id="path6282-1-2"
 style="fill:#008000;stroke:#000000;stroke-width:0.71047282;stroke-linecap:butt;stroke-linejoin:miter;stroke-miterlimit:4;stroke-opacity:1;stroke-dasharray:none" />
<path
 d="m 121.46597,302.69553 c -1.27514,-1.8818 -4.60205,0.26692 -3.28997,2.20323 l 12.96706,19.13623 3.29013,-2.20299 -12.96722,-19.13647 z"
 id="path6282-1-2-1"
 style="fill:#008000;stroke:#000000;stroke-width:0.71047282;stroke-linecap:butt;stroke-linejoin:miter;stroke-miterlimit:4;stroke-opacity:1;stroke-dasharray:none" />
<path
 d="m 111.71597,302.88303 c -1.26485,-1.88873 -4.59146,0.25978 -3.28997,2.20323 l 14.15456,21.13623 3.29013,-2.20299 -14.15472,-21.13647 z"
 id="path6282-1-2-8"
 style="fill:#008000;stroke:#000000;stroke-width:0.71047282;stroke-linecap:butt;stroke-linejoin:miter;stroke-miterlimit:4;stroke-opacity:1;stroke-dasharray:none" />
<path
 d="m 103.21597,304.32053 c -1.25717,-1.89385 -4.583563,0.25452 -3.289969,2.20323 l 14.279559,21.51123 3.29013,-2.20299 -14.27972,-21.51147 z"
 id="path6282-1-2-3"
 style="fill:#008000;stroke:#000000;stroke-width:0.71047282;stroke-linecap:butt;stroke-linejoin:miter;stroke-miterlimit:4;stroke-opacity:1;stroke-dasharray:none" />
<path
 d="m 94.465971,305.94553 c -1.274402,-1.8823 -4.601292,0.2664 -3.28997,2.20323 l 15.029559,22.19873 3.29013,-2.20299 -15.029719,-22.19897 z"
 id="path6282-1-2-0"
 style="fill:#008000;stroke:#000000;stroke-width:0.71047282;stroke-linecap:butt;stroke-linejoin:miter;stroke-miterlimit:4;stroke-opacity:1;stroke-dasharray:none" />
<path
 d="m 86.965971,308.57053 c -1.269496,-1.88561 -4.596244,0.26299 -3.28997,2.20323 l 15.029561,22.32373 3.290128,-2.20299 -15.029719,-22.32397 z"
 id="path6282-1-2-19"
 style="fill:#008000;stroke:#000000;stroke-width:0.71047282;stroke-linecap:butt;stroke-linejoin:miter;stroke-miterlimit:4;stroke-opacity:1;stroke-dasharray:none" />
<path
 d="m 79.840971,310.94553 c -1.26485,-1.88873 -4.586046,0.25616 -3.28997,2.20323 l 12.904561,19.38623 4.54013,-0.45299 -14.154721,-21.13647 z"
 id="path6282-1-2-9"
 style="fill:#008000;stroke:#000000;stroke-width:0.71047282;stroke-linecap:butt;stroke-linejoin:miter;stroke-miterlimit:4;stroke-opacity:1;stroke-dasharray:none" />
<path
 d="m 72.590971,313.82053 c -1.259268,-1.89246 -4.589806,0.25867 -3.28997,2.20323 l 8.279561,12.38623 5.41513,1.04701 -10.404721,-15.63647 z"
 id="path6282-1-2-13"
 style="fill:#008000;stroke:#000000;stroke-width:0.71047282;stroke-linecap:butt;stroke-linejoin:miter;stroke-miterlimit:4;stroke-opacity:1;stroke-dasharray:none" />
<path
 d="m 144.97978,348.22933 c 0,2.27313 -3.95956,2.33899 -3.95956,0 l 0,-25.438 3.95956,-2.9e-4 0,25.43829 z"
 id="path6282-1-51"
 style="fill:#008000;stroke:#000000;stroke-width:0.71047282;stroke-linecap:butt;stroke-linejoin:miter;stroke-miterlimit:4;stroke-opacity:1;stroke-dasharray:none" />
<path
 d="m 137.60478,349.60433 c 0,2.27313 -3.95956,2.33899 -3.95956,0 l 0,-25.438 3.95956,-2.9e-4 0,25.43829 z"
 id="path6282-1-25"
 style="fill:#008000;stroke:#000000;stroke-width:0.71047282;stroke-linecap:butt;stroke-linejoin:miter;stroke-miterlimit:4;stroke-opacity:1;stroke-dasharray:none" />
<path
 d="m 129.97978,350.85433 c 0.0217,2.27303 -3.93723,2.33888 -3.95956,0 l -0.25,-26.188 3.95956,-2.9e-4 0.25,26.18829 z"
 id="path6282-1-51-3"
 style="fill:#008000;stroke:#000000;stroke-width:0.71047282;stroke-linecap:butt;stroke-linejoin:miter;stroke-miterlimit:4;stroke-opacity:1;stroke-dasharray:none" />
<path
 d="m 120.68913,351.32543 c -0.0822,2.27165 -4.05343,2.12236 -3.95374,-0.2145 l 1.04408,-24.47559 3.82876,-0.72328 -0.9191,25.41337 z"
 id="path6282-1-51-3-8"
 style="fill:#008000;stroke:#000000;stroke-width:0.71047282;stroke-linecap:butt;stroke-linejoin:miter;stroke-miterlimit:4;stroke-opacity:1;stroke-dasharray:none" />
<path
 d="m 110.92159,351.65798 c -0.35361,2.24546 -4.27083,1.69358 -3.9111,-0.61757 l 3.40005,-21.844 4.09865,-0.32022 -3.5876,22.78179 z"
 id="path6282-1-51-3-2"
 style="fill:#008000;stroke:#000000;stroke-width:0.71047282;stroke-linecap:butt;stroke-linejoin:miter;stroke-miterlimit:4;stroke-opacity:1;stroke-dasharray:none" />
<path
 d="m 99.50449,351.95431 c -0.813359,2.12263 -4.308789,-0.0597 -3.466239,-2.24163 l 7.304029,-18.91501 3.84134,1.11635 -7.67913,20.04029 z"
 id="path6282-1-51-3-7"
 style="fill:#008000;stroke:#000000;stroke-width:0.71047282;stroke-linecap:butt;stroke-linejoin:miter;stroke-miterlimit:4;stroke-opacity:1;stroke-dasharray:none" />
<path
 d="m 87.006227,350.99408 c -1.284191,1.87562 -4.173748,-1.05673 -2.850693,-2.98551 l 11.302793,-16.4775 3.672279,1.75477 -12.124379,17.70824 z"
 id="path6282-1-51-3-7-0"
 style="fill:#008000;stroke:#000000;stroke-width:0.71047282;stroke-linecap:butt;stroke-linejoin:miter;stroke-miterlimit:4;stroke-opacity:1;stroke-dasharray:none" />
<path
 d="m 76.649416,347.6684 c -1.596284,1.61832 -3.917804,-1.77717 -2.276434,-3.44349 l 13.928318,-14.14002 3.419036,2.30445 -15.07092,15.27906 z"
 id="path6282-1-51-3-7-4"
 style="fill:#008000;stroke:#000000;stroke-width:0.71047282;stroke-linecap:butt;stroke-linejoin:miter;stroke-miterlimit:4;stroke-opacity:1;stroke-dasharray:none" />
<path
 d="m 67.924324,344.5209 c -1.805906,1.38051 -3.644899,-2.32134 -1.775229,-3.7267 l 16.190458,-12.16976 2.63479,2.86269 -17.050019,13.03377 z"
 id="path6282-1-51-3-7-1"
 style="fill:#008000;stroke:#000000;stroke-width:0.71047282;stroke-linecap:butt;stroke-linejoin:miter;stroke-miterlimit:4;stroke-opacity:1;stroke-dasharray:none" />
<path
 d="m 59.385446,337.02181 c -2.127722,0.79994 -2.814668,-3.26394 -0.622939,-4.08065 l 18.205076,-6.78381 2.506223,3.31198 -20.08836,7.55248 z"
 id="path6282-1-51-3-7-3"
 style="fill:#008000;stroke:#000000;stroke-width:0.71047282;stroke-linecap:butt;stroke-linejoin:miter;stroke-miterlimit:4;stroke-opacity:1;stroke-dasharray:none" />
<path
 d="m 213.34849,300.29872 c 1.29174,-1.87044 4.61914,0.2786 3.28997,2.20323 l -12.65456,18.32373 -3.29013,-2.20299 12.65472,-18.32397 z"
 id="path6282-1-2-5"
 style="fill:#008000;stroke:#000000;stroke-width:0.71047282;stroke-linecap:butt;stroke-linejoin:miter;stroke-miterlimit:4;stroke-opacity:1;stroke-dasharray:none" />
<path
 d="m 222.93136,300.69553 c 1.27514,-1.8818 4.60205,0.26692 3.28997,2.20323 l -12.96706,19.13623 -3.29013,-2.20299 12.96722,-19.13647 z"
 id="path6282-1-2-1-9"
 style="fill:#008000;stroke:#000000;stroke-width:0.71047282;stroke-linecap:butt;stroke-linejoin:miter;stroke-miterlimit:4;stroke-opacity:1;stroke-dasharray:none" />
<path
 d="m 232.68136,300.88303 c 1.26485,-1.88873 4.59146,0.25978 3.28997,2.20323 l -14.15456,21.13623 -3.29013,-2.20299 14.15472,-21.13647 z"
 id="path6282-1-2-8-7"
 style="fill:#008000;stroke:#000000;stroke-width:0.71047282;stroke-linecap:butt;stroke-linejoin:miter;stroke-miterlimit:4;stroke-opacity:1;stroke-dasharray:none" />
<path
 d="m 241.18136,302.32053 c 1.25717,-1.89385 4.58356,0.25452 3.28997,2.20323 l -14.27956,21.51123 -3.29013,-2.20299 14.27972,-21.51147 z"
 id="path6282-1-2-3-9"
 style="fill:#008000;stroke:#000000;stroke-width:0.71047282;stroke-linecap:butt;stroke-linejoin:miter;stroke-miterlimit:4;stroke-opacity:1;stroke-dasharray:none" />
<path
 d="m 249.93136,303.94553 c 1.2744,-1.8823 4.60129,0.2664 3.28997,2.20323 l -15.02956,22.19873 -3.29013,-2.20299 15.02972,-22.19897 z"
 id="path6282-1-2-0-8"
 style="fill:#008000;stroke:#000000;stroke-width:0.71047282;stroke-linecap:butt;stroke-linejoin:miter;stroke-miterlimit:4;stroke-opacity:1;stroke-dasharray:none" />
<path
 d="m 257.43136,306.57053 c 1.26949,-1.88561 4.59624,0.26299 3.28997,2.20323 l -15.02957,22.32373 -3.29012,-2.20299 15.02972,-22.32397 z"
 id="path6282-1-2-19-0"
 style="fill:#008000;stroke:#000000;stroke-width:0.71047282;stroke-linecap:butt;stroke-linejoin:miter;stroke-miterlimit:4;stroke-opacity:1;stroke-dasharray:none" />
<path
 d="m 264.55636,308.94553 c 1.26485,-1.88873 4.58604,0.25616 3.28997,2.20323 l -12.90457,19.38623 -4.54013,-0.45299 14.15473,-21.13647 z"
 id="path6282-1-2-9-1"
 style="fill:#008000;stroke:#000000;stroke-width:0.71047282;stroke-linecap:butt;stroke-linejoin:miter;stroke-miterlimit:4;stroke-opacity:1;stroke-dasharray:none" />
<path
 d="m 271.80636,311.82053 c 1.25926,-1.89246 4.5898,0.25867 3.28997,2.20323 l -8.27957,12.38623 -5.41513,1.04701 10.40473,-15.63647 z"
 id="path6282-1-2-13-4"
 style="fill:#008000;stroke:#000000;stroke-width:0.71047282;stroke-linecap:butt;stroke-linejoin:miter;stroke-miterlimit:4;stroke-opacity:1;stroke-dasharray:none" />
<path
 d="m 199.41755,346.22933 c 0,2.27313 3.95956,2.33899 3.95956,0 l 0,-25.438 -3.95956,-2.9e-4 0,25.43829 z"
 id="path6282-1-51-7"
 style="fill:#008000;stroke:#000000;stroke-width:0.71047282;stroke-linecap:butt;stroke-linejoin:miter;stroke-miterlimit:4;stroke-opacity:1;stroke-dasharray:none" />
<path
 d="m 206.79255,347.60433 c 0,2.27313 3.95956,2.33899 3.95956,0 l 0,-25.438 -3.95956,-2.9e-4 0,25.43829 z"
 id="path6282-1-25-5"
 style="fill:#008000;stroke:#000000;stroke-width:0.71047282;stroke-linecap:butt;stroke-linejoin:miter;stroke-miterlimit:4;stroke-opacity:1;stroke-dasharray:none" />
<path
 d="m 214.41755,348.85433 c -0.0217,2.27303 3.93723,2.33888 3.95956,0 l 0.25,-26.188 -3.95956,-2.9e-4 -0.25,26.18829 z"
 id="path6282-1-51-3-5"
 style="fill:#008000;stroke:#000000;stroke-width:0.71047282;stroke-linecap:butt;stroke-linejoin:miter;stroke-miterlimit:4;stroke-opacity:1;stroke-dasharray:none" />
<path
 d="m 223.7082,349.32543 c 0.0822,2.27165 4.05343,2.12236 3.95374,-0.2145 l -1.04408,-24.47559 -3.82876,-0.72328 0.9191,25.41337 z"
 id="path6282-1-51-3-8-5"
 style="fill:#008000;stroke:#000000;stroke-width:0.71047282;stroke-linecap:butt;stroke-linejoin:miter;stroke-miterlimit:4;stroke-opacity:1;stroke-dasharray:none" />
<path
 d="m 233.47574,349.65798 c 0.35361,2.24546 4.27083,1.69358 3.9111,-0.61757 l -3.40005,-21.844 -4.09865,-0.32022 3.5876,22.78179 z"
 id="path6282-1-51-3-2-0"
 style="fill:#008000;stroke:#000000;stroke-width:0.71047282;stroke-linecap:butt;stroke-linejoin:miter;stroke-miterlimit:4;stroke-opacity:1;stroke-dasharray:none" />
<path
 d="m 244.89284,349.95431 c 0.81336,2.12263 4.30879,-0.0597 3.46624,-2.24163 l -7.30403,-18.91501 -3.84134,1.11635 7.67913,20.04029 z"
 id="path6282-1-51-3-7-9"
 style="fill:#008000;stroke:#000000;stroke-width:0.71047282;stroke-linecap:butt;stroke-linejoin:miter;stroke-miterlimit:4;stroke-opacity:1;stroke-dasharray:none" />
<path
 d="m 257.3911,348.99408 c 1.28419,1.87562 4.17375,-1.05673 2.85069,-2.98551 l -11.30279,-16.4775 -3.67228,1.75477 12.12438,17.70824 z"
 id="path6282-1-51-3-7-0-2"
 style="fill:#008000;stroke:#000000;stroke-width:0.71047282;stroke-linecap:butt;stroke-linejoin:miter;stroke-miterlimit:4;stroke-opacity:1;stroke-dasharray:none" />
<path
 d="m 267.74791,345.6684 c 1.59628,1.61832 3.9178,-1.77717 2.27643,-3.44349 l -13.92831,-14.14002 -3.41904,2.30445 15.07092,15.27906 z"
 id="path6282-1-51-3-7-4-8"
 style="fill:#008000;stroke:#000000;stroke-width:0.71047282;stroke-linecap:butt;stroke-linejoin:miter;stroke-miterlimit:4;stroke-opacity:1;stroke-dasharray:none" />
<path
 d="m 276.473,342.5209 c 1.80591,1.38051 3.6449,-2.32134 1.77523,-3.7267 l -16.19046,-12.16976 -2.63479,2.86269 17.05002,13.03377 z"
 id="path6282-1-51-3-7-1-2"
 style="fill:#008000;stroke:#000000;stroke-width:0.71047282;stroke-linecap:butt;stroke-linejoin:miter;stroke-miterlimit:4;stroke-opacity:1;stroke-dasharray:none" />
<path
 d="m 285.01188,335.02181 c 2.12772,0.79994 2.81467,-3.26394 0.62294,-4.08065 l -18.20508,-6.78381 -2.50622,3.31198 20.08836,7.55248 z"
 id="path6282-1-51-3-7-3-4"
 style="fill:#008000;stroke:#000000;stroke-width:0.71047282;stroke-linecap:butt;stroke-linejoin:miter;stroke-miterlimit:4;stroke-opacity:1;stroke-dasharray:none" />
<path
 d="m 212.62263,165.47891 c -24.60397,-0.74455 -37.79701,21.17117 -37.34583,40.23724 l 1.51413,63.98448 c 4.57488,-7.12208 20.39312,-17.83131 33.7947,-17.46172 17.68737,0.48778 24.61448,25.7883 69.67845,6.17232 1.29916,-0.56551 3.11781,1.66553 0.42594,3.00536 -40.74048,20.27775 -54.95929,-2.02267 -70.42057,-2.19156 -13.49656,-0.14743 -32.99425,16.9079 -32.81384,25.16006 l 0.93578,42.80492 c 1.64093,-2.9928 11.81844,-9.32691 24.90121,-9.36432 25.30429,-0.0724 39.82013,20.45104 65.64481,5.0051 2.10914,-1.2615 2.73985,1.9211 0.37282,3.19729 -25.46483,13.72939 -49.05187,-3.34831 -63.37312,-3.19282 -12.00042,0.13029 -26.2235,10.86308 -26.0742,20.15238 l 0.58779,36.5713 c -3.05588,2.4093 -6.31314,5.88955 -9.16151,9.25915 -2.832,-3.12125 -6.92819,-7.73344 -10.5523,-9.8539 l -0.0382,-35.56027 c -0.0126,-11.6955 -11.52529,-19.82517 -25.10037,-18.82019 -17.49393,1.29509 -30.80349,17.77527 -60.495851,3.33546 -1.573073,-0.76501 -1.822771,-4.11319 0.669892,-2.91281 30.058039,14.47491 37.384399,-2.32799 60.092489,-5.12844 12.85758,-1.58565 23.12979,1.30208 26.5742,7.52168 l 0.77849,-42.45837 c 0.15158,-8.2669 -13.94305,-24.10938 -29.45073,-23.677 -18.49439,0.51565 -33.16341,24.26821 -71.944052,2.5252 -1.891449,-1.06047 -0.606103,-3.91273 2.072021,-2.42699 37.873451,21.01091 51.569541,-5.82842 70.232031,-6.57331 12.56353,-0.50146 24.88362,7.16065 29.9091,15.37278 l 0.42376,-63.07545 c 0.15101,-22.47821 -16.60588,-42.57951 -37.05446,-40.59078 -25.02194,2.43351 -37.426978,34.43555 -80.719033,8.28477 -2.181165,-1.31754 -1.225147,-4.55047 0.353017,-3.61837 46.920916,27.71262 53.874356,-12.129 79.639356,-13.23671 19.83648,-0.85283 28.41624,1.79862 43.44874,18.88382 10.30901,-16.85548 26.25411,-22.71488 41.12307,-20.91739 27.48372,3.32247 34.78979,35.20959 80.70665,15.63626 1.89863,-0.80934 3.03308,2.12458 0.0944,3.4713 -41.67717,19.09961 -58.83511,-8.88658 -79.78233,-9.52047 l -4e-5,0 0.35359,0 z"
 id="path3816"
 style="fill:#6b4235;fill-opacity:1;stroke:#000000;stroke-width:0.80816907px;stroke-linecap:butt;stroke-linejoin:round;stroke-opacity:1" />
<path
 d="m 132.6761,140.82331 c -3.36516,2.10063 -7.20124,2.58016 -10.17995,2.5557 l 2.78194,-7.17824 c -4.45242,2.94432 -8.9057,3.17437 -13.35813,2.26027 l 6.16503,-8.52595 c -4.47027,2.33943 -11.17486,3.37586 -17.95821,1.95674 l 9.53298,-11.50864 c -6.3598,0.866 -13.272862,1.80894 -19.434766,-0.84659 l 12.241666,-9.21964 -27.126061,0.1004 c 2.135111,-5.30284 11.845508,-8.89511 18.187233,-9.65509 -5.725433,-6.01272 -15.973857,-2.73723 -30.934856,1.38656 -1.534811,0.42302 -5.306242,-4.44201 -2.865266,-5.32352 14.936585,-5.39225 19.981797,-6.12223 27.429308,-6.7454 -3.935952,-3.31759 -21.596196,0.15133 -30.671179,2.82468 -0.88279,0.25987 -6.342422,-5.42055 -3.955843,-6.16294 15.276773,-4.75314 22.040211,-5.20429 30.311517,-6.00881 -3.048083,-3.75857 -21.435229,-0.0204 -32.109962,1.64329 -1.235063,0.19229 -6.610173,-5.35057 -3.740016,-5.99269 18.778661,-4.20124 37.231717,-7.13223 56.728525,-7.21474 9.44181,-0.04 23.93746,4.49515 31.31447,18.81128 5.22591,-2.5343 10.56592,-3.3463 15.98481,-2.97782 -0.002,-7.83181 8.56083,-15.96752 8.78283,-25.32595 0.0994,-4.26018 -1.95154,-12.634 -1.95154,-12.634 -3.36252,-0.747 -5.04772,-4.07242 -5.19268,-8.67808 -0.007,-0.36226 -0.002,-0.74779 0.0248,-1.15832 l -12.68477,-6.06865 c 5.53317,-4.04214 9.96191,-4.22285 14.42858,-4.53528 1.03417,-4.45294 23.87833,-13.11989 24.8558,9.73792 0.2633,6.15725 -2.78263,12.14221 -2.61528,18.30292 0.31271,11.55242 9.99312,23.64113 9.59052,30.06894 6.4735,-1.37776 12.8364,-0.78778 19.03625,2.75998 9.6377,-13.29263 24.97305,-18.27636 37.21022,-19.18161 19.00376,-1.40581 41.99775,2.86607 61.15546,9.563 1.93332,0.67583 -3.73289,6.32866 -4.77819,5.96752 -9.85598,-3.40513 -30.86724,-8.92901 -36.12487,-4.08817 19.88273,1.87136 24.99121,3.27802 35.05179,6.8593 1.24192,0.44209 -2.71281,5.57161 -4.522,5.09394 -6.30958,-1.66588 -27.29236,-8.43336 -35.80706,-3.76008 16.7387,0.96086 27.19086,4.67602 34.00954,6.88072 0.93209,0.30137 -1.9779,5.75857 -3.86908,5.45172 -6.37306,-1.03405 -31.16858,-9.48671 -39.45891,-0.87485 3.8492,1.35358 14.06905,5.30925 14.45907,10.38616 l -21.57913,0.36309 7.81051,8.46144 c -3.74487,1.29714 -7.34038,2.8771 -13.62292,-0.61727 l 5.92102,7.58996 c -6.00075,2.53699 -9.58189,0.13499 -13.33244,-1.92489 l 4.25048,9.11518 c -4.55634,0.64054 -7.57139,-0.72289 -10.20772,-2.57842 l 1.85241,6.8273 c -3.52896,-0.251 -5.8745,-2.08008 -7.66483,-4.64819 l 0.32671,7.00881 c -2.33863,0.0267 -6.98467,-2.62588 -8.31909,-5.12057 -0.68343,10.07506 6.74804,20.89926 19.39915,18.15772 3.14709,-0.6821 5.93874,7.81859 5.23788,12.14631 -3.48762,-2.09916 -5.76091,-3.90851 -9.77888,-5.17387 -0.68366,5.48794 -3.97393,9.14748 -7.59243,12.05668 -1.53453,-5.06236 -0.60377,-11.82702 -6.32098,-14.09038 -5.6702,-2.2444 -8.33534,-1.80163 -12.60731,-0.35143 2.08466,-4.67464 5.47108,-5.64381 9.55499,-6.40316 l -5.15816,-10.53139 -6.57683,17.10265 c -8.46262,3.23914 -17.87206,8.92914 -24.15665,20.73784 -6.61601,-10.53181 -18.28062,-16.74107 -24.19528,-18.6659 -1.29617,-4.81205 -0.5879,-13.45217 -3.92293,-14.38093 -0.87593,-0.24386 -2.41995,1.77886 -5.77552,7.97849 2.99884,0.54455 7.42443,2.24235 8.8871,6.1543 -5.64112,-0.61095 -7.77242,-1.55314 -11.24965,0.68384 -3.31977,2.13568 -4.60569,6.8398 -3.63242,12.7829 -12.69678,-4.67805 -2.96633,-11.74824 -7.90821,-13.68897 -1.68206,-0.66057 -5.06856,1.51289 -9.47768,3.48697 1.16636,-4.22118 2.91186,-9.04124 5.90586,-10.86078 2.03378,-1.23597 6.45233,2.85331 8.48956,1.87084 3.82822,-1.84597 5.1382,-8.19032 5.49969,-12.43629 l 1e-5,0 -3e-5,0.002 0,1.2e-4 0,2e-5 z"
 id="path2842"
 style="fill:#000000;stroke:none" />
<path
 d="m 159.26478,33.75739 c 5.68036,-5.40776 10.8787,-5.22328 14.72001,-1.87406 -3.57804,-8.84369 -16.90286,-6.56118 -14.72001,1.87406 z"
 id="path3818"
 style="fill:#ff0000;stroke:none" />
<path
 d="m 167.31495,33.38758 a 1.9266003,1.9772717 0 0 1 -3.85292,0 1.9266003,1.9772717 0 1 1 3.85292,0 z"
 id="path3833"
 style="fill:#ffffff;fill-opacity:1;stroke:none" />
</svg>
