<?xml version="1.0" encoding="UTF-8" standalone="no"?>
<!-- Created with Inkscape (http://www.inkscape.org/) -->

<svg
   xmlns:dc="http://purl.org/dc/elements/1.1/"
   xmlns:cc="http://creativecommons.org/ns#"
   xmlns:rdf="http://www.w3.org/1999/02/22-rdf-syntax-ns#"
   xmlns:svg="http://www.w3.org/2000/svg"
   xmlns="http://www.w3.org/2000/svg"
   version="1.1"
   width="390"
   height="480"
   id="svg4228">
  <metadata
     id="metadata10">
    <rdf:RDF>
      <cc:Work
         rdf:about="">
        <dc:format>image/svg+xml</dc:format>
        <dc:type
           rdf:resource="http://purl.org/dc/dcmitype/StillImage" />
        <dc:title></dc:title>
      </cc:Work>
    </rdf:RDF>
  </metadata>
  <defs
     id="defs4232" />
  <path
     d="M 0,0 C 130,0 260,0 390,0 389.98981,114.99797 370.78556,350.14732 194.88837,479.99815 20.79131,350.08886 0.081386,115.02225 0,0 z"
     id="path4240-0"
     style="fill:#008c31;fill-opacity:1;stroke:none" />
  <path
     d="m 58.347458,136.33474 -0.127119,-10.6144 c -0.03265,-2.7264 -10.211276,-5.46991 -10.29661,-1.84322 l -0.254237,10.80508 -9.724577,-1.27118 2.351695,21.99152 9.279661,2.28814 -0.190678,7.11864 c -0.104723,3.90966 11.149795,3.75003 11.122882,0.76271 l -0.06356,-7.05508 119.283055,21.80161 c 0.53735,27.64537 7.41844,52.24598 19.46042,74.9653 l -14.92116,6.38194 -5.12352,-5.84262 c -26.35171,9.43808 -79.643572,25.36458 -79.594461,31.55015 l 185.832111,-0.27587 c 0.97929,-3.41169 2.80197,-19.24435 -2.92373,-18.36865 l -10.80509,1.65255 -11.94915,-21.99153 c 14.21249,-6.6774 22.37259,-36.32967 24.27966,-50.91102 l 9.47034,0.69916 c 8.10309,0.59822 16.41074,-27.59819 9.02542,-28.53814 l -10.48728,-1.33475 c 8.74313,-27.22314 15.09912,-54.685 20.4661,-82.245759 4.17872,-0.151228 7.51907,-2.727539 8.70763,-6.451271 l 5.97457,-18.718221 c 1.04388,-3.270448 6.26885,-3.789953 12.71187,-2.987288 6.18181,0.770123 10.18651,1.216644 15.57203,1.843221 3.75162,0.436481 5.22065,-10.317388 2.35169,-10.677967 l -34.89406,-4.385593 1.58898,-5.021186 c 1.21975,-3.854428 -13.5353,-7.473439 -14.93644,-3.305085 l -43.15678,128.389829 -70.93221,-10.23305 2.92373,-16.46187 c 0.71799,-4.04256 -13.46935,-6.81408 -14.23729,-1.90678 l -2.60593,16.65255 -123.177962,-16.46187 z"
     id="path4578"
     style="fill:#f2f2f2;stroke:none" />
  <path
     d="m 193.02967,181.58898 65.52965,10.10593 c -0.90252,15.99389 -8.52397,53.77633 -46.08051,60.57204 -13.4146,-21.37202 -20.7789,-46.67899 -19.44914,-70.67797 z"
     id="path4602"
     style="fill:#008c31;fill-opacity:1;stroke:none" />
  <path
     d="m 205.42373,269.6822 42.6374,-13.86044 9.07489,16.97882 c -13.57123,6.39685 -44.80567,8.89481 -51.71229,-3.11838 z"
     id="path4604"
     style="fill:#008c31;fill-opacity:1;stroke:none" />
</svg>
