<?xml version="1.0" encoding="UTF-8" standalone="no"?>
<!-- Created with Inkscape (http://www.inkscape.org/) -->

<svg
   xmlns:dc="http://purl.org/dc/elements/1.1/"
   xmlns:cc="http://creativecommons.org/ns#"
   xmlns:rdf="http://www.w3.org/1999/02/22-rdf-syntax-ns#"
   xmlns:svg="http://www.w3.org/2000/svg"
   xmlns="http://www.w3.org/2000/svg"
   version="1.1"
   width="390"
   height="480"
   id="svg4228">
  <metadata
     id="metadata13">
    <rdf:RDF>
      <cc:Work
         rdf:about="">
        <dc:format>image/svg+xml</dc:format>
        <dc:type
           rdf:resource="http://purl.org/dc/dcmitype/StillImage" />
        <dc:title></dc:title>
      </cc:Work>
    </rdf:RDF>
  </metadata>
  <defs
     id="defs4232" />
  <path
     d="m 0.51202379,0.50512952 c 129.66265621,0 259.32532621,0 388.98797621,0 C 389.48983,115.23328 370.33544,349.8309 194.89467,479.37706 21.249382,349.77255 0.5931986,115.2575 0.51202379,0.50512952 z"
     id="path4240-0"
     style="fill:#faf700;fill-opacity:1;stroke:#9e832a;stroke-width:0.99999905;stroke-opacity:1" />
  <path
     d="m 78.305085,261.10169 c 32.748065,-31.11404 66.814405,-59.59152 103.283895,-83.26271 -0.69951,-2.20643 -1.1074,-4.39105 -1.0926,-6.32781 0.0163,-2.13107 14.13545,-12.74731 16.1825,-14.57456 l -1.44893,-2.11286 9.21526,-7.14485 1.7214,1.86489 177.38437,-148.57778243 5.46803,0.030363 C 388.99108,15.379708 388.72988,30.080619 388.04583,44.25962 l -163.93566,129.38445 1.14407,1.84322 -8.83475,6.73729 -1.3983,-1.39831 c -5.3178,4.0678 -14.64813,12.99461 -16.44777,11.97867 l -4.78105,-2.69901 -24.40678,26.82204 c 4.41351,13.95783 34.06221,45.44403 49.44916,60.95339 -27.45383,-3.77356 -54.60977,-17.66901 -72.33051,-41.25 -22.92219,17.4245 -45.61493,23.60614 -68.199155,24.47033 z"
     id="path2827"
     style="fill:#000000;stroke:none" />
  <path
     d="m 245.52965,141.16525 a 3.8135593,3.8135593 0 1 1 -7.62711,0 3.8135593,3.8135593 0 1 1 7.62711,0 z"
     transform="matrix(1.0916666,0,0,1.075,-22.316208,-10.873411)"
     id="path3601"
     style="fill:#faf700;fill-opacity:1;fill-rule:evenodd;stroke:none" />
  <path
     d="m 27.616526,160.83686 c 32.748065,-31.11404 66.814405,-59.59152 103.283904,-83.262715 -0.69951,-2.20643 -1.1074,-4.39105 -1.0926,-6.32781 0.0163,-2.13107 14.13545,-12.74731 16.1825,-14.57456 l -1.44893,-2.11286 9.21526,-7.14485 1.7214,1.86489 56.17521,-48.2720333 51.57853,-3.106e-4 -89.81018,72.3726239 1.14407,1.84322 -8.83476,6.73729 -1.3983,-1.39831 c -5.3178,4.0678 -14.64813,12.99461 -16.44777,11.97867 l -4.78104,-2.69901 -24.40678,26.822045 c 4.41351,13.95783 34.0622,45.44403 49.44916,60.95339 -27.45384,-3.77356 -54.60978,-17.66901 -72.330519,-41.25 -22.92219,17.4245 -45.61493,23.60614 -68.199155,24.47033 z"
     id="path2827-7"
     style="fill:#000000;stroke:none" />
  <path
     d="m 245.52965,141.16525 a 3.8135593,3.8135593 0 1 1 -7.62711,0 3.8135593,3.8135593 0 1 1 7.62711,0 z"
     transform="matrix(1.0916666,0,0,1.075,-73.004764,-111.13824)"
     id="path3601-4"
     style="fill:#faf700;fill-opacity:1;fill-rule:evenodd;stroke:none" />
  <path
     d="m 130.32839,362.44702 c 32.74807,-31.11404 66.81441,-59.59152 103.28391,-83.26271 -0.69951,-2.20643 -1.1074,-4.39105 -1.0926,-6.32781 0.0163,-2.13107 14.13545,-12.74731 16.1825,-14.57456 l -1.44893,-2.11286 9.21526,-7.14485 1.7214,1.86489 118.17318,-97.07213 c -3.11122,18.26504 -6.15977,32.57546 -10.73437,50.73084 l -89.49525,70.44157 1.14407,1.84322 -8.83476,6.73729 -1.3983,-1.39831 c -5.3178,4.0678 -14.64813,12.99461 -16.44777,11.97867 l -4.78104,-2.69901 -24.40679,26.82204 c 4.41351,13.95783 34.06221,45.44403 49.44917,60.95339 -27.45384,-3.77356 -54.60978,-17.66901 -72.33052,-41.25 -22.92219,17.4245 -45.61493,23.60614 -68.19916,24.47033 z"
     id="path2827-9"
     style="fill:#000000;stroke:none" />
  <path
     d="m 245.52965,141.16525 a 3.8135593,3.8135593 0 1 1 -7.62711,0 3.8135593,3.8135593 0 1 1 7.62711,0 z"
     transform="matrix(1.0916666,0,0,1.075,29.7071,90.471923)"
     id="path3601-48"
     style="fill:#faf700;fill-opacity:1;fill-rule:evenodd;stroke:none" />
</svg>
