<?xml version="1.0" encoding="UTF-8" standalone="no"?>
<!-- Created with Inkscape (http://www.inkscape.org/) -->

<svg
   xmlns:svg="http://www.w3.org/2000/svg"
   xmlns="http://www.w3.org/2000/svg"
   xmlns:xlink="http://www.w3.org/1999/xlink"
   version="1.1"
   width="390"
   height="480"
   id="svg4228">
  <defs
     id="defs4232">
    <linearGradient
       id="linearGradient3653">
      <stop
         id="stop3655"
         style="stop-color:#ffffff;stop-opacity:1"
         offset="0" />
      <stop
         id="stop3657"
         style="stop-color:#ffffff;stop-opacity:0"
         offset="1" />
    </linearGradient>
    <linearGradient
       x1="0"
       y1="109.87704"
       x2="390"
       y2="109.87704"
       id="linearGradient2900"
       xlink:href="#linearGradient3653"
       gradientUnits="userSpaceOnUse" />
  </defs>
  <path
     d="M 0,0 C 130,0 260,0 390,0 389.98981,114.99797 370.78556,350.14732 194.88837,479.99815 20.79131,350.08886 0.081386,115.02225 0,0 z"
     id="path4240-0"
     style="color:#000000;fill:#d61a1a;fill-opacity:1;fill-rule:nonzero;stroke:none;marker:none;visibility:visible;display:inline;overflow:visible;enable-background:accumulate" />
  <path
     d="m 188.24474,47.286603 14.15711,0 0.0674,11.70771 30.11196,-28.13446 -0.0449,53.819515 -30.35915,34.920892 0.0899,126.33541 c 0.007,10.34941 11.42944,10.08828 13.66274,2.87637 l 18.42673,-59.50483 36.13435,-43.50505 c 1.75196,13.54863 -6.6935,78.62216 -39.46015,129.97582 -2.18796,3.42909 3.40099,7.20785 6.15722,2.6067 38.71937,-64.63668 41.6664,-104.30734 46.69602,-146.87446 l 34.42651,-41.617437 c -5.53336,72.844827 -18.94392,143.835277 -61.48234,208.177037 -2.15965,3.2666 0.80741,9.95024 5.03364,4.85387 39.19366,-47.26334 66.2822,-136.66829 70.29121,-230.289107 l 33.43776,-37.168049 c -5.69305,107.434206 -16.43858,214.837796 -85.5719,297.569116 -38.89018,46.53958 -60.56288,25.29244 -80.17872,-1.16853 l 0,28.76367 c 0,11.75529 15.70262,26.05932 32.62878,32.98833 -19.02313,16.93574 -31.33925,35.97901 -37.66242,57.7071 -8.30195,-21.98015 -19.71025,-41.94117 -37.57254,-57.7071 16.44648,-5.93003 30.81796,-21.00052 30.876,-32.49395 l 0.1471,-29.1285 c -19.55567,26.97395 -40.64436,41.89426 -77.92373,1.14407 C 52.260592,269.66129 28.769307,148.51382 22.224492,35.69125 l 34.696172,37.03322 c 5.794771,82.8111 20.400158,162.82641 69.931666,229.74978 2.2435,3.03126 7.24826,-1.48876 5.03364,-4.67409 C 86.542288,232.58136 76.602722,145.61692 71.841816,91.780399 l 32.538894,38.291631 c 2.85395,42.59395 10.09809,87.98122 48.35892,149.39129 1.55385,2.49398 8.18034,-0.66227 5.75273,-4.49432 C 126.78887,224.9242 120.2152,184.76613 118.403,146.97069 l 34.87595,40.26913 c 6.23213,20.01472 10.64549,41.40511 19.2357,60.04415 4.21795,9.15212 15.74747,8.65024 15.73013,-3.3258 L 188.065,119.82498 155.52611,83.061412 l 0.3146,-53.7521 32.26924,29.640058 0.13483,-11.662767 -4e-5,0 z"
     id="path3683"
     style="fill:#faf700;fill-opacity:1;stroke:none" />
</svg>
