<?xml version="1.0" encoding="UTF-8" standalone="no"?>
<!-- Created with Inkscape (http://www.inkscape.org/) -->

<svg
   xmlns:svg="http://www.w3.org/2000/svg"
   xmlns="http://www.w3.org/2000/svg"
   version="1.1"
   width="390"
   height="480"
   id="svg4228">
  <defs
     id="defs4232" />
  <path
     d="m 0.51202379,0.50512952 c 129.66265621,0 259.32532621,0 388.98797621,0 C 389.48983,115.23328 370.33544,349.8309 194.89467,479.37706 21.249382,349.77255 0.5931986,115.2575 0.51202379,0.50512952 z"
     id="path4240-0-1"
     style="fill:#207dbf;fill-opacity:1;stroke:#999999;stroke-width:0.99999905;stroke-opacity:1" />
  <path
     d="M 91.336227,365.23166 90.38994,222.15688 c -9.65263,-3.91334 -18.035283,-8.75965 -26.091099,-13.84607 -4.105592,0.35199 -9.152702,-0.38367 -10.614407,-1.58421 -1.9844,-1.62984 -2.027229,-8.13397 -1.398305,-12.35691 -21.622809,-14.53966 -23.834702,-60.45285 -1.585805,-83.69495 1.137596,-5.39464 1.945572,-13.757596 4.134777,-15.772575 1.894395,-1.74363 10.225075,-1.226721 15.280697,-1.613105 6.194173,-4.128355 12.515821,-8.161392 20.044682,-11.291733 0.0605,-18.602888 9.828935,-46.225025 14.74138,-54.935176 5.45835,8.879061 15.26032,35.804661 14.83126,53.680539 8.60327,2.881133 16.7927,7.412685 24.71878,12.994455 0,0 10.93035,1.062432 12.76387,3.405443 1.3305,1.700212 3.05614,12.546362 3.05614,12.546362 18.19509,15.78916 24.4032,71.60457 -1.51078,89.25024 0,0 -1.27035,8.01502 -3.68985,9.17991 -2.19874,1.05859 -8.37222,-1.28539 -8.37222,-1.28539 -7.17307,5.35309 -15.61592,11.13889 -25.67029,15.81607 L 120.1123,405.90461 C 109.32201,392.55675 99.548848,378.37044 91.336227,365.23166 z"
     id="path4952"
     style="fill:#ededed;fill-opacity:1;stroke:none" />
  <path
     d="m 87.116637,152.92373 c -11.88088,-10.89454 -13.157582,-28.45259 -29.110169,-35.40254 -5.417874,11.82382 -12.874301,18.03979 -11.504238,37.30932 0,0 0,0 0,0 -0.195224,22.10816 14.364407,31.65254 14.364407,31.65254 6.192098,-2.48957 16.942379,-20.47697 26.25,-33.55932 z"
     id="path4954"
     style="fill:#207dbf;fill-opacity:1;stroke:none" />
  <path
     d="m 124.63692,152.56382 c 11.56441,-11.5542 12.34449,-29.65595 28.08889,-37.27009 5.74761,12.00747 13.3739,18.18605 12.54885,38.05137 0,0 0,0 0,0 0.81919,22.74035 -13.46008,32.9833 -13.46008,32.9833 -6.25771,-2.38142 -17.50771,-20.57532 -27.17766,-33.76458 z"
     id="path4954-5"
     style="fill:#207dbf;fill-opacity:1;stroke:none" />
  <path
     d="m 121.88359,119.74576 -0.25424,-23.199151 c 7.0936,-0.263173 13.95598,2.936892 16.77966,7.817801 -1.65234,6.09593 -8.24512,14.03172 -16.52542,15.38135 z"
     id="path4978"
     style="fill:#207dbf;fill-opacity:1;stroke:none" />
  <path
     d="m 90.15477,119.74576 0.25424,-23.199152 c -7.0936,-0.263173 -13.95598,2.936892 -16.77966,7.817802 1.65234,6.09593 8.24512,14.03172 16.52542,15.38135 z"
     id="path4978-2"
     style="fill:#207dbf;fill-opacity:1;stroke:none" />
  <path
     d="m 120.88493,186.07128 -0.2636,23.18132 c 7.35476,0.26296 14.46977,-2.93463 17.39741,-7.81179 -1.71317,-6.09124 -8.54867,-14.02093 -17.13381,-15.36953 z"
     id="path4978-6"
     style="fill:#207dbf;fill-opacity:1;stroke:none" />
  <path
     d="m 90.31155,185.80813 0.25424,23.19915 c -7.093596,0.26317 -13.955976,-2.93689 -16.779656,-7.8178 1.65234,-6.09593 8.24512,-14.03172 16.525416,-15.38135 z"
     id="path4978-6-1"
     style="fill:#207dbf;fill-opacity:1;stroke:none" />
  <path
     d="m 298.05573,367.10239 1.17748,-144.97173 c 9.65273,-3.91283 18.03548,-8.75851 26.09138,-13.84426 4.10564,0.35194 9.1528,-0.38363 10.61454,-1.58401 1.98441,-1.62963 2.02725,-8.13291 1.39831,-12.35529 21.62304,-14.53777 23.83496,-60.44498 1.58582,-83.68404 -1.13761,-5.39393 -1.94559,-13.755806 -4.13482,-15.770522 -1.89442,-1.743403 -10.2252,-1.226561 -15.28087,-1.612894 -6.19424,-4.127818 -12.51595,-8.160328 -20.0449,-11.290261 -0.0605,-18.600462 -9.82904,-46.218998 -14.74154,-54.928013 -5.45841,8.877902 -15.26049,35.799993 -14.83143,53.67354 -8.60337,2.880757 -16.79288,7.411718 -24.71905,12.99276 0,0 -10.93047,1.062294 -12.76401,3.404998 -1.33052,1.699992 -3.05617,12.544742 -3.05617,12.544742 -18.1953,15.78709 -24.40347,71.59522 1.51079,89.23858 0,0 1.27036,8.01399 3.68989,9.17872 2.19876,1.05845 8.37232,-1.28522 8.37232,-1.28522 7.17314,5.35238 15.61609,11.13744 25.67057,15.814 l 0.96323,184.30055 c 6.75619,-8.07675 21.21772,-27.88722 28.49846,-39.82165 z"
     id="path4952-4"
     style="fill:#ededed;fill-opacity:1;stroke:none" />
  <path
     d="m 302.50634,152.92373 c 11.88088,-10.89454 13.15759,-28.45259 29.11017,-35.40254 5.41788,11.82382 12.8743,18.03979 11.50424,37.30932 0,0 0,0 0,0 0.19522,22.10816 -14.36441,31.65254 -14.36441,31.65254 -6.19209,-2.48957 -16.94238,-20.47697 -26.25,-33.55932 z"
     id="path4954-2"
     style="fill:#207dbf;fill-opacity:1;stroke:none" />
  <path
     d="m 264.98606,152.56382 c -11.56441,-11.5542 -12.34449,-29.65595 -28.08889,-37.27009 -5.74761,12.00747 -13.3739,18.18605 -12.54885,38.05137 0,0 0,0 0,0 -0.81919,22.74035 13.46008,32.9833 13.46008,32.9833 6.25771,-2.38142 17.50771,-20.57532 27.17766,-33.76458 z"
     id="path4954-5-3"
     style="fill:#207dbf;fill-opacity:1;stroke:none" />
  <path
     d="m 267.73939,119.74576 0.25424,-23.199152 c -7.0936,-0.263173 -13.95598,2.936892 -16.77966,7.817802 1.65234,6.09593 8.24512,14.03172 16.52542,15.38135 z"
     id="path4978-22"
     style="fill:#207dbf;fill-opacity:1;stroke:none" />
  <path
     d="m 299.46821,119.74576 -0.25424,-23.199153 c 7.0936,-0.263173 13.95598,2.936892 16.77966,7.817803 -1.65234,6.09593 -8.24512,14.03172 -16.52542,15.38135 z"
     id="path4978-2-1"
     style="fill:#207dbf;fill-opacity:1;stroke:none" />
  <path
     d="m 268.73805,186.07128 0.2636,23.18132 c -7.35476,0.26296 -14.46977,-2.93463 -17.39741,-7.81179 1.71317,-6.09124 8.54867,-14.02093 17.13381,-15.36953 z"
     id="path4978-6-6"
     style="fill:#207dbf;fill-opacity:1;stroke:none" />
  <path
     d="m 299.31143,185.80813 -0.25424,23.19915 c 7.0936,0.26317 13.95598,-2.93689 16.77966,-7.8178 -1.65234,-6.09593 -8.24512,-14.03172 -16.52542,-15.38135 z"
     id="path4978-6-1-8"
     style="fill:#207dbf;fill-opacity:1;stroke:none" />
</svg>
