<?xml version="1.0" encoding="UTF-8" standalone="no"?>
<!-- Created with Inkscape (http://www.inkscape.org/) -->

<svg
   xmlns:dc="http://purl.org/dc/elements/1.1/"
   xmlns:cc="http://creativecommons.org/ns#"
   xmlns:rdf="http://www.w3.org/1999/02/22-rdf-syntax-ns#"
   xmlns:svg="http://www.w3.org/2000/svg"
   xmlns="http://www.w3.org/2000/svg"
   xmlns:xlink="http://www.w3.org/1999/xlink"
   version="1.1"
   width="390"
   height="480"
   id="svg4228">
  <metadata
     id="metadata13">
    <rdf:RDF>
      <cc:Work
         rdf:about="">
        <dc:format>image/svg+xml</dc:format>
        <dc:type
           rdf:resource="http://purl.org/dc/dcmitype/StillImage" />
        <dc:title></dc:title>
      </cc:Work>
    </rdf:RDF>
  </metadata>
  <defs
     id="defs4232" />
  <path
     d="M 0,0 C 130,0 260,0 390,0 389.98981,114.99797 370.78556,350.14732 194.88837,479.99815 20.79131,350.08886 0.081386,115.02225 0,0 z"
     id="path4240-0"
     style="fill:#008c31;fill-opacity:1;stroke:none" />
  <path
     d="m 154.77119,32.161016 c 20.21391,5.0161 26.42244,31.106321 27.07627,43.983051 0.55303,10.891567 -9.27453,24.064733 -15.42909,30.904923 -2.05642,2.28552 2.38118,10.27858 4.87824,12.44253 -30.19235,43.2048 -46.3166,76.78477 -46.65254,101.05933 -0.55429,40.05229 33.51882,95.21929 61.27118,124.83051 2.04177,2.17853 9.90267,51.55771 -13.85593,60.38135 0.87785,-3.9346 1.24325,-8.58396 -1.90678,-12.71186 -3.59781,-4.71469 -18.22957,1.69694 -25.20626,-3.85959 -8.34593,-6.64704 -9.30929,-24.2552 7.0283,-24.86923 -1.00297,25.63905 21.27969,12.9029 21.10169,2.92373 -0.33459,-18.50379 -25.14692,-25.3637 -49.79929,-45.343 -20.48496,-16.60185 -36.954048,-42.17746 -40.200709,-67.02988 -7.505774,0.0501 -15.151928,-2.05843 -20.911016,-7.56356 -4.545212,-4.34478 -3.600392,-39.72855 4.449152,-43.72881 9.01681,-4.48096 12.442503,-0.5781 18.622881,-5.02119 22.541132,-35.31272 46.051932,-71.85023 47.288132,-98.644067 -10.63841,-15.542528 9.97688,-34.127464 23.26272,-25.169491 2.89986,1.955227 6.16977,-6.02686 5.08474,-7.754237 -2.46725,-3.927893 -4.13167,-10.172027 -3.43221,-13.22034 0.61457,-2.678325 2.28521,-5.033976 4.0678,-6.737288 -1.20731,-5.165318 -3.85621,-10.042317 -6.73728,-14.872881 z"
     id="path5187"
     style="fill:#faf700;fill-opacity:1;stroke:none" />
  <path
     d="m 136.52966,98.834745 c 10.02431,-1.765308 17.2382,-10.14659 20.27543,-19.004238 -12.95443,-9.94001 -28.41296,5.857471 -20.27543,19.004238 z"
     id="path5721"
     style="fill:#008c31;fill-opacity:1;stroke:none" />
  <path
     d="m 64.723049,243.68644 c -2.124512,-12.99737 0.355715,-31.41333 4.115934,-33.81356 5.950846,-3.79855 13.353994,-4.69211 14.832461,-0.24644 1.649488,4.95992 -4.116835,12.75782 -3.495036,19.86996 0.381562,4.36431 2.464165,9.94888 0.603692,14.76207 -2.023684,5.23544 -15.755161,1.27488 -16.057051,-0.57203 z"
     id="path5723"
     style="fill:#008c31;fill-opacity:1;stroke:none" />
  <use
     transform="matrix(-1,0,0,1,390.24969,0)"
     id="use2997"
     x="0"
     y="0"
     width="390"
     height="480"
     xlink:href="#path5187" />
  <use
     transform="matrix(-1,0,0,1,390.24969,0)"
     id="use2999"
     x="0"
     y="0"
     width="390"
     height="480"
     xlink:href="#path5721" />
  <use
     transform="matrix(-1,0,0,1,390.24969,0)"
     id="use3001"
     x="0"
     y="0"
     width="390"
     height="480"
     xlink:href="#path5723" />
</svg>
