<?xml version="1.0" encoding="UTF-8" standalone="no"?>
<!-- Created with Inkscape (http://www.inkscape.org/) -->

<svg
   xmlns:svg="http://www.w3.org/2000/svg"
   xmlns="http://www.w3.org/2000/svg"
   xmlns:xlink="http://www.w3.org/1999/xlink"
   version="1.1"
   width="390"
   height="480"
   id="svg4228">
  <defs
     id="defs4232">
    <linearGradient
       id="linearGradient3652">
      <stop
         id="stop3654"
         style="stop-color:#ffffff;stop-opacity:1"
         offset="0" />
      <stop
         id="stop3656"
         style="stop-color:#ffffff;stop-opacity:0"
         offset="1" />
    </linearGradient>
    <linearGradient
       x1="1.041629"
       y1="110.18271"
       x2="389.03033"
       y2="110.18271"
       id="linearGradient2857"
       xlink:href="#linearGradient3652"
       gradientUnits="userSpaceOnUse"
       gradientTransform="translate(0,3.7e-6)" />
  </defs>
  <path
     d="m 0.51202379,0.50512952 c 129.66265621,0 259.32532621,0 388.98797621,0 C 389.48983,115.23328 370.33544,349.8309 194.89467,479.37706 21.249382,349.77255 0.5931986,115.2575 0.51202379,0.50512952 z"
     id="path4240-0-1"
     style="fill:#207dbf;fill-opacity:1;stroke:#999999;stroke-width:0.99999905;stroke-opacity:1" />
  <path
     d="M 323.9935,320.64425 C 257.70516,275.77867 200.45126,226.37055 155.27817,173.64407 130.38336,146.04177 122.17687,119.30491 114.318,91.525423 110.39116,77.644816 106.84315,60.230106 99.607855,51.228813 95.315159,45.88835 74.492222,40.138013 78.049863,33.050847 c 1.394339,-2.777657 24.999657,12.484446 32.717417,23.38983 15.4135,21.779661 26.07758,43.734573 39.56525,66.864403 25.44487,43.63507 137.10532,132.25735 186.80678,168.24063 -3.47979,8.60187 -9.35848,21.4235 -13.14581,29.09854 z"
     id="path2827"
     style="fill:#ececec;stroke:none" />
  <path
     d="M 297.07033,368.63475 C 231.69327,313.61615 155.72451,260.96614 109.10394,208.89471 84.202674,181.29241 75.99406,154.55555 68.133155,126.77606 64.205292,112.89546 60.65636,95.480752 53.419189,86.479452 49.125381,81.138992 28.297044,75.388655 31.855608,68.301489 c 1.3947,-2.777657 25.006141,12.484446 32.725901,23.389833 15.417498,21.779658 25.04768,44.374018 39.575511,66.864398 27.19645,42.10253 153.35712,144.93352 209.02359,182.9532 -4.52941,8.4442 -10.93161,19.07393 -16.11028,27.12583 z"
     id="path2827-7"
     style="fill:#ececec;stroke:none" />
</svg>
