<?xml version="1.0" encoding="UTF-8" standalone="no"?>
<!-- Created with Inkscape (http://www.inkscape.org/) -->

<svg
   xmlns:svg="http://www.w3.org/2000/svg"
   xmlns="http://www.w3.org/2000/svg"
   version="1.1"
   width="390"
   height="480"
   id="svg4228">
  <defs
     id="defs4232" />
  <path
     d="m 0.51202379,0.50512952 c 129.66265621,0 259.32532621,0 388.98797621,0 C 389.48983,115.23328 370.33544,349.8309 194.89467,479.37706 21.249382,349.77255 0.5931986,115.2575 0.51202379,0.50512952 z"
     id="path4240-0-1"
     style="fill:#d9d9d9;fill-opacity:1;stroke:#999999;stroke-width:0.99999905;stroke-opacity:1" />
  <path
     d="m 164.35798,282.16926 c -1.70965,8.43712 3.00702,16.38184 2.80155,25.47665 -0.25315,11.20539 -9.96496,20.95636 -26.20622,19.49417 2.56035,-5.3793 0.77992,-11.45373 -5.95331,-9.16343 -0.23133,-13.57677 12.60409,-17.13703 11.96498,-26.67315 -0.2404,-3.58704 -0.41603,-7.10729 -5.54475,-8.87159 -1.23173,3.49788 -3.37604,6.36238 -5.36965,7.87938 -8.78003,-9.85207 -23.0673,-19.55541 -26.32295,-23.0253 -1.6152,-1.72149 -1.87751,-3.24983 -2.15954,-5.19455 -1.7412,1.42707 -3.18102,3.33943 -4.78599,5.95331 -11.274294,-10.66796 -15.397097,-17.86031 -14.416341,-31.07977 -6.80674,4.45632 -12.262459,12.24236 -20.36965,12.31518 -13.758211,0.12357 -19.895223,-16.57777 -20.749027,-26.03113 3.670099,-6.9436 4.071909,-17.43399 3.531128,-25.38911 -0.629559,-9.26109 -1.867704,-14.74708 -5.953307,-24.04669 -0.147393,-9.92985 6.413853,-12.76898 8.404669,-17.62646 L 70.934677,97.857861 C 83.23305,83.796394 115.90269,57.003233 126.18677,58.949416 c 71.71334,13.571204 104.55181,16.975996 107.27627,23.696499 4.99743,12.327307 8.29305,27.468015 18.9105,31.634235 17.04407,6.68798 40.59233,7.90003 52.17899,21.8288 6.55148,7.87579 32.52262,50.91455 31.16732,55.68093 l -20.77822,73.07393 c -1.284,4.51563 3.97408,6.26414 4.90273,14.29961 0.27268,2.35943 -12.4039,5.38524 -13.19066,4.37744 -0.6805,-0.87168 -1.15348,-1.78487 -2.5681,-2.50973 -1.61851,2.89497 0.30236,8.23458 0.93386,14.53307 1.88998,18.85042 -8.5214,18.65759 -28.83269,22.12062 2.06353,-5.18214 0.63162,-8.17073 -4.99027,-5.98248 0.11933,-13.13034 4.99632,-13.56668 9.42607,-19.52335 3.34766,-4.50159 4.43676,-9.47496 3.32685,-13.01557 -2.02901,-6.47252 -5.80484,4.01816 -14.59144,9.22179 -2.08213,-1.02799 -4.06765,-2.13878 -5.07782,-4.0856 -3.29954,8.65257 -0.30287,13.35168 -0.11674,19.78599 0.10605,3.66582 -5.80235,17.7988 -30.70038,16.80934 3.11422,-5.66059 -0.43562,-8.20437 -6.07004,-6.6537 1.83611,-11.11421 19.79761,-19.74759 19.2607,-31.05058 -0.25751,-5.42108 -7.74461,3.31471 -14.00779,6.42023 -0.71866,-0.97921 -0.8015,-4.075 -1.8677,-6.07003 -1.90999,-3.5739 -4.40444,-0.52874 -7.82101,7.47081 -6.48755,-0.68958 -11.33881,-7.60643 -15.29183,-3.85214 -3.74425,3.556 1.85757,14.50234 1.63424,21.94553 -0.32287,10.76089 -7.2145,13.50462 -25.03891,14.59144 0.4662,-7.00598 -2.27782,-8.39106 -8.3463,-5.83658 0.0725,-13.08454 8.65521,-16.1389 11.08949,-24.04669 1.18137,-3.83769 3.00792,-7.48796 0.81712,-13.07393 -1.53942,-3.92513 -9.07705,-3.63476 -15.05836,4.4358 -2.98514,0.44879 -7.07662,-1.14776 -8.40467,-3.00584 z"
     id="path3657"
     style="fill:#000000;stroke:none" />
  <path
     d="m 75.787938,173.46303 c -2.496074,-3.27654 9.653551,-3.51855 13.27821,-3.50194 4.035444,0.0185 -1.429166,6.62297 -4.785992,7.00389 -3.621629,0.41096 -6.326161,-0.65861 -8.492218,-3.50195 z"
     id="path3659"
     style="fill:#d9d9d9;fill-opacity:1;stroke:none" />
  <path
     d="m 68.988327,224.53307 c 0.512664,-3.98321 5.200931,-3.08858 6.011673,0.87549 0.940431,4.59818 -3.808891,11.18699 -6.712062,10.44747 -4.016694,-1.02317 0.05116,-6.27866 0.700389,-11.32296 z"
     id="path3661"
     style="fill:#d9d9d9;fill-opacity:1;stroke:none" />
  <path
     d="m 134.94163,177.43191 c 5.03072,10.45555 -1.8591,23.87156 -12.49027,24.86381 -20.24134,1.8892 -21.2862,-55.96156 -40.739298,-56.61479 -13.235814,-0.44446 -22.731136,5.94493 -31.443004,15.52089 -17.625181,-7.27666 0.369885,-44.84432 1.559736,-49.2563 C 54.19934,103.1555 75.861117,94.259215 82.479432,97.472554 120.1604,115.7675 110.58397,155.1281 116.49806,183.38521 c 2.88204,13.7702 16.55782,8.39969 18.44357,-5.9533 z"
     id="path3663"
     style="fill:#faf700;fill-opacity:1;stroke:#000000;stroke-width:1px;stroke-linecap:butt;stroke-linejoin:miter;stroke-opacity:1" />
</svg>
