<?xml version="1.0" encoding="UTF-8" standalone="no"?>
<!-- Created with Inkscape (http://www.inkscape.org/) -->

<svg
   xmlns:svg="http://www.w3.org/2000/svg"
   xmlns="http://www.w3.org/2000/svg"
   version="1.1"
   width="390"
   height="480"
   id="svg4228">
  <defs
     id="defs4232" />
  <path
     d="M 0,0 C 130,0 260,0 390,0 389.98981,114.99797 370.78556,350.14732 194.88837,479.99815 20.79131,350.08886 0.081386,115.02225 0,0 z"
     id="path4240-0"
     style="fill:#207dbf;fill-opacity:1;stroke:none" />
  <path
     d="m 206.92682,273.9728 c 5.53445,-0.55196 10.09296,-2.32384 13.867,-5.07631 0.64066,10.83893 1.53319,21.65986 8.21289,32.06743 8.48172,-3.78733 16.66178,-8.10256 23.40056,-14.94004 3.96613,4.97141 8.59641,9.11263 14.32098,11.88599 2.71997,-4.62822 5.01054,-9.39957 5.11758,-14.89876 11.43474,5.99974 25.82607,9.27033 42.98356,9.98754 -0.79064,-15.03091 -2.60586,-29.85691 -9.92563,-43.58199 5.03504,-0.33386 10.07008,-1.99245 15.10512,-5.40648 -2.85258,-6.2223 -7.08324,-10.51527 -12.13362,-13.66064 7.65554,-6.59272 11.39371,-14.9265 15.18766,-23.23548 -13.95393,-7.38593 -23.3332,-9.21692 -31.15947,-9.16212 2.00384,-2.97963 4.18776,-8.54261 4.04454,-12.75269 -38.2344,-7.22725 -36.53241,5.54673 -51.5972,5.49901 -24.11428,-0.0764 -27.69495,-34.85402 0.81574,-36.1853 14.8293,0.0552 13.97658,11.9096 50.82273,5.38728 -0.32088,-5.092 -1.44375,-9.5424 -3.962,-12.8765 9.63461,-0.37114 19.61894,-1.73315 31.86108,-9.49229 -3.42103,-8.57768 -8.35494,-16.07473 -14.8575,-22.45132 4.93467,-4.22562 8.21766,-8.81015 11.37658,-14.04038 -4.06736,-3.414802 -8.65972,-6.1171 -13.6052,-6.18232 5.89238,-13.73113 6.99922,-28.33235 8.17162,-42.92166 -16.95521,0.37854 -30.325,4.3425 -42.92166,9.07958 -0.0763,-4.58814 -2.50297,-9.40974 -5.3652,-14.11462 -7.3402,2.76608 -11.69318,6.61842 -14.19717,11.14312 -9.32633,-7.81219 -16.56986,-11.45879 -23.27674,-14.03208 -3.6279,7.99475 -7.78412,13.87625 -9.32721,30.21025 -3.89108,-1.49857 -6.95893,-3.50078 -12.30458,-2.69212 -8.48147,34.11418 4.93946,36.21129 5.05403,50.35347 0.21378,26.38885 -35.06795,26.54446 -34.86669,-2.00829 0.23133,-10.28174 12.87583,-17.18321 4.96348,-48.24018 -5.11379,0.25898 -8.11276,1.18442 -12.28869,3.24745 -1.57092,-14.20435 -5.21903,-23.2157 -9.40974,-30.87058 -10.89776,2.42208 -17.10982,8.25195 -23.27675,14.11463 -4.86255,-6.21285 -9.74773,-9.50385 -14.03208,-11.30821 -2.96208,3.56186 -5.72485,9.88098 -5.77791,14.19716 -14.49981,-6.74475 -28.669464,-9.23738 -43.004198,-8.99704 0.637445,14.14444 2.03197,28.34294 8.749415,42.92166 -5.222723,0.65576 -10.041586,2.336718 -13.701914,5.53028 2.741643,5.68136 5.988952,10.1108 10.978039,14.27971 -7.048636,7.82458 -10.388718,15.41737 -14.03208,23.02912 8.968943,4.15518 18.133198,8.11504 30.127701,9.24466 -2.090639,4.9187 -2.948799,9.77224 -2.888957,13.12412 38.895264,7.56937 33.577184,-5.19953 53.982654,-5.37098 20.80874,-0.1768 24.77339,35.30684 -2.78849,35.32419 -17.62898,0.79515 -17.82199,-14.79999 -51.441789,-4.94309 0.152674,6.1329 1.708562,9.45937 3.136582,13.04158 -11.586647,0.72416 -21.251589,4.33089 -30.210243,8.99704 3.484764,8.77109 8.072708,16.62286 14.197164,23.19421 -5.191256,3.28302 -9.376049,7.5725 -11.060581,14.36224 4.649846,2.81422 9.299692,5.64014 13.949538,5.44775 -6.013325,13.81765 -9.064073,28.05852 -8.914497,42.75658 14.730479,-0.99629 29.478476,-1.91079 42.921656,-8.9145 1.04544,4.98004 2.22458,9.91552 5.86045,14.03208 5.09015,-2.98974 9.92098,-6.32523 13.70192,-11.06058 5.72575,6.50939 13.92494,11.095 23.60691,14.52733 5.16204,-8.92155 8.37477,-19.14263 9.57483,-30.7055 3.74738,1.63251 7.98626,3.0295 12.2987,3.13659 6.67739,-32.81749 -5.3116,-36.12221 -5.18951,-52.6646 0.18204,-24.66515 34.90125,-25.27149 34.96192,2.43127 -0.37137,12.81861 -11.9536,15.52107 -5.83533,50.23333 z"
     id="path2827"
     style="fill:#ededed;fill-opacity:1;stroke:none" />
  <path
     d="m 218.85081,172.36615 a 23.727453,23.528899 0 0 1 -47.4549,0 23.727453,23.528899 0 1 1 47.4549,0 z"
     id="path3781"
     style="fill:#207dbf;fill-opacity:1;stroke:none" />
</svg>
