<?xml version="1.0" encoding="UTF-8" standalone="no"?>
<!-- Created with Inkscape (http://www.inkscape.org/) -->

<svg
   xmlns:svg="http://www.w3.org/2000/svg"
   xmlns="http://www.w3.org/2000/svg"
   xmlns:xlink="http://www.w3.org/1999/xlink"
   version="1.1"
   width="390"
   height="480"
   id="svg4228">
  <defs
     id="defs4232" />
  <path
     d="M 0,0 C 130,0 260,0 390,0 389.98981,114.99797 370.78556,350.14732 194.88837,479.99815 20.79131,350.08886 0.081386,115.02225 0,0 z"
     id="path4240-0"
     style="fill:#207dbf;fill-opacity:1;stroke:none" />
  <path
     d="m 79.150862,314.96649 60.937178,0.002 -1.12358,-93.03248 c 0.64444,-37.9837 -21.92901,-43.76059 -22.02218,-56.89813 L 116.1333,50.972003 c 6.00931,-6.916791 7.71911,-14.286821 6.92126,-20.673885 -2.39507,-19.173249 -25.581383,-19.033711 -27.774917,0 -0.887488,7.700907 0.509108,13.922281 6.921257,20.763772 l 0,113.52659 c 0,13.70914 -24.86725,19.19475 -23.190706,58.15653 l 0.140671,92.22153 z"
     id="path3696"
     style="fill:#ededed;fill-opacity:1;stroke:none" />
  <path
     d="m 86.977053,315.48132 44.005017,-0.0341 0.0225,-81.88776 c 0.21584,-13.78906 0.98212,-45.31392 -21.99126,-45.28608 -22.716449,0.0275 -22.775121,32.56332 -22.036236,45.42248 l 0,81.78546 -3.1e-5,0 z"
     id="path3694"
     style="fill:#ededed;fill-opacity:1;stroke:#207dbf;stroke-width:0.99965972;stroke-linecap:butt;stroke-linejoin:miter;stroke-miterlimit:4;stroke-opacity:1;stroke-dasharray:none" />
  <use
     transform="translate(164,1.499995e-7)"
     id="use3765"
     x="0"
     y="0"
     width="390"
     height="480"
     xlink:href="#path3696" />
  <path
     d="m 166.45254,411.80627 61.12021,-0.0161 c -0.0109,-30.92447 -0.0108,-59.53341 -0.0256,-90.73135 0.64444,-37.9837 -23.19365,-46.06156 -23.26081,-59.19926 l -1.0744,-210.189699 c 6.00931,-6.91679 7.71911,-14.28682 6.92126,-20.67388 -2.39507,-19.17325 -25.58138,-19.03371 -27.77492,0 -0.88748,7.7009 0.50911,13.92228 6.92126,20.76377 l -0.35955,209.525319 c -0.0235,13.70912 -22.60163,19.48381 -22.61259,58.32059 0.0265,32.56367 0.0628,71.86866 0.14514,92.20061 z"
     id="path3696-1-4"
     style="fill:#ededed;fill-opacity:1;stroke:none" />
  <path
     d="m 173.64755,412.36877 44.05156,-0.0341 0.0225,-82.01117 c 0.21605,-13.80984 0.98315,-45.38217 -22.01452,-45.35429 -22.74045,0.0276 -22.7992,32.61239 -22.05954,45.49091 l 0,81.90868 -3e-5,0 z"
     id="path3694-7-0"
     style="fill:#ededed;fill-opacity:1;stroke:#207dbf;stroke-width:0.99996734;stroke-linecap:butt;stroke-linejoin:miter;stroke-miterlimit:4;stroke-opacity:1;stroke-dasharray:none" />
  <use
     transform="translate(164,1.499995e-7)"
     id="use3767"
     x="0"
     y="0"
     width="390"
     height="480"
     xlink:href="#path3694" />
</svg>
