<?xml version="1.0" encoding="UTF-8" standalone="no"?>
<!-- Created with Inkscape (http://www.inkscape.org/) -->

<svg
   xmlns:svg="http://www.w3.org/2000/svg"
   xmlns="http://www.w3.org/2000/svg"
   xmlns:xlink="http://www.w3.org/1999/xlink"
   version="1.1"
   width="390"
   height="480"
   id="svg4228">
  <defs
     id="defs4232">
    <linearGradient
       id="linearGradient3653">
      <stop
         id="stop3655"
         style="stop-color:#ffffff;stop-opacity:1"
         offset="0" />
      <stop
         id="stop3657"
         style="stop-color:#ffffff;stop-opacity:0"
         offset="1" />
    </linearGradient>
    <linearGradient
       x1="0"
       y1="109.87704"
       x2="390"
       y2="109.87704"
       id="linearGradient2843"
       xlink:href="#linearGradient3653"
       gradientUnits="userSpaceOnUse" />
  </defs>
  <path
     d="M 0,0 C 130,0 260,0 390,0 389.98981,114.99797 370.78556,350.14732 194.88837,479.99815 20.79131,350.08886 0.081386,115.02225 0,0 z"
     id="path4240-0"
     style="color:#000000;fill:#d61a1a;fill-opacity:1;fill-rule:nonzero;stroke:none;marker:none;visibility:visible;display:inline;overflow:visible;enable-background:accumulate" />
  <path
     d="m 112.74012,120.67254 c -2.30357,4.49246 -4.38776,9.60121 -4.9404,13.46833 L 72.721753,112.81509 c -4.730361,-2.87585 -14.605461,1.90305 -15.672107,9.41853 -2.922509,20.59169 -6.444437,38.30682 -11.667085,53.66687 -2.509922,7.38178 3.998181,22.48354 6.279132,32.31598 0.644839,2.7797 12.253135,-11.73439 10.82899,-14.68225 -3.149941,-6.52007 -11.376481,-11.90159 0.265742,-15.61235 1.937063,-0.61739 0.36293,-7.46775 -1.062968,-10.56324 -3.223939,-6.99879 0.551401,-22.62886 9.101665,-33.81566 7.176405,6.31983 14.464302,11.52474 21.525107,19.00055 -5.159824,-1.0183 -10.319647,-2.35032 -15.479474,-4.98266 -4.568033,-2.33043 -11.022198,3.89619 -9.832458,7.10861 5.10164,13.77484 10.243512,27.48127 8.835926,45.50831 -0.803213,10.28679 7.933987,22.20505 13.619279,30.82609 2.025123,3.07085 5.225707,-17.45518 2.9896,-19.13343 -2.775714,-2.08324 -8.267653,-6.67176 -7.108601,-7.57365 3.143633,-2.44615 4.899802,-5.2716 3.986131,-7.70653 -2.169688,-5.78216 -9.52187,-16.73468 -5.18197,-24.91331 10.141396,9.05418 16.230168,24.56257 32.420528,23.98321 15.9777,18.47384 32.28761,36.72275 58.06465,50.29169 3.62398,17.57934 13.00935,26.3034 22.71911,35.82095 16.44961,16.12399 36.15827,21.77198 39.06592,68.01777 0.88598,14.0915 10.09777,24.49267 15.1473,36.73884 2.97787,-3.94254 5.43074,-15.27208 3.98613,-23.78392 -0.7939,-4.6777 -9.91866,-8.37845 -8.90235,-9.43384 1.76367,-1.8315 5.31092,-4.59044 4.25185,-6.64355 -12.77779,-24.77094 -3.43667,-27.88625 -9.46887,-43.69865 -1.83576,-4.81216 -10.88349,-13.21755 -12.85344,-23.0026 10.93824,9.16873 33.94287,21.36828 33.21776,66.70125 l 11.65235,20.29841 c 2.08828,3.63781 7.97401,-13.0872 5.35513,-17.1095 -1.87926,-1.75262 -5.55468,-3.40503 -5.18198,-5.31486 0.67582,-3.46296 4.27475,-8.37227 3.3218,-10.0982 -14.94398,-27.06509 -8.60579,-38.13751 -12.56225,-45.65783 -3.96874,-7.54372 -17.69483,-17.26484 -19.06108,-23.56796 -1.32024,-6.09104 -4.16097,-18.53404 -0.66434,-18.60195 l 6.84285,-0.13288 c 1.89585,-0.0368 4.02805,-3.12986 2.65743,-3.91969 -13.08501,-7.54047 -9.87676,-23.58715 -29.43095,-38.59902 -32.37686,-24.8559 -36.36295,-31.32318 -48.0993,-63.64524 -5.12321,-14.10936 4.01011,-30.87038 0.19928,-46.305551 -2.38719,-4.273093 -5.4545,-11.573589 -4.05253,-17.871154 0.77775,10.753381 6.36534,22.924817 14.08433,24.315385 1.30251,-1.812446 3.60825,-10.826788 0.71937,-16.597468 -2.40774,-4.809603 -4.81912,-7.422297 -5.43631,-11.371872 11.75776,20.690417 30.83061,37.23683 50.55742,48.03286 1.57585,6.5489 4.79518,12.33475 8.10513,18.07049 2.66109,4.6113 9.25993,1.62601 8.18436,-1.11133 -1.59498,-4.05935 -3.15168,-8.12635 -4.13179,-12.30866 6.85526,1.99454 14.32441,2.96597 21.92374,3.7204 1.33926,6.92271 6.59001,13.39986 12.68919,18.1369 2.40477,1.8677 7.11561,-3.08084 6.24492,-4.6505 -2.56886,-4.63104 -6.65454,-7.46937 -9.16811,-13.02135 -1.14321,-2.52514 9.50395,-3.65636 12.22414,0.46504 6.92645,10.49439 19.63096,16.28035 30.02885,15.34662 2.45669,-0.22064 4.3091,-6.33385 0.19932,-7.77297 -6.51502,-2.28138 -15.65829,-4.27993 -20.36347,-11.01216 -1.11406,-1.59401 1.80353,-7.82364 5.54833,-5.26455 2.4027,1.64194 6.1606,5.45223 10.20356,6.10207 5.82353,0.93602 8.08916,-4.74424 4.14653,-7.96226 -2.57168,-2.09903 -7.94726,-3.95721 -6.31139,-5.91275 l 5.7799,-6.90931 c 1.98486,-2.37269 -1.08805,-6.80974 -3.65396,-4.25186 -23.31794,23.24515 -78.00708,25.04458 -97.52733,-9.10167 16.06602,2.910736 32.64177,0.622306 49.95952,-9.234535 10.86631,2.596361 24.79979,4.144239 30.47915,-5.942236 3.18898,-5.663566 -0.60161,-9.063586 -2.77554,-7.145561 -5.60758,4.947407 -12.14316,8.17507 -18.80126,6.045633 8.46332,-16.609661 13.26906,-17.543914 18.33621,-19.598479 3.4527,-1.399961 2.79404,-8.714816 -3.14331,-6.870378 l -6.29055,1.95415 -1.39514,-14.017895 c -0.22593,-2.270086 -4.2828,-2.366026 -4.18545,0.465049 0.97436,28.330897 -27.77557,47.668419 -60.12413,44.976844 -16.84145,-1.401297 -25.0824,-23.109507 -22.64507,-28.812983 3.87602,-9.070051 2.06486,-18.638638 16.79876,-29.251658 2.06527,-1.487644 -1.76899,-8.891573 -4.98269,-6.776425 l -8.17155,5.38128 c -3.0352,-0.59969 -3.81454,-3.664017 -5.51414,-5.64702 -1.46058,-1.704086 -7.11095,0.836592 -4.23635,7.026282 6.72441,9.14713 2.87691,17.005186 -3.73232,24.13328 -1.98071,-12.962488 -4.43242,-35.693508 -10.10006,-33.541583 -4.2331,1.607256 -3.63777,3.920951 -5.49629,3.006529 -4.72152,-2.323056 -7.84611,0.180217 -7.84514,3.053505 0.002,7.637788 9.59896,7.594617 16.01914,25.41456 -11.51541,-4.501269 -24.85996,-12.208887 -36.12533,-22.971754 -5.98101,-5.714231 -15.6338,3.897426 -11.50934,8.690745 l 6.10701,6.247941 c 0.94972,1.383868 -0.52356,6.517509 -3.14748,5.261424 l -6.20094,-2.95955 c -2.70032,-1.288785 -3.23692,6.800057 -1.26839,8.831675 2.79957,2.889323 8.52766,5.035173 8.78471,10.05308 0.48002,9.370666 4.44575,6.346088 3.71116,13.247518 -1.3854,13.015912 -22.9065,11.429114 -28.18619,23.159662 2.54676,-0.993796 7.16628,-2.217488 9.77121,-1.268379 -2.80619,6.729199 -13.3911,5.128699 -17.9452,17.663359 2.75725,-0.98965 5.39154,-2.05611 9.11353,-2.44281 -3.74241,3.30592 -7.22309,5.31399 -7.51632,12.40194 2.01606,-1.55539 4.78433,-3.25065 8.17751,-2.9444 z"
     id="path3749"
     style="fill:#faf700;fill-opacity:1;stroke:none" />
  <path
     d="m 138.01023,27.689886 c -3.0884,2.429329 2.21075,7.204939 4.55677,5.16747"
     id="path3751"
     style="fill:none;stroke:#d61a1a;stroke-width:0.5082317;stroke-linecap:round;stroke-linejoin:miter;stroke-miterlimit:4;stroke-opacity:1;stroke-dasharray:none" />
  <path
     d="m 162.67315,49.675122 c -2.6884,5.12989 3.24601,12.206777 8.31492,11.791229 1.17596,-3.528447 0.5739,-11.847398 -8.31492,-11.791229 z"
     id="path3753"
     style="fill:none;stroke:#d61a1a;stroke-width:0.5082317;stroke-linecap:butt;stroke-linejoin:miter;stroke-miterlimit:4;stroke-opacity:1;stroke-dasharray:none" />
  <path
     d="m 164.54088,57.764364 c -2.52372,-5.303198 4.29381,-8.816127 5.79577,-3.529505 0.49662,1.747994 -4.51858,6.213373 -5.79577,3.529505 z"
     id="path3755"
     style="fill:none;stroke:#d61a1a;stroke-width:0.5082317;stroke-linecap:butt;stroke-linejoin:miter;stroke-miterlimit:4;stroke-opacity:1;stroke-dasharray:none" />
</svg>
