<?xml version="1.0" encoding="UTF-8" standalone="no"?>
<!-- Created with Inkscape (http://www.inkscape.org/) -->

<svg
   xmlns:svg="http://www.w3.org/2000/svg"
   xmlns="http://www.w3.org/2000/svg"
   xmlns:xlink="http://www.w3.org/1999/xlink"
   version="1.1"
   width="390"
   height="480"
   id="svg4228">
  <defs
     id="defs4232">
    <linearGradient
       id="linearGradient3653">
      <stop
         id="stop3655"
         style="stop-color:#ffffff;stop-opacity:1"
         offset="0" />
      <stop
         id="stop3657"
         style="stop-color:#ffffff;stop-opacity:0"
         offset="1" />
    </linearGradient>
    <linearGradient
       x1="0"
       y1="109.87704"
       x2="390"
       y2="109.87704"
       id="linearGradient2843"
       xlink:href="#linearGradient3653"
       gradientUnits="userSpaceOnUse" />
  </defs>
  <path
     d="M 0,0 C 130,0 260,0 390,0 389.98981,114.99797 370.78556,350.14732 194.88837,479.99815 20.79131,350.08886 0.081386,115.02225 0,0 z"
     id="path4240-0"
     style="color:#000000;fill:#d61a1a;fill-opacity:1;fill-rule:nonzero;stroke:none;marker:none;visibility:visible;display:inline;overflow:visible;enable-background:accumulate" />
  <path
     d="m 223.66949,59.364405 c -2.79005,12.502857 -10.76137,18.340129 -21.8644,18.622881 -3.97873,0.101323 -5.42863,-5.48091 -9.40318,-4.633611 -5.48189,1.168636 -9.06498,1.575453 -10.87626,4.494322 -3.77147,6.077696 -8.0115,5.988756 -12.31445,4.134777 -1.69376,-0.729775 -2.7483,-2.267242 -3.78942,-3.8254 -0.30534,-0.456976 -0.60953,-0.915735 -0.92835,-1.356415 -0.17493,-0.241786 2.25246,-2.50057 2.06612,-2.728193 l -4.53927,2.067385 c -2.57076,-4.528328 0.49196,-7.615534 2.87637,-10.876261 0.20256,-2.90111 -2.91919,-4.02398 -0.71909,-5.797677 L 191.7727,37.219315 c -1.11509,-2.685289 -1.85737,-3.615344 -2.55412,-5.846604 C 181.24393,5.8349053 226.46935,20.86021 235.31871,7.8434372 237.71417,28.590007 220.90264,24.393666 220.2667,28.769988 c 26.1486,-8.809278 19.42201,11.319189 38.93701,5.352768 -1.53591,8.574726 -10.03251,9.746268 -17.27437,10.736908 6.50534,1.836172 29.05885,-2.814184 29.66253,13.482968 0.37191,10.040153 1.87499,19.756959 14.29195,18.426724 -1.84586,8.866576 -11.51561,6.724582 -17.04913,1.960096 -4.60024,-3.960907 -8.37091,-8.023992 -9.19772,-10.409423 -1.94263,6.120483 11.21844,11.349164 14.02229,20.404225 1.46156,4.720117 -12.19657,20.976856 5.84262,18.516616 -7.4672,7.79759 -18.43915,7.84009 -25.79741,-7.370695 -0.14108,3.748395 2.07525,9.649375 9.61785,14.831275 1.76699,1.21395 -1.11688,10.42303 -5.91712,17.28161 -2.46663,3.52432 3.50753,7.45284 3.38021,14.64758 -0.0928,5.24077 -5.15692,11.92525 -7.9798,12.11517 2.79757,-3.83972 4.42434,-9.5343 -3.23967,-14.77101 -2.61213,-1.78483 -0.42329,-5.93254 -1.66284,-8.48871 -2.44188,-5.03561 -4.52452,-7.82748 -4.26592,-9.63872 0.55028,-3.85422 2.95817,-7.11619 4.6741,-10.60661 -3.30509,1.02374 -9.75218,9.08155 -6.11228,13.9324 5.10023,6.79703 5.53212,14.21943 2.10889,19.04809 -5.48748,7.7404 -23.34063,13.11095 -11.72674,27.69287 -13.26223,-3.94249 -8.94987,-15.26692 -10.78637,-24.17946 -1.622,-5.7398 5.83941,-13.32157 10.17064,-15.07594 -5.07048,-0.57459 -8.32415,2.51258 -10.73799,7.13828 -2.51644,4.82231 -7.13785,6.20504 -7.34266,9.64551 -0.76307,12.81822 5.82923,31.27618 13.97734,48.04431 14.15913,4.46247 30.47269,29.12262 39.5051,29.43781 4.52713,0.15798 9.74819,-2.48663 8.53921,-5.75273 -9.51217,-25.69735 -1.19746,-33.67927 27.6442,-32.92256 27.9742,0.73394 42.24392,36.95414 40.46154,52.54865 -4.88549,42.74454 -50.202,53.70672 -37.94003,98.94692 -12.01664,-2.5046 -16.58959,-21.99059 -16.65189,-28.0882 -0.28076,-27.47771 23.12792,-61.57654 22.71042,-81.58605 -0.30101,-14.42654 -16.57687,-14.92032 -19.59525,-9.43808 -7.96705,14.47048 -13.3239,20.97606 -23.8199,15.2807 3.0813,16.97216 0.81524,34.49235 -2.96626,52.0892 -1.04397,4.85801 8.78219,10.82719 17.14584,15.95484 2.48756,1.52509 1.79939,12.75436 1.46066,19.14582 -0.34552,6.51946 -18.03722,29.36291 -28.40412,57.79699 -1.81653,-4.38416 -4.89971,-6.39337 -8.6291,-7.19092 8.22412,5.64459 7.1758,13.23829 5.57296,19.05593 -8.21526,2.20727 -35.5603,2.52486 -43.1455,-0.71909 0.0473,-22.00487 22.08489,-22.02 33.25799,-32.89844 9.30845,-9.06297 13.61843,-27.66488 13.66274,-36.67368 0.0345,-7.01818 -3.53191,-12.60936 -8.08978,-13.66274 -28.17376,-6.51133 -48.83447,-27.43175 -51.59483,-29.8423 -2.76036,-2.41055 -11.01234,-18.40592 -13.82952,-26.7995 0.29911,7.40183 8.31042,23.25648 12.46909,27.67936 -16.32519,7.75074 -5.28029,24.39842 3.33793,35.25449 -1.43223,13.07631 -36.76522,33.78623 -40.62867,46.38142 -0.99208,3.23426 -1.30398,9.26415 -3.23591,8.98864 -5.20186,-0.74183 -10.61873,-4.93369 -11.68524,-8.6291 -1.31399,8.04082 14.69323,7.63399 11.68524,20.85366 -8.91828,2.95305 -31.89006,2.97858 -42.96573,0.17977 -1.36401,-6.11878 1.61314,-18.29103 11.50547,-23.37048 l 21.39297,-11.14592 c 10.70222,-5.57595 14.92119,-21.27303 24.26935,-32.71867 -14.68536,-16.54918 -26.77342,-31.87272 -27.14571,-40.62867 -0.33583,-7.89848 1.19135,-21.77959 11.54754,-30.2003 15.78503,-12.83497 21.28131,-18.12776 17.9969,-23.63001 L 143.95311,178.7006 c -3.85393,3.21983 -7.96953,5.9259 -12.76388,5.75273 -3.73225,-0.13481 -19.64026,-23.69348 -19.95479,-28.04457 -0.58894,-8.14708 -4.25501,-14.7824 -7.92995,-14.33634 -3.58891,0.43562 -9.341976,11.25749 -10.94621,22.96544 -0.264034,1.92696 4.1947,4.1947 6.29205,6.29205 -2.25667,2.18848 -6.483561,2.24219 -10.291997,1.61796 5.451549,2.78661 10.535887,-1.29441 14.426777,10.06728 -1.80304,6.07435 -22.73683,18.73301 -29.842304,20.13457 l -2.651651,-21.03343 c 3.105211,-4.48334 6.926202,-8.97016 5.393187,-19.95479 -0.340879,-2.44253 16.912494,-30.20325 23.412678,-35.75155 1.61462,-1.37818 7.17618,-0.84605 9.08128,0.69582 4.68986,3.79569 8.49107,11.69087 19.59524,26.51651 -1.08478,-6.7968 -2.34734,-13.46027 -2.51682,-20.94354 -9.29946,-5.56703 -11.95325,-23.315 -23.73002,-23.37048 -11.153336,-0.0525 -18.033406,10.0749 -25.527755,17.07842 1.27618,3.47561 2.356284,11.67026 -0.269659,14.9661 -1.728548,-2.28134 -3.278562,-4.60202 -6.381938,-4.71904 5.653434,2.85682 5.331726,7.88392 5.033641,12.5841 -5.550285,4.3101 -28.522585,7.69369 -34.875945,5.03365 -0.660769,-11.9748 6.693607,-19.6014 9.527965,-22.11207 15.555623,-13.77914 34.347516,-25.76986 48.448801,-38.561297 8.14612,-7.389436 17.13659,-1.419294 17.79752,-0.539318 l 15.73013,20.943545 c 14.30586,-29.355395 93.90861,-19.241432 92.66003,-54.617945 z"
     id="path3670"
     style="fill:#faf700;fill-opacity:1;stroke:none" />
  <path
     d="m 188.80118,49.539989 c 3.01119,0.09397 5.80673,-13.966146 14.20253,-6.221613 -1.26879,-3.800115 -5.21935,-4.039263 -6.91692,-3.34517 -3.58913,1.467513 -6.01809,8.713759 -7.28561,9.566783 z"
     id="path4226"
     style="fill:#d61a1a;fill-opacity:1;stroke:none" />
  <path
     d="m 194.29194,49.76675 c 0.443,-5.079146 4.34739,-4.97154 7.09451,-3.289537 0.62538,0.382909 1.8811,-0.61245 2.14802,-0.07799 0.20289,0.406214 -1.55432,1.003423 -1.58427,1.478929 -0.21459,3.407607 -2.99561,4.264311 -6.53172,3.062859 -0.22244,-0.07557 -2.25662,0.812186 -2.31168,0.509974 -0.0663,-0.364149 1.15624,-1.352936 1.18514,-1.684233 z"
     id="path4228"
     style="fill:none;stroke:#d61a1a;stroke-width:1;stroke-miterlimit:4;stroke-opacity:1;stroke-dasharray:none" />
  <path
     d="m 165.35425,74.983825 c 3.57539,-2.223267 13.7676,-4.816138 14.88518,-2.768329 0.72337,1.325473 -8.76198,5.774341 -12.48283,7.826881 -1.92885,1.064014 -4.94082,-3.765473 -2.40235,-5.058552 z"
     id="path4266"
     style="fill:#faf700;fill-opacity:1;stroke:#d61a1a;stroke-width:1;stroke-linecap:butt;stroke-linejoin:miter;stroke-miterlimit:4;stroke-opacity:1;stroke-dasharray:none" />
  <path
     d="m 208.62745,36.07843 c 1.53196,-5.228726 -0.92277,-4.249137 -1.4379,-9.705881 -0.21908,-2.320654 2.16643,-6.137327 5.42483,-8.790851 2.27795,2.781418 4.73733,5.793016 5.09804,9.379086 0.46826,4.655326 -3.68563,7.235196 1.43791,9.313725"
     id="path3788"
     style="fill:none;stroke:#d61a1a;stroke-width:1;stroke-linecap:round;stroke-linejoin:miter;stroke-miterlimit:4;stroke-opacity:1;stroke-dasharray:none" />
  <path
     d="m 167.61438,62.581698 c 1.59145,0.01908 1.42539,4.468159 -0.13072,3.954249"
     id="path3812"
     style="fill:none;stroke:#d61a1a;stroke-width:1px;stroke-linecap:round;stroke-linejoin:miter;stroke-opacity:1" />
</svg>
