<?xml version="1.0" encoding="UTF-8" standalone="no"?>
<!-- Created with Inkscape (http://www.inkscape.org/) -->

<svg
   xmlns:svg="http://www.w3.org/2000/svg"
   xmlns="http://www.w3.org/2000/svg"
   xmlns:xlink="http://www.w3.org/1999/xlink"
   version="1.1"
   width="390"
   height="480"
   id="svg4228">
  <defs
     id="defs4232">
    <linearGradient
       id="linearGradient3652">
      <stop
         id="stop3654"
         style="stop-color:#ffffff;stop-opacity:1"
         offset="0" />
      <stop
         id="stop3656"
         style="stop-color:#ffffff;stop-opacity:0"
         offset="1" />
    </linearGradient>
    <linearGradient
       x1="1.041629"
       y1="110.18271"
       x2="389.03033"
       y2="110.18271"
       id="linearGradient2838"
       xlink:href="#linearGradient3652"
       gradientUnits="userSpaceOnUse"
       gradientTransform="translate(0,3.7e-6)" />
  </defs>
  <path
     d="m 0.51202379,0.50512952 c 129.66265621,0 259.32532621,0 388.98797621,0 C 389.48983,115.23328 370.33544,349.8309 194.89467,479.37706 21.249382,349.77255 0.5931986,115.2575 0.51202379,0.50512952 z"
     id="path4240-0-1"
     style="fill:#d61a1a;fill-opacity:1;stroke:#9e832a;stroke-width:0.99999905;stroke-opacity:1" />
  <path
     d="m 203.25567,19.24203 c 1.79773,13.106374 5.16482,24.652225 5.39319,39.319122 0.3492,22.42764 -22.20346,38.424172 -23.01094,59.068448 -0.41169,10.52531 5.11172,20.53548 5.57296,34.65111 0.77317,23.66198 -15.18318,41.37341 -14.92115,67.14772 0.18065,17.76941 11.62947,29.40597 9.88751,51.88688 -1.29211,16.67539 -15.08711,24.67808 -19.05593,43.98294 -2.72421,13.25091 0.0851,24.26641 3.59546,37.59167 2.88304,10.94415 3.9677,26.68062 -5.57296,36.70334 2.09467,-11.16118 -2.84873,-29.12708 -6.83137,-35.69078 -11.09179,-18.28009 -18.78918,-25.96199 -17.50479,-41.20592 1.26954,-15.06764 5.77992,-17.42647 4.2016,-34.7383 -2.27431,-24.94572 -20.62377,-30.29268 -19.2048,-64.85437 0.63462,-15.45742 9.209,-26.59937 9.13751,-45.02373 -0.12953,-33.38261 -21.23448,-64.05518 -30.20185,-66.78864 4.87489,12.94912 7.27702,27.88042 7.12069,42.49189 -0.30781,28.76883 -17.29295,43.40469 -20.064337,69.00206 -1.464157,13.52338 3.223434,25.68824 7.730237,40.75544 10.22666,34.18989 -8.274331,43.21279 -6.769555,65.80219 0.922954,13.85522 8.748705,20.45594 9.957735,46.56438 0.1405,3.03402 -2.47452,8.23852 -3.443873,11.50857 24.588983,36.91388 55.492973,71.27567 95.628133,101.3484 40.56577,-29.59633 75.04953,-67.50894 102.81015,-111.12416 -2.59463,-6.37384 -4.06988,-13.82619 -3.48853,-20.91845 1.34595,-16.42011 14.0024,-24.14957 14.06906,-52.88547 0.0433,-18.65898 -10.2469,-43.79812 -9.93428,-61.66065 0.37933,-21.6743 12.77098,-44.13132 10.78637,-62.83878 -3.68432,-34.72946 -23.58021,-58.05107 -32.53889,-66.07049 4.26538,18.02738 9.60966,36.20682 9.70773,53.86182 0.20106,36.19568 -31.09202,47.75874 -21.02609,79.77421 15.97217,50.80073 -16.97069,58.42199 -15.33143,98.60539 0.68266,16.73405 1.00212,34.8834 -15.41708,54.84204 0,0 4.0722,-23.64167 2.94388,-33.11346 -2.42064,-20.32013 -13.5568,-25.20187 -14.44866,-44.11284 -0.55774,-11.82619 8.17288,-22.21043 7.72955,-39.29475 -0.61867,-23.84134 -13.87526,-40.93679 -13.84251,-61.40247 0.0289,-18.07545 12.96304,-36.19728 10.42683,-54.22089 -1.86816,-13.27608 -10.68673,-25.80171 -11.3257,-39.6782 -0.7774,-16.88275 12.45293,-32.78175 10.60661,-50.630102 C 224.69102,49.190359 213.55169,29.392457 203.25567,19.24203 z"
     id="path2827"
     style="fill:#faf700;fill-opacity:1;stroke:none" />
</svg>
