<?xml version="1.0" encoding="UTF-8" standalone="no"?>
<!-- Created with Inkscape (http://www.inkscape.org/) -->

<svg
   xmlns:svg="http://www.w3.org/2000/svg"
   xmlns="http://www.w3.org/2000/svg"
   xmlns:xlink="http://www.w3.org/1999/xlink"
   version="1.1"
   width="390"
   height="480"
   id="svg4228">
  <defs
     id="defs4232" />
  <path
     d="M 0,0 C 130,0 260,0 390,0 389.98981,114.99797 370.78556,350.14732 194.88837,479.99815 20.79131,350.08886 0.081386,115.02225 0,0 z"
     id="path4240-0"
     style="fill:#d61a1a;fill-opacity:1;stroke:none" />
  <path
     d="m 61.067616,226.6548 76.921704,-0.0534 c 0.29327,-3.79004 -1.65423,-8.54093 -9.87544,-10.08897 -2.26491,-8.52363 -11.64096,-20.499 -17.72242,-24.92882 0.0156,-5.75887 7.51006,-14.61502 9.23487,-16.86833 -2.31626,-2.49588 -9.84909,-10.74573 -9.9822,-15.05338 20.59019,-6.89096 24.324,-25.5386 24.9822,-38.70107 1.32597,-26.516069 -4.68912,-48.650372 11.9573,-71.957292 L 52.526691,49.217061 C 69.131576,72.150346 64.8712,94.37624 65.551601,120.2135 c 0.225009,8.54438 0.929774,30.4694 24.048043,39.55516 0.09682,4.44806 -5.729438,13.19272 -8.858845,15.63593 2.719572,2.81136 8.380995,9.91375 8.663635,16.27915 -7.78009,5.71979 -14.681408,15.94381 -18.169196,24.47008 -5.173848,0.73286 -9.973208,4.13532 -10.167622,10.50098 z"
     id="path2998"
     style="fill:#ededed;fill-opacity:1;stroke:none" />
  <use
     transform="translate(190,0)"
     id="use3772"
     x="0"
     y="0"
     width="390"
     height="480"
     xlink:href="#path2998" />
  <use
     transform="translate(94.943114,146)"
     id="use3774"
     x="0"
     y="0"
     width="390"
     height="480"
     xlink:href="#path2998" />
</svg>
