<?xml version="1.0" encoding="UTF-8" standalone="no"?>
<!-- Created with Inkscape (http://www.inkscape.org/) -->

<svg
   xmlns:dc="http://purl.org/dc/elements/1.1/"
   xmlns:cc="http://creativecommons.org/ns#"
   xmlns:rdf="http://www.w3.org/1999/02/22-rdf-syntax-ns#"
   xmlns:svg="http://www.w3.org/2000/svg"
   xmlns="http://www.w3.org/2000/svg"
   version="1.1"
   width="390"
   height="480"
   id="svg4228">
  <metadata
     id="metadata9">
    <rdf:RDF>
      <cc:Work
         rdf:about="">
        <dc:format>image/svg+xml</dc:format>
        <dc:type
           rdf:resource="http://purl.org/dc/dcmitype/StillImage" />
        <dc:title></dc:title>
      </cc:Work>
    </rdf:RDF>
  </metadata>
  <defs
     id="defs4232" />
  <path
     d="m 0.51202379,0.50512952 c 129.66265621,0 259.32532621,0 388.98797621,0 C 389.48983,115.23328 370.33544,349.8309 194.89467,479.37706 21.249382,349.77255 0.5931986,115.2575 0.51202379,0.50512952 z"
     id="path4240-0"
     style="fill:#d61a1a;fill-opacity:1;stroke:#9e832a;stroke-width:0.99999905;stroke-opacity:1" />
  <path
     d="m 123.3292,144.64444 0.12989,-25.95479 25.1682,0.0898 c -9.85701,18.58415 25.46702,19.91628 14.11218,-1.66054 21.24244,11.76709 20.96114,-25.671819 0.17977,-13.86771 11.37948,-19.631026 -24.57816,-22.044548 -14.96609,-0.35904 l -24.44912,-0.0225 0.13483,-25.109976 c 20.28506,10.188462 18.53841,-25.373997 -0.58426,-14.22674 11.03988,-21.497706 -26.025323,-21.691096 -14.87621,0 -18.393572,-9.99385 -21.826108,21.299692 -1.25841,15.483361 l 0.17977,23.943115 -23.190704,-0.0225 c 8.777611,-22.184999 -25.110556,-19.33365 -15.73013,-0.0449 -21.1199,-10.498977 -19.662403,24.98172 0.179773,14.98969 -10.562987,18.99231 22.82729,21.20796 15.640244,1.03222 l 22.896317,0.008 0.15458,25.8706 -35.167462,186.20266 C 94.326362,375.042 131.82652,431.09238 193.57806,477.7694 z"
     id="path2827"
     style="fill:#faf700;fill-opacity:1;stroke:none" />
  <path
     d="m 267.37291,143.87933 0.0449,-25.18052 -25.1682,0.0898 c 9.85701,18.58653 -25.46702,19.91884 -14.11218,-1.66075 -21.24244,11.7686 -20.96114,-25.675114 -0.17977,-13.86949 -11.37948,-19.633545 24.57816,-22.047376 14.96609,-0.35908 l 24.44912,-0.0225 -0.13483,-25.113195 c -20.28506,10.189768 -18.53841,-25.377252 0.58426,-14.228565 -11.03988,-21.500464 26.02532,-21.693879 14.87621,0 18.39357,-9.995133 21.82611,21.302423 1.25841,15.485346 l -0.17977,23.946184 23.1907,-0.0225 c -8.77761,-22.187846 25.11056,-19.33613 15.73013,-0.0449 21.11991,-10.50033 19.66241,24.98492 -0.17977,14.99161 10.56299,18.99475 -22.82729,21.21068 -15.64024,1.03235 l -22.89632,0.008 -0.473,24.23565 35.63982,187.11373 C 296.36269,375.05675 256.76676,433.23377 196.3893,477.64899 z"
     id="path2827-1"
     style="fill:#faf700;fill-opacity:1;stroke:none" />
</svg>
