<?xml version="1.0" encoding="UTF-8" standalone="no"?>
<!-- Created with Inkscape (http://www.inkscape.org/) -->

<svg
   xmlns:svg="http://www.w3.org/2000/svg"
   xmlns="http://www.w3.org/2000/svg"
   xmlns:xlink="http://www.w3.org/1999/xlink"
   version="1.1"
   width="390"
   height="480"
   id="svg4228">
  <defs
     id="defs4232">
    <linearGradient
       id="linearGradient3653">
      <stop
         id="stop3655"
         style="stop-color:#ffffff;stop-opacity:1"
         offset="0" />
      <stop
         id="stop3657"
         style="stop-color:#ffffff;stop-opacity:0"
         offset="1" />
    </linearGradient>
    <linearGradient
       x1="0"
       y1="109.87704"
       x2="390"
       y2="109.87704"
       id="linearGradient2900"
       xlink:href="#linearGradient3653"
       gradientUnits="userSpaceOnUse" />
  </defs>
  <path
     d="M 0,0 C 130,0 260,0 390,0 389.98981,114.99797 370.78556,350.14732 194.88837,479.99815 20.79131,350.08886 0.081386,115.02225 0,0 z"
     id="path4240-0"
     style="color:#000000;fill:#207dbf;fill-opacity:1;fill-rule:nonzero;stroke:none;marker:none;visibility:visible;display:inline;overflow:visible;enable-background:accumulate" />
  <path
     d="m 90.156115,169.53218 c -1.320343,5.47825 -1.031152,12.85689 -7.550462,14.11218 -4.233106,0.81508 -9.619847,-15.03841 -17.527859,-20.85366 -5.994858,12.08106 -12.810124,23.75193 -15.628641,37.42116 0.806512,12.88177 18.425714,15.99104 21.355932,31.77966 -4.133423,4.11728 -9.026094,5.00775 -14.11017,5.08475 3.857484,6.86242 9.419829,13.8919 16.779661,18.4322 14.051378,-1.88981 20.102793,4.40192 26.949154,10.04238 7.69187,6.33704 13.15279,18.92361 21.17169,27.6553 11.18072,12.17456 19.06095,23.05884 17.47238,29.29385 -2.11672,8.30795 -10.47882,5.27285 -11.5678,10.67797 l 16.90678,16.3983 c 7.61448,-0.0287 10.65075,-3.4882 15.25424,-2.79661 2.60572,0.39146 6.087,5.31019 9.91726,5.64382 8.63724,0.75233 17.71608,9.57232 22.37087,15.71211 9.15765,12.07918 16.98652,44.57071 27.33051,44.61865 8.6794,0.0402 8.38144,-27.34204 32.79661,-41.82204 -10.90781,-13.79703 -11.90163,-23.5665 -7.5,-31.14406 -3.7979,-7.59353 -12.13797,-17.64538 -15.76271,-21.61017 -4.5184,3.34953 -7.83659,6.69111 -10.9322,10.29661 -20.00935,-9.385 -50.07534,-50.80638 -52.37289,-59.49153 -1.48095,-5.59826 4.77043,-10.04501 2.93875,-16.75533 -0.92338,-3.38276 -12.22407,-9.08548 -16.71888,-17.2582 -4.5516,5.09666 -2.61374,15.70241 -6.11228,14.74138 -5.72429,-1.57244 -50.223753,-38.60016 -40.44891,-64.71825 -3.92322,-5.61205 -9.55004,-12.59356 -15.011035,-15.46047 z"
     id="path4997"
     style="fill:#faf700;fill-opacity:1;stroke:none" />
  <path
     d="M 62.542373,10.80508 C 53.683141,35.446402 41.534329,48.903153 29.364407,62.288131 66.814412,87.821672 90.06182,108.43893 92.288136,121.77966 c -3.154994,4.6725 -4.890635,8.68815 -13.15678,10.80508 4.915254,5.50848 9.098944,14.63726 14.745763,16.52542 3.726806,1.24616 10.506701,-1.5555 15.317801,-5.08474 7.16252,-5.25414 21.08999,16.83908 32.92373,26.44069 11.81993,9.5904 15.51312,18.13232 18.94067,23.38982 10.76351,16.51011 41.39869,40.01053 40.42373,51.22882 -0.4074,4.6877 -9.06503,5.21324 -13.72881,7.75423 l 17.41525,17.79661 c 2.54519,-3.06512 6.56801,-5.4061 15.50848,-5.4661 18.10765,-0.12152 42.66564,39.77841 56.44068,64.63983 3.46053,6.24562 9.01092,5.39046 10.42373,-0.12712 7.5003,-29.29158 14.94055,-36.7005 23.8983,-44.55508 2.67218,-2.34309 1.71324,-5.85142 0.76271,-7.11865 -6.67143,-8.89421 -17.16739,-19.28769 -17.79661,-25.29661 -2.08481,-19.90939 -3.49086,-25.23849 -13.47458,-31.01695 -2.00136,4.75373 -7.72682,12.67943 -12.71186,11.18645 -15.57305,-4.66401 -61.71963,-54.46356 -56.18644,-67.62712 l 2.79661,-7.11865 c 1.06328,-2.70654 -15.21164,-20.58149 -17.54237,-15 l -4.83051,11.5678 c -11.8551,-1.10601 -62.15031,-63.545486 -62.28814,-71.69492 -0.08,-4.728731 -2.05964,-9.749723 1.90678,-13.855932 -3.1125,-5.566554 -9.50212,-12.861096 -16.65254,-14.237289 l -1.65254,11.440678 C 104.54023,70.962001 79.618645,29.322029 62.542373,10.80508 z"
     id="path5021"
     style="fill:#faf700;fill-opacity:1;stroke:none" />
  <path
     d="m 164.40233,78.926632 c 5.56623,-2.018484 11.23613,-2.981083 15.37058,-9.707737 1.44827,-2.356302 -17.53629,-11.734142 -11.68524,-17.797518 12.85478,-13.321266 16.16079,-35.812844 19.41548,-37.752312 5.20596,-3.102231 7.19967,10.024346 15.99979,13.303196 4.34845,-0.967861 5.61696,-6.555632 7.19091,-11.685239 17.08885,8.771242 7.09327,19.415753 10.78638,28.044574 9.30757,21.746809 33.71373,48.525428 45.30277,51.594825 6.45587,1.709861 4.31455,-11.984861 6.47182,-17.977291 4.76758,2.152479 11.35278,10.836653 15.99979,17.977291 -2.45152,5.752739 -3.83759,11.566429 -4.31455,17.258199 -0.70232,8.38116 25.85165,46.84619 39.72982,41.70732 3.42593,-1.46519 4.48776,-7.06758 6.11228,-11.68524 9.0725,-0.50065 11.48087,8.62468 16.71888,13.66274 -2.56705,29.81508 3.4756,24.08957 5.21341,31.46026 -20.49609,37.90113 -16.25084,60.30131 -22.65139,58.78574 -14.29094,-3.38393 -17.91937,-56.44701 -59.86438,-69.75189 -4.85244,-1.53918 -10.1635,1.39813 -14.20206,4.13478 -4.45825,3.02104 -9.97455,-8.78803 -15.10092,-14.20206 5.13664,-2.47482 15.60803,-4.84268 12.5841,-11.86501 -10.83842,-25.16951 -48.82445,-71.536156 -62.20142,-63.639616 -2.66217,1.571502 -5.06343,2.396972 -9.70774,3.595458 -0.77484,-5.15349 -10.81531,-10.30698 -17.16831,-15.46047 z"
     id="path5023"
     style="fill:#faf700;fill-opacity:1;stroke:none" />
</svg>
