<?xml version="1.0" encoding="UTF-8" standalone="no"?>
<!-- Created with Inkscape (http://www.inkscape.org/) -->

<svg
   xmlns:svg="http://www.w3.org/2000/svg"
   xmlns="http://www.w3.org/2000/svg"
   xmlns:xlink="http://www.w3.org/1999/xlink"
   version="1.1"
   width="390"
   height="480"
   id="svg4228">
  <defs
     id="defs4232" />
  <path
     d="M 0,0 C 130,0 260,0 390,0 389.98981,114.99797 370.78556,350.14732 194.88837,479.99815 20.79131,350.08886 0.081386,115.02225 0,0 z"
     id="path4240-0"
     style="color:#000000;fill:#207dbf;fill-opacity:1;fill-rule:nonzero;stroke:none;marker:none;visibility:visible;display:inline;overflow:visible;enable-background:accumulate" />
  <path
     d="m 53.88693,26.073403 c -0.552251,13.617971 5.883405,20.117363 17.046293,24.492249 14.049173,5.506059 33.802867,14.256159 44.363387,21.891977 16.47674,11.913572 26.7066,50.199361 29.61864,67.627121 l -9.78813,4.95762 c -1.97373,16.62086 36.04741,11.10625 52.62712,10.29661 l -5.84747,-11.94915 5.72034,-25.04237 c -2.77941,-1.14323 -3.50082,-2.9946 -4.32203,-4.83051 l -25.29662,1.3983 0,-15.635587 25.04238,2.542367 c 1.82155,-2.754718 4.24931,-4.903236 7.62712,-6.101689 l -0.12712,-9.025424 c -2.49687,-1.088503 -4.67026,-2.565165 -5.97458,-5.084745 l -21.61017,1.525423 0.12712,-14.872881 21.22881,2.79661 c 1.04119,-2.00527 2.47596,-3.795854 4.83051,-5.084746 l -2.0339,-20.847457 15,-0.254238 -2.16101,20.974577 c 1.92107,1.091913 3.74647,2.39111 4.95762,5.021186 l 21.0593,-2.818269 0.0899,14.921152 -21.16826,-1.842672 c -1.67992,2.227555 -3.56097,4.294209 -6.42688,5.57296 l 0.045,9.123475 c 2.95099,1.476056 5.86283,3.010845 7.64036,6.247108 l 24.88354,-3.078754 -0.0477,15.969274 -24.43139,-1.9019 c -1.01635,2.16714 -3.06998,4.19584 -5.48307,5.41566 l 5.97745,25.07832 -5.93252,12.31444 c 23.13875,1.1672 52.56409,3.88015 52.98807,-10.69649 l -9.43807,-5.21341 c 5.66839,-23.65206 11.131,-52.069715 29.39286,-67.999102 23.50246,-20.500646 66.59569,-18.565305 60.85314,-46.066808 23.21512,12.80037 4.55437,33.488755 -5.39318,36.134355 2.14578,4.047684 4.24013,8.054215 7.55046,13.033536 15.68157,-0.272444 22.40359,-7.436847 28.94344,-14.741378 -0.8103,9.459148 -3.49702,22.947103 -20.85366,25.617639 l 3.955,4.494323 -8.6291,3.235912 -7.19091,-5.393186 -19.05593,5.393187 c 3.77653,3.841685 16.31473,15.961852 -14.75151,8.789612 -14.39958,11.77877 -5.82213,37.99513 0.50847,52.24576 -7.75237,-0.77787 -7.6651,3.26125 -5.65679,12.52119 l 11.75849,54.2161 -13.02968,0 c -1.70551,41.50745 -3.411,83.45551 -5.11651,124.51271 l -12.9661,0.0318 c -0.68935,-4.94141 2.40027,-13.50095 -13.56992,-13.95127 l -135.19068,0.0636 c -5.75403,0.003 -11.49134,0.84344 -12.26696,13.85593 l -13.02966,0.19068 -4.957623,-125.11653 -13.061441,0 12.044491,-56.4089 c 2.308338,-10.81082 -2.103091,-9.74748 -6.101695,-10.16949 4.759222,-6.26479 17.109398,-43.88482 0.254238,-52.11864 -31.443275,9.72678 -16.331648,-7.897951 -14.364407,-9.152542 l -17.79661,-6.483051 -8.091974,7.202143 -9.661017,-2.923729 4.786889,-4.914007 C 35.449263,83.452954 24.224945,83.777022 23.008475,60.381358 29.322204,68.389663 36.659272,75.374629 51.483051,74.872884 L 59.745763,61.779663 C 49.29942,58.236768 32.782764,41.995051 53.88693,26.073403 z"
     id="path5606"
     style="fill:#faf700;fill-opacity:1;stroke:none" />
  <path
     d="m 200.7839,76.30297 a 6.3559322,6.387712 0 1 1 -12.71186,0 6.3559322,6.387712 0 1 1 12.71186,0 z"
     id="path5608"
     style="opacity:0.98999999;fill:#207dbf;fill-opacity:1;fill-rule:evenodd;stroke:none" />
  <path
     d="m 202.50001,107.73305 a 7.7542374,7.8495764 0 1 1 -15.50847,0 7.7542374,7.8495764 0 1 1 15.50847,0 z"
     id="path5608-5"
     style="opacity:0.98999999;fill:#207dbf;fill-opacity:1;fill-rule:evenodd;stroke:none" />
  <path
     d="m 251.95974,311.94915 24.97881,0 0.31784,-20.4661 c 0.11502,-7.40597 -6.78688,-12.04663 -13.06179,-11.97684 -6.24986,0.0695 -12.23482,4.44369 -12.23482,11.84972 l 0,20.59322 -4e-5,0 z"
     id="path5632-1-7-5-2"
     style="fill:#207dbf;fill-opacity:1;stroke:none" />
  <path
     d="m 97.976236,75.510953 c 6.381954,-0.727043 14.231464,7.206894 14.305324,12.672595 -0.10088,4.255009 -5.69242,6.612825 -7.9127,2.527496 -1.59232,-3.762226 -1.48981,-11.261424 -6.392624,-15.200091 z"
     id="path5731"
     style="fill:#207dbf;fill-opacity:1;stroke:none" />
  <path
     d="M 91.372717,87.8103 C 92.255987,81.311613 85.406311,67.180428 77.439722,67.295002 72.5596,67.365182 64.259701,77.711184 71.15193,78.795845 c 6.754701,1.063018 14.831171,3.043513 20.220787,9.014455 z"
     id="path5731-6"
     style="fill:#207dbf;fill-opacity:1;stroke:none" />
  <path
     d="m 291.83895,75.993195 c -6.38195,-0.727043 -14.23147,7.206895 -14.30532,12.672596 0.10087,4.25501 5.69241,6.61282 7.91269,2.5275 1.59232,-3.76223 1.48981,-11.261428 6.39263,-15.200096 z"
     id="path5731-1"
     style="fill:#207dbf;fill-opacity:1;stroke:none" />
  <path
     d="m 298.44248,88.292541 c -0.88327,-6.498685 5.9664,-20.62987 13.93299,-20.515296 4.88011,0.07018 13.18002,10.416182 6.28778,11.500843 -6.7547,1.063018 -14.83116,3.043513 -20.22077,9.014453 z"
     id="path5731-6-4"
     style="fill:#207dbf;fill-opacity:1;stroke:none" />
  <use
     transform="translate(-34,0)"
     id="use3771"
     x="0"
     y="0"
     width="390"
     height="480"
     xlink:href="#path5632-1-7-5-2" />
  <use
     transform="translate(-70,0)"
     id="use3773"
     x="0"
     y="0"
     width="390"
     height="480"
     xlink:href="#path5632-1-7-5-2" />
  <use
     transform="translate(-105.99999,0)"
     id="use3775"
     x="0"
     y="0"
     width="390"
     height="480"
     xlink:href="#path5632-1-7-5-2" />
  <use
     transform="translate(-139.99998,0)"
     id="use3777"
     x="0"
     y="0"
     width="390"
     height="480"
     xlink:href="#path5632-1-7-5-2" />
</svg>
