<?xml version="1.0" encoding="UTF-8" standalone="no"?>
<svg xmlns="http://www.w3.org/2000/svg" xmlns:xlink="http://www.w3.org/1999/xlink"
   width="390" height="480">
  <path style="fill:#faf700;stroke:#9e832a;stroke-width:1" d="M0.506,0.505
C0.552,115.245,20.457,349.802,195,479.377
C369.543,349.802,389.448,115.245,389.494,0.505Z"/>
  <g id="Flowr"><path style="fill:#207dbf" d="M29.6562,90.6865
C48.6943,84.0205,70.4453,83.0361,88.8369,90.9531
C86.9902,71.0146,94.6484,50.6338,106.871,34.5869
C119.094,50.6338,126.752,71.0146,124.905,90.9531
C143.297,83.0361,165.048,84.0205,184.086,90.6865
C172.602,107.27,155.584,120.851,136.051,125.257
C149.264,140.302,155.049,161.292,154.593,181.458
C135.272,175.66,117.097,163.673,106.871,146.457
C96.6455,163.673,78.4697,175.66,59.1494,181.458
C58.6934,161.292,64.4785,140.302,77.6914,125.257
C58.1582,120.851,41.1406,107.27,29.6562,90.6865Z"/>
  <path style="fill:none;stroke:#faf700;stroke-width:3.5;stroke-miterlimit:4" d="M93.249,111.35
C84.4209,116.011,88.5703,128.781,98.4521,127.362
C100.157,137.199,113.585,137.199,115.29,127.362
C125.172,128.781,129.321,116.011,120.493,111.35
C124.896,102.39,114.032,94.4971,106.871,101.453
C99.71,94.4971,88.8467,102.39,93.249,111.35Z"/></g>
  <use x="176.258" xlink:href="#Flowr"/>
  <use x="88.129" y="197.68061" xlink:href="#Flowr"/>
</svg>