<?xml version="1.0" encoding="UTF-8" standalone="no"?>
<!-- Created with Inkscape (http://www.inkscape.org/) -->

<svg
   xmlns:svg="http://www.w3.org/2000/svg"
   xmlns="http://www.w3.org/2000/svg"
   xmlns:xlink="http://www.w3.org/1999/xlink"
   version="1.1"
   width="390"
   height="480"
   id="svg4228">
  <defs
     id="defs4232">
    <linearGradient
       id="linearGradient3653">
      <stop
         id="stop3655"
         style="stop-color:#ffffff;stop-opacity:1"
         offset="0" />
      <stop
         id="stop3657"
         style="stop-color:#ffffff;stop-opacity:0"
         offset="1" />
    </linearGradient>
    <linearGradient
       x1="0"
       y1="109.87704"
       x2="390"
       y2="109.87704"
       id="linearGradient2934"
       xlink:href="#linearGradient3653"
       gradientUnits="userSpaceOnUse" />
  </defs>
  <path
     d="m 0.51202379,0.50512952 c 129.66265621,0 259.32532621,0 388.98797621,0 C 389.48983,115.23328 370.33544,349.8309 194.89467,479.37706 21.249382,349.77255 0.5931986,115.2575 0.51202379,0.50512952 z"
     id="path4240-0-1"
     style="fill:#207dbf;fill-opacity:1;stroke:#999999;stroke-width:0.99999905;stroke-opacity:1" />
  <path
     d="m 156.10294,445.69368 c 31.8946,-19.32168 37.40243,-40.95133 36.36141,-73.26554 -28.81722,-7.55551 -40.92682,-26.02595 -41.07645,-45.52422 l -0.22268,-29.01704 c 25.43491,-8.02716 43.6526,-23.25908 40.68531,-75.92959 -28.48437,-6.21223 -42.85275,-27.96426 -42.93332,-47.50261 l -0.0916,-22.21269 C 170.4437,143.03757 196.85586,126.74696 190.3375,75.793752 175.85327,69.708617 147.5626,53.826466 147.43772,21.245548 l -0.0879,-20.2423272 -6.7071,6.537e-4 -0.0378,20.7754805 c -0.0571,31.389943 -25.78134,49.268547 -44.607958,54.525616 -0.02371,58.964189 24.759798,68.085559 46.418308,75.871769 l -0.0377,21.85488 c -0.0357,20.71362 -18.97914,42.68636 -43.155666,48.07064 0.08159,55.23118 19.103666,66.59147 44.864506,75.98723 l -0.2832,29.12532 c -0.26962,27.72825 -26.99829,45.41899 -47.60394,45.56031 16.49071,25.0814 31.36018,44.96862 59.90367,72.91856 z"
     id="path3837"
     style="fill:#ededed;fill-opacity:1;stroke:none" />
  <path
     d="m 196.58072,75.66577 c 29.23536,-9.867407 43.289,-34.241747 43.31252,-56.555454 l -0.0154,-18.1057023 6.97128,-0.00131 -0.0286,17.6283973 c -0.0372,22.901372 11.7564,44.64673 44.18025,56.317535 2.88372,34.339884 -5.06979,64.199134 -43.04705,76.438664 l 0,15.26691 c 0,25.60092 18.96956,49.95967 44.67972,55.30248 4.67485,46.5298 -10.68405,67.55198 -42.38701,76.35276 l 0.48043,17.98933 c 0.7422,27.79146 14.96868,50.25244 43.55855,56.60207 -16.16136,24.38661 -33.36607,46.85751 -60.27217,72.84536 -35.69211,-21.61121 -33.59129,-40.25639 -34.23173,-73.60375 30.16132,-6.66835 44.32607,-28.79526 44.10344,-55.99739 l -0.14776,-18.05428 c -31.61144,-5.69089 -47.48568,-28.25555 -45.64911,-76.04696 27.42471,-5.31638 43.33289,-30.38626 43.448,-54.84482 l 0.0755,-16.04201 C 206.0595,138.8951 194.57174,112.80551 196.58072,75.66577 z"
     id="path3857"
     style="fill:#ededed;fill-opacity:1;stroke:none" />
  <path
     d="m 39.768568,1.00593 7.620769,-0.00522 0.01954,22.575702 c 0.02176,25.148498 20.807706,45.720227 43.558784,52.768787 2.049854,45.640011 -14.282138,62.327861 -42.391139,74.722411 l 0,14.83986 c 0,27.7629 18.130891,50.74593 43.990991,56.37923 -0.09225,14.49974 0.359726,26.74041 -1.47572,35.98255 -3.819228,19.2312 -20.251036,31.49947 -36.260601,36.39137 -13.259133,-30.1622 -24.080201,-66.21946 -29.548051,-88.84609 6.2819,-5.28809 16.04045,-16.8307 16.161881,-40.38897 l 0.07549,-14.64542 C 29.286416,148.50851 16.634561,142.42022 10.392402,131.27849 8.203912,115.97632 5.1648384,93.183634 3.7663273,71.956223 22.481458,64.625604 39.653069,48.828827 39.715303,23.060494 z"
     id="path3859"
     style="fill:#ededed;fill-opacity:1;stroke:none" />
  <path
     d="m 345.69856,1.0028718 0.20499,24.5363252 c 0.17425,20.856838 18.77132,39.270798 40.33451,48.41403 -0.91182,14.088865 -3.04395,33.893533 -5.40253,50.952013 -4.31858,13.51159 -16.63946,24.01845 -33.65319,27.1266 l 0.15557,13.46921 c 0.14277,12.36104 3.97596,30.57681 17.9399,40.60269 -7.62203,30.3772 -16.89901,58.83965 -29.06629,87.66286 -27.71877,-10.49953 -37.1555,-25.58032 -37.14419,-71.89722 31.79499,-8.36294 42.47973,-30.30189 42.47973,-56.12896 l 0,-13.66402 c -27.04014,-6.64411 -46.58992,-24.09644 -44.59109,-77.273023 21.5701,-7.280879 42.14586,-27.871507 42.14585,-49.340748 l -10e-6,-24.4611842 c 0.51663,0.00293 5.51915,0.00718 6.59675,0.00143 z"
     id="path3861"
     style="fill:#ededed;fill-opacity:1;stroke:none" />
</svg>
