<?xml version="1.0" encoding="UTF-8" standalone="no"?>
<!-- Created with Inkscape (http://www.inkscape.org/) -->

<svg
   xmlns:svg="http://www.w3.org/2000/svg"
   xmlns="http://www.w3.org/2000/svg"
   xmlns:xlink="http://www.w3.org/1999/xlink"
   version="1.1"
   width="454"
   height="480"
   id="svg2815">
  <defs
     id="defs2819">
    <linearGradient
       id="linearGradient3653">
      <stop
         id="stop3655"
         style="stop-color:#ffffff;stop-opacity:1"
         offset="0" />
      <stop
         id="stop3657"
         style="stop-color:#ffffff;stop-opacity:0"
         offset="1" />
    </linearGradient>
    <linearGradient
       x1="1.1997193"
       y1="113.25415"
       x2="448.64014"
       y2="113.25415"
       id="linearGradient3650"
       xlink:href="#linearGradient3653"
       gradientUnits="userSpaceOnUse" />
  </defs>
  <path
     d="M 228.55932,480.00106 C 319.49242,434.4861 437.8771,389.54333 452.30865,298.06982 457.09763,267.71513 444.15632,103.69228 442.94285,0.00825942 L 10.932203,0.03177814 C 6.9166731,98.898397 -2.440778,272.11013 0.67414842,296.63163 12.291734,388.08827 129.71624,430.552 228.55932,480.00106 z"
     id="path2827"
     style="fill:#207dbf;fill-opacity:1;stroke:none" />
  <path
     d="m 228.39675,421.46529 c 70.46827,-35.07319 162.20953,-69.75314 173.39327,-140.24077 3.71119,-23.39061 -6.33847,-149.81932 -7.2792,-229.715701 l -334.762733,0.0544 C 56.636215,127.74778 49.384728,261.22091 51.798532,280.11655 60.801551,350.59121 151.79871,383.36135 228.39675,421.46548 z"
     id="path2827-7"
     style="fill:none;stroke:#faf700;stroke-width:4.95526123;stroke-miterlimit:4;stroke-opacity:1;stroke-dasharray:none" />
  <path
     d="m 155.27542,59.682202 c 8.47082,4.32745 7.76964,-6.131064 3.74171,-14.028199 -3.61808,-7.093561 -12.67604,-6.998255 -11.17815,0.362945 -9.21625,-3.826644 -9.84311,-12.249546 -5.05116,-15.620492 7.69313,-5.411818 15.31239,8.492943 16.80964,7.739136 1.78974,-2.845648 -8.87677,-18.66928 6.8644,-27.20339 14.79405,8.543302 4.23708,24.276071 5.7839,27.266949 3.32821,1.109591 8.88189,-13.496997 17.85918,-7.623386 4.88679,3.197296 1.71299,15.11172 -6.22782,15.059827 1.88965,-7.912792 -6.47137,-7.714874 -10.81107,0.630415 -3.61978,6.960871 -3.28277,17.771829 4.90005,13.733992 0.40023,5.160811 -4.14054,7.259776 -8.51695,4.004237 0.49477,5.733052 -7.3702,5.602175 -6.54661,0 -4.93563,4.227551 -9.23562,0.362916 -7.62712,-4.322034 z"
     id="path3658"
     style="fill:#faf700;fill-opacity:1;stroke:none" />
  <path
     d="m 279.29412,60.004472 c 8.47082,4.32745 7.76964,-6.131064 3.74171,-14.028199 -3.61808,-7.093561 -12.67604,-6.998255 -11.17815,0.362945 -9.21625,-3.826644 -9.84311,-12.249546 -5.05116,-15.620492 7.69313,-5.411818 15.31239,8.492943 16.80964,7.739136 1.78974,-2.845648 -8.87677,-18.66928 6.8644,-27.20339 14.79405,8.543302 4.23708,24.276071 5.7839,27.266949 3.32821,1.109591 8.88189,-13.496997 17.85918,-7.623386 4.88679,3.197296 1.71299,15.11172 -6.22782,15.059827 1.88965,-7.912792 -6.47137,-7.714874 -10.81107,0.630415 -3.61978,6.960871 -3.28277,17.771829 4.90005,13.733992 0.40023,5.160811 -4.14054,7.259776 -8.51695,4.004237 0.49477,5.733052 -7.3702,5.602175 -6.54661,0 -4.93563,4.227551 -9.23562,0.362916 -7.62712,-4.322034 z"
     id="path3658-4"
     style="fill:#faf700;fill-opacity:1;stroke:none" />
  <path
     d="M 64.646171,75.03291 C 74.47859,71.805495 65.861943,64.338183 56.675469,61.401228 48.423757,58.763131 41.558239,65.830735 48.392471,70.311005 38.375879,74.497547 31.388735,68.531647 32.455617,62.249916 34.168413,52.165044 50.747196,56.92918 51.311876,55.195754 50.484625,51.634607 30.089019,47.754174 35.555224,29.063606 c 17.93339,-4.881905 21.999868,15.317869 25.495393,16.413714 3.406871,-1.72038 -3.622533,-17.194189 7.792331,-19.628707 6.213681,-1.325235 12.986494,10.249247 6.863097,16.341458 -4.665215,-7.518543 -10.917548,-0.910546 -7.795158,8.831133 2.604412,8.125612 11.214341,16.144025 14.363719,6.733161 4.293479,3.642912 2.436382,8.756638 -3.431305,9.643152 4.807968,4.008105 -1.318346,9.98127 -5.015243,5.055339 -0.515207,7.048633 -6.794881,7.409716 -9.181887,2.580054 z"
     id="path3658-9"
     style="fill:#faf700;fill-opacity:1;stroke:none" />
  <path
     d="m 388.62065,75.168513 c -9.83242,-3.227415 -1.21578,-10.694727 7.9707,-13.631682 8.25171,-2.638097 15.11723,4.429507 8.283,8.909777 10.01659,4.186542 17.00373,-1.779358 15.93685,-8.061089 -1.7128,-10.084872 -18.29158,-5.320736 -18.85626,-7.054162 0.82725,-3.561147 21.22286,-7.44158 15.75665,-26.132148 -17.93339,-4.881905 -21.99987,15.317869 -25.49539,16.413714 -3.40687,-1.72038 3.62253,-17.194189 -7.79233,-19.628707 -6.21368,-1.325235 -12.9865,10.249247 -6.8631,16.341458 4.66522,-7.518543 10.91755,-0.910546 7.79516,8.831133 -2.60441,8.125612 -11.21434,16.144025 -14.36372,6.733161 -4.29348,3.642912 -2.43638,8.756638 3.43131,9.643152 -4.80797,4.008105 1.31834,9.98127 5.01524,5.055339 0.51521,7.048633 6.79488,7.409716 9.18189,2.580054 z"
     id="path3658-9-4"
     style="fill:#faf700;fill-opacity:1;stroke:none" />
  <path
     d="m 120.21893,356.32432 c 9.68133,0.75445 3.49637,9.5896 -4.21965,14.37493 -6.93087,4.29839 -14.76598,-0.66868 -9.5383,-6.34584 -10.063368,-1.59748 -15.098622,5.48452 -12.723479,11.03741 3.813119,8.91475 17.857899,0.77323 18.759619,2.24444 0.0414,3.47165 -17.679122,11.66078 -8.52355,27.66471 17.43346,0.44944 16.62827,-19.10117 19.5691,-20.90203 3.48899,0.81677 0.53856,16.67804 11.48495,16.34348 5.95865,-0.18212 9.54607,-12.38881 2.60509,-16.62398 -2.57247,7.98928 -9.74612,3.30753 -9.07615,-6.38357 0.55882,-8.08341 6.6146,-17.42538 11.5864,-9.457 3.09921,-4.33053 0.26476,-8.62747 -5.28061,-8.1189 3.48654,-4.78366 -3.4305,-8.90837 -5.69951,-3.52926 -2.04366,-6.38495 -7.84714,-5.29861 -8.94391,-0.30439 z"
     id="path3658-9-8"
     style="fill:#faf700;fill-opacity:1;stroke:none" />
  <path
     d="m 337.56589,356.17644 c -9.68133,0.75445 -3.49637,9.5896 4.21965,14.37493 6.93087,4.29839 14.76598,-0.66868 9.5383,-6.34584 10.06337,-1.59748 15.09862,5.48452 12.72348,11.03741 -3.81312,8.91475 -17.8579,0.77323 -18.75962,2.24444 -0.0414,3.47165 17.67912,11.66078 8.52355,27.66471 -17.43346,0.44944 -16.62827,-19.10117 -19.5691,-20.90203 -3.48899,0.81677 -0.53856,16.67804 -11.48495,16.34348 -5.95865,-0.18212 -9.54607,-12.38881 -2.60509,-16.62398 2.57247,7.98928 9.74612,3.30753 9.07615,-6.38357 -0.55882,-8.08341 -6.6146,-17.42538 -11.5864,-9.457 -3.09921,-4.33053 -0.26476,-8.62747 5.28061,-8.1189 -3.48654,-4.78366 3.4305,-8.90837 5.69951,-3.52926 2.04366,-6.38495 7.84714,-5.29861 8.94391,-0.30439 z"
     id="path3658-9-8-2"
     style="fill:#faf700;fill-opacity:1;stroke:none" />
  <path
     d="m 216.91292,408.31662 c 8.47082,-4.32745 7.76964,6.13107 3.74171,14.0282 -3.61808,7.09356 -12.67604,6.99826 -11.17815,-0.36294 -9.21625,3.82664 -9.84311,12.24954 -5.05116,15.62049 7.69313,5.41182 15.31239,-8.49294 16.80964,-7.73914 1.78974,2.84565 -8.87677,18.66928 6.8644,27.20339 14.79405,-8.5433 4.23708,-24.27607 5.7839,-27.26695 3.32821,-1.10959 8.88189,13.497 17.85918,7.62339 4.88679,-3.1973 1.71299,-15.11172 -6.22782,-15.05983 1.88965,7.9128 -6.47137,7.71488 -10.81107,-0.63041 -3.61978,-6.96087 -3.28277,-17.77183 4.90005,-13.73399 0.40023,-5.16081 -4.14054,-7.25978 -8.51695,-4.00424 0.49477,-5.73305 -7.3702,-5.60218 -6.54661,0 -4.93563,-4.22755 -9.23562,-0.36292 -7.62712,4.32203 z"
     id="path3658-4-4"
     style="fill:#faf700;fill-opacity:1;stroke:none" />
  <path
     d="m 393.38914,176.97586 c -4.32745,-8.47082 6.13107,-7.76964 14.0282,-3.74171 7.09356,3.61808 6.99826,12.67604 -0.36294,11.17815 3.82664,9.21625 12.24954,9.84311 15.62049,5.05116 5.41182,-7.69313 -8.49294,-15.31239 -7.73914,-16.80964 2.84565,-1.78974 18.66928,8.87677 27.20339,-6.8644 -8.5433,-14.79405 -24.27607,-4.23708 -27.26694,-5.7839 -1.1096,-3.32821 13.49699,-8.88189 7.62338,-17.85918 -3.19729,-4.88679 -15.11172,-1.71299 -15.05983,6.22782 7.9128,-1.88965 7.71488,6.47137 -0.63041,10.81107 -6.96087,3.61978 -17.77183,3.28277 -13.73399,-4.90005 -5.16081,-0.40023 -7.25978,4.14054 -4.00424,8.51695 -5.73305,-0.49477 -5.60217,7.3702 0,6.54661 -4.22755,4.93563 -0.36292,9.23562 4.32203,7.62712 z"
     id="path3658-5"
     style="fill:#faf700;fill-opacity:1;stroke:none" />
  <path
     d="m 391.55717,300.50519 c -2.90105,-9.059 7.30654,-6.67622 14.44858,-1.42455 6.41531,4.7173 4.85686,13.64069 -2.16534,10.97242 2.28632,9.71367 10.49707,11.69401 14.59838,7.51008 6.58438,-6.71701 -5.90566,-16.48401 -4.91972,-17.8397 3.09757,-1.30613 16.98859,11.77826 27.9553,-2.37613 -6.03916,-15.98062 -23.27171,-8.10605 -25.97316,-10.11605 -0.55693,-3.46381 14.75537,-6.583 10.41038,-16.39177 -2.36518,-5.33941 -14.63598,-4.13357 -15.86856,3.71118 8.1142,-0.58554 6.56717,7.63349 -2.36994,10.56693 -7.45451,2.44679 -18.06877,0.36641 -12.76113,-7.05596 -5.02822,-1.22932 -7.83368,2.91237 -5.3285,7.75753 -5.57764,-1.41511 -6.72001,6.36755 -1.05839,6.4605 -4.96988,4.18723 -1.85126,9.05545 3.0321,8.22552 z"
     id="path3658-5-7"
     style="fill:#faf700;fill-opacity:1;stroke:none" />
  <path
     d="m 61.669083,299.03533 c 2.90105,-9.059 -7.306541,-6.67622 -14.448581,-1.42455 -6.41531,4.7173 -4.85686,13.64069 2.16534,10.97242 -2.28632,9.71367 -10.49707,11.69401 -14.59838,7.51008 -6.58438,-6.71701 5.90566,-16.48401 4.91972,-17.8397 -3.09757,-1.30613 -16.98859,11.77826 -27.9553,-2.37613 6.03916,-15.98062 23.27171,-8.10605 25.97316,-10.11605 0.55693,-3.46381 -14.75537,-6.583 -10.41038,-16.39177 2.36518,-5.33941 14.63598,-4.13357 15.86856,3.71118 -8.1142,-0.58554 -6.56717,7.63349 2.36994,10.56693 7.45451,2.44679 18.068771,0.36641 12.76113,-7.05596 5.028221,-1.22932 7.833681,2.91237 5.328501,7.75753 5.57764,-1.41511 6.72001,6.36755 1.05839,6.4605 4.96988,4.18723 1.85126,9.05545 -3.0321,8.22552 z"
     id="path3658-5-7-1"
     style="fill:#faf700;fill-opacity:1;stroke:none" />
  <path
     d="m 60.651221,176.57863 c 4.32745,-8.47082 -6.13107,-7.76964 -14.0282,-3.74171 -7.09356,3.61808 -6.99826,12.67604 0.36294,11.17815 -3.82664,9.21625 -12.24954,9.84311 -15.62049,5.05116 -5.41182,-7.69313 8.49294,-15.31239 7.73914,-16.80964 -2.84565,-1.78974 -18.669279,8.87677 -27.203389,-6.8644 8.5433,-14.79405 24.276069,-4.23708 27.266939,-5.7839 1.1096,-3.32821 -13.49699,-8.88189 -7.62338,-17.85918 3.19729,-4.88679 15.11172,-1.71299 15.05983,6.22782 -7.9128,-1.88965 -7.71488,6.47137 0.63041,10.81107 6.96087,3.61978 17.77183,3.28277 13.73399,-4.90005 5.16081,-0.40023 7.25978,4.14054 4.00424,8.51695 5.73305,-0.49477 5.60217,7.3702 0,6.54661 4.22755,4.93563 0.36292,9.23562 -4.32203,7.62712 z"
     id="path3658-5-1"
     style="fill:#faf700;fill-opacity:1;stroke:none" />
  <path
     d="m 267.32232,300.58663 c 6.71625,-0.57716 12.30746,-2.76059 21.57275,-12.04478 L 97.976236,109.6678 c -7.97647,-7.47325 -8.870896,-17.527857 -8.449326,-25.347977 9.612453,-1.621899 22.4802,2.745913 31.8198,11.505467 L 306.6027,269.57581 c 9.21557,-9.60159 10.44331,-16.5361 10.6066,-22.47162 l 13.39308,13.12343 -18.51661,19.95479 30.47151,28.62884 c 2.06543,1.94052 4.1936,-1.40403 5.39319,-3.73029 4.68955,2.97205 9.13149,9.69324 -0.53932,20.67388 -10.30834,11.70452 -17.59784,5.02538 -19.95479,1.52807 1.4232,-1.31833 5.73753,-3.66621 3.28085,-5.88756 l -30.96588,-27.99963 -18.51661,20.04468 -13.9324,-12.85377 z"
     id="path3863"
     style="fill:#faf700;fill-opacity:1;stroke:none" />
  <path
     d="m 327.547,228.59697 c 5.09009,-0.4375 9.32729,-2.09225 16.34912,-9.12795 L 199.2081,83.90928 c -6.04489,-5.663717 -6.72263,-13.283539 -6.40304,-19.210079 7.28448,-1.229144 17.03642,2.081101 24.11444,8.719498 L 357.31579,205.09544 c 6.98405,-7.27667 7.91446,-12.53199 8.03826,-17.03009 l 10.14992,9.94574 -14.03292,15.12261 23.09281,21.69616 c 1.56516,1.47074 3.178,-1.06377 4.0872,-2.827 3.55415,2.25238 6.92024,7.3463 -0.40872,15.6678 -7.81229,8.87044 -13.33656,3.80843 -15.12262,1.15809 1.07846,-0.99916 4.34811,-2.7783 2.48635,-4.46188 l -23.4675,-21.21937 -14.03293,15.19068 -10.55864,-9.74121 z"
     id="path3863-5"
     style="fill:#faf700;fill-opacity:1;stroke:none" />
  <path
     d="m 211.7732,355.15711 c 5.09009,-0.4375 9.32729,-2.09225 16.34912,-9.12795 L 83.434297,210.46943 c -6.04489,-5.66372 -6.72263,-13.28354 -6.40304,-19.21008 7.28448,-1.22914 17.03642,2.0811 24.114443,8.7195 l 140.39629,131.67673 c 6.98405,-7.27667 7.91446,-12.53199 8.03826,-17.03009 l 10.14992,9.94574 -14.03292,15.12261 23.09281,21.69616 c 1.56516,1.47074 3.178,-1.06377 4.0872,-2.827 3.55415,2.25238 6.92024,7.3463 -0.40872,15.6678 -7.81229,8.87044 -13.33656,3.80843 -15.12262,1.15809 1.07846,-0.99916 4.34811,-2.7783 2.48635,-4.46188 l -23.4675,-21.21937 -14.03293,15.19068 -10.55864,-9.74121 z"
     id="path3863-5-2"
     style="fill:#faf700;fill-opacity:1;stroke:none" />
</svg>
