<?xml version="1.0" encoding="UTF-8" standalone="no"?>
<!-- Created with Inkscape (http://www.inkscape.org/) -->

<svg
   xmlns:svg="http://www.w3.org/2000/svg"
   xmlns="http://www.w3.org/2000/svg"
   version="1.1"
   width="390"
   height="480"
   id="svg4228">
  <defs
     id="defs4232" />
  <path
     d="M 1.4998543,1.5124544 388.50451,1.500982 c -0.0148,268.350348 -0.019,272.308928 -0.019,272.321028 C 389.47805,546.74292 1.5064276,546.74853 1.5031372,273.82126 L 1.4998543,1.5124544 z"
     id="path2902"
     style="fill:#1649b2;fill-opacity:1;stroke:#000000;stroke-width:2.98619199;stroke-miterlimit:4;stroke-opacity:1;stroke-dasharray:none" />
  <rect
     width="97.957275"
     height="42.276344"
     x="149.34822"
     y="396.93576"
     id="rect4072"
     style="opacity:0.98999999;fill:#ececec;fill-opacity:1;fill-rule:nonzero;stroke:none" />
  <path
     d="m 171.77043,121.8677 46.05058,0 12.71781,256.02828 -66.94127,0 8.17288,-256.02828 z"
     id="path3663"
     style="fill:#ececec;stroke:none" />
  <path
     d="m 97.705736,107.42611 3.166814,-3.6757 c 18.67048,10.09585 7.68463,22.02381 -3.166814,3.6757 z"
     id="path4309"
     style="fill:#f2f2f2;stroke:none" />
  <path
     d="m 102.607,116.96498 8.98833,-9.22179 146.84825,153.15175 -7.35409,7.58755 L 102.607,116.96498 z"
     id="path3625"
     style="fill:#ececec;stroke:#1649b2;stroke-width:1px;stroke-linecap:butt;stroke-linejoin:miter;stroke-opacity:1" />
  <path
     d="m 87.431907,311.67315 c 0.454702,-6.12624 6.004237,-13.03012 13.540853,-20.89494 L 281.90661,101.96498 c 5.75396,-6.004535 12.37884,-9.582466 18.91051,-11.264592 -1.00897,5.888908 -3.57354,10.621332 -8.75486,16.284052 l -177.2219,193.68774 c -6.16095,6.73337 -13.22801,13.42756 -21.122481,16.3502 -1.833869,-2.3207 -3.922068,-4.05894 -6.285972,-5.34923 z"
     id="path2851"
     style="fill:#ececec;stroke:#1649b2;stroke-width:1px;stroke-linecap:butt;stroke-linejoin:miter;stroke-opacity:1" />
  <rect
     width="42.430492"
     height="10.458472"
     x="261.74597"
     y="108.51973"
     transform="matrix(0.70390097,0.71029813,-0.69914368,0.71498119,0,0)"
     id="rect2849"
     style="opacity:0.98999999;fill:#ececec;fill-opacity:1;fill-rule:nonzero;stroke:#1649b2;stroke-width:1.02976465;stroke-opacity:1" />
  <path
     d="m 75.875487,147.66537 28.307393,-27.7821 30.55599,31.07776 -28.30891,27.22963 -30.554473,-30.52529 z"
     id="path3661"
     style="fill:#ececec;stroke:none" />
  <rect
     width="29.736488"
     height="7.0324764"
     x="165.05231"
     y="30.402617"
     transform="matrix(0.71514515,0.69897598,-0.71158762,0.70259737,0,0)"
     id="rect3635"
     style="opacity:0.98999999;fill:#1649b2;fill-opacity:1;fill-rule:nonzero;stroke:none" />
  <rect
     width="36.12466"
     height="8.5446606"
     x="14.299331"
     y="175.68126"
     transform="matrix(-0.7035716,0.71062438,0.69995493,0.71418702,0,0)"
     id="rect3635-1"
     style="opacity:0.98999999;fill:#1649b2;fill-opacity:1;fill-rule:nonzero;stroke:none" />
  <path
     d="m 146.39689,454.90272 32.80155,0 0,-25.09727 c 0,-23.87754 -33.03823,-23.89446 -32.91829,0.93385 l 0.11674,24.16342 z"
     id="path3665"
     style="fill:#ececec;stroke:#1649b2;stroke-width:1px;stroke-linecap:butt;stroke-linejoin:miter;stroke-opacity:1" />
  <path
     d="m 180.39689,454.90272 32.80155,0 0,-25.09727 c 0,-23.87754 -33.03823,-23.89446 -32.91829,0.93385 l 0.11674,24.16342 z"
     id="path3665-7"
     style="fill:#ececec;stroke:#1649b2;stroke-width:1px;stroke-linecap:butt;stroke-linejoin:miter;stroke-opacity:1" />
  <path
     d="m 214.39689,454.90272 32.80155,0 0,-25.09727 c 0,-23.87754 -33.03823,-23.89446 -32.91829,0.93385 l 0.11674,24.16342 z"
     id="path3665-7-4"
     style="fill:#ececec;stroke:#1649b2;stroke-width:1px;stroke-linecap:butt;stroke-linejoin:miter;stroke-opacity:1" />
  <path
     d="m 112.39689,458.90272 32.80155,0 0,-25.09727 c 0,-23.87754 -33.03823,-23.89446 -32.91829,0.93385 l 0.11674,24.16342 z"
     id="path3665-4"
     style="fill:#ececec;stroke:none" />
  <path
     d="m 112.42412,459.22568 -1.22568,-21.42023 c -1.36406,-23.83854 -32.938593,-24.94919 -32.818653,-0.12088 10.322137,8.32307 22.403943,14.78392 34.044333,21.54111 z"
     id="path3665-4-8"
     style="fill:#ececec;stroke:none" />
  <path
     d="m 248.39689,460.90272 32.80155,-4.27772 0,-20.81955 c 0,-23.87754 -33.03823,-23.89446 -32.91829,0.93385 l 0.11674,24.16342 z"
     id="path3665-7-4-0"
     style="fill:#ececec;stroke:none" />
  <path
     d="m 263.72001,452.87245 c 0.3876,-23.87438 -32.88618,-23.89472 -32.91829,0.93385 l -0.0255,19.71556 32.81881,-8.75666 0.12498,-11.89275 z"
     id="path3665-4-2-5-5-1-7"
     style="fill:#ececec;stroke:#1649b2;stroke-width:1px;stroke-linecap:butt;stroke-linejoin:miter;stroke-opacity:1" />
  <path
     d="m 314.85799,435.90888 c -2.88356,-20.53696 -32.69203,-18.80183 -32.57784,4.83042 l 0.0738,15.26264 c 11.49241,-5.4117 22.03534,-12.05942 32.50404,-20.09306 z"
     id="path3665-7-4-0-9"
     style="fill:#ececec;stroke:none" />
  <path
     d="m 297.31205,448.48104 c -3.78459,-19.38139 -32.35197,-17.87378 -32.51033,5.32526 l -0.0718,10.51808 c 1.49403,-0.7396 6.05667,-2.26805 11.20681,-4.68443 8.60526,-4.0375 19.19968,-9.15803 21.37532,-11.15891 z"
     id="path3665-4-2-5-5-1-7-1"
     style="fill:#ececec;stroke:#1649b2;stroke-width:1px;stroke-linecap:butt;stroke-linejoin:miter;stroke-opacity:1" />
  <path
     d="m 127.71997,454.87245 c 0.24025,-22.0114 -28.23678,-24.40027 -32.242423,-5.08713 10.339963,5.99029 20.862853,11.06259 32.115693,15.53236 l 0.12669,-10.44523 4e-5,0 z"
     id="path3665-4-2-5-1"
     style="fill:#ececec;stroke:#1649b2;stroke-width:1px;stroke-linecap:butt;stroke-linejoin:miter;stroke-opacity:1" />
  <path
     d="m 161.72001,473.21875 0,-18.3463 c 0,-23.87753 -33.52096,-23.88743 -32.91829,0.93385 l 0.23826,9.81281 c 10.96223,3.81904 21.95809,8.26599 32.68003,7.59964 z"
     id="path3665-4-2-5"
     style="fill:#ececec;stroke:#1649b2;stroke-width:1px;stroke-linecap:butt;stroke-linejoin:miter;stroke-opacity:1" />
  <path
     d="m 147.40393,471.55536 c -2.0297,-15.72059 -19.71264,-19.22814 -28.1454,-9.75173 9.26916,4.02376 19.88863,8.20656 28.1454,9.75173 z"
     id="path3665-4-2-5-1-5"
     style="fill:#ececec;stroke:#1649b2;stroke-width:1px;stroke-linecap:butt;stroke-linejoin:miter;stroke-opacity:1" />
  <path
     d="m 163.09524,473.58323 c 11.11223,1.77108 22.51238,4.72584 32.62477,2.38649 l 0,-25.09727 c 0,-23.87753 -33.25291,-23.89248 -32.91829,0.93385 l 0.29352,21.77693 z"
     id="path3665-4-2-5-5"
     style="fill:#ececec;stroke:#1649b2;stroke-width:1px;stroke-linecap:butt;stroke-linejoin:miter;stroke-opacity:1" />
  <path
     d="m 181.7642,476.50866 -0.0442,-3.63621 c -0.2774,-22.82399 -30.81459,-23.84116 -33.02087,-2.20206 l -0.0724,1.19786 c 10.77888,2.52559 22.03374,3.3059 33.13745,4.64041 l 1e-5,0 z"
     id="path3665-4-2-5-1-5-2"
     style="fill:#ececec;stroke:#1649b2;stroke-width:1px;stroke-linecap:butt;stroke-linejoin:miter;stroke-opacity:1" />
  <path
     d="m 196.96533,476.53222 c 18.08679,0.13838 22.68974,0.57641 32.40113,-3.74448 l 0.35355,-21.91529 c 0.38516,-23.87442 -33.08258,-23.8942 -32.91829,0.93385 l 0.16361,24.72592 z"
     id="path3665-4-2-5-5-1"
     style="fill:#ececec;stroke:#1649b2;stroke-width:1px;stroke-linecap:butt;stroke-linejoin:miter;stroke-opacity:1" />
  <path
     d="m 215.72001,476.28769 0,-3.41524 c 0,-23.87753 -33.4782,-23.88843 -32.91829,0.93385 l 0.064,2.83915 c 11.0362,1.34608 21.92915,0.82072 32.85429,-0.35776 z"
     id="path3665-4-2-5-1-5-2-7"
     style="fill:#ececec;stroke:#1649b2;stroke-width:1px;stroke-linecap:butt;stroke-linejoin:miter;stroke-opacity:1" />
  <path
     d="m 249.95406,469.46621 c -2.78636,-20.70164 -33.10588,-19.35341 -33.15234,4.34009 l -0.005,2.34607 c 10.50559,-0.21509 22.83213,-3.23706 33.15694,-6.68616 l 4e-4,0 z"
     id="path3665-4-2-5-1-5-2-7-6"
     style="fill:#ececec;stroke:#1649b2;stroke-width:1px;stroke-linecap:butt;stroke-linejoin:miter;stroke-opacity:1" />
  <path
     d="m 276.38153,459.52443 c -8.5642,-5.83916 -22.3474,-2.86549 -25.37278,9.65378 3.3978,-0.81784 19.10161,-6.52228 25.37278,-9.65378 z"
     id="path3665-4-2-5-1-5-2-7-6-1"
     style="fill:#ececec;stroke:#1649b2;stroke-width:1px;stroke-linecap:butt;stroke-linejoin:miter;stroke-opacity:1" />
  <path
     d="m 157.93774,395.83658 79.20233,-1e-5 c 5.52575,0 6.00656,-9.79786 -0.0584,-9.80255 l -79.14397,-0.0612 c -6.31754,-0.005 -6.61016,9.86379 4e-5,9.86379 z"
     id="path4074"
     style="fill:#ececec;stroke:none" />
  <path
     d="m 160.09594,385.46668 73.44419,0 c 5.12403,0 5.56988,-9.79331 -0.0542,-9.798 l -73.39008,-0.0612 c -5.85824,-0.005 -6.12958,9.85919 4e-5,9.85919 z"
     id="path4074-4"
     style="fill:#ececec;stroke:#1649b2;stroke-width:0.98636901px;stroke-linecap:butt;stroke-linejoin:miter;stroke-opacity:1" />
  <path
     d="M 152.80155,35.019454 179.41634,65.836575 214.0856,66.653696 235.214,35.36965 152.80155,35.019454 z"
     id="path4126"
     style="fill:#ececec;stroke:#000000;stroke-width:1px;stroke-linecap:butt;stroke-linejoin:miter;stroke-opacity:1" />
  <path
     d="m 181.92179,115.16592 c -5.45239,-7.44007 -14.16474,-14.29021 -15.14639,-22.533873 -1.7094,-14.355235 1.35972,-43.442407 -7.26367,-44.57249 6.06234,3.319187 4.82614,12.714445 -2.72023,14.052109 -12.43146,2.203592 -17.6207,-8.751896 -14.73732,-16.941067 5.2396,-14.881147 35.41741,-10.892844 33.67699,14.197164 -0.35292,-10.984489 3.84842,-16.001264 8.74941,-20.470329 4.51331,-4.115552 15.10979,-3.750075 20.8005,-0.247625 5.84235,3.595777 9.65367,10.223012 8.83195,20.305246 2.30023,-30.302466 28.82266,-24.258093 32.19125,-14.609872 1.80643,5.173912 0.75641,16.571416 -8.41925,17.994079 -11.64407,1.805385 -14.5002,-12.079457 -6.43825,-14.279705 -9.34743,0.884702 -7.84811,28.376828 -8.74941,44.324865 -0.50364,8.911618 -9.45102,16.308498 -16.67342,23.937078 l -24.10216,-1.15558 z"
     id="path4120"
     style="fill:#ececec;stroke:#1649b2;stroke-width:1px;stroke-linecap:round;stroke-linejoin:round;stroke-opacity:1" />
  <path
     d="m 169.27246,122.43886 51.06309,-1e-5 c 3.56255,0 3.87254,-10.84114 -0.0377,-10.84633 l -51.02547,-0.0678 c -4.07302,-0.005 -4.26167,10.91407 3e-5,10.91407 z"
     id="path4074-4-2"
     style="fill:#ececec;stroke:#1649b2;stroke-width:0.86534047px;stroke-linecap:butt;stroke-linejoin:miter;stroke-opacity:1" />
  <rect
     width="96.653694"
     height="18.210117"
     x="145.68094"
     y="17.976652"
     id="rect4122"
     style="opacity:0.98999999;fill:#ececec;fill-opacity:1;fill-rule:nonzero;stroke:#1649b2;stroke-opacity:1" />
  <path
     d="m 258.2957,289.29434 c -4.94556,2.54239 1.37317,9.4433 5.66843,4.41797 3.73933,-4.37489 0.86334,-17.05335 -11.10065,-9.07693 -9.55608,6.37105 -8.51969,18.79378 -5.98334,25.70461 8.97195,24.4459 33.60095,21.8027 39.99385,14.6195 9.18903,-10.32498 1.4522,-16.86994 -3.70022,-15.66374 -8.62809,2.01986 -4.24868,12.30739 1.02346,9.15727 -3.06927,5.93466 -13.89113,5.68262 -18.10745,2.9721 -9.62738,-6.18913 -12.72185,-13.12805 -13.30504,-21.76861 -0.45191,-6.69567 3.85618,-10.84847 5.51096,-10.36217 z"
     id="path4128"
     style="fill:#ececec;stroke:none" />
  <path
     d="m 277.40866,268.5891 c 2.60813,-5.36258 9.6874,1.48895 4.53219,6.1464 -4.48799,4.05462 -17.49416,0.93613 -9.31156,-12.03669 6.53574,-10.36186 19.27956,-9.23809 26.36903,-6.48786 25.07778,9.72848 22.36625,36.43424 14.99739,43.3662 -10.59188,9.96388 -17.306,1.57467 -16.06863,-4.01222 2.07207,-9.35563 12.62552,-4.60693 9.39397,1.10976 6.08807,-3.32807 5.82952,-15.06245 3.04892,-19.6343 -6.3491,-10.43918 -13.46739,-13.79458 -22.33128,-14.42696 -6.86873,-0.49001 -11.12888,4.18134 -10.63003,5.97567 z"
     id="path4128-3"
     style="fill:#ececec;stroke:none" />
  <path
     d="m 287.07986,288.25574 a 6.603332,7.8414564 0 1 1 -13.20666,0 6.603332,7.8414564 0 1 1 13.20666,0 z"
     transform="matrix(-0.42063102,0.77051521,-0.71069363,-0.51452356,589.4069,210.09971)"
     id="path4152"
     style="opacity:0.98999999;fill:#ececec;fill-opacity:1;fill-rule:nonzero;stroke:none" />
  <path
     d="m 287.07986,288.25574 a 6.603332,7.8414564 0 1 1 -13.20666,0 6.603332,7.8414564 0 1 1 13.20666,0 z"
     transform="matrix(-0.69110811,0.69089938,-0.69089854,-0.69110894,688.65926,313.33571)"
     id="path4152-1"
     style="opacity:0.98999999;fill:#ececec;fill-opacity:1;fill-rule:nonzero;stroke:none" />
  <path
     d="m 296.32452,285.69696 a 4.2096238,9.574831 0 1 1 -8.41925,0 4.2096238,9.574831 0 1 1 8.41925,0 z"
     transform="matrix(0.77776986,0.8083656,-0.77689054,0.80928054,302.72,-199.80682)"
     id="path4185"
     style="opacity:0.98999999;fill:#ececec;fill-opacity:1;fill-rule:nonzero;stroke:#1649b2;stroke-width:0.89177519;stroke-linecap:round;stroke-linejoin:round;stroke-miterlimit:4;stroke-opacity:1;stroke-dasharray:none" />
  <path
     d="m 296.32452,285.69696 a 4.2096238,9.574831 0 1 1 -8.41925,0 4.2096238,9.574831 0 1 1 8.41925,0 z"
     transform="matrix(0.77776986,0.8083656,-0.77689054,0.80928054,251.04893,-149.6215)"
     id="path4185-6"
     style="opacity:0.98999999;fill:#ececec;fill-opacity:1;fill-rule:nonzero;stroke:#1649b2;stroke-width:0.89177519;stroke-linecap:round;stroke-linejoin:round;stroke-miterlimit:4;stroke-opacity:1;stroke-dasharray:none" />
  <path
     d="m 296.32452,285.69696 a 4.2096238,9.574831 0 1 1 -8.41925,0 4.2096238,9.574831 0 1 1 8.41925,0 z"
     transform="matrix(0.73879057,0.84413825,-0.81418392,0.77175025,275.7313,-199.36917)"
     id="path4185-6-8"
     style="opacity:0.98999999;fill:#ececec;fill-opacity:1;fill-rule:nonzero;stroke:none" />
  <path
     d="m 189.92218,111.82879 c -12.57256,-18.935677 -5.73312,-42.980601 -2.393,-56.673148"
     id="path4239"
     style="fill:none;stroke:#1649b2;stroke-width:1px;stroke-linecap:butt;stroke-linejoin:miter;stroke-opacity:1" />
  <path
     d="m 200.85676,111.82879 c 12.57256,-18.935679 4.44908,-42.863872 1.69261,-56.848248"
     id="path4239-4"
     style="fill:none;stroke:#1649b2;stroke-width:1px;stroke-linecap:butt;stroke-linejoin:miter;stroke-opacity:1" />
  <path
     d="m 184.37744,52.237353 c 5.98974,0.352779 -0.43584,7.865911 10.33073,7.996109 9.96725,0.121189 5.95929,-7.483746 10.97276,-7.879378"
     id="path4263"
     style="fill:none;stroke:#1649b2;stroke-width:1px;stroke-linecap:butt;stroke-linejoin:miter;stroke-opacity:1" />
  <path
     d="m 287.07986,288.25574 a 6.603332,7.8414564 0 1 1 -13.20666,0 6.603332,7.8414564 0 1 1 13.20666,0 z"
     transform="matrix(-0.37911635,1.1213656,-1.0835497,-0.50216058,504.2547,150.25101)"
     id="path4152-9"
     style="opacity:0.98999999;fill:#ececec;fill-opacity:1;fill-rule:nonzero;stroke:none" />
  <path
     d="m 287.07986,288.25574 a 6.603332,7.8414564 0 1 1 -13.20666,0 6.603332,7.8414564 0 1 1 13.20666,0 z"
     transform="matrix(0.29038578,0.85963463,0.82994958,-0.38495439,-224.07566,-26.941555)"
     id="path4152-9-8"
     style="opacity:0.98999999;fill:#ececec;fill-opacity:1;fill-rule:nonzero;stroke:#1649b2;stroke-opacity:1" />
</svg>
