<?xml version="1.0" encoding="UTF-8" standalone="no"?>
<!-- Created with Inkscape (http://www.inkscape.org/) -->

<svg
 xmlns:dc="http://purl.org/dc/elements/1.1/"
 xmlns:cc="http://creativecommons.org/ns#"
 xmlns:rdf="http://www.w3.org/1999/02/22-rdf-syntax-ns#"
 xmlns:svg="http://www.w3.org/2000/svg"
 xmlns="http://www.w3.org/2000/svg"
 version="1.1"
 width="390"
 height="480"
 id="svg4228">
<metadata
 id="metadata81">
<rdf:RDF>
<cc:Work
 rdf:about="">
<dc:format>image/svg+xml</dc:format>
<dc:type
 rdf:resource="http://purl.org/dc/dcmitype/StillImage" />
<dc:title></dc:title>
</cc:Work>
</rdf:RDF>
</metadata>
<defs
 id="defs4232" />
<path
 d="M 1.4998543,1.5124544 388.50451,1.500982 c -0.0148,268.350348 -0.019,272.308928 -0.019,272.321028 C 389.47805,546.74292 1.5064276,546.74853 1.5031372,273.82126 L 1.4998543,1.5124544 z"
 id="path2902"
 style="fill:#008c31;fill-opacity:1;stroke:#000000;stroke-width:2.98619199;stroke-miterlimit:4;stroke-opacity:1;stroke-dasharray:none" />
<path
 d="m 44.182879,158.40467 c 2.914534,3.69913 6.450991,8.54125 13.599222,7.70428 L 60.700389,34.727625 c 0.08156,-8.301529 3.078102,-16.241826 6.595331,-20.719844 4.635394,4.378503 7.829871,12.729344 8.112841,21.361868 l 4.2607,129.980541 c 5.291639,0.5414 8.774397,-3.97866 12.081712,-7.41245 2.351088,4.00141 6.027687,13.70213 -1.984436,23.46304 -2.566218,-4.21047 -5.873883,-5.52285 -8.871595,-4.55253 -6.987918,2.26191 -3.650022,27.87168 -3.210117,41.84825 0.150568,4.78383 4.157195,5.70572 8.346304,5.01945 -3.639401,25.71622 -33.618977,14.54225 -33.210117,1.40078 6.595428,1.35225 9.184691,-1.14516 8.754864,-6.82879 -1.050597,-13.89211 -0.994389,-39.09512 -4.96109,-41.55642 -5.077725,-3.15068 -9.277919,1.66128 -12.315175,5.71984 -3.848839,-3.85333 -4.809951,-16.2359 -0.116732,-24.04669 z"
 id="path2849"
 style="fill:#faf700;fill-opacity:1;stroke:none" />
<path
 d="m 311.25957,101.43271 0.11673,-8.004186 c 0.0463,-3.177636 -4.45386,-2.683607 -8.51363,-2.602422 -2.23554,0.0447 -2.63197,-10.927697 -0.0442,-11.181126 l 26.11876,-0.132582 c 2.16762,0.05187 3.3441,10.975919 -0.0442,11.136931 -2.53418,0.120424 -9.38486,-1.235428 -9.38334,2.39058 l 0.10257,8.525385 -8.35269,-0.13258 z"
 id="path3735"
 style="fill:#faf700;fill-opacity:1;stroke:none" />
<path
 d="m 329.76654,130.3891 c 1.6251,-1.41367 0.84648,-4.77546 -0.26028,-5.55085 2.46901,-0.93594 2.49484,-6.30918 1.07304,-6.70083 2.10968,-0.26065 1.4054,-6.24431 -0.41271,-6.02554 2.67494,-1.0453 1.03544,-5.68704 -1.32651,-6.43825 2.55168,-1.12018 5.23926,-10.329637 -1.72753,-7.676376 -12.73635,4.850566 -24.32487,-0.743657 -26.82604,5.860456 -3.27498,8.6473 1.66609,18.9586 -0.0825,20.71795 l -26.82603,26.99112 c -2.28746,-6.05115 -6.00711,-11.3862 -9.82246,-16.67341 -8.47428,-14.69908 -6.96063,-42.973897 -25.50537,-43.994698 -7.52862,-0.371355 -15.54995,-0.08576 -22.49281,-1.238124 -6.26163,-0.344673 -7.63676,-10.038861 -7.38726,-13.619372 5.58952,1.150762 11.38061,1.111179 12.71728,-2.291138 0.9881,-2.515064 -0.0559,-4.582955 -1.6567,-5.715402 -0.21721,-2.056298 0.7015,-3.431042 1.23812,-5.035041 -0.77068,-1.403208 -1.23705,-2.806416 -1.23812,-4.209624 1.03702,0.464281 1.60121,0.688233 3.46675,-0.165083 1.86554,-0.853316 -3.17512,-10.741301 -1.28891,-15.105122 0.70318,-1.626827 0.84179,-4.405288 -0.19684,-5.612832 -0.63044,-0.703662 -1.05758,-1.4525 -0.9905,-2.311166 6.83884,-1.635555 3.58854,-7.679539 1.07304,-9.822456 -8.52423,-7.261672 -17.74007,-9.234497 -26.41333,-4.209624 -14.2247,-5.770816 -20.40822,2.511416 -29.05466,6.190624 -2.81306,1.197005 -4.47445,7.196819 0.33017,7.51129 -0.6407,3.680496 -0.44029,6.572444 1.40321,7.923998 -4.52939,8.439192 -5.80779,19.765123 0.74287,16.343246 0.7907,1.909058 0.10106,3.683541 -0.24763,5.489019 l 1.39231,3.30703 c -3.74702,8.315946 5.60864,9.832715 9.91587,8.372614 0.87236,5.807003 -0.78017,13.600887 -8.0918,13.269177 -38.12556,-1.729657 -39.72863,21.773064 -41.35065,36.420894 -8.9694,7.13162 -7.44804,20.33718 -12.4296,22.9048 -11.43429,5.89354 -21.501378,30.38323 -35.85726,41.06498 -1.264108,-4.71022 -4.383161,-7.79241 -9.154998,-7.88155 -4.371272,-0.0817 -6.223364,3.23556 -14.534455,1.60838 -4.764655,-0.93284 -3.606428,3.53902 -1.270625,4.86996 -3.761463,1.23944 -1.912907,7.59047 0.0325,7.924 -2.157696,0.51896 -2.80685,6.69337 -0.330166,7.26366 -2.434526,1.99871 -0.452911,8.18316 3.718603,8.07379 -2.863716,1.0626 -0.80417,6.18985 2.23152,6.26129 4.251118,0.10004 8.53942,-1.25364 11.125874,-3.56912 0.606505,1.81469 5.088321,2.48906 8.319489,-0.52426 14.818346,-13.81929 30.558488,-26.01829 44.820118,-37.30883 -1.71414,7.31202 -4.59372,15.73123 -3.27433,22.60988 24.58036,-4.83775 31.52978,-37.49608 31.2491,-54.06407 5.4491,7.82622 7.54433,19.46373 6.38989,28.97141 -1.31903,10.86314 -7.97851,5.7231 -10.73041,29.88008 -12.0861,12.5777 -10.51246,44.62542 -16.67664,73.45892 -0.75789,18.46877 -7.34194,33.77856 -3.62698,39.34136 -1.31333,4.15853 0.23758,9.9935 1.16731,14.00779 -9.0092,9.387 -9.58775,62.0857 -17.98737,64.78599 -8.39962,2.7003 -12.71465,9.23653 -17.217192,10.76762 -4.880773,1.65971 -10.500959,2.72749 -14.756523,4.40748 -5.193233,2.05016 -3.550744,9.36008 1.750973,10.3891 14.595762,2.83291 28.295492,-1.98542 46.792752,1.75341 11.26961,2.27791 5.39687,-12.28281 5.03604,-19.84679 -0.73245,-15.35422 30.60758,-48.59516 21.46063,-67.98874 7.83554,-7.2464 8.87467,-15.08046 11.22566,-22.61642 4.68137,-15.00582 11.7209,-14.91253 16.8385,-42.92165 l 25.91808,10.73041 c 4.32728,23.55911 15.23605,29.82765 15.18766,34.99767 -0.12457,13.30888 8.37847,15.94398 7.59383,23.93707 -2.91778,29.72349 16.74266,36.0724 20.63541,59.76015 1.28214,7.80194 -8.43835,27.34936 10.97804,23.85453 25.50322,-4.5904 32.88742,5.14412 43.82962,-0.74287 5.08811,-2.73744 6.21237,-9.58263 -1.48575,-11.22566 -6.56832,-1.40189 -10.39735,-1.31055 -12.25622,-3.75686 -6.017,-7.91849 -21.41761,-9.01108 -23.89703,-20.3453 -2.20518,-15.96171 -8.30008,-32.5856 -6.97011,-47.73739 1.69068,-19.26133 -3.78213,-16.03534 -4.53736,-23.62351 -1.4993,-15.06423 -2.47992,-28.09005 -5.66118,-42.7942 -14.01431,-81.16064 -20.86973,-77.85878 -24.43234,-101.60877 -1.32836,-8.85544 0.46716,-15.58978 3.962,-23.77199 3.10397,28.81741 12.63712,50.09848 34.33733,56.2934 1.07748,-19.89665 -14.06862,-34.35342 -14.19716,-36.81358 0.8961,0.10947 7.35604,9.46717 15.68291,17.00358 2.18163,1.97453 6.12879,1.5448 8.08908,-0.33016 15.59626,-14.91738 21.75484,-30.71066 29.76066,-44.52151 6.69787,-12.09374 16.15626,-2.98001 22.99607,-8.92996 l 3e-5,0 z"
 id="path3651"
 style="fill:#f2f2f2;fill-opacity:1;stroke:none" />
<path
 d="m 172.49141,41.765757 c 1.08276,-1.468732 3.45313,-0.973919 5.30929,0.425384 1.85617,1.399304 1.24639,2.039391 4.20363,3.887416 -3.28989,-0.146678 -4.25821,-5.245373 -9.51292,-4.3128 z"
 id="path2853"
 style="fill:#008c31;fill-opacity:1;stroke:none" />
<path
 d="m 213.99954,42.133566 c -2.40732,-1.920945 -8.71926,-1.67078 -9.7399,4.354071 1.4946,-2.537813 4.01058,-5.666853 9.7399,-4.354071 z"
 id="path2853-1"
 style="fill:#008c31;fill-opacity:1;stroke:none" />
<path
 d="m 173.75486,55.097275 c 1.85953,5.004915 -3.77548,3.71009 -5.86069,4.99029"
 id="path3675"
 style="fill:none;stroke:#008c31;stroke-width:0.69999999;stroke-linecap:round;stroke-linejoin:miter;stroke-miterlimit:4;stroke-opacity:1;stroke-dasharray:none" />
<path
 d="m 148,211.25 c -0.52735,1.87607 7.93586,15.33144 17.875,4.75 2.54793,3.23758 8.77696,11.2152 18.875,1 7.45217,7.09923 13.65287,7.95775 20.375,-1.5 -0.0274,0.38985 11.72429,10.73464 19.5,0.125 12.17973,8.14769 16.49777,-0.35758 16.625,-4.125"
 id="path3701"
 style="fill:none;stroke:#008c31;stroke-width:2;stroke-linecap:butt;stroke-linejoin:miter;stroke-miterlimit:4;stroke-opacity:1;stroke-dasharray:none" />
<path
 d="m 144.94313,277.27771 c 1.09814,2.97843 12.63091,6.41448 17.829,1.89846 0.64801,4.25083 17.48427,6.3081 21.9053,0.14506 4.00099,2.92106 15.92776,5.49953 21.36655,-0.39268 2.58828,4.0061 17.64768,5.15664 20.53284,-0.16509 3.36816,3.71758 17.59781,3.69834 18.72866,-2.31703 2.11452,2.07545 0.228,5.09529 14.04038,4.29803 -0.3813,-12.66258 -7.30543,-22.54966 -8.50205,-33.73872 -1.89663,-17.73456 -2.79505,-29.30691 -9.40949,-41.6218 -1.67484,-3.11825 -6.72307,0.30058 -4.9525,3.87946 6.26584,12.66523 11.83325,28.48726 9.49229,45.06773 -1.79942,12.74493 -10.65273,9.76664 -13.2892,0.49525 -4.56389,-16.04931 -3.44549,-32.05316 -6.05801,-45.70218 -0.39816,-2.08016 -4.05892,-3.59472 -4.32894,-0.2685 -1.17316,14.45176 5.32206,25.92224 3.71437,46.30586 -0.63248,8.01912 -10.44006,13.33214 -14.37555,-0.0876 -4.50335,-15.35603 -2.78972,-31.80626 -4.62233,-47.04874 -0.36179,-3.00918 -4.1412,-2.91672 -4.45725,-0.41271 -1.99296,15.78981 3.30769,31.47285 1.07304,47.95671 -2.20349,16.25406 -17.17965,10.83115 -18.07662,-0.66034 -0.96823,-12.40447 0.002,-26.47636 1.81592,-44.40741 0.41074,-4.05958 -3.98741,-5.79364 -4.62233,-1.07304 -2.23344,16.60542 -3.85195,31.24679 -5.77792,46.22332 -1.85141,14.39671 -19.80505,15.40738 -16.09562,-3.63183 l 8.08908,-41.51845 c 0.51316,-2.63387 -1.95947,-7.23506 -4.04454,-0.66034 -4.18951,13.21052 -6.17782,28.14071 -8.99704,42.75658 -3.42597,17.76151 -18.15767,16.98908 -14.69241,-2.39371 2.42131,-13.5435 4.68844,-28.67076 9.82246,-39.86761 2.36545,-5.15885 0.69816,-9.1071 -3.17785,-3.79692 -13.73122,18.81188 -8.83197,45.56299 -17.45757,74.03986 4.5337,1.48069 12.06183,-1.45094 14.52733,-3.30162 z"
 id="path3649"
 style="fill:#f2f2f2;fill-opacity:1;stroke:#008c31;stroke-width:1.20000005;stroke-linecap:butt;stroke-linejoin:miter;stroke-miterlimit:4;stroke-opacity:1;stroke-dasharray:none" />
<path
 d="m 330.07171,105.27344 c -9.2617,5.49907 -16.16298,-0.16488 -15.8659,3.03592 0.56742,6.11355 -3.23207,14.90167 -8.26831,9.25314"
 id="path3703"
 style="fill:none;stroke:#008c31;stroke-width:0.80000001;stroke-linecap:round;stroke-linejoin:miter;stroke-miterlimit:4;stroke-opacity:1;stroke-dasharray:none" />
<path
 d="m 317.20375,107.50574 c -3.64339,-0.68921 -2.98953,3.60691 -2.5652,5.26819 0.68251,2.67203 12.22206,1.30709 16.76107,-1.046"
 id="path3705"
 style="fill:none;stroke:#008c31;stroke-width:0.80000001;stroke-linecap:butt;stroke-linejoin:miter;stroke-miterlimit:4;stroke-opacity:1;stroke-dasharray:none" />
<path
 d="m 331.72568,117.80192 c -2.95047,1.38574 -9.90303,3.18683 -16.52847,2.21198 -3.21598,-0.47319 -2.1737,-7.31327 1.30172,-5.99899"
 id="path3707"
 style="fill:none;stroke:#008c31;stroke-width:0.69999999;stroke-linecap:butt;stroke-linejoin:miter;stroke-miterlimit:4;stroke-opacity:1;stroke-dasharray:none" />
<path
 d="m 315.35373,120.00821 c -2.21708,-0.90057 -3.24816,4.92199 -0.0277,5.66491 5.12674,1.18269 13.03258,-0.17594 15.22517,-1.06427"
 id="path3709"
 style="fill:none;stroke:#008c31;stroke-width:0.60000002;stroke-linecap:butt;stroke-linejoin:miter;stroke-miterlimit:4;stroke-opacity:1;stroke-dasharray:none" />
<path
 d="m 317.03502,125.92927 c -2.78689,0.45277 -2.87392,7.26224 7.38321,7.11619"
 id="path3733"
 style="fill:none;stroke:#008c31;stroke-width:0.60000002;stroke-linecap:butt;stroke-linejoin:miter;stroke-miterlimit:4;stroke-opacity:1;stroke-dasharray:none" />
<path
 d="m 288.15289,205.96173 c -5.9632,-12.1566 -22.80064,1.56125 -11.26694,9.57483 -4.23381,12.83252 -8.44732,24.18754 -14.23843,40.36287 -0.13773,25.14606 41.18802,25.32662 40.69304,0 l -17.41629,-39.61999 c 0.66503,-0.34085 1.98957,-1.50693 2.26989,-2.47626 l 18.32424,-0.37139 c 2.13625,7.5656 15.03116,8.12351 17.91155,0.28889 l 16.67341,0.0412 c 0.61026,1.27522 1.89765,2.61707 3.03341,2.95087 l -17.1893,37.37073 c 0.87391,26.99431 40.67914,26.97116 40.92311,-0.47117 l -14.50979,-36.59003 c 9.88885,-8.12951 -0.61743,-20.76017 -11.63836,-12.5876 l -16.46706,3e-5 c -0.86734,-3.00375 -3.06772,-4.50687 -5.61284,-5.53029 l -0.26182,-66.32931 c -3.21821,-0.55139 -5.52194,-4.34914 -3.32229,-6.52021 -4.58588,-0.46408 -2.80121,-5.55394 -1.95193,-6.16834 -0.58047,-0.31344 -1.17023,-1.94638 -1.15666,-3.14999 -0.50638,0.88066 -0.78678,1.37004 -1.69895,2.26447 l -0.39906,79.77957 c -2.84537,0.9021 -4.84298,4.69359 -4.78741,6.85096 l -17.91154,0.33016 5e-5,0 0,-3e-5 0,3e-5 -3e-5,0 3e-5,0 -3e-5,0 z"
 id="path2851"
 style="fill:#faf700;fill-opacity:1;stroke:none" />
<path
 d="m 55.1954,188.53269 c 2.927459,3.21038 15.06257,0.38915 15.868832,4.11679 0.806262,3.72764 -1.349402,3.04596 -1.149049,8.3969 0.108851,2.89017 2.679797,4.96814 3.682077,5.16451"
 id="path3737"
 style="fill:none;stroke:#008c31;stroke-width:1px;stroke-linecap:butt;stroke-linejoin:miter;stroke-opacity:1" />
<path
 d="m 58.411639,212.35954 c 7.919684,1.16827 14.317821,-3.92049 14.961023,1.02474 0.291891,2.24419 -3.592177,6.4206 -12.404036,5.28168"
 id="path3739"
 style="fill:none;stroke:#008c31;stroke-width:1px;stroke-linecap:round;stroke-linejoin:miter;stroke-opacity:1" />
<path
 d="m 55.002061,203.9078 c 3.739743,2.00724 7.624828,3.15701 14.915056,0.99187 2.525279,-0.74999 3.884038,6.00837 1.489901,6.3103"
 id="path3741"
 style="fill:none;stroke:#008c31;stroke-width:1px;stroke-linecap:butt;stroke-linejoin:miter;stroke-opacity:1" />
<path
 d="m 55.387145,196.71703 c 5.15556,2.65331 13.738009,1.86847 15.381591,-0.61995"
 id="path3743"
 style="fill:none;stroke:#008c31;stroke-width:1px;stroke-linecap:butt;stroke-linejoin:miter;stroke-opacity:1" />
<path
 d="m 67.106964,205.4594 c 0.65698,-0.11787 3.036003,-0.6157 4.490448,-0.0814 -1.431074,0.87533 0.311932,-1.77582 -1.956787,-3.09678 0.518547,2.38906 -0.786173,2.83491 -2.533661,3.17815 l 0,3e-5 z"
 id="path3745"
 style="fill:#008c31;fill-opacity:1;stroke:none" />
<path
 d="m 69.421875,201.45312 c 0.453071,-3.86675 -3.699342,-2.54972 -5.71875,-2.71875 l 6.4375,-1.82812 -0.71875,4.54687 z"
 id="path3747"
 style="fill:#008c31;fill-opacity:1;stroke:none" />
<path
 d="m 181.01934,117.82875 c -2.67593,-1.39239 -1.48512,16.50331 0.48613,15.51215 l 7.28361,-3.66227 -2.82,8.03749 c -1.15524,3.29263 16.44534,2.84919 14.93763,-0.30935 l -3.93654,-8.24677 8.31177,3.03185 c 2.47164,0.90157 2.44089,-14.38483 -0.0442,-13.34664 l -8.22338,3.43545 3.98074,-9.1365 c 0.85492,-1.96219 -15.72589,-2.23105 -14.98182,-0.17677 l 3.32952,9.19239 -8.32346,-4.33103 z"
 id="path3749"
 style="fill:none;stroke:#008c31;stroke-width:1px;stroke-linecap:butt;stroke-linejoin:miter;stroke-opacity:1" />
<path
 d="m 188.54404,108.0651 4.11882,3.26185 4.17507,-3.33562"
 id="path3751"
 style="fill:none;stroke:#008c31;stroke-width:1px;stroke-linecap:butt;stroke-linejoin:miter;stroke-opacity:1" />
<path
 d="m 281.60527,223.05508 -11.66726,32.08497 26.07457,-0.44194 -14.40731,-31.64303 z"
 id="path3753"
 style="fill:#008c31;fill-opacity:1;stroke:none" />
<path
 d="m 335.56635,252.31162 25.1023,-0.0884 -12.1976,-30.05204 -12.9047,30.14044 z"
 id="path3753-9"
 style="fill:#008c31;fill-opacity:1;stroke:none" />
<path
 d="m 122.8125,139.0625 c 20.50798,10.65585 9.38945,53.08881 3.0625,56.6875"
 id="path3799"
 style="fill:none;stroke:#008c31;stroke-width:1px;stroke-linecap:round;stroke-linejoin:round;stroke-opacity:1" />
<path
 d="m 261.75,197.875 c -6.13154,-1.97857 -9.94353,-15.1309 -8.90841,-30.33465 C 253.58469,156.6258 256.82578,144.65402 263.5,135"
 id="path3801"
 style="fill:none;stroke:#008c31;stroke-width:1px;stroke-linecap:butt;stroke-linejoin:miter;stroke-opacity:1" />
<path
 d="m 213.72893,54.553066 c -2.25605,1.646675 -1.79345,4.137636 0.65809,4.182339 1.50507,0.02745 3.01234,-0.790859 5.70086,0.802068"
 id="path2842"
 style="fill:none;stroke:#008c31;stroke-width:0.80000001;stroke-linecap:round;stroke-linejoin:miter;stroke-miterlimit:4;stroke-opacity:1;stroke-dasharray:none" />
<path
 d="m 220.39238,63.319158 c -3.2713,0.657819 -9.13936,-0.803174 -7.88265,2.692514"
 id="path2844"
 style="fill:none;stroke:#008c31;stroke-width:1px;stroke-linecap:round;stroke-linejoin:miter;stroke-opacity:1" />
<path
 d="m 207.02542,48.308893 c 3.98171,-2.396241 6.89097,-3.010572 6.82672,0.251417 -0.0914,4.638961 -4.54765,1.371959 -6.82672,-0.251417 z"
 id="path2846"
 style="fill:none;stroke:#008c31;stroke-width:0.69999999;stroke-linecap:butt;stroke-linejoin:miter;stroke-miterlimit:4;stroke-opacity:1;stroke-dasharray:none" />
<path
 d="m 212.31046,46.203577 c -0.87878,0.649241 -1.20332,3.143589 0.14094,4.691363"
 id="path2848"
 style="fill:none;stroke:#008c31;stroke-width:0.60000002;stroke-linecap:butt;stroke-linejoin:miter;stroke-miterlimit:4;stroke-opacity:1;stroke-dasharray:none" />
<path
 d="m 173.66731,46.167314 c 1.65366,-0.335367 3.87669,1.633649 4.69845,2.363813 -1.14932,1.294085 -2.31419,2.111763 -4.02724,2.480545 -2.44534,0.526425 -2.57909,-4.457434 -0.67121,-4.844358 z"
 id="path2850"
 style="fill:none;stroke:#008c31;stroke-width:0.69999999;stroke-linecap:butt;stroke-linejoin:miter;stroke-miterlimit:4;stroke-opacity:1;stroke-dasharray:none" />
<path
 d="m 165.35587,35.566795 c 6.6914,0.963175 6.48322,-3.965085 10.79199,-0.897535 7.55713,5.380161 9.96948,2.476953 11.32296,5.77821 2.61618,6.381081 -2.84761,13.862971 0.64202,28.365758 1.13357,4.711062 13.18921,7.025087 12.19844,-0.233463 -0.56284,-4.123455 1.97169,-9.140149 0.1751,-12.548638 -3.14553,-5.96771 1.45456,-5.31283 0.1751,-9.922179 -3.24539,-11.691735 3.90989,-5.262963 11.32296,-10.914397 2.62686,-2.002613 3.20601,1.476341 8.78198,0.669636"
 id="path2852"
 style="fill:none;stroke:#008c31;stroke-width:0.80000001;stroke-linecap:butt;stroke-linejoin:miter;stroke-miterlimit:4;stroke-opacity:1;stroke-dasharray:none" />
<path
 d="m 167.86725,65.155354 c 2.93939,0.488347 7.27017,-1.680305 6.82147,1.206512"
 id="path2854"
 style="fill:none;stroke:#008c31;stroke-width:1px;stroke-linecap:butt;stroke-linejoin:miter;stroke-opacity:1" />
<path
 d="m 120.29219,382.557 c -2.13928,6.74092 -9.86222,-1.99247 -6.01203,-3.82159 2.61395,-1.24182 2.70489,-4.35328 1.10894,-5.83657 -2.70029,-2.5097 0.40758,-5.97181 1.34242,-8.75487 1.2968,-3.86064 1.71502,-9.66444 0.40856,-11.14786 -6.24651,-7.09258 5.22169,-10.73708 7.52918,-6.36187 6.81856,14.40243 19.27591,17.51685 30.70039,7.47082 5.79467,-4.33202 8.82283,3.23751 6.1284,5.89494 -5.39388,5.3198 -12.69111,9.3719 -14.88326,16.98444 -1.35381,4.70131 3.92992,9.51339 -0.46693,15.58365 -2.82796,3.90427 -9.75834,-3.10115 -8.17121,-7.12062 1.91876,-4.85932 0.53196,-8.12924 -0.29182,-10.7393 -1.71707,-5.44034 -5.47945,-8.28654 -8.6965,-6.18677 -4.169,2.72111 -0.11027,13.79913 -5.01946,12.9572 -1.42231,-0.24393 -2.54039,2.34417 -3.67668,1.0784 z"
 id="path2856"
 style="fill:#f2f2f2;fill-opacity:1;stroke:#008c31;stroke-width:1px;stroke-linecap:butt;stroke-linejoin:miter;stroke-opacity:1" />
<path
 d="m 126.4786,379.37743 c 3.56735,0.92626 4.83988,-1.55635 6.15758,-3.44358 -1.94281,0.36045 -3.90849,0.32602 -5.83657,-0.26264 l -0.32101,3.70622 z"
 id="path2880"
 style="fill:none;stroke:#008c31;stroke-width:1px;stroke-linecap:butt;stroke-linejoin:miter;stroke-opacity:1" />
<path
 d="m 132.86965,381.94552 c 2.4402,-0.61768 4.50423,-1.14586 5.70525,-3.34144 0.18774,1.98128 0.46411,2.31672 -0.073,5.22374 -2.51558,-0.19384 -3.93822,-1.09101 -5.6323,-1.8823 z"
 id="path2882"
 style="fill:none;stroke:#008c31;stroke-width:1px;stroke-linecap:butt;stroke-linejoin:miter;stroke-opacity:1" />
<path
 d="m 118.77432,373.33658 0.96304,-1.57588 c 1.31367,0.64496 2.847,-2.3548 0.89008,-2.46595 1.15924,-1.65583 1.48929,-3.13976 1.61964,-5.09242 1.62313,1.43853 3.53153,10.11304 -3.47276,9.13425 z"
 id="path2884"
 style="fill:#008c31;fill-opacity:1;stroke:none" />
<path
 d="m 271.86558,384.47956 c 3.74884,3.89323 7.50979,-2.85916 3.6596,-4.68828 -2.61395,-1.24182 -4.1081,-3.44532 -2.51215,-4.92861 2.70029,-2.5097 -0.40758,-5.97181 -1.34242,-8.75487 -1.2968,-3.86064 -1.71502,-9.66444 -0.40856,-11.14786 6.24651,-7.09258 -5.85518,-8.19586 -7.06226,-6.01167 -2.4379,4.41134 -3.64065,7.14304 -6.53696,9.98054 -13.59378,5.19176 -16.30253,3.59139 -23.87159,-4.4358 -4.91554,-5.21307 -9.58159,4.81339 -6.88716,7.47082 5.39388,5.3198 12.69111,9.3719 14.88326,16.98444 1.35381,4.70131 -3.92992,9.51339 0.46693,15.58365 2.82796,3.90427 9.75834,-3.10115 8.17121,-7.12062 -1.91876,-4.85932 -0.53196,-8.12924 0.29182,-10.7393 1.71707,-5.44034 5.47945,-8.28654 8.6965,-6.18677 4.169,2.72111 0.19281,16.68809 8.48621,15.10328 1.41743,-0.27086 2.82928,1.76638 3.96557,-1.10895 z"
 id="path2856-7"
 style="fill:#f2f2f2;fill-opacity:1;stroke:#008c31;stroke-width:1px;stroke-linecap:butt;stroke-linejoin:miter;stroke-opacity:1" />
<path
 d="m 261.92353,381.34126 c -3.56735,0.92626 -4.83988,-1.55635 -6.15758,-3.44358 1.94281,0.36045 3.90849,0.32602 5.83657,-0.26264 l 0.32101,3.70622 z"
 id="path2880-4"
 style="fill:none;stroke:#008c31;stroke-width:1px;stroke-linecap:butt;stroke-linejoin:miter;stroke-opacity:1" />
<path
 d="m 255.53248,383.90935 c -2.4402,-0.61768 -4.50423,-1.14586 -5.70525,-3.34144 -0.18774,1.98128 -0.46411,2.31672 0.073,5.22374 2.51558,-0.19384 3.93822,-1.09101 5.6323,-1.8823 z"
 id="path2882-0"
 style="fill:none;stroke:#008c31;stroke-width:1px;stroke-linecap:butt;stroke-linejoin:miter;stroke-opacity:1" />
<path
 d="m 269.62781,375.30041 -0.96304,-1.57588 c -1.31367,0.64496 -2.847,-2.3548 -0.89008,-2.46595 -1.15924,-1.65583 -1.48929,-3.13976 -1.61964,-5.09242 -1.62313,1.43853 -3.53153,10.11304 3.47276,9.13425 z"
 id="path2884-9"
 style="fill:#008c31;fill-opacity:1;stroke:none" />
<path
 d="m 125.54585,129.03291 c 6.75914,1.57743 8.54358,-6.55425 15.51783,-5.86045 2.6764,0.26625 7.07254,8.05938 8.91449,15.10512 4.68264,-14.66526 1.90132,-33.06049 -8.03608,-43.229802 -2.80764,3.090912 -17.57824,11.988832 -12.51602,16.518372 -2.8081,1.18125 -5.92046,8.35015 -0.70039,8.22957 -1.04974,3.16044 -6.46493,8.47052 -3.17983,9.23719 z"
 id="path3693"
 style="fill:#f2f2f2;fill-opacity:1;stroke:#008c31;stroke-width:1px;stroke-linecap:butt;stroke-linejoin:miter;stroke-opacity:1" />
<path
 d="m 129.36771,111.58074 c 8.53925,1.18271 12.76444,-5.42529 12.40272,-7.57296"
 id="path3695"
 style="fill:none;stroke:#008c31;stroke-width:1px;stroke-linecap:round;stroke-linejoin:miter;stroke-opacity:1" />
<path
 d="m 128.44844,119.81031 c 3.28008,0.0829 5.10378,-1.25372 5.32588,-3.60409"
 id="path3697"
 style="fill:none;stroke:#008c31;stroke-width:1px;stroke-linecap:round;stroke-linejoin:miter;stroke-opacity:1" />
<path
 d="m 130.50584,128.40467 c 1.94279,0.86764 3.23511,2.4008 4.43579,4.55253 0.59592,-2.56958 0.95287,-5.56368 -0.58365,-7.29572 l -3.85214,2.74319 z"
 id="path3699"
 style="fill:none;stroke:#008c31;stroke-width:1px;stroke-linecap:butt;stroke-linejoin:miter;stroke-opacity:1" />
<path
 d="m 135.26265,124.99027 c 1.59652,1.30838 3.0862,2.69057 4.20233,4.37743 0.33159,-2.1328 0.4989,-4.16703 0.0584,-5.83657 -1.42023,-0.71089 -3.74513,0.79704 -4.26069,1.45914 l -2e-5,0 z"
 id="path3702"
 style="fill:none;stroke:#008c31;stroke-width:1px;stroke-linecap:butt;stroke-linejoin:miter;stroke-opacity:1" />
<path
 d="m 148.89105,144.33852 c -0.31021,1.19479 5.23554,2.02636 5.71985,0.75876 6.62125,-17.32981 5.77208,-44.35161 -0.96147,-52.698419 -3.06653,-3.801222 -13.23458,0.958339 -11.41723,2.826444 8.17035,8.398515 13.12439,24.210895 6.65885,49.113215 z"
 id="path3704"
 style="fill:#ececec;stroke:#008c31;stroke-width:1px;stroke-linecap:butt;stroke-linejoin:miter;stroke-opacity:1" />
<path
 d="m 150.99222,130.50584 6.82879,0.23346"
 id="path3706"
 style="fill:none;stroke:#008c31;stroke-width:1px;stroke-linecap:butt;stroke-linejoin:miter;stroke-opacity:1" />
<path
 d="m 151.73509,120.78293 7.3641,0.40856"
 id="path3708"
 style="fill:none;stroke:#008c31;stroke-width:1px;stroke-linecap:butt;stroke-linejoin:miter;stroke-opacity:1" />
<path
 d="m 149.99241,110.93742 c 0.70219,-0.47391 4.56501,-3.36677 8.8362,-0.21707"
 id="path3710"
 style="fill:none;stroke:#008c31;stroke-width:1px;stroke-linecap:butt;stroke-linejoin:miter;stroke-opacity:1" />
<path
 d="m 147.03407,102.24507 c 1.51748,-0.45082 8.51096,-4.714028 10.71684,0.3595"
 id="path3712"
 style="fill:none;stroke:#008c31;stroke-width:1px;stroke-linecap:butt;stroke-linejoin:miter;stroke-opacity:1" />
<path
 d="m 165.64446,89.957513 c 4.6278,3.7553 11.20873,24.188947 6.08885,24.702367 l -7.93653,0.79588 c -2.33462,0.23412 -3.00208,-2.925 -4.85438,-2.65184"
 id="path3714"
 style="fill:none;stroke:#008c31;stroke-width:1px;stroke-linecap:butt;stroke-linejoin:miter;stroke-opacity:1" />
<path
 d="m 173.39487,108.20304 42.10911,-0.0755"
 id="path3716"
 style="fill:none;stroke:#008c31;stroke-width:1px;stroke-linecap:butt;stroke-linejoin:miter;stroke-opacity:1" />
<path
 d="m 220.21573,90.376088 c -5.27776,6.455829 -6.32665,25.130442 -3.65874,25.217652 2.92838,0.0957 6.98901,1.05608 8.8103,-1.12018 1.43642,-1.71638 1.55658,-2.21536 3.87803,-2.41009"
 id="path3718"
 style="fill:none;stroke:#008c31;stroke-width:1px;stroke-linecap:butt;stroke-linejoin:miter;stroke-opacity:1" />
<path
 d="m 261.56837,130.47398 c -6.75914,1.57743 -8.54358,-6.55425 -15.51783,-5.86045 -2.6764,0.26625 -7.51615,7.16144 -9.3581,14.20718 -3.13247,-15.60856 2.21748,-34.025 11.24863,-44.140341 2.80764,3.090912 13.05833,10.937391 7.99611,15.466931 2.8081,1.18125 7.67143,11.21007 2.45136,11.08949 1.04974,3.16044 6.46493,8.47052 3.17983,9.23719 z"
 id="path3693-5"
 style="fill:#f2f2f2;fill-opacity:1;stroke:#008c31;stroke-width:1px;stroke-linecap:round;stroke-linejoin:round;stroke-opacity:1" />
<path
 d="m 256.08309,110.17648 c -7.64219,-0.1389 -14.54992,-2.94745 -10.9144,-6.94553"
 id="path3695-2"
 style="fill:none;stroke:#008c31;stroke-width:1px;stroke-linecap:butt;stroke-linejoin:miter;stroke-opacity:1" />
<path
 d="m 258.66578,121.25138 c -3.28008,0.0829 -5.10378,-1.25372 -5.32588,-3.60409"
 id="path3697-7"
 style="fill:none;stroke:#008c31;stroke-width:1px;stroke-linecap:butt;stroke-linejoin:miter;stroke-opacity:1" />
<path
 d="m 256.60838,129.84574 c -1.94279,0.86764 -3.23511,2.4008 -4.43579,4.55253 -0.59592,-2.56958 -0.95287,-5.56368 0.58365,-7.29572 l 3.85214,2.74319 z"
 id="path3699-6"
 style="fill:none;stroke:#008c31;stroke-width:1px;stroke-linecap:butt;stroke-linejoin:miter;stroke-opacity:1" />
<path
 d="m 251.85157,126.43134 c -1.59652,1.30838 -3.0862,2.69057 -4.20233,4.37743 -0.33159,-2.1328 -0.4989,-4.16703 -0.0584,-5.83657 1.42023,-0.71089 3.74513,0.79704 4.26069,1.45914 l 2e-5,0 z"
 id="path3702-1"
 style="fill:none;stroke:#008c31;stroke-width:1px;stroke-linecap:butt;stroke-linejoin:miter;stroke-opacity:1" />
<path
 d="m 238.22317,145.77959 c 0.31021,1.19479 -5.23554,2.02636 -5.71985,0.75876 -6.62125,-17.32981 -3.99035,-46.692108 2.7432,-55.038915 3.06653,-3.801222 14.42435,1.400377 12.607,3.268482 -8.17035,8.398513 -16.09589,26.109353 -9.63035,51.011673 z"
 id="path3704-4"
 style="fill:#ececec;stroke:#008c31;stroke-width:1px;stroke-linecap:butt;stroke-linejoin:miter;stroke-opacity:1" />
<path
 d="m 236.122,131.94691 c -2.26348,0.88166 -5.06165,1.10401 -6.82879,0.23346"
 id="path3706-2"
 style="fill:none;stroke:#008c31;stroke-width:0.80000001;stroke-linecap:butt;stroke-linejoin:miter;stroke-miterlimit:4;stroke-opacity:1;stroke-dasharray:none" />
<path
 d="m 236.122,122.14146 c -2.2329,-0.85876 -5.31599,-0.90681 -7.52918,0.40856"
 id="path3708-3"
 style="fill:none;stroke:#008c31;stroke-width:0.80000001;stroke-linecap:butt;stroke-linejoin:miter;stroke-miterlimit:4;stroke-opacity:1;stroke-dasharray:none" />
<path
 d="m 238.95189,111.83489 c -1.94028,-1.42772 -6.51105,-3.54468 -9.68372,-1.34639"
 id="path3710-2"
 style="fill:none;stroke:#008c31;stroke-width:0.80000001;stroke-linecap:butt;stroke-linejoin:miter;stroke-miterlimit:4;stroke-opacity:1;stroke-dasharray:none" />
<path
 d="m 242.30877,102.53056 c 0.60965,-3.050643 -9.37972,-4.985832 -11.5856,0.0877"
 id="path3712-2"
 style="fill:none;stroke:#008c31;stroke-width:0.80000001;stroke-linecap:butt;stroke-linejoin:miter;stroke-miterlimit:4;stroke-opacity:1;stroke-dasharray:none" />
<path
 d="m 173.54381,46.367453 c 0.98984,0.859755 1.47656,2.765112 0.10318,4.746145"
 id="path3855"
 style="fill:none;stroke:#008c31;stroke-width:0.60000002;stroke-linecap:butt;stroke-linejoin:miter;stroke-miterlimit:4;stroke-opacity:1;stroke-dasharray:none" />
<path
 d="m 134.85409,111.42023 c 0.32063,1.50915 2.71759,1.72868 3.63326,0.83171 1.45654,-1.42676 1.34869,-2.50199 1.06518,-3.51653 -0.31945,2.29217 -2.63949,4.65958 -4.69844,2.68482 z"
 id="path3857"
 style="fill:#008c31;fill-opacity:1;stroke:none" />
<path
 d="m 252.11406,110.05673 c -0.58889,2.10758 -3.66682,1.68741 -4.58249,0.79044 -1.45654,-1.42676 -1.03916,-1.9242 -0.75565,-2.93874 0.31945,2.29217 3.27919,4.12306 5.33814,2.1483 z"
 id="path3857-1"
 style="fill:#008c31;fill-opacity:1;stroke:none" />
<path
 d="m 125.46745,178.55284 c 3.52735,-3.176 6.77791,-6.72671 9.24052,-11.05552"
 id="path3881"
 style="fill:none;stroke:#008c31;stroke-width:0.80000001;stroke-linecap:butt;stroke-linejoin:miter;stroke-miterlimit:4;stroke-opacity:1;stroke-dasharray:none" />
<path
 d="m 119.37939,146.74933 c -1.10056,1.78532 -2.14274,3.47708 -3.2433,5.89049"
 id="path3883"
 style="fill:none;stroke:#008c31;stroke-width:0.80000001;stroke-linecap:round;stroke-linejoin:miter;stroke-miterlimit:4;stroke-opacity:1;stroke-dasharray:none" />
<path
 d="m 180.27096,170.30374 c -0.93452,1.36115 6.81663,5.00857 7.75891,1.89846 1.01081,-3.33631 7.88994,-13.10326 15.43529,-0.0413 1.01024,1.74885 7.59209,-0.70797 6.31444,-2.18735 l -3.92073,-4.53979 c 7.40123,-1.02569 12.80662,-1.71467 22.70775,3.75271 2.85496,1.5765 3.64,-11.49288 0.62078,-11.53873 l -25.39207,-0.3856 c -2.58083,-6.38089 -10.69869,-11.85849 -17.41629,-0.0825 l -25.34029,3.87945 c -1.69432,0.25939 -1.4459,10.24902 0.37973,9.52648 5.85349,-2.31666 15.22414,-5.5505 22.64939,-5.81214 l -3.79691,5.53031 z"
 id="path3885"
 style="fill:none;stroke:#008c31;stroke-width:1px;stroke-linecap:butt;stroke-linejoin:miter;stroke-opacity:1" />
<path
 d="m 174.6994,89.371652 c 2.25614,3.466748 2.65364,11.666458 6.10808,11.638368 l 25.38156,-0.20635 c 2.95888,-0.0241 4.37471,-8.116596 6.56206,-12.174893"
 id="path3887"
 style="fill:none;stroke:#008c31;stroke-width:1px;stroke-linecap:butt;stroke-linejoin:miter;stroke-opacity:1" />
<path
 d="m 194.50939,41.002246 c 0.37648,5.667657 -1.62833,6.716696 -1.23812,12.216164 0.31826,4.485377 2.18845,8.69755 1.32066,13.53683"
 id="path3889"
 style="fill:none;stroke:#008c31;stroke-width:1px;stroke-linecap:round;stroke-linejoin:miter;stroke-opacity:1" />
<rect
 width="1.2256809"
 height="1.4883268"
 x="313.73056"
 y="112.8502"
 id="rect4067"
 style="opacity:0.98999999;fill:#008c31;fill-opacity:1;fill-rule:nonzero;stroke:none" />
<path
 d="m 78.326849,216.68287 c -2.245489,0.39778 -4.623448,-0.13116 -5.21644,-1.6926"
 id="path4069"
 style="fill:none;stroke:#008c31;stroke-width:0.80000001;stroke-linecap:butt;stroke-linejoin:miter;stroke-miterlimit:4;stroke-opacity:1;stroke-dasharray:none" />
</svg>
