<?xml version="1.0" encoding="UTF-8" standalone="no"?>
<!-- Created with Inkscape (http://www.inkscape.org/) -->

<svg
 xmlns:dc="http://purl.org/dc/elements/1.1/"
 xmlns:cc="http://creativecommons.org/ns#"
 xmlns:rdf="http://www.w3.org/1999/02/22-rdf-syntax-ns#"
 xmlns:svg="http://www.w3.org/2000/svg"
 xmlns="http://www.w3.org/2000/svg"
 xmlns:xlink="http://www.w3.org/1999/xlink"
 version="1.1"
 width="390"
 height="480"
 id="svg4228">
<metadata
 id="metadata11">
<rdf:RDF>
<cc:Work
 rdf:about="">
<dc:format>image/svg+xml</dc:format>
<dc:type
 rdf:resource="http://purl.org/dc/dcmitype/StillImage" />
<dc:title></dc:title>
</cc:Work>
</rdf:RDF>
</metadata>
<defs
 id="defs4232" />
<path
 d="M 0,0 C 130,0 260,0 390,0 389.98981,114.99797 370.78556,350.14732 194.88837,479.99815 20.79131,350.08886 0.081386,115.02225 0,0 z"
 id="path4240-0"
 style="fill:#d61a1a;fill-opacity:1;stroke:none" />
<use
 transform="translate(0,268)"
 id="use3763"
 x="0"
 y="0"
 width="390"
 height="480"
 xlink:href="#path4221-1-7" />
<use
 transform="translate(0,-90)"
 id="use3765"
 x="0"
 y="0"
 width="390"
 height="480"
 xlink:href="#use3763" />
<use
 transform="translate(0,-90)"
 id="use3767"
 x="0"
 y="0"
 width="390"
 height="480"
 xlink:href="#use3765" />
<path
 d="m 128.00847,108.01695 135.88984,-0.0238 31.65254,-63.9804 c -20.52376,-0.38266 -33.98826,7.03267 -43.83413,17.52882 l 17.06023,0.0181 c -3.29403,45.17393 -59.26474,48.77694 -62.71763,-0.32232 l 19.76695,-0.19068 C 216.38456,47.47138 208.34468,40.41617 195.95339,35.94074 182.89884,40.184 173.55232,49.30947 166.84322,61.23735 l 18.81356,-0.19068 c -0.83766,45.77861 -59.25262,46.69673 -63.49576,-0.0636 l 14.23729,-0.12712 c -8.60492,-11.13446 -28.0515,-17.21762 -39.422674,-16.875 l 31.032834,64.03602 0,-2e-5 z"
 id="path4221-1-7"
 style="fill:#faf700;fill-opacity:1;stroke:none" />
</svg>
