<?xml version="1.0" encoding="UTF-8" standalone="no"?>
<!-- Created with Inkscape (http://www.inkscape.org/) -->

<svg
   xmlns:dc="http://purl.org/dc/elements/1.1/"
   xmlns:cc="http://creativecommons.org/ns#"
   xmlns:rdf="http://www.w3.org/1999/02/22-rdf-syntax-ns#"
   xmlns:svg="http://www.w3.org/2000/svg"
   xmlns="http://www.w3.org/2000/svg"
   version="1.1"
   width="390"
   height="480"
   id="svg4228">
  <metadata
     id="metadata16">
    <rdf:RDF>
      <cc:Work
         rdf:about="">
        <dc:format>image/svg+xml</dc:format>
        <dc:type
           rdf:resource="http://purl.org/dc/dcmitype/StillImage" />
        <dc:title></dc:title>
      </cc:Work>
    </rdf:RDF>
  </metadata>
  <defs
     id="defs4232" />
  <path
     d="m 0.51202379,0.50512952 c 129.66265621,0 259.32532621,0 388.98797621,0 C 389.48983,115.23328 370.33544,349.8309 194.89467,479.37706 21.249382,349.77255 0.5931986,115.2575 0.51202379,0.50512952 z"
     id="path4240-0"
     style="fill:#d9d9d9;fill-opacity:1;stroke:#999999;stroke-width:0.99999905;stroke-opacity:1" />
  <path
     d="M 106.97034,69.025423 C 57.873492,8.54138 7.9753761,88.482978 65.783898,131.63136 c -7.773856,9.13641 -16.779472,16.79472 -20.571011,30.70991 3.597026,-2.28819 7.001013,-5.05897 11.235807,-5.75274 -4.751729,6.81423 -8.635748,14.03679 -10.516715,22.20196 3.499953,-2.37906 6.231258,-5.02325 10.786374,-6.29205 -5.07017,8.81779 -8.710861,18.30267 -8.718986,29.48275 3.093487,-3.71404 5.278097,-8.25433 10.067283,-10.42683 -3.313083,8.81135 -5.524733,18.07329 -5.123528,28.40412 3.547048,-2.98182 6.843634,-6.27672 11.685239,-7.64034 -3.666436,10.42381 -5.092469,21.45865 -5.033641,32.89844 2.751205,-3.28064 5.254117,-6.74185 9.797624,-8.71899 0.455103,9.12372 0.778999,18.31116 7.011143,24.62889 0.45711,-5.44799 1.090344,-10.77857 4.044891,-14.5616 0.72068,7.13086 3.381311,16.92163 7.377077,21.37755 1.109723,-3.25751 3.170324,-6.73002 5.027253,-7.8047 1.790297,7.27095 5.116801,13.8698 9.617852,19.95479 0.2342,-3.56703 0.97916,-7.21728 3.14603,-9.70773 1.22804,6.92764 2.63313,14.87866 10.69648,21.12331 -0.19463,-4.00794 -0.90538,-8.33349 0.98875,-11.05603 1.88084,3.60992 4.69189,7.42933 8.6291,9.9774 -0.2478,-2.70157 0.67601,-6.69885 2.42694,-8.71899 7.37957,22.6953 12.2949,18.00339 14.96841,30.11155 5.61073,25.41068 19.04115,18.27303 27.26695,26.82204 l 50.97458,-0.76271 c 8.29673,-8.16426 21.48519,-0.72601 27.33051,-26.94916 2.34391,-10.51519 6.66318,-6.76882 12.45762,-31.3983 1.33666,2.31819 2.05855,5.16334 2.82036,7.97426 3.38951,-2.22068 5.33511,-5.61453 7.41564,-8.89876 1.0235,2.99729 1.43796,6.2382 1.61795,9.5729 5.7211,-5.79486 7.68239,-13.03581 10.24706,-20.04468 1.31252,2.72141 2.24925,5.75599 3.05614,8.89876 4.8412,-4.50329 8.41635,-10.70488 11.01109,-16.89865 1.22572,3.68827 1.61895,7.61438 1.6629,11.6403 6.03448,-6.919 6.59272,-15.00316 8.98864,-22.69633 2.51779,2.53132 4.04866,5.5561 5.39319,8.67404 3.11253,-7.87285 2.87774,-16.97306 3.6404,-25.70753 4.28101,3.22629 8.17172,7.03805 11.77513,11.28075 2.42491,-12.71002 -1.09293,-23.76386 -3.59546,-35.10066 4.2458,2.6693 7.78077,6.76026 11.37064,10.74143 1.30516,-13.07025 -3.77564,-22.14927 -6.83138,-32.49395 3.42958,2.06917 6.31083,5.03561 8.80888,8.6291 -0.15123,-9.0514 -3.269,-16.95447 -5.93251,-25.03338 3.82564,1.32529 5.98899,4.52066 8.53921,7.2808 0.77077,-9.44711 -7.337,-16.57019 -13.07847,-24.49405 5.71631,1.03731 10.21055,3.70406 14.96609,6.02239 -6.50246,-13.22728 -16.44012,-21.30177 -24.89855,-31.59509 70.59274,-65.107968 -11.15659,-105.861685 -38.6083,-62.772839 0,0 -28.36719,-8.617207 -43.02966,-9.851695 -14.80233,-1.246264 -29.63773,2.37816 -44.49153,2.542373 -14.5419,0.160764 -24.15688,-3.558631 -43.60169,-1.525424 -19.99518,2.090755 -41.63136,13.347458 -41.63136,13.347458 z"
     id="path2827"
     style="fill:#000000;stroke:none" />
  <path
     d="m 152.67214,153.17285 c -17.03222,-4.62353 -27.63968,-15.78217 -35.28043,-11.6403 8.32777,0.55929 8.52914,4.45681 13.97735,6.70778 -6.74011,17.39699 13.19896,21.79667 19.2357,9.20212 4.73666,-0.17932 4.27857,-3.66935 2.06738,-4.2696 z"
     id="path2829"
     style="fill:#d9d9d9;fill-opacity:1;stroke:none" />
  <path
     d="m 134.99404,149.78669 c 3.65975,0.0389 11.59584,3.65065 12.31444,6.11228 -1.61875,8.04964 -18.08441,6.36749 -12.31444,-6.11228 z"
     id="path2831"
     style="fill:#000000;stroke:none" />
  <path
     d="m 182.4695,227.08198 c 0.3329,-1.71864 1.64918,-7.4247 -1.6629,-7.16844 -5.68456,0.43983 -18.67995,15.9887 -18.65143,-0.71909 0.0453,-26.5219 61.73434,-25.84349 62.20142,-0.58427 0.33399,18.06161 -12.33687,1.04588 -18.51661,1.25842 -2.81783,0.0969 -2.78931,4.56453 -2.06738,6.74148"
     id="path2858"
     style="fill:none;stroke:#d9d9d9;stroke-width:3.5;stroke-linecap:round;stroke-linejoin:round;stroke-miterlimit:4;stroke-opacity:1;stroke-dasharray:none" />
  <path
     d="m 152.20332,244.33953 c 34.55225,20.59206 54.63406,18.07963 85.81866,-0.57655 13.52384,-8.09064 4.97922,43.42675 -0.90151,52.50911 -0.43965,-3.98491 -0.77455,-8.39062 -2.78648,-11.77513 -2.54136,5.19295 -4.88801,10.66229 -9.16842,13.48297 -22.7688,15.00403 -45.082,15.46444 -58.24642,3.23591 -5.04512,-4.68644 -7.20644,-10.23705 -9.34819,-15.10092 -1.61822,4.31441 -1.22818,9.07867 -0.80898,14.47171 -14.4484,-10.91041 -15.57874,-62.81473 -4.55866,-56.2471 z"
     id="path3632"
     style="fill:#d9d9d9;fill-opacity:1;stroke:none" />
  <path
     d="m 154.15527,246.96936 c 25.18279,18.43241 56.7937,17.59179 81.43713,-1.07863 4.86134,11.75383 1.3034,30.25021 -8.67404,37.39276 0.47442,-7.22045 2.25529,-15.69412 -3.19097,-22.11207 -1.90255,7.07706 -4.44604,8.62339 -8.08978,10.69649 -0.0623,-2.91287 -0.77325,-6.33548 -4.10169,-7.41485 0.19868,2.23879 -1.90471,6.22262 -3.76338,7.54968 -1.19966,-1.60033 -2.5701,-3.45435 -4.18743,-4.87568 -0.50394,2.05818 -2.1759,3.94354 -3.98453,5.40542 -1.08235,-2.08164 -2.50279,-3.54933 -4.14248,-5.11395 -1.5616,1.48884 -2.91752,3.08051 -3.99995,4.80893 -1.87227,-1.8264 -3.30771,-3.73222 -3.86512,-5.79768 -2.01733,1.43704 -3.34123,3.48082 -4.40443,5.75273 -2.50241,-2.63401 -3.00439,-5.65004 -2.71014,-8.20148 -3.6992,1.21831 -5.32481,4.79309 -6.19901,8.10492 -3.33582,-0.94147 -7.04325,-5.74443 -6.64121,-9.4314 -3.683,2.87625 -4.69078,12.08 -5.12353,19.2357 -3.45187,-4.19903 -11.71217,-18.6879 -8.35944,-34.92089 z"
     id="path3634"
     style="fill:#000000;stroke:none" />
  <path
     d="m 195.95339,294.08898 c 12.61797,-11.95216 27.10484,-0.46907 29.30085,6.99153 10.61224,36.05338 -11.26934,53.06502 -30.50848,53.32627 -20.74893,0.28175 -34.94375,-19.71077 -27.20339,-52.37288 2.32665,-9.8178 16.85986,-17.4864 28.41102,-7.94492 z"
     id="path3658"
     style="fill:#d61a1a;fill-opacity:1;stroke:none" />
  <path
     d="m 232.17147,152.80258 c 17.03222,-4.62353 27.63968,-15.78217 35.28043,-11.6403 -8.32777,0.55929 -8.52914,4.45681 -13.97735,6.70778 6.74011,17.39699 -13.19896,21.79667 -19.2357,9.20212 -4.73666,-0.17932 -4.27857,-3.66935 -2.06738,-4.2696 z"
     id="path2829-9"
     style="fill:#d9d9d9;fill-opacity:1;stroke:none" />
  <path
     d="m 249.84957,149.41642 c -3.65975,0.0389 -11.59584,3.65065 -12.31444,6.11228 1.61875,8.04964 18.08441,6.36749 12.31444,-6.11228 z"
     id="path2831-4"
     style="fill:#000000;stroke:none" />
</svg>
