<?xml version="1.0" encoding="UTF-8" standalone="no"?>
<!-- Created with Inkscape (http://www.inkscape.org/) -->

<svg
   xmlns:svg="http://www.w3.org/2000/svg"
   xmlns="http://www.w3.org/2000/svg"
   xmlns:xlink="http://www.w3.org/1999/xlink"
   version="1.1"
   width="420"
   height="480"
   id="svg4228">
  <defs
     id="defs4232" />
  <path
     d="M 0,0 C 139.98032,0 279.96064,0 419.94096,0 419.92998,114.99797 399.25139,350.14732 209.85028,479.99815 22.387494,350.08886 0.08763414,115.02225 0,0 z"
     id="path4240-0"
     style="color:#000000;fill:#d61a1a;fill-opacity:1;fill-rule:nonzero;stroke:none;marker:none;visibility:visible;display:inline;overflow:visible;enable-background:accumulate" />
  <path
     d="m 147.0026,116.10291 c 17.72169,-6.43516 25.02971,-13.97106 60.97716,-14.50207 36.1685,-0.53416 42.5105,7.53714 61.20533,14.50207 l 32.54372,-14.73036 c 3.34024,-1.538189 6.34662,-7.673393 13.36022,-12.446691 -0.52201,-5.090586 0.48849,-6.05196 15.98646,-18.612823 l 8.79262,-34.370998 7.07982,0.228412 -5.8236,30.145931 21.12501,-31.972969 7.87894,-0.114761 -22.72375,37.454088 27.51972,-22.723661 0.22841,9.135117 -25.41586,24.130902 c -0.44938,-0.02322 -6.08427,-0.0043 -6.08427,-0.0043 l 5.4e-4,4.995292 6.59941,-0.01062 0.38953,5.585307 -6.10195,0.05884 0.0188,4.97326 6.47477,-0.0033 0.23341,6.379724 -6.52767,-0.12945 -0.11673,4.9842 6.4424,0.12968 -0.36171,7.10648 -6.41957,-0.64482 -0.47479,4.91233 6.33139,0.69143 -0.99531,6.54193 -6.40684,-1.36332 -1.03684,4.86226 6.47644,1.41693 -1.3432,5.53951 -6.37718,-1.92987 -1.38552,4.75273 6.35172,1.95717 -1.63049,5.77323 -6.67941,-2.73328 c 0.006,0.003 -1.93315,4.58661 -1.93315,4.58661 l 6.91326,2.8256 -2.50596,6.2002 -7.12991,-3.34551 -2.08881,4.55763 7.16783,3.35996 -3.11785,6.28522 -7.08857,-3.94649 -2.44432,4.35135 7.20044,4.0309 c 0,0 -2.00148,3.33153 -2.9249,4.84694 l -7.97783,-4.30999 -2.71744,3.78302 11.62386,6.19987 2.10039,20.14347 c 11.49796,-0.2471 29.93629,2.77636 37.14114,20.75268 l -6.39433,12.67425 c -12.7296,-15.3419 -25.62536,-15.86309 -33.9438,-15.80028 l -1.788,3.71164 c 16.06928,-0.15448 25.61658,4.96154 33.77521,15.94249 l -5.93493,11.35972 c -13.52558,-13.77207 -25.79757,-14.67171 -33.55907,-13.70904 l -1.01167,3.40406 c 10.202,-0.54953 21.95136,1.38756 33.09008,14.73525 l -5.73647,13.35648 c -12.81015,-14.41416 -25.47218,-14.82832 -33.93368,-14.72051 l -1.12998,4.0474 c 11.14076,-0.25547 20.68198,0.34934 33.05328,14.44451 l -6.13758,13.79198 c -12.11502,-13.69854 -26.4729,-15.31583 -33.12193,-14.12571 l -1.10106,3.90776 c 14.11476,-1.17646 25.87413,6.16777 32.03337,13.53693 l -8.92201,19.276 c -7.13182,-11.97433 -22.56686,-16.23124 -32.03236,-15.58529 l -5.61165,13.32269 c 4.98589,0.86549 17.03115,4.31274 20.71076,20.34753 l -40.21003,40.49325 c -8.83566,-19.37593 -17.68147,-24.65555 -33.83144,-31.10971 6.88764,-6.42128 9.60757,-12.03836 9.44669,-21.85843 3.60249,-0.77667 13.11424,-4.429 15.62404,-13.72643 l -5.7732,-1.04969 c -1.05729,14.16417 -44.92023,17.93552 -45.04943,-2.24335 l -0.0669,-10.35271 15.69461,-0.0639 -0.005,-21.52837 c -1.28118,3.76767 -3.44687,9.80028 -7.75139,9.80028 l -22.40627,0 c -4.95772,0 -5.40708,-5.63776 -7.03504,-9.7902 l 0.007,21.51202 15.65923,0.008 -0.0544,10.82751 c -0.10414,19.96375 -37.88547,19.75766 -45.02578,1.85928 l -5.83623,1.0587 c 1.28576,4.02944 5.81655,12.3124 15.43756,14.3212 -0.20622,8.06832 2.41414,15.03477 9.05316,21.79917 -6.95756,3.10176 -25.71057,8.84149 -33.82882,31.32135 l -39.55631,-41.69496 c 1.74489,-9.34057 7.9901,-17.3683 20.38381,-19.99461 l -4.75551,-12.62352 c -13.69636,0.07 -21.38997,3.13008 -32.054719,15.61601 -0.03712,0.0807 -7.3448,-18.29656 -7.3448,-18.29656 5.92433,-8.23156 17.608819,-16.23878 32.045949,-14.4576 l -1.29276,-3.70378 c -11.9727,-0.56508 -22.048162,2.13389 -33.015738,14.1882 l -6.94884,-14.77016 c 9.93868,-12.21689 20.963634,-14.88205 32.088298,-14.75747 l -1.53565,-3.50108 c -14.131649,-1.26126 -26.28003,6.46676 -32.484406,14.31616 L 65.111772,259.385 c 7.71973,-10.04341 18.017514,-16.183 33.600452,-15.49272 l -1.290537,-3.86494 c -20.020334,-0.73641 -29.971832,10.0206 -34.408552,15.62889 l -6.282352,-13.16716 c 4.982904,-9.92558 18.352214,-18.88778 34.98854,-17.66509 l -1.120366,-3.61873 c -8.455485,-1.99292 -25.689198,2.30229 -36.452276,17.56075 l -5.632634,-14.91397 c 1.75479,-7.62218 16.209894,-23.58435 35.032591,-20.63432 l 5.228039,-17.73218 10.249913,-5.39787 -2.330406,-3.95348 -8.279143,4.18841 c -0.95984,-1.59665 -3.094762,-4.94533 -3.094762,-4.94533 0,0 7.759139,-4.3413 7.853604,-4.3945 l -2.364984,-4.39858 c 0,0 -7.818254,4.38417 -7.908831,4.38364 l -4.119389,-5.82464 c 2.1e-5,3e-5 8.962499,-4.34627 8.971816,-4.32631 l -2.091316,-4.4804 c -0.0187,-0.0401 -8.908666,4.21007 -8.908666,4.21007 l -2.378398,-6.34652 c -0.01439,0.002 8.560314,-3.51052 8.560314,-3.51052 l -1.918897,-4.63794 -8.196556,3.30754 c 0.0033,-0.0153 -1.846542,-5.68714 -1.846542,-5.68714 l 8.407846,-2.83883 -1.421853,-4.75558 -7.775803,1.97145 -1.312211,-5.54732 8.084884,-1.95513 -1.064799,-4.86074 -7.770466,1.24674 -0.571362,-5.85419 7.159482,-0.9508 -0.455134,-4.94494 -7.345882,0.6391 -0.380472,-6.55233 7.660961,-0.51646 -0.0042,-4.99952 c 0.009,-0.0144 -7.624344,0.0509 -7.624344,0.0509 -7.18e-4,0.002 -0.22561,-6.558382 -0.22561,-6.558382 0.01741,0.0024 7.742778,0.12135 7.742778,0.12135 l 0.04609,-4.995966 -7.4494,-0.11923 0.05738,-5.093269 7.724738,0.07285 0.02324,-5.012982 -6.368923,9.06e-4 L 42.519973,57.42604 42.398131,49.722464 69.360326,71.457182 47.411548,34.07077 l 7.917491,0.06219 21.18459,31.66974 -5.617834,-29.783566 6.852175,0.08606 7.932932,34.109916 c 18.057068,12.274634 17.719658,14.818022 17.552118,18.892287 8.81879,5.607423 8.07041,11.311973 15.39056,14.525473 l 28.37283,12.45715 0,-3e-5 z"
     id="path2862"
     style="fill:#faf700;fill-opacity:1;stroke:none" />
  <path
     d="m 209.09942,308.9952 c 7.55783,11.48806 23.47389,12.28687 33.04567,9.90452 -2.33551,33.48779 -62.87681,37.03348 -66.79099,0.40951 12.93283,3.51214 27.99236,0.0572 33.74532,-10.31246 z"
     id="path3658"
     style="fill:#faf700;fill-opacity:1;stroke:none" />
  <path
     d="m 121.26707,224.56522 -2.55074,-3.24243 26.06879,-17.11972 45.95517,13.48825 c 0.64952,4.18428 2.31532,13.74089 -5.64985,19.4036 -8.53744,6.06963 -48.34618,5.09822 -48.11118,-23.21761 l -15.71219,10.68791 z"
     id="path3660"
     style="fill:#d61a1a;fill-opacity:1;stroke:none" />
  <path
     d="m 156.89,212.15765 -12.22469,-3.54024 c -1.26619,1.04356 -2.88395,2.13942 -3.87245,2.97973 -0.45498,15.08181 11.32775,22.26929 20.89578,23.99209 18.88071,3.39967 28.20176,-1.31068 25.98211,-14.74195 l -5.05795,-1.51321 c -3.14123,20.18459 -33.51696,6.76804 -25.7228,-7.17642 z"
     id="path3662"
     style="fill:#faf700;fill-opacity:1;stroke:none" />
  <path
     d="m 160.00265,212.93586 19.62712,5.60181 c -0.73046,15.32969 -26.3156,6.3464 -19.62712,-5.60181 z"
     id="path3664"
     style="fill:#faf700;fill-opacity:1;stroke:none" />
  <path
     d="m 119.99637,146.68052 4.02091,-4.1635 L 95.443142,114.65581 74.910823,70.796488 72.3728,71.623484 94.445043,121.12919 c -0.0111,-0.018 25.551327,25.55133 25.551327,25.55133 z"
     id="path3002"
     style="fill:#d61a1a;fill-opacity:1;stroke:none" />
  <use
     transform="matrix(-1,0,0,1,417.81974,-0.114068)"
     id="use3774"
     x="0"
     y="0"
     width="390"
     height="480"
     xlink:href="#path3002" />
  <use
     transform="matrix(-1,0,0,1,418.05647,0)"
     id="use3055"
     x="0"
     y="0"
     width="410"
     height="480"
     xlink:href="#path3660" />
  <use
     transform="matrix(-1,0,0,1,418.05647,0)"
     id="use3057"
     x="0"
     y="0"
     width="410"
     height="480"
     xlink:href="#path3662" />
  <use
     transform="matrix(-1,0,0,1,418.05647,0)"
     id="use3059"
     x="0"
     y="0"
     width="410"
     height="480"
     xlink:href="#path3664" />
</svg>
