<?xml version="1.0" encoding="UTF-8" standalone="no"?>
<!-- Created with Inkscape (http://www.inkscape.org/) -->

<svg
   xmlns:svg="http://www.w3.org/2000/svg"
   xmlns="http://www.w3.org/2000/svg"
   version="1.1"
   width="390"
   height="480"
   id="svg4228">
  <defs
     id="defs4232" />
  <path
     d="M 0,0 C 130,0 260,0 390,0 389.98981,114.99797 370.78556,350.14732 194.88837,479.99815 20.79131,350.08886 0.081386,115.02225 0,0 z"
     id="path4240-0"
     style="color:#000000;fill:#207dbf;fill-opacity:1;fill-rule:nonzero;stroke:none;marker:none;visibility:visible;display:inline;overflow:visible;enable-background:accumulate" />
  <path
     d="m 117.46853,258.6553 c 3.99707,1.63634 7.03083,5.33112 9.10434,9.55367 l -7.68182,6.51866 c 6.33693,6.0577 13.70563,16.70472 16.92607,27.95719 3.49149,12.19958 -8.72529,17.14734 -15.99393,13.52255 -12.57268,-6.26986 -18.20608,-14.34426 -22.386562,-20.77163 l -8.191234,6.5228 c -4.320696,-4.15995 -8.398962,-11.80151 -9.087461,-18.10997 -0.732067,-6.70766 6.103084,-10.25235 11.507063,-14.80074 -5.910388,-7.35752 -11.092787,-15.90827 -11.375458,-24.71389 -0.46747,-14.5624 15.016636,-25.82899 32.298712,-21.53282 16.26157,4.04248 60.31989,42.94802 67.06156,132.52962 0.2362,3.1385 5.36495,3.63321 4.78599,-0.58366 -11.62294,-84.65546 -31.87006,-129.6884 -59.05504,-151.09652 -4.82083,-3.79639 -8.40085,-3.97235 -12.79395,-4.04454 -7.20323,-0.11836 -9.41277,-4.8502 -12.46379,-9.98754 -5.152712,-8.6762 -12.228021,-1.03765 -20.140163,-1.56828 -11.746387,-0.78778 -10.804517,-8.06202 -6.603332,-8.66688 5.04049,-0.7257 6.429416,-4.85232 2.723874,-7.09858 -5.195233,-3.14929 -13.435073,1.69052 -20.55287,-2.80642 -7.942821,-5.01818 -12.161812,-11.32327 -9.49229,-16.59087 1.623816,-3.20417 12.894754,-2.15459 6.933499,-7.59383 -10.613698,-9.68428 -26.690739,-9.14735 -29.632452,-29.21975 -0.970107,-6.6194 2.283334,-8.84018 5.530291,-9.65737 6.640529,-1.67126 -1.913075,-10.307843 -1.981,-16.755956 -0.113758,-10.799032 11.424802,-14.513552 18.902038,-11.308206 4.545288,1.948477 6.756899,11.331487 12.628872,7.346206 5.349327,-3.630563 9.415378,-4.841627 13.124122,-1.320666 5.542018,5.261413 7.765919,14.222476 7.181123,21.460832 -0.758975,9.39427 3.760191,9.84729 9.244665,0.99054 6.619732,-10.690055 11.918301,6.58943 13.289203,11.39075 2.97268,4.23627 -2.717668,33.56933 6.1391,29.81517 3.50806,-1.48697 2.98565,-8.82174 3.27065,-12.39889 0.62193,-7.80631 7.07147,-4.54493 9.07958,1.15559 3.92577,11.1443 2.49855,23.82589 0.33017,31.69599 -1.93231,7.01327 4.4807,9.56893 7.01604,9.57483 6.00206,0.014 4.50003,7.9966 4.9525,13.94954 0.39893,5.24872 5.72491,10.71576 9.40974,15.68291 32.4831,43.78723 37.64719,78.30856 48.17843,145.00151 1.15608,7.32129 6.36312,6.50828 5.81969,0.65203 -2.65266,-28.58631 -2.60816,-55.93294 -3.3659,-84.63179 -0.11986,-4.5399 -9.14789,-2.9834 -6.44411,-16.27244 1.71302,-4.52138 -8.81213,-3.62262 -4.07286,-18.5836 1.40948,-4.44946 -7.08771,-5.82627 -10.06937,-11.09477 -3.14458,-5.55636 1.226,-6.35804 3.36347,-6.84094 3.84645,-0.869 -0.0976,-5.52283 -2.37369,-7.73475 -17.11878,-16.6364 -29.01315,-35.92258 -25.42282,-50.59803 0.84026,-3.43455 2.05996,-4.90131 4.55051,-4.97496 4.33279,-0.12812 15.16376,7.42879 12.53561,-0.14262 -4.90708,-12.58104 -38.39676,-38.32257 -29.82586,-73.329458 1.21412,-4.958949 9.04107,-6.718622 12.0794,-0.958026 4.06863,7.714028 14.58978,12.961068 11.22567,2.641332 -2.89593,-8.883536 -7.18583,-18.19219 -7.75892,-26.743494 -0.75707,-11.296487 11.97991,-19.427019 18.90204,-15.352746 3.72309,2.191358 5.9502,8.225421 9.07958,2.806416 2.61552,-4.529177 -5.02241,-10.690213 -1.65083,-18.736954 7.20898,-17.2052483 40.20961,-13.6586098 45.06774,-0.907958 2.04798,5.375131 -0.66665,13.0992 -1.981,19.232204 -1.74709,8.152271 8.12844,-2.024157 10.6237,-2.798121 10.42742,-3.234309 21.49811,10.677691 16.69758,23.681158 -1.33462,3.615164 -12.40873,24.620571 -5.34203,25.470468 7.0667,0.849897 9.59307,-18.066176 17.97091,-12.676513 9.25069,5.951189 3.41646,37.136702 -7.73646,52.303092 -7.61539,10.35584 -23.20534,29.86575 -16.2607,29.63245 5.24575,-0.17623 9.90748,-8.973 14.83503,-0.96218 8.27689,13.45591 -10.02577,39.48518 -28.47687,56.21086 -4.4162,4.00322 5.73968,4.51208 5.03504,8.25416 -0.91153,4.8408 -13.26984,11.9999 -10.77289,17.04951 4.28126,8.65803 -3.69287,11.07179 -3.53098,14.22133 0.68513,13.32993 -6.32533,13.67727 -6.50077,16.44168 -0.69208,5.09771 -1.6504,56.22465 -3.35174,84.93191 -0.41377,6.98168 5.07703,5.21176 5.47365,-0.18925 3.6066,-49.11327 13.58195,-111.95841 54.34073,-151.10959 4.30475,-4.13496 -0.62289,-22.91437 6.85095,-24.01962 5.82474,-0.86138 13.10248,-1.05962 7.84146,-12.71141 -6.23095,-13.79993 3.42627,-40.84079 8.83196,-33.51191 3.50557,4.75276 -0.79002,18.2628 6.74252,17.53402 7.77399,-0.75214 -3.19042,-23.80814 9.32619,-42.25303 5.20863,-7.675601 9.40977,9.85505 13.74225,7.42093 2.556,-1.43604 2.0629,-9.50856 3.9319,-17.106057 2.18533,-8.883354 6.99998,-17.074434 14.60065,-12.598683 6.25171,3.681402 10.61236,3.293038 16.53422,-5.493671 3.65639,-5.42526 19.67017,0.281714 19.72746,6.190623 0.0466,4.811338 -1.83584,8.808761 -3.63184,12.876497 -3.86037,8.743341 1.28575,5.693381 6.57258,12.493121 5.23009,6.72675 -5.25453,21.15319 -10.7822,24.07283 -10.2927,5.43647 -27.68151,13.29526 -17.03434,15.77133 7.97576,1.85481 6.90778,6.87538 3.33243,11.79758 -7.57091,10.4229 -15.34811,7.54664 -27.07367,10.15263 -4.82338,1.07199 -2.80474,6.03663 1.15559,6.52079 8.60594,1.0521 1.58011,11.10078 -8.83196,9.07958 -5.80046,-1.12599 -10.76403,-3.56563 -14.11462,-0.57779 -5.20696,4.64322 -6.20132,10.57629 -15.23844,12.08526 -45.89132,7.68219 -67.9616,94.6914 -71.92139,153.24566 -0.46551,6.88355 5.02496,6.23497 5.27852,0 2.96838,-72.99228 29.97111,-115.68454 63.30944,-129.5904 15.41824,-6.43115 34.82915,4.78389 34.99766,18.65443 0.18479,15.21013 -5.38006,18.63064 -9.49229,27.40382 5.52448,4.75594 11.09244,10.41677 9.57483,17.99408 -1.36089,6.79486 -4.76687,11.20378 -8.74942,14.94004 l -7.85616,-6.56857 c -5.74347,7.99368 -13.45918,20.47887 -23.92997,21.24514 -15.98291,1.16966 -15.87279,-12.05379 -12.19844,-20.71984 3.36466,-7.93563 14.88327,-20.95331 14.8249,-21.18677 -0.0584,-0.23347 -8.11284,-7.41246 -8.11284,-7.41246 3.46436,-6.39187 7.70753,-9.68526 14.70159,-9.82719 4.76217,-0.0966 11.34875,4.26999 14.92648,7.99611 8.22955,-7.08217 13.51883,-17.24204 9.92217,-27.84704 -2.44276,-7.20264 -17.4611,-14.80736 -28.9826,-8.55317 -50.91628,27.63877 -54.15828,91.45734 -58.77775,126.71379 -0.46886,3.57839 7.65084,1.63626 7.93774,4.96108 1.06358,12.32561 -8.95867,18.91743 -21.01167,18.61868 l 0.0431,23.98265 c 0.01,5.2993 -20.8588,5.37887 -20.84177,0.45395 l 0.0825,-23.85454 c -17.05434,-0.0627 -22.19542,-10.75976 -20.96557,-19.89253 0.54537,-4.0499 7.11634,-0.96267 6.52078,-6.60334 -6.69795,-63.60281 -36.38039,-117.36315 -62.31894,-126.20618 -12.822413,-4.37145 -26.012346,5.47866 -25.835534,15.76545 0.176812,10.28679 4.188171,15.80953 11.566708,22.18694 8.814326,-7.48241 15.400316,-8.42775 19.976006,-6.55453 z"
     id="path2827"
     style="fill:#ececec;stroke:none" />
</svg>
