<?xml version="1.0" encoding="UTF-8" standalone="no"?>
<!-- Created with Inkscape (http://www.inkscape.org/) -->

<svg
   xmlns:dc="http://purl.org/dc/elements/1.1/"
   xmlns:cc="http://creativecommons.org/ns#"
   xmlns:rdf="http://www.w3.org/1999/02/22-rdf-syntax-ns#"
   xmlns:svg="http://www.w3.org/2000/svg"
   xmlns="http://www.w3.org/2000/svg"
   xmlns:xlink="http://www.w3.org/1999/xlink"
   version="1.1"
   width="390"
   height="480"
   id="svg4228">
  <metadata
     id="metadata26">
    <rdf:RDF>
      <cc:Work
         rdf:about="">
        <dc:format>image/svg+xml</dc:format>
        <dc:type
           rdf:resource="http://purl.org/dc/dcmitype/StillImage" />
        <dc:title></dc:title>
      </cc:Work>
    </rdf:RDF>
  </metadata>
  <defs
     id="defs4232" />
  <path
     d="m 0.51202379,0.50512952 c 129.66265621,0 259.32532621,0 388.98797621,0 C 389.48983,115.23328 370.33544,349.8309 194.89467,479.37706 21.249382,349.77255 0.5931986,115.2575 0.51202379,0.50512952 z"
     id="path4240-0"
     style="fill:#008c31;fill-opacity:1;stroke:#9e832a;stroke-width:0.99999905;stroke-opacity:1" />
  <path
     d="M 388.99609,1.0039062 57.45097,300.71205 C 31.982433,244.91434 0.52663739,137.92073 1.0054175,0.99039859 z"
     id="path3010"
     style="fill:#faf700;fill-opacity:1;stroke:none" />
  <path
     d="M 67.9375,104.03125 48,103.96875 48,85.968751 c 0,-2.805253 -6.125,3.354167 -9.1875,5.03125 l -5.875,-8.8125 L 122.51562,16 l 89.45313,66.000001 -6,8.9375 C 202.97917,89.291668 197,82.410842 197,86.000001 l 0,17.984379 -20,0.0156 c -9.32803,0.007 -8.72876,27.48205 6.96875,32.03125 l -1.96875,8 L 62,144 60.984375,136 C 76.693049,132.36075 76.75025,104.05888 67.9375,104.03125 z"
     id="path3623"
     style="fill:#008c31;fill-opacity:1;stroke:none" />
  <path
     d="m 163.34375,146.40625 10.25,0.0625 5.40625,21.4375 -21.78125,-0.0312 6.125,-21.46875 z"
     id="path3625"
     style="fill:#008c31;fill-opacity:1;stroke:none" />
  <use
     transform="translate(-90.5,0)"
     id="use3780"
     x="0"
     y="0"
     width="390"
     height="480"
     xlink:href="#path3625" />
  <rect
     width="25.25"
     height="5.9375"
     x="109.75"
     y="145.6875"
     id="rect3651"
     style="fill:#008c31;fill-opacity:1;stroke:none" />
  <rect
     width="31.1875"
     height="6.9375"
     x="106.75"
     y="153.4375"
     id="rect3653"
     style="fill:#008c31;fill-opacity:1;stroke:none" />
  <rect
     width="37.25"
     height="7"
     x="103.875"
     y="162"
     id="rect3655"
     style="fill:#008c31;fill-opacity:1;stroke:none" />
  <rect
     width="21.566757"
     height="33.852737"
     x="112.07642"
     y="102.09562"
     id="rect3657"
     style="fill:#faf700;fill-opacity:1;stroke:none" />
  <path
     d="m 114.90625,77.937501 15.0625,0.0625 -0.11959,-19.320621 c -0.0656,-10.593503 -14.84699,-10.203677 -14.88036,0.05178 l -0.0625,19.206345 -5e-5,0 z"
     id="path3659"
     style="fill:#faf700;fill-opacity:1;stroke:none" />
  <use
     transform="translate(-32,0)"
     id="use3782"
     x="0"
     y="0"
     width="390"
     height="480"
     xlink:href="#path3659-7-4" />
  <path
     d="m 132.44041,78.002465 11.81741,0.04905 -0.0938,-15.158106 c -0.0516,-8.3112 -11.64829,-8.005359 -11.67449,0.04061 l -0.0488,15.068454 -2e-5,0 z"
     id="path3659-7-4"
     style="fill:#faf700;fill-opacity:1;stroke:none" />
  <path
     d="m 243.125,199.75 c 5.8399,0.74623 14.03279,4.04045 19.4375,7.75 l 25.4375,0 -0.0625,7.375 -12.8125,0.0625 c 6.27858,2.96958 11.31425,11.76285 13.3125,16.5 l 19.24234,10.3559 -4.27359,7.05035 -12.125,-8.59375 c 3.31138,5.79057 4.75474,15.5855 4.71875,22.75 l 10.875,18.5 -6.625,3.75 -6,-12.0625 c -1.01652,7.64419 -3.84282,14.43671 -7.6875,20.75 l -0.0625,21.875 -7.625,0.0625 0.25,-12.9375 c -4.95482,7.10379 -10.82542,11.19861 -16.9375,14.5 l -10.625,18.375 -6.6875,-4.375 7.8125,-11.5 c -10.18108,5.22295 -16.04807,4.51401 -22.375,4.4375 L 212.125,335 207.75,328.125 220.5625,321.5 c -8.57408,-0.62087 -14.90799,-3.60638 -20.5,-7.375 l -22.625,0.6875 0,-7.875 13.75,0.125 c -7.84061,-4.59452 -11.97688,-10.60494 -13.875,-15.25 l -19.875,-11.6875 4.1875,-6.875 11.125,6.3125 c -2.26536,-6.47464 -3.58364,-13.06767 -3.1875,-19.875 l -11.625,-19.4375 6.625,-4.25 6.9375,12.1875 c 0.93405,-7.0233 3.49124,-12.88721 6.75,-18.25 l -0.1875,-24.4375 7.25,0.0625 -0.125,14.625 c 4.44371,-5.49216 9.68141,-10.27857 15.625,-14.4375 l 11.75,-20.5 6.875,4.3125 -6.8125,12.0625 c 6.25114,-2.90981 12.81203,-3.96115 19.5625,-3.875 l 20.25,-12.0625 3.4375,6.75 -12.75,7.3125 z"
     id="path3833"
     style="fill:#faf700;fill-opacity:1;stroke:none" />
  <rect
     width="15.802115"
     height="15.69243"
     x="-19.191357"
     y="340.79184"
     transform="matrix(0.69687304,-0.71719451,0.68926906,0.72450546,0,0)"
     id="rect3719"
     style="fill:#008c31;fill-opacity:1;stroke:none" />
  <path
     d="m 247.125,246.0625 c -2.02945,-3.17994 -5.73704,-4.98359 -9.125,-5 L 238,217 c 10.61146,-0.56193 24.57391,8.91714 29.9375,16.75 l -20.8125,12.3125 z"
     id="path3721"
     style="fill:#008c31;fill-opacity:1;stroke:none" />
  <path
     d="m 217.5625,246.0625 c 1.89338,-2.82778 5.3166,-4.57166 9.125,-5 l 0,-24.0625 c -10.61146,-0.56193 -24.57391,8.91714 -29.9375,16.75 l 20.8125,12.3125 z"
     id="path3721-0"
     style="fill:#008c31;fill-opacity:1;stroke:none" />
  <path
     d="m 247.125,275.66365 c -2.35631,3.39571 -5.04587,4.68648 -9.125,5 l 0,24.0625 c 10.61146,0.56193 24.57391,-8.91714 29.9375,-16.75 l -20.8125,-12.3125 z"
     id="path3721-9"
     style="fill:#008c31;fill-opacity:1;stroke:none" />
  <path
     d="m 217.66345,275.39848 c 2.35631,3.39571 5.04587,4.68648 9.125,5 l 0,24.0625 c -10.61146,0.56193 -24.57391,-8.91714 -29.9375,-16.75 l 20.8125,-12.3125 z"
     id="path3721-9-4"
     style="fill:#008c31;fill-opacity:1;stroke:none" />
  <path
     d="m 213.19571,255.74498 c -1.76518,3.73726 -1.54029,6.71203 0.22523,10.40263 l -20.84699,12.01695 c -5.78626,-8.91281 -4.54682,-25.74333 -0.43928,-34.30195 l 21.06104,11.88237 z"
     id="path3721-9-4-8"
     style="fill:#008c31;fill-opacity:1;stroke:none" />
  <path
     d="m 252.6453,255.52829 c 1.76518,3.73726 1.54029,6.71203 -0.22523,10.40263 l 20.84699,12.01695 c 5.78626,-8.91281 4.54682,-25.74333 0.43928,-34.30195 l -21.06104,11.88237 z"
     id="path3721-9-4-8-8"
     style="fill:#008c31;fill-opacity:1;stroke:none" />
</svg>
