<?xml version="1.0" encoding="UTF-8" standalone="no"?>
<!-- Created with Inkscape (http://www.inkscape.org/) -->

<svg
   xmlns:dc="http://purl.org/dc/elements/1.1/"
   xmlns:cc="http://creativecommons.org/ns#"
   xmlns:rdf="http://www.w3.org/1999/02/22-rdf-syntax-ns#"
   xmlns:svg="http://www.w3.org/2000/svg"
   xmlns="http://www.w3.org/2000/svg"
   xmlns:xlink="http://www.w3.org/1999/xlink"
   version="1.1"
   width="480"
   height="480"
   id="svg3579">
  <metadata
     id="metadata12">
    <rdf:RDF>
      <cc:Work
         rdf:about="">
        <dc:format>image/svg+xml</dc:format>
        <dc:type
           rdf:resource="http://purl.org/dc/dcmitype/StillImage" />
        <dc:title></dc:title>
      </cc:Work>
    </rdf:RDF>
  </metadata>
  <defs
     id="defs3583" />
  <path
     d="m 470.87451,248.21292 a 216.27376,215.36122 0 1 1 -432.547514,0 216.27376,215.36122 0 1 1 432.547514,0 z"
     transform="matrix(1.0990879,0,0,1.104755,-40.19208,-33.242354)"
     id="path3018"
     style="fill:#0091f9;fill-opacity:1;stroke:#000000;stroke-width:1.79759836;stroke-miterlimit:4;stroke-opacity:1;stroke-dasharray:none" />
  <path
     d="m 470.87451,248.21292 a 216.27376,215.36122 0 1 1 -432.547514,0 216.27376,215.36122 0 1 1 432.547514,0 z"
     transform="matrix(1.0447232,0,0,1.0501107,-26.350949,-19.678852)"
     id="path3018-1"
     style="fill:#ffffff;fill-opacity:1;stroke:#000000;stroke-width:1.89430654;stroke-miterlimit:4;stroke-opacity:1;stroke-dasharray:none" />
  <path
     d="m 470.87451,248.21292 a 216.27376,215.36122 0 1 1 -432.547514,0 216.27376,215.36122 0 1 1 432.547514,0 z"
     transform="matrix(1.004853,0,0,1.0100333,-16.199682,-9.7313115)"
     id="path3018-1-7"
     style="fill:#0091f9;fill-opacity:1;stroke:#000000;stroke-width:1.96947002;stroke-miterlimit:4;stroke-opacity:1;stroke-dasharray:none" />
  <path
     d="m 470.87451,248.21292 a 216.27376,215.36122 0 1 1 -432.547514,0 216.27376,215.36122 0 1 1 432.547514,0 z"
     transform="matrix(0.78449286,0,0,0.78853753,39.904112,45.246836)"
     id="path3018-1-7-4"
     style="fill:#ffffff;fill-opacity:1;stroke:#000000;stroke-width:2.5056169;stroke-miterlimit:4;stroke-opacity:1;stroke-dasharray:none" />
  <path
     d="m -724.06777,110.84746 a 117.96611,121.01696 0 1 1 -235.93221,0 117.9661,121.01698 0 1 1 235.93221,0 z"
     id="path3591"
     style="fill:#ffffff" />
  <path
     d="m 470.87451,248.21292 a 216.27376,215.36122 0 1 1 -432.547514,0 216.27376,215.36122 0 1 1 432.547514,0 z"
     transform="matrix(0.75943224,0,0,0.76334783,46.284606,51.499209)"
     id="path3018-1-7-4-0"
     style="fill:#0091f9;fill-opacity:1;stroke:#000000;stroke-width:2.5056169;stroke-miterlimit:4;stroke-opacity:1;stroke-dasharray:none" />
  <path
     d="m 256.9149,43.487177 c -2.25792,-1.538654 -5.06049,-2.562261 -8.04451,-5.363659 -5.15866,-4.843163 -6.82954,14.621373 -3.39736,13.976187 3.30804,-0.62205 6.30644,-1.043307 10.5227,-0.581916 -0.23786,2.968334 -0.47389,6.464081 -2.81523,9.85283 -2.8103,4.06777 17.40395,6.141265 15.16378,1.831444 -1.23935,-2.384519 -2.14068,-5.711134 -2.23576,-9.27086 2.91909,0.580817 5.60429,2.823988 8.10092,4.672347 5.63918,4.174697 8.91069,-14.801328 1.94306,-13.069389 -2.92984,0.728155 -5.99117,0.467682 -7.70073,-0.184759 0.70514,-3.418774 2.26655,-7.169639 6.11651,-10.696251 4.8475,-4.440099 -18.78517,-9.774768 -17.31394,-2.262344 0.55784,2.8473 0.89481,5.518516 -0.33944,11.09637 z"
     id="path3860"
     style="fill:#ffffff;stroke:#000000;stroke-width:1.48809063;stroke-linecap:butt;stroke-linejoin:miter;stroke-miterlimit:4;stroke-opacity:1;stroke-dasharray:none" />
  <path
     d="m 239.89305,62.560945 c -7.55387,-3.130473 -6.77026,-11.137683 -14.68298,-15.643356 12.09004,-9.602433 3.07583,-17.962388 -5.68131,-18.56436 -6.70606,-0.460984 -17.93359,-0.105739 -23.28562,6.001382 6.00827,9.95336 8.89508,20.63882 6.96171,33.207641 -0.74008,4.810593 11.84993,0.459257 12.96312,-3.040776 0.71936,-2.262465 -3.0928,-1.576052 -4.00112,-3.200776 -3.62785,-6.489005 2.00471,-8.921463 -4.40107,-24.405509 -1.36253,-3.294086 11.20531,-1.397936 10.9628,2.480544 -0.25959,4.143022 -2.98031,6.619518 -6.72178,9.442092 6.84449,4.358934 12.13141,11.791694 17.28413,16.643946 2.04823,1.928868 18.03333,0.159477 10.60212,-2.920828 z"
     id="path3862"
     style="fill:#ffffff;stroke:#000000;stroke-width:1.48809063;stroke-linecap:butt;stroke-linejoin:miter;stroke-miterlimit:4;stroke-opacity:1;stroke-dasharray:none" />
  <path
     d="m 166.72394,43.172227 c -7.3699,9.213008 -6.91512,17.093188 1.47123,27.045826 3.39445,4.028483 10.79878,7.821504 15.8427,5.658247 3.08755,-1.323964 7.85303,-4.893842 16.18253,-3.960643 0.81465,-8.225841 -7.57939,-9.635827 -8.37398,-16.861438 -0.64219,-5.837404 0.97589,-11.636762 -1.2448,-22.858942 -10.486,7.414853 -17.61959,3.154509 -23.87768,10.97695 z"
     id="path3864"
     style="fill:#ffffff;stroke:#000000;stroke-width:1.48809063;stroke-linecap:butt;stroke-linejoin:miter;stroke-miterlimit:4;stroke-opacity:1;stroke-dasharray:none" />
  <path
     d="m 174.15812,48.597908 c -4.00846,7.279834 1.50513,7.387174 4.83952,6.401351 8.90188,-2.631718 11.79799,-7.028302 8.55514,-9.842126 -4.37922,-3.799732 -11.31177,-0.341423 -13.39466,3.440775 z"
     id="path3866"
     style="fill:#0091f9;fill-opacity:1;stroke:#000000;stroke-width:1.54643095;stroke-linecap:butt;stroke-linejoin:miter;stroke-miterlimit:4;stroke-opacity:1;stroke-dasharray:none" />
  <path
     d="m 183.55922,70.286118 c -2.99127,-0.331658 -8.75696,-4.080978 -8.04188,-6.981227 1.2655,-5.130733 16.16536,-6.091762 15.05716,-0.271954 -0.56292,2.958 -4.06487,7.580075 -7.01528,7.253181 z"
     id="path3868"
     style="fill:#0091f9;fill-opacity:1;stroke:#000000;stroke-width:1.63785803;stroke-linecap:butt;stroke-linejoin:miter;stroke-miterlimit:4;stroke-opacity:1;stroke-dasharray:none" />
  <path
     d="m 145.88127,94.001393 16.78117,-10.77935 c 5.03008,-3.230892 0.78031,-10.829195 -0.51986,-13.160706 -3.50158,-6.278128 -8.32314,-0.428212 -7.81934,-6.674836 0.90186,-11.19195 -7.07445,-14.89105 -14.51086,-12.48323 -4.63308,1.500092 -9.94098,6.744488 -18.70394,14.290842 8.6072,2.786525 16.83234,15.062295 19.42112,21.690127 0.88779,2.272158 -0.13854,4.670862 0.0549,5.924359 0.56298,3.623832 1.50722,3.89687 5.29526,1.192794 z"
     id="path3870"
     style="fill:#ffffff;stroke:#000000;stroke-width:1.48809063;stroke-linecap:butt;stroke-linejoin:miter;stroke-miterlimit:4;stroke-opacity:1;stroke-dasharray:none" />
  <path
     d="M 146.18523,82.100333 134.92551,65.125832 c -1.55506,-2.344199 1.08,-5.089827 4.46999,-5.431941 3.33663,-0.336331 5.28881,1.282972 4.92237,6.620056 -0.33018,4.808361 -5.87925,7.921675 1.18809,7.129232 14.49719,-1.625311 6.06948,16.782942 0.67927,8.657154 z"
     id="path3872"
     style="fill:#0091f9;fill-opacity:1;stroke:#000000;stroke-width:1.48809063;stroke-linecap:butt;stroke-linejoin:miter;stroke-miterlimit:4;stroke-opacity:1;stroke-dasharray:none" />
  <path
     d="m 115.00861,68.520739 c -3.4165,7.781265 -17.318598,4.883285 -18.44527,16.295493 -1.336194,13.52866 8.75022,15.181002 14.25845,11.599195 9.60771,-6.24779 16.5111,-0.620418 12.22141,6.280263 -3.68852,5.93406 -7.98104,-0.59008 -16.52165,2.71601 3.83931,3.31143 10.65581,9.11937 13.1835,6.22388 6.05901,-6.94065 13.05471,-5.60321 15.22046,-13.353079 1.64516,-5.888787 -0.56786,-14.927878 -9.95862,-15.390178 -5.04153,-0.248008 -8.25933,4.545361 -13.23974,4.866017 -7.64922,0.492619 -6.16991,-8.612384 -0.90536,-10.524226 6.13832,-2.229157 8.3982,-1.156495 13.24015,-0.226336 -2.85892,-8.421083 -7.39649,-7.792235 -9.05333,-8.487039 z"
     id="path3874"
     style="fill:#ffffff;stroke:#000000;stroke-width:1.48809063;stroke-linecap:butt;stroke-linejoin:miter;stroke-miterlimit:4;stroke-opacity:1;stroke-dasharray:none" />
  <path
     d="m 85.190233,95.623104 c 2.91676,3.83223 8.672436,19.433466 27.272527,24.839436 -7.90268,5.8088 -13.09578,19.15427 -21.105026,20.36928 -11.409678,1.73047 -26.264024,-4.96124 -23.990566,-22.74589 1.16476,-9.1107 11.87991,-10.17137 17.823065,-22.462826 z"
     id="path3876"
     style="fill:#ffffff;stroke:#000000;stroke-width:1.48809063;stroke-linecap:butt;stroke-linejoin:miter;stroke-miterlimit:4;stroke-opacity:1;stroke-dasharray:none" />
  <path
     d="m 78.117671,122.95206 c -1.351705,-1.34343 -1.817051,-7.74297 1.244773,-11.09012 3.042798,-3.32625 8.884378,-2.50869 9.392414,-0.9052 0.904549,2.85366 -8.739393,13.88203 -10.637187,11.99532 z"
     id="path3878"
     style="fill:#0091f9;fill-opacity:1;stroke:#000000;stroke-width:1.48809063;stroke-linecap:butt;stroke-linejoin:miter;stroke-miterlimit:4;stroke-opacity:1;stroke-dasharray:none" />
  <path
     d="m 97.581759,118.08594 c 2.093751,3.63412 2.007681,9.53042 -1.244792,12.22177 -4.007801,3.3158 -8.971299,3.29596 -11.203155,0 -1.254944,-1.85336 10.035132,-16.40867 12.447947,-12.22177 z"
     id="path3880"
     style="fill:#0091f9;fill-opacity:1;stroke:#000000;stroke-width:1.48809063;stroke-linecap:butt;stroke-linejoin:miter;stroke-miterlimit:4;stroke-opacity:1;stroke-dasharray:none" />
  <path
     d="m 47.11104,160.52192 c -4.946662,-0.67001 -9.940577,9.40892 -5.997715,9.84524 9.668901,1.07047 20.498868,6.36881 30.667085,11.7689 3.534242,1.87709 9.437724,-10.19433 4.752914,-10.29775 -10.291135,-0.22724 -22.03917,-7.10053 -23.085277,-9.16624 -2.666017,-5.26426 6.639957,-9.80396 12.561163,-6.45001 5.24528,2.97096 12.011231,6.47629 19.577052,0.56548 2.850879,-2.22719 7.988148,-11.2108 4.979264,-12.10833 -5.342481,-1.59341 -6.843946,10.32529 -18.105963,4.52672 -1.99969,-1.02963 -12.304062,-9.91735 -22.293071,-3.0555 -3.6458,2.50438 -6.425294,6.8917 -3.055452,14.37149 z"
     id="path3882"
     style="fill:#ffffff;stroke:#000000;stroke-width:1.48809063;stroke-linecap:butt;stroke-linejoin:miter;stroke-miterlimit:4;stroke-opacity:1;stroke-dasharray:none" />
  <path
     d="m 39.087425,183.82877 c -5.889729,1.57192 -4.826134,-4.71148 -2.716602,-6.57139 5.446934,-4.80197 4.81812,0.38636 6.222163,1.27245 l 26.021188,16.42132 c 3.430385,2.16471 0.462128,11.12305 -4.320859,12.00278 -12.83713,2.36167 -26.963354,-0.58863 -30.309255,3.58609 -1.54245,1.92507 -2.505207,5.10123 -4.639674,2.26351 -1.580656,-2.10211 -0.737112,-9.29027 1.611853,-13.09712 2.348028,-3.80566 4.402033,-2.26833 5.876199,0.91411 0.930843,2.00926 4.575736,-0.53649 10.447319,-1.49943 3.948204,-0.64735 8.679566,0.97145 12.279206,-1.70781 -4.6101,-5.40847 -16.854327,-14.54988 -20.471538,-13.58451 z"
     id="path3884"
     style="fill:#ffffff;stroke:#000000;stroke-width:1.48809063;stroke-linecap:butt;stroke-linejoin:miter;stroke-miterlimit:4;stroke-opacity:1;stroke-dasharray:none" />
  <path
     d="m 52.370419,220.71716 c -22.219793,-1.08163 -24.485547,1.68018 -25.402933,5.23609 -2.387942,9.25574 -1.297806,21.06982 -0.202922,30.132 0.84858,7.02146 16.964033,3.20045 25.445833,4.80089 -1.606705,-6.00963 -9.482663,-2.38745 -17.763968,-8.88175 -1.190534,-0.93356 -1.442131,-7.23167 2.480535,-7.44181 6.288942,-0.33677 15.395004,0.2432 25.365762,3.36094 l 0.160685,-16.16385 c -10.290897,2.55117 -17.271893,4.62121 -26.005934,3.76066 -4.102955,-0.40401 -3.507503,-6.57642 -0.800165,-7.76175 5.868194,-2.56909 15.020282,-2.29829 16.723844,-7.04142 z"
     id="path3886"
     style="fill:#ffffff;stroke:#000000;stroke-width:1.48809063;stroke-linecap:butt;stroke-linejoin:miter;stroke-miterlimit:4;stroke-opacity:1;stroke-dasharray:none" />
  <path
     d="m 52.508729,270.36838 a 4.1539165,3.9522699 0 1 1 -8.307833,0 4.1539165,3.9522699 0 1 1 8.307833,0 z"
     transform="matrix(0.99206139,0,0,0.99206139,1.9590216,6.507412)"
     id="path3888"
     style="fill:#ffffff;fill-opacity:1;stroke:#000000;stroke-width:1.5;stroke-miterlimit:4;stroke-opacity:1;stroke-dasharray:none" />
  <use
     transform="translate(26.878258,72.006908)"
     id="use3901"
     style="fill:#ffffff"
     x="0"
     y="0"
     width="480"
     height="480"
     xlink:href="#path3888" />
  <use
     transform="translate(383.8476,6.8015513)"
     id="use3903"
     x="0"
     y="0"
     width="480"
     height="480"
     xlink:href="#path3888" />
  <path
     d="m 40.547432,293.20551 c -4.486017,2.59474 -6.179069,0.39165 -5.94092,-0.84862 0.758628,-3.95212 7.102675,-13.65384 10.071428,-4.01744 0.689802,2.23886 4.780077,-1.17753 12.051926,10.24144 7.296938,-1.14253 15.228738,-2.18928 19.407364,7.7518 1.996428,4.74882 3.750963,11.82224 6.652041,13.49742 2.885091,1.66583 2.617511,4.31734 -0.338434,4.87556 -5.843485,1.10331 -19.421799,-0.25198 -29.115879,19.47957 -1.314146,2.67505 -1.877898,-3.61061 -2.027777,-12.28343 -4.139813,-2.58391 -8.315775,-6.00888 -8.949082,-12.53474 -1.061909,-10.9413 4.892683,-14.15915 7.978124,-17.95728 1.922702,-2.36708 -7.387867,-9.59285 -9.788791,-8.20428 z"
     id="path3905"
     style="fill:#ffffff;stroke:#000000;stroke-width:1.48809063;stroke-linecap:butt;stroke-linejoin:miter;stroke-miterlimit:4;stroke-opacity:1;stroke-dasharray:none" />
  <path
     d="m 53.787568,324.26878 c -1.395305,0.65628 -8.420858,-7.98148 4.63967,-12.90066 9.697166,-3.65207 15.564028,3.39991 14.371746,3.96068 z"
     id="path3006"
     style="fill:#0091f9;fill-opacity:1;stroke:#000000;stroke-width:1.48809063;stroke-linecap:butt;stroke-linejoin:miter;stroke-miterlimit:4;stroke-opacity:1;stroke-dasharray:none" />
  <path
     d="m 90.565526,344.41163 c 5.712125,-1.94436 14.905724,5.71291 10.976914,14.03254 -2.55096,5.40087 -7.081246,10.11798 -11.768947,15.38986 -6.407075,7.20575 0.808497,11.84476 7.015919,7.9216 6.970288,-4.4055 11.541068,-10.76478 15.616638,-18.67179 2.33002,-0.84676 9.14329,4.24069 10.18467,9.84483 -14.50298,6.4732 -15.14403,11.57172 -17.76678,15.16378 -5.61288,7.68829 3.42238,9.36843 7.69515,5.77142 5.42813,-4.56897 11.05635,-10.83177 18.44575,-11.99525 4.45205,-0.70091 11.29097,2.61481 13.57948,9.27934 -8.15214,-3.43609 -13.16608,-1.48663 -15.72961,1.24476 -5.20569,5.5468 -7.72857,10.23984 -13.91901,13.01366 -3.48362,1.56114 -8.59734,0.63787 -10.97712,-1.41448 -3.11231,-2.68421 -4.61472,-4.84994 -7.009884,-8.26893 -1.951904,-2.78627 -5.412858,-0.11726 -6.518391,-1.2379 -1.197441,-1.21471 0.633019,-3.59238 -2.31095,-5.87742 -2.576061,-1.9996 -5.052597,-4.12134 -7.707617,-6.36169 -5.661943,-4.77777 -2.849702,-10.24967 -0.103236,-12.93822 C 92.093029,357.7285 99.20063,353.21817 90.56633,344.41163 z"
     id="path3776"
     style="fill:#ffffff;stroke:#000000;stroke-width:1.48809063;stroke-linecap:butt;stroke-linejoin:miter;stroke-miterlimit:4;stroke-opacity:1;stroke-dasharray:none" />
  <path
     d="m 126.21165,413.55439 c -6.09315,-0.8255 -11.909,0.22743 -8.48706,2.716 4.28074,3.11233 14.44467,9.58292 14.25842,6.78938 l 0.11356,-4.52625 c 0.048,-1.92932 10.85321,-7.19991 16.97408,-11.20301 3.93145,-2.57158 1.13649,11.36485 0.39614,19.12417 0,0 -1.36513,-0.71602 -2.70978,-0.49618 -1.34474,0.21984 -2.49956,4.73336 -1.19428,5.70176 3.33033,2.47144 9.5534,5.08535 14.76771,5.14885 4.0774,0.0489 -1.36282,-2.32462 -1.03531,-7.18518 0.55379,-8.21608 0.50658,-20.40196 1.20502,-30.21499 0.2124,-2.98396 -5.42416,-5.17276 -7.0159,-4.07385 -13.04938,9.00914 -24.8444,18.54787 -27.27248,18.2193 z"
     id="path3778"
     style="fill:#ffffff;stroke:#000000;stroke-width:1.48809063;stroke-linecap:butt;stroke-linejoin:miter;stroke-miterlimit:4;stroke-opacity:1;stroke-dasharray:none" />
  <path
     d="m 178.41301,406.89935 c 2.25105,-1.84907 16.42589,2.0847 15.75704,6.37053 -6.56793,1.39509 -9.4728,4.63841 -8.7546,9.96738 0.68373,5.07465 -0.99619,8.7067 -3.41418,10.00725 -8.79257,4.72948 -1.7846,9.26029 -3.84783,12.33476 -2.65852,0.5514 -12.18839,-3.49658 -13.5792,-5.88443 1.29898,-2.71272 7.04719,-1.11108 5.99753,-10.63709 -0.73397,-3.79426 0.90388,-7.96084 4.97905,-9.61891 3.21167,-1.30684 5.09881,-5.49192 2.86219,-12.53949 z"
     id="path3780"
     style="fill:#ffffff;stroke:#000000;stroke-width:1.48809063;stroke-linecap:butt;stroke-linejoin:miter;stroke-miterlimit:4;stroke-opacity:1;stroke-dasharray:none" />
  <path
     d="m 200.96429,436.68634 c -0.74088,4.43959 -1.23792,8.52586 0.64014,13.92322 0.77946,2.24015 8.25944,-0.866 10.00245,0.88008 4.65222,4.66093 10.47205,2.18803 12.8109,-0.55211 3.95646,-4.63508 6.02045,-14.38196 -0.72825,-17.45201 -14.74408,-6.70736 -13.98944,-11.74623 -7.2016,-13.84311 5.48578,-1.69436 10.02657,8.85313 16.40387,12.32294 3.20157,-3.39474 3.02897,-9.3778 2.12711,-11.97559 -10.85015,1.21514 -10.53806,-6.60648 -22.93193,-5.06834 -12.04981,1.49533 -10.93676,12.46334 -7.36193,16.48352 5.58252,6.27813 13.74923,5.0761 14.21378,11.09872 0.36431,4.72823 -6.50942,6.62115 -9.65276,4.26487 -4.24406,-2.22974 -3.30844,-5.22599 -8.32178,-10.08219 z"
     id="path3782"
     style="fill:#ffffff;stroke:#000000;stroke-width:1.5;stroke-linecap:butt;stroke-linejoin:miter;stroke-miterlimit:4;stroke-opacity:1;stroke-dasharray:none" />
  <path
     d="m 239.37458,421.65941 c 0.99078,-4.52274 10.06492,-7.00775 14.25884,-1.10614 2.95819,4.16329 2.66545,11.57885 8.93953,20.79487 3.47852,5.10971 10.89049,4.0186 10.75057,-2.21225 -0.1619,-7.19712 -1.66613,-15.8635 -5.2056,-18.58262 -3.97298,-3.05222 -4.36403,-3.93646 -0.67884,-5.64115 14.70403,-6.79974 7.94097,0.91149 9.16631,4.64593 3.49725,10.65853 1.19717,22.94091 9.16592,25.66165 2.41699,0.82498 1.44762,6.26544 -1.0183,5.19872 -5.81729,-2.51692 -8.35946,-1.41545 -10.97665,0.1114 -13.64621,7.95533 -18.41916,0.75015 -19.46404,-2.43319 l -6.7898,-20.68435 c -2.65942,-8.37676 -8.90825,-2.28072 -8.14794,-5.75177 z"
     id="path3784"
     style="fill:#ffffff;stroke:#000000;stroke-width:1.48809063;stroke-linecap:butt;stroke-linejoin:miter;stroke-miterlimit:4;stroke-opacity:1;stroke-dasharray:none" />
  <path
     d="m 287.32137,414.49938 c 8.54133,7.49292 11.00052,18.5261 10.63514,29.11844 -0.18492,5.34842 4.43994,-1.03035 13.54523,-1.33859 14.4146,-0.488 17.99499,-16.11205 15.56045,-26.66416 -2.2703,-9.84008 -9.84577,-15.89086 -18.69495,-12.94114 -5.54798,1.84921 -10.07589,5.62568 -14.16877,5.96326 -8.24952,0.67948 -12.57469,0.86434 -6.8771,5.86219 z"
     id="path3786"
     style="fill:#ffffff;stroke:#000000;stroke-width:1.48809063;stroke-linecap:butt;stroke-linejoin:miter;stroke-miterlimit:4;stroke-opacity:1;stroke-dasharray:none" />
  <path
     d="m 298.44557,420.34417 14.25884,-5.43205 c 4.10137,-1.56255 -5.16534,-7.61151 -11.99534,-4.07369 -6.61192,3.42456 -4.12543,10.21516 -2.2635,9.50574 z"
     id="path3788"
     style="fill:#0091f9;fill-opacity:1;stroke:#000000;stroke-width:1.48809063;stroke-linecap:butt;stroke-linejoin:miter;stroke-miterlimit:4;stroke-opacity:1;stroke-dasharray:none" />
  <path
     d="m 315.98596,423.62567 -13.12676,4.75305 c -3.20819,1.16164 0.78358,9.51155 8.48709,7.12927 8.24517,-2.54963 7.65214,-12.97287 4.63967,-11.88232 z"
     id="path3790"
     style="fill:#0091f9;fill-opacity:1;stroke:#000000;stroke-width:1.48809063;stroke-linecap:butt;stroke-linejoin:miter;stroke-miterlimit:4;stroke-opacity:1;stroke-dasharray:none" />
  <path
     d="m 338.3256,417.90301 c 7.22483,-0.51738 15.60012,2.09684 18.44386,-8.09183 1.46051,-5.23415 -1.62768,-14.97303 -10.84296,-18.40042 -2.53388,-0.94233 -7.43858,-0.664 -9.38541,1.7434 -2.04854,2.53263 -0.56571,6.83236 3.9084,7.73384 3.22184,0.6496 7.72268,4.84981 3.85645,4.87749 -9.05497,0.0652 -9.12306,6.8883 -10.78685,4.82169 -3.65017,-4.53265 -0.85574,-8.84823 -7.48955,-11.9714 -3.86101,-1.81805 -0.28755,-6.54861 6.25874,-8.03936 6.05798,-1.37932 9.96551,-6.25012 14.19717,-7.47877 10.00003,-2.90387 23.12297,11.5612 22.35626,19.39789 -1.99276,20.36903 -18.03864,16.64994 -19.33831,20.94974 -1.07118,3.54405 -4.61011,1.06447 -6.48247,-0.73123 -1.15239,-1.1059 -4.19924,-0.42855 -4.69533,-4.81104 z"
     id="path3792"
     style="fill:#ffffff;stroke:#000000;stroke-width:1.48809063;stroke-linecap:butt;stroke-linejoin:miter;stroke-miterlimit:4;stroke-opacity:1;stroke-dasharray:none" />
  <path
     d="m 358.28017,375.31231 c 0.96347,-13.10602 19.10483,-10.47112 27.72627,-9.96226 -2.32952,5.06891 -2.59854,11.29528 1.16044,13.24296 3.22346,1.67027 6.20129,0.68121 10.40229,-2.96059 -7.51439,-8.67311 -14.72321,-17.65864 -24.48563,-17.60389 0.59194,-5.95523 3.97452,-9.63164 9.2023,-13.04322 2.53308,8.79481 12.78373,15.69217 19.84427,23.04535 1.43615,1.49539 5.14845,0.36347 7.4086,2.67956 -4.75212,5.73981 -8.35576,11.87475 -14.37015,17.00475 -9.54976,8.14618 -20.49422,-1.47546 -18.48432,-14.56304 -7.65131,-0.96775 -14.63499,-3.6e-4 -18.40407,2.16038 z"
     id="path3794"
     style="fill:#ffffff;stroke:#000000;stroke-width:1.48809063;stroke-linecap:butt;stroke-linejoin:miter;stroke-miterlimit:4;stroke-opacity:1;stroke-dasharray:none" />
  <path
     d="m 411.15603,365.57336 c -2.29208,-14.24831 -8.08043,-22.84645 -18.10631,-31.23295 -2.26967,-1.8986 -0.61456,-9.9983 2.37651,-10.07163 18.73867,-0.45858 20.16424,6.67467 38.24923,3.05554 0.62402,4.55671 -2.5327,4.84291 -3.26372,10.76787 -0.43949,3.56168 -3.30669,3.42165 -4.99171,1.44549 -2.87967,-3.37806 -13.25585,-3.3919 -21.05382,-3.61301 3.95476,4.38698 7.71683,17.60774 12.22178,17.76631 3.53966,0.12472 -0.81312,11.29746 -5.43196,11.88238 z"
     id="path3796"
     style="fill:#ffffff;stroke:#000000;stroke-width:1.48809063;stroke-linecap:butt;stroke-linejoin:miter;stroke-miterlimit:4;stroke-opacity:1;stroke-dasharray:none" />
  <path
     d="m 408.77949,285.11425 c -0.12042,9.42387 -7.27364,20.37196 -5.67734,26.01956 2.47044,8.74079 14.96736,5.93373 15.68013,4.48199 0.57328,-1.16683 2.1587,-0.0645 2.0636,0.58913 -0.92639,6.35473 11.74847,8.1306 17.03579,0.34148 4.64771,-6.84655 7.16261,-12.48961 8.80758,-21.69984 0.40202,-2.25266 -1.84736,-0.25262 -3.03461,0.35335 -7.941,4.05259 -6.12197,-0.3823 -17.83031,-3.16745 -4.86976,-1.15821 -10.63158,-0.24199 -11.37812,-4.47738 -0.75382,-4.27953 -5.63398,-4.97225 -5.66672,-2.44084 z"
     id="path3798"
     style="fill:#ffffff;stroke:#000000;stroke-width:1.48809063;stroke-linecap:butt;stroke-linejoin:miter;stroke-miterlimit:4;stroke-opacity:1;stroke-dasharray:none" />
  <path
     d="m 413.41292,297.77487 c 3.64498,1.77905 9.71484,5.352 23.12515,7.68157 -0.5428,4.84505 -4.54482,7.04415 -6.64163,6.40134 -6.11329,-1.87424 -4.90227,-8.30171 -6.48138,-8.962 -1.70555,-0.71299 -4.93915,5.42036 -8.08203,5.12143 -3.4989,-0.33325 -4.69291,-6.95776 -1.92011,-10.24234 z"
     id="path3800"
     style="fill:#0091f9;fill-opacity:1;stroke:#000000;stroke-width:1.48809063;stroke-linecap:butt;stroke-linejoin:miter;stroke-miterlimit:4;stroke-opacity:1;stroke-dasharray:none" />
  <path
     d="m 418.63168,270.38491 c 0.922,4.79467 -2.85563,4.47835 -4.5966,1.51459 -2.51872,-4.28806 -1.78209,-10.98226 5.37926,-13.09352 5.15896,-1.52139 12.93319,-1.75982 18.48387,-3.6809 4.59781,-1.59137 7.9326,-7.26568 0,-7.52167 -5.22064,-0.16857 -11.31749,-0.0464 -17.20389,0 -1.76634,0.007 -2.15781,4.0456 -5.68131,3.84066 -0.96043,-6.93699 -0.63344,-13.72447 0,-15.8434 3.05886,0.34685 3.38396,2.89699 5.2814,2.88034 l 18.24399,-0.16037 c 4.91686,-0.0438 9.09053,-5.89255 0.16042,-9.28213 -6.36519,-2.41577 -25.04944,2.9926 -25.92569,-13.92326 -0.22413,-4.32533 4.20299,-3.73505 4.63533,-0.0473 0.76877,6.55878 15.38288,3.45555 24.24542,3.68081 8.37852,0.21302 10.79749,7.18125 10.51574,14.93836 -0.0554,1.57741 -2.04513,1.38976 -2.02794,2.71251 0.0228,1.66504 2.33618,-0.21849 2.44582,5.21097 0.0899,4.39696 -1.80692,2.87105 -1.88416,4.55131 -0.0671,1.44084 1.79065,0.93091 1.80568,2.27605 0.13219,11.77683 -5.20848,17.59911 -12.20979,18.2086 -8.47056,0.73734 -22.84468,-2.38688 -21.66715,3.73744 z"
     id="path3802"
     style="fill:#ffffff;stroke:#000000;stroke-width:1.48809063;stroke-linecap:butt;stroke-linejoin:miter;stroke-miterlimit:4;stroke-opacity:1;stroke-dasharray:none" />
  <path
     d="m 411.26904,193.22609 c -3.19717,2.60617 0.1195,11.00796 3.05545,11.76893 7.24909,1.87964 29.83705,4.04172 30.78045,6.11082 1.97405,4.32992 5.45322,2.9371 5.4316,1.0184 -0.054,-4.89125 -0.10552,-8.05591 -1.81065,-10.75021 -0.90581,-1.4328 -3.62854,-0.94957 -4.63968,1.35786 -10.10458,1.73277 -10.51768,-3.36804 -22.29306,-3.84739 l 15.61676,-15.27732 c 1.21675,-1.19036 5.62222,0.47338 5.65794,-3.05535 0.0507,-5.06213 -2.8414,-9.91151 -5.20553,-13.80558 -1.04882,-2.06568 -3.86585,3.35966 -2.71563,7.01582 0.6459,1.90517 -15.91831,12.97622 -23.87765,19.46402 z"
     id="path3804"
     style="fill:#ffffff;stroke:#000000;stroke-width:1.48809063;stroke-linecap:butt;stroke-linejoin:miter;stroke-miterlimit:4;stroke-opacity:1;stroke-dasharray:none" />
  <path
     d="m 412.54155,179.72082 c 14.57871,3.44609 -4.90376,7.5096 -6.81757,4.79175 -4.28253,-6.08185 -4.68486,-15.60987 -8.03459,-18.78509 -3.56761,-3.38168 23.16986,-9.93314 32.13834,-20.02953 4.81502,2.80346 5.66347,8.60937 3.62128,12.22134 -7.89563,-1.58401 -19.05999,7.17458 -27.27205,11.09012 -0.38514,5.51514 3.18897,9.96086 6.36459,10.71141 z"
     id="path3806"
     style="fill:#ffffff;stroke:#000000;stroke-width:1.48809063;stroke-linecap:butt;stroke-linejoin:miter;stroke-miterlimit:4;stroke-opacity:1;stroke-dasharray:none" />
  <path
     d="m 402.05052,154.71302 c 1.97867,1.11864 -6.06372,4.38979 -7.1309,3.14504 -4.98338,-5.81354 -9.4318,-13.75363 -11.84358,-17.04928 -1.31078,-1.79036 -0.30259,-2.83433 2.88204,-3.45984 6.08758,-1.19547 25.86028,-14.18255 26.73658,-20.35573 3.64864,1.65629 7.12033,8.19089 6.80453,12.94052 -11.70401,-0.21149 -19.819,9.81958 -27.22238,14.46802 0.23368,5.52398 7.92759,9.26739 9.77371,10.31127 z"
     id="path3806-1"
     style="fill:#ffffff;stroke:#000000;stroke-width:1.48809063;stroke-linecap:butt;stroke-linejoin:miter;stroke-miterlimit:4;stroke-opacity:1;stroke-dasharray:none" />
  <path
     d="m 370.76316,121.65466 c 0.40427,5.31057 6.32176,11.98567 10.72241,12.88272 0.0776,-5.78199 2.64898,-10.73789 5.99721,-10.07817 6.61884,1.30431 9.83649,-4.57249 9.76629,-8.80597 -0.0681,-4.06559 7.84011,-4.34667 10.88246,-4.72111 -1.29319,-4.73092 -7.08668,-10.32074 -10.64216,-12.242972 0.0643,5.517212 -2.68609,10.176832 -5.95054,10.562752 -5.86467,0.69218 -7.92594,3.45783 -8.65396,7.69542 -0.89278,5.19239 -9.40965,4.01029 -12.12171,4.70733 z"
     id="path3826"
     style="fill:#ffffff;stroke:#000000;stroke-width:1.48809063;stroke-linecap:butt;stroke-linejoin:miter;stroke-miterlimit:4;stroke-opacity:1;stroke-dasharray:none" />
  <path
     d="m 383.43097,100.88544 c -0.68938,0.5137 -2.20566,-0.0457 -1.85552,-2.029193 1.29915,-7.371358 -3.82498,-14.973378 -10.93172,-14.605952 -4.48198,0.23174 -11.85884,3.906171 -12.56124,14.937379 -0.31126,4.890306 2.08454,8.598726 5.09249,7.921606 6.74685,-1.51899 2.43456,-10.483581 5.43161,-11.429461 3.28967,-1.038246 14.87727,9.626311 10.52411,10.071311 -10.0379,1.02652 -11.94202,15.42583 -14.25842,12.67426 -6.4776,-7.69458 -20.6711,-16.90676 -20.02953,-21.161231 1.46694,-9.733596 6.24809,-20.800161 18.44526,-23.651274 11.73213,-2.741969 17.06899,6.487526 21.38769,11.194015 2.12507,2.315482 4.6938,0.777019 4.30027,3.404229 -0.55548,3.711883 -1.84965,9.921233 -5.545,12.674311 z"
     id="path3828"
     style="fill:#ffffff;stroke:#000000;stroke-width:1.48809063;stroke-linecap:butt;stroke-linejoin:miter;stroke-miterlimit:4;stroke-opacity:1;stroke-dasharray:none" />
  <path
     d="m 340.31614,53.696339 c 2.87909,-1.303458 15.36386,6.217491 16.74795,10.411045 -3.77243,1.580905 -9.71647,2.062815 -9.27935,7.468733 0.29383,3.634057 -0.0722,7.60542 -5.54506,9.052901 -4.59276,1.215151 -7.64038,4.909951 -5.77134,12.221781 -4.83813,0.08007 -13.5075,-4.084436 -15.27688,-7.355654 2.26408,-1.268917 10.24166,-4.353431 9.84534,-10.071573 -0.34669,-5.00024 1.86429,-8.987799 5.88446,-10.071391 3.49958,-0.943502 5.00701,-6.127961 3.39488,-11.655842 z"
     id="path3830"
     style="fill:#ffffff;stroke:#000000;stroke-width:1.48809063;stroke-linecap:butt;stroke-linejoin:miter;stroke-miterlimit:4;stroke-opacity:1;stroke-dasharray:none" />
  <path
     d="m 191.4821,397.67732 c 36.72971,-13.93802 37.38142,0.93905 64.45488,0.36023"
     id="path3832"
     style="fill:none;stroke:#000000;stroke-width:0.99206144px;stroke-linecap:round;stroke-linejoin:miter;stroke-opacity:1" />
  <path
     d="m 253.85647,350.66662 c 13.89925,-7.9412 20.21136,10.71567 38.50858,9.70221"
     id="path3834"
     style="fill:none;stroke:#000000;stroke-width:0.99206144px;stroke-linecap:round;stroke-linejoin:miter;stroke-opacity:1" />
  <path
     d="m 228.57057,342.66494 c 14.71587,-1.40806 16.25978,-6.48204 26.37529,-6.34449 15.52446,0.21168 29.93145,13.94851 53.40315,14.98639"
     id="path3836"
     style="fill:none;stroke:#000000;stroke-width:0.99206144px;stroke-linecap:round;stroke-linejoin:miter;stroke-opacity:1" />
  <path
     d="m 146.23227,337.18289 c 16.90961,-8.49911 26.99199,10.0933 47.65088,9.03949"
     id="path3838"
     style="fill:none;stroke:#000000;stroke-width:0.99206144px;stroke-linecap:round;stroke-linejoin:miter;stroke-opacity:1" />
  <path
     d="m 368.71998,324.04238 c 3.53264,-0.47071 8.40996,0.60583 11.17627,2.27637"
     id="path3840"
     style="fill:none;stroke:#000000;stroke-width:0.99206144px;stroke-linecap:round;stroke-linejoin:miter;stroke-opacity:1" />
  <path
     d="m 355.93233,320.64747 c -27.91326,-1.73508 -36.62361,18.55499 -57.48676,17.8797 -26.13222,-0.84546 -30.88819,-12.83971 -52.73364,-12.22125 -19.57617,0.55409 -29.6709,12.94003 -48.20751,12.44777 -26.35511,-0.69978 -39.18876,-23.68131 -62.6073,-11.65599"
     id="path3842"
     style="fill:none;stroke:#000000;stroke-width:1.28968048;stroke-linecap:round;stroke-linejoin:miter;stroke-miterlimit:4;stroke-opacity:1;stroke-dasharray:none" />
  <path
     d="m 344.59718,331.78248 c 8.62611,-1.25832 19.86285,-0.009 29.44652,3.36085"
     id="path3844"
     style="fill:none;stroke:#000000;stroke-width:0.99206144px;stroke-linecap:round;stroke-linejoin:miter;stroke-opacity:1" />
  <path
     d="m 370.20275,340.10427 c -43.4231,-13.76324 -76.87962,29.17301 -99.06258,26.7262 -23.06103,-2.54385 -31.20763,-15.99409 -47.53051,-15.20369 -17.63199,0.85417 -26.49613,9.86238 -40.80958,7.20201 -41.08578,-7.63725 -43.5372,-51.37152 -87.05974,-37.76871"
     id="path3846"
     style="fill:none;stroke:#000000;stroke-width:1.28968048;stroke-linecap:butt;stroke-linejoin:miter;stroke-miterlimit:4;stroke-opacity:1;stroke-dasharray:none" />
  <path
     d="m 104.70223,333.86299 c 35.59647,-3.94706 46.10207,30.05989 71.05639,32.64737 20.13769,2.08809 31.21291,-5.08901 46.41061,-3.52099 19.77126,2.04027 27.41016,12.9593 48.01071,13.12321 32.26403,0.25627 45.56139,-31.48325 89.06055,-23.16528"
     id="path3848"
     style="fill:none;stroke:#000000;stroke-width:0.99206144px;stroke-linecap:butt;stroke-linejoin:miter;stroke-opacity:1" />
  <path
     d="m 115.66503,348.22625 c 21.76491,-1.32794 31.28723,20.15475 61.05392,26.6059 17.34418,2.23385 26.35195,-2.58012 42.56951,-2.2405 23.25415,0.48686 23.86962,10.77292 50.57181,11.52261 36.165,-2.10618 37.13908,-22.69382 77.13753,-18.56403"
     id="path3850"
     style="fill:none;stroke:#000000;stroke-width:1.28968048;stroke-linecap:butt;stroke-linejoin:miter;stroke-miterlimit:4;stroke-opacity:1;stroke-dasharray:none" />
  <path
     d="m 142.47104,373.55191 c 19.53324,6.78302 40.8114,11.17796 75.53718,8.96191 22.08548,-1.40889 35.89323,9.18525 53.13195,8.64233 25.44375,-0.80177 33.32177,-15.10963 56.97312,-11.96315"
     id="path3852"
     style="fill:none;stroke:#000000;stroke-width:0.99206144px;stroke-linecap:butt;stroke-linejoin:miter;stroke-opacity:1" />
  <path
     d="m 326.17054,57.996589 c -0.77743,1.84705 -6.98837,-8.125259 -9.05276,-9.732162 -3.03352,-2.360723 -8.38463,2.42698 -5.54504,5.092489 9.81282,9.212073 16.034,20.799157 6.11083,25.574868 -11.41363,5.492649 -14.95,-6.523085 -24.78262,-3.960821 -4.8687,1.26862 -3.22437,-13.812458 0.22608,-15.390185 2.37839,-1.087371 0.62117,5.241865 8.93992,9.84528 5.0102,2.772366 12.02,-0.630937 5.88443,-6.223995 -9.36617,-8.53807 -10.63991,-13.551116 -8.82653,-18.445635 2.56709,-6.929101 12.04425,-5.729377 16.06917,-3.960686 3.98829,1.752911 6.41852,5.976724 9.25389,5.350694 3.63435,-0.802513 3.84408,6.811755 1.72263,11.850153 z"
     id="path3854"
     style="fill:#ffffff;stroke:#000000;stroke-width:1.48809063;stroke-linecap:butt;stroke-linejoin:miter;stroke-miterlimit:4;stroke-opacity:1;stroke-dasharray:none" />
  <path
     d="m 172.15591,163.80372 c -1.26406,-0.0216 -10.59865,8.45967 -10.7505,16.40858 l -0.5659,29.64878 c -0.0924,4.81124 -6.379,4.63051 -6.56336,0.67894 -0.17721,-3.80822 -0.95898,-7.2848 -3.05545,-9.50581 -2.9493,-3.12447 -10.92063,-1.92699 -12.10833,0.67928 -1.53473,3.36741 -1.49899,6.00737 -2.60263,8.14759 -2.93147,5.68465 -9.44788,2.90677 -10.52411,-0.22639 -0.97433,-2.83559 -0.94159,-6.45669 -2.94243,-8.48706 -3.39544,-3.44629 -7.67833,-0.66771 -7.92114,-0.11356 -2.2144,5.04704 0.42034,11.58899 -4.01816,16.64201 -13.328028,15.17377 -21.221789,19.60548 -34.887927,24.48579 -1.13733,14.4153 1.380792,30.40071 6.061294,44.49015 12.084248,-1.62642 23.789993,1.78203 30.691433,4.12048 l 225.53669,23.31144 c 14.33953,-41.08573 53.27607,-21.59717 56.38633,-19.75945 7.7322,-21.66224 9.04189,-39.92114 8.6822,-53.00415 -24.06578,1.70429 -25.80546,-10.18884 -29.938,-15.2658 -4.87442,-5.98886 -4.37594,-15.65048 -8.11754,-26.83201 -2.33879,-6.98873 -13.55797,-7.76682 -14.73066,-2.72621 -2.37855,10.22252 -12.906,11.12617 -13.97956,4.08532 -1.85978,-2.01461 -1.15519,-5.1432 -1.69768,-7.80819 -0.79279,-3.89421 -9.23322,-1.97377 -10.29767,2.43282 l -2.03718,8.43076 c -1.26873,5.25133 -11.07576,5.46494 -11.31598,-0.67895 -0.43701,-11.16869 3.77124,-22.92916 1.86193,-34.28195 -0.58055,-3.45155 -7.22033,-2.68444 -9.86399,-2.72758 z"
     id="path3869"
     style="fill:#ffffff;stroke:#000000;stroke-width:1.68700004;stroke-linecap:butt;stroke-linejoin:miter;stroke-miterlimit:4;stroke-opacity:1;stroke-dasharray:none" />
  <path
     d="m 163.27563,165.8247 144.26608,-0.13368 c 6.14136,-0.003 7.33092,-6.08209 8.08861,-12.03006 1.52634,-11.97876 -4.38193,-16.99708 -2.88034,-22.24508 2.21127,-7.73066 3.48568,-16.41908 3.52056,-26.72622 0.0235,-6.772415 -24.65732,-7.946681 -25.92569,-3.84095 -2.36938,7.67026 -0.99948,15.71449 -2.88068,20.80475 -3.42372,9.26344 -27.20075,10.2263 -29.76669,-0.96 -1.95323,-8.51411 0.88804,-13.77029 -1.12035,-20.16477 -1.67081,-5.317901 -29.82812,-8.325281 -33.92774,-1.6002 -4.85425,7.96258 0.54062,21.01851 -4.96911,25.39896 -4.46218,3.54685 -16.12403,12.41371 -31.19925,-0.11366 -3.99698,-3.32121 -1.21126,-13.03338 -2.72066,-18.40409 -1.96903,-7.006053 -21.22572,-4.94535 -22.40513,-1.1203 -3.19177,10.35368 2.72777,22.09869 -1.30755,31.191 -1.7745,3.99794 -1.65964,8.6352 -1.58314,12.77002 0.18222,9.80926 0.90042,17.17652 4.81108,17.17286 z"
     id="path3865"
     style="fill:#ffffff;stroke:#000000;stroke-width:1.68650305;stroke-linecap:butt;stroke-linejoin:miter;stroke-miterlimit:4;stroke-opacity:1;stroke-dasharray:none" />
  <path
     d="m 202.88852,130.9062 c 38.50657,-1.85904 8.67513,-27.50606 29.77404,-35.662313"
     id="path3867"
     style="fill:none;stroke:#000000;stroke-width:1.19047439;stroke-linecap:butt;stroke-linejoin:miter;stroke-miterlimit:4;stroke-opacity:1;stroke-dasharray:none" />
  <path
     d="m 168.66971,101.88984 c -5.48834,7.2054 -1.675,17.27955 -2.62463,27.96501 -0.34257,3.8578 -9.06268,32.17938 4.86607,33.15703"
     id="path3871"
     style="fill:none;stroke:#000000;stroke-width:1.19047439;stroke-linecap:round;stroke-linejoin:miter;stroke-miterlimit:4;stroke-opacity:1;stroke-dasharray:none" />
  <path
     d="m 295.88839,98.989094 c -8.89869,13.685616 6.64388,30.209856 -20.7474,29.982136"
     id="path3873"
     style="fill:none;stroke:#000000;stroke-width:1.19047439;stroke-linecap:butt;stroke-linejoin:miter;stroke-miterlimit:4;stroke-opacity:1;stroke-dasharray:none" />
  <g
     transform="matrix(0.99206139,0,0,0.99206139,1.9590216,6.507412)"
     id="g3897">
    <path
       d="m 251.66351,136.73953 a 1.2262357,1.28327 0 1 1 -2.45247,0 1.2262357,1.28327 0 1 1 2.45247,0 z"
       id="path3885"
       style="fill:#000000;fill-opacity:1;stroke:none" />
    <path
       d="m 252.04849,136.58626 a 0.349335,0.39567533 0 1 1 -0.69867,0 0.349335,0.39567533 0 1 1 0.69867,0 z"
       transform="matrix(2.8265305,0,0,2.4234234,-460.63093,-194.22759)"
       id="path3887"
       style="fill:#ffffff;fill-opacity:1;stroke:none" />
  </g>
  <use
     transform="matrix(-0.70858476,-0.69432892,0.69432892,-0.70858476,257.79805,431.31247)"
     id="use3889"
     x="0"
     y="0"
     width="480"
     height="480"
     xlink:href="#path3885" />
  <use
     transform="matrix(-0.70858476,-0.69432892,0.69432892,-0.70858476,257.79805,431.31247)"
     id="use3891"
     x="0"
     y="0"
     width="480"
     height="480"
     xlink:href="#path3887" />
  <use
     transform="matrix(0.51329711,-0.84894738,0.84894738,0.51329711,-71.48239,256.0515)"
     id="use3893"
     x="0"
     y="0"
     width="480"
     height="480"
     xlink:href="#path3885" />
  <use
     transform="matrix(0.51329711,-0.84894738,0.84894738,0.51329711,-71.48239,256.0515)"
     id="use3895"
     x="0"
     y="0"
     width="480"
     height="480"
     xlink:href="#path3887" />
  <use
     transform="matrix(-0.86708782,-0.49815532,0.49815532,-0.86708782,360.57036,426.5781)"
     id="use3902"
     x="0"
     y="0"
     width="480"
     height="480"
     xlink:href="#g3897" />
  <use
     transform="matrix(0.25045237,-0.59127095,0.59127095,0.25045237,48.45224,271.6364)"
     id="use3904"
     x="0"
     y="0"
     width="480"
     height="480"
     xlink:href="#g3897" />
  <use
     transform="matrix(0.61049779,0,0,0.61111111,114.25757,89.955498)"
     id="use3906"
     x="0"
     y="0"
     width="480"
     height="480"
     xlink:href="#g3897" />
  <use
     transform="matrix(0.83766681,0.54618157,-0.54618157,0.83766681,136.59069,-69.036684)"
     id="use3908"
     x="0"
     y="0"
     width="480"
     height="480"
     xlink:href="#g3897" />
  <use
     transform="matrix(-0.44119097,0.77167372,-0.87236469,-0.39026738,501.432,67.274345)"
     id="use3910"
     x="0"
     y="0"
     width="480"
     height="480"
     xlink:href="#g3897" />
  <path
     d="m 111.38769,290.2069 c 14.54645,5.04286 19.10961,11.63768 26.81935,20.93515 6.08497,-1.3967 11.65981,-1.58981 19.14751,1.43609 14.7005,5.94016 25.3094,15.96168 41.60947,16.32357 17.73019,0.39383 31.30468,-13.12771 47.69095,-13.9233 15.77603,-0.76575 33.05896,13.208 52.17182,12.32285 13.86088,-0.64155 24.28534,-8.83841 41.36859,-13.56209 14.51689,-15.2783 34.67438,-46.15222 46.49134,-77.01822 l 8.16173,-17.92444 c 1.23415,-2.70955 0.37491,-17.34455 -1.7605,-14.08325 l -23.36491,35.6883 C 320.01372,316.32703 155.1459,297.16121 107.76632,238.94388 100.11,229.53623 93.439917,220.60732 88.378805,211.67497 c -7.031346,31.31828 14.681405,56.14312 23.008885,78.53193 z"
     id="path3912"
     style="fill:#ffffff;stroke:#000000;stroke-width:1.68650305;stroke-linecap:butt;stroke-linejoin:miter;stroke-miterlimit:4;stroke-opacity:1;stroke-dasharray:none" />
  <path
     d="M 97.744992,237.22751 C 136.58881,289.48328 298.42822,343.0931 387.40674,234.96045"
     id="path3057"
     style="fill:none;stroke:#000000;stroke-width:1.19047439;stroke-linecap:butt;stroke-linejoin:miter;stroke-miterlimit:4;stroke-opacity:1;stroke-dasharray:none" />
  <path
     d="m 97.355249,236.90683 c 0.888861,25.3454 25.647491,45.44077 31.811761,63.82363"
     id="path3059"
     style="fill:none;stroke:#000000;stroke-width:1.68650305;stroke-linecap:butt;stroke-linejoin:miter;stroke-miterlimit:4;stroke-opacity:1;stroke-dasharray:none" />
  <path
     d="m 375.5098,248.22323 c -8.12619,18.42805 -23.57901,47.89366 -43.00185,68.01096"
     id="path3061"
     style="fill:none;stroke:#000000;stroke-width:1.68650305;stroke-linecap:butt;stroke-linejoin:miter;stroke-miterlimit:4;stroke-opacity:1;stroke-dasharray:none" />
  <path
     d="M 365.04569,269.50233 C 305.80142,309.48231 213.97196,336.21882 103.50214,258.16576"
     id="path3063"
     style="fill:none;stroke:#000000;stroke-width:1.48809063;stroke-linecap:butt;stroke-linejoin:miter;stroke-miterlimit:4;stroke-opacity:1;stroke-dasharray:none" />
  <path
     d="m 356.7828,284.3791 c -17.74129,15.80034 -60.54566,31.41247 -93.57676,33.93647"
     id="path3065"
     style="fill:none;stroke:#000000;stroke-width:1.28968048;stroke-linecap:butt;stroke-linejoin:miter;stroke-miterlimit:4;stroke-opacity:1;stroke-dasharray:none" />
  <path
     d="M 229.13091,319.9397 C 190.9599,311.14631 151.03902,300.28501 114.6249,276.72998"
     id="path3067"
     style="fill:none;stroke:#000000;stroke-width:1.28968048;stroke-linecap:butt;stroke-linejoin:miter;stroke-miterlimit:4;stroke-opacity:1;stroke-dasharray:none" />
  <path
     d="m 213.68749,325.70081 c -33.76026,-6.62882 -64.33092,-18.69642 -87.0602,-30.72689"
     id="path3069"
     style="fill:none;stroke:#000000;stroke-width:0.99206144px;stroke-linecap:butt;stroke-linejoin:miter;stroke-opacity:1" />
  <path
     d="m 283.94318,325.78106 c 20.84846,-4.79077 40.95185,-12.90339 59.69383,-22.80504"
     id="path3071"
     style="fill:none;stroke:#000000;stroke-width:0.99206144px;stroke-linecap:butt;stroke-linejoin:miter;stroke-opacity:1" />
  <path
     d="m 112.00571,237.92662 c 35.36256,-13.27738 63.1818,-15.10177 63.7474,-20.78065 l 0.57135,-5.73855 c 0.40265,-4.04477 11.43724,-5.17137 12.31698,-1.33296 0.7228,3.15354 1.31406,6.33991 3.20079,9.20221 2.02312,3.06959 10.92291,3.58121 14.71515,-1.381 1.80028,-2.35536 2.57818,-5.34298 3.28193,-8.60041 1.02355,-4.74049 13.39826,-7.2534 15.84255,-1.35787 l 3.84789,9.27934 c 1.5914,3.8381 11.84985,4.93448 15.84269,-0.56582 1.25025,-1.72249 2.30346,-3.58423 2.82901,-7.01622 0.93404,-6.09907 14.19618,-5.39188 15.16379,-1.24476 l 1.58416,6.78976 c 1.25004,5.35765 14.54543,5.14592 15.16394,0.90523 l 0.79226,-5.43155 c 0.79828,-5.47402 15.23066,-4.14567 15.27675,0.67893 0.0282,2.9913 -0.37754,8.41657 2.60304,9.16599 13.44855,3.38305 43.21141,10.97625 55.75373,16.32436"
     id="path3841"
     style="fill:none;stroke:#000000;stroke-width:1.48809063;stroke-linecap:round;stroke-linejoin:miter;stroke-miterlimit:4;stroke-opacity:1;stroke-dasharray:none" />
  <path
     d="m 203.2596,178.01431 a 10.606602,10.001662 0 1 1 -21.2132,0 10.606602,10.001662 0 1 1 21.2132,0 z"
     transform="matrix(0.84545236,0,0,0.84545236,30.923739,33.085949)"
     id="path3843"
     style="fill:#ffffff;fill-opacity:1;stroke:#000000;stroke-width:1.5;stroke-linecap:round;stroke-miterlimit:4;stroke-opacity:1;stroke-dasharray:none" />
  <use
     transform="matrix(0.84667695,0,0,0.79136602,30.548204,39.632606)"
     id="use3863"
     style="fill:none"
     x="0"
     y="0"
     width="480"
     height="480"
     xlink:href="#path3843" />
  <path
     d="m 295.21035,175.87686 a 9.316065,8.6707966 0 1 1 -18.63213,0 9.316065,8.6707966 0 1 1 18.63213,0 z"
     transform="matrix(0.85825829,0.49104916,-0.49104916,0.85825829,127.29698,-110.26791)"
     id="path3875"
     style="fill:#ffffff;fill-opacity:1;stroke:#000000;stroke-width:1.5;stroke-linecap:round;stroke-miterlimit:4;stroke-opacity:1;stroke-dasharray:none" />
  <path
     d="m 227.13018,204.39324 c 3.12518,-2.94381 1.77583,-12.59536 1.92055,-23.20495 0.20978,-15.34917 26.79595,-16.19964 27.12541,0.48448 l 0.35826,18.15577 c -0.45692,1.08957 1.19742,2.09628 2.60302,0.8841"
     id="path3895"
     style="fill:none;stroke:#000000;stroke-width:0.99206144px;stroke-linecap:round;stroke-linejoin:miter;stroke-opacity:1" />
  <path
     d="m 232.65143,179.18759 c 2.08063,-8.69516 20.08652,-7.80094 20.16492,1.52054 l 0.16046,19.04425"
     id="path3897"
     style="fill:none;stroke:#000000;stroke-width:0.99206144px;stroke-linecap:round;stroke-linejoin:miter;stroke-opacity:1" />
  <path
     d="m 233.65178,188.98979 2.88078,-0.0412"
     id="path3899"
     style="fill:none;stroke:#000000;stroke-width:0.99206144px;stroke-linecap:round;stroke-linejoin:miter;stroke-opacity:1" />
  <path
     d="m 233.93179,193.11087 6.60139,-0.0786"
     id="path3901"
     style="fill:none;stroke:#000000;stroke-width:0.99206144px;stroke-linecap:round;stroke-linejoin:miter;stroke-opacity:1" />
  <path
     d="m 234.172,199.15232 c 4.70518,-0.20093 8.48672,0.68954 8.28173,-2.48086"
     id="path3903"
     style="fill:none;stroke:#000000;stroke-width:0.99206144px;stroke-linecap:round;stroke-linejoin:miter;stroke-opacity:1" />
  <path
     d="m 107.33522,238.99096 c 31.57597,-6.85085 51.00176,-3.51427 94.76041,-9.00337 44.79181,-5.6183 100.00124,-7.04603 167.86917,10.65397"
     id="path3906"
     style="fill:none;stroke:#000000;stroke-width:1.48809063;stroke-linecap:butt;stroke-linejoin:miter;stroke-miterlimit:4;stroke-opacity:1;stroke-dasharray:none" />
  <path
     d="m 258.04663,232.83306 7.2423,-6.33698"
     id="path3908"
     style="fill:none;stroke:#000000;stroke-width:0.99206144px;stroke-linecap:butt;stroke-linejoin:miter;stroke-opacity:1" />
  <path
     d="m 264.3836,235.66207 9.61884,-9.27935"
     id="path3910"
     style="fill:none;stroke:#000000;stroke-width:0.99206144px;stroke-linecap:butt;stroke-linejoin:miter;stroke-opacity:1" />
  <path
     d="m 267.09952,241.54651 16.06917,-14.71087"
     id="path3913"
     style="fill:none;stroke:#000000;stroke-width:0.99206144px;stroke-linecap:butt;stroke-linejoin:miter;stroke-opacity:1" />
  <path
     d="m 272.19211,248.11025 21.27432,-20.36934"
     id="path3915"
     style="fill:none;stroke:#000000;stroke-width:0.99206144px;stroke-linecap:butt;stroke-linejoin:miter;stroke-opacity:1" />
  <path
     d="m 279.09503,249.35505 22.8588,-21.27465"
     id="path3917"
     style="fill:none;stroke:#000000;stroke-width:0.99206144px;stroke-linecap:butt;stroke-linejoin:miter;stroke-opacity:1" />
  <path
     d="m 282.26333,256.59731 29.7618,-26.81967"
     id="path3919"
     style="fill:none;stroke:#000000;stroke-width:0.99206144px;stroke-linecap:butt;stroke-linejoin:miter;stroke-opacity:1" />
  <path
     d="m 285.31884,254.10766 3.39491,4.86629"
     id="path3921"
     style="fill:none;stroke:#000000;stroke-width:0.99206144px;stroke-linecap:butt;stroke-linejoin:miter;stroke-opacity:1" />
  <path
     d="m 290.07152,249.80755 5.31904,8.48741"
     id="path3923"
     style="fill:none;stroke:#000000;stroke-width:0.99206144px;stroke-linecap:butt;stroke-linejoin:miter;stroke-opacity:1" />
  <path
     d="m 294.59819,245.84672 7.58211,12.7877"
     id="path3925"
     style="fill:none;stroke:#000000;stroke-width:0.99206144px;stroke-linecap:butt;stroke-linejoin:miter;stroke-opacity:1" />
  <path
     d="m 299.35087,241.66002 4.30027,6.56321"
     id="path3927"
     style="fill:none;stroke:#000000;stroke-width:0.99206144px;stroke-linecap:butt;stroke-linejoin:miter;stroke-opacity:1" />
  <path
     d="m 305.91467,235.7755 4.75268,7.69508"
     id="path3929"
     style="fill:none;stroke:#000000;stroke-width:0.99206144px;stroke-linecap:butt;stroke-linejoin:miter;stroke-opacity:1" />
  <path
     d="m 309.64899,231.70168 5.58303,9.01442"
     id="path3931"
     style="fill:none;stroke:#000000;stroke-width:0.99206144px;stroke-linecap:butt;stroke-linejoin:miter;stroke-opacity:1" />
  <path
     d="m 318.92833,230.23055 5.43165,15.50316"
     id="path3933"
     style="fill:none;stroke:#000000;stroke-width:0.99206144px;stroke-linecap:butt;stroke-linejoin:miter;stroke-opacity:1" />
  <path
     d="m 327.189,231.13575 7.12919,16.86112"
     id="path3935"
     style="fill:none;stroke:#000000;stroke-width:0.99206144px;stroke-linecap:butt;stroke-linejoin:miter;stroke-opacity:1" />
  <path
     d="m 349.48242,235.88853 -6.1109,8.14794"
     id="path3937"
     style="fill:none;stroke:#000000;stroke-width:0.99206144px;stroke-linecap:butt;stroke-linejoin:miter;stroke-opacity:1" />
  <path
     d="m 346.99245,248.90223 9.95863,-11.31609"
     id="path3939"
     style="fill:none;stroke:#000000;stroke-width:0.99206144px;stroke-linecap:butt;stroke-linejoin:miter;stroke-opacity:1" />
  <path
     d="m 210.06567,255.91844 c 16.18688,-15.91167 18.19106,-14.39007 18.44531,-28.29095"
     id="path3941"
     style="fill:none;stroke:#000000;stroke-width:0.99206144px;stroke-linecap:butt;stroke-linejoin:miter;stroke-opacity:1" />
  <path
     d="m 220.81589,227.74091 c -0.89292,10.99309 0.23073,8.08045 -19.57718,28.74336"
     id="path3943"
     style="fill:none;stroke:#000000;stroke-width:0.99206144px;stroke-linecap:butt;stroke-linejoin:miter;stroke-opacity:1" />
  <path
     d="m 197.84383,252.41052 c 14.60378,-17.04805 15.7493,-12.0787 16.2956,-23.76429"
     id="path3945"
     style="fill:none;stroke:#000000;stroke-width:0.99206144px;stroke-linecap:butt;stroke-linejoin:miter;stroke-opacity:1" />
  <path
     d="m 195.58073,246.52609 c 11.22012,-12.10777 12.43335,-10.98533 12.78729,-17.08792"
     id="path3947"
     style="fill:none;stroke:#000000;stroke-width:0.99206144px;stroke-linecap:butt;stroke-linejoin:miter;stroke-opacity:1" />
  <path
     d="m 202.93648,230.68294 -6.45039,9.16633"
     id="path3949"
     style="fill:none;stroke:#000000;stroke-width:0.99206144px;stroke-linecap:butt;stroke-linejoin:miter;stroke-opacity:1" />
  <path
     d="m 192.52538,231.13575 3.73428,5.09222"
     id="path3951"
     style="fill:none;stroke:#000000;stroke-width:0.99206144px;stroke-linecap:butt;stroke-linejoin:miter;stroke-opacity:1" />
  <path
     d="m 188.67755,231.9277 c 0.33991,0.67928 3.39491,5.2056 3.39491,5.2056"
     id="path3953"
     style="fill:none;stroke:#000000;stroke-width:0.99206144px;stroke-linecap:butt;stroke-linejoin:miter;stroke-opacity:1" />
  <path
     d="m 187.09332,238.37806 -4.52628,-6.45036"
     id="path3955"
     style="fill:none;stroke:#000000;stroke-width:0.99206144px;stroke-linecap:butt;stroke-linejoin:miter;stroke-opacity:1" />
  <path
     d="m 182.00127,240.41517 -4.97924,-8.03459"
     id="path3957"
     style="fill:none;stroke:#000000;stroke-width:0.99206144px;stroke-linecap:butt;stroke-linejoin:miter;stroke-opacity:1" />
  <path
     d="m 177.47458,242.56525 -6.78983,-9.5058"
     id="path3959"
     style="fill:none;stroke:#000000;stroke-width:0.99206144px;stroke-linecap:butt;stroke-linejoin:miter;stroke-opacity:1" />
  <path
     d="m 169.32701,239.73626 -4.41331,-6.33741"
     id="path3961"
     style="fill:none;stroke:#000000;stroke-width:0.99206144px;stroke-linecap:butt;stroke-linejoin:miter;stroke-opacity:1" />
  <path
     d="m 163.38581,244.71538 -7.86484,-10.86355"
     id="path3963"
     style="fill:none;stroke:#000000;stroke-width:0.99206144px;stroke-linecap:butt;stroke-linejoin:miter;stroke-opacity:1" />
  <path
     d="m 145.95884,242.62158 5.88452,-8.93953"
     id="path3965"
     style="fill:none;stroke:#000000;stroke-width:0.99206144px;stroke-linecap:butt;stroke-linejoin:miter;stroke-opacity:1" />
  <path
     d="m 138.15074,242.22582 6.44991,-7.92161"
     id="path3967"
     style="fill:none;stroke:#000000;stroke-width:0.99206144px;stroke-linecap:butt;stroke-linejoin:miter;stroke-opacity:1" />
  <path
     d="m 132.549,242.16911 6.78982,-7.69521"
     id="path3969"
     style="fill:none;stroke:#000000;stroke-width:0.99206144px;stroke-linecap:butt;stroke-linejoin:miter;stroke-opacity:1" />
  <path
     d="m 136.05689,250.26037 -15.16378,2.37617"
     id="path3971"
     style="fill:none;stroke:#000000;stroke-width:0.99206144px;stroke-linecap:butt;stroke-linejoin:miter;stroke-opacity:1" />
  <path
     d="m 145.44965,252.07106 -11.76101,8.47592"
     id="path3973"
     style="fill:none;stroke:#000000;stroke-width:0.99206144px;stroke-linecap:butt;stroke-linejoin:miter;stroke-opacity:1" />
  <path
     d="m 151.67352,253.8813 -13.63623,9.73232"
     id="path3975"
     style="fill:none;stroke:#000000;stroke-width:0.99206144px;stroke-linecap:butt;stroke-linejoin:miter;stroke-opacity:1" />
  <path
     d="m 166.72394,250.37338 -22.9719,15.27688"
     id="path3977"
     style="fill:none;stroke:#000000;stroke-width:0.99206144px;stroke-linecap:butt;stroke-linejoin:miter;stroke-opacity:1" />
  <path
     d="m 166.15846,257.3896 -7.52542,4.80942"
     id="path3979"
     style="fill:none;stroke:#000000;stroke-width:0.99206144px;stroke-linecap:butt;stroke-linejoin:miter;stroke-opacity:1" />
  <path
     d="m 169.10056,262.82124 -14.20182,8.60036"
     id="path3981"
     style="fill:none;stroke:#000000;stroke-width:0.99206144px;stroke-linecap:butt;stroke-linejoin:miter;stroke-opacity:1" />
  <path
     d="m 184.32111,258.8041 -16.63519,11.25975"
     id="path3983"
     style="fill:none;stroke:#000000;stroke-width:0.99206144px;stroke-linecap:butt;stroke-linejoin:miter;stroke-opacity:1" />
  <path
     d="m 141.94136,248.11025 c 5.4345,-3.08951 11.8943,-4.63855 21.0483,-1.81056 7.67055,2.36946 16.79797,0.53701 26.14081,-0.45297 -5.24878,10.87917 4.54674,10.7595 9.1392,15.98204 2.81101,3.19637 3.50156,7.2698 6.13759,7.10331 12.45363,-0.78561 14.92961,6.10026 18.10631,5.88444 17.53455,-1.19166 15.75877,1.05302 23.76419,15.39039"
     id="path3985"
     style="fill:none;stroke:#000000;stroke-width:1.48809063;stroke-linecap:round;stroke-linejoin:round;stroke-miterlimit:4;stroke-opacity:1;stroke-dasharray:none" />
  <path
     d="m 169.43999,277.41913 13.46649,-10.18429"
     id="path3987"
     style="fill:none;stroke:#000000;stroke-width:0.99206144px;stroke-linecap:butt;stroke-linejoin:miter;stroke-opacity:1" />
  <path
     d="m 186.64094,264.6318 5.43152,-3.39482"
     id="path3989"
     style="fill:none;stroke:#000000;stroke-width:0.99206144px;stroke-linecap:butt;stroke-linejoin:miter;stroke-opacity:1" />
  <path
     d="M 181.77475,273.23237 197.95689,262.3687"
     id="path3991"
     style="fill:none;stroke:#000000;stroke-width:0.99206144px;stroke-linecap:butt;stroke-linejoin:miter;stroke-opacity:1" />
  <path
     d="m 185.01098,271.47416 2.98081,11.20547"
     id="path3993"
     style="fill:none;stroke:#000000;stroke-width:0.99206144px;stroke-linecap:butt;stroke-linejoin:miter;stroke-opacity:1" />
  <path
     d="m 189.58294,267.91376 4.41359,15.50335"
     id="path3995"
     style="fill:none;stroke:#000000;stroke-width:0.99206144px;stroke-linecap:butt;stroke-linejoin:miter;stroke-opacity:1" />
  <path
     d="m 194.44891,264.85842 5.31867,19.69035"
     id="path3997"
     style="fill:none;stroke:#000000;stroke-width:0.99206144px;stroke-linecap:butt;stroke-linejoin:miter;stroke-opacity:1" />
  <path
     d="m 202.1441,268.36625 c 0,0.45284 0,12.10833 0,12.10833"
     id="path3999"
     style="fill:none;stroke:#000000;stroke-width:1.48809063;stroke-linecap:round;stroke-linejoin:miter;stroke-miterlimit:4;stroke-opacity:1;stroke-dasharray:none" />
  <path
     d="m 206.378,279.19387 -1.91084,6.54482"
     id="path4001"
     style="fill:none;stroke:#000000;stroke-width:0.99206144px;stroke-linecap:butt;stroke-linejoin:miter;stroke-opacity:1" />
  <path
     d="m 208.76423,286.81199 3.22523,-8.65725"
     id="path4003"
     style="fill:none;stroke:#000000;stroke-width:0.99206144px;stroke-linecap:butt;stroke-linejoin:miter;stroke-opacity:1" />
  <path
     d="m 213.6303,286.92494 5.60133,-14.03197"
     id="path4005"
     style="fill:none;stroke:#000000;stroke-width:0.99206144px;stroke-linecap:butt;stroke-linejoin:miter;stroke-opacity:1" />
  <path
     d="m 221.60818,278.94712 -3.5646,9.61872"
     id="path4007"
     style="fill:none;stroke:#000000;stroke-width:0.99206144px;stroke-linecap:butt;stroke-linejoin:miter;stroke-opacity:1" />
  <path
     d="m 224.8278,283.27457 -2.25756,5.80052"
     id="path4009"
     style="fill:none;stroke:#000000;stroke-width:0.99206144px;stroke-linecap:butt;stroke-linejoin:miter;stroke-opacity:1" />
  <path
     d="m 233.37705,239.96228 c 14.82441,7.35559 10.30363,21.66901 17.31393,30.89355 8.53909,11.23603 19.42568,6.32416 20.82185,18.55869"
     id="path4011"
     style="fill:none;stroke:#000000;stroke-width:1.48809063;stroke-linecap:round;stroke-linejoin:miter;stroke-miterlimit:4;stroke-opacity:1;stroke-dasharray:none" />
  <path
     d="m 228.17155,244.94142 c 1.90364,-1.86248 4.20747,-3.19116 7.01627,-3.84739"
     id="path4013"
     style="fill:none;stroke:#000000;stroke-width:0.99206144px;stroke-linecap:butt;stroke-linejoin:miter;stroke-opacity:1" />
  <path
     d="m 225.1161,250.48639 c 5.24114,0.46674 6.93807,-4.25278 12.67423,-7.80819"
     id="path4015"
     style="fill:none;stroke:#000000;stroke-width:0.99206144px;stroke-linecap:butt;stroke-linejoin:miter;stroke-opacity:1" />
  <path
     d="m 219.00556,255.23951 c 13.48315,1.51116 13.31796,-6.34783 22.0667,-8.48744"
     id="path4017"
     style="fill:none;stroke:#000000;stroke-width:0.99206144px;stroke-linecap:butt;stroke-linejoin:miter;stroke-opacity:1" />
  <path
     d="m 214.02606,258.40796 c 13.67233,3.96308 16.21204,-4.59731 30.32801,-4.1872"
     id="path4019"
     style="fill:none;stroke:#000000;stroke-width:0.99206144px;stroke-linecap:butt;stroke-linejoin:miter;stroke-opacity:1" />
  <path
     d="m 211.19705,264.2924 c 19.39376,3.66049 20.65763,-6.46964 34.51488,-5.77143"
     id="path4021"
     style="fill:none;stroke:#000000;stroke-width:0.99206144px;stroke-linecap:butt;stroke-linejoin:miter;stroke-opacity:1" />
  <path
     d="m 228.73737,268.81909 c 4.60189,-2.1758 9.20378,-3.1792 13.80604,-3.39491"
     id="path4023"
     style="fill:none;stroke:#000000;stroke-width:0.99206144px;stroke-linecap:butt;stroke-linejoin:miter;stroke-opacity:1" />
  <path
     d="m 239.1485,271.4216 c 1.70566,-0.20081 3.27603,-0.28614 5.99742,-1.35775"
     id="path4025"
     style="fill:none;stroke:#000000;stroke-width:0.99206144px;stroke-linecap:round;stroke-linejoin:miter;stroke-opacity:1" />
  <path
     d="m 240.39326,274.47713 c 3.49518,2.62018 8.27004,1.73924 10.97665,0.45248"
     id="path4027"
     style="fill:none;stroke:#000000;stroke-width:0.99206144px;stroke-linecap:round;stroke-linejoin:miter;stroke-opacity:1" />
  <path
     d="m 246.50378,242.1124 13.12717,14.82437"
     id="path4029"
     style="fill:none;stroke:#000000;stroke-width:0.99206144px;stroke-linecap:butt;stroke-linejoin:miter;stroke-opacity:1" />
  <path
     d="m 258.95202,267.00845 c 14.82546,4.29654 20.0939,11.83648 23.25469,21.21802"
     id="path4031"
     style="fill:none;stroke:#000000;stroke-width:0.99206144px;stroke-linecap:butt;stroke-linejoin:miter;stroke-opacity:1" />
  <path
     d="m 268.79729,263.84002 c 8.80782,5.29676 15.2953,13.22408 19.57709,23.65074"
     id="path4033"
     style="fill:none;stroke:#000000;stroke-width:0.99206144px;stroke-linecap:butt;stroke-linejoin:miter;stroke-opacity:1" />
  <path
     d="m 288.60074,275.26942 c 3.25457,2.70528 5.86611,6.05317 7.01581,10.86357"
     id="path4035"
     style="fill:none;stroke:#000000;stroke-width:0.99206144px;stroke-linecap:butt;stroke-linejoin:miter;stroke-opacity:1" />
  <path
     d="m 303.19867,270.5164 c 2.58126,3.91973 4.90934,7.89023 5.99747,12.10833"
     id="path4037"
     style="fill:none;stroke:#000000;stroke-width:0.99206144px;stroke-linecap:butt;stroke-linejoin:miter;stroke-opacity:1" />
  <path
     d="m 309.19614,271.08222 c 3.33469,2.55729 5.642,5.62868 6.56336,9.39236"
     id="path4039"
     style="fill:none;stroke:#000000;stroke-width:0.99206144px;stroke-linecap:butt;stroke-linejoin:miter;stroke-opacity:1" />
  <path
     d="m 242.7694,230.79632 c 1.41507,8.61248 10.63797,-1.94128 23.42485,22.97197 3.10631,6.05223 10.04294,5.96282 15.49461,9.25234 6.4915,3.9166 10.38883,9.04593 14.04111,8.51406 10.83766,-1.57771 13.62011,-10.93661 22.6326,-15.8427 5.45212,-2.9678 19.72779,0.22645 29.42217,-2.03671"
     id="path4041"
     style="fill:none;stroke:#000000;stroke-width:1.48809063;stroke-linecap:round;stroke-linejoin:round;stroke-miterlimit:4;stroke-opacity:1;stroke-dasharray:none" />
  <path
     d="m 314.51474,264.915 11.42941,-10.46777"
     id="path4043"
     style="fill:none;stroke:#000000;stroke-width:0.99206144px;stroke-linecap:butt;stroke-linejoin:miter;stroke-opacity:1" />
  <path
     d="m 318.13595,266.95164 12.95746,-12.39106"
     id="path4045"
     style="fill:none;stroke:#000000;stroke-width:0.99206144px;stroke-linecap:butt;stroke-linejoin:miter;stroke-opacity:1" />
  <path
     d="m 323.34161,267.91376 5.77143,-5.20549"
     id="path4047"
     style="fill:none;stroke:#000000;stroke-width:0.99206144px;stroke-linecap:butt;stroke-linejoin:miter;stroke-opacity:1" />
  <path
     d="m 335.78942,259.87918 1.58422,9.90157"
     id="path4049"
     style="fill:none;stroke:#000000;stroke-width:0.99206144px;stroke-linecap:butt;stroke-linejoin:miter;stroke-opacity:1" />
  <path
     d="m 339.97661,259.87918 1.18799,7.58174"
     id="path4051"
     style="fill:none;stroke:#000000;stroke-width:0.99206144px;stroke-linecap:butt;stroke-linejoin:miter;stroke-opacity:1" />
  <path
     d="m 350.55705,250.93937 2.43335,-3.28197"
     id="path4053"
     style="fill:none;stroke:#000000;stroke-width:0.99206144px;stroke-linecap:butt;stroke-linejoin:miter;stroke-opacity:1" />
  <path
     d="m 173.17431,254.22076 3.84772,-2.37617"
     id="path4055"
     style="fill:none;stroke:#000000;stroke-width:0.99206144px;stroke-linecap:butt;stroke-linejoin:miter;stroke-opacity:1" />
  <path
     d="m 172.55221,258.29496 7.41189,-4.86604"
     id="path4057"
     style="fill:none;stroke:#000000;stroke-width:0.99206144px;stroke-linecap:butt;stroke-linejoin:miter;stroke-opacity:1" />
  <path
     d="m 175.26812,260.67112 4.92237,-3.22522"
     id="path4059"
     style="fill:none;stroke:#000000;stroke-width:0.99206144px;stroke-linecap:butt;stroke-linejoin:miter;stroke-opacity:1" />
  <path
     d="m 77.816262,263.76682 6.081401,-3.76066"
     id="path4061"
     style="fill:none;stroke:#000000;stroke-width:0.99206144px;stroke-linecap:round;stroke-linejoin:miter;stroke-opacity:1" />
  <path
     d="m 78.136372,269.20827 11.842721,-7.20185"
     id="path4063"
     style="fill:none;stroke:#000000;stroke-width:0.99206144px;stroke-linecap:round;stroke-linejoin:miter;stroke-opacity:1" />
  <path
     d="m 78.776537,274.0091 11.442569,-7.60171"
     id="path4065"
     style="fill:none;stroke:#000000;stroke-width:0.99206144px;stroke-linecap:round;stroke-linejoin:miter;stroke-opacity:1" />
  <path
     d="m 228.37269,281.08852 -0.7246,2.48494"
     id="path4067"
     style="fill:none;stroke:#000000;stroke-width:0.99206144;stroke-linecap:butt;stroke-linejoin:miter;stroke-miterlimit:4;stroke-opacity:1;stroke-dasharray:none" />
  <use
     transform="translate(2.8806561,0.64014574)"
     id="use4071"
     x="0"
     y="0"
     width="480"
     height="480"
     xlink:href="#path4067" />
  <use
     transform="translate(5.8723505,1.4239939)"
     id="use4073"
     x="0"
     y="0"
     width="480"
     height="480"
     xlink:href="#path4067" />
  <use
     transform="matrix(-0.13289458,-1.3897167,0.51694469,0.83108099,183.30036,365.07037)"
     id="use4075"
     x="0"
     y="0"
     width="480"
     height="480"
     xlink:href="#use4073" />
  <path
     d="m 340.28541,313.75547 c 20.75446,-5.9611 42.22347,-5.53532 48.32176,-1.81751"
     id="path4077"
     style="fill:none;stroke:#000000;stroke-width:1.60000002;stroke-linecap:butt;stroke-linejoin:miter;stroke-miterlimit:4;stroke-opacity:1;stroke-dasharray:none" />
  <path
     d="m 359.97604,300.93106 c 5.62958,-4.35497 23.09188,-4.41187 31.03835,1.46426"
     id="path4079"
     style="fill:none;stroke:#000000;stroke-width:0.99206144px;stroke-linecap:round;stroke-linejoin:miter;stroke-opacity:1" />
  <path
     d="m 373.48382,265.20731 c 5.19316,2.18541 8.25032,8.49104 10.24231,7.92181 7.32644,-2.09448 10.56473,1.72241 14.96342,7.12176"
     id="path4083"
     style="fill:none;stroke:#000000;stroke-width:0.99206144px;stroke-linecap:butt;stroke-linejoin:miter;stroke-opacity:1" />
  <path
     d="m 371.48309,267.84779 9.84242,9.68234"
     id="path4085"
     style="fill:none;stroke:#000000;stroke-width:0.99206144px;stroke-linecap:butt;stroke-linejoin:miter;stroke-opacity:1" />
  <path
     d="m 369.08282,272.48896 8.64189,7.84163"
     id="path4087"
     style="fill:none;stroke:#000000;stroke-width:0.99206144px;stroke-linecap:butt;stroke-linejoin:miter;stroke-opacity:1" />
  <path
     d="m 395.96876,261.20622 6.24543,4.35807"
     id="path4089"
     style="fill:none;stroke:#000000;stroke-width:0.99206144px;stroke-linecap:butt;stroke-linejoin:miter;stroke-opacity:1" />
  <path
     d="m 397.24907,252.96462 5.89214,4.19212"
     id="path4091"
     style="fill:none;stroke:#000000;stroke-width:0.99206144px;stroke-linecap:butt;stroke-linejoin:miter;stroke-opacity:1" />
  <path
     d="m 384.60621,243.5221 c 6.87077,0.0528 15.23406,3.28909 19.12443,7.60187"
     id="path4093"
     style="fill:none;stroke:#000000;stroke-width:1.28968048;stroke-linecap:butt;stroke-linejoin:miter;stroke-miterlimit:4;stroke-opacity:1;stroke-dasharray:none" />
  <path
     d="m 123.31989,320.43194 c 5.61383,-5.2632 11.67711,-8.77752 17.71725,-9.77593"
     id="path4106"
     style="fill:none;stroke:#000000;stroke-width:1.48809063;stroke-linecap:butt;stroke-linejoin:miter;stroke-miterlimit:4;stroke-opacity:1;stroke-dasharray:none" />
  <path
     d="m 90.939389,312.09801 c 14.079381,-9.8551 40.006071,-4.55006 46.690661,-0.64017"
     id="path4108"
     style="fill:none;stroke:#000000;stroke-width:1.48809063;stroke-linecap:butt;stroke-linejoin:miter;stroke-miterlimit:4;stroke-opacity:1;stroke-dasharray:none" />
  <path
     d="m 86.53838,299.37487 c 17.24956,-5.06579 30.3076,-1.65159 44.23012,3.5209"
     id="path4110"
     style="fill:none;stroke:#000000;stroke-width:1.19047439;stroke-linecap:butt;stroke-linejoin:miter;stroke-miterlimit:4;stroke-opacity:1;stroke-dasharray:none" />
  <path
     d="m 277.87072,176.46388 c 12.30827,-2.15444 16.94658,5.89042 15.28517,10.95057"
     id="path3940"
     style="fill:none;stroke:#000000;stroke-width:1px;stroke-linecap:butt;stroke-linejoin:miter;stroke-opacity:1" />
</svg>
