<?xml version="1.0" encoding="UTF-8" standalone="no"?>
<!-- Created with Inkscape (http://www.inkscape.org/) -->

<svg
   xmlns:svg="http://www.w3.org/2000/svg"
   xmlns="http://www.w3.org/2000/svg"
   version="1.1"
   width="390"
   height="480"
   id="svg4228">
  <defs
     id="defs4232" />
  <path
     d="M 0,0 C 130,0 260,0 390,0 389.98981,114.99797 370.78556,350.14732 194.88837,479.99815 20.79131,350.08886 0.081386,115.02225 0,0 z"
     id="path4240-0"
     style="fill:#207dbf;fill-opacity:1;stroke:none" />
  <path
     d="m 200.91973,23.627205 -0.2416,13.836836 62.84756,0.04494 c 1.5449,0.0011 1.03957,7.998809 -0.0385,8.350663 -17.39283,5.676571 -9.60373,43.076077 5.14167,70.388826 -17.416,-8.62185 -67.97482,-24.212163 -67.94605,-13.76182 l 0.0534,19.39906 76.43602,0.35216 c 1.32822,0.006 1.88763,9.4165 0.0566,9.47117 -20.13723,0.60125 -8.24114,48.0908 5.8871,78.68191 -31.63041,-14.26257 -80.69438,-24.59624 -80.66278,-16.4625 l 0.0899,23.13859 89.88541,-0.0413 c 1.79627,-8.3e-4 1.30784,7.56482 0.018,8.41235 -27.75986,18.24054 -8.68036,75.49695 8.69012,104.36961 -31.0334,-15.53215 -96.69562,-33.02829 -96.25475,-19.03774 l 2.15167,68.28153 -20.96558,-0.0825 1.35004,-67.21408 c 0.31152,-15.50959 -70.71597,5.10323 -96.628979,17.44287 12.038469,-27.76116 35.984669,-89.51082 7.658861,-103.88634 -1.395902,-0.70843 -1.569674,-7.91816 -0.05192,-7.92274 l 90.514268,-0.27304 -0.18342,-22.93783 c -0.0673,-8.41412 -52.77707,-0.90624 -80.99168,16.05857 13.08662,-31.85971 26.01646,-73.70881 4.65811,-78.24683 -1.50512,-0.31979 -1.64778,-9.32945 -0.0315,-9.34441 l 78.20528,-0.72376 -0.18445,-19.91571 c -0.0889,-9.594898 -54.69014,7.17252 -67.56312,14.24745 12.54017,-28.479395 19.24217,-66.271197 4.30068,-71.27395 -0.79308,-0.26554 -1.7231,-7.347353 -0.0315,-7.362228 l 63.38852,-0.557416 0.10334,-13.448108 c 0.0122,-1.588643 10.36865,-1.666211 10.33928,0.01577 z"
     id="path2827"
     style="fill:#ececec;stroke:none" />
</svg>
