<?xml version="1.0" encoding="UTF-8" standalone="no"?>
<!-- Created with Inkscape (http://www.inkscape.org/) -->

<svg
   xmlns:dc="http://purl.org/dc/elements/1.1/"
   xmlns:cc="http://creativecommons.org/ns#"
   xmlns:rdf="http://www.w3.org/1999/02/22-rdf-syntax-ns#"
   xmlns:svg="http://www.w3.org/2000/svg"
   xmlns="http://www.w3.org/2000/svg"
   version="1.1"
   width="390"
   height="480"
   id="svg3704">
  <metadata
     id="metadata9">
    <rdf:RDF>
      <cc:Work
         rdf:about="">
        <dc:format>image/svg+xml</dc:format>
        <dc:type
           rdf:resource="http://purl.org/dc/dcmitype/StillImage" />
        <dc:title></dc:title>
      </cc:Work>
    </rdf:RDF>
  </metadata>
  <defs
     id="defs3708" />
  <path
     d="M 194.87765,479.92409 C 305.48936,434.00911 387.93469,390.47262 387.93469,277.38385 L 387.89154,0.0682616 0.0923349,0.0744312 1.7046012,274.25177 C 2.446083,400.34602 89.801176,434.21646 194.87765,479.92409 z"
     id="path2997"
     style="fill:#d61a1a;fill-opacity:1;stroke:none" />
  <path
     d="m 135.33818,110.67241 c 19.42112,-27.56439 38.835,-55.317556 57.82841,-94.001916 16.13043,36.01957 37.5642,63.705237 57.76924,93.321846 L 212.94501,92.649969 c 1.55058,73.537771 -3.09883,144.396601 33.64073,186.879911 27.03392,31.26038 74.84903,17.08816 81.66569,-32.71266 4.97534,-36.34852 -6.1635,-72.24624 -1.56603,-124.35463 l -16.76234,2.72608 c 12.07233,-31.322865 40.51458,-62.205586 55.56514,-73.313555 -21.28783,42.803648 -17.03192,77.833095 -10.32421,112.116365 20.15503,83.94632 22.89992,147.46964 -23.89649,176.55568 -24.86982,15.4577 -65.92536,15.29494 -99.9941,8.00419 -3.35736,18.6614 1.7404,62.76373 9.75545,95.63921 l -95.76551,0 c 8.37079,-32.3004 13.70586,-76.65057 9.91248,-95.75523 -37.89471,6.78101 -83.9322,0.95182 -97.210039,-7.65615 C -35.89501,279.92963 74.19105,133.76287 20.255574,52.433878 48.477552,75.791366 67.670992,101.33699 75.910287,125.64219 L 59.44481,122.2886 c 5.470443,47.04749 -6.187964,81.81839 -1.479029,122.44056 7.385838,63.71481 65.004049,58.75308 87.074579,29.44812 27.5479,-36.57767 28.48867,-108.36071 28.29642,-181.571117 z"
     id="path3785"
     style="fill:#faf700;fill-opacity:1;stroke:none" />
  <path
     d="m 198.25876,411.31921 a 5.6460996,5.5251122 0 1 1 -11.2922,0 5.6460996,5.5251122 0 1 1 11.2922,0 z"
     transform="matrix(1.5062487,0,0,1.5062487,-96.135766,-209.81576)"
     id="path3787"
     style="fill:#d61a1a;fill-opacity:1;stroke:none" />
  <path
     d="m 198.25876,411.31921 a 5.6460996,5.5251122 0 1 1 -11.2922,0 5.6460996,5.5251122 0 1 1 11.2922,0 z"
     transform="matrix(1.5062487,0,0,1.5062487,-96.135766,-251.05321)"
     id="path3789"
     style="fill:#d61a1a;fill-opacity:1;stroke:none" />
</svg>
