<?xml version="1.0" encoding="UTF-8" standalone="no"?>
<svg xmlns="http://www.w3.org/2000/svg"
   xmlns:dc="http://purl.org/dc/elements/1.1/"
   xmlns:cc="http://creativecommons.org/ns#"
   xmlns:rdf="http://www.w3.org/1999/02/22-rdf-syntax-ns#"
   xmlns:xlink="http://www.w3.org/1999/xlink"
   version="1.1" width="390" height="480">
  <metadata><rdf:RDF><cc:Work rdf:about="">
      <dc:format>image/svg+xml</dc:format>
      <dc:type rdf:resource="http://purl.org/dc/dcmitype/StillImage" />
      <dc:title></dc:title>
    </cc:Work></rdf:RDF></metadata>
  <path style="fill:#008c31"
     d="M0,0H390C389.95421,115.01011,369.99712,350.11809,195,480
C20.00288,350.11809,0.04579,115.01011,0,0Z"/>
  <g transform="translate(195,194.555) scale(0.2,-0.2)">
    <path style="fill:#faf700" id="branch" d="M-52.414,134.042L-52.132,390.3
C-81.401,402.996,-80.2266,443.462,-51.9072,454.336
C-52.566,492.942,-92.7632,569.479,-132.576,542.42
C-214.457,486.764,-11.5502,450.195,-152.348,270.529
C-110.12,474.69,-322.188,498.664,-234.751,614.089
C-173.904,693.909,-71.8858,624.82,-27.4132,551.186
C-48.5224,650.392,-91.7598,665.996,-91.3326,728.869
C-90.8267,795.833,-42.1318,836.096,0,902.848
C42.1318,836.096,90.8267,795.833,91.3326,728.869
C91.7598,665.996,48.5224,650.392,27.4132,551.186
C71.8858,624.82,173.904,693.908,234.751,614.089
C322.188,498.664,110.12,474.69,152.348,270.529
C11.5502,450.195,214.457,486.764,132.576,542.42
C92.7632,569.479,52.566,492.942,51.9072,454.336
C80.2266,443.462,81.401,402.996,52.132,390.3
L52.414,134.042L36.3844,-139.251
C40.407,-171.648,29.0612,-209.764,0,-234.126
C-29.0612,-209.764,-40.407,-171.648,-36.3844,-139.251Z"/>
    <use xlink:href="#branch" transform="rotate(72)"/>
    <use xlink:href="#branch" transform="rotate(144)"/>
    <use xlink:href="#branch" transform="rotate(216)"/>
    <use xlink:href="#branch" transform="rotate(288)"/>
    <circle style="fill:#008c31" r="66.0425"/></g></svg>
