<?xml version="1.0" encoding="UTF-8" standalone="no"?>
<!-- Created with Inkscape (http://www.inkscape.org/) -->

<svg
   xmlns:svg="http://www.w3.org/2000/svg"
   xmlns="http://www.w3.org/2000/svg"
   xmlns:xlink="http://www.w3.org/1999/xlink"
   version="1.1"
   width="410"
   height="480"
   id="svg3657">
  <defs
     id="defs3661">
    <linearGradient
       id="linearGradient5298">
      <stop
         id="stop5300"
         style="stop-color:#fffc19;stop-opacity:1"
         offset="0" />
      <stop
         id="stop5302"
         style="stop-color:#e6e300;stop-opacity:1"
         offset="1" />
    </linearGradient>
    <linearGradient
       id="linearGradient5222">
      <stop
         id="stop5224"
         style="stop-color:#fffc19;stop-opacity:1"
         offset="0" />
      <stop
         id="stop5226"
         style="stop-color:#e6e300;stop-opacity:1"
         offset="1" />
    </linearGradient>
    <linearGradient
       x1="124.66695"
       y1="216.75444"
       x2="233.38904"
       y2="216.75444"
       id="linearGradient5232"
       xlink:href="#linearGradient5222"
       gradientUnits="userSpaceOnUse" />
    <linearGradient
       x1="125.64875"
       y1="136.79575"
       x2="218.82503"
       y2="136.79575"
       id="linearGradient5240"
       xlink:href="#linearGradient5222"
       gradientUnits="userSpaceOnUse" />
    <linearGradient
       x1="135.55914"
       y1="73.20314"
       x2="213.18326"
       y2="73.20314"
       id="linearGradient5248"
       xlink:href="#linearGradient5222"
       gradientUnits="userSpaceOnUse" />
    <linearGradient
       x1="235.3616"
       y1="61.82513"
       x2="328.11002"
       y2="61.82513"
       id="linearGradient5256"
       xlink:href="#linearGradient5222"
       gradientUnits="userSpaceOnUse" />
    <linearGradient
       x1="228.6282"
       y1="126.6616"
       x2="330.96234"
       y2="126.6616"
       id="linearGradient5264"
       xlink:href="#linearGradient5222"
       gradientUnits="userSpaceOnUse" />
    <linearGradient
       x1="3.7723322"
       y1="159.32457"
       x2="375.05164"
       y2="159.32457"
       id="linearGradient5272"
       xlink:href="#linearGradient5298"
       gradientUnits="userSpaceOnUse" />
    <linearGradient
       x1="221.56416"
       y1="167.51508"
       x2="327.6525"
       y2="167.51508"
       id="linearGradient5280"
       xlink:href="#linearGradient5222"
       gradientUnits="userSpaceOnUse" />
    <linearGradient
       x1="4.2024989"
       y1="166.13539"
       x2="139.75014"
       y2="166.13539"
       id="linearGradient5288"
       xlink:href="#linearGradient5222"
       gradientUnits="userSpaceOnUse" />
    <linearGradient
       x1="57.732491"
       y1="207.73253"
       x2="129.15466"
       y2="207.73253"
       id="linearGradient5296"
       xlink:href="#linearGradient5222"
       gradientUnits="userSpaceOnUse" />
  </defs>
  <path
     d="m 204.69316,477.77698 c 14.30185,-23.33285 29.58685,-31.7618 44.87797,-32.7962 l 115.5244,-1.16735 c 24.60827,-0.48942 43.67964,-25.11555 43.69165,-47.66948 L 408.73,1.2457286 1.2438602,1.27529 1.2749216,400.52591 c -0.39004931,33.5878 34.0260564,43.32525 51.7881024,43.48613 l 109.356636,0.99054 c 15.30578,0.13864 28.10925,12.3649 42.2735,32.7744 z"
     id="path3669"
     style="fill:#15a0e5;fill-opacity:1;stroke:#000000;stroke-width:2.50010657;stroke-linecap:butt;stroke-linejoin:miter;stroke-miterlimit:4;stroke-opacity:1;stroke-dasharray:none" />
  <path
     d="M 336.21627,444.10579 365.169,443.8133 c 24.61332,-1.07183 43.06938,-25.1485 43.0814,-47.56626 -0.38626,-131.688 0.3381,-263.34129 0.52072,-395.0115037 L 3.2768444,1.2653706 336.21627,444.10579 z"
     id="path3669-5"
     style="fill:#d22828;fill-opacity:1;stroke:#000000;stroke-width:2.5;stroke-linecap:butt;stroke-linejoin:miter;stroke-miterlimit:4;stroke-opacity:1;stroke-dasharray:none" />
  <path
     d="m 128.09548,242.63094 a 22.880631,23.347015 0 0 1 -45.761253,0 22.880631,23.347015 0 1 1 45.761253,0 z"
     id="path2892"
     style="opacity:0.98999999;fill:#f9f9f9;fill-opacity:1;fill-rule:nonzero;stroke:#000000;stroke-opacity:1" />
  <path
     d="m 119.4225,242.68425 a 14.377743,14.670811 0 0 1 -28.755481,0 14.377743,14.670811 0 1 1 28.755481,0 z"
     id="path2892-1"
     style="opacity:0.98999999;fill:#15b0ef;fill-opacity:1;fill-rule:nonzero;stroke:#000000;stroke-opacity:1" />
  <path
     d="m 14.742984,379.91138 c -9.6101047,-10.97203 22.151377,3.40951 40.391314,1.05061 10.459903,-1.35274 6.028569,5.37885 -0.700428,9.92248 24.390474,13.92164 42.648282,-2.01227 43.426504,-33.6197 l 1.517584,-61.63611 -35.021366,-2.10124 c -1.84522,-0.11071 -1.81578,-13.07434 -0.350213,-13.07434 l 35.488325,0 1.050646,-27.54946 c 0.32877,-8.62106 13.31764,-11.35636 13.42484,-2.10123 l 0.35022,30.23437 34.67116,0.23347 c 4.41494,0.13058 3.37766,14.48872 0.11673,14.12496 l -35.60506,0.11673 1.28413,76.34473 c -0.25798,27.96926 19.2579,31.77517 36.88916,24.16417 -4.94156,-1.94898 -9.49099,-10.25227 -4.31929,-9.92249 31.47724,4.67104 56.90476,-17.0314 44.51662,-0.1111 -17.26218,23.57752 -72.39522,23.20803 -88.99376,44.93737 C 83.664368,410.81231 36.350687,404.58126 14.742984,379.91138 z"
     id="path2890"
     style="fill:#f9f9f9;stroke:#000000;stroke-width:1.00004256px;stroke-linecap:butt;stroke-linejoin:miter;stroke-opacity:1" />
  <path
     d="m 119.06583,246.36811 c -0.8071,-3.17053 -5.02122,-1.57478 -4.95632,1.29826 l 0.35597,15.76091 c 0.13456,5.95736 7.56757,2.12695 10.3109,17.60406 l 8.92504,0.0813 c 0.0418,-12.36457 -10.09108,-22.96658 -14.63559,-34.74451 z"
     id="path3670"
     style="fill:#f9f9f9;stroke:#000000;stroke-width:1.00004256px;stroke-linecap:butt;stroke-linejoin:miter;stroke-opacity:1" />
  <path
     d="m 137.66799,431.36236 c -0.81677,4.86058 8.20898,4.60528 9.68925,-1.13817 5.60444,-21.74547 -6.05078,-45.04959 -31.08038,-47.66587 0.01,4.27186 4.27454,10.9527 8.74091,13.73365 12.94251,8.0585 16.94764,9.4967 12.65022,35.07039 z"
     id="path3668"
     style="fill:#f9f9f9;stroke:#000000;stroke-width:1.00004256px;stroke-linecap:butt;stroke-linejoin:miter;stroke-opacity:1" />
  <path
     d="m 123.00777,295.96682 10.96255,0.0238 c -2.32566,11.98843 -11.66246,19.20187 -24.4291,26.50834 -21.612282,12.36891 -34.725073,33.78974 -13.476956,48.43799 -0.695744,3.64574 -1.784866,7.31917 -3.620922,10.78596 -12.466171,-10.25358 -22.132613,-25.72249 -9.175211,-48.73906 9.156667,-16.26523 38.910379,-22.44516 39.739639,-37.01704 z"
     id="path3666"
     style="fill:#f9f9f9;stroke:#000000;stroke-width:1.00004256px;stroke-linecap:butt;stroke-linejoin:miter;stroke-opacity:1" />
  <path
     d="m 343.34043,286.49097 6.4386,2.72395 c -1.93302,-13.24759 1.06117,-26.59927 -3.96292,-47.19559 -13.04501,-53.47812 -7.27762,-146.334982 7.42986,-158.17427 -16.0841,5.698562 -16.7683,76.22836 -18.49034,104.91362 C 309.62791,101.25811 276.70415,59.667705 217.54008,40.591921 318.2912,83.668771 319.92798,169.60077 332.60942,193.50498 c -24.0576,-47.16165 -46.51752,-50.24159 -56.13138,-47.7518 23.38588,1.04644 39.47609,20.61657 50.68334,45.56438 12.16171,27.07246 15.10479,56.98383 16.17905,95.17341 z"
     id="path3694"
     style="fill:#f9f9f9;stroke:#000000;stroke-linecap:round;stroke-linejoin:round;stroke-opacity:1" />
  <path
     d="m 347.33834,88.348878 c -27.28943,-3.530925 -21.44504,-26.403232 -16.1322,-37.026217 17.86394,9.596699 17.45132,23.199641 16.1322,37.026217 z"
     id="path3696"
     style="fill:#f9f9f9;stroke:#000000;stroke-opacity:1" />
  <path
     d="m 352.91818,83.825648 c 5.26868,-18.654309 15.8558,-35.889267 34.00631,-39.886825 3.39182,23.369736 -10.28586,39.118999 -34.00631,39.886825 z"
     id="path3696-7"
     style="fill:#f9f9f9;stroke:#000000;stroke-opacity:1" />
  <path
     d="m 338.49449,126.81872 c -18.86972,6.37436 -30.18357,-18.40071 -24.04526,-29.188786 14.2319,0.681926 22.888,18.829046 24.04526,29.188786 z"
     id="path3696-0"
     style="fill:#f9f9f9;stroke:#000000;stroke-opacity:1" />
  <path
     d="m 340.68429,130.36083 c 26.62907,-2.04512 32.73287,-18.31087 32.3728,-32.895984 -27.60438,4.313864 -27.17259,14.309564 -32.3728,32.895984 z"
     id="path3696-4"
     style="fill:#f9f9f9;stroke:#000000;stroke-opacity:1" />
  <path
     d="m 373.55228,133.61918 c -22.17157,7.53 -33.27223,17.58323 -34.89328,35.02525 19.84505,5.96475 35.55204,-22.10751 34.89328,-35.02525 z"
     id="path3696-8"
     style="fill:#f9f9f9;stroke:#000000;stroke-opacity:1" />
  <path
     d="m 341.92495,217.20468 c 3.58283,-20.53501 17.5646,-37.30343 28.98585,-40.66253 11.26025,8.93634 -4.88399,41.859 -28.98585,40.66253 z"
     id="path3696-45"
     style="fill:#f9f9f9;stroke:#000000;stroke-opacity:1" />
  <path
     d="m 348.90886,257.20437 c 9.30661,-13.42288 13.96718,-33.9685 30.83437,-36.99636 -1.94713,18.1813 -2.27502,41.74222 -30.83437,36.99636 z"
     id="path3696-1"
     style="fill:#f9f9f9;stroke:#000000;stroke-opacity:1" />
  <path
     d="m 339.97067,244.72837 c -30.75637,0.59629 -32.15502,-18.10713 -33.28078,-28.73011 16.71896,-5.47678 25.36374,10.29524 33.28078,28.73011 z"
     id="path3696-11"
     style="fill:#f9f9f9;stroke:#000000;stroke-opacity:1" />
  <path
     d="m 327.6115,193.41416 c -4.04707,13.35751 -23.98318,19.41921 -38.58644,4.83712 7.20007,-6.19959 17.61399,-10.77684 38.58644,-4.83712 z"
     id="path3774"
     style="fill:#f9f9f9;stroke:#000000;stroke-opacity:1" />
  <path
     d="m 315.24181,170.93846 c -16.16882,18.45796 -37.92215,13.50673 -49.24713,0.48595 17.34629,-14.08564 36.51704,-6.97382 49.24713,-0.48595 z"
     id="path3776"
     style="fill:#f9f9f9;stroke:#000000;stroke-opacity:1" />
  <path
     d="m 277.21638,145.80141 c -10.51766,-12.21556 -26.60737,-10.76699 -40.1954,-1.36894 16.02392,17.29122 32.06161,11.70211 40.1954,1.36894 z"
     id="path3778"
     style="fill:#f9f9f9;stroke:#000000;stroke-opacity:1" />
  <path
     d="m 294.18333,148.00102 c 10.54159,-6.69321 9.11039,-27.43325 -3.83752,-37.08148 -10.47183,9.46964 -14.35562,26.6144 3.83752,37.08148 z"
     id="path3780"
     style="fill:#f9f9f9;stroke:#000000;stroke-opacity:1" />
  <path
     d="m 289.98265,94.946062 c -13.8446,16.987948 -36.68278,12.930558 -45.28487,-7.799235 16.45449,-7.935397 36.10811,-4.534679 45.28487,7.799235 z"
     id="path3782"
     style="fill:#f9f9f9;stroke:#000000;stroke-opacity:1" />
  <path
     d="m 255.3542,61.794074 c -1.68997,14.103579 -27.82753,24.96908 -47.71965,5.954875 4.29542,-5.936673 24.1271,-20.013227 47.71965,-5.954875 z"
     id="path3784"
     style="fill:#f9f9f9;stroke:#000000;stroke-opacity:1" />
  <path
     d="M 217.95757,40.801843 C 201.75502,22.4099 177.19668,30.751641 170.15858,41.417362 c 16.88868,17.686224 36.80664,16.340701 47.79899,-0.615519 z"
     id="path3786"
     style="fill:#f9f9f9;stroke:#000000;stroke-opacity:1" />
  <path
     d="M 225.13432,6.5837269 C 245.93912,12.574633 260.63577,40.108855 243.73201,51.196058 234.05568,42.536893 218.57496,36.101169 225.13432,6.5837269 z"
     id="path3788"
     style="fill:#f9f9f9;stroke:#000000;stroke-opacity:1" />
  <path
     d="m 309.24886,52.478279 c 2.56962,19.046139 16.20249,37.113554 -8.6658,52.737681 -10.54368,-27.315788 -3.03012,-42.872527 8.6658,-52.737681 z"
     id="path3790"
     style="fill:#f9f9f9;stroke:#000000;stroke-opacity:1" />
  <path
     d="m 278.10656,76.588582 c 16.59973,-10.696756 11.08679,-42.983914 -4.93036,-55.146907 -15.26768,20.944047 -1.53755,49.586765 4.93036,55.146907 z"
     id="path3792"
     style="fill:#f9f9f9;stroke:#000000;stroke-opacity:1" />
  <path
     d="M 75.722567,2.5087827 2.4868287,2.4770834 2.4995762,80.497312 320.04355,443.02209 c 17.69643,-0.0575 37.46215,-0.37053 43.4686,-0.36752 8.88691,0.004 19.99545,-3.28516 29.00326,-12.59229 16.48524,-17.03303 14.96246,-30.70767 14.45151,-46.42073 L 75.722567,2.5087827 z"
     id="path3816"
     style="fill:#f9f9f9;stroke:none" />
</svg>
