<?xml version="1.0" encoding="UTF-8" standalone="no"?>
<!-- Created with Inkscape (http://www.inkscape.org/) -->

<svg
   xmlns:dc="http://purl.org/dc/elements/1.1/"
   xmlns:cc="http://creativecommons.org/ns#"
   xmlns:rdf="http://www.w3.org/1999/02/22-rdf-syntax-ns#"
   xmlns:svg="http://www.w3.org/2000/svg"
   xmlns="http://www.w3.org/2000/svg"
   xmlns:xlink="http://www.w3.org/1999/xlink"
   version="1.1"
   width="390"
   height="480"
   id="svg4228">
  <metadata
     id="metadata13">
    <rdf:RDF>
      <cc:Work
         rdf:about="">
        <dc:format>image/svg+xml</dc:format>
        <dc:type
           rdf:resource="http://purl.org/dc/dcmitype/StillImage" />
        <dc:title></dc:title>
      </cc:Work>
    </rdf:RDF>
  </metadata>
  <defs
     id="defs4232" />
  <g
     id="g3784">
    <path
       d="M 0,0 C 130,0 260,0 390,0 389.98981,114.99797 370.78556,350.14732 194.88837,479.99815 20.79131,350.08886 0.081386,115.02225 0,0 z"
       id="path4240-0"
       style="fill:#008c31;fill-opacity:1;stroke:none" />
    <path
       d="m 104.47824,62.404668 c -1.60833,-9.079554 -4.24174,-12.608843 -2.41577,-16.17258 4.81462,-9.396678 8.04936,-14.344658 10.8984,-15.422457 3.33768,-1.262656 17.97583,1.173645 18.82901,5.610602 0.50981,2.651262 -1.36655,20.891744 -5.84642,29.398722 -9.31758,17.693478 1.1296,49.561565 1.99428,74.609055 1.9436,56.30108 3.10756,139.5513 -33.738035,185.01521 -2.941682,3.62975 -15.388004,-17.18344 -12.059237,-20.1157 8.011429,-7.05714 8.977511,-21.79456 8.475125,-33.48118 4.525082,-5.06076 4.1342,-11.27329 -5.291836,-14.29658 4.123047,-4.03413 5.728302,-4.63885 5.64908,-8.71318 -0.09648,-4.96209 -2.416256,-5.34236 -7.254975,-8.29213 4.72732,-4.36485 6.713907,-4.61781 6.657221,-9.68828 -0.03203,-2.8647 -2.498152,-4.05814 -6.749285,-6.09866 4.239434,-2.88958 7.011899,-4.62149 7.061612,-8.29455 0.05956,-4.40062 -3.197745,-5.63549 -6.897952,-8.17495 5.299792,-4.35078 6.87957,-5.04344 6.821474,-9.78744 -0.05531,-4.51656 -2.209866,-5.08564 -6.128919,-7.489 4.458307,-3.42222 6.840258,-4.659 6.639381,-9.43741 -0.159597,-3.79645 -3.379791,-4.07751 -6.742126,-6.44165 4.505588,-3.383 7.395621,-3.50258 7.425005,-9.23566 0.02307,-4.50093 -3.033873,-5.04222 -7.520594,-7.63005 5.588752,-4.39916 8.320397,-6.23128 8.199751,-9.63072 -0.123348,-3.47556 -2.332719,-4.40375 -6.742368,-7.02665 5.3262,-4.43422 7.676122,-5.79374 7.661949,-9.87637 -0.01417,-4.08263 -2.275552,-4.04324 -6.869276,-7.29748 6.298793,-4.13531 8.328814,-4.77267 8.28997,-9.46675 -0.03143,-3.79808 -3.13122,-4.78238 -7.459194,-7.06992 4.445609,-2.96307 8.219375,-4.44932 8.288157,-8.340802 0.06778,-3.834967 -4.05506,-4.87735 -8.075838,-6.254386 9.948911,-6.628404 17.65419,-10.143981 16.90141,-30.899054 z"
       id="path2849"
       style="fill:#f2f2f2;stroke:none" />
    <path
       d="m 125.22518,44.468996 a 4.9207284,4.817134 0 1 1 -9.84145,0 4.9207284,4.817134 0 1 1 9.84145,0 z"
       id="path2855"
       style="opacity:0.98999999;fill:#008c31;fill-opacity:1;fill-rule:nonzero;stroke:none" />
    <path
       d="m 200.62604,62.10908 c 0.85087,-7.335647 -1.55724,-12.588375 -3.59258,-16.857808 -2.03535,-4.269433 5.21945,-11.545431 11.59273,-16.177841 3.05895,-2.223396 16.63259,3.673767 20.34434,7.677921 3.60359,3.887474 -5.72792,19.922531 -7.11416,29.359908 -7.60062,51.74419 4.68005,141.4594 1.82232,209.8385 -2.39658,57.34467 -22.9027,106.94591 -36.40371,127.87145 -2.73007,4.23142 -15.48656,-11.58818 -12.70655,-15.7772 4.87903,-7.35191 12.71629,-11.41887 11.98501,-36.19094 -0.18335,-6.21103 -1.92443,-7.05227 -10.16443,-9.28083 5.46936,-4.70207 8.72091,-5.15066 8.4634,-10.16846 -0.15526,-3.34506 -3.7858,-4.64233 -9.01072,-6.98602 6.17019,-5.24588 9.09492,-6.77607 8.98401,-10.78855 -0.0819,-2.96217 -4.28642,-4.59868 -8.42596,-6.6683 3.5723,-2.54591 8.2868,-4.98901 8.24746,-8.62062 -0.0409,-3.77677 -3.91069,-3.68425 -8.13087,-5.34445 4.68035,-3.40118 9.25099,-4.37627 9.58723,-9.79383 0.21132,-3.40481 -5.7092,-5.68668 -9.07677,-6.5505 3.67807,-3.0278 8.34249,-4.8772 8.40417,-11.04747 0.028,-2.79923 -2.90319,-5.64452 -8.29682,-6.71198 7.66976,-5.0731 8.84436,-6.21067 8.59862,-10.34834 -0.23529,-3.96179 -3.99806,-5.10436 -8.27359,-6.96691 5.49181,-4.41707 8.18775,-5.3579 7.99529,-10.5249 -0.12621,-3.38834 -3.52677,-5.77039 -7.45411,-7.16406 4.10068,-3.54059 7.04793,-4.40142 7.16164,-9.30427 0.12027,-5.18567 -3.84404,-5.05666 -7.59383,-7.18937 4.62758,-3.83082 7.91658,-4.91843 7.97518,-9.38744 0.071,-5.41564 -2.8009,-5.93624 -7.41387,-8.57962 6.04393,-3.92349 7.19824,-4.62344 7.29434,-8.8741 0.0592,-2.62009 -3.02649,-2.87609 -7.89104,-5.74036 5.42195,-3.43032 8.88879,-1.28305 8.776,-9.65015 -0.0437,-3.23988 -2.63805,-5.45851 -7.03561,-7.77317 4.00657,-2.56454 7.65501,-2.88137 7.96579,-8.69128 0.24645,-4.60727 -3.58047,-5.26217 -7.63332,-7.07903 5.04663,-3.48349 8.00553,-3.77773 7.96855,-8.49348 -0.0402,-5.12066 -1.38038,-4.39329 -7.42376,-6.91636 6.51071,-4.29222 9.28479,-5.52772 9.10602,-9.56105 -0.17899,-4.03859 -4.8967,-4.3851 -8.71325,-6.61213 6.02957,-4.46844 10.31889,-4.57956 10.59056,-9.2618 0.21435,-3.694244 -1.42151,-5.744169 -8.22208,-5.866979 7.71218,-10.310917 15.5935,-15.513479 17.71437,-33.798181 z"
       id="path3679"
       style="fill:#f2f2f2;fill-opacity:1;stroke:none" />
    <path
       d="m 222.70523,42.1991 a 4.960365,4.8559361 0 0 1 -9.92073,0 4.960365,4.8559361 0 1 1 9.92073,0 z"
       id="path2855-7-9"
       style="opacity:0.98999999;fill:#008c31;fill-opacity:1;fill-rule:nonzero;stroke:none" />
    <path
       d="m 189.11537,391.22474 a 4.9207284,4.8171341 0 1 1 -9.84145,0 4.9207284,4.8171341 0 1 1 9.84145,0 z"
       id="path2855-7-9-7"
       style="opacity:0.98999999;fill:#008c31;fill-opacity:1;fill-rule:nonzero;stroke:none" />
    <path
       d="m 98.418919,311.89537 a 4.9207284,4.817134 0 1 1 -9.84145,0 4.9207284,4.817134 0 1 1 9.84145,0 z"
       id="path2855-9"
       style="opacity:0.98999999;fill:#008c31;fill-opacity:1;fill-rule:nonzero;stroke:none" />
    <use
       transform="translate(190,0)"
       id="use3767"
       x="0"
       y="0"
       width="390"
       height="480"
       xlink:href="#path2849" />
    <use
       transform="translate(190,0)"
       id="use3769"
       x="0"
       y="0"
       width="390"
       height="480"
       xlink:href="#path2855" />
    <use
       transform="translate(190,0)"
       id="use3771"
       x="0"
       y="0"
       width="390"
       height="480"
       xlink:href="#path2855-9" />
  </g>
</svg>
