<?xml version="1.0" encoding="UTF-8" standalone="no"?>
<!-- Created with Inkscape (http://www.inkscape.org/) -->

<svg
   xmlns:svg="http://www.w3.org/2000/svg"
   xmlns="http://www.w3.org/2000/svg"
   xmlns:xlink="http://www.w3.org/1999/xlink"
   version="1.1"
   width="390"
   height="480"
   id="svg4228">
  <defs
     id="defs4232">
    <linearGradient
       id="linearGradient3653">
      <stop
         id="stop3655"
         style="stop-color:#ffffff;stop-opacity:1"
         offset="0" />
      <stop
         id="stop3657"
         style="stop-color:#ffffff;stop-opacity:0"
         offset="1" />
    </linearGradient>
    <linearGradient
       x1="0"
       y1="109.87704"
       x2="390"
       y2="109.87704"
       id="linearGradient2843"
       xlink:href="#linearGradient3653"
       gradientUnits="userSpaceOnUse" />
  </defs>
  <path
     d="M 0,0 C 130,0 260,0 390,0 389.98981,114.99797 370.78556,350.14732 194.88837,479.99815 20.79131,350.08886 0.081386,115.02225 0,0 z"
     id="path4240-0"
     style="color:#000000;fill:#d61a1a;fill-opacity:1;fill-rule:nonzero;stroke:none;marker:none;visibility:visible;display:inline;overflow:visible;enable-background:accumulate" />
  <use
     transform="translate(87.999998,144)"
     id="use3844"
     x="0"
     y="0"
     width="390"
     height="480"
     xlink:href="#path2827-6" />
  <path
     d="m 105.51271,18.36865 -7.24576,7.5 -0.25423,81.61016 c -21.555793,3.48821 -25.798104,18.42275 -23.961874,27.77543 2.473791,12.60005 2.458841,24.79838 -2.16102,30.25424 15.210011,3.51649 15.284771,30.53082 -2.79661,32.09745 0.11141,2.6847 4.51101,5.33933 3.43221,8.07204 -20.410289,51.7012 9.035631,70.4744 32.796604,71.18644 24.1244,0.72293 58.38616,-25.184 32.41525,-70.9322 -1.61426,-2.84355 3.2473,-5.14921 3.94068,-8.38983 -16.87517,-1.04285 -19.25903,-27.80273 -2.66949,-32.16102 -4.3176,-4.57924 -4.53544,-17.14978 -2.16102,-31.14407 1.59426,-9.39622 -3.95832,-24.18938 -23.77119,-26.44068 l -0.63559,-82.11864 -6.92796,-7.30932 z"
     id="path2827-6"
     style="fill:#faf700;fill-opacity:1;stroke:none" />
  <path
     d="m 96.30896,68.206344 a 3.03237,3.2206318 0 0 1 -6.06474,0 3.03237,3.2206318 0 1 1 6.06474,0 z"
     id="path2829-5-5-1-3"
     style="fill:#faf700;fill-opacity:1;stroke:none" />
  <path
     d="m 95.95299,186.00806 c -9.930423,-1.52607 -10.845253,28.52839 -16.269453,25.21315 -2.21701,-1.35503 -1.49304,-5.01535 -0.80898,-7.99989 -3.08226,0.10216 -7.756761,12.83283 1.61796,12.76388 8.8545,-0.0651 8.01028,-23.20634 15.460473,-29.97714 z"
     id="path3780-8"
     style="fill:#d61a1a;fill-opacity:1;stroke:none" />
  <use
     transform="matrix(-1,0,0,1,210.89809,0)"
     id="use3024"
     x="0"
     y="0"
     width="390"
     height="480"
     xlink:href="#path3780-8" />
  <use
     transform="translate(182,0)"
     id="use3808"
     x="0"
     y="0"
     width="390"
     height="480"
     xlink:href="#path2827-6" />
  <use
     transform="translate(-2.4964922e-7,-10)"
     id="use3026"
     x="0"
     y="0"
     width="390"
     height="480"
     xlink:href="#path2829-5-5-1-3" />
  <use
     transform="translate(-2.4964922e-7,-30)"
     id="use3028"
     x="0"
     y="0"
     width="390"
     height="480"
     xlink:href="#path2829-5-5-1-3" />
  <use
     transform="translate(-2.4964922e-7,10)"
     id="use3030"
     x="0"
     y="0"
     width="390"
     height="480"
     xlink:href="#use3028" />
  <use
     transform="translate(23.612167,-27.148289)"
     id="use3032"
     x="0"
     y="0"
     width="390"
     height="480"
     xlink:href="#path2829-5-5-1-3" />
  <use
     transform="translate(7.5035078e-7,9.923955)"
     id="use3034"
     x="0"
     y="0"
     width="390"
     height="480"
     xlink:href="#use3032" />
  <use
     transform="translate(-2.4964922e-7,10.038023)"
     id="use3036"
     x="0"
     y="0"
     width="390"
     height="480"
     xlink:href="#use3034" />
  <use
     transform="translate(0.04562775,9.984791)"
     id="use3038"
     x="0"
     y="0"
     width="390"
     height="480"
     xlink:href="#use3036" />
  <use
     transform="translate(182,0)"
     id="use3816"
     x="0"
     y="0"
     width="390"
     height="480"
     xlink:href="#path2829-5-5-1-3" />
  <use
     transform="translate(182,0)"
     id="use3826"
     x="0"
     y="0"
     width="390"
     height="480"
     xlink:href="#path3780-8" />
  <use
     transform="translate(182,0)"
     id="use3828"
     x="0"
     y="0"
     width="390"
     height="480"
     xlink:href="#use3024" />
  <use
     transform="translate(182,0)"
     id="use3830"
     x="0"
     y="0"
     width="390"
     height="480"
     xlink:href="#use3026" />
  <use
     transform="translate(182,0)"
     id="use3832"
     x="0"
     y="0"
     width="390"
     height="480"
     xlink:href="#use3028" />
  <use
     transform="translate(182,0)"
     id="use3834"
     x="0"
     y="0"
     width="390"
     height="480"
     xlink:href="#use3030" />
  <use
     transform="translate(182,0)"
     id="use3836"
     x="0"
     y="0"
     width="390"
     height="480"
     xlink:href="#use3032" />
  <use
     transform="translate(182,0)"
     id="use3838"
     x="0"
     y="0"
     width="390"
     height="480"
     xlink:href="#use3034" />
  <use
     transform="translate(182,0)"
     id="use3840"
     x="0"
     y="0"
     width="390"
     height="480"
     xlink:href="#use3036" />
  <use
     transform="translate(182,0)"
     id="use3842"
     x="0"
     y="0"
     width="390"
     height="480"
     xlink:href="#use3038" />
  <use
     transform="translate(87.999998,144)"
     id="use3852"
     x="0"
     y="0"
     width="390"
     height="480"
     xlink:href="#path2829-5-5-1-3" />
  <use
     transform="translate(87.999998,144)"
     id="use3862"
     x="0"
     y="0"
     width="390"
     height="480"
     xlink:href="#path3780-8" />
  <use
     transform="translate(87.999998,144)"
     id="use3864"
     x="0"
     y="0"
     width="390"
     height="480"
     xlink:href="#use3024" />
  <use
     transform="translate(87.999998,144)"
     id="use3866"
     x="0"
     y="0"
     width="390"
     height="480"
     xlink:href="#use3026" />
  <use
     transform="translate(87.999998,144)"
     id="use3868"
     x="0"
     y="0"
     width="390"
     height="480"
     xlink:href="#use3028" />
  <use
     transform="translate(87.999998,144)"
     id="use3870"
     x="0"
     y="0"
     width="390"
     height="480"
     xlink:href="#use3030" />
  <use
     transform="translate(87.999998,144)"
     id="use3872"
     x="0"
     y="0"
     width="390"
     height="480"
     xlink:href="#use3032" />
  <use
     transform="translate(87.999998,144)"
     id="use3874"
     x="0"
     y="0"
     width="390"
     height="480"
     xlink:href="#use3034" />
  <use
     transform="translate(87.999998,144)"
     id="use3876"
     x="0"
     y="0"
     width="390"
     height="480"
     xlink:href="#use3036" />
  <use
     transform="translate(87.999998,144)"
     id="use3878"
     x="0"
     y="0"
     width="390"
     height="480"
     xlink:href="#use3038" />
</svg>
