<?xml version="1.0" encoding="UTF-8" standalone="no"?>
<!-- Created with Inkscape (http://www.inkscape.org/) -->

<svg
   xmlns:svg="http://www.w3.org/2000/svg"
   xmlns="http://www.w3.org/2000/svg"
   xmlns:xlink="http://www.w3.org/1999/xlink"
   version="1.1"
   width="390"
   height="480"
   id="svg4228">
  <defs
     id="defs4232" />
  <path
     d="m 0.51202379,0.50512952 c 129.66265621,0 259.32532621,0 388.98797621,0 C 389.48983,115.23328 370.33544,349.8309 194.89467,479.37706 21.249382,349.77255 0.5931986,115.2575 0.51202379,0.50512952 z"
     id="path4240-0-1"
     style="fill:#d9d9d9;fill-opacity:1;stroke:#999999;stroke-width:0.99999905;stroke-opacity:1" />
  <path
     d="m 77.908497,187.45098 c 10.313931,0.0254 22.653423,-9.40377 21.699346,-22.35294 -1.255861,-17.0452 -11.518192,-23.323 -21.045751,-44.57516 -9.725692,21.2141 -20.306528,25.88258 -21.699347,43.52941 -1.116899,14.15097 9.113471,23.36926 21.045752,23.39869 z"
     id="path3690"
     style="fill:#207dbf;fill-opacity:1;stroke:none" />
  <use
     transform="translate(118,0)"
     id="use3692"
     x="0"
     y="0"
     width="390"
     height="480"
     xlink:href="#path3690" />
  <use
     transform="translate(238,0)"
     id="use3694"
     x="0"
     y="0"
     width="390"
     height="480"
     xlink:href="#path3690" />
  <use
     transform="translate(172,82)"
     id="use3696"
     x="0"
     y="0"
     width="390"
     height="480"
     xlink:href="#path3690" />
  <use
     transform="translate(54,82)"
     id="use3698"
     x="0"
     y="0"
     width="390"
     height="480"
     xlink:href="#path3690" />
</svg>
