<?xml version="1.0" encoding="UTF-8" standalone="no"?>
<!-- Created with Inkscape (http://www.inkscape.org/) -->

<svg
   xmlns:svg="http://www.w3.org/2000/svg"
   xmlns="http://www.w3.org/2000/svg"
   version="1.1"
   width="390"
   height="480"
   id="svg4228">
  <defs
     id="defs4232" />
  <path
     d="m 0.51202379,0.50512952 c 129.66265621,0 259.32532621,0 388.98797621,0 C 389.48983,115.23328 370.33544,349.8309 194.89467,479.37706 21.249382,349.77255 0.5931986,115.2575 0.51202379,0.50512952 z"
     id="path4240-0-1"
     style="fill:#faf700;fill-opacity:1;stroke:#9e832a;stroke-width:0.99999905;stroke-opacity:1" />
  <path
     d="m 65.796885,161.62217 c -9.847429,4.73776 -12.520173,16.56129 -8.539213,28.04458 0.865835,2.49755 4.924516,4.33418 8.179668,4.31455 l 107.86375,-0.0899 c 2.23945,-0.002 6.45606,-3.42975 6.65159,-5.57296 0.63514,-6.96163 2.93951,-20.79236 -9.34819,-26.78616 -10.12721,-44.0144 -21.41166,-73.336611 -17.43797,-83.504519 5.07836,-12.99454 12.17797,-8.250587 15.64057,-0.449578 1.3008,2.930617 -0.44199,4.946792 0.60766,5.938452 1.53196,1.447312 4.00346,3.224467 1.90883,5.117729 -2.09648,1.894928 -3.05337,4.312002 -2.6067,6.561711 0.93719,4.720292 3.37259,14.946105 5.75273,19.775015 1.89707,3.84884 17.32017,-1.64909 17.8874,-4.5842 0.66579,-3.4451 -1.23906,-13.148394 -4.22466,-19.954798 -1.89309,-4.315768 -4.2416,-4.47475 -5.75273,-4.584199 -2.81079,-0.203582 0.12322,-5.707927 -0.98376,-6.858772 -1.70159,-1.769011 -3.30252,-1.708662 -4.37169,-3.987481 C 172.56856,65.504991 168.43972,55.567247 159.2788,50.702289 115.87275,27.651267 99.835364,69.246928 91.324639,86.297326 78.617185,111.75546 75.63791,143.08447 65.796885,161.62217 z"
     id="path3650"
     style="fill:#d61a1a;fill-opacity:1;stroke:none" />
  <path
     d="m 213.79689,161.62217 c -9.84743,4.73776 -12.52018,16.56129 -8.53922,28.04458 0.86584,2.49755 4.92452,4.33418 8.17967,4.31455 l 107.86375,-0.0899 c 2.23945,-0.002 6.45606,-3.42975 6.65159,-5.57296 0.63514,-6.96163 2.93951,-20.79236 -9.34819,-26.78616 -10.12721,-44.0144 -21.41166,-73.336611 -17.43797,-83.504519 5.07836,-12.99454 12.17797,-8.250587 15.64057,-0.449578 1.3008,2.930617 -0.44199,4.946792 0.60766,5.938452 1.53196,1.447312 4.00346,3.224467 1.90883,5.117729 -2.09648,1.894928 -3.05337,4.312002 -2.6067,6.561711 0.93719,4.720292 3.37259,14.946105 5.75273,19.775015 1.89707,3.84884 17.32017,-1.64909 17.8874,-4.5842 0.66579,-3.4451 -1.23906,-13.148394 -4.22466,-19.954798 -1.89309,-4.315768 -4.2416,-4.47475 -5.75273,-4.584199 -2.81079,-0.203582 0.12322,-5.707927 -0.98376,-6.858772 -1.70159,-1.769011 -3.30252,-1.708662 -4.37169,-3.987481 -4.45561,-9.496649 -8.58445,-19.434393 -17.74537,-24.299351 -43.40605,-23.051022 -59.44344,18.544639 -67.95416,35.595037 -12.70745,25.458134 -15.68673,56.787144 -25.52775,75.324844 z"
     id="path3656"
     style="fill:#d61a1a;fill-opacity:1;stroke:none" />
  <path
     d="m 140.24591,328.75969 c -10.10989,4.86404 -12.85388,17.00271 -8.7668,28.79206 0.8889,2.56411 5.05576,4.4497 8.39767,4.42955 l 110.73869,-0.0923 c 2.29913,-0.002 6.62814,-3.52117 6.82887,-5.7215 0.65208,-7.14717 3.01785,-21.34654 -9.59735,-27.5001 -10.39713,-45.18752 -21.98236,-75.29127 -17.90275,-85.7302 5.21372,-13.34088 12.50255,-8.47049 16.05745,-0.46156 1.33546,3.00874 -0.45377,5.07866 0.62386,6.09674 1.57278,1.48589 4.11016,3.3104 1.95969,5.25412 -2.15236,1.94545 -3.13475,4.42695 -2.67616,6.73662 0.96215,4.84611 3.46247,15.34446 5.90605,20.30209 1.94763,3.95142 17.78181,-1.69305 18.36416,-4.7064 0.68353,-3.53692 -1.27208,-13.49883 -4.33726,-20.48666 -1.94355,-4.43079 -4.35466,-4.59401 -5.90607,-4.70638 -2.88569,-0.209 0.12652,-5.86006 -1.00998,-7.04157 -1.74693,-1.81617 -3.39054,-1.75422 -4.48821,-4.09376 -4.57435,-9.74977 -8.81325,-19.95239 -18.21833,-24.94701 -44.56297,-23.66542 -61.02782,19.0389 -69.76538,36.54376 -13.04614,26.13667 -16.10483,58.3007 -26.20816,77.3325 z"
     id="path3658"
     style="fill:#d61a1a;fill-opacity:1;stroke:none" />
</svg>
