<?xml version="1.0" encoding="UTF-8" standalone="no"?>
<!-- Created with Inkscape (http://www.inkscape.org/) -->

<svg
 xmlns:dc="http://purl.org/dc/elements/1.1/"
 xmlns:cc="http://creativecommons.org/ns#"
 xmlns:rdf="http://www.w3.org/1999/02/22-rdf-syntax-ns#"
 xmlns:svg="http://www.w3.org/2000/svg"
 xmlns="http://www.w3.org/2000/svg"
 version="1.1"
 width="390"
 height="480"
 id="svg4228">
<metadata
 id="metadata102">
<rdf:RDF>
<cc:Work
 rdf:about="">
<dc:format>image/svg+xml</dc:format>
<dc:type
 rdf:resource="http://purl.org/dc/dcmitype/StillImage" />
<dc:title></dc:title>
</cc:Work>
</rdf:RDF>
</metadata>
<defs
 id="defs4232" />
<path
 d="m 1.5065705,1.5029122 c 128.9969595,0 257.9939395,0 386.9908995,0 C 388.48736,115.69458 369.4313,349.19518 194.89125,478.13556 22.137462,349.1371 1.5873286,115.71869 1.5065705,1.5029122 z"
 id="path4240-0"
 style="fill:#0581e8;fill-opacity:1;stroke:#000000;stroke-width:2.98909354;stroke-miterlimit:4;stroke-opacity:1;stroke-dasharray:none" />
<path
 d="m 52,59.375001 21.625,-0.0625 8.875,-21.5625 8.4375,21.8125 21,-0.25 L 95.105862,73.50199 101.20466,97.543621 82.024386,84.550534 63.020892,97.808786 69.031299,74.120709 52,59.375001 z"
 id="path3621"
 style="fill:#ffffff;stroke:#000000;stroke-width:3;stroke-linecap:butt;stroke-linejoin:miter;stroke-miterlimit:4;stroke-opacity:1;stroke-dasharray:none" />
<path
 d="m 274,59.375 21.625,-0.0625 8.875,-21.5625 8.4375,21.8125 21,-0.25 -16.83164,14.189489 6.0988,24.041631 L 304.02439,84.550533 285.02089,97.808785 291.0313,74.120708 274,59.375 z"
 id="path3621-1"
 style="fill:#ffffff;stroke:#000000;stroke-width:3;stroke-linecap:butt;stroke-linejoin:miter;stroke-miterlimit:4;stroke-opacity:1;stroke-dasharray:none" />
<path
 d="m 337.75,266.25 c -34.65853,-18.66223 -32.66477,-39.82076 -55.875,-43.625 -12.44174,-2.03924 -17.58143,-16.57129 -17.875,-29 -0.21434,-9.07419 0.1952,-22.6508 -0.125,-34.125 8.85073,0.64925 6.61017,-7.97313 4,-9.5 -4.60888,-2.69607 -8.37203,-4.05854 -12.625,-6.75 -5.65746,-3.58028 -3.86455,-13.27543 -4.25,-20.25 l 5.625,-7.875 -30,-16.874999 -58,15.249999 3.25,7.375 c 0.69533,9.18162 1.6695,19.52737 -5.125,21.125 -15.41666,3.62501 -45.32462,3.67761 -46.25,10.875 l -6.75,52.5 c -1.10852,8.62184 -38.478722,20.87364 -38.875,31.375 l -0.25,6.625 c -13.487375,4.0408 -23.397429,17.00947 -27,26.375 28.861702,-10.41445 58.68638,-5.90284 88.875,4.25 37.78876,-12.67454 79.16337,-15.64619 128.25,2.25 18.63615,-14.74259 47.19443,-12.20331 73,-10 z"
 id="path3840"
 style="fill:#000000;stroke:none" />
<path
 d="m 45.744459,269.33267 c 8.36315,-4.18279 25.301856,-11.57327 39.815461,-11.54098 32.27499,0.0718 30.33821,12.72639 49.49747,12.1976 23.1546,-0.63907 34.10962,-11.43548 58.86664,-12.02082 23.2518,-0.54975 44.49026,12.90416 60.10408,12.72792 18.47235,-0.20851 21.10189,-12.62429 48.61359,-12.72792 18.13566,-0.0683 31.16832,3.6959 43.18012,8.78211 -0.80781,2.8247 -3.08715,7.8561 -4.24999,10.47655 -12.66688,-5.1694 -25.59153,-9.34784 -38.75335,-8.82883 -27.51824,1.08512 -30.644,12.73703 -48.61359,12.55114 -22.46161,-0.23236 -35.9465,-12.39616 -59.75053,-12.72792 -25.59628,-0.35673 -29.05025,10.50179 -59.22019,12.19759 -19.61118,1.10231 -28.14481,-12.01125 -48.260036,-12.02081 -10.505065,-0.005 -28.230622,6.94922 -37.285604,10.67089 -1.239739,-2.96649 -2.616881,-6.1916 -3.944071,-9.73652 z"
 id="path3645"
 style="fill:#f2f2f2;stroke:#000000;stroke-width:1.5;stroke-linecap:butt;stroke-linejoin:miter;stroke-miterlimit:4;stroke-opacity:1;stroke-dasharray:none" />
<path
 d="m 53.712614,289.40024 c 8.64683,-3.5573 21.420841,-7.63175 31.847306,-7.60855 32.27499,0.0718 30.33821,12.72639 49.49747,12.1976 23.1546,-0.63907 34.10962,-11.43548 58.86664,-12.02082 23.2518,-0.54975 44.49026,12.90416 60.10408,12.72792 18.47235,-0.20851 21.10189,-12.62439 48.61359,-12.72792 13.88973,-0.0523 24.83291,2.95756 34.38951,6.739 -0.55963,1.66873 -2.07199,5.40485 -3.44331,8.21052 -9.96909,-3.08789 -20.59603,-4.92086 -30.76942,-4.51969 -27.51824,1.08513 -30.644,12.73703 -48.61359,12.55114 -22.46161,-0.23236 -35.9465,-12.39616 -59.75053,-12.72792 -25.59628,-0.35673 -29.05025,10.50179 -59.22019,12.19759 -19.61118,1.10231 -28.14481,-12.01128 -48.260036,-12.02081 -7.546002,-0.003 -19.624272,4.11844 -28.666769,7.46752 -1.590283,-3.57298 -3.701822,-7.98745 -4.594751,-10.46558 z"
 id="path3645-7"
 style="fill:#f2f2f2;stroke:#000000;stroke-width:1.5;stroke-linecap:butt;stroke-linejoin:miter;stroke-miterlimit:4;stroke-opacity:1;stroke-dasharray:none" />
<path
 d="m 62.521004,309.19922 c 4.548207,-1.57059 12.430776,-3.43113 23.038916,-3.40753 32.27499,0.0718 30.33821,12.72639 49.49747,12.1976 23.1546,-0.63907 34.10962,-11.43548 58.86664,-12.02082 23.2518,-0.54975 44.49026,12.90416 60.10408,12.72792 18.47235,-0.20851 21.10189,-12.62429 48.61359,-12.72792 9.43526,-0.0355 18.264,1.43668 25.5436,3.52567 -0.65422,1.46997 -3.15624,6.44142 -4.61769,9.72489 -6.77064,-1.40215 -13.93443,-3.08946 -20.74913,-2.82073 -27.51824,1.08514 -30.644,12.73703 -48.61359,12.55114 -22.46161,-0.23236 -35.9465,-12.39616 -59.75053,-12.72792 -25.59628,-0.35673 -29.05025,10.50179 -59.22019,12.19759 -19.61118,1.10231 -28.14481,-12.01125 -48.260036,-12.02081 -7.65588,-0.004 -15.135374,1.72679 -19.773577,3.08969 -0.871426,-1.94127 -3.73194,-7.82877 -4.679553,-10.28877 z"
 id="path3645-7-4"
 style="fill:#f2f2f2;stroke:#000000;stroke-width:1.5;stroke-linecap:butt;stroke-linejoin:miter;stroke-miterlimit:4;stroke-opacity:1;stroke-dasharray:none" />
<path
 d="m 135.05739,341.98929 c 23.1546,-0.63907 34.10962,-11.43548 58.86664,-12.02082 23.2518,-0.54975 44.49026,12.90416 60.10408,12.72792 18.47235,-0.20851 21.10189,-12.62441 48.61359,-12.72792 5.21575,-0.0196 10.51359,0.43357 14.99437,1.16552 -1.11636,1.9513 -3.77882,7.31184 -5.58712,10.05483 -2.99709,-0.26182 -6.2758,-0.90703 -9.23047,-0.79052 -27.51824,1.08514 -30.644,12.73703 -48.61359,12.55114 -22.46161,-0.23236 -35.9465,-12.39616 -59.75053,-12.72792 -25.59628,-0.35673 -29.05025,10.50179 -59.22019,12.19759 -26.16073,-1.22635 -28.26741,-15.64905 -56.933942,-11.54347 -2.102394,-3.68559 -3.983577,-7.38242 -5.642662,-10.38523 24.615278,-7.27168 49.233004,11.54248 62.399824,11.49888 z"
 id="path3645-7-4-0"
 style="fill:#f2f2f2;stroke:#000000;stroke-width:1.5;stroke-linecap:butt;stroke-linejoin:miter;stroke-miterlimit:4;stroke-opacity:1;stroke-dasharray:none" />
<path
 d="m 86.36129,354.98241 c 27.08012,1.09044 31.252,11.48833 48.6961,11.00688 23.1546,-0.63906 34.10962,-11.43548 58.86664,-12.02082 23.2518,-0.54975 44.49026,12.90416 60.10408,12.72792 17.15396,-0.19363 19.75248,-11.42356 50.74572,-12.63276 -2.2702,4.45024 -4.47887,7.35288 -6.87286,11.28658 -21.14543,1.68929 -27.58868,11.76586 -43.69608,11.59923 -22.46161,-0.23236 -35.94651,-13.06066 -59.75053,-12.72792 -25.06595,0.35038 -24.45406,9.44114 -59.22019,12.72792 -16.38921,1.54943 -27.20783,-8.84842 -41.999539,-10.54653 -1.808483,-2.73873 -5.798605,-9.40217 -6.873341,-11.4205 z"
 id="path3645-7-4-0-9"
 style="fill:#f2f2f2;stroke:#000000;stroke-width:1.5;stroke-linecap:butt;stroke-linejoin:miter;stroke-miterlimit:4;stroke-opacity:1;stroke-dasharray:none" />
<path
 d="m 103.8706,381.96769 c 14.13795,3.69375 18.4381,10.91487 32.68679,10.5216 23.1546,-0.63907 32.60962,-11.93548 57.36664,-12.52082 23.2518,-0.54975 44.49026,12.90416 60.10408,12.72792 14.26998,-0.16107 19.07316,-8.84008 33.61368,-11.55133 -1.27139,2.95306 -9.06972,12.26463 -11.69583,15.62276 -6.70753,3.03976 -12.5388,6.27681 -21.74107,6.18162 -22.46161,-0.23236 -35.9465,-12.39616 -59.75053,-12.72792 -25.59628,-0.35673 -27.55025,10.2518 -57.72019,11.94759 -7.48167,0.42053 -15.03044,-1.72187 -21.07831,-4.03792 -4.34556,-5.14167 -6.55106,-8.68004 -11.78526,-16.1635 z"
 id="path3645-7-4-0-9-4"
 style="fill:#f2f2f2;stroke:#000000;stroke-width:1.5;stroke-linecap:butt;stroke-linejoin:miter;stroke-miterlimit:4;stroke-opacity:1;stroke-dasharray:none" />
<path
 d="m 131.62063,418.23839 c 16.82185,-0.93888 35.87808,-12.41373 62.3034,-12.26992 20.80627,0.11323 44.09414,11.58878 64.25396,12.36197 -5.47977,6.31604 -7.83324,9.22388 -10.01939,11.07083 -18.39775,-2.44051 -32.67288,-12.88664 -53.70424,-13.17975 -23.70414,-0.33036 -30.90935,7.35138 -53.52459,12.33202 -2.59581,-2.55612 -7.4275,-8.22933 -9.30914,-10.31515 z"
 id="path3645-7-4-0-9-4-8"
 style="fill:#f2f2f2;fill-opacity:1;stroke:#000000;stroke-width:1.5;stroke-linecap:butt;stroke-linejoin:miter;stroke-miterlimit:4;stroke-opacity:1;stroke-dasharray:none" />
<path
 d="m 153.16843,441.55723 c 12.31597,-3.46605 23.98116,-9.19216 40.7556,-9.58876 15.10068,-0.35703 30.39818,5.55763 42.85094,9.47795 -3.80917,4.08845 -6.29543,6.14719 -9.36715,8.79905 -9.82704,-3.41331 -20.2281,-7.8466 -32.95346,-8.02395 -14.49056,-0.20195 -23.01232,4.35244 -32.26432,7.73972 -3.51275,-2.95461 -6.47958,-5.75741 -9.02161,-8.40401 z"
 id="path3645-7-4-0-9-4-8-8"
 style="fill:#f2f2f2;fill-opacity:1;stroke:#000000;stroke-width:1.5;stroke-linecap:butt;stroke-linejoin:miter;stroke-miterlimit:4;stroke-opacity:1;stroke-dasharray:none" />
<path
 d="m 123.6875,154.8125 c -0.70361,3.05344 -1.01237,6.81554 1,6.9375 2.75,0.16667 8.17879,1.01545 8.25,-2.6875 l 0.125,-6.5 c 0.0717,-3.73047 -8.85594,-0.003 -9.375,2.25 z"
 id="path3842"
 style="fill:#ffffff;fill-opacity:1;stroke:none" />
<path
 d="m 136.8125,152.4375 c -0.061,-2.15719 6.10203,-3.53446 6.125,-1.375 l 0.0625,5.875 c 0.0391,3.67065 -5.96338,3.41884 -6,2.125 l -0.1875,-6.625 z"
 id="path3844"
 style="fill:#ffffff;fill-opacity:1;stroke:none" />
<path
 d="m 149.6875,148.5625 c -1.98124,0.27905 -1.88972,8.78166 0.4375,8.4375 L 159,155.6875 c 2.14541,-0.31728 2.44893,-8.78154 -0.4375,-8.375 l -8.875,1.25 z"
 id="path3846"
 style="fill:#ffffff;fill-opacity:1;stroke:none" />
<path
 d="m 163.461,146.28326 c -1.98124,0.27905 -1.88972,8.78166 0.4375,8.4375 l 8.875,-1.3125 c 2.14541,-0.31728 2.44893,-8.78154 -0.4375,-8.375 l -8.875,1.25 z"
 id="path3846-2"
 style="fill:#ffffff;fill-opacity:1;stroke:none" />
<path
 d="m 177.5555,144.18563 c -2.2912,0.2575 -2.18537,8.1035 0.50595,7.78592 l 10.26351,-1.21115 c 2.48105,-0.29277 2.83207,-8.10338 -0.50595,-7.72824 l -10.26351,1.15347 z"
 id="path3846-5"
 style="fill:#ffffff;fill-opacity:1;stroke:none" />
<path
 d="m 193.48592,140.53843 c -2.2812,0.30778 -2.17582,9.68588 0.50374,9.30628 l 10.21872,-1.44764 c 2.47023,-0.34995 2.81971,-9.68575 -0.50375,-9.23735 l -10.21871,1.37871 z"
 id="path3846-1"
 style="fill:#ffffff;fill-opacity:1;stroke:none" />
<path
 d="m 209.77255,136.63089 c -2.42119,0.3006 -2.30935,9.45982 0.53466,9.08908 l 10.84578,-1.41385 c 2.62182,-0.34179 2.99274,-9.4597 -0.53465,-9.02176 l -10.84579,1.34653 z"
 id="path3846-11"
 style="fill:#ffffff;fill-opacity:1;stroke:none" />
<path
 d="m 210.32333,149.54398 c -2.58117,0.29522 -2.46194,9.29028 0.56999,8.92619 l 11.56243,-1.38851 c 2.79506,-0.33567 3.19049,-9.29016 -0.56998,-8.86007 l -11.56244,1.32239 z"
 id="path3846-11-5"
 style="fill:#ffffff;fill-opacity:1;stroke:none" />
<path
 d="m 193.9441,152.3011 c -2.30066,0.19895 -2.51593,8.84401 0.18712,8.59368 l 10.30821,-0.95469 c 2.49186,-0.2308 3.1623,-8.82001 -0.18949,-8.53016 l -10.30584,0.89117 z"
 id="path3846-11-7"
 style="fill:#ffffff;fill-opacity:1;stroke:none" />
<path
 d="m 177.70173,155.14755 c -2.3212,0.26288 -2.21398,8.27302 0.51258,7.94879 l 10.39788,-1.23647 c 2.51354,-0.29891 2.86914,-8.27292 -0.51257,-7.88993 l -10.39789,1.17761 z"
 id="path3846-11-1"
 style="fill:#ffffff;fill-opacity:1;stroke:none" />
<path
 d="m 163.11308,157.91936 c -1.93123,0.25391 -1.84203,7.99047 0.42647,7.67731 l 8.65105,-1.19424 c 2.09127,-0.2887 2.38713,-7.99036 -0.42646,-7.62044 l -8.65106,1.13737 z"
 id="path3846-11-2"
 style="fill:#ffffff;fill-opacity:1;stroke:none" />
<path
 d="m 149.6331,160.76182 c -1.87125,0.24673 -1.78481,7.76441 0.41322,7.46011 l 8.3823,-1.16045 c 2.02631,-0.28054 2.31298,-7.76431 -0.41321,-7.40486 l -8.38231,1.1052 z"
 id="path3846-11-22"
 style="fill:#ffffff;fill-opacity:1;stroke:none" />
<path
 d="m 136.44267,162.78483 c -1.84306,0.0197 -2.54384,7.46082 -0.3774,7.42341 l 8.26182,-0.14267 c 1.99718,-0.0345 3.05677,-7.39743 0.37164,-7.36879 l -8.25606,0.0881 z"
 id="path3846-11-6"
 style="fill:#ffffff;fill-opacity:1;stroke:none" />
<path
 d="m 125.27507,165.74806 c -1.4033,0.27766 -0.92533,6.23599 0.72226,5.89835 l 6.28308,-1.28759 c 1.51883,-0.31127 1.32519,-6.25904 -0.71924,-5.85453 l -6.2861,1.24377 z"
 id="path3846-11-57"
 style="fill:#ffffff;fill-opacity:1;stroke:none" />
<path
 d="m 141.11567,199.02493 c -1.89165,0.0933 -1.49132,8.45193 0.0676,8.37464 l 9.77559,-0.42516 c 2.03988,-0.61713 1.08539,-8.91501 -0.21249,-8.37167 l -9.6307,0.42218 z"
 id="path3986"
 style="fill:#ffffff;fill-opacity:1;stroke:none" />
<path
 d="m 125.69246,199.75983 c -1.93087,0.3012 -0.62283,9.23589 0.96837,8.98727 l 9.98448,-1.49518 c 2.02673,-0.87952 0.15663,-9.69007 -1.11669,-8.96864 l -9.83616,1.47655 z"
 id="path3986-6"
 style="fill:#ffffff;fill-opacity:1;stroke:none" />
<path
 d="m 199.22323,163.27515 c -2.27247,0.45962 -0.52575,8.89768 1.34695,8.51852 l 11.75226,-2.31695 c 2.37248,-1.02178 -0.0349,-9.29119 -1.5216,-8.48755 l -11.57757,2.28597 z"
 id="path3986-8"
 style="fill:#ffffff;fill-opacity:1;stroke:none" />
<path
 d="m 182.64611,165.31731 c -2.04986,0.37519 -0.17907,8.5024 1.51017,8.19282 l 10.60295,-1.88299 c 2.12187,-0.91049 -0.3437,-8.89506 -1.66789,-8.16814 l -10.44523,1.85831 z"
 id="path3986-2"
 style="fill:#ffffff;fill-opacity:1;stroke:none" />
<path
 d="m 168.12185,167.88759 c -1.91078,0.28777 -0.48638,7.65815 1.08824,7.42066 l 9.88143,-1.43648 c 1.99762,-0.76844 0.0175,-8.02489 -1.23509,-7.40231 l -9.73458,1.41813 z"
 id="path3986-9"
 style="fill:#ffffff;fill-opacity:1;stroke:none" />
<path
 d="m 153.87264,170.81315 c -1.80759,0.31591 -0.24894,7.28806 1.24064,7.0274 l 9.34918,-1.58458 c 1.87672,-0.7746 -0.20675,-7.62612 -1.37965,-7.00669 l -9.21017,1.56387 z"
 id="path3986-4"
 style="fill:#ffffff;fill-opacity:1;stroke:none" />
<path
 d="m 139.54558,172.75301 c -2.05378,0.21385 -0.80927,6.98914 0.8832,6.81259 l 10.61893,-1.05868 c 2.16477,-0.65107 0.32188,-7.33651 -1.04089,-6.79959 l -10.46124,1.04568 z"
 id="path3986-1"
 style="fill:#ffffff;fill-opacity:1;stroke:none" />
<path
 d="m 123.9485,173.77021 c -1.97853,0.1915 -0.79183,6.32299 0.83862,6.16489 l 10.22978,-0.94759 c 2.0862,-0.58699 0.32298,-6.63778 -0.99055,-6.1533 l -10.07785,0.936 z"
 id="path3986-3"
 style="fill:#ffffff;fill-opacity:1;stroke:none" />
<path
 d="m 208.39397,172.96247 c -2.45245,0.26935 -1.18904,9.70479 0.83198,9.48237 l 12.6787,-1.32728 c 2.59873,-0.87562 0.61986,-10.19431 -1.02018,-9.46645 l -12.4905,1.31136 z"
 id="path3986-11"
 style="fill:#ffffff;fill-opacity:1;stroke:none" />
<path
 d="m 189.33397,175.76936 c -2.24668,0.34089 -0.53798,8.89417 1.31344,8.61287 l 11.61865,-1.70281 c 2.34667,-0.89932 -0.0152,-9.31835 -1.48614,-8.59102 l -11.44595,1.68096 z"
 id="path3986-7"
 style="fill:#ffffff;fill-opacity:1;stroke:none" />
<path
 d="m 173.02477,177.94377 c -2.19491,0.34557 -0.42448,8.51062 1.38424,8.22546 l 11.35166,-1.72968 c 2.28638,-0.8805 -0.12184,-8.91148 -1.55299,-8.20308 l -11.18291,1.7073 z"
 id="path3986-27"
 style="fill:#ffffff;fill-opacity:1;stroke:none" />
<path
 d="m 159.39047,179.73007 c -1.90395,0.30105 -0.54502,8.36239 1.02398,8.11392 l 9.84567,-1.50032 c 1.9942,-0.82551 0.0813,-8.76625 -1.17027,-8.09489 l -9.69938,1.48129 z"
 id="path3986-31"
 style="fill:#ffffff;fill-opacity:1;stroke:none" />
<path
 d="m 144.3371,181.15301 c -1.97366,0.12496 -1.2859,7.16048 0.34057,7.05718 l 10.20121,-0.59762 c 2.11164,-0.5701 0.8468,-7.54085 -0.49186,-7.05111 l -10.04992,0.59155 z"
 id="path3986-65"
 style="fill:#ffffff;fill-opacity:1;stroke:none" />
<path
 d="m 130.72601,182.2696 c -1.62035,0.20044 -0.71211,6.56634 0.62318,6.40086 l 8.37742,-0.99212 c 1.71245,-0.61119 0.33181,-6.89281 -0.74756,-6.38869 l -8.25304,0.97995 z"
 id="path3986-28"
 style="fill:#ffffff;fill-opacity:1;stroke:none" />
<path
 d="m 122.52887,183.32489 c -0.91834,0.21734 -0.40359,7.11997 0.35318,6.94054 l 4.74792,-1.07577 c 0.97053,-0.66272 0.18805,-7.47397 -0.42368,-6.92734 l -4.67742,1.06257 z"
 id="path3986-28-6"
 style="fill:#ffffff;fill-opacity:1;stroke:none" />
<path
 d="m 205.72571,128.23715 c 0.0586,-1.69935 -7.44699,-1.78056 -7.49496,-0.38012 l -0.35409,8.77879 c 0.39871,1.85966 7.89161,1.44132 7.50317,0.25019 l 0.34588,-8.64886 z"
 id="path3986-28-2"
 style="fill:#ffffff;fill-opacity:1;stroke:none" />
<path
 d="m 233.08007,150.44405 c 0.0152,-2.45362 7.45147,0.65415 7.46882,3.44714 l 0.0442,7.11526 c 0.009,1.39418 -7.5779,-0.0503 -7.5572,-3.40295 l 0.0442,-7.15945 z"
 id="path4242"
 style="fill:#ffffff;fill-opacity:1;stroke:none" />
<path
 d="m 225.90162,135.99535 c 0.0163,-2.14588 7.97438,0.5721 7.99295,3.01479 l 0.0473,6.22284 c 0.01,1.21931 -8.10968,-0.044 -8.08753,-2.97615 l 0.0473,-6.26148 z"
 id="path4242-0"
 style="fill:#ffffff;fill-opacity:1;stroke:none" />
<path
 d="m 226.93709,124.18649 c 0.0116,-1.77519 5.69077,0.47328 5.70402,2.49402 l 0.0337,5.1479 c 0.007,1.0087 -5.78733,-0.0364 -5.77152,-2.46204 l 0.0337,-5.17988 z"
 id="path4242-6"
 style="fill:#ffffff;fill-opacity:1;stroke:none" />
<path
 d="m 234.33057,127.60462 c 0.0109,-1.46799 5.31044,0.39137 5.32281,2.06241 l 0.0316,4.25702 c 0.007,0.83413 -5.40055,-0.0301 -5.3858,-2.03597 l 0.0316,-4.28346 z"
 id="path4242-3"
 style="fill:#ffffff;fill-opacity:1;stroke:none" />
<path
 d="m 223.16642,159.49879 c -0.0171,-2.21043 -8.37584,0.5893 -8.39535,3.10545 l -0.0497,6.40998 c -0.0101,1.25599 8.51796,-0.0453 8.49469,-3.06565 l -0.0497,-6.44978 z"
 id="path4242-9"
 style="fill:#ffffff;fill-opacity:1;stroke:none" />
<path
 d="m 227.77072,161.51488 c 0.017,-2.08241 8.31422,0.55518 8.33358,2.92561 l 0.0493,6.03879 c 0.01,1.18325 -8.45529,-0.0427 -8.4322,-2.88812 l 0.0493,-6.07628 z"
 id="path4242-4"
 style="fill:#ffffff;fill-opacity:1;stroke:none" />
<path
 d="m 233.21078,174.87813 c 0.0178,-1.87762 8.7456,0.50057 8.76596,2.63787 l 0.0519,5.44487 c 0.0106,1.06689 -8.89398,-0.0385 -8.86969,-2.60407 l 0.0519,-5.47867 z"
 id="path4242-60"
 style="fill:#ffffff;fill-opacity:1;stroke:none" />
<path
 d="m 226.21631,173.23592 c -0.007,-1.55861 5.54551,0.33671 5.57925,2.11055 l 0.086,4.51891 c 0.0173,0.88545 -5.63501,0.0481 -5.64464,-2.08154 l -0.0205,-4.54792 z"
 id="path4242-61"
 style="fill:#ffffff;fill-opacity:1;stroke:none" />
<path
 d="m 254.58322,189.38059 c 0.017,-2.0568 8.31422,0.54836 8.33358,2.88966 l 0.0493,5.96454 c 0.01,1.16871 -8.45529,-0.0421 -8.4322,-2.85261 l 0.0493,-6.00159 z"
 id="path4242-96"
 style="fill:#ffffff;fill-opacity:1;stroke:none" />
<path
 d="m 257.68335,180.4264 c 0.008,-1.4936 4.12371,0.3982 4.13331,2.09838 l 0.0244,4.33127 c 0.005,0.84867 -4.19368,-0.0306 -4.18222,-2.07149 l 0.0244,-4.35816 z"
 id="path4242-8"
 style="fill:#ffffff;fill-opacity:1;stroke:none" />
<path
 d="m 251.37384,178.80697 c 0.009,-1.25039 4.61671,0.33336 4.62746,1.7567 l 0.0273,3.62599 c 0.006,0.71048 -4.69505,-0.0256 -4.68222,-1.73418 l 0.0273,-3.64851 z"
 id="path4242-8-8"
 style="fill:#ffffff;fill-opacity:1;stroke:none" />
<path
 d="m 256.31501,170.52015 c 0.0102,-1.4936 5.23296,0.3982 5.24515,2.09838 l 0.031,4.33127 c 0.006,0.84867 -5.32176,-0.0306 -5.30721,-2.07149 l 0.031,-4.35816 z"
 id="path4242-8-9"
 style="fill:#ffffff;fill-opacity:1;stroke:none" />
<path
 d="m 255.44368,158.17981 c -0.0108,-1.04116 5.87023,0.002 5.88493,1.39385 l 0.0437,4.14267 c 0.008,0.80503 -5.97972,0.5335 -5.96346,-1.40247 l 0.0346,-4.13405 1.8e-4,0 z"
 id="path4242-8-3"
 style="fill:#ffffff;fill-opacity:1;stroke:none" />
<path
 d="m 246.62071,143.28236 c -0.0118,-1.41597 6.39227,0.128 6.40827,2.02063 l 0.0476,5.63401 c 0.009,1.09484 -6.51149,0.72556 -6.49379,-1.90735 l 0.0379,-5.74729 z"
 id="path4242-8-3-5"
 style="fill:#ffffff;fill-opacity:1;stroke:none" />
<path
 d="m 236.50176,140.46308 c -0.008,-1.44705 4.17641,-1.01268 4.18718,0.92158 l 0.032,5.75759 c 0.006,1.11886 -4.38163,0.74147 -4.36972,-1.94918 l 0.15054,-4.72999 z"
 id="path4242-8-3-8"
 style="fill:#ffffff;fill-opacity:1;stroke:none" />
<path
 d="m 244.98924,176.70287 c 0.0162,-1.47836 4.19276,-0.96316 4.17119,1.01295 l -0.0643,5.88215 c -0.0127,1.14307 -4.39341,0.6826 -4.33652,-2.0658 l 0.2296,-4.8293 z"
 id="path4242-8-3-8-4"
 style="fill:#ffffff;fill-opacity:1;stroke:none" />
<path
 d="m 214.19265,126.61417 c 0.0539,-1.54132 -5.69334,-1.17487 -5.76535,0.88542 l -0.21426,6.13271 c -0.0414,1.19176 5.98261,0.89067 6.04593,-1.9759 l -0.0664,-5.04223 z"
 id="path4242-8-3-8-7"
 style="fill:#ffffff;fill-opacity:1;stroke:none" />
<path
 d="m 217.21437,131.13119 c 0,1.25472 7.01206,0.64651 6.93848,-1.06066 l -0.22097,-5.12652 c -0.0592,-1.37309 -6.71752,-0.21947 -6.71752,1.23744 l 1e-5,4.94974 z"
 id="path4440"
 style="fill:#ffffff;fill-opacity:1;stroke:none" />
<path
 d="m 242.50891,131.97088 c -1.22011,-0.53946 -1.41315,5.6324 -0.29493,6.0546 l 7.02307,2.65166 c 1.35621,0.51205 1.29081,-5.16076 0.36867,-5.56847 l -7.09681,-3.13779 z"
 id="path4464"
 style="fill:#ffffff;fill-opacity:1;stroke:none" />
<path
 d="m 242.00644,164.92187 c -1.58511,-0.60197 -1.8359,6.28503 -0.38317,6.75615 l 9.12404,2.95892 c 1.76192,0.57139 1.67696,-5.75875 0.47895,-6.2137 l -9.21982,-3.50137 z"
 id="path4464-3"
 style="fill:#ffffff;fill-opacity:1;stroke:none" />
<path
 d="m 244.1949,162.02292 c 0.0321,1.48001 5.92236,4.01258 5.85572,1.5026 l -0.13258,-4.99394 c -0.0329,-1.23882 -5.88025,-3.76161 -5.85573,-2.62955 l 0.13259,6.12089 z"
 id="path4488"
 style="fill:#ffffff;fill-opacity:1;stroke:none" />
<path
 d="m 247.96083,193.25699 c 0.0265,1.3196 4.87348,3.57769 4.81864,1.33974 l -0.1091,-4.45269 c -0.0271,-1.10455 -4.83884,-3.35392 -4.81867,-2.34456 l 0.10913,5.45751 z"
 id="path4488-6"
 style="fill:#ffffff;fill-opacity:1;stroke:none" />
<path
 d="m 227.47846,157.89172 0.0758,-7.39359 c 0.0169,-1.64774 3.40999,-2.9701 3.43788,-1.46456 l 0.14507,7.83187 c 0.0177,0.95451 -3.6786,2.96232 -3.65875,1.02628 z"
 id="path4488-6-1"
 style="fill:#ffffff;fill-opacity:1;stroke:none" />
<path
 d="m 175.63653,115.72368 c -1.93696,0.30544 -1.23984,4.82253 1.03419,4.45501 l 8.67216,-1.40155 c 2.09637,-0.33881 1.79217,-4.86678 -1.02975,-4.42176 l -8.6766,1.3683 z"
 id="path3846-5-5"
 style="fill:#ffffff;fill-opacity:1;stroke:none" />
<path
 d="m 180.36708,187.47271 c -1.20295,0.18373 -0.84157,7.09226 1.18614,6.64389 l 8.85212,-1.95737 c 1.18246,-0.26147 0.67433,-6.32267 -0.67038,-6.11729 l -9.36788,1.43077 z"
 id="path4556"
 style="fill:#ffffff;fill-opacity:1;stroke:none" />
<path
 d="m 164.36404,189.43874 c -1.31799,0.155 -1.26532,8.46032 0.96315,8.03275 l 9.72852,-1.86659 c 1.29953,-0.24934 1.04541,-7.5464 -0.42789,-7.37314 l -10.26378,1.20698 z"
 id="path4556-4"
 style="fill:#ffffff;fill-opacity:1;stroke:none" />
<path
 d="m 154.54461,198.97776 c -0.76684,0.009 -1.16642,6.89799 0.13872,6.74536 l 5.69761,-0.66639 c 0.76109,-0.089 0.99248,-6.16039 0.1353,-6.15018 l -5.97163,0.0711 z"
 id="path4556-0"
 style="fill:#ffffff;fill-opacity:1;stroke:none" />
<path
 d="m 152.53619,197.53294 c -2.82861,1.47509 -5.56386,-6.52381 -3.99957,-6.78381 l 8.10963,-1.34792 c 1.94042,-0.32252 4.73954,3.51675 3.60182,4.11006 l -7.71188,4.02167 z"
 id="path4589"
 style="fill:#ffffff;fill-opacity:1;stroke:none" />
<path
 d="m 136.07386,195.03597 c -0.93313,-1.11779 1.08086,-3.5568 3.0052,-3.97748 3.11454,-0.68086 8.60727,1.01061 5.08233,4.552 -1.90898,1.98104 -5.96207,1.97155 -8.08753,-0.57452 z"
 id="path4591"
 style="fill:#ffffff;fill-opacity:1;stroke:none" />
<path
 d="m 120.78268,194.24047 c -1.07055,1.93942 1.36532,5.31624 2.87262,4.72878 2.86987,-1.11852 8.57076,-3.75941 6.45235,-4.99394 -2.88352,-1.6804 -7.74215,-2.6023 -9.32497,0.26516 z"
 id="path4593"
 style="fill:#ffffff;fill-opacity:1;stroke:none" />
<path
 d="m 232.99168,187.74393 c -0.78218,-0.32309 -0.27642,-3.57524 0.92808,-3.22618 l 10.82758,3.13779 c 2.25114,0.65238 0.20233,7.14733 -1.37002,5.83363 -3.38574,-2.82878 -6.88468,-4.29913 -10.38564,-5.74524 z"
 id="path4595"
 style="fill:#ffffff;fill-opacity:1;stroke:none" />
<path
 d="m 173.94827,140.8981 6.93848,-0.13259 c 2.2892,-0.0437 1.58446,-7.94899 -0.17679,-7.82237 l -6.7617,0.48613 c -2.14055,0.15389 -1.07782,7.47497 0,7.46881 l 0,2e-5 1e-5,0 z"
 id="path4597"
 style="fill:#ffffff;fill-opacity:1;stroke:none" />
<path
 d="m 187.56007,132.10346 c -2.11866,0.73564 -2.75908,9.12494 -0.57452,7.99915 l 7.20365,-3.71231 c 0.86309,-0.98081 1.57339,-7.38305 -0.26517,-6.49654 l -6.36396,2.2097 z"
 id="path4601"
 style="fill:#ffffff;fill-opacity:1;stroke:none" />
<path
 d="m 225.76165,114.56053 c 0.0103,-1.4765 5.21144,0.39365 5.22358,2.07439 l 0.0309,4.28172 c 0.006,0.83897 -5.29986,-0.0302 -5.28539,-2.04778 l 0.0309,-4.30833 z"
 id="path4242-6-9"
 style="fill:#ffffff;fill-opacity:1;stroke:none" />
<path
 d="m 234.65682,118.93384 c -0.11346,-1.03391 3.17291,-0.0433 3.31644,1.13216 l 0.36558,2.99457 c 0.0716,0.58678 -3.19674,0.30302 -3.35154,-1.10975 l -0.33059,-3.01697 z"
 id="path4242-6-3"
 style="fill:#ffffff;fill-opacity:1;stroke:none" />
<path
 d="m 179.0496,127.23237 c 0.035,-0.81461 -3.6958,-0.62094 -3.74254,0.46795 l -0.13909,3.24123 c -0.0269,0.62986 3.88359,0.47073 3.92469,-1.04429 l -0.0431,-2.66489 z"
 id="path4242-8-3-8-7-7"
 style="fill:#ffffff;fill-opacity:1;stroke:none" />
<path
 d="m 218.37466,106.74572 c 0.0413,-0.84621 -4.36165,-0.64502 -4.41681,0.4861 l -0.16415,3.36694 c -0.0317,0.6543 4.58326,0.48899 4.63177,-1.08479 l -0.0509,-2.76825 z"
 id="path4242-8-3-8-7-6"
 style="fill:#ffffff;fill-opacity:1;stroke:none" />
<path
 d="m 223.28564,116.43748 c 0.0728,-1.08316 -7.69088,-0.82565 -7.78816,0.62224 l -0.28943,4.30982 c -0.056,0.83753 8.08163,0.62593 8.16717,-1.38858 l -0.0897,-3.54348 z"
 id="path4242-8-3-8-7-1"
 style="fill:#ffffff;fill-opacity:1;stroke:none" />
<path
 d="m 183.96641,124.06531 c -1.14132,0.15873 -1.0886,4.99523 0.25204,4.79946 l 5.1126,-0.74658 c 1.2359,-0.18048 1.41074,-4.99516 -0.25203,-4.76391 l -5.11261,0.71103 z"
 id="path3846-11-2-6"
 style="fill:#ffffff;fill-opacity:1;stroke:none" />
<path
 d="m 194.98987,122.06827 c -1.17727,0.25354 -0.79645,4.83096 0.58587,4.52433 l 5.27127,-1.16933 c 1.27426,-0.28268 1.13169,-4.86002 -0.58347,-4.49066 l -5.27367,1.13566 z"
 id="path3846-11-2-7"
 style="fill:#ffffff;fill-opacity:1;stroke:none" />
<path
 d="m 206.07542,118.87945 c -0.95134,0.16232 -0.9074,5.10826 0.21008,4.90806 l 4.26158,-0.76348 c 1.03018,-0.18456 1.17592,-5.10819 -0.21007,-4.8717 l -4.26159,0.72712 z"
 id="path3846-11-2-1"
 style="fill:#ffffff;fill-opacity:1;stroke:none" />
<path
 d="m 203.18072,110.78418 c 0.0591,-1.05846 -6.24494,-0.8068 -6.32392,0.60803 l -0.23503,4.21145 c -0.0453,0.8184 6.56225,0.61163 6.6317,-1.35689 l -0.0728,-3.46259 z"
 id="path4242-8-3-8-7-6-2"
 style="fill:#ffffff;fill-opacity:1;stroke:none" />
<path
 d="m 117.1812,202.36296 c 0.35721,-2.02209 5.88909,-2.03107 5.49893,-0.0147 l -1.06147,5.48566 c -0.66315,3.42741 -5.74857,1.95204 -5.53436,0.73921 l 1.0969,-6.21015 z"
 id="path3844-0"
 style="fill:#ffffff;fill-opacity:1;stroke:none" />
<path
 d="m 84.209796,236.20809 c -0.792011,-1.92682 -4.10494,-1.82807 -4.397117,-0.29425 -0.556296,2.92041 -1.386228,8.95218 0.3772,7.92986 2.400324,-1.39156 5.190919,-4.78679 4.019917,-7.63561 z"
 id="path4593-0"
 style="fill:#ffffff;fill-opacity:1;stroke:none" />
<path
 d="m 115.875,212.875 c 2.43358,0.42566 4.17424,-1.17412 6.0625,-0.3125"
 id="path4795"
 style="fill:none;stroke:#ffffff;stroke-width:2;stroke-linecap:round;stroke-linejoin:miter;stroke-miterlimit:4;stroke-opacity:1;stroke-dasharray:none" />
<path
 d="m 137.12196,211.02827 c 1.16049,1.35462 2.92022,-0.41023 4.69358,0.87691"
 id="path4795-6"
 style="fill:none;stroke:#ffffff;stroke-width:2.36892867;stroke-linecap:round;stroke-linejoin:miter;stroke-miterlimit:4;stroke-opacity:1;stroke-dasharray:none" />
<path
 d="m 160.28586,236.62481 c -1.65281,-0.67078 -2.40614,1.70484 -4.57246,1.37526"
 id="path4795-6-7"
 style="fill:none;stroke:#ffffff;stroke-width:2.36892867;stroke-linecap:round;stroke-linejoin:miter;stroke-miterlimit:4;stroke-opacity:1;stroke-dasharray:none" />
<path
 d="m 177.38011,223.10041 c 1.46031,0.10849 1.51375,-1.34356 3.30228,-1.50917"
 id="path4795-6-77"
 style="fill:none;stroke:#ffffff;stroke-width:1.6408273;stroke-linecap:round;stroke-linejoin:miter;stroke-miterlimit:4;stroke-opacity:1;stroke-dasharray:none" />
<path
 d="M 235.75,251.5 246,251.375"
 id="path4881"
 style="fill:none;stroke:#ffffff;stroke-width:1.5;stroke-linecap:round;stroke-linejoin:miter;stroke-miterlimit:4;stroke-opacity:1;stroke-dasharray:none" />
<path
 d="m 223.5,253.375 a 0.71875,0.15625 0 1 1 -1.4375,0 0.71875,0.15625 0 1 1 1.4375,0 z"
 transform="translate(-0.5625,0.21875)"
 id="path4883"
 style="opacity:0.98999999;fill:none;stroke:#ffffff;stroke-width:1.5;stroke-linecap:round;stroke-linejoin:round;stroke-miterlimit:4;stroke-opacity:1;stroke-dasharray:none" />
<path
 d="m 263.25,210.75 c 5.29166,16.98188 34.80406,13.32411 36.5,32.25 -6.95833,-5.60741 -19.97917,-13.91 -41.875,-11.375 10.35056,-4.44559 24.70586,-1.3073 29.125,2.0625 -1.43293,-6.36167 -26.21665,-8.82222 -23.75,-22.9375 z"
 id="path4885"
 style="fill:#ffffff;stroke:none" />
<path
 d="m 306.0625,246.75 c 3.24713,5.75226 7.33016,9.05969 11.9375,11 -3.7304,-3.96923 -8.38623,-8.53144 -11.9375,-11 z"
 id="path4887"
 style="fill:#ffffff;fill-opacity:1;stroke:none" />
<path
 d="m 173.375,256.5 c 5.04683,0.58696 8.70557,-18.47339 28.52284,-23.8219 21.14529,-5.70693 19.34619,3.92173 32.22716,-1.0531 -5.25,-0.25 -15.08013,-1.28506 -16.5,-6 12.5721,-2.85668 17.63171,-15.47125 36.25,-19.5 4.76891,-1.03193 6.37891,1.09571 9,2.375 -3.91662,-12.87484 -34.30535,-0.79969 -45.125,2 -14.21452,3.67815 -28.99412,0.98137 -43.5,1.375 4.5935,-2.30678 13.77977,-5.38527 22.625,-5.625 -9.90067,-2.04465 -20.52365,1.68919 -30.875,3.25 3.8389,-1.4111 6.74442,-3.75558 8.75,-7 -10.11506,5.98334 -21.57902,6.49036 -30.5,7.3125 3.02718,1.08132 6.69618,1.5935 10.375,0.9375 -0.70303,5.66667 -13.20786,9.34244 -17.125,17 -6.50981,12.72593 -23.13997,15.54269 -34.5,20 -1.98618,0.77931 -3.413161,5.75756 1.375,4.75 12.67508,-2.66719 23.51448,-10.37816 34.75,-18.125 11.99509,-8.27056 9.33333,-17.83333 33.125,-20.375 17.41764,0.94014 25.15743,4.17529 53.375,-0.125 -6.42836,6.69778 -19.0186,10.09979 -32.125,14.75 -11.29695,2.27861 -25.0262,27.30498 -20.125,27.875 z"
 id="path4889"
 style="fill:#ffffff;stroke:none" />
<path
 d="m 174.75,200.8125 c 4.46734,-3.76586 12.33507,2.79232 19.375,-3.4375 16.95407,-15.00311 31.76222,-8.77844 32.25,-6.375 0.37393,1.84248 5.88013,2.90556 10.1494,4.77454 4.09546,1.7929 4.00402,5.15773 11.7256,3.60046 -8.6742,-5.79404 -15.89919,-13.91942 -28.125,-14 -20.35083,-1.33875 -20.3211,4.37868 -24.875,7.8125 -6.81819,5.14119 -18.35823,1.4493 -20.5,7.625 z"
 id="path4891"
 style="fill:#ffffff;fill-opacity:1;stroke:none" />
</svg>
