<?xml version="1.0" encoding="UTF-8" standalone="no"?>
<!-- Created with Inkscape (http://www.inkscape.org/) -->

<svg
   xmlns:dc="http://purl.org/dc/elements/1.1/"
   xmlns:cc="http://creativecommons.org/ns#"
   xmlns:rdf="http://www.w3.org/1999/02/22-rdf-syntax-ns#"
   xmlns:svg="http://www.w3.org/2000/svg"
   xmlns="http://www.w3.org/2000/svg"
   version="1.1"
   width="390"
   height="480"
   id="svg4228">
  <metadata
     id="metadata10">
    <rdf:RDF>
      <cc:Work
         rdf:about="">
        <dc:format>image/svg+xml</dc:format>
        <dc:type
           rdf:resource="http://purl.org/dc/dcmitype/StillImage" />
        <dc:title></dc:title>
      </cc:Work>
    </rdf:RDF>
  </metadata>
  <defs
     id="defs4232" />
  <path
     d="M 0,0 C 130,0 260,0 390,0 389.98981,114.99797 370.78556,350.14732 194.88837,479.99815 20.79131,350.08886 0.081386,115.02225 0,0 z"
     id="path4240-0"
     style="fill:#d61a1a;fill-opacity:1;stroke:none" />
  <path
     d="m 130.15209,79.847908 c -3.58644,11.805812 -30.960063,37.253272 -23.19503,57.047082 -0.0378,0.0236 3.12943,-5.08995 7.22545,-6.62883 -4.57111,9.51658 -3.99666,19.88014 2.00836,26.8996 0,0 1.7303,-5.36167 3.69506,-7.27983 0.26217,11.46642 4.11335,23.63576 10.38834,27.52628 0,0 -0.14706,-4.72628 0.44816,-6.99396 4.52289,8.46834 12.66035,15.77841 21.3308,21.21673 -2.02272,-0.0166 -6.32793,-2.64533 -8.86393,-4.42909 -10.08061,19.88926 -16.20144,46.15692 -25.47067,66.82453 -1.30341,2.90622 -4.1195,5.2054 -6.5019,5.01901 -7.04781,-0.55138 -16.256099,0.038 -19.049429,1.71103 -3.799433,2.27558 -12.208734,12.32819 -12.547529,17.90874 -0.08775,1.44537 4.832269,1.69536 6.074145,0.19962 0,0 2.887948,-10.39928 11.720532,-14.80038 4.776871,-2.38022 11.900121,-0.86166 17.423321,1.40128 0.33455,0.13707 2.85368,0.89977 3.50824,0.19567 2.27711,-2.44947 26.02848,-47.86805 33.61331,-68.79967 l 0.83823,0.65011 c -9.83885,25.92234 -32.17305,67.36392 -33.83883,69.20471 -0.83574,0.92355 -2.9548,0.23536 -4.40627,-0.2546 -4.45099,-1.50247 -11.86006,-4.26993 -16.719191,-1.49186 -3.718976,2.12621 -9.138493,6.15707 -11.301373,14.85251 -0.767886,3.08714 5.503442,4.49053 6.173534,2.72094 2.219517,-5.86132 4.475555,-9.00611 7.67481,-12.09126 -2.747299,4.22548 -5.536517,8.34815 -5.785269,12.17192 -0.09221,1.41749 7.463009,2.22413 8.128909,0.48276 1.51445,-3.96036 2.88293,-8.03019 5.64115,-11.05772 -1.66957,3.67908 -3.85492,8.40855 -3.88322,10.81574 -0.0207,1.75768 5.06549,2.05035 8.78329,0.0685 2.06443,-1.10052 11.10154,0.15444 13.40791,-1.18837 8.43912,-4.91339 5.14352,-9.53401 7.41445,-11.34981 3.77305,-3.01686 9.17694,-3.09548 11.46388,-8.95437 4.23991,-10.86216 17.84396,-26.84707 35.24714,-58.06084 2.84078,-5.09511 13.82186,1.37454 21.90115,2.39543 l 12.09125,-14.37262 1.14069,0.68441 -12.31939,14.30134 c -1.92617,21.71941 29.29763,49.08009 38.56146,59.78899 0.46914,0.54232 0.50563,1.5099 -0.006,1.53705 -13.99899,0.74298 -35.78502,-5.91207 -49.8145,-3.85875 -5.4961,0.80439 -10.63306,9.76422 -12.12466,16.06407 -0.46839,1.97828 5.93134,1.78423 6.41788,0.36296 1.39408,-4.07234 4.20005,-7.95328 7.49847,-9.37436 -2.56125,2.18068 -5.46531,6.35743 -5.99384,9.73614 -0.0928,0.59308 4.65153,0.76714 5.12686,-0.15439 1.45568,-2.82213 3.4135,-6.06861 6.54272,-7.45478 -1.97838,1.99962 -4.11463,4.54386 -4.87034,7.2727 -0.3552,1.28261 8.44881,2.30058 10.54441,0.46725 3.97271,-1.09991 6.35109,2.49498 9.29657,0.96958 4.36681,-2.46389 7.53069,-4.42065 11.29278,0.57034 0.68365,0.90697 38.37062,2.92008 41.37917,-0.18088 0.90014,-0.92779 1.25905,-3.97423 0.48395,-6.20695 -1.65024,-4.75361 7.9224,-1.67736 7.61826,3.72413 -0.79698,14.15424 -29.11073,16.02339 -45.41545,16.81965 -65.1941,3.18384 -101.64112,43.6714 -99.09305,74.68379 3.16236,38.4888 35.60917,64.82859 56.28833,62.40236 0,0 -7.7586,-4.68851 -8.14334,-8.0862 8.54007,5.57877 23.1235,10.18855 33.71365,7.74281 0,0 -10.11861,-3.89702 -12.61099,-7.28654 15.87332,7.08026 37.79189,0.70754 46.79812,-7.08609 -9.94354,-4.61857 -20.48751,-6.85859 -28.71659,-8.02393 0,0 10.04432,-2.04451 11.81488,-5.88668 -13.14919,-0.22348 -34.29022,-6.82234 -36.62645,-18.47098 -3.92437,-19.56724 22.95708,-36.35479 43.68822,-38.327 31.56093,-3.00248 59.45675,-0.38854 80.53232,-40.95057 14.89589,-28.66863 -4.058,-54.40628 -26.57795,-61.14068 9.39405,-16.25662 8.92052,-43.63134 6.04563,-57.26236 -9.61917,-45.60836 -50.87283,-57.30124 -61.59696,-59.6578 -29.76554,-6.54079 -47.91276,-24.53968 -48.59316,-43.346003 -0.55523,-15.346726 0.14464,-30.694421 -7.0837,-43.190423 2.04036,-8.535276 1.88645,-12.484614 -6.6909,-28.995329 -7.58927,10.506905 -9.15373,13.069134 -11.20638,16.862558 -7.71697,0.09624 -19.72718,1.11232 -27.60457,1.939163 -6.40825,0.672637 -8.62411,3.873113 -10.6475,6.870598 l -34.287358,1.14879 c -0.57136,0.01914 -1.547357,0.480016 -1.961264,0.970062 -2.10973,2.497824 -0.377955,7.590183 2.23833,7.607509 1.39096,0.08389 1.667863,5.556686 9.068441,7.813688 8.851591,-0.224762 15.324851,1.200191 22.357411,3.079848 l -0.68441,0.912547 c -6.70252,-1.716966 -13.98088,-3.045701 -20.874522,-2.737642 1.559522,7.876586 8.310942,8.352135 15.954562,9.656675 5.41985,0.925008 17.54051,2.127287 14.50171,12.130397 z"
     id="path2997"
     style="fill:#f2f2f2;stroke:none" />
  <path
     d="m 179.60076,277.87073 c -0.69148,2.21677 -8.8468,2.32836 -8.38403,0.11406 1.92406,-9.20639 9.00996,-13.91535 14.37262,-17.90874 2.21694,-1.65088 27.28137,-1.23574 41.86312,0.45627 -16.31179,-17.4905 -40.73835,-32.44343 -34.39164,-55.89354 l 9.23955,2.36692 c -0.55544,16.41746 14.02739,34.96075 38.81508,59.13268 0.42432,0.41378 0.49023,1.12679 0.25337,1.12398 -11.38932,-0.13525 -40.23173,-6.52521 -50.07605,-3.93537 -4.16848,1.09664 -9.47895,7.44898 -11.69202,14.54374 z"
     id="path3785"
     style="fill:#f2f2f2;stroke:none" />
  <path
     d="m 152.48502,30.005847 8.75146,-0.241976 c 1.29379,-2.323818 3.89974,-6.817523 6.17037,-9.800016 -0.69624,-0.95539 -2.2956,-3.572435 -3.91193,-5.404124 -4.46599,4.947059 -8.30096,10.176423 -11.0099,15.446116 z"
     id="path3787"
     style="fill:#f2f2f2;stroke:none" />
  <path
     d="m 133.97389,40.370473 c 0.27686,-0.432872 9.34547,-0.740632 10.38479,-0.201647 0.72149,0.374163 -0.91236,2.720445 -2.81586,3.775442 -1.6656,0.923144 -3.63033,0.79256 -5.01825,0.12112 -1.64395,-0.795306 -3.22235,-2.64476 -2.55068,-3.694915 z"
     id="path3789"
     style="fill:#d61a1a;fill-opacity:1;stroke:none" />
</svg>
