<?xml version="1.0" encoding="UTF-8" standalone="no"?>
<!-- Created with Inkscape (http://www.inkscape.org/) -->

<svg
 xmlns:dc="http://purl.org/dc/elements/1.1/"
 xmlns:cc="http://creativecommons.org/ns#"
 xmlns:rdf="http://www.w3.org/1999/02/22-rdf-syntax-ns#"
 xmlns:svg="http://www.w3.org/2000/svg"
 xmlns="http://www.w3.org/2000/svg"
 version="1.1"
 width="390"
 height="480"
 id="svg4228">
<metadata
 id="metadata8">
<rdf:RDF>
<cc:Work
 rdf:about="">
<dc:format>image/svg+xml</dc:format>
<dc:type
 rdf:resource="http://purl.org/dc/dcmitype/StillImage" />
<dc:title></dc:title>
</cc:Work>
</rdf:RDF>
</metadata>
<defs
 id="defs4232" />
<path
 d="m 0.51202379,0.50512952 c 129.66265621,0 259.32532621,0 388.98797621,0 C 389.48983,115.23328 370.33544,349.8309 194.89467,479.37706 21.249382,349.77255 0.5931986,115.2575 0.51202379,0.50512952 z"
 id="path4240-0"
 style="fill:#008c31;fill-opacity:1;stroke:#999999;stroke-width:0.99999905;stroke-opacity:1" />
<path
 d="M 185.84746,370.73598 C 168.75376,352.364 149.34464,330.585 148.98305,325.03387 c -0.7295,-11.19914 -0.29611,-23.42872 -6.35593,-30.72198 -3.33064,-4.00856 -6.03317,-4.54616 -6.54661,0.57128 -0.43053,4.29099 -1.4999,7.82259 -2.60593,10.09254 -12.8992,-18.92378 -47.402989,-70.47437 -36.86441,-122.634 19.64374,-3.56963 40.76464,-5.53293 53.13559,-17.01134 -2.97099,-2.95385 -3.34685,-5.33177 -3.30508,-7.61701 3.32011,-2.95713 5.48819,-6.94971 7.11864,-11.42553 -1.97427,-1.42272 -7.6178,-2.55609 -6.1017,-6.72837 2.23727,-6.15689 1.70501,-12.60853 1.27119,-21.4546 -7.36861,2.92715 -16.73289,-2.7227 -12.9661,-15.48794 -10.49799,0.46603 -11.30641,-9.832715 -9.91525,-15.234035 -10.86444,1.722572 -13.04584,-6.119049 -12.45763,-17.011341 -9.35957,-2.620116 -8.84877,-8.469346 -8.64407,-14.218434 -7.509591,-2.432737 -9.331025,-8.160236 -8.389828,-15.487938 -3.324966,-2.643578 -4.486241,-6.187501 -5.847457,-9.648224 -2.933839,7.801386 -4.847094,9.196172 -6.61017,9.648224 1.367358,7.000505 -0.03498,12.452033 -7.118644,14.726236 3.436416,11.045901 0.122772,15.782805 -9.661017,14.472335 0.891913,4.491831 4.587742,15.40298 -11.186441,19.296448 C 54.508303,99.729897 50.309271,102.29452 45,102.61692 c 2.212164,5.89426 -0.811943,17.64204 -12.457627,16.24964 -1.01978,7.57396 -0.392451,17.05703 1.271186,23.42233 1.091856,4.17758 -2.626825,4.94904 -5.338983,6.03015 1.819465,6.74374 3.593773,7.57555 5.084746,10.15602 1.485657,2.57126 -0.486081,4.8601 -3.559322,6.85531 10.038022,12.45247 34.968499,11.05792 53.771187,15.36099 2.494924,4.04937 -1.04507,27.26291 2.161017,43.29006 -2.979512,-1.63566 -8.803844,-7.93896 -9.47034,-4.31632 -1.096644,5.96066 1.914341,16.72909 10.741526,23.61276 29.6314,48.47324 45.12634,94.70154 97.37288,142.94606 l 1.48037,85.73431 c 2.81597,2.4058 6.73788,5.13823 8.83663,6.8215 2.85832,-2.09213 7.04268,-5.21351 11.07732,-8.53351 l -1.58591,-83.06188 c 45.36073,-45.979 65.98017,-91.61947 95.86956,-143.14478 3.8748,-4.15105 15.12881,-13.10897 10.67796,-25.89786 -1.00484,-2.88728 -5.96135,1.91479 -8.38983,5.07802 l 1.77966,-42.1475 c 17.71307,-4.39574 41.32688,-1.36129 52.11865,-14.47234 -2.54654,-3.12488 -4.20898,-6.00896 -3.05085,-8.12482 6.5774,-4.63254 6.70375,-9.7887 7.11865,-10.91773 -2.77242,-1.43086 -6.32498,-0.80331 -7.88136,-5.58581 4.83953,-10.23649 2.3241,-16.60707 1.01695,-23.61275 -9.96416,0.5532 -14.35688,-4.61664 -12.45763,-16.24965 -3.95592,2.06345 -12.68174,-4.513929 -9.91525,-14.472333 C 316.54273,87.876566 320.06217,74.977878 320.84746,71.133246 307.5265,71.574 308.25035,63.283611 310.67797,55.391408 c -8.5819,-5.065169 -7.96815,-10.265625 -7.37288,-14.980137 -2.73186,-2.588044 -5.38318,-4.026167 -6.1017,-8.632621 -0.9741,4.832899 -3.88792,7.727014 -5.84746,8.886522 0.41808,6.880829 -0.33853,12.945564 -7.62712,14.472335 3.32221,12.063797 -1.87212,15.364588 -9.66101,15.995739 0.0206,13.489065 -4.34375,18.584876 -12.45763,16.503541 0.6851,11.964415 -4.36813,14.059223 -9.66102,15.741843 -1.06652,2.62749 6.04535,14.94735 -12.20339,15.48793 -1.44422,7.19189 -0.20364,15.25956 0.25424,24.12056 0.21661,4.19193 -3.35911,4.2314 -5.59322,4.82411 0.17902,3.31536 1.62319,6.6705 5.97457,11.29858 1.93334,2.05628 -1.12717,4.68865 -4.44915,5.45886 13.20767,13.06037 34.84216,13.91805 54.40678,17.77304 6.13146,37.06786 -2.28968,76.90397 -36.35593,121.6184 -1.09288,-3.13077 -2.98463,-17.32299 -7.62712,-11.67942 -8.61287,10.47008 -6.52078,22.48271 -8.38983,33.26097 l -37.11864,45.44822 c 0.5901,-12.10397 -6.01526,-66.77712 0,-87.59572 12.8981,-10.2853 35.68119,1.9701 52.11864,-16.50354 -1.83575,-2.14933 -4.05107,-4.16081 -2.28813,-7.61702 3.30612,-3.46998 4.21664,-6.93994 5.59322,-10.40992 -3.76223,-0.76767 -4.83641,-3.32499 -5.59322,-6.09361 3.54261,-8.47187 2.05943,-15.86821 1.01695,-23.35886 -9.68213,-0.0635 -15.77302,-3.71359 -12.96611,-16.24964 -12.87975,-1.19385 -10.96937,-8.51693 -10.16949,-15.23404 -11.33555,3.01571 -12.30882,-6.09119 -11.94915,-16.75744 -6.60301,1.78238 -11.23946,-0.85416 -10.42373,-15.74184 -2.97286,-0.20471 -10.35749,-0.0366 -5.84746,-14.21843 -5.65725,-0.39206 -5.77874,-5.59918 -6.35593,-10.40993 -0.8851,3.35262 -0.86612,7.97307 -6.35593,10.66383 0.64894,6.10266 1.84756,12.46148 -7.37288,13.96453 3.62466,12.67412 -3.78952,17.0228 -9.66102,16.50354 -0.11223,7.80458 -0.0409,17.2154 -11.69491,16.24964 2.4178,8.25886 -4.20919,16.11851 -10.42373,14.98014 0.80418,8.80227 1.18316,17.31134 -11.94916,16.50353 -2.1005,7.16149 -4.04725,14.3862 -0.50847,23.86667 -0.277,2.20918 -1.0284,4.20778 -4.32203,5.078 0.53261,3.82666 2.86413,7.42875 6.10169,10.91774 -0.13364,3.8199 -2.7886,3.86281 -4.83051,4.82411 21.55837,21.99691 41.16717,6.7843 55.29661,21.07375 1.32814,18.48748 4.1618,59.89596 -2.41525,85.31061 z"
 id="path2827"
 style="fill:#f2f2f2;stroke:none" />
</svg>
