<?xml version="1.0" encoding="UTF-8" standalone="no"?>
<!-- Created with Inkscape (http://www.inkscape.org/) -->

<svg
   xmlns:svg="http://www.w3.org/2000/svg"
   xmlns="http://www.w3.org/2000/svg"
   version="1.1"
   width="390"
   height="480"
   id="svg4228">
  <defs
     id="defs4232" />
  <path
     d="M 0,0 C 130,0 260,0 390,0 389.98981,114.99797 370.78556,350.14732 194.88837,479.99815 20.79131,350.08886 0.081386,115.02225 0,0 z"
     id="path4240-0"
     style="fill:#207dbf;fill-opacity:1;stroke:none" />
  <path
     d="m 250.39216,45.359477 -6.40523,10.326798 c -15.16612,-1.502511 -34.49127,16.39366 -8.77295,19.656509 2.8966,0.367488 -5.1416,5.509851 -8.75495,7.845528 -8.40909,5.435643 -24.8682,12.292034 -19.04104,21.721578 13.60165,22.01025 91.7817,50.27973 68.7696,131.06895 l -22.06994,63.629 c 8.59523,31.51546 18.67939,87.04439 -9.15033,114.50981 -12.87534,12.70681 -39.65916,22.34633 -48.62745,21.96078 -11.8378,-0.50891 -25.97496,-34.81436 -23.52941,-49.93464 6.33985,-39.19783 43.05538,-28.69406 49.93464,-72.81046 1.28151,-8.21826 -8.00649,-18.13069 -10.45752,-5.49019 -0.74051,3.914 0.9998,9.0856 -3.13725,10.32679 -69.33748,20.80245 -58.59842,37.11185 -67.05882,42.74511 -7.78619,5.18433 -3.93009,-16.49149 -9.15033,-16.99347 -3.3651,-0.32359 -8.55803,8.82202 -9.93464,5.49019 -2.42133,-5.8604 -0.41677,-12.11279 4.31372,-18.03921 -5.05841,-2.45741 -11.08583,5.45899 -11.83006,1.69934 -1.23119,-6.21965 2.16301,-14.80276 14.8366,-17.64705 l 48.88889,-10.9804 c -20.26144,-25.35947 -37.34904,-60.10965 -30.00001,-77.58169 3.88558,-9.23782 9.74596,-16.59309 22.41831,-24.24837 -5.79521,2.17865 -18.62166,6.99234 -24.8366,26.14379 -4.81518,14.83807 3.63855,38.90085 27.32025,71.56862 -72.4183,-1.96078 -65.12964,27.8851 -73.8562,16.01308 -4.629885,-6.29871 4.3443,-16.37215 1.56863,-16.99347 -5.72475,-1.28145 -10.718147,10.59586 -12.941181,4.31373 -1.870302,-5.28534 1.22975,-11.55986 4.444444,-17.9085 2.944661,-5.81536 -13.177052,6.70711 -13.071895,0.84967 0.524589,-29.22044 47.079342,-4.85022 66.666662,-5.55555 -19.02296,-26.28778 -33.53514,-61.89559 7.71242,-84.44444 -8.34604,-13.6466 -19.53176,-27.8095 -16.99346,-39.47713 -21.33108,-0.61567 -27.25089,-4.28971 -42.222223,-10.19608 -17.580003,-6.93552 -18.201577,13.73685 -22.222223,9.28105 -3.037069,-3.36577 -3.763558,-7.69837 -2.614379,-12.81046 -3.083676,4.40383 -6.143543,13.55429 -9.673202,9.41177 -3.030947,-3.55722 -2.229132,-10.88534 0.392157,-16.47059 -3.217456,2.79752 -8.011342,10.8482 -9.542484,7.84314 -3.730773,-7.32211 3.920199,-19.61469 16.470588,-20.39216 15.184681,-0.94066 30.632001,-2.22319 46.535946,-6.27451 -17.452177,-5.80967 -27.877003,-20.520645 -40.522874,-32.4183 -5.20714,-4.89905 -7.755991,1.045751 -11.633987,1.568627 -2.103366,0.2836 -4.425063,-1.68521 -3.790849,-4.052288 0.62299,-2.325186 2.605403,-4.469027 4.313725,-6.666666 -3.170083,1.032502 -5.721143,2.80783 -8.496732,4.313725 -2.806169,1.522486 -4.721548,-3.563186 -3.137255,-6.143791 1.545941,-2.518133 4.393206,-4.059953 7.058824,-5.620915 -2.968361,-0.06964 -5.283382,1.821099 -7.385621,3.594772 -1.161191,0.979704 -5.743051,-1.316561 -3.137255,-5.359477 2.713574,-4.210135 11.515409,-10.383142 21.764706,-7.51634 22.863584,6.395109 32.070518,20.369877 48.104578,20.130719 28.95133,-0.431827 31.0977,-47.930981 62.58318,-57.612959 14.00211,-4.305736 22.2455,-4.26157 34.79951,-2.376976 11.73362,1.761437 28.73953,8.341753 39.15324,17.24484 1.49189,1.275475 0.86746,9.259251 -4.05227,8.758166 z"
     id="path3633"
     style="fill:#ececec;stroke:none" />
  <path
     d="m 192.87582,25.555556 c -4.32566,-0.406068 -13.99694,3.335096 -10.3268,13.496731 l 4.24837,-1.601307 c -3.94444,-4.70804 2.36652,-10.370899 6.07843,-11.895424 z"
     id="path3657"
     style="fill:#207dbf;fill-opacity:1;stroke:none" />
  <path
     d="m 220.88235,28.431373 c -2.81258,0.675322 -6.59389,2.965423 -5.42483,5.620914 0.72657,1.650377 4.0161,2.661827 6.9281,0.13072 2.02378,-1.759064 0.50661,-6.234223 -1.50327,-5.751634 z"
     id="path3659"
     style="fill:#207dbf;fill-opacity:1;stroke:none" />
  <path
     d="m 233.13726,58.267969 c 2.3767,-0.787709 6.52921,-1.897509 9.70588,-1.764702 -1.18773,2.795926 -3.07619,5.933126 -4.90034,7.089236 -0.7404,0.469251 -3.6183,0.901017 -3.82515,-0.03041 -0.20495,-0.922904 -0.52287,-3.071902 -0.98039,-5.294124 z"
     id="path3661"
     style="fill:#ececec;stroke:none" />
  <path
     d="m 231.30719,74.248366 3.16994,0.457517 c 0.57735,-1.639434 1.10461,-2.830025 1.33991,-5.441177 0.0325,-0.361088 -1.02657,-0.905542 -1.41043,-0.313803 -0.86734,1.33705 -2.19718,4.269791 -3.09942,5.297463 z"
     id="path3663"
     style="fill:#ececec;stroke:none" />
</svg>
