<?xml version="1.0" encoding="UTF-8" standalone="no"?>
<!-- Created with Inkscape (http://www.inkscape.org/) -->

<svg
   xmlns:dc="http://purl.org/dc/elements/1.1/"
   xmlns:cc="http://creativecommons.org/ns#"
   xmlns:rdf="http://www.w3.org/1999/02/22-rdf-syntax-ns#"
   xmlns:svg="http://www.w3.org/2000/svg"
   xmlns="http://www.w3.org/2000/svg"
   version="1.1"
   width="390"
   height="480"
   id="svg4228">
  <metadata
     id="metadata44">
    <rdf:RDF>
      <cc:Work
         rdf:about="">
        <dc:format>image/svg+xml</dc:format>
        <dc:type
           rdf:resource="http://purl.org/dc/dcmitype/StillImage" />
        <dc:title></dc:title>
      </cc:Work>
    </rdf:RDF>
  </metadata>
  <defs
     id="defs4232" />
  <path
     d="M 1.4998543,1.5124544 388.50451,1.500982 c -0.0148,268.350348 -0.019,272.308928 -0.019,272.321028 C 389.47805,546.74292 1.5064276,546.74853 1.5031372,273.82126 L 1.4998543,1.5124544 z"
     id="path2902"
     style="fill:#faf700;fill-opacity:1;stroke:#000000;stroke-width:2.98619199;stroke-miterlimit:4;stroke-opacity:1;stroke-dasharray:none" />
  <path
     d="M 135.96958,468.36502 C 94.572743,455.54277 67.838974,432.17029 68.771181,431.33581 c 12.453799,-11.1483 35.868449,-30.78502 68.110949,-38.94037 -7.17239,-23.99438 -14.87012,-47.91372 -19.1635,-72.31939 -13.46687,-13.62658 -34.854259,-34.4999 -40.608364,-61.14069 -0.562486,-2.60424 7.580224,-6.71579 8.390459,-3.62251 3.223093,12.30501 9.707138,21.87714 16.704595,29.63012 23.10245,25.59687 29.19561,0.65084 30.11407,-6.84411 3.09415,-25.24926 1.63519,-33.37132 -2.28137,-48.82129 -0.81482,-3.21428 5.07102,-6.41382 6.1597,-4.56274 13.94388,23.70875 4.92277,61.11026 2.73764,73.0038 -2.95797,16.10007 -1.09471,22.6189 0.91255,33.07985 2.97534,15.50616 7.89303,32.71054 16.19772,50.41825 6.41917,13.68731 15.91791,12.9146 17.56654,-2.28137 3.58215,-33.0179 -0.75262,-59.21132 -1.36882,-88.51711 -4.58644,-10.76999 -28.67067,-49.20746 -32.85171,-66.1597 -0.40986,-1.66181 6.12651,-3.00054 7.07224,-0.68441 6.24292,15.28915 9.76231,20.3532 21.673,37.18632 8.76247,12.38382 13.51558,17.45789 20.07605,-3.42206 6.62957,-21.09988 15.66387,-34.98558 23.4981,-52.47148 -12.60928,-31.90631 17.6275,-32.983 27.60456,-49.04943 9.40353,18.85113 24.54089,21.80465 19.95948,39.26932 -4.72997,17.72455 -22.30153,25.39792 -32.70389,14.84141 -1.00336,-1.01823 -4.24169,-3.00887 -6.19096,-0.15637 -1.8448,2.69962 -5.55398,7.67311 -2.50949,8.327 3.90605,0.83893 4.38845,5.24927 4.45677,7.69458 0.22888,8.19265 0.16715,13.83158 3.07174,26.06968 2.17277,9.15466 6.49481,12.57014 13.0038,-2.28137 5.68596,-12.97361 18.45391,-36.26761 22.35742,-32.62358 2.22015,-9.11587 -2.37773,-13.88715 2.45415,-22.54641 7.5427,-13.51734 25.04692,-10.30382 39.75117,-19.88705 9.89111,11.67838 12.87473,21.32738 13.68821,31.48289 1.56773,19.57157 -19.98457,33.98862 -31.25475,20.9886 -11.05104,-12.74725 -14.44054,-5.45952 -21.90114,-8.6692 1.31985,4.85588 -24.8786,37.68699 -26.23574,51.55893 -2.87664,29.40355 -6.84087,72.20376 -13.91635,114.06844 -1.59464,9.4353 8.44807,11.24105 11.17871,0.91255 9.33454,-35.30742 18.66731,-68.17522 30.71439,-96.88783 5.4962,-13.42526 2.85494,-45.12713 2.36545,-65.54563 -0.0871,-3.63242 9.30933,-2.73943 9.67388,2.50042 1.10137,15.83078 1.40004,35.86779 -1.22132,54.57769 -1.05348,7.5191 2.91467,10.71633 8.6692,2.37587 9.91617,-14.37222 21.8951,-30.58638 25.76801,-32.07755 3.8927,-1.49879 6.23919,5.11579 4.3346,7.07224 -36.08923,37.07176 -53.33872,80.98581 -57.26236,135.51331 20.83606,1.87483 55.39067,19.64569 67.69101,35.90614 -16.95764,16.00127 -38.45755,27.37132 -49.04633,31.9407 -62.97327,27.1724 -117.67696,15.22505 -140.24167,8.12275 z"
     id="path3800"
     style="fill:#008000;fill-opacity:1;stroke:none" />
  <path
     d="m 214.3346,223.46008 c -10.65842,13.15547 -16.26938,35.72932 -25.91618,52.79638 -4.13926,7.32316 -7.36269,13.47886 -2.58108,23.5523 11.97665,25.23124 6.22012,53.11465 5.43754,84.03002 -0.26089,10.30603 10.66836,10.26628 13.01944,1.52678 6.83853,-25.4204 12.45063,-60.9176 16.71016,-83.78231 1.96562,-10.55124 1.47863,-19.84105 0.32263,-29.03709 -2.22986,-17.7387 -6.84073,-33.89461 -6.99251,-49.08608 z"
     id="path3802"
     style="fill:#faf700;fill-opacity:1;stroke:none" />
  <path
     d="m 33.764259,250.03802 c 5.330251,-13.96985 10.646628,-31.00912 18.935361,-44.60076 3.935477,-6.45329 20.293648,-10.46951 26.007604,-5.76045 3.713724,3.0606 6.243869,8.1926 8.441065,11.69201 5.13308,-2.05323 8.631059,-6.2321 15.399241,-6.1597 2.60752,1.90673 0.92932,8.36659 0,8.44107 -3.790263,0.30376 -9.494363,1.54694 -13.916351,5.24715 -2.497931,2.09021 -0.09616,6.30921 1.158891,7.22857 5.255033,3.84945 0.351713,19.36039 -3.44026,22.77143 -18.179568,17.01341 -23.731339,0.9681 -52.585551,1.14068 z"
     id="path3804"
     style="fill:#008000;stroke:none" />
  <path
     d="m 38.326996,229.96198 c 4.669325,-11.54036 5.910044,-17.1233 12.896927,-26.84229 5.345218,-7.43538 17.830642,-8.93946 23.376838,-8.2908 4.277125,0.50024 4.097876,3.98614 7.414449,0.91255 2.164582,-2.006 2.085223,-15.09091 -4.421667,-16.43658 -2.736195,-0.56587 -3.935878,1.35095 -5.000831,2.82305 -5.50612,2.7175 -10.649166,5.96782 -17.906203,6.53334 -5.557715,0.4331 -10.511081,0.27965 -17.98686,-4.59754 -6.96769,3.23193 -13.093192,11.03729 -18.33463,18.63591 z"
     id="path3806"
     style="fill:#008000;stroke:none" />
  <path
     d="m 18.935361,152.85171 c 8.151465,-3.58284 14.583331,-8.85552 20.418251,-14.71482 4.651426,-4.67087 16.13268,-9.28516 28.174905,-4.33461 7.128256,2.93042 10.167485,4.61018 10.152092,15.51331 -0.01221,8.65183 1.666242,18.88173 -1.711027,24.29658 -7.608901,12.19952 -24.773033,16.84642 -35.247148,7.98479 -8.649487,-7.3179 -17.638733,-17.53361 -21.787073,-28.74525 z"
     id="path3808"
     style="fill:#008000;stroke:none" />
  <path
     d="m 35.48977,93.645458 c 10.001663,-2.527302 17.732449,-9.919347 31.456842,-7.581906 -1.208111,6.520162 2.43202,19.860438 18.067519,22.745718 0.800326,3.78627 1.909873,18.298 -5.404124,29.60169 -1.887702,-3.9175 -11.345052,-13.46537 -29.924329,-9.3564 -0.548196,-6.97552 -4.481212,-22.12009 -14.195908,-35.409102 z"
     id="path3810"
     style="fill:#008000;stroke:none" />
  <path
     d="m 71.140857,52.993539 c 3.465945,13.508729 -2.186081,27.859119 0.161317,41.297187 1.750983,10.023794 11.771307,10.889554 21.616497,8.388494 5.496874,-1.39642 4.229588,-7.94887 7.581909,-10.808251 l 17.9062,19.842011 -29.037086,-0.80659 c -2.177292,13.32572 1.424911,7.15864 -8.388491,46.45934 -1.47711,5.91553 3.882411,13.47166 13.389322,11.77615 11.118935,-1.983 41.114625,-11.21894 38.070845,-42.91036 -0.57834,-6.02163 0.0916,-10.94065 -9.84035,-13.87327 1.34209,-2.44471 5.73475,-1.96791 2.90371,-10.00167 -1.87813,-5.329661 -5.5729,-9.071044 -15.16381,-16.776979 3.73965,0.419897 10.23615,-2.171084 12.42142,-9.840346 -5.68408,-4.17117 -10.35062,-9.704684 -9.51771,-22.423082 -9.07348,-7.698916 -27.569257,-3.72841 -42.103773,-0.322634 z"
     id="path3812"
     style="fill:#008000;stroke:none" />
  <path
     d="m 114.53517,162.60853 c 2.19393,18.70206 -6.80858,20.49716 -8.87245,39.11941 -1.87821,16.94707 5.05001,31.37703 15.9704,27.2626 4.90845,-1.84934 8.15325,-5.3197 12.2601,-9.3564 4.13668,-4.06602 4.96733,2.97515 17.58357,-1.77449 7.66696,-2.88638 9.19508,-19.51937 2.90371,-29.52103 l -8.06585,-7.66257 c 4.28776,-1.50845 3.47917,-3.01994 3.38765,-4.92017 -0.67868,-14.09158 -5.33703,-26.4758 -14.51854,-36.45767 -1.64905,-1.7928 -4.37515,8.11125 -3.06503,10.48561 5.04627,9.14547 8.70051,17.69642 11.2922,29.35972 -7.37476,-7.72842 -16.6493,-15.52375 -28.87576,-16.53501 z"
     id="path3814"
     style="fill:#008000;stroke:none" />
  <path
     d="m 178.09412,153.01016 c -10.76161,7.87162 -19.26372,23.1599 -21.77781,34.84451 6.73202,4.85033 7.82024,14.23772 6.77532,18.22883 4.80544,9.26267 45.33436,2.51611 40.4906,-11.93747 -3.23666,-9.65804 -2.52629,-8.41064 -1.12922,-12.2601 2.1773,-5.9993 -18.98165,-14.411 -24.35889,-28.87577 z"
     id="path3816"
     style="fill:#008000;stroke:none" />
  <path
     d="m 146.31465,68.963936 c -5.43101,12.313874 -14.43943,21.365865 -15.9704,38.554794 -0.47599,5.34423 2.87774,15.17364 6.77532,18.55147 1.97041,1.70765 9.72904,1.86637 12.90537,-0.32263 3.65694,-2.52021 5.11028,-4.24349 10.96956,-2.58108 3.3368,-5.18302 18.97572,-19.67799 17.42225,-26.617324 -3.59315,-16.050603 -24.6323,-12.291911 -32.1021,-27.58523 z"
     id="path3818"
     style="fill:#008000;stroke:none" />
  <path
     d="m 133.80228,17.224334 c -6.04892,15.455366 -10.12082,20.528763 -15.1711,30 -8.46325,15.871861 5.80564,34.274234 20.98859,25.323194 2.78858,-1.643995 1.19397,-5.745349 3.87833,-10.26616 1.14048,2.455159 3.04464,5.592064 6.15969,7.756654 7.61664,5.292653 16.68809,-0.104883 20.53232,-6.387833 -6.95675,-7.478714 -8.00133,-18.271282 -5.01901,-26.007604 -14.41554,-7.703943 -15.32319,-15.323194 -31.36882,-20.418251 z"
     id="path3820"
     style="fill:#008000;stroke:none" />
  <path
     d="m 190.72243,88.060836 c -7.06887,21.634134 -23.88538,25.523384 -29.88593,46.996194 -1.59568,12.72237 5.20271,21.50502 10.26616,19.1635 4.54637,-2.1024 7.61205,-8.43192 14.60076,-2.5095 2.5966,2.20043 9.56927,-1.52419 14.37263,3.19391 3.27558,4.15201 6.06273,8.35338 10.49429,19.1635 2.00405,4.88859 7.66768,-0.0371 5.24715,-8.21293 -1.82386,-6.16052 -5.16416,-11.31008 -8.21293,-16.65399 5.5459,-4.18655 11.1576,-20.8451 9.80989,-27.37643 -9.14731,-6.6197 -10.99291,-16.62655 -10.95057,-19.61977 -11.18648,-9.606041 -11.05239,-9.889258 -15.74145,-14.144484 z"
     id="path3822"
     style="fill:#008000;stroke:none" />
  <path
     d="m 232.29668,154.62334 c 5.80892,2.56504 10.99188,-5.99917 11.13088,-8.22718 -1.2689,-7.48025 -2.60007,-14.79733 0.32263,-24.35889 0.85874,3.94654 5.37082,4.41245 8.46915,4.51689 8.5979,0.28981 11.84976,-10.0999 16.21238,-15.80909 3.25446,-4.25898 -0.98481,-18.281117 -4.80516,-23.785631 -5.46699,-7.877043 -11.82204,-7.262523 -15.5208,-20.737895 -17.7896,3.72205 -23.84184,11.95847 -30.81158,19.842008 0.17899,-6.634108 -4.62103,-9.713965 -9.51771,-24.19757 16.07889,-1.427237 20.20464,-18.98372 16.13172,-25.972059 C 209.34836,10.912061 198.40804,20.530401 184.70812,7.5021066 179.19824,16.357817 174.61604,25.516261 170.67353,35.732606 c -4.79506,12.425584 -0.77656,26.716039 10.3243,32.908695 5.10704,2.848981 15.15622,0.443061 18.39015,-2.742391 6.67851,5.140673 7.7796,21.920161 15.48645,24.520205 -9.52569,13.610795 0.546,33.939865 12.09878,29.359715 6.8301,-2.70782 10.91408,-5.01272 10.3243,-0.9679 -1.74414,11.96158 -4.29597,23.75468 -5.00083,35.81241 z"
     id="path3824"
     style="fill:#008000;stroke:none" />
  <path
     d="m 275.36835,11.535035 c -6.93664,4.534626 -13.75962,5.777132 -20.80991,7.581905 -18.9792,4.858401 -14.96188,28.390464 -7.09795,42.587725 6.69244,-1.440998 8.60662,3.92084 12.42142,6.614002 12.68142,8.952792 23.18923,-3.207636 23.22966,-9.840345 0.0366,-6.003194 3.0716,-5.316477 5.16215,-7.420588 7.54883,-7.597793 -13.45335,-25.209244 -12.90537,-39.522699 z"
     id="path3826"
     style="fill:#008000;stroke:none" />
  <path
     d="m 325.21535,40.894754 c -12.536,5.93219 -26.10042,5.932946 -35.65109,16.776982 -5.84905,6.641142 -7.07154,16.064791 -5.32347,23.229668 l -12.58273,12.340761 c 0.83247,2.853938 0.59716,12.101575 2.50041,8.549805 3.5223,-6.573164 7.52237,-11.951882 12.26011,-15.486442 4.92248,-1.832741 7.02702,7.795613 10.27344,12.477741 2.57428,3.712741 8.35139,3.296851 12.54752,2.053231 4.46422,-9.53527 13.4374,-13.208709 18.13689,-18.365018 2.182,-2.394101 -2.10787,-5.430529 -1.41755,-12.553263 0.85384,-8.809927 2.22563,-20.928748 -0.74353,-29.023465 z"
     id="path3828"
     style="fill:#008000;stroke:none" />
  <path
     d="m 313.4392,246.5741 c 0.57673,-4.64159 -0.64795,-24.56206 7.90454,-31.29552 17.61995,-13.87237 28.92788,4.94712 30.48894,11.77615 2.14914,9.40173 3.14241,18.05571 2.41975,29.52104 -17.8389,-0.7932 -30.72275,2.61224 -40.81323,-10.00167 z"
     id="path3830"
     style="fill:#008000;stroke:none" />
  <path
     d="m 334.08779,197.04974 c -1.34823,-0.18731 -3.2695,8.49419 -0.16132,8.87244 7.04408,0.85722 18.54281,5.42043 24.03626,22.42309 1.14776,3.55241 18.31687,0.39787 15.80908,-5.32347 -4.00797,-9.14389 -8.58667,-21.32245 -9.67903,-29.68235 -0.35295,-2.7011 -6.04433,-3.77037 -7.42059,-1.45186 -2.72256,4.58655 -10.77157,6.80331 -22.5844,5.16215 z"
     id="path3832"
     style="fill:#008000;stroke:none" />
  <path
     d="m 307.83343,159.54351 c -2.07424,-1.29177 1.72793,-5.88926 4.07325,-5.68643 7.24747,0.62677 5.44106,8.86783 14.27657,8.75145 -0.74987,-4.75787 -0.94705,-9.20926 1.85515,-12.90537 1.48958,-1.96476 3.62625,-3.0953 6.77532,-3.307 6.96335,3.88217 10.57971,1.13477 13.14734,-0.80658 2.49762,-1.88841 8.21297,-1.38393 11.45352,2.58107 5.38281,6.58618 11.39899,10.97363 17.09962,15.00249 -4.75596,12.2912 -15.88624,20.95628 -22.42308,25.81075 -11.66311,8.6614 -29.84294,7.82934 -34.52187,-0.80659 -1.54733,-2.85591 1.64599,-4.8236 0.64527,-10.00166 -0.6778,-3.50716 1.82462,-4.62806 2.74239,-6.93664 -7.10165,-0.46435 -9.65182,-8.28792 -15.12348,-11.69549 z"
     id="path3834"
     style="fill:#008000;stroke:none" />
  <path
     d="m 265.52801,185.59623 c -2.80294,-2.70267 -2.67254,-7.2597 -1.45186,-9.59837 3.03416,-5.81306 6.88566,-13.19987 8.22718,-20.6486 -10.96233,-4.71743 -14.98805,-18.84416 -11.45352,-26.69798 4.86384,-10.80756 15.95737,-19.10543 23.71362,-19.68069 6.37074,-0.4725 11.50453,-0.64148 15.80908,-3.54898 2.26194,-1.52783 11.35802,-0.24814 10.16298,3.06502 -1.84257,5.10838 -2.14979,10.44592 -1.0705,15.4392 2.39649,11.0873 2.30804,28.62241 -11.83487,37.95678 -4.47913,2.95624 -9.81514,4.20429 -13.22801,1.61317 -2.32406,-1.76447 -5.53148,-7.39216 -6.77532,-3.22634 -3.03269,10.15698 -6.75716,19.53236 -12.09878,25.32679 z"
     id="path3836"
     style="fill:#008000;stroke:none" />
  <path
     d="m 314.48669,125.58935 c 0.52718,-7.76888 0.56501,-15.16805 -1.14068,-22.69962 -1.14842,-5.070932 5.28932,-16.196901 22.55576,-16.291202 16.1018,-0.08794 13.16861,8.592881 27.63435,7.736072 0.95007,12.92724 -9.73721,21.41819 -10.49429,38.78327 -0.48311,11.08113 -21.12807,14.7564 -28.40305,4.90494 -1.30167,-1.76266 -0.89577,-5.90917 -10.15209,-12.43346 z"
     id="path3838"
     style="fill:#008000;stroke:none" />
</svg>
