<?xml version="1.0" encoding="UTF-8" standalone="no"?>
<!-- Created with Inkscape (http://www.inkscape.org/) -->

<svg
   xmlns:dc="http://purl.org/dc/elements/1.1/"
   xmlns:cc="http://creativecommons.org/ns#"
   xmlns:rdf="http://www.w3.org/1999/02/22-rdf-syntax-ns#"
   xmlns:svg="http://www.w3.org/2000/svg"
   xmlns="http://www.w3.org/2000/svg"
   xmlns:xlink="http://www.w3.org/1999/xlink"
   version="1.1"
   width="410"
   height="480"
   id="svg3657">
  <metadata
     id="metadata48">
    <rdf:RDF>
      <cc:Work
         rdf:about="">
        <dc:format>image/svg+xml</dc:format>
        <dc:type
           rdf:resource="http://purl.org/dc/dcmitype/StillImage" />
        <dc:title></dc:title>
      </cc:Work>
    </rdf:RDF>
  </metadata>
  <defs
     id="defs3661" />
  <path
     d="m 205.45049,477.71801 c 14.28619,-23.21072 28.88482,-33.80846 44.15919,-34.83744 l 115.39791,-1.16124 c 24.58134,-0.48687 43.61121,-24.94304 43.62321,-47.37891 L 408.84165,0.20569145 1.2627605,0.220207 1.2554899,398.41205 C 0.86586764,431.82404 35.574116,441.75684 53.316714,441.9169 l 109.236906,0.98536 c 15.28903,0.13788 28.74813,14.51306 42.89687,34.81575 z"
     id="path3669"
     style="fill:#faf700;fill-opacity:1;stroke:#000000;stroke-width:2.5025239;stroke-linecap:butt;stroke-linejoin:miter;stroke-miterlimit:4;stroke-opacity:1;stroke-dasharray:none" />
  <path
     d="m 223.35849,59.886792 36.56604,5.660377"
     id="path3860"
     style="fill:none;stroke:#000000;stroke-width:2;stroke-linecap:butt;stroke-linejoin:miter;stroke-miterlimit:4;stroke-opacity:1;stroke-dasharray:none" />
  <path
     d="m 1.5165309,379.27731 0.060196,12.58783 c 11.0500151,-3.70139 20.2808421,-8.45873 39.4608061,-8.31949 18.571185,0.13482 24.568799,7.83192 47.721972,7.35321 35.594495,-0.73595 29.065105,-7.71239 62.244825,-9.24875 17.87834,-0.82784 35.63761,11.14181 65.85769,9.96559 27.81603,-1.08265 39.12533,-9.45082 70.07549,-9.85238 18.19156,-0.23602 33.86193,10.09581 57.6107,9.48196 20.66702,-0.53419 45.30424,-10.46043 63.94645,-8.25 l 0.007,-10.32311 c -15.96247,-3.21813 -35.78991,4.60867 -63.61302,6.57311 -26.7872,1.8913 -28.89927,-9.62189 -57.43404,-10.6884 -23.99363,-0.89678 -40.76887,10.06602 -70.48723,10.91482 -34.62709,0.989 -31.55786,-11.15236 -65.53999,-10.95935 -27.28321,0.15496 -41.36771,8.74557 -61.813755,9.77067 -13.075565,0.65557 -33.902944,-7.34742 -46.537464,-7.64151 -23.040521,-0.53631 -41.5597199,8.6358 -41.5597195,8.6358 z"
     id="path3803"
     style="fill:#d61a1a;fill-opacity:1;stroke:#000000;stroke-width:2.00263476;stroke-linecap:butt;stroke-linejoin:miter;stroke-miterlimit:4;stroke-opacity:1;stroke-dasharray:none" />
  <use
     transform="translate(0,-36)"
     id="use3816"
     style="stroke-width:2;stroke-miterlimit:4;stroke-dasharray:none"
     x="0"
     y="0"
     width="410"
     height="480"
     xlink:href="#path3803" />
  <path
     d="m 12.394848,425.75263 c 7.460243,-2.73149 13.546369,-6.31978 29.043492,-6.20698 18.522353,0.13482 24.504197,7.83192 47.596488,7.35321 35.500902,-0.73595 28.988682,-7.71239 62.081152,-9.24875 17.83133,-0.82784 35.5439,11.14181 65.68452,9.96559 27.74289,-1.08265 39.02245,-9.45082 69.89123,-9.85238 18.14372,-0.23602 33.77288,10.09581 57.45921,9.48196 17.89696,-0.46381 39.34505,-7.27205 56.70675,-7.80505 2.01268,-3.18539 3.90639,-7.09896 5.32331,-10.78397 -15.44767,-1.91768 -35.49787,4.73482 -61.6905,6.58902 -26.71677,1.8913 -28.82328,-9.62189 -57.28302,-10.6884 -23.93055,-0.89678 -40.66167,10.06602 -70.30189,10.91482 -34.53603,0.989 -31.47488,-11.15236 -65.36765,-10.95935 -27.21147,0.15496 -41.25893,8.74557 -61.651217,9.77067 -13.041184,0.65557 -33.813797,-7.34742 -46.415095,-7.64151 -17.311452,-0.40402 -33.060381,4.65232 -39.2849817,7.1006 2.0444013,4.88919 5.695426,10.63105 8.2082017,12.01052 z"
     id="path3803-1"
     style="fill:#d61a1a;fill-opacity:1;stroke:#000000;stroke-width:2;stroke-linecap:butt;stroke-linejoin:miter;stroke-miterlimit:4;stroke-opacity:1;stroke-dasharray:none" />
  <path
     d="M 29.109001,239.06945 152.89516,117.3743 c -16.36506,35.29588 -34.54607,50.87146 -50.75158,118.95403 -41.251118,-9.98043 -52.677891,-0.76318 -73.034579,2.74112 z"
     id="path3838"
     style="fill:#d61a1a;fill-opacity:1;stroke:#000000;stroke-width:2;stroke-linecap:butt;stroke-linejoin:miter;stroke-miterlimit:4;stroke-opacity:1;stroke-dasharray:none" />
  <path
     d="M 101.34308,235.68794 136.4049,272.9111"
     id="path3846"
     style="fill:none;stroke:#000000;stroke-width:2;stroke-linecap:butt;stroke-linejoin:miter;stroke-miterlimit:4;stroke-opacity:1;stroke-dasharray:none" />
  <path
     d="M 100.68684,264.82014 199.7894,99.93839 c -9.30135,41.22943 -20.78802,79.92026 -19.65805,148.22292 -35.49378,-2.07574 -60.83073,4.44605 -79.44451,16.65883 z"
     id="path3840"
     style="fill:#d61a1a;fill-opacity:1;stroke:#000000;stroke-width:2.02991295;stroke-linecap:butt;stroke-linejoin:miter;stroke-miterlimit:4;stroke-opacity:1;stroke-dasharray:none" />
  <path
     d="M 258.79245,65.207546 225.0566,44.71698"
     id="path3858"
     style="fill:none;stroke:#000000;stroke-width:2;stroke-linecap:butt;stroke-linejoin:miter;stroke-miterlimit:4;stroke-opacity:1;stroke-dasharray:none" />
  <path
     d="m 288.65967,41.807261 -67.56533,46.155003 c 2.25795,2.16135 6.66284,15.150846 0.39623,19.075466 3.56587,0.4223 7.02731,10.15438 -1.64151,9.90566 4.99969,5.6161 5.35719,14.3471 -1.92453,19.3585 4.38714,7.61341 8.12125,18.85729 -2.71698,29.77358 7.15425,4.34035 6.526,19.35519 -3.28302,31.01887 2.93175,7.40258 6.78832,22.88597 -1.58491,30.56604 2.0523,2.61332 7.30295,9.78295 -2.26415,21.39622 62.3042,-22.5015 99.82845,-21.3163 128.05375,-12.72827 C 302.15796,197.37196 285.01338,128.40171 288.65967,41.807261 z"
     id="path3842"
     style="fill:#d61a1a;fill-opacity:1;stroke:#000000;stroke-width:2;stroke-linecap:butt;stroke-linejoin:miter;stroke-miterlimit:4;stroke-opacity:1;stroke-dasharray:none" />
  <path
     d="m 225.33677,11.505276 c 0.15564,-1.5691951 3.45019,-1.9163108 3.28302,-0.0283 L 204.62264,282.50944 198.50944,282 z"
     id="path3844"
     style="fill:#000000;stroke:none" />
  <path
     d="m 180.56604,246 20.15094,28.86792"
     id="path3850"
     style="fill:none;stroke:#000000;stroke-width:2;stroke-linecap:butt;stroke-linejoin:miter;stroke-miterlimit:4;stroke-opacity:1;stroke-dasharray:none" />
  <path
     d="M 198.6442,101.92184 221.24259,63.078165"
     id="path3852"
     style="fill:none;stroke:#000000;stroke-width:2.0431242;stroke-linecap:butt;stroke-linejoin:miter;stroke-miterlimit:4;stroke-opacity:1;stroke-dasharray:none" />
  <path
     d="m 222.79245,48.226414 c -0.90566,1.584906 -69.4778,68.134296 -70.95283,70.245286"
     id="path3854"
     style="fill:none;stroke:#000000;stroke-width:2;stroke-linecap:butt;stroke-linejoin:miter;stroke-miterlimit:4;stroke-opacity:1;stroke-dasharray:none" />
  <path
     d="M 280.75472,47.773584 224.83019,44.603773"
     id="path3856"
     style="fill:none;stroke:#000000;stroke-width:2;stroke-linecap:butt;stroke-linejoin:miter;stroke-miterlimit:4;stroke-opacity:1;stroke-dasharray:none" />
  <path
     d="m 293.88679,37.867923 -6.67924,4.981133"
     id="path3862"
     style="fill:none;stroke:#000000;stroke-width:2;stroke-linecap:round;stroke-linejoin:miter;stroke-miterlimit:4;stroke-opacity:1;stroke-dasharray:none" />
  <path
     d="m 292.07547,38.71698 c 18.39541,45.610547 43.31636,113.57134 47.03773,197.9434"
     id="path3864"
     style="fill:none;stroke:#000000;stroke-width:2;stroke-linecap:butt;stroke-linejoin:miter;stroke-miterlimit:4;stroke-opacity:1;stroke-dasharray:none" />
  <path
     d="m 342.28302,236.54717 c -47.08091,4.4717 -90.13217,10.18868 -135.33962,14.66038"
     id="path3866"
     style="fill:none;stroke:#000000;stroke-width:3;stroke-linecap:round;stroke-linejoin:miter;stroke-miterlimit:4;stroke-opacity:1;stroke-dasharray:none" />
  <path
     d="m 332.71698,234.45283 c -0.87692,14.36489 -4.34999,29.54588 -9.39622,44.49057"
     id="path3868"
     style="fill:none;stroke:#000000;stroke-width:2;stroke-linecap:butt;stroke-linejoin:miter;stroke-miterlimit:4;stroke-opacity:1;stroke-dasharray:none" />
  <path
     d="m 293.85849,43.188679 c 17.58033,-2.929899 13.16848,7.530407 26.29245,7.641509 8.43111,0.07137 14.92389,0.942073 19.01887,3.849056 0.42571,10.964034 7.1899,23.059953 15.16981,34.528302 -7.06656,2.497329 -12.02885,1.85659 -19.02481,-2.81093 -10.43745,-6.369612 -18.9112,-6.358857 -26.48462,-4.54756 z"
     id="path3872"
     style="fill:#d61a1a;fill-opacity:1;stroke:#000000;stroke-width:2;stroke-linecap:butt;stroke-linejoin:miter;stroke-miterlimit:4;stroke-opacity:1;stroke-dasharray:none" />
  <path
     d="m 314.42994,50.363624 3.68327,9.445474 c -7.21291,-2.511669 -13.33492,-3.060443 -18.99945,-3.611263 l 4.33741,10.856546 c 7.52691,-0.310002 14.6494,2.136529 16.37957,3.614596 0.93501,3.753274 2.19403,6.483877 3.03719,10.048003 l 13.35849,5.54717 c -1.99392,-4.168752 -2.69271,-7.863694 -4.52498,-13.00749 5.91808,0.506564 9.75857,1.792225 14.06757,2.902193 l -4.67467,-10.781495 c -3.17212,-0.484724 -6.53407,-1.025041 -12.30244,-2.508324 -1.79044,-4.059173 -2.16607,-7.580275 -4.46601,-11.773585 -2.95903,-0.117629 -6.93692,-0.402429 -9.89595,-0.731825 z"
     id="path3874"
     style="fill:none;stroke:#000000;stroke-width:2;stroke-linecap:butt;stroke-linejoin:miter;stroke-miterlimit:4;stroke-opacity:1;stroke-dasharray:none" />
  <path
     d="m 319.5589,51.09304 c 4.06358,9.169608 7.61448,21.260785 9.52593,32.09998"
     id="path3876"
     style="fill:none;stroke:#000000;stroke-width:3;stroke-linecap:butt;stroke-linejoin:miter;stroke-miterlimit:4;stroke-opacity:1;stroke-dasharray:none" />
  <path
     d="m 301.30754,61.659617 c 13.76624,0.04033 27.60412,7.013845 41.94611,8.885531"
     id="path3878"
     style="fill:none;stroke:#000000;stroke-width:3;stroke-linecap:butt;stroke-linejoin:miter;stroke-miterlimit:4;stroke-opacity:1;stroke-dasharray:none" />
  <path
     d="m 97.660786,266.58717 c 23.546024,-1.18806 14.596624,4.79053 34.261324,9.60598 4.76648,-7.21483 13.36249,-6.7334 22.89425,-7.36459 19.5185,-1.29251 32.09006,8.9344 51.07179,9.12568 5.89694,-2.09341 9.07734,-3.44594 11.68727,-4.64289 -1.16291,-4.42047 -0.93511,-6.7677 0.4803,-6.72418 22.64461,0.69622 41.52861,4.63843 67.24185,4.64289 l -0.3202,4.64289 c 22.15702,0.93724 39.23505,1.41275 58.43638,2.08129 11.93988,4.83596 -0.30329,23.96511 0.8005,35.70222 l -62.43887,-8.96558 -68.36255,10.08628 -60.83786,-9.76608 -39.22442,3.68229 c -17.938012,-12.15653 -9.59267,-27.44201 -15.689764,-42.1062 z"
     id="path3880"
     style="fill:#d61a1a;fill-opacity:1;stroke:#000000;stroke-width:2.5;stroke-linecap:butt;stroke-linejoin:miter;stroke-miterlimit:4;stroke-opacity:1;stroke-dasharray:none" />
  <path
     d="m 22.042328,241.21214 97.877612,30.63232"
     id="path3882"
     style="fill:none;stroke:#000000;stroke-width:6.16012812;stroke-linecap:round;stroke-linejoin:miter;stroke-miterlimit:4;stroke-opacity:1;stroke-dasharray:none" />
  <path
     d="M 99.962264,275.20755 C 151.08647,292.84302 243.64637,301.01619 348.45283,289.4717"
     id="path3888"
     style="fill:none;stroke:#000000;stroke-width:2;stroke-linecap:butt;stroke-linejoin:miter;stroke-miterlimit:4;stroke-opacity:1;stroke-dasharray:none" />
  <path
     d="m 355.53159,270.32244 c -1.43896,-6.93659 -14.01239,2.63901 -11.17588,8.02177 4.54867,8.63187 2.10289,25.10697 -1.6028,34.57379 l 12.99998,-3.61657 c 2.89469,-14.15923 2.02374,-28.15666 -0.2213,-38.97899 z"
     id="path3886"
     style="fill:#d61a1a;fill-opacity:1;stroke:#000000;stroke-width:1.97533417;stroke-linecap:butt;stroke-linejoin:miter;stroke-miterlimit:4;stroke-opacity:1;stroke-dasharray:none" />
  <path
     d="m 308.71698,276.45283 51.62264,0.79245"
     id="path3884"
     style="fill:none;stroke:#000000;stroke-width:4;stroke-linecap:round;stroke-linejoin:miter;stroke-miterlimit:4;stroke-opacity:1;stroke-dasharray:none" />
  <path
     d="M 347.25444,295.72322 C 273.20775,305.06441 168.65372,307.9539 101.02288,284.19813"
     id="path3890"
     style="fill:none;stroke:#000000;stroke-width:2;stroke-linecap:butt;stroke-linejoin:miter;stroke-miterlimit:4;stroke-opacity:1;stroke-dasharray:none" />
  <path
     d="m 101.18298,291.40261 c 93.01692,24.21332 177.94615,18.04847 243.42079,11.7672"
     id="path3892"
     style="fill:none;stroke:#000000;stroke-width:2;stroke-linecap:butt;stroke-linejoin:miter;stroke-miterlimit:4;stroke-opacity:1;stroke-dasharray:none" />
  <path
     d="m 102.45283,297.39623 c 19.4745,5.44971 32.64306,7.15827 47.34294,8.58435"
     id="path3894"
     style="fill:none;stroke:#000000;stroke-width:2;stroke-linecap:butt;stroke-linejoin:miter;stroke-miterlimit:4;stroke-opacity:1;stroke-dasharray:none" />
  <use
     transform="translate(0,-70)"
     id="use3818"
     style="stroke-width:2;stroke-miterlimit:4;stroke-dasharray:none"
     x="0"
     y="0"
     width="410"
     height="480"
     xlink:href="#path3803" />
  <path
     d="m 274.01055,133.14411 c -5.02679,1.41895 -9.19216,3.55574 -12.40772,6.48404 2.97776,21.99291 3.57881,44.24815 18.57156,62.99921 5.8415,0.53782 12.89676,-2.292 16.25011,-4.24264 -16.55354,-26.61135 -18.48313,-46.7011 -22.41395,-65.24061 z"
     id="path3896"
     style="fill:#000000;stroke:none" />
  <path
     d="m 258.67925,63.16981 12.22641,-8.603773 c -0.97669,14.577128 -2.59566,24.233492 -0.67924,51.283023 -4.03379,2.69332 -7.81156,3.85045 -11.54718,4.75471 -2.15791,-16.530622 -1.43312,-32.10035 1e-5,-47.43396 z"
     id="path3898"
     style="fill:#000000;stroke:none" />
  <path
     d="M 231.28302,268.41509 C 228.5283,207.84905 235.11666,143.39007 223.01887,86.71698"
     id="path3900"
     style="fill:none;stroke:#000000;stroke-width:2;stroke-linecap:butt;stroke-linejoin:miter;stroke-miterlimit:4;stroke-opacity:1;stroke-dasharray:none" />
  <path
     d="m 230.26415,194.37735 c 1.63173,-0.0196 6.26902,-0.62451 5.88679,-5.20755 -2.0975,-25.14948 -2.55879,-55.34954 -6.72143,-56.02968"
     id="path3902"
     style="fill:none;stroke:#000000;stroke-width:3;stroke-linecap:butt;stroke-linejoin:miter;stroke-miterlimit:4;stroke-opacity:1;stroke-dasharray:none" />
  <path
     d="m 295.4717,274.30189 c -0.87036,-6.72986 2.97742,-14.17035 10.64956,-14.00222 8.27348,0.1813 12.72382,15.85242 2.2561,14.45505 -3.61838,-0.48303 -3.57179,-2.88763 -1.80564,-7.81417 -5.2674,5.7605 -0.25966,7.70002 -0.11889,10.07832 3.47598,0.1287 15.79755,-0.30888 17.81077,5.78495 1.01771,3.08053 -8.22907,3.06685 -9.60322,1.94229 -2.27036,-1.858 -8.19911,-3.1835 -22.7343,-4.09132 -0.17706,-0.37958 -0.39535,-2.13741 -0.16625,-3.14181 3.02617,0.17629 6.02938,0.35112 8.98736,0.52131 z"
     id="path3904"
     style="fill:#d61a1a;fill-opacity:1;stroke:#000000;stroke-width:2;stroke-linecap:butt;stroke-linejoin:round;stroke-miterlimit:4;stroke-opacity:1;stroke-dasharray:none" />
  <path
     d="m 310.83348,254.4196 a 4.963089,4.7229395 0 1 1 -9.92618,0 4.963089,4.7229395 0 1 1 9.92618,0 z"
     transform="matrix(1.0087621,0,0,0.73102221,-2.4711021,70.183883)"
     id="path3906"
     style="fill:#d61a1a;fill-opacity:1;stroke:#000000;stroke-width:3.49350667;stroke-miterlimit:4;stroke-opacity:1;stroke-dasharray:none" />
  <path
     d="m 302.22811,254.01935 6.96433,-0.44028 c 5.42564,-0.343 4.7648,-1.99562 3.40215,-3.72232 -1.96342,-2.48797 -6.59368,0.34249 -10.00624,0.36023 -4.39895,0.0229 -1.91545,3.90069 -0.36024,3.80237 z"
     id="path3930"
     style="fill:#d61a1a;fill-opacity:1;stroke:#000000;stroke-width:2;stroke-linecap:butt;stroke-linejoin:miter;stroke-miterlimit:4;stroke-opacity:1;stroke-dasharray:none" />
  <path
     d="m 345.87351,284.03803 c -66.06487,3.57685 -165.67616,10.12718 -229.64116,-11.20698"
     id="path3932"
     style="fill:none;stroke:#000000;stroke-width:2;stroke-linecap:butt;stroke-linejoin:miter;stroke-miterlimit:4;stroke-opacity:1;stroke-dasharray:none" />
  <path
     d="m 138.0059,279.23504 c 3.52232,-4.18993 8.96559,-7.76302 19.85235,-7.04438 10.06107,0.66414 19.25676,3.77797 30.73914,6.24388 2.10455,0.45196 1.98057,2.16264 -1.08185,7.58767"
     id="path3934"
     style="fill:none;stroke:#000000;stroke-width:2;stroke-linecap:butt;stroke-linejoin:miter;stroke-miterlimit:4;stroke-opacity:1;stroke-dasharray:none" />
  <path
     d="m 193.4717,286.64151 c 5.93531,-19.58123 12.85684,-2.16836 8.49056,0.11321"
     id="path3936"
     style="fill:none;stroke:#000000;stroke-width:2;stroke-linecap:butt;stroke-linejoin:miter;stroke-miterlimit:4;stroke-opacity:1;stroke-dasharray:none" />
  <path
     d="m 216.17671,274.09243 c 27.0225,2.46972 51.98676,2.69408 75.693,1.54606 -1.34707,4.91838 -0.61525,7.29474 -0.81311,10.7766 -2.46518,-12.1516 -10.90302,-5.73257 -9.96226,0.11321 l -7.92453,0.22642 c 0.0754,-6.76173 -7.9701,-5.83048 -17.90151,-5.65707 -10.11298,0.17659 -17.52075,-1.31144 -17.19283,5.77028 l -6.79245,0.1132 c 1.35546,-4.97935 -16.48775,-8.21347 -15.16982,0.11321 -0.87365,-9.5558 -9.36551,-0.98441 -11.88678,-0.90566 -0.15883,-7.57738 1.09767,-7.98574 11.95029,-12.09625 z"
     id="path3938"
     style="fill:none;stroke:#000000;stroke-width:3;stroke-linecap:round;stroke-linejoin:miter;stroke-miterlimit:4;stroke-opacity:1;stroke-dasharray:none" />
  <path
     d="m 343.35849,276.79245 c 4.98681,13.77303 1.56617,25.24222 -1.01887,33.05661"
     id="path3940"
     style="fill:none;stroke:#000000;stroke-width:3;stroke-linecap:butt;stroke-linejoin:miter;stroke-miterlimit:4;stroke-opacity:1;stroke-dasharray:none" />
</svg>
