<?xml version="1.0" encoding="UTF-8" standalone="no"?>
<!-- Created with Inkscape (http://www.inkscape.org/) -->

<svg
   xmlns:dc="http://purl.org/dc/elements/1.1/"
   xmlns:cc="http://creativecommons.org/ns#"
   xmlns:rdf="http://www.w3.org/1999/02/22-rdf-syntax-ns#"
   xmlns:svg="http://www.w3.org/2000/svg"
   xmlns="http://www.w3.org/2000/svg"
   version="1.1"
   width="518.75"
   height="600"
   id="svg4228">
  <metadata
     id="metadata3020">
    <rdf:RDF>
      <cc:Work
         rdf:about="">
        <dc:format>image/svg+xml</dc:format>
        <dc:type
           rdf:resource="http://purl.org/dc/dcmitype/StillImage" />
        <dc:title></dc:title>
      </cc:Work>
    </rdf:RDF>
  </metadata>
  <defs
     id="defs4232" />
  <path
     d="m 161.13742,597.66676 c 60.17225,0.47462 121.03798,-0.40664 179.73077,0.0629 101.22457,0.8107 173.14906,-88.4562 171.6054,-154.59661 0,0 3.72142,-292.41944 4.5282,-437.55241 L 5.8140223,5.5837413 5.8728287,437.49041 C 5.877093,474.33232 31.497535,596.64254 161.13742,597.66567 z"
     id="path2996"
     style="fill:#d61a1a;fill-opacity:1;stroke:#000000;stroke-width:3.92074871;stroke-linecap:butt;stroke-linejoin:miter;stroke-miterlimit:4;stroke-opacity:1;stroke-dasharray:none" />
  <path
     d="m 340.4072,337.8006 -7.16218,15.24846 c -12.83096,0.0996 -22.66741,1.43885 -30.26485,3.69643 l -13.8623,-12.47544 -19.40624,10.85861 4.9669,16.86529 c -6.49233,6.30157 -12.85707,13.14487 -18.13577,24.60452 l -18.94489,0 -6.81512,21.02378 17.09598,9.58813 c 0.0347,11.75022 0.84643,23.44088 4.85191,34.88608 l -11.78271,13.74592 12.01339,19.17626 17.21236,-7.16217 c 5.90611,5.50637 12.35476,10.32808 19.63762,14.09297 l -0.23138,18.94489 21.37085,7.04649 9.35675,-16.05688 c 9.66937,-0.0855 19.17142,-1.3409 28.53233,-3.58144 l 12.93819,13.05389 20.09967,-11.55204 -5.54464,-16.63392 c 7.71156,-6.74845 14.26474,-15.35001 20.44604,-24.54772 l 15.76801,2.77232 6.46875,-22.35175 -15.30596,-12.01409 c 0.58442,-9.61057 -0.41723,-18.86884 -1.15478,-28.18595 l 12.59113,-12.9375 -12.24477,-18.94489 -15.24776,4.9676 c -8.56066,-9.69575 -17.35586,-16.34596 -26.22275,-22.06357 l 0.69343,-16.05688 z"
     id="path3784"
     style="fill:#faf700;fill-opacity:1;stroke:none" />
  <path
     d="m 284.61047,351.66013 a 35.708893,36.769554 0 1 1 -71.41778,0 35.708893,36.769554 0 1 1 71.41778,0 z"
     transform="matrix(1.3655636,0,0,1.3312707,-13.445397,-35.487036)"
     id="path3786"
     style="fill:#faf700;fill-opacity:1;stroke:#d61a1a;stroke-width:10.3833828;stroke-miterlimit:4;stroke-opacity:1;stroke-dasharray:none" />
  <path
     d="m 254.20489,347.24069 a 8.6620579,8.6620579 0 1 1 -17.32412,0 8.6620579,8.6620579 0 1 1 17.32412,0 z"
     transform="matrix(1.306915,0,0,1.306915,4.6019893,-20.481465)"
     id="path3788"
     style="fill:#faf700;fill-opacity:1;stroke:#d61a1a;stroke-width:8.41676807;stroke-miterlimit:4;stroke-opacity:1;stroke-dasharray:none" />
  <path
     d="m 465.39855,245.90623 -11.61593,8.98446 c -9.07019,-3.80702 -16.26035,-8.10888 -22.29518,-8.81539 l -5.81935,-12.11333 -19.14881,1.55036 -1.60026,13.38286 c -6.47911,2.47632 -13.03172,5.37201 -20.21522,11.84911 l -13.34536,-5.72749 -12.65936,13.73093 9.8948,13.30925 c -3.52695,8.28875 -5.97114,11.8597 -6.60966,21.13292 l -13.49635,4.1575 2.89652,21.06816 15.32995,0.73628 c 2.49558,5.66464 5.58027,11.01106 9.57222,15.86487 l -5.89048,13.27585 15.00297,13.04276 10.52198,-10.09911 c 6.83718,2.86345 12.75514,4.85134 20.02728,6.10349 l 2.9723,12.76057 21.11754,-1.0203 1.35418,-14.54947 c 7.47292,-2.42253 13.18887,-6.03809 20.32339,-10.64792 l 10.73193,6.95146 11.60416,-13.24193 -7.90101,-13.87025 c 3.31757,-6.5935 5.41092,-13.4186 7.70827,-20.20444 l 12.78164,-5.30741 -2.89765,-17.04747 -12.24307,-1.11131 c -0.56738,-2.96558 -7.44763,-15.21045 -9.84101,-18.8149 l 7.22186,-11.2648 z"
     id="path3784-1"
     style="fill:#faf700;fill-opacity:1;stroke:none" />
  <path
     d="m 343.30033,252.84195 a 24.395184,24.218407 0 1 1 -48.79036,0 24.395184,24.218407 0 1 1 48.79036,0 z"
     transform="matrix(1.306915,0,0,1.306915,5.5261179,-23.715884)"
     id="path3792"
     style="fill:#faf700;fill-opacity:1;stroke:#d61a1a;stroke-width:9.18192863;stroke-miterlimit:4;stroke-opacity:1;stroke-dasharray:none" />
  <path
     d="m 323.85489,253.01872 a 6.8942909,6.7175145 0 1 1 -13.78858,0 6.8942909,6.7175145 0 1 1 13.78858,0 z"
     transform="matrix(1.306915,0,0,1.306915,7.374375,-24.177938)"
     id="path3790"
     style="fill:#faf700;fill-opacity:1;stroke:#d61a1a;stroke-width:6.88644648;stroke-miterlimit:4;stroke-opacity:1;stroke-dasharray:none" />
  <path
     d="M 7.8305432,418.12092 30.400363,391.4716 35.25024,163.23127 7.7897032,126.77044 7.7853594,94.30689 36.333299,115.04868 39.483314,7.5472632 65.912259,7.5432297 67.260225,49.070887 122.62915,15.01494 l 0,11.272302 -55.85901,46.308369 1.960366,99.162029 53.641264,-55.90846 0.10538,20.29501 -53.583521,80.21186 0.501707,143.83546 51.647424,-49.07407 2.07928,-128.91572 -17.61621,-16.86728 11.72488,-17.55822 6.93094,3.92928 0.51983,-144.1569447 18.33098,0 0.78694,24.4822887 39.13097,-24.2873164 -0.0873,13.4287044 -37.77387,30.380576 5.66023,240.273632 31.53594,-23.10317 1.27077,-132.26606 -35.11699,-34.30814 -0.46205,-14.670476 36.61854,24.258236 0.41149,-104.1955328 18.1794,0 5.09018,107.4299228 26.91512,-19.637646 0,16.172356 -25.41334,25.18248 3.05859,106.62274 25.81133,-24.50456 -1.63362,-140.65676 -30.3858,-35.77661 -0.65331,-14.539422 31.09685,26.195824 0.60584,-46.5242371 18.3257,0.08635 0.67214,19.9736651 29.4295,-16.312772 0.0835,13.967715 -27.44509,24.994655 5.22743,137.062942 25.15831,-34.4698 0,-25.64848 -26.54683,-20.33862 -0.40841,-8.331582 26.46509,11.190382 -0.16347,-102.1440016 23.17744,1.738e-4 1.65409,37.2882048 22.8711,-21.56437 -0.32686,16.33659 -22.21762,28.588707 3.11006,47.873586 20.57775,-28.596678 0.9138,-79.9150149 20.0733,1.01e-5 0.90373,51.6533068 C 378.32319,40.953786 398.8939,22.7536 414.96089,7.5479408 l 25.25293,-0.00403 C 406.81749,36.114167 377.55502,62.404169 359.6482,83.789351 323.48778,126.97504 302.58004,180.57732 268.36234,218.80812 230.04249,261.62205 186.74187,289.13655 139.62019,332.55496 102.90291,366.38613 59.455783,396.23381 12.591374,472.65061 6.8945085,451.10981 7.7480631,436.93464 7.8316776,418.12231 z"
     id="path3812"
     style="fill:#faf700;fill-opacity:1;stroke:none" />
  <path
     d="m 20.042039,496.86212 c 3.702533,10.10313 7.865457,19.51746 14.396476,29.71728 19.838616,-36.89889 37.760071,-74.47947 82.320325,-120.23129 65.73664,-67.49423 104.17296,-82.63782 161.07705,-143.107 56.89569,-60.46035 51.91172,-83.90401 103.8999,-152.256 25.11718,-33.021956 51.80098,-60.771982 99.32167,-103.4383953 l -22.27641,-0.00404 C 440.67877,24.295051 419.45125,42.059291 390.42605,72.923756 342.11527,124.2944 334.31992,159.33337 273.06169,234.87729 243.85467,270.89455 186.36473,305.28958 131.20766,358.24833 98.4255,389.72397 58.884631,424.27147 20.042039,496.86307 z"
     id="path3814"
     style="fill:#faf700;fill-opacity:1;stroke:none" />
  <path
     d="M 132.59385,415.54336 C 180.49162,363.48718 213.71501,348.7329 294.7782,274.61358 319.83869,251.70042 359.68942,180.19848 407.52203,107.8081 435.93041,64.81561 473.81717,32.587508 509.85975,7.5412063 l 5.16578,1.11e-5 -0.12327,19.8303206 C 495.73716,42.687016 482.8362,46.676067 450.9566,84.243356 385.86932,169.9017 369.96195,229.92104 311.96126,289.86615 264.47574,338.94313 214.5405,366.98151 158.58041,426.93231 125.15257,468.81632 84.92094,522.64777 78.591927,572.85683 68.545581,566.51247 59.355088,558.28708 52.643851,550.91075 69.257015,499.73607 101.73398,449.45037 132.59401,415.54336 z"
     id="path3816"
     style="fill:#faf700;fill-opacity:1;stroke:none" />
  <path
     d="m 69.4768,113.08343 0.144744,20.69829 17.513944,15.92177 13.026892,-13.17164 z"
     id="path3829"
     style="fill:#faf700;fill-opacity:1;stroke:none" />
</svg>
