<?xml version="1.0" encoding="UTF-8" standalone="no"?>
<!-- Created with Inkscape (http://www.inkscape.org/) -->

<svg
   xmlns:dc="http://purl.org/dc/elements/1.1/"
   xmlns:cc="http://creativecommons.org/ns#"
   xmlns:rdf="http://www.w3.org/1999/02/22-rdf-syntax-ns#"
   xmlns:svg="http://www.w3.org/2000/svg"
   xmlns="http://www.w3.org/2000/svg"
   xmlns:xlink="http://www.w3.org/1999/xlink"
   version="1.1"
   width="390"
   height="480"
   id="svg4228">
  <metadata
     id="metadata10">
    <rdf:RDF>
      <cc:Work
         rdf:about="">
        <dc:format>image/svg+xml</dc:format>
        <dc:type
           rdf:resource="http://purl.org/dc/dcmitype/StillImage" />
        <dc:title></dc:title>
      </cc:Work>
    </rdf:RDF>
  </metadata>
  <defs
     id="defs4232" />
  <path
     d="M 0,0 C 130,0 260,0 390,0 389.98981,114.99797 370.78556,350.14732 194.88837,479.99815 20.79131,350.08886 0.081386,115.02225 0,0 z"
     id="path4240-0"
     style="fill:#008c31;fill-opacity:1;stroke:none" />
  <path
     d="m 200.77821,171.59533 -2.42869,16.85712 -11.34563,13.14288 c 0.0777,-9.19567 -16.85403,-27.27312 -31.75097,-31.63424 -12.21596,-3.57625 -27.22959,14.49276 -31.51751,10.50584 -1.76483,-1.64094 -3.37406,-7.6361 -5.36965,-3.61868 -1.74448,3.51189 -0.4654,10.04509 -4.78599,10.7393 -8.93542,1.4357 -26.552859,10.2086 -26.848252,3.61868 -0.132303,-2.95156 -0.611244,-5.83885 -1.51751,-8.63814 -0.411328,-1.27052 -2.845202,-3.02881 -4.552529,0 -3.170099,5.62377 0.0097,13.50495 -4.202335,17.0428 -1.850483,1.5543 -6.322383,-1.14599 -8.054475,-0.75876 -1.732092,0.38724 -3.73988,2.27595 -6.18677,1.69262 -7.751984,-3.42369 -9.716742,-15.51951 -6.070039,-21.4786 9.851188,-16.09786 18.193125,-36.23614 47.393,-42.02335 5.0932,-1.00944 2.38666,-5.25784 -2.2179,-5.83658 -10.90345,-1.37044 -39.760052,0.31899 -43.424127,12.25681 -1.640247,5.34404 -1.882239,9.70051 -3.85214,14.24125 -5.040499,11.61866 -25.084851,2.57784 -21.4786,-10.15564 2.229067,-7.87071 15.424213,-23.55839 33.852141,-22.76265 l 34.552526,1.51751 c 2.79804,0.12289 4.64578,-2.3218 1.34241,-3.50194 -12.5066,-4.46804 -31.044866,-19.40146 -52.645909,-12.49027 -2.556411,0.81791 -9.926848,4.8783 -10.214008,12.84046 -0.197501,5.47617 -18.048895,5.93918 -20.194553,-7.35409 -2.550018,-15.798456 17.650908,-20.113491 39.805448,-16.225676 8.958596,1.572106 23.454376,8.175906 25.680934,9.221786 2.226558,1.04588 6.154912,-3.06508 3.268482,-4.90272 C 68.716528,91.604325 43.550435,62.881844 24.63035,64.435797 c -2.231855,0.183308 -2.819364,-0.707383 -3.85214,-3.385214 -6.920225,-17.943087 3.791281,-24.6021 19.027238,-19.494164 1.620324,0.543222 2.170128,0.846358 2.33463,3.268483 0.809212,11.914847 17.142433,29.675344 49.844358,53.929961 1.600176,1.186831 4.375162,-3.248538 3.618677,-4.202335 C 84.952958,81.124524 75.042276,64.193307 76.575876,50.311283 c 0.995877,-9.014596 5.015981,-25.175011 21.59533,-18.44358 5.409594,2.196364 10.847734,15.230457 3.035024,17.276265 -3.642189,0.95373 -15.683298,7.362864 -10.856035,24.046693 3.060749,10.578462 10.070195,22.021549 21.478595,35.836579 0.83155,1.00697 4.84671,0.1344 3.73541,-2.68483 -15.921352,-40.390387 -2.34283,-64.975434 9.22179,-69.105057 11.73823,-4.191619 23.08907,9.260684 15.1751,18.793775 -6.36754,7.670274 -16.90457,2.522313 -22.06226,16.92607 -2.2081,6.166523 -1.04653,19.455941 3.50195,37.003892 0.39781,1.53473 4.73067,2.1825 5.01945,-0.46693 2.88354,-26.455502 11.98985,-39.218866 34.90273,-56.031126 4.79734,-3.520032 17.83281,0.889143 18.67704,2.33463 1.21532,2.080852 6.16643,4.668317 1.05058,7.354086 -2.12113,1.113569 5.78238,7.33051 1.28405,10.272374 -3.93211,2.571567 -9.49293,4.29197 -14.94163,5.719844 -3.9359,1.031434 0.23789,5.266947 1.16731,4.902724 0.92942,-0.364223 9.48527,-3.280722 10.7393,0.933852 1.64929,5.542979 2.20478,31.231466 -6.53696,30.350196 -3.55754,-0.35864 -6.43343,5.36942 -2.10117,5.01945 4.01319,-0.3242 4.25779,2.42621 3.85214,4.55253 -1.71929,9.01204 -9.55547,15.35944 -7.70428,23.92997 4.33265,13.7658 15.95575,24.93798 33.96887,22.76264 z"
     id="path3774"
     style="fill:#faf700;fill-opacity:1;stroke:none" />
  <use
     transform="matrix(-1,0,0,1,392.07679,0)"
     id="use3762"
     x="0"
     y="0"
     width="390"
     height="480"
     xlink:href="#path3774" />
  <path
     d="m 211.81445,184.74948 c -7.90081,11.44972 -7.95123,27.91507 -3.60382,37.61777 5.20467,11.61597 26.81765,10.23213 26.50139,16.07865 -0.13017,2.40631 -3.70426,7.48149 0.65929,6.44153 3.81445,-0.9091 8.01321,-6.07526 11.31325,-3.20137 6.82478,5.9435 24.84478,13.85665 19.97252,18.3036 -2.18224,1.99176 -4.09313,4.20858 -5.66278,6.69726 -0.71246,1.12952 -0.50427,4.12487 2.91537,3.4966 6.34944,-1.16657 10.36614,-8.65604 15.78091,-7.68631 2.37881,0.42592 3.16856,5.58981 4.57518,6.67218 1.40665,1.08233 4.14302,1.41495 5.26194,3.66785 2.33466,8.14643 -5.6974,17.40144 -12.6096,18.41666 -18.67259,2.74256 -39.48194,9.23171 -62.62596,-9.48938 -4.03692,-3.26541 -5.56669,1.53395 -3.06251,5.44113 5.92982,9.25206 25.7067,30.33364 37.222,25.50307 5.15491,-2.16243 8.65589,-4.76638 13.40493,-6.16121 12.15162,-3.56901 18.04384,17.61575 5.95444,23.00026 -7.47259,3.32822 -27.97155,3.23976 -39.16133,-11.42349 l -20.96134,-27.51004 c -1.69743,-2.22774 -4.75835,-2.08137 -3.54935,1.21154 4.57734,12.46702 4.97925,36.26855 24.12037,48.43354 2.26528,1.43967 10.10379,4.50038 16.40306,-0.37791 4.33248,-3.35514 16.11984,10.05921 7.28391,20.21998 -10.5011,12.07563 -26.75161,-0.67652 -37.95297,-20.18212 -4.52946,-7.88746 -8.74024,-23.24998 -9.3628,-25.62987 -0.62256,-2.37989 -6.29566,-2.76449 -5.85864,0.62925 2.9219,22.69096 -3.0226,60.4133 10.28703,73.94984 1.57003,1.59681 1.26216,2.61843 -0.13319,5.12649 -9.34969,16.80558 -21.32365,12.84287 -27.15732,-2.13022 -0.62041,-1.59238 -0.73967,-2.20877 1.01531,-3.88621 8.63305,-8.25159 11.81457,-32.16994 9.5017,-72.81908 -0.11319,-1.98905 -5.29684,-1.28006 -5.54497,-0.0882 -3.49326,16.779 -10.15074,35.23342 -21.79501,42.94534 -7.56145,5.00791 -22.54795,12.26911 -27.99498,-4.77543 -1.77728,-5.5614 4.75112,-18.08501 11.32555,-13.39451 3.06491,2.18665 15.69841,7.33058 25.42122,-7.06108 6.16479,-9.12509 10.46498,-21.8367 13.76993,-39.4459 0.24091,-1.28353 -3.00052,-3.80861 -4.45419,-1.14968 -20.82628,38.09382 -48.40442,43.40862 -58.98199,37.17089 -10.73637,-6.33136 -7.67314,-23.66406 4.71677,-23.69053 9.96888,-0.0213 12.76269,11.36839 27.12848,6.10585 6.15025,-2.253 15.61342,-11.65547 26.17844,-26.38637 0.92398,-1.28838 -1.35316,-5.03105 -3.573,-3.55621 -22.16586,14.72696 -37.80036,15.90627 -65.38615,9.07419 -5.77572,-1.43045 -10.73692,-14.26598 -10.16733,-15.84005 0.81992,-2.26597 -0.36337,-7.72568 4.97557,-5.51635 2.21362,0.91605 1.9273,-9.13553 7.06746,-7.56447 4.49316,1.37328 9.37559,4.54259 13.96154,7.8131 3.31268,2.36248 3.89296,-3.55557 3.01803,-4.03618 -0.87472,-0.48099 -8.59398,-5.18429 -6.16002,-8.8464 3.20114,-4.81637 22.5756,-21.69351 27.49679,-14.41502 2.00274,2.96206 8.24388,1.50274 5.20078,-1.60056 -2.81899,-2.87475 -0.86315,-4.82392 1.02975,-5.87402 8.02274,-4.45066 17.91606,-2.49681 23.31322,-9.40705 7.79834,-12.1431 6.02249,-33.54166 -7.18359,-45.98368 l 36.16671,5.11233 z"
     id="path3774-8-2"
     style="fill:#faf700;fill-opacity:1;stroke:none" />
</svg>
