<?xml version="1.0" encoding="UTF-8" standalone="no"?>
<!-- Created with Inkscape (http://www.inkscape.org/) -->

<svg
   xmlns:svg="http://www.w3.org/2000/svg"
   xmlns="http://www.w3.org/2000/svg"
   version="1.1"
   width="390"
   height="480"
   id="svg4228">
  <defs
     id="defs4232" />
  <path
     d="m 0.51202379,0.50512952 c 129.66265621,0 259.32532621,0 388.98797621,0 C 389.48983,115.23328 370.33544,349.8309 194.89467,479.37706 21.249382,349.77255 0.5931986,115.2575 0.51202379,0.50512952 z"
     id="path4240-0-1"
     style="fill:#207dbf;fill-opacity:1;stroke:#99999f;stroke-width:0.99999905;stroke-opacity:0.94117647" />
  <rect
     width="105.89374"
     height="55.022823"
     x="141.98956"
     y="110.27714"
     id="rect2847"
     style="fill:#ececec;fill-rule:evenodd;stroke:none" />
  <rect
     width="127.70474"
     height="15.867588"
     x="131.08409"
     y="166.31366"
     id="rect2847-1"
     style="fill:#ececec;fill-rule:evenodd;stroke:none" />
  <rect
     width="105.11472"
     height="17.004877"
     x="142.12485"
     y="183.18059"
     id="rect3643"
     style="fill:#ececec;stroke:none" />
  <path
     d="m 110.08526,201.12155 169.19389,0.12801 -0.25423,33.40665 c -15.16493,3.14481 -15.38512,18.03551 -14.08626,30.65077 l 13.42715,129.80043 c -30.72229,42.31471 -66.67164,71.28563 -83.49395,83.66553 -14.0329,-10.4934 -50.7333,-39.85877 -82.66597,-83.55548 l 12.11656,-128.94652 c 1.24104,-13.20583 2.89422,-26.45879 -14.30075,-31.99873 l 0.0636,-33.15066 z"
     id="path3645"
     style="fill:#ececec;stroke:none" />
  <path
     d="m 130.99478,109.2051 127.00938,0.0311 -58.99985,-76.035879 c 9.12081,-7.41349 2.1214,-17.14082 -4.75019,-17.149944 -7.26502,-0.0097 -13.26556,10.318522 -4.2436,17.118758 l -59.01574,76.035885 0,-3e-5 0,4e-5 z"
     id="path3647"
     style="fill:#ececec;stroke:none" />
</svg>
