<?xml version="1.0" encoding="UTF-8" standalone="no"?>
<!-- Created with Inkscape (http://www.inkscape.org/) -->

<svg
   xmlns:dc="http://purl.org/dc/elements/1.1/"
   xmlns:cc="http://creativecommons.org/ns#"
   xmlns:rdf="http://www.w3.org/1999/02/22-rdf-syntax-ns#"
   xmlns:svg="http://www.w3.org/2000/svg"
   xmlns="http://www.w3.org/2000/svg"
   version="1.1"
   width="390"
   height="480"
   id="svg4228">
  <metadata
     id="metadata10">
    <rdf:RDF>
      <cc:Work
         rdf:about="">
        <dc:format>image/svg+xml</dc:format>
        <dc:type
           rdf:resource="http://purl.org/dc/dcmitype/StillImage" />
        <dc:title></dc:title>
      </cc:Work>
    </rdf:RDF>
  </metadata>
  <defs
     id="defs4232" />
  <path
     d="M 0,0 C 130,0 260,0 390,0 389.98981,114.99797 370.78556,350.14732 194.88837,479.99815 20.79131,350.08886 0.081386,115.02225 0,0 z"
     id="path4240-0"
     style="fill:#008c31;fill-opacity:1;stroke:none" />
  <path
     d="m 27.782102,145.97277 c -0.122449,-5.43092 23.785769,-29.94376 40.097276,-52.470826 1.847752,-2.551845 7.81874,1.438011 5.924124,3.356032 -3.777641,3.824304 -5.733492,6.736924 -4.727626,10.359934 0.460579,1.65895 1.677818,4.69298 4.202334,4.66924 3.316898,-0.0312 4.689813,-2.82134 5.457199,-4.26069 0.459962,-0.86273 -0.313858,-1.34949 -0.700389,-0.58366 -1.29269,2.5612 -3.018279,3.94966 -4.494164,3.9105 -2.596345,-0.0689 -3.81285,-4.27307 -3.735408,-6.07003 0.107533,-2.49519 2.653465,-5.19962 4.494163,-7.062259 2.664983,-2.69675 11.093985,13.578829 47.684829,11.964979 46.19682,-2.03753 64.26963,2.25493 105.40856,4.49417 16.88282,0.9253 31.1516,-4.16142 46.57588,-5.83658 7.65547,-0.83142 9.87677,2.16968 17.50972,1.40078 17.44845,-1.75767 23.19046,-2.37976 26.49805,0.58365 15.3996,13.79713 2.06379,58.50801 10.7393,88.59922 3.17819,11.02363 1.77543,19.17462 -6.88716,19.02724 4.69506,18.51266 -6.63202,30.83974 1.48919,49.35498 -5.9219,0.27352 -9.5037,6.44583 -10.2228,8.41297 -1.05561,2.88765 -11.04367,1.70129 -9.7395,0.0425 4.51437,-5.74198 8.23949,-12.25361 8.31747,-16.13727 0.25229,-12.56422 -4.7342,-28.57293 -6.07004,-31.98444 -3.98383,-10.17401 -17.82532,-29.50667 -22.52918,-31.16732 -6.50927,-2.29804 -12.2812,2.21029 -13.71595,4.08561 -0.62747,0.82015 0.46993,1.12977 0.8463,0.61284 2.23474,-3.06931 9.87159,-6.77079 14.8249,-2.2179 4.52839,4.16233 11.71206,14.17314 14.47471,18.96887 -2.07596,3.935 -6.31605,6.6939 -9.89299,8.78405 -2.22383,1.29947 -1.6891,5.58682 -2.44488,5.72248 -1.35796,0.24374 -0.88881,-3.08354 -4.06118,-4.85494 -1.91783,-1.07089 -5.52371,-1.95645 -8.14374,0.12468 -2.55653,2.03069 -1.50655,3.8747 -2.85053,3.99162 -0.85858,0.0747 -0.95391,-3.74407 -4.00746,-6.67645 -3.68839,-2.6269 -6.42996,-5.97276 -9.89299,-9.04669 -25.41156,13.81457 -62.9954,1.40767 -84.0467,-1.51751 -8.57739,-1.19187 -14.66144,-1.21397 -21.01167,-0.70039 0,0 -1.373,5.96885 -2.33463,8.87159 -3.44247,10.39128 -8.64881,20.13196 -12.25681,30.46693 -1.39504,3.99604 -0.0973,8.6965 1.86771,11.90662 -3.26763,3.82872 -6.36857,7.38735 -11.20623,10.62256 -2.56798,1.71734 -11.27657,0.98173 -9.51362,-0.75875 3.92158,-3.8716 8.50121,-7.28603 10.79767,-11.61479 4.40313,-8.29977 -1.59237,-30.44002 1.40078,-46.34241 0.51959,-2.76056 -4.03687,-4.13979 -7.93775,-4.66926 -10.05283,-1.36448 -16.64955,-36.3469 -30.11673,-54.04669 -13.575122,-17.84166 -35.823771,-11.51567 -44.474708,-6.88716 -12.103033,6.47548 -21.536625,-2.82427 -21.59533,-5.42801 l 0,-2e-5 z"
     id="path2849"
     style="fill:#f2f2f2;stroke:none" />
  <path
     d="m 150.75876,225.81712 -5.42802,13.59922 c -1.69578,9.05396 2.45094,15.88494 3.73541,24.22179 0.48933,3.17603 -4.96021,4.42754 -5.60311,10.68094 -0.20364,1.98075 7.33653,1.67048 8.11284,0.35016 1.72662,-2.93658 4.28015,-6.24514 7.23735,-8.98832 -9.38347,-13.338 -1.98443,-27.5681 -8.05447,-39.86382 l 0,3e-5 z"
     id="path3645"
     style="fill:#f2f2f2;stroke:none" />
  <path
     d="m 282.43191,276.01167 c -0.18503,2.16977 7.0615,1.19003 7.52918,0 1.43834,-3.65986 5.56936,-7.84345 8.98832,-8.75486 -0.23482,-9.96614 6.77044,-14.96109 10.44748,-22.41245 -0.5573,-3.94942 -3.00097,-12.32003 -4.33366,-16.26945 -7.44959,1.23929 -8.29782,14.80717 -11.07252,22.44106 -3.4093,9.37982 -10.67683,14.65326 -11.5588,24.9957 z"
     id="path3647"
     style="fill:#f2f2f2;stroke:none" />
</svg>
