<?xml version="1.0" encoding="UTF-8" standalone="no"?>
<!-- Created with Inkscape (http://www.inkscape.org/) -->

<svg
   xmlns:svg="http://www.w3.org/2000/svg"
   xmlns="http://www.w3.org/2000/svg"
   xmlns:xlink="http://www.w3.org/1999/xlink"
   version="1.1"
   width="390"
   height="480"
   id="svg4228">
  <defs
     id="defs4232" />
  <path
     d="M 0,0 C 130,0 260,0 390,0 389.98981,114.99797 370.78556,350.14732 194.88837,479.99815 20.79131,350.08886 0.081386,115.02225 0,0 z"
     id="path4240-0"
     style="fill:#d61a1a;fill-opacity:1;stroke:none" />
  <path
     d="m 131.2376,377.47082 c 5.78396,-9.72602 7.20789,-16.6815 11.52285,-30.4087 l -2.59716,-241.16346 c 12.68996,0.34007 26.41102,3.31415 40.42008,9.26051 2.57231,-8.83646 2.81827,-17.422608 0.12363,-25.60039 -13.22085,5.666966 -27.17953,8.677656 -42.04901,8.40981 5.83911,-22.735016 6.41564,-44.233108 0.37109,-66.041678 4.0892,-2.345802 4.89562,-6.333022 5.0706,-10.63593 L 117.1388,21.16731 c -0.34559,3.52836 -0.40492,6.974641 4.94697,10.821438 -7.11511,20.461062 -5.91213,44.806547 -0.371,64.990464 -27.187678,-1.30631 -31.888961,-5.423396 -41.678001,-8.904511 -3.227512,8.816713 -3.325704,17.484469 0.371025,25.971479 13.751216,-5.61011 26.145476,-8.67508 39.822896,-8.16248 l -0.61836,240.97787 c 2.31133,10.51584 6.01779,20.75264 11.62527,30.60925 z"
     id="path2827"
     style="fill:#faf700;fill-opacity:1;stroke:none" />
  <use
     transform="translate(130,0)"
     id="use3761"
     x="0"
     y="0"
     width="390"
     height="480"
     xlink:href="#path2827" />
</svg>
