<?xml version="1.0" encoding="UTF-8" standalone="no"?>
<!-- Created with Inkscape (http://www.inkscape.org/) -->

<svg
   xmlns:svg="http://www.w3.org/2000/svg"
   xmlns="http://www.w3.org/2000/svg"
   version="1.1"
   width="390"
   height="480"
   id="svg4228">
  <defs
     id="defs4232" />
  <path
     d="m 0.51202379,0.50512952 c 129.66265621,0 259.32532621,0 388.98797621,0 C 389.48983,115.23328 370.33544,349.8309 194.89467,479.37706 21.249382,349.77255 0.5931986,115.2575 0.51202379,0.50512952 z"
     id="path4240-0-1"
     style="fill:#207dbf;fill-opacity:1;stroke:#99999f;stroke-width:0.99999905;stroke-opacity:0.94117647" />
  <path
     d="M 0.99301715,0.98439268 C 1.0265752,32.562232 2.5216464,55.633354 3.0392497,61.883149 c 5.4561219,2.938843 14.2870313,10.995106 11.4525533,25.8283 10.228104,-1.927367 29.303473,4.411343 24.660979,25.296221 11.276108,-3.06501 30.67564,5.069 25.677927,25.42335 15.220018,-3.716 29.181911,6.68993 24.660979,24.53353 18.043632,-3.57469 27.549182,9.33757 25.677922,25.8047 22.78368,-4.65632 26.3665,18.31767 24.67694,25.58754 19.12723,-7.17951 38.66238,21.21015 15.12709,38.51636 12.76638,8.72208 14.4057,25.17724 0.25424,35.08421 11.07316,5.71087 14.10353,25.44319 -0.12712,35.46558 11.98068,5.5705 15.01854,25.6542 0.12712,35.33845 4.82381,1.36147 19.94579,21.6588 -0.12712,35.46556 15.96988,12.63402 11.37632,29.76926 -0.12712,35.46557 5.65218,3.2117 10.64901,14.22451 7.97767,22.47692 6.57974,6.28749 24.3164,21.31389 31.95441,26.5904 9.53022,-6.92087 24.58247,-19.37009 31.90953,-26.27471 -2.98229,-8.19374 3.26273,-19.48437 9.51421,-22.53838 -14.77106,-7.61758 -14.30175,-28.87591 0.12712,-35.21132 -11.57258,-6.6374 -17.06819,-24.84029 -0.50848,-35.71981 -7.56015,-5.21804 -18.21889,-20.69152 -0.38135,-35.46557 -15.03376,-12.54586 -11.06329,-27.42811 0.12711,-35.21133 -5.92907,-4.41682 -18.50828,-20.57596 0.12712,-35.59268 -19.38989,-8.5046 -11.14563,-44.69356 16.01692,-38.26214 -3.99643,-9.53987 4.4774,-31.36271 24.5179,-26.73159 -5.58185,-11.86139 9.54289,-31.31813 25.29658,-24.91488 -6.19756,-12.20791 9.85302,-31.52714 25.16945,-24.91488 -4.90449,-13.53797 10.02652,-30.00659 25.16946,-25.04198 -2.5864,-16.652053 9.61494,-28.252715 25.16945,-25.296238 -0.88066,-11.78886 3.73331,-17.836499 9.66362,-21.660904 1.88902,-23.423639 2.17826,-50.938249 2.17732,-64.93181154 -7.67091,-0.0222477 -21.84263,-0.0288733 -29.51539,0.0113057 -1.91386,3.8681102 -12.63915,8.4377438 -18.80854,4.0826545 4.56775,13.1672463 -5.46434,30.2182713 -25.04235,25.4233453 5.67575,14.185541 -8.691,32.251781 -25.16945,24.914879 6.83882,11.672357 -8.86328,32.212291 -25.29657,25.041995 6.47345,13.572651 -7.5552,32.251304 -24.78809,24.533534 5.49751,13.01324 -7.35748,32.01681 -24.7881,25.55045 2.14346,33.98656 -42.70505,33.0069 -40.42367,-0.63558 -15.92908,2.86089 -29.18529,-11.1386 -24.78809,-25.42334 -14.15403,3.96066 -30.41387,-8.007654 -24.7881,-24.914883 C 107.61376,84.879933 93.841416,66.865922 100.42388,54.533983 85.992074,59.9327 70.06166,45.981451 75.254421,29.491988 56.522183,32.538415 46.223952,19.021781 50.084969,4.449993 45.288211,5.8025579 38.148813,4.8591591 31.641612,0.99956338 22.169651,0.91904215 11.051207,1.0099428 0.99301715,0.98439268 z"
     id="path4208"
     style="fill:#ececec;fill-opacity:1;stroke:none" />
</svg>
