<?xml version="1.0" encoding="UTF-8" standalone="no"?>
<!-- Created with Inkscape (http://www.inkscape.org/) -->

<svg
 xmlns:dc="http://purl.org/dc/elements/1.1/"
 xmlns:cc="http://creativecommons.org/ns#"
 xmlns:rdf="http://www.w3.org/1999/02/22-rdf-syntax-ns#"
 xmlns:svg="http://www.w3.org/2000/svg"
 xmlns="http://www.w3.org/2000/svg"
 xmlns:xlink="http://www.w3.org/1999/xlink"
 version="1.1"
 width="390"
 height="480"
 id="svg4228">
<metadata
 id="metadata37">
<rdf:RDF>
<cc:Work
 rdf:about="">
<dc:format>image/svg+xml</dc:format>
<dc:type
 rdf:resource="http://purl.org/dc/dcmitype/StillImage" />
<dc:title></dc:title>
</cc:Work>
</rdf:RDF>
</metadata>
<defs
 id="defs4232" />
<path
 d="M 1.0257478,1.0383706 389.26463,1.0268754 C 389.24981,269.91065 389.2456,273.8771 389.2456,273.88922 390.24128,547.35265 1.032342,547.35827 1.0290412,273.88847 L 1.0257478,1.0383706 z"
 id="path2902"
 style="fill:#155ba6;fill-opacity:1;stroke:#000000;stroke-width:2.00517678;stroke-miterlimit:4;stroke-opacity:1;stroke-dasharray:none" />
<path
 d="m 110.64082,156.23311 c 2.57269,-5.37178 14.82747,-9.81876 17.81817,-9.54885 -0.0751,-5.36254 -5.93124,-4.08195 -8.42877,-6.28212 -3.81842,8.48133 -11.50173,4.58605 -10.9698,11.71617 0.0859,1.15173 0.63873,2.74321 1.5804,4.1148 z"
 id="path3656"
 style="fill:#f2f2f2;stroke:none" />
<path
 d="m 130.10137,145.96183 48.99223,-0.0629 c 6.53802,-0.008 13.03685,1.5566 19.57075,1.32109 8.13326,-0.29314 24.18449,-3.39419 24.18449,-3.39419 16.73776,-2.34908 28.12733,11.26745 38.38988,2.63849 -4.83931,-3.8544 -4.22657,0.24593 -6.5341,0.40834 0.23543,-1.48277 1.00222,-4.44406 0.0673,-5.81897 0.51761,0.52465 -4.09691,2.56775 -5.42824,2.6465 -0.0745,0.004 2.64023,-3.08224 1.17755,-3.8007 -2.37491,1.70473 -6.22402,3.25848 -9.04853,2.79555 -0.26413,-0.0433 -10.34094,-2.08237 -11.52758,-2.79609 -6.35837,-3.82431 11.7128,-11.78613 33.31223,1.28784 1.88947,-9.06502 -3.19185,-22.71979 -12.64315,-29.08573 -8.50755,5.54611 -18.73368,-0.8956 -28.56042,-0.73671 -6.80448,9.96319 -11.77818,19.42849 -25.5918,20.89031 -5.43007,0.57464 -8.69844,-2.7428 -12.53423,-6.33287 -0.47612,-0.44561 0.48667,-1.86524 1.23952,-0.94232 2.35737,2.88999 6.99914,5.89176 12.01094,5.26399 10.75499,-1.34715 14.72597,-6.98977 20.17417,-14.94925 14.13244,-20.646558 34.65196,-34.085405 53.34213,-49.555226 L 254.92157,55.122162 c -22.48,14.843638 -56.91137,40.386936 -78.49293,67.909828 -0.57666,0.73541 -2.26743,-0.37247 -1.36348,-1.28783 18.81515,-19.0526 20.95847,-26.786131 79.63948,-68.443815 23.56662,15.856393 49.54272,33.859804 68.62861,51.420955 23.87615,21.96873 40.40151,41.55236 50.36581,42.55972 0.89175,0.0901 4.41861,-0.52794 2.47906,-3.26671 C 340.69708,93.91332 316.74608,69.90478 293.50177,48.27469 l -44.25105,0 c -28.56615,17.484228 -55.5361,32.03609 -82.55237,65.20852 1.03563,-2.71474 1.34625,-4.0895 2.23114,-5.96802 -15.75902,10.55356 -46.23446,10.57447 -48.16747,31.47347 2.61672,2.59058 8.19935,0.76029 9.33935,6.97317 z"
 id="path3658"
 style="fill:#f2f2f2;stroke:none" />
<path
 d="M 172.28614,103.71475 193.23392,83.991657 C 179.56328,73.174447 168.19839,61.41757 152.82836,51.031 140.89083,42.964001 120.04814,47.003463 114.00044,47.12192 113.6395,46.115633 51.841677,88.789502 12.283852,134.07684 c -2.283672,2.61957 -0.195276,4.79997 0.395888,5.61922 20.631384,-23.41118 61.092623,-56.827648 104.91425,-86.443991 21.96187,16.075685 39.17287,36.172021 54.69215,50.462681 z"
 id="path3660"
 style="fill:#f2f2f2;stroke:none" />
<path
 d="m 117.72546,54.540289 13.9798,11.416292 C 98.75386,91.673328 51.343084,120.01568 15.922703,137.9192 31.825765,117.6482 89.037116,73.347147 117.72546,54.540289 z"
 id="path3662"
 style="fill:#f2f2f2;stroke:none" />
<path
 d="m 251.69492,111.44406 c 0.30677,0.13327 4.33416,3.58289 4.33416,3.58289 l 8.89312,-3.17993 c -1.37151,-2.86581 -6.01743,-5.5487 -7.26725,-5.33372 l -5.96003,4.93076 z"
 id="path3664"
 style="fill:#f2f2f2;stroke:none" />
<path
 d="m 256.88803,116.15952 c 0.34272,-0.049 3.62728,4.84872 3.54974,5.24172 l 9.64124,-1.73242 c 5.4e-4,-2.12409 -2.13643,-5.38907 -4.33856,-6.48553 l -8.85242,2.97623 z"
 id="path3664-1"
 style="fill:#f2f2f2;stroke:none" />
<path
 d="m 261.27042,122.64504 c 0.66992,0.96451 2.39551,5.56766 2.19119,5.77477 l 13.76068,-0.31095 c -0.58377,-2.63539 -3.03581,-6.47868 -5.34651,-7.46278 l -10.60536,1.99896 z"
 id="path3664-4"
 style="fill:#f2f2f2;stroke:none" />
<path
 d="m 264.11897,129.8413 c 0.35059,1.33264 0.9203,6.04131 0.9203,6.04131 l 18.05543,0.53305 c -0.10062,-3.17676 -3.83375,-5.85649 -5.3027,-6.70762 l -13.67303,0.13326 z"
 id="path3664-9"
 style="fill:#f2f2f2;stroke:none" />
<path
 d="m 264.77633,141.43527 23.05133,7.01859 c -0.40739,-3.44329 -3.39551,-9.72115 -5.08357,-10.26134 l -17.44189,-0.75521 c 0.0742,1.23924 -0.21851,2.80775 -0.52587,3.99796 z"
 id="path3664-8"
 style="fill:#f2f2f2;stroke:none" />
<path
 d="m 139.47968,134.33505 c -3.91238,0.79167 -6.49678,0.12584 -6.56948,2.95261 -0.0727,2.82676 7.04394,4.3285 6.56948,-2.95261 z"
 id="path3728"
 style="fill:#155ba6;fill-opacity:1;stroke:none" />
<use
 transform="translate(0,134)"
 id="use3014"
 x="0"
 y="0"
 width="390"
 height="480"
 xlink:href="#path3656" />
<use
 transform="translate(0,134)"
 id="use3016"
 x="0"
 y="0"
 width="390"
 height="480"
 xlink:href="#path3658" />
<use
 transform="translate(0,134)"
 id="use3018"
 x="0"
 y="0"
 width="390"
 height="480"
 xlink:href="#path3660" />
<use
 transform="translate(0,134)"
 id="use3020"
 x="0"
 y="0"
 width="390"
 height="480"
 xlink:href="#path3662" />
<use
 transform="translate(0,134)"
 id="use3022"
 x="0"
 y="0"
 width="390"
 height="480"
 xlink:href="#path3664" />
<use
 transform="translate(0,134)"
 id="use3024"
 x="0"
 y="0"
 width="390"
 height="480"
 xlink:href="#path3664-1" />
<use
 transform="translate(0,134)"
 id="use3026"
 x="0"
 y="0"
 width="390"
 height="480"
 xlink:href="#path3664-4" />
<use
 transform="translate(0,134)"
 id="use3028"
 x="0"
 y="0"
 width="390"
 height="480"
 xlink:href="#path3664-9" />
<use
 transform="translate(0,134)"
 id="use3030"
 x="0"
 y="0"
 width="390"
 height="480"
 xlink:href="#path3664-8" />
<use
 transform="translate(0,134)"
 id="use3032"
 x="0"
 y="0"
 width="390"
 height="480"
 xlink:href="#path3728" />
<use
 transform="matrix(0.81189146,0,0,0.81189146,36.492298,281.02131)"
 id="use3034"
 x="0"
 y="0"
 width="390"
 height="480"
 xlink:href="#path3656" />
<use
 transform="matrix(0.81189146,0,0,0.81189146,36.492298,281.02131)"
 id="use3036"
 x="0"
 y="0"
 width="390"
 height="480"
 xlink:href="#path3658" />
<use
 transform="matrix(0.81189146,0,0,0.81189146,36.492298,281.02131)"
 id="use3038"
 x="0"
 y="0"
 width="390"
 height="480"
 xlink:href="#path3660" />
<use
 transform="matrix(0.81189146,0,0,0.81189146,36.492298,281.02131)"
 id="use3040"
 x="0"
 y="0"
 width="390"
 height="480"
 xlink:href="#path3662" />
<use
 transform="matrix(0.81189146,0,0,0.81189146,36.492298,281.02131)"
 id="use3042"
 x="0"
 y="0"
 width="390"
 height="480"
 xlink:href="#path3664" />
<use
 transform="matrix(0.81189146,0,0,0.81189146,36.492298,281.02131)"
 id="use3044"
 x="0"
 y="0"
 width="390"
 height="480"
 xlink:href="#path3664-1" />
<use
 transform="matrix(0.81189146,0,0,0.81189146,36.492298,281.02131)"
 id="use3046"
 x="0"
 y="0"
 width="390"
 height="480"
 xlink:href="#path3664-4" />
<use
 transform="matrix(0.81189146,0,0,0.81189146,36.492298,281.02131)"
 id="use3048"
 x="0"
 y="0"
 width="390"
 height="480"
 xlink:href="#path3664-9" />
<use
 transform="matrix(0.81189146,0,0,0.81189146,36.492298,281.02131)"
 id="use3050"
 x="0"
 y="0"
 width="390"
 height="480"
 xlink:href="#path3664-8" />
<use
 transform="matrix(0.81189146,0,0,0.81189146,36.492298,281.02131)"
 id="use3052"
 x="0"
 y="0"
 width="390"
 height="480"
 xlink:href="#path3728" />
</svg>
