<?xml version="1.0" encoding="UTF-8" standalone="no"?>
<!-- Created with Inkscape (http://www.inkscape.org/) -->

<svg
   xmlns:svg="http://www.w3.org/2000/svg"
   xmlns="http://www.w3.org/2000/svg"
   version="1.1"
   width="390"
   height="480"
   id="svg4228">
  <defs
     id="defs4232" />
  <path
     d="M 0,0 C 130,0 260,0 390,0 389.98981,114.99797 370.78556,350.14732 194.88837,479.99815 20.79131,350.08886 0.081386,115.02225 0,0 z"
     id="path4240-0"
     style="fill:#008c31;fill-opacity:1;stroke:none" />
  <path
     d="m 192.25681,9.45525 c -8.79558,2.098568 -8.6132,15.754975 -12.72374,11.673155 -3.57529,4.587547 0.80452,12.85359 -2.72886,8.359283 -6.32334,4.570328 -2.06759,17.186124 -6.60333,10.400247 -6.56405,3.642833 -3.99065,17.171541 -8.07735,9.953349 -4.53736,2.559173 -2.87136,10.578462 -7.40043,6.403053 -3.23977,1.714891 2.0648,13.248043 -5.01257,8.684471 -2.88003,4.167846 1.68653,13.38362 -3.7769,10.617119 -3.15041,4.347014 3.06888,13.946794 -2.91485,11.040552 -2.78404,6.789624 0.99825,23.890291 13.3151,25.773021 10.69283,1.6236 32.57468,3.47128 32.16292,13.06505 -0.57154,13.31672 -0.88967,24.27382 0.19341,37.61552 0.40321,4.96688 -3.56182,4.39179 -6.60334,2.14609 -23.01565,-16.99355 -45.45181,-38.0754 -57.76741,-52.87157 -3.72125,-4.47078 -2.13441,-10.34417 0.97876,-13.161752 15.24217,-13.794963 7.3642,-32.368276 -3.79691,-39.289824 -1.90261,7.216053 -6.16682,-4.289381 -11.886,-4.457249 1.71547,6.852464 -8.53509,-5.853215 -14.857498,-7.098582 0.852758,6.167586 -8.386317,-1.60866 -15.691209,-2.351222 1.138802,4.564291 -7.246654,1.22165 -11.307494,0.893796 2.803762,6.941044 -7.54691,-0.07725 -13.108243,-0.06838 1.419908,5.584802 -4.626105,0.982782 -8.204094,0.942147 2.194199,6.293546 -9.480456,-1.024931 -14.750779,-2.057675 -1.063876,6.738402 10.670822,19.388477 3.136582,18.48933 -0.800766,6.838513 12.297047,15.252901 4.622333,16.838496 -0.546886,2.866101 8.055847,8.764264 2.146082,9.409748 -0.358739,3.521776 9.380231,9.144719 3.136583,10.565327 -0.06939,4.12481 13.839512,13.25291 5.942999,14.52733 -0.278631,2.08762 9.116634,4.82214 3.961999,5.943 -0.33622,2.77637 11.403864,4.46503 5.117582,7.26367 1.614604,2.00971 8.568815,1.49338 6.438249,3.79691 5.913175,5.32776 22.948074,3.75768 30.867139,-3.14832 5.456319,-4.7583 9.068539,-15.50163 24.149089,-7.68365 14.30449,7.41566 24.59873,19.27165 38.12737,32.01756 1.83314,1.72708 -4.10239,3.27983 -4.65895,9.85007 -0.38096,4.49727 0.30624,8.9145 0.9905,13.37175 -3.00472,3.37199 -5.0467,11.58209 -0.41271,8.74941 -4.37791,6.33178 -2.80783,8.63205 0.0825,8.41925 -4.31151,1.89244 -4.26964,7.36176 -0.66033,7.26367 -2.18629,4.54955 -1.47303,6.86869 2.06354,7.01604 -2.1028,0.013 -6.05861,8.17778 0.90796,7.67637 -5.33789,4.07507 -1.90822,11.4439 2.15509,12.11482 2.58176,0.42629 9.08977,-8.62457 2.21961,-12.11482 6.61997,1.58031 4.31426,-6.30253 0,-8.25417 -1.95889,-0.88614 2.72779,1.04427 3.79698,-0.15605 1.06919,-1.20031 1.14963,-5.06107 -3.91547,-7.80373 1.95083,0.44888 3.29337,0.75163 3.66774,0.0358 1.23158,-2.35496 0.77632,-5.42597 -3.59037,-8.18444 1.35718,1.30293 4.08439,1.4176 4.58093,0.34299 1.08561,-2.34948 -0.24504,-5.47611 -5.28791,-7.88298 8.8568,1.93194 1.2841,-7.4327 -2.38847,-9.03808 -3.8624,-9.64987 -1.567,-17.70796 6.60333,-15.18766 l 13.20667,9.82246 c -2.5513,3.77122 -6.97841,-1.54415 -6.60333,2.79225 0.52195,6.03443 15.49764,9.11307 15.43528,15.61453 0,0 -0.44301,45.89313 -0.66033,68.83974 -0.0684,7.22222 -4.61864,8.62356 -7.75891,5.77791 -14.13777,-12.8114 -35.29957,-33.92866 -38.95966,-41.93115 -2.21044,-4.83295 -3.59913,-9.84025 -0.9905,-13.53683 7.68881,-10.8955 13.47986,-23.87477 4.78741,-32.6865 -12.37656,-12.54639 -16.68838,-15.64649 -27.00528,-16.2783 1.83385,6.7696 -5.53956,-1.72219 -13.44013,-1.79832 1.72632,6.64104 -3.866826,-1.42128 -15.062629,-1.23012 0.909913,5.31458 -4.233889,-1.02376 -9.227066,-1.30065 0.52982,4.41047 -2.724411,-0.85243 -8.487628,-0.56362 0.810787,4.52258 -4.793376,-2.08119 -10.106702,-1.19808 1.552106,5.46237 -13.569593,-2.96746 -21.003204,-1.07303 2.289008,12.88921 23.370804,20.65978 12.238621,21.91946 3.135821,12.37644 14.793282,17.86409 6.580875,20.42441 2.002647,8.92136 9.85205,10.84039 3.054041,12.54632 1.223901,6.12085 8.162209,11.44993 2.393707,12.13362 0.478452,7.76471 12.358253,8.74657 6.108082,11.22567 2.003677,7.34092 19.648438,11.43429 10.812956,14.11461 8.027386,11.29171 24.553947,4.58143 27.486367,1.5683 8.84574,-7.82605 19.27843,-28.84266 31.47426,-15.77132 l 42.25789,49.57334 c 5.92418,6.94975 4.51733,9.48018 4.51733,15.06264 0,0 -0.70039,52.05266 0,61.90623 0.70039,9.85357 -5.45456,6.70207 -6.93349,4.62233 L 169.04526,345.6219 c -7.28785,-10.24852 22.47621,-30.84069 5.44775,-40.44541 -2.23912,3.7924 -3.06563,-8.63656 -7.09858,-10.07008 -2.07435,3.71981 -2.04457,-2.5577 -5.44775,-5.28267 -1.34996,2.89165 -4.98964,-5.23772 -8.74941,-6.27316 1.60288,6.48861 -11.82547,-2.16257 -18.65441,-0.49525 -1.15124,5.50099 -3.50451,-2.76569 -7.924,-3.13658 -2.6234,5.1619 -8.33897,-1.40245 -13.61665,-1.2623 -2.21265,7.98114 -8.27743,-3.927 -13.116538,-2.02935 1.102818,6.08915 -8.534275,-2.00634 -16.601891,-1.72923 -0.601568,9.60854 19.501179,13.84414 7.181835,15.75129 1.289904,3.35463 13.198494,9.50045 4.787416,9.57483 -0.228505,3.42174 9.909748,10.77143 2.641332,9.73992 0.555901,5.16975 8.577716,14.08011 1.48575,12.05108 0.521049,4.97154 9.212586,13.36792 3.136586,13.04158 0.30263,4.23428 6.80184,11.22723 0.82541,9.40974 0.48434,2.03405 6.27708,6.03967 1.65084,5.44775 1.0803,3.02845 11.83913,6.78684 5.11758,8.25417 5.23059,8.01626 21.00441,19.93404 34.50241,6.60333 5.78164,-5.70998 16.31692,-21.09151 20.14016,-14.03208 l 10.97804,14.2797 c -6.57132,1.62289 -9.64811,6.20269 -10.15262,12.95904 -8.66853,6.836 -4.66732,11.59952 -1.96927,9.69986 -0.88454,0.43125 -5.13885,7.99739 -0.58953,7.88151 -1.48855,-0.39092 -4.65644,6.52657 0.66034,6.52079 -2.87353,0.23693 -2.45583,6.76929 0.16508,4.9525 -3.42389,1.92379 -3.33281,7.91832 0.0825,6.68588 -6.23333,11.97053 12.62533,14.48356 6.10808,0.49525 2.51318,1.55015 4.77903,-2.97721 -0.74287,-6.52079 3.44945,2.04073 3.97594,-2.97897 0.16508,-5.53029 2.35091,1.76441 6.63018,-1.79583 0.41271,-6.68588 3.76074,3.23912 4.9736,-5.86765 0.24763,-7.84145 2.5264,1.50306 5.65033,-4.20387 -0.66034,-8.66688 -1.4061,-6.30518 2.56624,-14.10014 10.8955,-7.09858 8.83714,7.42849 11.37129,19.48536 8.95698,36.10489 -0.79314,5.45982 -2.0106,10.72765 -2.05767,16.14984 4.00236,-0.61959 7.2761,0.33952 10.35189,1.72751 3.03458,1.3694 5.36774,5.42321 7.14694,9.04467 6.80487,-14.02612 -1.94838,-25.57054 0.33017,-45.27287 0.29062,-2.52785 6.31989,-4.99414 8.7311,-8.91621 1.79867,-2.92571 -2.69193,-2.71245 -4.65237,-3.72025 -3.99266,-1.75629 18.35485,-17.85432 14.73247,-0.55362 -4.70161,2.6253 -7.466,10.909 -1.36073,10.29354 -3.91876,2.39793 -4.7686,8.42168 0.16509,8.00654 -2.65165,3.25192 -5.54756,10.71195 1.1656,10.16092 -4.23447,1.21083 -7.92117,11.73031 -0.50527,10.47449 -9.57587,9.9074 13.79837,15.68119 5.53029,-1.32067 4.21397,1.34528 6.31461,-4.22819 -0.82542,-9.73991 4.98037,2.7644 7.50793,-4.67347 0.41271,-8.66687 5.11437,1.89109 7.12421,-3.7676 0.49525,-8.66688 5.91648,1.0117 4.29812,-7.0466 -0.57779,-9.40974 -3.93007,-4.0526 -0.79964,-10.38084 -8.74942,-12.21617 -1.68065,-6.63872 6.72981,-15.95428 16.41406,-20.99219 6.65626,-3.4627 13.84631,17.46037 34.01889,11.4999 7.04113,-2.08047 13.87889,-6.60169 15.65975,-14.0421 -10.29635,-0.44723 0.93694,-4.0775 1.70576,-11.43738 -7.9494,2.13672 0.95474,-5.35299 1.61907,-11.49918 -7.23288,-0.10286 2.66203,-5.67709 3.13658,-9.90499 -7.25215,-1.23382 1.63875,-4.9599 1.74078,-9.42059 -5.97024,0.98573 1.19338,-5.24949 0.60215,-9.86269 -10.23426,0.95626 2.60957,-20.99705 2.60957,-20.99705 -5.29325,0.16294 -11.30723,7.09876 -10.73041,1.48575 -4.17405,1.22251 -9.85412,10.09566 -9.80658,3.26161 -7.19856,-0.95384 -18.6712,11.00234 -15.78133,3.01156 -6.62314,-0.0417 -18.55067,11.27782 -17.16867,3.46675 -6.82735,1.9735 -9.65493,10.59708 -10.2034,2.43619 -5.89804,0.90106 -6.72967,13.36095 -8.78117,5.65289 -8.01432,2.83034 -19.42722,18.79495 -11.39075,30.37532 5.20573,7.50133 20.68653,15.13313 13.70191,23.772 l -18.81949,23.27674 c -8.88617,10.99079 -4.03373,-52.9256 -5.77792,-79.40506 -0.73111,-11.09925 3.86059,-15.97087 8.9145,-21.95608 13.25461,-15.69709 25.95423,-33.20683 41.60099,-43.41691 5.70354,-3.72177 9.10554,-3.36731 11.84109,-0.84645 8.59536,7.92078 18.67392,24.19015 36.03306,14.87853 -10.82875,-5.99709 7.47641,-4.16343 11.39075,-9.90499 -7.51108,-3.04974 5.09539,-6.65192 9.64493,-14.89584 -9.31335,-2.84789 2.50698,-7.80485 5.59109,-16.78327 -9.62588,-2.37647 1.93215,-7.85654 4.45896,-14.8319 -9.20278,-2.55617 4.99935,-12.635 6.51665,-18.77357 -8.12752,-4.74256 11.95928,-12.25703 10.76703,-21.8794 -8.28664,2.92338 -24.22066,10.54933 -22.28624,5.01744 -3.71438,-1.00965 -12.90117,6.38595 -11.14313,0.7192 -3.85972,-1.13167 -10.3149,6.42597 -10.15262,1.19685 -4.04296,-0.79 -12.41886,5.40716 -11.55583,0.49525 -5.77092,-0.86805 -12.16571,7.24057 -13.70191,0.9905 -4.16995,0.62642 -8.12026,6.58668 -8.06562,1.93752 -4.54697,0.40452 -6.88981,9.301 -7.44048,3.30509 -7.4056,-0.31378 -11.67766,14.21188 -13.79619,7.59262 -11.81815,3.27107 -13.13866,23.91392 -4.20962,37.35009 3.48663,5.24658 9.22663,12.6596 0.49525,21.29575 l -34.83258,34.66749 c 0.57904,-1.82392 1.13278,-5.39489 -0.39683,-5.27265 -3.79475,0.30326 -5.93136,7.96901 -8.51767,12.04107 -3.87748,6.10497 -5.69859,-2.41679 -5.61283,-7.75892 0.30882,-19.23617 -2.28573,-37.63048 -0.1934,-57.71563 0.80847,-7.76092 8.17148,-15.59226 15.87631,-20.69893 1.89453,-1.25567 0.11495,-2.79314 -3.45845,-2.66709 l 5.43945,-12.68566 c 5.83665,-5.69675 9.74701,9.47022 6.29491,13.7886 -1.14736,1.85641 -4.89467,3.99414 -4.80342,8.14128 0.0533,2.42295 0.99043,1.72887 3.20237,1.74318 0.96712,0.006 -4.09461,-0.745 -3.73065,5.63758 0.15814,2.77333 0.38873,3.14285 2.97607,3.12252 1.39084,-0.0109 -3.82794,-0.78719 -2.24037,6.80379 0.17621,0.84256 3.20805,1.04764 1.11747,1.31014 -1.76609,0.22176 -1.6602,2.66198 -1.11081,5.70306 0.30454,1.68577 2.96869,-0.73087 1.83748,0.95408 -0.55606,0.82827 -2.47407,0.91991 -1.80445,5.70885 0.39432,2.82007 4.17521,0.59563 3.00868,1.59895 -6.0766,5.22642 -0.99062,13.83724 5.55887,11.0324 4.78253,-2.04814 -2.32614,-11.4149 -1.71702,-10.87381 4.01238,3.56428 3.0653,-0.16971 3.36551,-1.14487 1.35642,-4.406 -3.7413,-6.99479 -0.87516,-5.94929 0.68513,0.24992 1.65707,-1.08679 1.66146,-1.48804 0.0649,-5.93481 -2.54931,-4.74256 -2.15912,-5.78902 0.58664,-1.57334 2.90056,4.40448 2.56394,-2.40585 -0.21112,-4.27134 -4.18794,-5.27524 -2.70103,-5.36933 1.67395,-0.10592 2.58486,0.32261 2.35093,-3.80174 -0.18877,-3.32813 -4.22338,-5.95555 -2.39081,-5.3244 1.50042,0.51676 3.93639,1.02261 3.71686,-2.12193 -0.28879,-4.13661 -3.89004,-7.71736 -4.38179,-7.57424 0.0643,-5.36889 1.11876,-12.61585 -5.77792,-18.32424 10.33281,-14.66229 26.17553,-30.49066 41.51602,-44.16908 15.7843,-14.074145 25.12646,43.42767 57.36888,11.15242 -6.39721,-4.03057 3.88532,-5.9958 8.18406,-14.00376 -6.43107,-3.64141 3.62548,-5.14958 4.94593,-9.864939 -5.31186,-3.99168 1.55619,-3.943206 2.84475,-10.912089 -4.49952,-1.127095 3.60654,-4.532909 3.96372,-9.67497 -7.35832,-3.067914 2.05491,-3.688868 3.64013,-12.554628 -7.23758,-2.056935 2.55937,-4.643963 2.09186,-9.105475 -5.71684,-1.120296 1.81795,-4.479426 3.52097,-7.334474 -5.66483,-2.856165 3.38744,-10.767875 7.86978,-13.053313 -7.10525,-2.220815 -14.2655,8.164134 -15.43529,1.320667 -2.59401,0.603108 -7.44991,6.910215 -7.18112,1.320666 -3.65458,-2.139135 -13.40195,9.721707 -11.47329,0.330167 -6.19107,-2.471746 -12.78973,4.426443 -11.72091,-1.238125 -3.60167,-0.768874 -13.30424,7.443212 -10.48279,0.165083 -4.06286,-1.860154 -16.68487,6.909203 -15.10513,0.08254 -4.78927,-2.204378 -16.44637,10.132908 -14.69241,3.796916 -4.97272,0.653883 -11.2855,11.113437 -11.30821,3.796916 -12.05196,5.280697 -17.34039,29.517443 -1.73337,46.718572 5.49666,6.058091 7.57078,9.45088 -5.77792,22.121166 -15.52883,14.73961 -30.2398,29.32658 -44.90265,50.84565 -0.24891,-3.66671 -3.40046,-2.58699 -4.62234,-0.9905 -1.20443,1.57368 -2.13599,3.36565 -1.48575,8.9145 -4.39546,-3.9785 -6.00738,-8.9968 -6.43824,-14.36225 -0.92769,-11.55246 -0.70176,-20.95197 -0.16509,-30.54041 0.78172,-13.96674 38.58592,-1.07863 39.28983,-21.62591 -2.53388,-9.207328 3.34921,-20.113316 0.16508,-24.019619 -5.17212,1.265274 1.21385,-5.842388 -2.39371,-8.089081 -3.96771,2.128692 -0.32803,-5.787442 -2.39371,-7.01604 -5.02728,6.119535 -1.27556,-6.327212 -5.28266,-7.593832 -6.05203,4.538433 -3.44252,-7.595721 -5.943,-9.739914 -7.27593,3.54783 -2.28268,-6.646937 -6.43825,-7.923998 -4.49271,4.390876 -0.87715,-6.59147 -4.12708,-8.254165 -5.22172,4.45742 -3.6613,-8.992534 -7.75892,-11.720915 -3.25954,2.611995 -7.57158,-4.014355 -5.84314,-10.127436 l 7e-5,0 0,2e-5 0,-2e-5 0,3e-4 z"
     id="path3775"
     style="fill:#ececec;stroke:none" />
  <path
     d="m 130.08564,289.82404 c 4.55505,28.63899 -5.16094,30.79032 -23.44183,30.87058"
     id="path3087"
     style="fill:none;stroke:#008c31;stroke-width:0.80000001;stroke-linecap:round;stroke-linejoin:miter;stroke-miterlimit:4;stroke-opacity:1;stroke-dasharray:none" />
  <path
     d="m 166.40396,307.81812 c 2.50266,14.58192 -8.44355,19.69022 -9.3272,30.87058"
     id="path3089"
     style="fill:none;stroke:#008c31;stroke-width:0.80000001;stroke-linecap:round;stroke-linejoin:miter;stroke-miterlimit:4;stroke-opacity:1;stroke-dasharray:none" />
  <path
     d="m 156.99422,338.6887 c -10.22956,7.01687 -15.79134,21.81388 -29.05466,21.95607"
     id="path3091"
     style="fill:none;stroke:#008c31;stroke-width:0.80000001;stroke-linecap:round;stroke-linejoin:miter;stroke-miterlimit:4;stroke-opacity:1;stroke-dasharray:none" />
  <path
     d="M 159.96572,344.30153 C 154.22391,329.1758 121.19653,314.94219 98.059477,285.53187"
     id="path3093"
     style="fill:none;stroke:#008c31;stroke-width:0.80000001;stroke-linecap:round;stroke-linejoin:miter;stroke-miterlimit:4;stroke-opacity:1;stroke-dasharray:none" />
  <path
     d="m 282.12735,280.74446 c -7.32696,17.71991 -33.2918,34.77755 -47.21382,56.12832"
     id="path3095"
     style="fill:none;stroke:#008c31;stroke-width:0.80000001;stroke-linecap:round;stroke-linejoin:miter;stroke-miterlimit:4;stroke-opacity:1;stroke-dasharray:none" />
  <path
     d="m 226.65936,299.89412 c -0.0274,31.26278 24.24328,43.11537 41.43592,40.11525"
     id="path3097"
     style="fill:none;stroke:#008c31;stroke-width:0.80000001;stroke-linecap:round;stroke-linejoin:miter;stroke-miterlimit:4;stroke-opacity:1;stroke-dasharray:none" />
  <path
     d="m 265.12377,283.71596 c -0.89513,4.84821 -4.39714,23.9515 17.00358,19.47983"
     id="path3099"
     style="fill:none;stroke:#008c31;stroke-width:0.80000001;stroke-linecap:round;stroke-linejoin:miter;stroke-miterlimit:4;stroke-opacity:1;stroke-dasharray:none" />
  <path
     d="m 255.05369,168.32274 c -7.18275,21.59597 21.11136,49.35841 37.80408,55.96324"
     id="path3101"
     style="fill:none;stroke:#008c31;stroke-width:0.80000001;stroke-linecap:round;stroke-linejoin:miter;stroke-miterlimit:4;stroke-opacity:1;stroke-dasharray:none" />
  <path
     d="m 257.52994,211.57456 c 17.20849,-20.26571 42.20435,-38.79935 74.1224,-59.92523"
     id="path3103"
     style="fill:none;stroke:#008c31;stroke-width:0.80000001;stroke-linecap:round;stroke-linejoin:miter;stroke-miterlimit:4;stroke-opacity:1;stroke-dasharray:none" />
  <path
     d="m 286.08935,154.78591 c -8.87725,30.31315 15.39946,35.57445 30.70549,28.55941"
     id="path3105"
     style="fill:none;stroke:#008c31;stroke-width:0.80000001;stroke-linecap:round;stroke-linejoin:miter;stroke-miterlimit:4;stroke-opacity:1;stroke-dasharray:none" />
  <path
     d="m 271.7271,55.405765 c -5.50748,27.883905 9.8164,50.964115 30.87058,52.001235"
     id="path3107"
     style="fill:none;stroke:#008c31;stroke-width:0.80000001;stroke-linecap:round;stroke-linejoin:miter;stroke-miterlimit:4;stroke-opacity:1;stroke-dasharray:none" />
  <path
     d="m 303.4231,45.830934 c -8.31058,23.90247 9.84207,28.214811 21.46083,29.219743"
     id="path3109"
     style="fill:none;stroke:#008c31;stroke-width:0.80000001;stroke-linecap:round;stroke-linejoin:miter;stroke-miterlimit:4;stroke-opacity:1;stroke-dasharray:none" />
  <path
     d="M 334.62384,45.830934 C 300.53972,62.214927 286.67703,84.663411 265.89741,101.60077"
     id="path3111"
     style="fill:none;stroke:#008c31;stroke-width:0.80000001;stroke-linecap:round;stroke-linejoin:miter;stroke-miterlimit:4;stroke-opacity:1;stroke-dasharray:none" />
  <path
     d="m 189.6807,31.468688 c 3.68708,27.091985 1.84004,56.048357 2.14609,84.192482"
     id="path3113"
     style="fill:none;stroke:#008c31;stroke-width:0.80000001;stroke-linecap:round;stroke-linejoin:miter;stroke-miterlimit:4;stroke-opacity:1;stroke-dasharray:none" />
  <path
     d="m 157.1593,95.190839 c 1.39962,5.082321 19.26496,6.977571 34.33394,6.113061 11.59458,-0.66519 25.31783,-0.43298 32.02954,-5.782894"
     id="path3115"
     style="fill:none;stroke:#008c31;stroke-width:0.80000001;stroke-linecap:round;stroke-linejoin:miter;stroke-miterlimit:4;stroke-opacity:1;stroke-dasharray:none" />
  <path
     d="m 169.70563,58.707431 c 0.012,10.966149 38.44383,15.630246 40.11524,-2.47625"
     id="path3117"
     style="fill:none;stroke:#008c31;stroke-width:0.80000001;stroke-linecap:round;stroke-linejoin:miter;stroke-miterlimit:4;stroke-opacity:1;stroke-dasharray:none" />
  <path
     d="m 79.239982,61.761472 c 2.854473,2.338132 10.83088,17.221588 4.333086,25.663923 -4.531313,5.887362 -21.09133,2.056006 -31.406747,7.270194"
     id="path3119"
     style="fill:none;stroke:#008c31;stroke-width:0.80000001;stroke-linecap:round;stroke-linejoin:miter;stroke-miterlimit:4;stroke-opacity:1;stroke-dasharray:none" />
  <path
     d="m 72.63665,123.08992 c 12.132309,-4.67268 28.68771,-7.01795 33.31254,-18.1984 3.83378,-9.26811 11.95932,-16.636778 11.09487,-32.812342"
     id="path3121"
     style="fill:none;stroke:#008c31;stroke-width:0.80000001;stroke-linecap:round;stroke-linejoin:miter;stroke-miterlimit:4;stroke-opacity:1;stroke-dasharray:none" />
  <path
     d="M 111.92647,110.3785 C 93.235674,90.378218 72.892135,85.591729 44.242323,55.570848"
     id="path3123"
     style="fill:none;stroke:#008c31;stroke-width:0.80000001;stroke-linecap:round;stroke-linejoin:miter;stroke-miterlimit:4;stroke-opacity:1;stroke-dasharray:none" />
  <path
     d="m 59.760153,164.69091 c 30.844132,31.39487 50.653067,30.98062 69.169897,52.66157"
     id="path3125"
     style="fill:none;stroke:#008c31;stroke-width:0.80000001;stroke-linecap:round;stroke-linejoin:miter;stroke-miterlimit:4;stroke-opacity:1;stroke-dasharray:none" />
  <path
     d="m 92.611729,165.68141 c 10.670981,31.66296 3.308875,33.55809 -23.771995,32.68649"
     id="path3127"
     style="fill:none;stroke:#008c31;stroke-width:0.80000001;stroke-linecap:round;stroke-linejoin:miter;stroke-miterlimit:4;stroke-opacity:1;stroke-dasharray:none" />
  <path
     d="m 93.437145,238.15297 c 21.402445,2.45671 48.188455,-56.2236 41.600995,-59.42998"
     id="path3129"
     style="fill:none;stroke:#008c31;stroke-width:0.80000001;stroke-linecap:round;stroke-linejoin:miter;stroke-miterlimit:4;stroke-opacity:1;stroke-dasharray:none" />
</svg>
