<?xml version="1.0" encoding="UTF-8" standalone="no"?>
<!-- Created with Inkscape (http://www.inkscape.org/) -->

<svg
   xmlns:svg="http://www.w3.org/2000/svg"
   xmlns="http://www.w3.org/2000/svg"
   version="1.1"
   width="390"
   height="480"
   id="svg4228">
  <defs
     id="defs4232" />
  <path
     d="M 0,0 C 130,0 260,0 390,0 389.98981,114.99797 370.78556,350.14732 194.88837,479.99815 20.79131,350.08886 0.081386,115.02225 0,0 z"
     id="path4240-0"
     style="color:#000000;fill:#207ebf;fill-opacity:1;fill-rule:nonzero;stroke:none;marker:none;visibility:visible;display:inline;overflow:visible;enable-background:accumulate" />
  <path
     d="m 320.11642,151.37369 c -15.07619,-2.00559 -26.51743,25.07596 -39.8662,26.04759 -4.17753,0.13151 -5.76082,7.3581 -3.40516,8.24333 31.4219,8.53542 29.69276,-29.51529 43.27136,-34.29092 z"
     id="path2836-7"
     style="fill:#ededed;fill-opacity:1;stroke:none" />
  <path
     d="m 167.90679,98.955404 -43.39325,47.880056 -10.06522,17.51541 c -3.82448,8.87997 -4.59306,19.21672 5.68607,28.15743 10.50991,6.02737 18.91619,12.35797 36.04823,16.2783 1.34909,-15.71751 -27.66593,-18.41133 -29.313,-36.10489 4.80645,15.12699 19.81839,17.82291 28.68443,27.07366 6.363,8.44717 9.04714,59.23433 17.11544,84.37817 1.35275,7.085 1.8125,14.05372 1.37385,21.6053 0.0265,-23.31449 -9.05465,-39.04039 -10.8955,-57.77915 -3.15818,-13.06747 -4.53362,-33.5275 -10.22197,-36.68001 -15.86542,-4.10099 -22.45583,-10.19276 -32.01932,-15.80818 -2.02486,9.09424 -0.26559,18.77593 3.28164,27.56061 3.50236,15.39344 11.81974,28.63991 11.62076,46.67022 -0.59518,16.7649 13.51868,30.36412 22.88164,44.78593 6.02236,9.73998 3.8835,23.80061 19.31475,28.55941 3.97626,1.2174 13.71198,-1.22581 13.7886,-8.98288 0.0217,-12.04195 -16.91648,-8.45346 -18.24585,-17.10028 4.22159,5.93304 14.15642,6.31423 17.99408,10.56533 0.69374,0.93759 7.08543,14.74045 -12.62058,17.88321 -0.13606,4.74612 3.70249,9.85743 15.26191,10.18095 8.95797,-0.36797 14.42926,-6.82853 15.91809,-10.93555 -2.31756,-0.2983 -15.18674,3.7252 -14.88925,-11.1756 0.79024,-14.22568 9.41128,-5.32524 18.69862,-14.53734 -1.49767,6.27616 -14.27148,5.32052 -15.9447,8.96286 -1.74044,3.89138 -3.61806,13.87194 5.29682,16.04726 5.89942,0.98751 10.18441,-2.54572 14.8575,-5.03504 6.21582,-3.13265 8.63013,-20.64392 14.45895,-26.36498 7.60753,-8.1416 18.54961,-26.58347 20.70379,-38.18259 l 14.03208,-50.68057 c 6.45421,-11.41889 4.24868,-21.39936 4.19194,-29.87404 -6.65216,6.00429 -9.65642,8.47821 -18.99431,12.44193 -6.75756,2.21155 -5.4051,1.97188 -17.8106,6.01473 -3.68263,1.36006 -4.86919,19.24301 -7.12533,28.43265 -3.1463,20.49474 -8.21937,31.00726 -12.93501,62.70822 2.85191,-40.12251 10.6608,-46.92858 10.83886,-67.76912 1.09654,-11.32061 4.52413,-26.42438 7.00187,-32.75487 5.06982,-12.59617 28.38291,-13.81541 30.04516,-30.04516 3.63586,14.97719 -30.01929,21.92619 -29.3648,34.42574 7.1516,-0.26845 33.82356,-2.82158 41.2508,-23.53024 1.9357,-8.35782 6.00305,-20.3997 -4.12708,-29.05465 L 225.72449,97.511824 c -5.09917,-4.347983 -21.78103,-5.921119 -31.89966,-5.583133 -11.1444,-0.07813 -18.88631,2.025417 -25.91804,7.026713 z"
     id="path2867"
     style="fill:#ededed;fill-opacity:1;stroke:none" />
  <path
     d="m 140.07746,205.9654 c 19.27578,-0.8597 21.76817,13.84856 21.20757,30.96883 -15.97226,2.15952 -28.20662,-17.64459 -21.20757,-30.96883 z"
     id="path3681"
     style="fill:#ededed;fill-opacity:1;stroke:#207ebf;stroke-width:1.70000005;stroke-linecap:butt;stroke-linejoin:miter;stroke-miterlimit:4;stroke-opacity:1;stroke-dasharray:none" />
  <path
     d="m 248.41897,206.69245 c -19.27579,-0.8597 -21.41464,14.55566 -20.85404,31.67594 15.97228,2.15952 27.85309,-18.35169 20.85404,-31.67594 z"
     id="path3681-4"
     style="fill:#ededed;fill-opacity:1;stroke:#207ebf;stroke-width:1.70000005;stroke-linecap:butt;stroke-linejoin:miter;stroke-miterlimit:4;stroke-opacity:1;stroke-dasharray:none" />
  <path
     d="m 148.47629,210.54916 c 9.86575,-1.30692 12.78507,16.39814 4.0856,18.79377 -6.2808,1.82512 -18.07936,-16.53081 -4.0856,-18.79377 z"
     id="path3792"
     style="fill:#ededed;fill-opacity:1;stroke:#207ebf;stroke-width:1.29999995;stroke-linecap:butt;stroke-linejoin:miter;stroke-miterlimit:4;stroke-opacity:1;stroke-dasharray:none" />
  <path
     d="m 149.41125,214.16857 c 5.62019,-0.75018 7.28323,9.41276 2.32743,10.78789 -3.57796,1.04763 -10.29921,-9.48892 -2.32743,-10.78789 z"
     id="path3792-9"
     style="fill:#207ebf;fill-opacity:1;stroke:none" />
  <path
     d="m 241.17322,210.98376 c -9.86575,-1.30692 -12.78507,16.39814 -4.0856,18.79377 6.2808,1.82512 18.07936,-16.53081 4.0856,-18.79377 z"
     id="path3792-8"
     style="fill:#ededed;fill-opacity:1;stroke:#207ebf;stroke-width:1.29999995;stroke-linecap:butt;stroke-linejoin:miter;stroke-miterlimit:4;stroke-opacity:1;stroke-dasharray:none" />
  <path
     d="m 240.36326,214.85317 c -5.62019,-0.75018 -7.28323,9.41276 -2.32743,10.78789 3.57796,1.04763 10.29921,-9.48892 2.32743,-10.78789 z"
     id="path3792-9-8"
     style="fill:#207ebf;fill-opacity:1;stroke:none" />
  <path
     d="m 270.34399,253.39401 c 35.41177,10.37751 58.75299,-49.05929 60.70039,-65.51556 1.53446,-16.88717 4.22209,-52.68482 -19.37743,-51.36187 -27.72349,2.5974 -28.48038,9.63141 -38.8716,20.66148 -6.23917,6.44047 -18.26658,-0.0904 -17.62646,-8.5214 -11.38813,10.05253 -19.06808,1.48247 -18.44358,-7.23735 -9.64878,4.20105 -17.67464,-0.18488 -15.64202,-14.00778 -8.41876,1.23418 -19.47275,-6.80587 -8.17121,-17.97666 -7.5197,-5.24464 0.61162,-13.467723 7.23736,-15.1751 -2.16387,-8.232441 3.3037,-10.404629 11.67315,-10.272374 0.31122,-4.134854 2.20015,-10.319855 11.90661,-7.937743 5.14567,-4.778967 5.934,-7.233671 16.10895,-4.435799 2.06621,-5.667084 8.8543,-7.939921 15.1751,-2.568093 4.37226,-4.023181 9.06659,-7.197281 16.80934,-2.334631 3.66977,-2.408255 10.18415,-4.45587 14.24125,1.867705 3.99118,-2.214488 10.55061,-3.261029 14.70817,4.902723 8.64985,-1.718868 11.76419,1.375753 13.30739,5.836577 5.5493,0.176481 9.39171,3.482264 11.20623,10.505837 6.9067,0.964913 10.1266,4.879263 7.70428,13.307398 7.81028,-0.3957 6.96671,9.00156 4.66926,12.14008 2.20476,1.38814 6.26458,5.25293 3.7354,12.37354 4.06222,3.91146 3.25703,10.28753 0.23347,11.67315 3.93602,8.05154 0.85163,10.48676 -1.16732,13.77432 5.46643,10.54011 0.14625,11.06408 -2.56809,14.00777 3.63073,4.01314 1.09902,10.23492 -2.56809,11.67315 3.86918,6.56068 -0.27919,11.52554 -3.26849,16.57588 2.77429,6.06029 0.13214,7.60687 -2.56809,9.10506 0.97981,5.10561 -1.1134,6.57947 -3.50195,7.70428 1.2331,5.47822 -0.53371,9.38506 -5.83657,11.43969 0.44596,3.72492 0.82689,7.41734 -4.20234,8.40467 -2.36677,8.72261 -4.21377,6.01043 -6.3035,8.63813 -0.0873,4.12126 -2.09284,6.14986 -5.60311,6.53696 -0.77725,6.33905 -3.89193,7.33541 -6.77043,8.8716 -2.82074,5.21617 -6.39794,4.38067 -9.80545,4.90272 -1.83977,2.54215 -3.92947,4.27202 -7.00389,2.80156 -4.12451,3.64627 -8.24903,2.53661 -12.37354,0 -3.43803,1.57592 -6.27544,-1.05248 -9.10506,-3.73541 -5.84529,-0.97237 -6.13618,-4.25908 -8.63813,-6.62451 z"
     id="path2830"
     style="fill:#ededed;fill-opacity:1;stroke:#207ebf;stroke-width:1.20000005;stroke-linecap:butt;stroke-linejoin:miter;stroke-miterlimit:4;stroke-opacity:1;stroke-dasharray:none" />
  <path
     d="m 119.07065,252.621 c -2.06178,4.68122 -6.57272,5.58665 -11.22566,6.27317 -0.74873,1.94673 -2.66573,1.90055 -5.28267,0.66033 -2.606733,1.94125 -7.228789,4.07946 -10.235171,-0.66033 -4.706468,2.41145 -7.995534,0.0825 -10.235164,-2.47625 -5.666131,0.71616 -8.979675,-3.41951 -9.409748,-6.76842 -4.612784,0.95736 -6.562983,-3.35766 -5.942999,-5.28266 -6.265786,1.98224 -8.502661,-4.55149 -7.758915,-7.59383 -3.29885,0.63868 -7.025914,-5.24577 -5.282665,-7.924 -4.200658,-0.63573 -8.111929,-5.06 -5.282666,-10.8955 -5.028662,0.41622 -5.239853,-4.44067 -3.136582,-6.9335 -3.023999,-0.9145 -6.877418,-2.11244 -3.961999,-8.74941 -3.017512,-4.45831 -8.285584,-8.09547 -3.631832,-15.35275 -5.288775,-0.53871 -4.453481,-5.48366 -3.301666,-8.58433 -2.885651,-4.35311 -4.247127,-9.27166 -0.165083,-14.85749 -5.502607,-3.0956 -5.299829,-9.29545 -2.146083,-13.53683 -5.730641,-6.07807 -3.085826,-10.18878 -0.825416,-13.20666 -4.396482,-6.10845 -1.305151,-12.04607 1.155583,-13.70191 -5.03326,-4.07331 0.101722,-9.54376 2.971499,-10.40025 -4.387774,-7.15221 0.362941,-12.07289 3.961998,-12.876501 -3.756046,-7.07863 3.138411,-10.137116 6.768415,-10.400247 -0.255737,-7.052979 6.077351,-11.858863 11.225664,-9.574831 1.117721,-4.927552 6.789219,-10.151006 12.381247,-6.768416 4.46226,-5.107319 10.749342,-11.000009 16.01308,-3.631833 4.486651,-4.209307 9.993932,-7.590754 16.838503,-0.330167 6.76888,-6.734774 13.88606,-3.694306 14.69241,0.165084 5.37201,-3.810288 11.99569,-4.224296 16.01307,3.961999 5.00999,-4.826312 12.15649,-1.208535 14.8575,4.9525 6.26385,-1.345128 11.3424,1.515736 12.54633,9.079581 4.69174,-1.679602 11.57757,0.671873 10.23516,9.574831 7.76737,0.86905 10.08171,8.38771 6.10809,12.71141 9.40697,9.13984 0.35826,21.03105 -7.59384,18.48933 2.15699,11.64676 -7.25823,15.65759 -13.20666,12.21617 -4.92187,5.40333 -11.74414,17.28014 -19.80999,8.08908 -2.97902,10.38962 -16.72591,10.11107 -22.12116,4.62233 -8.5435,-7.98258 -25.498758,-21.05646 -35.327828,-19.80999 -16.233191,2.25614 -21.211476,19.39414 -22.451328,39.95014 0.04176,23.70988 17.531355,86.67758 62.566576,79.57015 z"
     id="path2832"
     style="fill:#ededed;fill-opacity:1;stroke:#207ebf;stroke-width:1.20000005;stroke-linecap:butt;stroke-linejoin:miter;stroke-miterlimit:4;stroke-opacity:1;stroke-dasharray:none" />
  <path
     d="m 321.77177,152.72487 c -17.49144,-16.67291 -28.94893,0.7498 -44.00212,11.86557 -0.80999,4.56542 -1.16903,8.02838 1.01599,10.45928 8.5113,8.82661 22.71748,-23.96552 42.98607,-22.32485 l 6e-5,0 z"
     id="path2834-1"
     style="fill:#ededed;fill-opacity:1;stroke:#207ebf;stroke-width:1.00412297px;stroke-linecap:butt;stroke-linejoin:miter;stroke-opacity:1" />
  <path
     d="m 67.97604,154.29649 c 15.198366,-2.00559 26.732326,25.07596 40.18927,26.04759 4.21138,0.13151 5.8075,7.3581 3.43275,8.24333 -31.676533,8.53542 -29.93338,-29.51529 -43.62202,-34.29092 z"
     id="path2836-7-4"
     style="fill:#ededed;fill-opacity:1;stroke:none" />
  <path
     d="m 66.32069,155.64767 c 17.491444,-16.67291 28.948934,0.7498 44.00211,11.86557 0.80999,4.56542 1.16903,8.02838 -1.01599,10.45928 -8.5113,8.82661 -22.717466,-23.96552 -42.98606,-22.32485 l -6e-5,0 z"
     id="path2834-1-0"
     style="fill:#ededed;fill-opacity:1;stroke:#207ebf;stroke-width:1.00412297px;stroke-linecap:butt;stroke-linejoin:miter;stroke-opacity:1" />
  <path
     d="m 158.11658,154.03631 c -4.56093,5.40922 -7.17661,22.76388 8.16749,13.64175 0.79632,8.71276 9.11747,16.04335 15.09448,7.29054 10.21839,14.17329 21.90101,6.89921 24.86505,0.39051 6.42794,6.54866 12.06908,-2.21535 13.30096,-7.09218 13.18549,8.34239 16.63624,-16.0885 3.88331,-16.39015 17.79912,2.96626 0.15145,33.21599 -6.88716,6.94552 7.16681,18.11377 -10.49753,27.82571 -11.73152,7.99611 5.61187,21.42847 -26.93897,19.80923 -22.82101,-0.58365 1.33763,21.80571 -22.82903,11.31337 -12.08172,-6.07005 -8.40574,18.51814 -21.94978,8.3536 -11.78988,-6.1284 z"
     id="path2840"
     style="fill:#207ebf;fill-opacity:1;stroke:#207ebf;stroke-width:1px;stroke-linecap:butt;stroke-linejoin:round;stroke-opacity:1" />
  <path
     d="m 0,0 c 130,0 260,0 390,0 -0.003,31.067949 -1.4064,70.905371 -6.92223,115.06681 C 196.90035,111.32493 52.400969,156.49516 27.784699,219.14025 7.7108461,147.87681 1.1489901,73.779345 0,0 z"
     id="path4240-0-3"
     style="opacity:0.12000002;fill:#ffffff;fill-opacity:1;stroke:none" />
</svg>
