<?xml version="1.0" encoding="UTF-8" standalone="no"?>
<!-- Created with Inkscape (http://www.inkscape.org/) -->

<svg
   xmlns:svg="http://www.w3.org/2000/svg"
   xmlns="http://www.w3.org/2000/svg"
   version="1.1"
   width="420"
   height="480"
   id="svg4228">
  <defs
     id="defs4232" />
  <path
     d="M 0,0 C 139.98032,0 279.96064,0 419.94096,0 419.92998,114.99797 399.25139,350.14732 209.85028,479.99815 22.387494,350.08886 0.08763414,115.02225 0,0 z"
     id="path4240-0"
     style="color:#000000;fill:#207ebf;fill-opacity:1;fill-rule:nonzero;stroke:none;marker:none;visibility:visible;display:inline;overflow:visible;enable-background:accumulate" />
  <path
     d="m 154.78234,38.763793 a 26.381326,26.147863 0 0 1 -52.76265,0 26.381326,26.147863 0 1 1 52.76265,0 z"
     id="path2849"
     style="opacity:0.98999999;fill:#ececec;fill-opacity:1;fill-rule:evenodd;stroke:none" />
  <path
     d="m 73.05456,40.199101 a 26.381325,26.147862 0 0 1 -52.76265,0 26.381325,26.147862 0 1 1 52.76265,0 z"
     id="path2849-1"
     style="opacity:0.98999999;fill:#ececec;fill-opacity:1;fill-rule:evenodd;stroke:none" />
  <path
     d="m 235.22336,39.519768 a 26.381325,26.147862 0 0 1 -52.76265,0 26.381325,26.147862 0 1 1 52.76265,0 z"
     id="path2849-4"
     style="opacity:0.98999999;fill:#ececec;fill-opacity:1;fill-rule:evenodd;stroke:none" />
  <path
     d="m 316.13317,39.519767 a 26.381325,26.147862 0 0 1 -52.76265,0 26.381325,26.147862 0 1 1 52.76265,0 z"
     id="path2849-9"
     style="opacity:0.98999999;fill:#ececec;fill-opacity:1;fill-rule:evenodd;stroke:none" />
  <path
     d="m 399.70332,40.859434 a 26.381325,26.147862 0 0 1 -52.76265,0 26.381325,26.147862 0 1 1 52.76265,0 z"
     id="path2849-8"
     style="opacity:0.98999999;fill:#ececec;fill-opacity:1;fill-rule:evenodd;stroke:none" />
  <path
     d="m 390.09049,121.08992 a 26.381325,26.147862 0 0 1 -52.76265,0 26.381325,26.147862 0 1 1 52.76265,0 z"
     id="path2849-2"
     style="opacity:0.98999999;fill:#ececec;fill-opacity:1;fill-rule:evenodd;stroke:none" />
  <path
     d="m 374.92183,205.3204 a 26.381325,26.147862 0 0 1 -52.76265,0 26.381325,26.147862 0 1 1 52.76265,0 z"
     id="path2849-5"
     style="opacity:0.98999999;fill:#ececec;fill-opacity:1;fill-rule:evenodd;stroke:none" />
  <path
     d="m 344.87667,286.56038 a 26.381325,26.147862 0 0 1 -52.76265,0 26.381325,26.147862 0 1 1 52.76265,0 z"
     id="path2849-7"
     style="opacity:0.98999999;fill:#ececec;fill-opacity:1;fill-rule:evenodd;stroke:none" />
  <path
     d="m 301.00251,363.47019 a 26.381325,26.147862 0 0 1 -52.76265,0 26.381325,26.147862 0 1 1 52.76265,0 z"
     id="path2849-52"
     style="opacity:0.98999999;fill:#ececec;fill-opacity:1;fill-rule:evenodd;stroke:none" />
  <path
     d="m 236.68719,423.72849 a 26.381325,26.147862 0 0 1 -52.76265,0 26.381325,26.147862 0 1 1 52.76265,0 z"
     id="path2849-14"
     style="opacity:0.98999999;fill:#ececec;fill-opacity:1;fill-rule:evenodd;stroke:none" />
  <path
     d="m 169.11404,363.14003 a 26.381326,26.147863 0 0 1 -52.76265,0 26.381326,26.147863 0 1 1 52.76265,0 z"
     id="path2849-3"
     style="opacity:0.98999999;fill:#ececec;fill-opacity:1;fill-rule:evenodd;stroke:none" />
  <path
     d="m 128.54155,287.2207 a 26.381326,26.147863 0 0 1 -52.762653,0 26.381326,26.147863 0 1 1 52.762653,0 z"
     id="path2849-3-2"
     style="opacity:0.98999999;fill:#ececec;fill-opacity:1;fill-rule:evenodd;stroke:none" />
  <path
     d="m 96.18522,205.65057 a 26.381325,26.147862 0 0 1 -52.762649,0 26.381325,26.147862 0 1 1 52.762649,0 z"
     id="path2849-3-1"
     style="opacity:0.98999999;fill:#ececec;fill-opacity:1;fill-rule:evenodd;stroke:none" />
  <path
     d="m 80.356225,121.75025 a 26.381325,26.147862 0 0 1 -52.76265,0 26.381325,26.147862 0 1 1 52.76265,0 z"
     id="path2849-3-8"
     style="opacity:0.98999999;fill:#ececec;fill-opacity:1;fill-rule:evenodd;stroke:none" />
</svg>
