<?xml version="1.0" encoding="UTF-8" standalone="no"?>
<!-- Created with Inkscape (http://www.inkscape.org/) -->

<svg
 xmlns:dc="http://purl.org/dc/elements/1.1/"
 xmlns:cc="http://creativecommons.org/ns#"
 xmlns:rdf="http://www.w3.org/1999/02/22-rdf-syntax-ns#"
 xmlns:svg="http://www.w3.org/2000/svg"
 xmlns="http://www.w3.org/2000/svg"
 version="1.1"
 width="390"
 height="480"
 id="svg4228">
<metadata
 id="metadata12">
<rdf:RDF>
<cc:Work
 rdf:about="">
<dc:format>image/svg+xml</dc:format>
<dc:type
 rdf:resource="http://purl.org/dc/dcmitype/StillImage" />
<dc:title></dc:title>
</cc:Work>
</rdf:RDF>
</metadata>
<defs
 id="defs4232" />
<g
 id="g3764">
<path
 d="M 0,0 C 130,0 260,0 390,0 389.98981,114.99797 370.78556,350.14732 194.88837,479.99815 20.79131,350.08886 0.081386,115.02225 0,0 z"
 id="path4240-0"
 style="fill:#008c31;fill-opacity:1;stroke:none" />
<path
 d="m 90.00917,48.01405 c -17.279332,0.31388 -30.868736,0.64715 -48.994662,2.55187 22.849248,5.132542 67.168652,8.636611 107.201152,9.43288 6.27488,0.122786 6.50334,9.151669 2.55307,10.876002 -13.99573,6.10789 -27.96098,-1.392241 -42.17089,10.209411 -11.664959,9.523852 -16.53497,28.984087 -11.7637,44.944777 8.18517,27.37302 32.22855,47.00083 27.07768,69.80276 4.92452,-0.62874 7.61524,-7.0149 10.54273,-11.65257 -2.77395,-0.85329 -2.67696,18.39859 1.99741,24.96914 3.09678,-4.75075 5.77146,-7.76887 5.77146,-7.76887 1.68229,11.83828 1.00667,24.18055 5.04835,35.51186 0.12329,-5.93575 -0.124,-11.55385 0.83275,-16.31269 0.4223,2.94332 0.90571,8.73965 2.88499,11.54143 -0.45906,-4.21534 0.52125,-10.52275 1.77663,-13.64998 0.099,1.82333 -0.1411,14.94779 4.549,24.85801 4.77489,-6.17407 4.94898,-21.02895 4.10596,-21.08545 2.0236,1.813 2.3549,6.96841 1.88777,13.03949 3.80097,-2.83058 4.12236,-14.50526 2.32932,-20.47347 9.72607,17.55574 68.14289,78.77462 152.14564,63.69938 -1.36887,-5.14099 -6.22102,-11.01579 -11.0969,-14.75981 -15.52592,-5.24979 -33.71858,-13.61941 -45.99828,-26.13529 -0.74802,-0.76223 0.27108,-1.31641 0.72993,-0.80094 6.33784,7.12016 32.70808,25.72341 60.41416,29.3501 -4.38286,-16.92075 -13.25338,-35.94641 -24.35643,-48.80186 -7.81753,-3.65295 -24.77702,-14.64053 -29.46332,-20.14156 -0.45462,-0.53348 0.38652,-1.44317 0.90599,-0.8733 4.83977,5.30653 17.00976,14.44059 27.48389,19.10825 -5.78808,-18.66335 -44.45366,-82.80757 -87.81735,-105.40541 -9.59696,-5.00157 -36.9836,-12.93833 -55.5986,0.99871 -3.926,2.93943 -4.50034,5.56354 -4.8824,15.75851 -0.26274,7.00706 -19.02749,6.80907 -22.74946,-5.66032 -1.92659,-6.4532 -0.97038,-13.29027 5.88111,-20.75205 6.81253,-7.41741 16.3222,-3.101465 30.62946,-8.766103 9.80496,-3.883098 22.48841,-16.193395 19.92916,-35.797175 -0.64306,-4.930628 -6.76046,-10.100016 -11.73974,-11.439922 4.90867,0.357444 10.54894,5.879129 12.39667,10.8925 8.74958,23.73975 17.63884,36.6783 36.95361,39.783778 -19.31256,-8.996408 -22.20168,-20.262783 -29.81312,-35.210478 -0.21441,-0.421061 0.33372,-0.536633 0.46094,-0.27321 5.98206,12.459478 15.31383,35.57655 30.68429,28.60387 C 195.80684,85.658976 202.35093,54.004155 174.1835,33.586662 152.73607,18.041417 130.13616,17.453144 104.26962,29.813756 97.181652,33.201534 92.162,38.18354 82.852152,39.690969 62.99606,42.90393 30.865011,44.838081 22.814536,50.06656 l 59.150022,-2.941159 c 22.084662,-1.097869 27.571362,1.679489 41.059692,3.995915 0.72771,0.123042 0.4425,1.114317 0.0593,1.053794 -10.41193,-1.629984 -17.98412,-4.435752 -33.0705,-4.16106 z"
 id="path2879"
 style="fill:#f2f2f2;stroke:none" />
<path
 d="m 210.78096,258.90451 c 9.06484,5.92936 16.05374,9.14975 29.31777,14.00591 -0.16369,4.25344 4.91628,5.8346 6.68343,9.85129 1.92844,4.379 -0.75236,9.70981 -5.41004,11.19401 -31.48061,10.03913 -66.80265,10.70826 -94.40991,29.27905 -4.59703,3.09284 25.52309,5.75778 12.38874,19.57133 -1.77916,-4.26377 -3.17803,-5.47682 -7.4481,-6.34165 -6.09302,-1.23136 -2.24771,-4.64803 -8.86076,-4.14856 -4.50828,0.3414 -6.78829,0.69533 -9.14145,2.42596 -6.21251,4.57065 -10.37098,4.13023 -17.30941,8.19377 -3.66108,2.14468 -4.67991,3.8592 -4.6012,9.1862 -6.3763,-2.6988 -8.35531,-7.89428 -4.70446,-11.4301 6.77083,-6.55854 10.27196,-2.92161 22.34726,-12.3685 -7.5368,4.3688 -16.05768,1.86983 -24.15209,2.34898 -3.41302,0.2022 -7.11456,7.15438 -7.448112,7.04544 -2.288178,-0.74215 -4.469351,-9.15198 0.158322,-11.586 6.28144,-3.30552 18.66188,2.19158 30.73801,-3.28887 -6.66729,-0.37642 -9.07107,-0.82905 -19.13276,-3.67937 -2.24893,-0.63681 -3.57524,1.99504 -5.25399,3.28887 -3.36525,-4.5123 -1.71243,-9.98247 5.56747,-10.02101 9.06085,-0.0426 17.19876,7.12233 24.46469,6.18425 22.70669,-2.93148 58.36144,-22.27835 88.1368,-30.84404 3.56928,-1.02693 4.05043,-10.16503 2.03893,-10.80351 -5.24003,-1.65999 -15.43858,-13.22793 -13.96734,-18.06345 z"
 id="path3739"
 style="fill:#f2f2f2;stroke:none" />
<path
 d="m 205.61758,255.40893 c 0.74793,2.83643 0.48103,4.81392 -0.36379,7.27615 -0.5964,1.7403 -1.04714,3.3192 0.31564,5.09825 2.4397,3.18212 4.5425,15.55657 1.2655,25.09464 -2.53741,7.38729 -2.41806,21.19453 -2.52952,31.83882 -0.26662,25.23172 -2.54926,48.52109 -0.23821,76.30594 0.27667,3.31541 2.65822,7.16076 6.16971,7.4498 9.93634,0.81696 16.76961,-4.47155 24.20093,-1.25525 2.94144,1.27346 3.16782,6.27475 0.79057,8.15691 -0.43864,-3.11741 -2.7131,-4.17265 -4.12991,-4.15002 -7.37295,0.12237 -10.60992,3.23662 -16.86892,3.15734 -2.62204,-0.0389 -6.13945,-1.03693 -9.64292,-0.85103 -7.51055,0.39821 -11.03611,5.79207 -20.21222,7.17519 -7.59134,1.14594 -17.69553,-2.11099 -22.55935,0.65272 -1.5809,0.89784 -2.79202,2.34691 -4.09369,3.66118 -2.51511,-5.20786 0.0791,-8.99618 2.60992,-9.96031 7.69413,-2.92338 16.541,-1.45568 24.31996,-1.17662 0.31966,0.003 0.41062,-0.38042 0.0398,-0.41061 -9.12624,-0.7298 -17.55577,-1.51601 -26.48302,1.15038 -1.55427,0.46475 -2.32844,0.98234 -3.22589,2.76533 -5.07671,-4.25713 -2.36096,-10.06554 3.52833,-10.50825 6.70857,-0.5036 10.17563,1.12378 17.04601,3.67122 0.42766,0.15984 0.60222,-0.22852 0.25874,-0.37198 -3.70216,-1.54447 -6.18431,-2.21146 -11.64338,-3.16769 -1.89752,-0.33175 -4.82052,-0.11155 -4.80478,-0.60687 0.0827,-2.7794 4.70784,-5.78584 8.40056,-4.51621 11.54466,3.96874 30.9344,6.98679 30.84478,3.05501 l -2.37274,-103.98683 c -0.0414,-1.93062 -3.92811,-4.25322 -3.95442,-10.03904 -0.0418,-9.96663 0.35154,-27.37677 -1.19857,-30.06583 -3.36484,-5.84017 -7.34671,-15.07115 -5.49591,-21.42526 5.63881,5.20171 12.60365,11.07488 20.02855,15.98292 l -3e-5,0 z"
 id="path3706"
 style="fill:#f2f2f2;stroke:#008c31;stroke-width:0.95411855px;stroke-linecap:butt;stroke-linejoin:miter;stroke-opacity:1" />
<path
 d="m 115.9144,27.636185 a 3.6186771,3.3560312 0 1 1 -7.23735,0 3.6186771,3.3560312 0 1 1 7.23735,0 z"
 transform="matrix(0.95067995,0,0,0.86801323,8.9427088,19.05887)"
 id="path2862"
 style="opacity:0.98999999;fill:#008c31;fill-opacity:1;fill-rule:nonzero;stroke:none" />
<path
 d="m 117.60701,27.636185 a 2.62646,1.4883274 0 1 1 -5.25292,0 2.62646,1.4883274 0 1 1 5.25292,0 z"
 transform="matrix(0.971806,0,0,1.2302953,5.3484122,9.0470261)"
 id="path2864"
 style="opacity:0.98999999;fill:#f2f2f2;fill-opacity:1;fill-rule:nonzero;stroke:none" />
</g>
</svg>
