<?xml version="1.0" encoding="UTF-8" standalone="no"?>
<!-- Created with Inkscape (http://www.inkscape.org/) -->

<svg
   xmlns:svg="http://www.w3.org/2000/svg"
   xmlns="http://www.w3.org/2000/svg"
   xmlns:xlink="http://www.w3.org/1999/xlink"
   version="1.1"
   width="420"
   height="480"
   id="svg4228">
  <defs
     id="defs4232" />
  <path
     d="m 0.5070884,0.50209145 c 139.6632216,0 279.3264716,0 418.9897016,0 C 419.48584,115.23404 398.85409,349.83946 209.88201,479.38992 22.84387,349.78113 0.59452403,115.25827 0.5070884,0.50209145 z"
     id="path4240-0"
     style="color:#000000;fill:#e6e6e6;fill-opacity:1;fill-rule:nonzero;stroke:#999999;stroke-width:0.99771082;stroke-opacity:1;marker:none;visibility:visible;display:inline;overflow:visible;enable-background:accumulate" />
  <use
     transform="translate(190.91255,0)"
     id="use3777"
     x="0"
     y="0"
     width="390"
     height="480"
     xlink:href="#path2827-9" />
  <path
     d="M 67.463438,43.37168 C 77.004221,37.270983 87.805316,32.990811 99.40065,29.857639 l 1.03022,-10.423629 26.6041,0.06032 0.96961,10.484163 c 10.99437,3.155296 21.88178,7.059316 32.42203,13.392878 l 8.18126,-6.84795 18.7259,19.150251 -5.99956,8.120736 c 5.4546,10.082474 10.82683,20.223829 13.15058,32.542861 l 9.69619,1.272833 0.058,26.664518 -9.75665,1.03025 c -2.92017,11.80759 -7.18488,22.77497 -13.75638,32.30086 l 6.36263,7.8175 -19.14939,18.96838 -7.39372,-6.36278 c -8.92284,6.35464 -19.81031,11.07211 -32.84597,13.99898 l -1.27286,9.51409 -25.99813,-0.18183 -0.90894,-9.81747 C 86.938004,188.92445 75.948451,184.39645 66.794404,177.66489 l -8.241405,6.54514 -18.544388,-18.72619 6.605866,-8.72652 C 39.061081,146.03082 35.329872,135.30409 33.706432,124.5777 l -10.544558,-1.15147 0.121942,-26.604094 10.181125,-1.393892 c 2.723184,-12.75964 7.089703,-23.489315 13.695999,-31.45222 l -7.393273,-8.545018 19.149929,-18.907721 8.545007,6.847951 -2.9e-5,0 z"
     id="path2827-9"
     style="fill:#d61a1a;fill-opacity:1;stroke:none" />
  <path
     d="m 101.03686,51.189318 c -21.033856,4.01902 -41.98965,21.66843 -46.36028,46.299818 l 34.118639,-0.242468 0.05832,-10.362614 12.362801,-0.05818 -0.18196,-35.633795 -2e-5,0 z"
     id="path2829-4"
     style="fill:#ececec;fill-opacity:1;stroke:none" />
  <path
     d="m 127.32187,51.189318 c 21.03385,4.01902 41.98966,21.66843 46.36041,46.299818 l -34.1188,-0.242468 -0.058,-10.362614 -12.3627,-0.05818 0.18184,-35.633795 5e-5,0 z"
     id="path2829-1-8"
     style="fill:#ececec;fill-opacity:1;stroke:none" />
  <path
     d="m 127.32187,169.95275 c 21.03385,-4.01868 41.98966,-21.66835 46.36041,-46.29991 l -34.1188,0.24262 -0.058,10.36296 -12.3627,0.058 0.18184,35.63392 5e-5,0 z"
     id="path2829-1-7-8"
     style="fill:#ececec;fill-opacity:1;stroke:none" />
  <path
     d="m 54.979628,121.95821 c 4.018744,21.03397 21.66817,41.98959 46.299712,46.36055 l -0.24246,-34.11883 -10.362889,-0.058 -0.05828,-12.36282 -35.633913,0.18184 0,4e-5 z"
     id="path2829-0-2"
     style="fill:#ececec;fill-opacity:1;stroke:none" />
  <rect
     width="17.206831"
     height="15.883286"
     x="106.64435"
     y="101.66769"
     id="rect2919-4"
     style="fill:#ececec;fill-opacity:1;stroke:none" />
  <use
     transform="matrix(1.1208075,0,0,1.1208075,81.115846,162.66748)"
     id="use3789"
     x="0"
     y="0"
     width="390"
     height="480"
     xlink:href="#path2827-9" />
  <use
     transform="translate(190.91255,0)"
     id="use3779"
     x="0"
     y="0"
     width="390"
     height="480"
     xlink:href="#path2829-4" />
  <use
     transform="translate(190.91255,0)"
     id="use3781"
     x="0"
     y="0"
     width="390"
     height="480"
     xlink:href="#path2829-1-8" />
  <use
     transform="translate(190.91255,0)"
     id="use3783"
     x="0"
     y="0"
     width="390"
     height="480"
     xlink:href="#path2829-1-7-8" />
  <use
     transform="translate(190.91255,0)"
     id="use3785"
     x="0"
     y="0"
     width="390"
     height="480"
     xlink:href="#path2829-0-2" />
  <use
     transform="translate(190.91255,0)"
     id="use3787"
     x="0"
     y="0"
     width="390"
     height="480"
     xlink:href="#rect2919-4" />
  <use
     transform="matrix(1.1208075,0,0,1.1208075,81.115846,162.66748)"
     id="use3791"
     x="0"
     y="0"
     width="390"
     height="480"
     xlink:href="#path2829-4" />
  <use
     transform="matrix(1.1208075,0,0,1.1208075,81.115846,162.66748)"
     id="use3793"
     x="0"
     y="0"
     width="390"
     height="480"
     xlink:href="#path2829-1-8" />
  <use
     transform="matrix(1.1208075,0,0,1.1208075,81.115846,162.66748)"
     id="use3795"
     x="0"
     y="0"
     width="390"
     height="480"
     xlink:href="#path2829-1-7-8" />
  <use
     transform="matrix(1.1208075,0,0,1.1208075,81.115846,162.66748)"
     id="use3797"
     x="0"
     y="0"
     width="390"
     height="480"
     xlink:href="#path2829-0-2" />
  <use
     transform="matrix(1.1208075,0,0,1.1208075,81.115846,162.66748)"
     id="use3799"
     x="0"
     y="0"
     width="390"
     height="480"
     xlink:href="#rect2919-4" />
</svg>
