<?xml version="1.0" encoding="UTF-8" standalone="no"?>
<!-- Created with Inkscape (http://www.inkscape.org/) -->

<svg
   xmlns:dc="http://purl.org/dc/elements/1.1/"
   xmlns:cc="http://creativecommons.org/ns#"
   xmlns:rdf="http://www.w3.org/1999/02/22-rdf-syntax-ns#"
   xmlns:svg="http://www.w3.org/2000/svg"
   xmlns="http://www.w3.org/2000/svg"
   version="1.1"
   width="390"
   height="480"
   id="svg4228">
  <metadata
     id="metadata10">
    <rdf:RDF>
      <cc:Work
         rdf:about="">
        <dc:format>image/svg+xml</dc:format>
        <dc:type
           rdf:resource="http://purl.org/dc/dcmitype/StillImage" />
        <dc:title></dc:title>
      </cc:Work>
    </rdf:RDF>
  </metadata>
  <defs
     id="defs4232" />
  <path
     d="m 0.51202379,0.50512952 c 15.72242421,0 31.44484821,0 47.16727221,0 0.0034,0 0.0067,0 0.01008,0 113.936874,0 227.873754,0 341.810624,0 C 389.48983,115.23328 370.33544,349.8309 194.89467,479.37706 21.249382,349.77255 0.5931986,115.2575 0.51202379,0.50512952 z"
     id="path4240-0"
     style="fill:#d61a1a;fill-opacity:1;stroke:#9e832a;stroke-width:0.99999905;stroke-opacity:1" />
  <path
     d="M 2.8619898,59.094346 C 30.468695,92.713143 42.302649,79.886927 64.021738,102.80955 c 21.89283,23.10599 11.710839,28.7592 33.223233,50.68361 11.978399,12.20781 29.469999,10.63827 49.293519,31.26633 16.25479,16.91446 13.52043,32.50887 29.39687,47.61824 18.40076,17.51171 29.00391,14.06516 48.39728,30.72725 19.49408,16.74859 11.74911,27.55357 32.8026,50.31361 16.16799,17.47853 34.42687,17.54446 54.74445,30.43339 -2.8369,5.23415 -5.5182,9.57718 -6.72756,11.69928 -17.4402,-12.11702 -32.21518,-9.34339 -57.24823,-31.9801 -18.29128,-16.54031 -15.60495,-35.40626 -31.09973,-49.505 C 199.93395,258.71592 184.42288,258.59748 171.27488,246.57335 148.04189,225.32631 150.30882,207.99564 139.18927,196.25974 114.90674,170.63122 106.61241,180.14629 88.999509,164.27465 66.868331,144.33144 69.587469,127.90971 56.913905,114.32042 41.074251,97.336273 23.936548,99.730114 4.3696987,79.462488 3.8114096,73.830568 3.2839688,67.014032 2.8619898,59.094346 z"
     id="path2827"
     style="fill:#faf700;fill-opacity:1;stroke:none" />
  <path
     d="m 28.594921,33.704736 c 28.166089,34.702097 41.367769,21.301416 60.909635,44.065618 19.541874,22.764196 11.491014,29.445456 33.066624,51.407866 12.01359,12.22898 29.55658,10.65673 49.43836,31.32052 16.30255,16.94379 13.56016,32.56523 29.48325,47.70079 18.45483,17.54207 29.08914,14.08954 48.53949,30.78052 19.55137,16.77763 11.78365,27.60132 32.899,50.40082 13.55887,14.64031 28.46039,14.46546 44.65826,23.75637 -1.83055,4.1293 -3.04826,6.6621 -5.56411,11.48062 -17.41204,-11.93011 -28.96616,-6.34165 -48.35262,-25.06682 C 255.89185,282.37662 258.022,264.0834 242.48169,249.96023 225.5619,234.58338 210.00525,234.46473 196.81862,222.41977 173.51736,201.13589 175.79095,183.77519 164.63873,172.01894 140.28485,146.346 131.96613,155.87755 114.30149,139.9784 92.105273,120.00062 94.832403,103.55043 82.121597,89.937579 57.633007,59.147977 38.260367,84.7569 1.1291447,14.77234 1.0135234,10.247683 0.97138799,5.5260471 0.97528641,0.98576397 L 7.9972137,0.98151664 8.6421526,1.9896828 z"
     id="path2827-1"
     style="fill:#faf700;fill-opacity:1;stroke:none" />
  <path
     d="m 47.709455,1.003309 c 32.747855,44.285223 43.07746,28.020459 64.841295,51.000335 21.92618,23.15129 11.72867,28.815593 33.27384,50.782986 11.99665,12.23176 29.51489,10.65915 49.36862,31.32764 16.27955,16.94763 13.54102,32.57262 29.44165,47.71162 18.42879,17.54605 29.04809,14.09273 48.47102,30.7875 19.52378,16.78144 11.76701,27.6076 32.85257,50.41227 10.55314,11.41354 21.44312,15.33712 34.3389,20.78571 -1.36815,3.49874 -3.82332,9.51346 -5.12453,12.39903 -11.46605,-4.65927 -22.102,-8.21389 -38.45978,-23.01226 C 278.3939,256.62539 281.08432,237.72244 265.56593,223.59606 248.67001,208.21572 233.13531,208.09705 219.96728,196.04934 196.6989,174.76065 198.96929,157.396 187.8328,145.63708 163.51327,119.9583 155.2063,129.49202 137.56657,113.58927 115.40168,93.60695 117.33016,77.848871 105.43209,63.53708 84.015213,37.77543 61.091397,48.838646 32.728344,1.0028113 c 3.882908,0.00405 12.171028,-0.007029 14.981111,4.977e-4 z"
     id="path2827-4"
     style="fill:#faf700;fill-opacity:1;stroke:none" />
</svg>
