<?xml version="1.0" encoding="UTF-8" standalone="no"?>
<!-- Created with Inkscape (http://www.inkscape.org/) -->

<svg
   xmlns:svg="http://www.w3.org/2000/svg"
   xmlns="http://www.w3.org/2000/svg"
   version="1.1"
   width="390"
   height="480"
   id="svg4228">
  <defs
     id="defs4232" />
  <path
     d="m 0.51202379,0.50512952 c 129.66265621,0 259.32532621,0 388.98797621,0 C 389.48983,115.23328 370.33544,349.8309 194.89467,479.37706 21.249382,349.77255 0.5931986,115.2575 0.51202379,0.50512952 z"
     id="path4240-0-1"
     style="fill:#207ebf;fill-opacity:1;stroke:#999999;stroke-width:0.99999905;stroke-opacity:1" />
  <path
     d="m 165.33489,454.35125 1.38969,-216.82136 17.75968,-26.72895 -16.87767,0.0388 C 167.62723,168.89679 167.8558,92.690346 166.45496,84.920919 145.5173,-2.9681321 42.0521,32.555222 42.411646,99.553392 c -0.04987,69.690198 85.212364,81.720408 94.111124,23.205478 0.948,-4.82661 -5.95614,-25.225201 -10.06728,-37.882836 -1.81276,-5.844147 6.49896,-16.419809 -1.89333,-12.856048 -2.11791,1.82618 -4.19492,10.621786 -6.29238,15.93268 -7.21653,-3.563739 -16.84033,-0.808717 -22.010145,2.489676 -2.39135,1.787315 -17.50671,-4.734492 -23.18637,-9.37994 -2.1867,17.692483 7.65801,16.421673 15.87706,14.841588 1.93638,-0.286162 3.30583,0.2586 1.66983,3.012894 -8.06171,14.651516 1.91861,18.186206 9.07114,19.588036 -3.42871,-8.70196 -5.05907,-18.40237 9.929905,-22.679808 5.23969,-1.228734 18.47912,5.187138 18.27876,16.936098 -14.89789,61.52364 -68.762189,28.31655 -70.885499,-2.63729 -0.345389,-10.231224 -4.339451,-55.122545 49.528629,-61.050801 24.66358,-1.757426 40.63504,21.086392 40.23399,49.144746 l 0.65575,112.498945 -20.63371,0.0714 20.4301,26.84819 -0.91422,198.25424 c 3.81538,4.09761 10.55971,10.75739 19.01989,18.46061 z"
     id="path2884"
     style="fill:#ececec;stroke:none" />
  <path
     d="m 225.5626,453.61611 -1.39221,-216.08622 -17.75968,-26.72895 16.87767,0.0388 c -0.0206,-41.94295 -0.24921,-118.14939 1.15163,-125.918817 20.93766,-87.8890511 124.40286,-52.365697 124.04332,14.632473 0.0499,69.690194 -85.21237,81.720404 -94.11113,23.205474 -0.948,-4.82661 5.95614,-25.225197 10.06728,-37.882832 1.81276,-5.844147 -6.49896,-16.419809 1.89333,-12.856048 2.11791,1.82618 4.19492,10.621786 6.29238,15.93268 7.21653,-3.563739 16.84033,-0.808717 22.01015,2.489676 2.39135,1.787315 17.50671,-4.734492 23.18637,-9.37994 2.1867,17.692483 -7.65801,16.421673 -15.87706,14.841588 -1.93638,-0.286162 -3.30583,0.2586 -1.66983,3.012894 8.06171,14.651512 -1.91861,18.186202 -9.07114,19.588032 3.42871,-8.70196 5.05907,-18.40237 -9.92991,-22.679804 -5.23969,-1.228734 -18.47912,5.187134 -18.27876,16.936094 14.89789,61.52364 68.76219,28.31655 70.8855,-2.63729 0.34539,-10.23122 4.33945,-55.122541 -49.52863,-61.050797 -24.66358,-1.757426 -40.63504,21.086392 -40.23399,49.144746 l -0.65575,112.498941 20.63371,0.0714 -20.4301,26.84819 0.91124,197.56173 c -7.46294,7.95649 -12.53749,12.6128 -19.01439,18.41798 z"
     id="path2884-1"
     style="fill:#ececec;stroke:none" />
</svg>
