<?xml version="1.0" encoding="UTF-8" standalone="no"?>
<!-- Created with Inkscape (http://www.inkscape.org/) -->

<svg
   xmlns:svg="http://www.w3.org/2000/svg"
   xmlns="http://www.w3.org/2000/svg"
   xmlns:xlink="http://www.w3.org/1999/xlink"
   version="1.1"
   width="390"
   height="480"
   id="svg4228">
  <defs
     id="defs4232">
    <linearGradient
       id="linearGradient3652">
      <stop
         id="stop3654"
         style="stop-color:#ffffff;stop-opacity:1"
         offset="0" />
      <stop
         id="stop3656"
         style="stop-color:#ffffff;stop-opacity:0"
         offset="1" />
    </linearGradient>
    <linearGradient
       x1="1.041629"
       y1="110.18271"
       x2="389.03033"
       y2="110.18271"
       id="linearGradient2857"
       xlink:href="#linearGradient3652"
       gradientUnits="userSpaceOnUse"
       gradientTransform="translate(0,3.7e-6)" />
  </defs>
  <path
     d="m 0.51202379,0.50512952 c 129.66265621,0 259.32532621,0 388.98797621,0 C 389.48983,115.23328 370.33544,349.8309 194.89467,479.37706 21.249382,349.77255 0.5931986,115.2575 0.51202379,0.50512952 z"
     id="path4240-0-1"
     style="fill:#207dbf;fill-opacity:1;stroke:#999999;stroke-width:0.99999905;stroke-opacity:1" />
  <path
     d="m 40.963983,59.953162 c 0,0 139.371457,-26.772752 209.459747,-37.77151 14.28556,-2.241792 41.24778,9.842898 40.04237,29.264985 -1.63757,26.385374 15.18139,70.653233 50.84746,36.565361 -14.22169,44.480162 -57.1572,24.058832 -62.15448,0.450553 -1.03626,25.651009 1.25426,43.730209 -16.02349,64.427579 -17.99513,21.55673 -59.18035,29.49474 -57.9661,60.05352 0.38855,9.81913 -0.43942,37.05106 2.06568,49.83299 14.74517,-9.41398 30.70696,-14.27247 53.10381,1.26964 23.41206,16.24661 36.95235,52.79132 50.33763,81.91571 -13.31866,23.65393 -21.86039,36.20845 -36.64834,55.32434 l -26.12142,-70.74144 c -0.5359,-1.45006 -2.6011,-0.3946 -2.15728,0.80798 l 26.56301,72.06869 c -9.75706,12.78941 -12.80428,16.06441 -20.51547,24.15031 l -26.98778,-86.6812 c -0.47893,-1.53769 -2.47378,-0.51438 -2.09746,0.69829 l 27.2677,87.95537 c -8.51361,9.77831 -28.4177,28.39275 -38.21687,35.99785 L 201.25577,308.54965 c -0.86112,-12.87555 17.90865,-15.66864 28.67378,-18.17973 1.75108,-0.40846 1.05072,-2.13174 -0.35954,-1.70575 -9.07611,2.74155 -31.03631,4.0665 -30.11197,19.12239 l 9.81953,159.83672 c -4.92677,4.05857 -11.64043,9.25976 -14.379,11.13352 -27.2131,-19.80017 -58.7409,-50.59015 -81.98515,-82.11295 5.77417,-66.27182 18.49524,-134.61214 30.87032,-200.6512 6.51698,-34.77754 38.70604,-46.0705 63.77482,-67.57254 22.38291,-18.09472 18.44908,-25.45162 18.59576,-42.920021 L 40.963983,59.953162 z"
     id="path2829"
     style="fill:#ececec;stroke:none" />
  <path
     d="m 214.51271,45.79449 a 6.5148321,6.1334763 0 0 1 -13.02966,0 6.5148321,6.1334763 0 1 1 13.02966,0 z"
     id="path2827"
     style="fill:#207dbf;fill-opacity:1;stroke:none" />
</svg>
