<?xml version="1.0" encoding="UTF-8" standalone="no"?>
<!-- Created with Inkscape (http://www.inkscape.org/) -->

<svg
   xmlns:svg="http://www.w3.org/2000/svg"
   xmlns="http://www.w3.org/2000/svg"
   version="1.1"
   width="390"
   height="480"
   id="svg4228">
  <defs
     id="defs4232" />
  <path
     d="M 0,0 C 130,0 260,0 390,0 389.98981,114.99797 370.78556,350.14732 194.88837,479.99815 20.79131,350.08886 0.081386,115.02225 0,0 z"
     id="path4240-0"
     style="color:#000000;fill:#d61a1a;fill-opacity:1;fill-rule:nonzero;stroke:none;marker:none;visibility:visible;display:inline;overflow:visible;enable-background:accumulate" />
  <path
     d="M 8.2627119,8.3898295 C 122.34432,-1.168756 192.19621,95.159882 193.86732,213.47183 c 0.32424,22.95546 1.177,38.18875 0.87844,58.56206 l -10.42373,0.50848 C 167.73086,205.47168 153.86414,146.81513 80.084746,108.81356 50.54174,93.596836 33.448037,102.34859 27.966102,45.508474 25.766176,22.698273 4.4422701,8.7099339 8.2627119,8.3898295 z"
     id="path2834"
     style="fill:#ececec;stroke:none" />
  <path
     d="m 53.771187,284.87288 c 25.029814,5.9239 54.563333,-21.09766 55.042363,-45.38136 0.39473,-20.00974 -8.03954,-27.4459 10e-6,-35.59322 22.45554,-22.75656 60.45623,45.91147 66.10169,73.22034 l 11.18645,-1.52542 c -2.85232,-32.78538 -25.19552,-85.68237 -36.61017,-100.16949 -13.44853,-17.06845 -28.49022,-33.79097 -49.0678,-40.93221 -36.126614,-12.53737 -56.912953,8.85091 -63.050849,23.1356 -3.107864,7.23291 -4.786624,26.98498 -1.016949,39.66101 5.105918,17.16933 24.346452,18.23246 30.508475,44.23729 2.233051,9.42387 -10.186563,38.65848 -13.09322,43.34746 z"
     id="path2830"
     style="fill:#ececec;stroke:#d61a1a;stroke-width:1px;stroke-linecap:butt;stroke-linejoin:miter;stroke-opacity:1" />
  <path
     d="M 382.29849,8.3898295 C 266.08315,-5.6759103 197.30578,113.03785 195.32259,221.28963 c -0.20277,24.57526 0.57489,36.16051 0.36572,50.36291 l 10.29662,0.88983 c 16.59117,-67.07069 30.45789,-125.72724 104.23728,-163.72881 29.54301,-15.216724 46.63671,-6.46497 52.11865,-63.305086 2.19992,-22.810201 23.76368,-36.6579918 19.95763,-37.1186445 z"
     id="path2836"
     style="fill:#ececec;stroke:none" />
  <path
     d="m 329.89118,280.37856 c -21.43436,3.9464 -45.93424,-16.60334 -46.41327,-40.88704 -0.39473,-20.00974 8.03954,-27.4459 -1e-5,-35.59322 -22.45554,-22.75656 -60.45623,45.91147 -66.10169,73.22034 l -11.18645,-1.52542 c 2.85232,-32.78538 21.8768,-84.59408 34.95763,-100.55085 13.08083,-15.95677 28.49022,-33.79097 49.0678,-40.93221 36.12662,-12.53737 61.61635,7.45261 67.75424,21.7373 3.10787,7.23291 6.35788,28.65697 -0.50848,42.20338 -12.15783,23.98581 -31.24107,31.83942 -34.06779,45 -2.82672,13.16058 3.59136,32.63874 6.49802,37.32772 z"
     id="path2832"
     style="fill:#ececec;stroke:#d61a1a;stroke-width:1px;stroke-linecap:butt;stroke-linejoin:miter;stroke-opacity:1" />
  <path
     d="m 74.246212,300.40686 c 11.479104,-18.4859 43.196218,-10.83199 51.235278,7.01115 6.19802,13.75685 -0.71903,31.60182 14.02229,27.32548 23.48759,-6.81357 27.15939,-34.68889 29.48276,-48.17914 l 17.07842,0.35954 c 1.79773,42.9058 -21.31574,75.11054 -36.13435,86.83032 -16.32993,12.91505 -46.41283,15.11968 -52.673465,-11.32569 -5.519375,-23.31422 5.603715,-49.42397 -23.010933,-62.02166 z"
     id="path2840"
     style="fill:#ececec;stroke:none" />
  <path
     d="m 207.54783,287.73287 c 1.1322,30.26799 11.84074,74.18979 32.0881,82.28544 11.78257,4.71111 22.84692,8.80161 37.5739,0.14044 28.78024,-23.08878 5.04092,-49.67581 45.84209,-78.38099 -22.86935,-14.89132 -49.3166,-4.21317 -60.40369,31.99958 -3.93813,12.86275 -28.83427,-6.97302 -38.83096,-39.37027 l -16.26944,3.3258 z"
     id="path2844"
     style="fill:#ececec;stroke:none" />
  <path
     d="M 194.84299,460.77972 C 216.07117,427.99081 243.4909,417.44183 240,395.33898 c -2.55871,-16.20064 -20.61722,-36.52012 -24.91525,-55.55085 -3.82405,-16.93205 -6.81819,-43.97151 -8.1356,-59.3644 l -19.06779,-0.25424 c -5.32963,46.17708 -8.2973,50.60646 -14.74578,68.64407 -7.25735,20.3002 -19.5696,35.86669 -17.03389,53.64406 2.73036,19.14203 17.38537,23.76065 38.7413,58.3221 z"
     id="path2846"
     style="fill:#ececec;stroke:#d61a1a;stroke-width:1px;stroke-linecap:butt;stroke-linejoin:miter;stroke-opacity:1" />
  <path
     d="m 171.14381,268.76683 c -11.9745,-0.92082 -15.54567,19.29306 -5.21342,23.73002 8.43826,3.62363 49.43308,4.24442 60.22393,-0.53932 9.10997,-4.03858 9.01088,-29.12707 -3.59546,-25.70752 -19.4489,5.27563 -35.09627,3.77171 -51.41505,2.51682 z"
     id="path2838"
     style="fill:#ececec;stroke:#d61a1a;stroke-width:1px;stroke-linecap:butt;stroke-linejoin:miter;stroke-opacity:1" />
</svg>
