<?xml version="1.0" encoding="UTF-8" standalone="no"?>
<!-- Created with Inkscape (http://www.inkscape.org/) -->

<svg
   xmlns:svg="http://www.w3.org/2000/svg"
   xmlns="http://www.w3.org/2000/svg"
   version="1.1"
   width="390"
   height="480"
   id="svg4228">
  <defs
     id="defs4232" />
  <path
     d="M 0,0 C 130,0 260,0 390,0 389.98981,114.99797 370.78556,350.14732 194.88837,479.99815 20.79131,350.08886 0.081386,115.02225 0,0 z"
     id="path4240-0"
     style="color:#000000;fill:#d61a1a;fill-opacity:1;fill-rule:nonzero;stroke:none;marker:none;visibility:visible;display:inline;overflow:visible;enable-background:accumulate" />
  <path
     d="m 206.01974,174.29616 a 6.0223922,6.0223922 0 1 1 -12.04477,0 6.0223922,6.0223922 0 1 1 12.04477,0 z"
     id="path4291"
     style="fill:#faf700;fill-opacity:1;stroke:none" />
  <path
     d="m 238.82831,195.41949 a 6.0223922,6.0223922 0 1 1 -12.04478,0 6.0223922,6.0223922 0 1 1 12.04478,0 z"
     id="path4291-4"
     style="fill:#faf700;fill-opacity:1;stroke:none" />
  <path
     d="m 242.06422,214.83496 a 6.0223922,6.0223922 0 1 1 -12.04478,0 6.0223922,6.0223922 0 1 1 12.04478,0 z"
     id="path4291-5"
     style="fill:#faf700;fill-opacity:1;stroke:none" />
  <path
     d="m 218.87352,299.14846 a 6.0223922,6.0223922 0 1 1 -12.04478,0 6.0223922,6.0223922 0 1 1 12.04478,0 z"
     id="path4291-7"
     style="fill:#faf700;fill-opacity:1;stroke:none" />
  <path
     d="m 263.99652,337.61986 a 6.0223922,6.0223922 0 1 1 -12.04478,0 6.0223922,6.0223922 0 1 1 12.04478,0 z"
     id="path4291-52"
     style="fill:#faf700;fill-opacity:1;stroke:none" />
  <path
     d="m 275.14244,355.77692 a 6.0223922,6.0223922 0 1 1 -12.04478,0 6.0223922,6.0223922 0 1 1 12.04478,0 z"
     id="path4291-6"
     style="fill:#faf700;fill-opacity:1;stroke:none" />
  <path
     d="m 254.28878,357.03534 a 6.0223922,6.0223922 0 1 1 -12.04478,0 6.0223922,6.0223922 0 1 1 12.04478,0 z"
     id="path4291-2"
     style="fill:#faf700;fill-opacity:1;stroke:none" />
  <path
     d="m 173.00848,408.94069 c 6.23478,3.8339 24.63352,3.85347 27.07627,0.0636 12.37727,-19.20307 21.52465,-25.26844 25.42372,-41.12288 4.27567,-17.38579 16.05146,-22.94012 21.48007,-34.73307 4.22937,-9.18777 3.43189,-19.03752 13.85892,-28.82626 8.33988,-7.82935 26.11903,-13.24778 45.19068,-18.36864 l -6.4195,-7.05509 c -17.22457,9.04661 -46.66325,18.71275 -53.96186,40.10594 -5.73107,-6.16087 -7.968,-35.52903 -11.952,-53.29355 -4.95419,-22.09058 -14.2664,-37.75346 -14.38183,-65.43734 -0.0466,-11.17302 1.8096,-25.94987 8.94846,-36.92328 16.01737,-24.62087 33.57928,-40.96101 39.79523,-36.4733 1.34446,0.97066 6.14363,6.97815 6.1855,8.3757 0.27272,9.10375 -21.63821,20.23525 -22.29776,39.17345 10.6314,-3.92285 10.79076,8.28612 5.12088,23.07373 16.34267,-5.66534 25.50027,8.64773 33.70742,35.3126 6.84843,-14.35929 18.46843,-7.51159 31.37038,5.03364 0.21929,-13.06534 -5.27194,-30.45683 16.08967,-27.50526 -21.31943,-21.57316 -23.86943,-33.58453 -9.2583,-36.85344 -12.16179,-7.68729 -21.36279,-19.30809 -7.37785,-30.34814 -9.55646,-3.79659 -30.43168,-0.9281 -42.64195,-8.74485 -18.14063,-11.61326 -3.43244,-19.23657 -6.38317,-21.78429 -5.05327,-4.36309 -17.7615,20.28753 -20.82866,5.72796 -0.25513,-1.21107 -0.46007,-3.16587 0.36331,-5.69512 4.33649,-13.320824 24.44504,-28.272065 41.72271,-10.79508 1.32828,-10.809163 12.34191,-14.735298 25.16821,-10.067276 -4.06985,-12.872611 12.37893,-22.232985 24.49538,-25.360756 -8.57464,-7.349305 -1.98803,-21.814493 11.86502,-31.729919 -25.6165,-1.044812 -28.50945,-9.323112 -33.9925,-18.777236 -11.76404,14.144108 -34.82721,29.055138 -46.42503,10.132714 -6.3083,11.801167 -19.40107,34.408335 -35.26634,31.206022 -2.31964,11.600146 -3.90439,26.073055 -2.39966,32.872632 1.90855,8.624336 7.02945,12.005709 10.14053,17.020439 1.88978,3.04612 0.69053,12.08839 1.38393,16.35809 1.55276,9.56143 -15.83235,20.02559 -21.15023,32.09667 -2.6303,5.97051 -9.12861,6.68783 -10.19966,3.65149 -2.48479,-7.04418 -4.67322,-9.12487 -6.23199,-12.3485 -0.94797,-1.96045 12.00904,-14.67139 11.69193,-33.90844 -21.63225,4.23401 -14.63808,-15.320123 -13.48297,-30.022079 -13.02702,6.083338 -13.57,-6.053285 -14.38183,-17.797518 -17.60037,15.837407 -22.75511,-7.736367 -30.78611,-22.201955 -3.16274,14.314249 3.39992,37.559262 -13.6319,39.489675 2.28554,4.686513 7.94907,7.503879 10.31897,10.173354 10.56562,11.901173 5.07687,21.884043 -5.94538,20.268633 18.08422,23.82071 41.87729,27.69995 51.3997,33.05775 0.95231,0.53582 5.84174,7.39939 8.16418,12.3195 4.48497,9.50145 0.26674,46.97948 -7.72892,46.99518 -2.1551,0.004 -78.15883,-85.81567 -82.98965,-81.36663 -1.48776,1.37018 0.44702,4.49694 2.54027,6.56742 -2.76615,4.60224 -12.38998,-0.16829 -17.67072,-5.31011 1.95635,-19.38819 3.28776,-39.11889 1.20709,-57.161394 C 88.861763,91.909244 82.07384,69.371178 87.908953,45.983255 67.328889,52.508677 61.070852,42.059844 58.650912,27.062156 47.320176,49.071262 38.038565,38.551683 22.965989,29.039658 c 15.743637,40.978913 7.805838,41.771147 1.932559,46.066808 12.840208,16.002896 29.528343,29.873214 12.179615,34.875954 14.794085,18.13932 44.06523,13.61851 68.919787,16.03834 7.565,3.95092 8.96191,8.73123 26.27129,9.14022 13.45194,7.92498 28.36129,24.12185 21.52649,27.27017 -15.88116,7.31536 -33.41046,-17.82482 -56.718358,-18.96603 7.354958,22.72111 -15.095645,16.04475 -24.442728,14.05314 0.666432,10.50774 -2.602304,20.89979 -10.523103,28.55304 14.02519,-1.81942 19.687053,3.40856 24.359229,7.91001 12.714792,-17.42081 19.54304,-9.87073 22.83116,-3.14603 13.09016,-4.13745 16.62789,-27.85312 28.81248,-25.89884 15.08794,2.41995 29.1544,4.04589 30.25423,4.89408 20.58472,15.87506 59.9073,76.69577 56.75848,106.65254 -0.1876,1.78481 -8.95197,-3.93768 -18.02495,-8.30472 -14.46528,-6.96249 -23.17103,-2.83204 -25.00471,-12.2885 -0.8176,-4.21642 10.92249,-16.17156 2.86016,-33.87711 -8.75095,5.75664 -13.37871,-7.17724 -18.05084,-17.9873 -9.61138,13.44067 -16.56146,-3.49378 -21.61017,-7.88135 -0.74544,6.45029 -8.36802,11.68426 -23.00847,13.72881 8.95182,6.83205 12.44787,12.33089 11.56779,23.38983 12.3749,-2.43833 27.45571,3.84929 19.13136,20.08475 4.81494,4.20767 17.87801,1.95717 24.52876,3.76178 2.54742,0.69121 4.00514,3.50292 2.63697,5.22092 -1.79156,2.24965 -5.47882,4.40404 -4.47505,5.89018 1.80663,2.67483 30.18253,-3.58901 27.33051,7.11864 -3.69995,13.89113 -48.5574,-12.32378 -85.04238,8.38983 25.52481,15.71634 -4.16275,28.23825 -11.69491,32.54238 9.1232,4.48508 10.28131,17.946 7.75423,35.08474 13.18657,-10.49144 26.09236,-10.81149 37.75424,-3.55932 -1.61366,-16.56662 11.82086,-45.34108 29.74577,-28.22034 8.70767,-7.84443 7.51678,-30.54956 11.05932,-33.68644 4.43967,-3.93128 9.36191,-6.87314 21.35593,-6.10169 11.9548,0.76892 19.61486,26.18485 18.30508,36.48305 -6.43415,50.33454 -45.43832,69.59616 -59.23728,92.66949 z"
     id="path4360"
     style="fill:#faf700;fill-opacity:1;stroke:none" />
</svg>
