<?xml version="1.0" encoding="UTF-8" standalone="no"?>
<!-- Created with Inkscape (http://www.inkscape.org/) -->

<svg
   xmlns:svg="http://www.w3.org/2000/svg"
   xmlns="http://www.w3.org/2000/svg"
   xmlns:xlink="http://www.w3.org/1999/xlink"
   version="1.1"
   width="430"
   height="480"
   id="svg4228">
  <defs
     id="defs4232" />
  <path
     d="M 0.39722136,2.927859 427.83214,2.894981 c -0.008,268.394419 -0.0244,272.352889 -0.0244,272.365299 1.09644,272.96417 -427.40684164,272.97017 -427.41047564,-7.3e-4 l -0.0021,-272.330193 z"
     id="path2902"
     style="fill:#207dbf;fill-opacity:1;stroke:none" />
  <path
     d="M 7.0773024,10.383007 421.15319,10.351987 c -0.004,260.005113 -0.0255,263.839983 -0.0255,263.851813 1.0619,264.43244 -414.0479836,264.43816 -414.0515066,-8.1e-4 L 7.0755164,10.384369 z"
     id="path2902-1"
     style="fill:none;stroke:#ffffff;stroke-width:4.17478848;stroke-miterlimit:4;stroke-opacity:1;stroke-dasharray:none" />
  <path
     d="m 68.044047,278.24985 -7.23586,7.32575 0,46.74095 c 0,29.58175 79.992893,64.76013 125.042303,66.99719 l -0.50463,6.97937 26.52913,21.74714 29.36441,-19.8305 0,-7.20604 c 39.39965,-1.25571 128.09916,-39.698 128.11421,-74.69933 l 0.0214,-49.72599 -5.52966,-3.68644 C 364.8102,144.72629 304.237,79.483086 235.67797,49.131355 l -5.84746,-21.927966 c -1.85246,-6.946734 -27.42227,-7.422409 -30.63559,0.381356 l -8.89831,21.610169 C 121.33929,82.781139 61.460742,150.09412 68.044047,278.24985 z"
     id="path3677"
     style="fill:#faf700;fill-opacity:1;stroke:#000000;stroke-width:2;stroke-linecap:butt;stroke-linejoin:miter;stroke-miterlimit:4;stroke-opacity:1;stroke-dasharray:none" />
  <path
     d="M 68.608336,279.09905 C 98.040452,258.46459 137.32551,247.86278 187.43628,244.16968 l 1.20779,-178.669681 c -9.07032,24.714379 -10.93602,46.116141 -11.18792,69.174781 L 176.3755,233.596 c -32.79536,3.43886 -79.606676,16.10671 -107.938,35.98873 l 0.170836,9.51432 z"
     id="path3679"
     style="fill:#000000;stroke:none" />
  <path
     d="M 357.24788,273.71822 C 315.10843,255.35194 287.76517,249.46903 237.66102,245.7839 L 236.45339,67.5 c 9.06912,24.661016 10.93457,46.01657 11.18644,69.02542 l 1.08051,98.70763 c 29.99441,1.27041 67.39276,7.0465 108.68644,29.17373 l -0.1589,9.31144 z"
     id="path3679-4"
     style="fill:#000000;stroke:none" />
  <path
     d="m 216.5,47.125001 c 6.16703,0.923781 9.22489,0.08017 18.5,2.78125 l -0.4375,-8.21875 c -6.73523,-0.606402 -17.83724,2.988508 -18.0625,5.4375 z"
     id="path3705"
     style="fill:#000000;stroke:none" />
  <path
     d="m 78.5,342.375 c -1.383045,-16.38561 20.512555,-26.8229 34.86451,-32.69718 10.32024,-3.90262 21.77397,-7.73555 46.00625,-9.80918 C 150.80565,297.87526 116.77448,298.857 89.5,316.375 c -9.380015,6.02465 -20.348937,15.50669 -11,26 z"
     id="path3707"
     style="fill:#000000;stroke:none" />
  <path
     d="m 240,301.36017 c 28.04661,-1.59604 52.22428,-1.74482 91.125,19.76483 11.4712,6.34285 19.67329,13.33408 19.375,24 4.25338,-4.79839 3.88513,-13.18325 -2.45204,-19.06451 C 335.52808,314.44132 318.28805,307.30607 302.01377,302.41916 280.85205,297.48184 260.30401,296.20208 240,301.36017 z"
     id="path3709"
     style="fill:#000000;stroke:none" />
  <path
     d="m 85.25,342.125 c -4.288474,-25.85281 91.22821,-47.10498 102.4205,-34.46447 5.52577,6.24077 5.13755,23.62706 5.19287,31.44844 0.11618,16.42604 -2.6771,34.76438 -5.71446,54.71537 C 158.98058,393.03804 90.365939,372.96614 85.25,342.125 z"
     id="path3711"
     style="fill:#000000;stroke:none" />
  <path
     d="m 345.625,345 c 1.54465,17.97132 -69.20833,48.04167 -105.875,50.5 -2.02951,-16.63716 -2.17589,-30.15271 -3.75,-45.125 -1.49183,-14.18971 -3.41226,-41.33293 1.7686,-42.28673 C 284.3791,299.50728 344.06312,326.82819 345.625,345 z"
     id="path3713"
     style="fill:#000000;stroke:none" />
  <path
     d="m 199.5,389.1875 c 20.25033,5.49542 28.40887,-7.97575 14.375,-24.125 13.1875,-1.04167 20.09896,13.46602 14.625,24.4375 -5.81908,11.66292 -24.99273,10.2101 -29,-0.3125 z"
     id="path3715"
     style="fill:#000000;stroke:none" />
  <use
     transform="matrix(0.93516129,-0.3542222,0.3542222,0.93516129,-254.01849,16.613454)"
     id="use3717"
     x="0"
     y="0"
     width="430"
     height="480"
     xlink:href="#path3715" />
  <path
     d="m 212.125,253.625 c 20.90202,7.33206 14.70676,37.82172 -6.75,34.125 4.6405,8.18602 26.17004,6.12259 27.75,-9.75 1.93824,-19.47199 -7.34886,-26.28694 -21,-24.375 z"
     id="path3719"
     style="fill:#000000;stroke:none" />
  <use
     transform="matrix(0.9500256,0.10025067,-0.0817827,0.77501381,-43.116929,43.220646)"
     id="use3721"
     x="0"
     y="0"
     width="430"
     height="480"
     xlink:href="#path3719" />
  <use
     transform="matrix(1.0207711,0.10537289,-0.09676475,0.84037042,101.44899,26.450716)"
     id="use3723"
     x="0"
     y="0"
     width="430"
     height="480"
     xlink:href="#path3719" />
  <use
     transform="matrix(0.86356703,0.09793448,-0.09570144,0.88371695,185.47687,36.247791)"
     id="use3725"
     x="0"
     y="0"
     width="430"
     height="480"
     xlink:href="#path3719" />
  <path
     d="m 203.5,197.875 c 21.51188,3.75088 25.35143,-24.48565 1.25,-28.375 7.46727,-3.68149 26.41354,-3.64839 26.375,16.875 -0.0227,12.07393 -16.05282,25.13144 -27.625,11.5 z"
     id="path3729"
     style="fill:#000000;stroke:none" />
  <use
     transform="matrix(1,0,0,0.97572321,-1.5,-89.305184)"
     id="use3731"
     x="0"
     y="0"
     width="430"
     height="480"
     xlink:href="#path3729" />
  <path
     d="m 105.9375,247.5 -0.0625,-6.875 25.3125,-7.4375 -0.0625,6.9375 -25.1875,7.375 z"
     id="path3735"
     style="fill:#000000;stroke:none" />
  <path
     d="m 107.8125,234.1875 -0.0625,-7.3125 23.3125,-6.4375 0,7.3125 -23.25,6.4375 z"
     id="path3737"
     style="fill:#000000;stroke:none" />
  <path
     d="m 109.5,221.5 -0.0884,-7.59467 23.52589,-6.59911 -0.0625,8.00628 L 109.5,221.5 z"
     id="path3739"
     style="fill:#000000;stroke:none" />
  <path
     d="m 112.62056,207.28921 0.0625,-7 23.3125,-5.60355 0.125,6.875 -23.5,5.72855 z"
     id="path3741"
     style="fill:#000000;stroke:none" />
  <path
     d="M 114.82322,194.49556 115,188.875 l 23.3125,-6.25 0.0625,6.625 -23.55178,5.24556 z"
     id="path3743"
     style="fill:#000000;stroke:none" />
  <path
     d="m 120.75318,182.92373 0.0625,-6.4375 21.24682,-4.61123 -0.0625,5.72097 -21.24682,5.32776 z"
     id="path3745"
     style="fill:#000000;stroke:none" />
  <path
     d="m 125.875,170.375 -0.0625,-5.625 19.48484,-4.08578 0,5.78661 -19.42234,3.92417 z"
     id="path3747"
     style="fill:#000000;stroke:none" />
  <path
     d="m 131.25001,158.6875 0.0625,-6.5 17.89331,-3.76831 0.0442,6.71209 -18,3.55622 z"
     id="path3749"
     style="fill:#000000;stroke:none" />
  <path
     d="m 138.25,146.125 0.0625,-5.63886 14.75,-2.5442 0.004,5.58839 -14.8165,2.59467 z"
     id="path3751"
     style="fill:#000000;stroke:none" />
  <path
     d="m 145.6875,135.875 -0.0625,-5 12.75,-2.25 -0.125,4.875 -12.5625,2.375 z"
     id="path3753"
     style="fill:#000000;stroke:none" />
  <path
     d="m 287.3125,119.375 7.15533,8.54105 -5.5,0.0335 -1.65533,-8.57452 z"
     id="path3755"
     style="fill:#000000;stroke:none" />
  <path
     d="m 290.875,132.10938 6.375,0.0781 2.35095,5.4375 -6.78845,-0.0625 -1.9375,-5.45312 0,2e-5 z"
     id="path3757"
     style="fill:#000000;stroke:none" />
  <path
     d="m 295.375,142.5625 7.68934,0.0625 2.125,5.9375 -7.62684,-0.1875 -2.1875,-5.8125 z"
     id="path3761"
     style="fill:#000000;stroke:none" />
  <path
     d="m 299.625,153.9375 8.5599,0.0107 2.49372,6.73928 -8.80362,-0.1875 -2.25,-6.5625 z"
     id="path3763"
     style="fill:#000000;stroke:none" />
  <path
     d="m 303.88702,166.85669 9.42548,-0.0442 2,6.875 -9.61298,0.0442 -1.8125,-6.875 z"
     id="path3765"
     style="fill:#000000;stroke:none" />
  <path
     d="m 307.61872,179.76516 9.92677,-0.1875 2.56694,7.34283 -10.28346,-0.0808 -2.21025,-7.07452 z"
     id="path3767"
     style="fill:#000000;stroke:none" />
  <path
     d="m 310.88388,191.95267 11.4375,0.1875 2.11612,7.29733 -11.25,-0.1875 -2.30362,-7.29733 z"
     id="path3769"
     style="fill:#000000;stroke:none" />
  <path
     d="m 313.8125,205 c 2.70659,0.0639 8.94315,0.0237 11.875,0.375 l 2.517,8.15717 c -4.88991,-0.52844 -9.82852,-0.98017 -13.392,-1.18842 l -1,-7.34375 z"
     id="path3771"
     style="fill:#000000;stroke:none" />
  <path
     d="m 329.9375,220.5625 1.5,7.5625 c -4.6483,-2.29799 -9.19643,-5.17029 -16.22947,-5.48744 l -0.083,-4.51256 c 2.47948,-0.53808 10.41341,0.47845 14.81245,2.4375 z"
     id="path3773"
     style="fill:#000000;stroke:none" />
  <path
     d="m 315.3125,227.3125 c 4.82504,0.38264 9.61514,1.92075 16.125,5.65625 l 1.25,5.71875 c -6.62192,-3.42197 -11.85222,-5.06727 -17.3125,-6 l -0.0625,-5.375 z"
     id="path3775"
     style="fill:#000000;stroke:none" />
  <path
     d="m 315.1875,238 c 6.35227,0.94446 12.96023,3.59723 17.6875,6.5 l 1,5.875 c -7.52256,-2.85864 -13.1199,-4.59425 -18.6875,-6.3125 l 0,-6.0625 z"
     id="path3777"
     style="fill:#000000;stroke:none" />
  <path
     d="m 151.625,339.625 c 4.53479,3.21716 15.3467,7.43449 25.625,9.25"
     id="path3779"
     style="fill:none;stroke:#faf700;stroke-width:2;stroke-linecap:round;stroke-linejoin:miter;stroke-miterlimit:4;stroke-opacity:1;stroke-dasharray:none" />
  <path
     d="m 147.0625,349.25 c 9.67999,6.28657 21.15889,8.7334 30.375,9.625"
     id="path3779-0"
     style="fill:none;stroke:#faf700;stroke-width:2;stroke-linecap:round;stroke-linejoin:miter;stroke-miterlimit:4;stroke-opacity:1;stroke-dasharray:none" />
  <path
     d="m 142.9375,357.875 c 8.13568,5.84037 23.50403,11.08849 34.125,11.875"
     id="path3779-4"
     style="fill:none;stroke:#faf700;stroke-width:2;stroke-linecap:round;stroke-linejoin:miter;stroke-miterlimit:4;stroke-opacity:1;stroke-dasharray:none" />
  <path
     d="m 138.4375,367.75 c 7.51068,4.84037 26.37903,11.71349 37.875,13"
     id="path3779-8"
     style="fill:none;stroke:#faf700;stroke-width:2;stroke-linecap:round;stroke-linejoin:miter;stroke-miterlimit:4;stroke-opacity:1;stroke-dasharray:none" />
  <path
     d="m 258.7127,334.60117 c 6.22813,0.30442 21.33168,-1.47786 29.07976,-4.15425"
     id="path3852"
     style="fill:none;stroke:#faf700;stroke-width:2;stroke-linecap:round;stroke-linejoin:miter;stroke-miterlimit:4;stroke-opacity:1;stroke-dasharray:none" />
  <path
     d="m 261.32015,344.79313 c 6.22813,0.30442 21.59685,-2.36174 29.34493,-5.03813"
     id="path3852-2"
     style="fill:none;stroke:#faf700;stroke-width:2;stroke-linecap:round;stroke-linejoin:miter;stroke-miterlimit:4;stroke-opacity:1;stroke-dasharray:none" />
  <path
     d="m 271.48482,366.2715 c 7.64234,-0.57946 17.4863,-3.54358 25.25125,-7.89935"
     id="path3852-5"
     style="fill:none;stroke:#faf700;stroke-width:2;stroke-linecap:round;stroke-linejoin:miter;stroke-miterlimit:4;stroke-opacity:1;stroke-dasharray:none" />
  <path
     d="m 271.83837,375.64066 c 11.07015,-1.39073 18.79747,-4.68552 25.63261,-9.104"
     id="path3852-1"
     style="fill:none;stroke:#faf700;stroke-width:2;stroke-linecap:round;stroke-linejoin:miter;stroke-miterlimit:4;stroke-opacity:1;stroke-dasharray:none" />
  <path
     d="m 185.80224,400.17588 0.53181,-7.82658"
     id="path3894"
     style="fill:none;stroke:#000000;stroke-width:2;stroke-linecap:butt;stroke-linejoin:miter;stroke-miterlimit:4;stroke-opacity:1;stroke-dasharray:none" />
  <path
     d="m 241.26483,401.57825 -0.66292,-7.33623"
     id="path3894-7"
     style="fill:none;stroke:#000000;stroke-width:2;stroke-linecap:butt;stroke-linejoin:miter;stroke-miterlimit:4;stroke-opacity:1;stroke-dasharray:none" />
</svg>
