<?xml version="1.0" encoding="UTF-8" standalone="no"?>
<!-- Created with Inkscape (http://www.inkscape.org/) -->

<svg
   xmlns:svg="http://www.w3.org/2000/svg"
   xmlns="http://www.w3.org/2000/svg"
   version="1.1"
   width="390"
   height="480"
   id="svg4228">
  <defs
     id="defs4232" />
  <path
     d="M 3.958522,25.53126 C 105.15867,-4.2015265 267.95649,-8.1601775 386.05624,24.778011 364.81007,104.27133 369.75708,176.75193 371.68701,270.9481 373.44548,356.77592 289.67739,459.50984 195.59307,479.47028 107.45025,466.13393 20.069531,370.99786 19.408617,272.51639 19.236949,246.93644 19.830085,221.59605 20.133195,196.53246 20.842808,137.85573 19.962838,80.696062 3.958522,25.53126 z"
     id="path2902"
     style="fill:#207dbf;fill-opacity:1;stroke:#999999;stroke-opacity:1" />
  <path
     d="M 20.62696,196.5391 195.0458,2.1239779 369.6356,204.25534 c 0.59185,23.64508 1.45304,47.54314 1.56993,70.8503 L 195.27061,73.380791 19.889524,269.64045 c -0.05405,-14.82808 -0.0929,-49.70376 0.737436,-73.10135 z"
     id="path2873"
     style="fill:#f2f2f2;stroke:none" />
  <path
     d="m 99.863852,357.2151 c -5.037237,5.57817 2.996198,8.60297 5.932508,5.3033 L 249.61469,200.90256 c 2.84606,-3.19826 -2.36726,-6.89808 -4.94376,-4.04489 L 99.863852,357.2151 z"
     id="path2875"
     style="fill:#f2f2f2;stroke:#999999;stroke-opacity:1" />
  <path
     d="m 228.9408,201.44187 c 22.41318,-6.18232 16.13971,11.30244 30.83106,21.9323 11.88543,8.59965 27.90842,7.05652 39.90958,-4.40444 8.69976,32.38488 -28.1739,54.2451 -47.99936,54.02176 7.94523,-16.10111 3.67722,-30.89504 -1.55628,-42.20939 -8.3283,-18.00504 -25.75564,-2.48085 -21.185,-29.34023 z"
     id="path2877"
     style="fill:#f2f2f2;stroke:#999999;stroke-width:1px;stroke-linecap:butt;stroke-linejoin:miter;stroke-opacity:1" />
  <path
     d="m 290.23699,356.04918 c 5.0452,5.57095 -3.48234,9.1333 -6.41865,5.83363 L 140.00001,200.26697 c -2.84606,-3.19826 2.67254,-7.15955 5.25312,-4.31006 l 144.98386,160.09227 z"
     id="path2875-4"
     style="fill:#f2f2f2;stroke:#999999;stroke-width:1px;stroke-linecap:butt;stroke-linejoin:miter;stroke-opacity:1" />
  <path
     d="m 161.49505,201.00825 c -22.03183,-7.32639 -18.01901,10.00051 -31.33953,21.29671 -11.7967,10.00395 -27.65418,9.21753 -39.401103,-3.76885 -8.69976,32.38488 28.173903,54.2451 47.999353,54.02176 -7.94523,-16.10111 -3.67722,-30.89504 1.55628,-42.20939 8.3175,-17.98168 25.71044,-2.52107 21.20268,-29.23591 -0.006,-0.0347 -0.0118,-0.0695 -0.0177,-0.10432 z"
     id="path2877-0"
     style="fill:#f2f2f2;fill-opacity:1;stroke:#999999;stroke-width:1px;stroke-linecap:butt;stroke-linejoin:miter;stroke-opacity:1" />
</svg>
