<?xml version="1.0" encoding="UTF-8" standalone="no"?>
<!-- Created with Inkscape (http://www.inkscape.org/) -->
<svg xmlns:svg="http://www.w3.org/2000/svg" xmlns="http://www.w3.org/2000/svg" version="1.1"  width="100%" height="100%" viewBox="0 0 390 480" id="svg4228">
  <defs id="defs4232"/>
  <path d="m 0.51202379,0.50512952 c 129.66265621,0 259.32532621,0 388.98797621,0 C 389.48983,115.23328 370.33544,349.8309 194.89467,479.37706 21.249382,349.77255 0.5931986,115.2575 0.51202379,0.50512952 z" id="path4240" style="fill:#207dbf;fill-opacity:1;stroke:#999999;stroke-width:0.99999905;stroke-opacity:1"/>
  <path d="m 2.4718063,52.555645 c 3.8706489,11.378737 6.4420099,22.142221 19.8660517,28.30406 33.103136,15.194844 17.076677,38.209585 38.649439,44.822245 13.622579,4.1757 22.286962,14.41541 28.404198,29.47889 9.874619,24.3159 32.841705,14.29109 38.757515,39.09263 4.42391,18.54689 10.94385,18.44062 19.6832,26.18559 8.32908,7.38138 3.44882,16.83004 5.08239,22.74169 1.60409,5.80498 7.26071,7.7844 6.11214,17.43338 -2.45268,20.60467 -17.122,25.22948 -4.87242,46.28831 11.34406,19.50211 -4.47453,30.91036 -4.08606,45.0972 0.39976,14.59936 4.7483,17.68238 5.7009,30.28009 1.14847,15.18784 -6.36108,25.83402 -7.17334,37.22054 -0.48184,6.75466 0.92865,12.87406 6.85237,25.56163 C 64.450485,356.82415 11.91755,221.7329 2.4718063,52.555645 z" id="path2839" style="fill:#d9d9d9;fill-opacity:1;stroke:none"/>
  <path d="m 387.60958,52.965273 c -2.78586,-0.867948 -6.18292,-0.144701 -7.62661,3.609297 -12.01063,31.230989 -16.72892,25.271887 -36.36376,39.559796 -14.42731,10.498484 -9.857,29.242744 -38.18653,44.695644 -12.86335,7.01657 -12.02403,20.08515 -20.45444,32.43213 -6.45387,9.45219 -20.84584,12.6382 -28.12589,18.94812 -7.28005,6.30992 -6.79498,14.67646 -11.03981,23.21888 -3.87054,7.78917 -17.45621,5.82548 -19.52342,17.29939 -1.50358,8.3455 8.01409,21.04804 7.33636,35.75526 -0.68502,14.86561 -6.58568,14.87235 -6.25822,28.74747 0.33627,14.24854 7.10632,12.53381 5.78906,32.08833 -0.92816,13.77832 -6.89118,14.6461 -6.48713,27.24593 0.33219,10.35877 6.09119,20.42145 5.36653,32.73339 -1.42373,24.18919 -11.52722,33.78891 3.35841,55.12263 C 335.9641,348.845 381.25557,196.00323 387.60958,52.965273 z" id="path2847" style="fill:#d9d9d9;fill-opacity:1;stroke:none"/>
  <path d="m 60.853958,1.0091 c 2.107209,25.517934 18.461443,28.363071 32.219788,34.652899 15.073264,6.890962 8.031524,28.50515 27.898544,39.308384 11.68576,6.354446 24.59773,11.13409 28.84067,29.428307 3.19214,13.76354 30.15239,22.04034 36.13428,31.36404 3.69276,5.75573 4.69372,7.80282 8.37955,20.8171 3.48122,-9.70641 8.4933,-22.9885 17.72701,-29.26715 9.8327,-6.68595 17.57068,-4.978 23.9797,-15.17148 6.28496,-9.99614 2.67564,-14.633225 11.02432,-22.697666 16.10997,-15.561498 26.87772,-8.849352 36.66815,-34.631119 3.86859,-10.187412 9.26668,-20.931717 23.17955,-24.833422 C 319.92256,26.328516 326.52061,13.21627 329.9606,1.0091 l -269.106642,0 z" id="path2885" style="fill:#d9d9d9;fill-opacity:1;stroke:none"/>
</svg>