<?xml version="1.0" encoding="UTF-8" standalone="no"?>
<!-- Created with Inkscape (http://www.inkscape.org/) -->

<svg
   xmlns:svg="http://www.w3.org/2000/svg"
   xmlns="http://www.w3.org/2000/svg"
   version="1.1"
   width="390"
   height="480"
   id="svg4228">
  <defs
     id="defs4232" />
  <path
     d="M 0,0 C 130,0 260,0 390,0 389.98981,114.99797 370.78556,350.14732 194.88837,479.99815 20.79131,350.08886 0.081386,115.02225 0,0 z"
     id="path4240-0"
     style="color:#000000;fill:#d61a1a;fill-opacity:1;fill-rule:nonzero;stroke:none;marker:none;visibility:visible;display:inline;overflow:visible;enable-background:accumulate" />
  <path
     d="m 133.34746,214.32203 c -12.26683,2.85047 -29.31776,6.22851 -37.500002,3.30509 -12.71451,-4.54274 -17.462584,-44.76584 -22.627119,-63.81356 -4.693807,-17.31159 -13.595087,-28.69479 -25.995762,-42.07627 0.50336,-3.98564 -0.884262,-10.35686 -4.830509,-8.89831 -14.206779,5.2509 -17.291903,-14.23101 -13.220339,-29.04661 18.68644,24.194916 52.005213,60.69962 54.533898,71.05933 4.027017,16.49817 2.089971,32.80812 16.875313,49.4442 0.85632,-39.14787 10.63356,-69.45779 19.14582,-74.92036 11.74693,-7.53836 21.53092,-6.28169 30.27733,-12.0783 9.34415,-6.19276 21.38243,-22.592614 18.80067,-25.853785 0,0 -5.53666,3.543433 -8.20786,2.284394 -29.78458,-14.038629 -31.47165,-5.767778 -38.98252,-7.048377 -4.2762,-0.729089 -3.96593,-5.536878 -5.43814,-7.415632 11.79156,1.501706 17.05724,3.177473 17.00529,-1.303353 -0.0583,-5.0293 -5.6393,0.254626 -15.63814,-3.554257 -3.55994,-1.356097 -3.86782,-11.509906 0.36779,-12.295106 9.96446,-1.847218 17.81019,0.554106 26.53432,0.388892 10.02063,-0.284854 12.00439,-4.825391 17.88741,-6.471825 13.11018,-3.669041 14.10246,2.407812 25.34798,0.179773 -9.27856,-3.641571 -18.09546,-8.24777 -18.87616,-15.640243 -0.56683,-5.36737 30.54664,-9.976729 52.49369,-7.910008 -9.70223,11.716511 -36.65207,3.623991 -33.17448,12.903771 2.27502,6.070792 14.22128,0.272256 12.22455,12.224558 5.31108,-5.076203 9.91639,-9.830505 13.75902,-12.18468 7.45208,-4.565488 13.64713,1.322291 52.31391,-7.550462 -2.60939,9.517457 -18.47309,11.239544 -43.14549,13.123423 -5.96395,0.455382 -9.12434,7.791185 -8.80888,11.325693 11.22831,1.995337 18.50159,4.367344 36.13436,5.752733 14.42271,-16.74416 30.3439,-28.015586 52.49369,-16.539108 -17.08015,2.210419 -26.19145,-3.716871 -39.87874,17.977292 2.2801,4.818553 17.1953,8.297087 25.4969,6.83137 9.76611,-1.724288 30.77505,-29.567555 63.81939,-3.775231 -16.61301,-2.726053 -33.71027,-9.289816 -47.74887,7.919042 5.99617,13.619741 21.4081,19.223329 43.61409,12.934616 L 362.5929,71.468704 c 0.70044,5.492539 0.54027,8.776575 -4.30552,13.03089 7.96617,5.042543 8.75191,9.354073 1.43818,12.404331 -2.08095,3.452585 2.04369,8.018415 3.6827,12.435185 -6.88423,0.37718 -12.39318,-8.26538 -16.62635,-14.053141 -22.40876,3.396672 -39.57405,-4.2554 -52.49369,-20.853658 -17.85158,7.685766 -23.57678,-3.377215 -36.80874,-6.817665 -14.3141,-3.721818 -24.31134,-2.031657 -39.2352,-7.384395 7.94859,5.588972 19.06705,8.800538 18.15707,21.033431 23.51721,14.100953 14.01026,34.056698 18.51661,51.594828 2.81745,10.96516 17.05589,15.26327 28.79288,26.32692 16.0743,15.15212 42.92327,17.76994 51.74538,1.35811 1.72969,7.71168 1.20646,14.80892 -4.49432,20.49411 7.20584,5.61446 16.17281,11.29962 13.84251,19.2357 -2.22018,7.56104 -8.05974,-7.89443 -14.20206,-8.98864 1.88569,16.0187 -3.38171,20.24061 -8.26955,22.29184 -0.0623,-31.33942 -9.55552,-31.7331 -17.21833,-33.61754 -7.72445,-1.8996 -12.05947,-4.61852 -18.73625,-7.01114 -2.84776,16.84902 4.02658,27.12318 16.35933,32.89844 -20.72067,4.35372 -26.61695,-18.3996 -27.14571,-39.72981 -11.03421,-4.94856 -19.4523,-13.16729 -26.42662,-23.19071 -1.83109,8.85212 -1.61925,17.64519 12.22456,35.41527 -8.80023,2.67462 -19.64864,-15.13761 -22.72211,-25.36605 -1.80215,-5.99752 3.61384,-21.65251 3.40875,-28.13781 -0.30124,-9.52584 -1.00875,-28.815983 -7.11326,-27.03441 -8.10948,2.36671 -12.57264,12.81279 -3.05614,34.33663 -13.99296,-2.6248 -17.26797,-27.78015 -2.33704,-45.482551 -4.80197,-7.996863 -6.91346,-17.273303 -25.70753,-19.77502 21.23275,35.029821 -7.56848,54.225831 -13.30319,80.538271 -1.12319,5.15349 -4.81393,10.28778 -3.59546,15.46047 1.29828,5.51151 6.59237,30.21377 10.06728,35.23549 8.06685,11.65771 45.33144,28.36749 64.26882,72.89791 2.66706,1.23081 3.82708,0.82448 6.02239,-0.53932 4.5284,6.03076 8.28484,13.65163 20.85366,15.37059 -10.14089,12.169 -19.83944,5.7449 -24.98844,-2.6966 l -6.6516,4.04489 c 7.14364,8.57596 0.56781,29.00056 -2.06738,46.02187 -1.49163,9.63479 3.99987,18.10758 5.99754,27.03882 1.69643,7.58441 -13.74768,6.85439 -40.67796,76.90678 -3.60024,-2.6461 -8.74369,-0.14817 -14.36441,3.94067 -1.10587,3.38983 -3.04668,6.77967 -5.84746,10.1695 -5.44491,1.12779 -10.88983,0.64809 -16.33474,-0.0636 4.91165,-9.81121 10.55071,-21.35671 18.1144,-19.89406 16.02533,3.09895 35.21324,-56.1064 35.84746,-71.5678 1.40536,-34.26083 -57.92527,-35.08946 -48.81356,-86.18644 -15.7592,-26.11949 -56.43129,-32.85465 -65.84746,-55.67796 5.14798,-1.20263 8.39002,-2.53242 10.80509,-3.55933 l 0,3e-5 3e-5,0 z"
     id="path2827"
     style="fill:#ededed;fill-opacity:1;stroke:none" />
  <path
     d="m 100.86865,177.10805 c 0.12975,-7.39083 2.13387,-20.85415 4.19491,-27.87077 C 96.387881,137.77435 100.0274,121.33278 94.201005,113.26326 76.324816,88.504829 58.08362,63.787262 42.246634,37.93841 c -4.499172,7.459116 -5.742457,26.144053 3.05614,27.685029 1.596637,-4.72389 8.998086,-6.473726 9.707737,7.190916 11.544471,15.022914 26.884103,33.559365 31.460259,49.976875 4.649079,16.67911 1.49663,45.32977 14.39788,54.31682 z"
     id="path2829"
     style="fill:#ededed;fill-opacity:1;stroke:none" />
  <path
     d="m 175.15353,260.29271 c 4.05403,2.69231 9.06798,8.62986 12.40182,13.35011 -3.09786,17.64036 1.17144,25.57824 4.24964,31.17866 -5.46169,15.28689 3.86549,30.45481 6.88145,45.13615 -1.0505,8.39357 -22.67125,5.64985 -46.80128,2.64023 -22.68274,-2.82911 -47.96652,-5.65652 -48.77462,-6.8987 8.44134,-3.27488 4.87665,-6.22194 -0.31711,-7.56357 l -2.917374,-7.37288 c -4.747723,0.22143 -6.76775,-0.33818 -9.25951,-0.76271 -4.662103,-5.16019 -8.449739,-10.79226 -8.752139,-18.30509 4.566334,-0.97458 13.110456,-0.44944 17.504279,3.55933 6.099734,5.56518 5.919314,13.05085 8.878974,19.57627 5.96642,-2.47335 6.9642,3.71687 12.5139,5.81661 18.22298,1.06226 39.89464,4.12433 54.65641,0.19255 l -8.06165,0.60101 c -11.62724,-25.6356 -22.783,-26.72374 -21.94377,-37.24577 1.21069,-15.17917 5.79544,-21.81034 11.41926,-25.69639 5.64705,-3.90211 15.57908,-6.66938 18.32172,-18.20581 z"
     id="path2831"
     style="fill:#ededed;fill-opacity:1;stroke:none" />
  <path
     d="m 119.3483,61.656224 c 0.1862,-2.326421 2.14653,-3.357698 4.46365,-2.215829 -3.20353,-2.900036 -5.50265,-0.568534 -4.46365,2.215829 z"
     id="path3695"
     style="fill:#d61a1a;fill-opacity:1;stroke:none" />
  <path
     d="m 114.1266,62.460205 c -4.98487,-2.836801 -8.0098,2.068761 -3.46267,4.460664 9.30953,4.897038 13.04482,4.060046 20.27267,4.002179 3.54864,-0.02841 4.7821,-4.894571 0.40305,-5.093971 -6.63384,-0.30207 -9.27583,1.148028 -17.213,-3.368872 l -5e-5,0 z"
     id="path3721"
     style="fill:#ededed;fill-opacity:1;stroke:#d61a1a;stroke-width:0.78288448;stroke-linecap:round;stroke-linejoin:round;stroke-miterlimit:4;stroke-opacity:1;stroke-dasharray:none" />
  <path
     d="m 170.91102,59.936439 c -1.7136,1.188671 -4.47131,1.51638 -5.40255,-0.286016 -0.95513,-1.848644 -0.60199,-5.544527 3.46399,-3.81356 3.08624,1.313871 5.29195,4.533899 6.41949,6.800848 -1.79231,-1.548868 -2.63481,-2.178373 -4.48093,-2.701272 z"
     id="path2849"
     style="fill:#d61a1a;fill-opacity:1;stroke:none" />
</svg>
