<?xml version="1.0" encoding="UTF-8" standalone="no"?>
<!-- Created with Inkscape (http://www.inkscape.org/) -->

<svg
   xmlns:svg="http://www.w3.org/2000/svg"
   xmlns="http://www.w3.org/2000/svg"
   xmlns:xlink="http://www.w3.org/1999/xlink"
   version="1.1"
   width="390"
   height="480"
   id="svg4228">
  <defs
     id="defs4232" />
  <path
     d="m 0.51202379,0.50512952 c 129.66265621,0 259.32532621,0 388.98797621,0 C 389.48983,115.23328 370.33544,349.8309 194.89467,479.37706 21.249382,349.77255 0.5931986,115.2575 0.51202379,0.50512952 z"
     id="path4240-0-1"
     style="fill:#d9d9d9;fill-opacity:1;stroke:#999999;stroke-width:0.99999905;stroke-opacity:1" />
  <path
     d="m 108.64657,136.68977 c 5.05198,0.5254 4.43619,7.60053 -1.61267,7.58989 -8.321774,-0.0146 -8.698657,-18.89553 11.37392,-19.51084 28.78883,-0.88249 35.89518,62.0958 -14.42477,60.18881 C 43.823777,182.67775 40.628461,85.977085 116.82203,79.576275 156.75012,76.222027 192.31331,113.64729 193.22034,159.15254 206.28059,115.10442 179.43059,52.163184 112.5,54.025428 0.30357015,57.147126 3.5961202,218.70696 108.81356,216.96972 191.57405,215.60791 190.28629,98.357702 119.61864,97.815929 66.767861,97.410749 64.414182,165.61718 105.50847,167.66949 c 13.33958,0.6662 21.27559,-11.29757 21.37783,-18.88352 0.17939,-13.31156 -13.07648,-19.81284 -18.23973,-12.0962 z"
     id="path2827"
     style="fill:#207dbf;fill-opacity:1;stroke:none" />
  <use
     transform="matrix(-0.57130772,0.82073594,-0.82073594,-0.57130772,456.70283,127.33966)"
     id="use3754"
     x="0"
     y="0"
     width="390"
     height="480"
     xlink:href="#path2827" />
  <use
     transform="matrix(-0.66611986,-0.74584471,0.74584471,-0.66611986,166.96944,463.88035)"
     id="use3756"
     x="0"
     y="0"
     width="390"
     height="480"
     xlink:href="#path2827" />
</svg>
