<?xml version="1.0" encoding="UTF-8" standalone="no"?>
<!-- Created with Inkscape (http://www.inkscape.org/) -->

<svg
   xmlns:svg="http://www.w3.org/2000/svg"
   xmlns="http://www.w3.org/2000/svg"
   xmlns:xlink="http://www.w3.org/1999/xlink"
   version="1.1"
   width="390"
   height="480"
   id="svg4228">
  <defs
     id="defs4232" />
  <path
     d="m 0.51202379,0.50512952 c 129.66265621,0 259.32532621,0 388.98797621,0 C 389.48983,115.23328 370.33544,349.8309 194.89467,479.37706 21.249382,349.77255 0.5931986,115.2575 0.51202379,0.50512952 z"
     id="path4240-0-1"
     style="fill:#d9d9d9;fill-opacity:1;stroke:#999999;stroke-width:0.99999905;stroke-opacity:1" />
  <use
     transform="translate(164,0)"
     id="use3754"
     x="0"
     y="0"
     width="390"
     height="480"
     xlink:href="#path5156-0" />
  <path
     d="m 40.66102,152.54237 c 24.14158,12.42994 77.76622,11.7297 102.45762,-3.81356 l -11.69491,-34.32203 c -19.39018,6.05624 -26.83384,-6.04835 -26.31356,-10.29661 0.569,-4.646075 6.06761,-3.32479 8.89831,0.63559 2.04765,-0.32523 3.0475,-1.69826 3.17796,-3.94068 35.63075,2.7361 20.62508,-16.912728 80.97458,-5.593214 3.76162,0.705551 1.24458,-18.747981 -2.0339,-24.152543 -2.10978,-3.477966 -18.33489,-3.935904 -23.58051,-3.050847 -20.29424,3.424101 -28.6348,9.298267 -36.67373,9.025423 -7.14754,-0.242589 -15.06214,-3.420596 -15.44491,-7.245762 -4.18815,0.920305 -17.75423,-7.545887 -16.56633,-12.973567 l -40.8534,0.202244 c -3.92853,0.01945 1.29553,6.934633 -0.0449,6.921257 -2.36835,-0.02363 -5.96759,-1.180218 -5.96621,0.07865 l 0.0337,30.819819 c 0.002,2.008828 5.84794,-0.202749 6.0224,1.213467 3.38669,27.492343 -22.14382,49.334983 -22.20196,51.010563 l -0.19021,5.4818 -4e-5,0 z"
     id="path5156-0"
     style="fill:#207dbf;fill-opacity:1;stroke:none" />
  <use
     transform="matrix(1.125487,0,0,1.125487,80.897571,158.3214)"
     id="use3756"
     x="0"
     y="0"
     width="390"
     height="480"
     xlink:href="#path5156-0" />
</svg>
