<?xml version="1.0" encoding="UTF-8" standalone="no"?>
<!-- Created with Inkscape (http://www.inkscape.org/) -->

<svg
   xmlns:svg="http://www.w3.org/2000/svg"
   xmlns="http://www.w3.org/2000/svg"
   xmlns:xlink="http://www.w3.org/1999/xlink"
   version="1.1"
   width="390"
   height="480"
   id="svg4228">
  <defs
     id="defs4232" />
  <path
     d="m 0.51202379,0.50512952 c 129.66265621,0 259.32532621,0 388.98797621,0 C 389.48983,115.23328 370.33544,349.8309 194.89467,479.37706 21.249382,349.77255 0.5931986,115.2575 0.51202379,0.50512952 z"
     id="path4240-0-1"
     style="fill:#faf700;fill-opacity:1;stroke:#9e832a;stroke-width:0.99999905;stroke-opacity:1" />
  <path
     d="m 51.284397,136.79096 286.463783,0.005 c 3.18201,-17.60887 -10.99751,-34.52499 -27.65998,-33.25742 -4.45799,0.33914 -4.19859,5.3759 -11.12615,5.08475 -3.79217,-0.15938 -5.01904,-3.16644 -7.29814,-5.11786 0.0192,0.0791 -21.2336,-0.0284 -21.22631,4.4e-4 -13.45658,6.1035 -29.68107,12.90901 -43.88877,12.93522 -18.80989,0.0347 -58.45162,-13.16952 -42.26695,-41.567799 5.42193,-9.513512 14.97542,-18.313963 28.65451,-25.662077 l 0,-5.926907 c -28.95982,-5.314542 -54.8691,19.683184 -67.44064,30.698803 l -17.27972,8.516949 c -5.92088,2.91833 -6.76167,9.841498 -9.19928,12.076271 -3.50243,3.211004 -6.65583,-0.503549 -14.17185,3.81356 -2.52348,1.449459 -4.855367,3.16099 -5.609695,7.99258 l -12.431454,0 c -2.03252,-2.05831 -4.886437,-4.58614 -8.885878,-4.57905 -10.956386,0.0186 -26.845237,9.32874 -26.633476,34.98754 z"
     id="path2830"
     style="fill:#000000;stroke:none" />
  <path
     d="m 143.74815,93.481011 a 4.9325703,5.0438325 0 0 1 -9.86514,0 4.9325703,5.0438325 0 1 1 9.86514,0 z"
     id="path2829"
     style="fill:#faf700;fill-opacity:1;stroke:none" />
  <use
     transform="translate(0,132)"
     id="use3615"
     x="0"
     y="0"
     width="390"
     height="480"
     xlink:href="#path2830" />
  <use
     transform="translate(0,132)"
     id="use3617"
     x="0"
     y="0"
     width="390"
     height="480"
     xlink:href="#path2829" />
</svg>
