<?xml version="1.0" encoding="UTF-8" standalone="no"?>
<!-- Created with Inkscape (http://www.inkscape.org/) -->

<svg
   xmlns:svg="http://www.w3.org/2000/svg"
   xmlns="http://www.w3.org/2000/svg"
   version="1.1"
   width="390"
   height="480"
   id="svg4228">
  <defs
     id="defs4232" />
  <path
     d="M 0,0 C 130,0 260,0 390,0 389.98981,114.99797 379.05621,365.76167 194.88837,479.99815 11.017785,363.80397 0.08138531,115.02225 0,0 z"
     id="path4240"
     style="fill:#d61a1a;fill-opacity:1;stroke:none" />
  <path
     d="m 108.11799,375.42856 c -4.15374,-1.28239 21.87469,-6.33411 21.13873,-20.64039 -0.38197,-7.42506 -12.07447,-14.50071 -21.58193,-16.73953 -11.945176,-2.81285 -21.422139,1.338 -23.302538,0.0942 -1.701619,-1.12554 21.802068,-20.16553 54.232658,4.42077 19.40005,-16.05874 37.07576,-16.95244 37.30288,-20.40423 1.20308,-18.28481 2.65981,-60.93935 -2.69659,-90.69543 -0.89332,-4.9626 -12.91633,-14.061 -21.9323,-14.83126 -10.24369,-0.87514 -18.34126,13.43062 -24.71877,20.76377 21.85895,7.16661 26.92047,21.22005 24.26934,33.88719 -4.35359,20.80153 -26.4522,30.84635 -35.50515,48.26903 -26.622753,-19.99847 -36.770359,-30.39459 -36.044466,-56.80824 0.501735,-18.25705 17.886879,-25.55421 34.516396,-23.5952 -3.2941,9.29193 -1.35452,18.74722 2.22909,23.06921 -2.59007,-7.80342 -2.43048,-21.93957 1.41131,-25.72086 12.94524,-12.74136 13.66681,-19.08258 24.76372,-27.77491 C 111.14114,190.0496 90.360511,187.58497 87.099975,190.6555 110.61042,193.48304 108.68628,217.43939 98.156009,226.16065 85.474628,236.66347 64.408265,239.24961 62.201427,259.23887 37.166953,243.93356 24.901238,208.67055 43.86459,187.3297 c 11.592967,-13.04641 31.185322,-10.00389 38.736545,-2.00063 -7.676954,6.20514 -10.286533,10.23388 -10.612989,14.7092 4.228892,-8.15735 18.559426,-16.35489 16.408795,-19.09689 -5.029899,-6.413 -9.911629,-13.12234 -16.083288,-17.25182 -17.162136,13.76177 -36.36382,5.1084 -40.853394,-4.04489 -8.356347,-17.03682 -9.737664,-37.64387 -10.966147,-59.14528 31.055632,9.60456 37.82866,-2.29553 59.640986,14.43448 20.815092,15.96514 6.499185,35.46139 -2.120042,41.27012 -10.405803,-8.9721 -13.665386,-11.69017 -18.248822,-12.94818 10.625765,8.56208 41.052856,39.98471 50.614336,42.27616 19.1505,4.58949 43.0529,14.4323 64.89802,31.81981 1.59279,1.26777 3.89571,-18.06427 5.48307,-27.14571 0.41557,-2.37751 -7.19808,-7.39976 -11.78229,-10.84541 -9.89231,15.92215 -32.56646,11.8389 -42.77879,1.85676 -13.62204,-13.31499 -6.52955,-30.70834 -20.85365,-50.06675 23.87799,-5.60421 51.46922,-3.77608 65.50053,7.15441 12.8132,9.98157 11.67968,23.11658 2.06568,31.84322 -5.11256,1.25464 -15.35343,-3.59062 -18.08263,-6.89619 1.71695,4.72264 7.99821,9.05421 18.35938,9.65071 3.85261,2.32679 11.03201,11.82881 11.5135,7.79633 1.18644,-9.93644 5.1697,-27.61592 3.55932,-29.80932 -11.68655,-15.91756 -21.57524,-32.312 -69.5339,-27.33051 C 86.931465,126.86212 68.552756,101.86103 53.262712,81.228813 36.368857,90.957447 25.749727,86.15779 19.70339,77.033897 9.7887323,62.072727 21.822034,38.644067 11.822034,18.68644 32.796237,17.458639 56.620005,16.998716 69.40678,29.491524 c 12.06938,11.791905 7.254136,38.87167 -9.661017,44.777543 -5.063456,-3.955283 -9.26927,-9.638431 -14.141949,-15.12712 2.16683,6.377315 8.935373,12.469367 14.805286,19.151034 14.352289,16.337075 20.028386,33.869529 53.36209,36.876509 L 108.75,104.6822 C 85.901939,107.67528 77.846607,81.172683 78.559322,71.949152 79.975151,53.626332 101.3849,35.785453 117.52119,24.2161 c 6.00711,22.58069 30.06458,32.876937 29.35328,53.631899 -0.60497,17.65232 -16.24534,27.979151 -28.65413,26.071491 -5.63179,-6.32877 -5.3026,-15.592622 -3.87712,-22.944915 -6.23784,9.70339 -0.76358,25.317795 9.15254,34.067795 19.62063,-1.51468 47.52623,-3.73284 66.16526,18.05085 0.93901,-11.61828 0.0534,-24.4052 -3.01907,-35.688559 1.27875,-1.658168 2.64488,-2.337986 2.76483,-4.989408 -8.86679,9.091447 -35.23003,-3.148397 -33.94068,-24.279661 1.92756,-31.590929 36.42474,-38.093026 40.16949,-52.118644 17.08658,32.213142 29.46725,18.692042 33.05085,50.720339 2.00927,17.957819 -15.39603,27.548916 -30.95338,24.025424 C 192.1519,86.851437 187.1191,79.02306 187.30933,71.18644 c -1.8163,7.766666 2.04671,14.552472 7.7288,20.343628 3.59386,18.170862 3.23336,57.561772 6.06357,53.448742 14.36368,-20.87415 42.62711,-31.52542 55.55084,-48.241523 -9.05178,-6.121814 -24.90494,-20.519505 -17.0339,-37.245762 7.16175,-15.218994 42.7483,-16.465933 49.83051,-37.372882 7.88351,17.561115 31.08598,33.205101 15.38136,63.432204 -10.8899,20.960083 -36.60537,21.751593 -40.06044,12.153381 0.75617,-10.900904 10.66679,-14.609215 10.95027,-23.784738 -4.08073,10.84398 -12.78642,12.636463 -12.71187,23.644068 -5.69894,9.612572 -12.77907,16.567162 -18.05084,20.148302 38.65168,-5.38186 60.24543,-20.429265 81.92796,-50.148302 -22.33244,-9.826425 -14.86292,-36.200461 -7.05508,-42.266949 15.6304,-12.144421 38.17797,-4.152542 56.31356,-11.18644 2.92332,19.341073 7.28698,44.680102 -6.99153,58.855932 -12.59762,12.507031 -28.73188,7.978621 -35.49695,1.727007 -1.139,-9.24385 1.0875,-15.112351 8.42068,-23.082939 -9.9765,6.758013 -11.09973,13.795142 -10.61441,23.326271 -19.83057,28.95514 -55.11074,48.82266 -94.38559,53.96186 -6.78315,0.88759 -31.57328,21.1271 -30.38135,32.16102 0.74152,6.86441 -0.98202,17.34938 2.22457,20.59322 2.18688,2.21228 7.94896,-3.46649 10.55085,-7.94491 -11.33936,-11.32414 -4.22593,-27.57522 2.98729,-33.36865 18.70414,-15.02256 46.49987,-7.64783 65.97457,-6.48305 -10.09467,17.57861 -8.10526,39.31382 -30.25423,53.51695 -14.87516,9.53877 -28.1951,1.80086 -31.60121,-5.68311 0.60577,-6.0072 3.56041,-11.70376 9.29188,-15.48214 -4.65607,1.35117 -10.05573,4.91631 -11.54014,15.30557 -3.69653,4.30492 -11.11651,8.43029 -11.08697,12.91477 l 0.12711,19.29758 c 0.0123,1.86404 7.84414,-4.45985 19.24102,-10.52786 14.8021,-7.88105 32.26673,-12.53184 47.81407,-23.57905 11.24149,-7.98768 20.20467,-20.66768 30.57203,-35.02118 -10.81551,-4.51479 -16.95469,-12.51095 -16.49271,-21.31637 1.05787,-19.98351 39.64265,-40.684173 71.59865,-37.476006 -10.60638,18.808556 6.15301,32.380316 -1.77967,51.228816 -9.82501,23.34478 -34.05975,13.35243 -38.45339,7.75423 -5.12223,-6.52655 -4.84329,-12.58888 -1.46186,-18.49576 -2.6048,2.20085 -7.78807,8.33045 -0.72867,18.95159 l -7.40692,2.02299 c -6.30261,12.2526 -16.62575,24.80563 -21.99153,30.57203 -0.86364,0.92812 4.79438,4.21849 6.61017,1.77966 22.05207,-29.61872 47.26141,-4.92686 52.75424,4.95763 10.77477,19.38949 -5.71695,42.73366 -2.92373,61.14407 -16.13016,-21.46619 -44.91605,-5.65894 -62.79661,-31.65254 -6.34815,-9.22853 -3.97726,-21.31593 1.3983,-26.05933 1.80067,-1.58891 15.62001,-3.47628 25.93221,2.54238 -5.89217,-7.03934 -21.53492,-8.02407 -30.88983,-3.05085 l -54.27966,28.85593 c 36.27415,3.29396 35.29179,29.93971 48.60185,39.44027 -4.72159,-6.91041 -8.49698,-13.58486 -10.85345,-19.13236 20.6658,-17.8723 48.40301,0.63298 47.67533,26.98023 -0.36126,13.08036 -7.54417,22.15697 -13.47458,47.28813 -20.85386,-27.96529 -37.35148,-4.07493 -59.33731,-40.43121 -9.33855,-15.44246 4.67341,-27.39372 13.95595,-30.75523 -16.7062,-19.78273 -34.49794,-14.5094 -41.05932,-8.38983 -1.94749,1.81636 1.49834,57.64564 5.84746,86.18644 0.86654,5.68663 28.24914,8.20623 41.95928,23.1574 2.35662,2.56994 13.25221,-9.39502 23.48083,-12.72901 12.03799,-3.92376 22.60534,-6.30818 33.96667,-2.03856 3.37083,1.26677 -1.69331,2.53165 -4.00424,2.79661 -30.33872,3.47851 -34.05859,24.47863 -47.22458,25.42373 6.133,11.41205 8.6284,18.35015 16.20764,23.26271 2.26232,1.46635 -4.57155,5.12705 -13.01097,1.4145 -10.00912,-4.40307 -12.25335,-19.69585 -24.98836,-29.62703 -10.45725,-8.15492 -17.80511,-8.09478 -26.38627,-6.49086 22.34237,5.16241 16.66512,23.1627 25.9322,28.98305 10.92364,6.86078 13.46193,15.37694 16.33475,23.51696 1.12386,3.1844 -0.0862,4.40124 -3.4322,1.52541 -29.50333,-25.35719 -34.1917,18.14381 -34.89407,32.54238 -0.2171,4.45061 -3.52871,-0.32244 -3.94068,-2.0339 -3.40283,-14.13638 -1.58554,-31.35226 4.95763,-49.83051 1.61504,-4.56095 -3.33143,-12.14464 -8.89556,-16.45502 -6.43812,-4.98743 -14.23304,-3.9558 -12.5875,7.93807 0.81266,5.87382 6.46241,9.23725 6.6748,15.89109 0.57184,17.91485 -21.76403,32.85214 -11.87686,66.3842 0.0586,0.19885 -0.76484,0.84575 -1.21571,0.60192 -12.98169,-7.0204 -18.6511,-37.15872 -9.21782,-56.18229 3.77305,-7.6089 -8.70657,-14.56786 -4.0678,-26.82203 5.26779,-13.91587 -5.09668,-12.11104 -13.47457,-3.81356 -6.45897,6.39697 -1.15575,13.4926 3.70993,19.86351 3.98864,5.22256 3.05019,27.48775 -8.41332,40.64496 -4.18553,4.80393 5.98754,-34.24334 -11.5678,-37.5 -13.48291,-2.50119 -19.14215,11.16358 -24.27966,19.32203 -2.20588,3.50298 -3.45817,-8.7912 1.92237,-16.68235 5.14297,-7.5427 17.37118,-10.56355 20.06916,-16.74985 5.11735,-11.73375 3.49588,-24.75791 23.26271,-33.68644 -25.56403,-1.77396 -41.35733,43.58414 -68.32269,35.25907 z"
     id="path3632"
     style="fill:#f2f2f2;fill-opacity:1;stroke:none" />
</svg>
