<?xml version="1.0" encoding="UTF-8" standalone="no"?>
<!-- Created with Inkscape (http://www.inkscape.org/) -->

<svg
   xmlns:svg="http://www.w3.org/2000/svg"
   xmlns="http://www.w3.org/2000/svg"
   version="1.1"
   width="390"
   height="480"
   id="svg4228">
  <defs
     id="defs4232" />
  <path
     d="m 0.51202379,0.50512952 c 129.66265621,0 259.32532621,0 388.98797621,0 C 389.48983,115.23328 370.33544,349.8309 194.89467,479.37706 21.249382,349.77255 0.5931986,115.2575 0.51202379,0.50512952 z"
     id="path4240-0-1"
     style="fill:#207dbf;fill-opacity:1;stroke:#999999;stroke-width:0.99999905;stroke-opacity:1" />
  <path
     d="M 5.820148,94.769123 C 117.26018,48.635541 270.11233,49.864372 384.36152,95.122412 c -1.95753,23.572568 -5.826,46.232958 -9.89813,68.901298 C 247.36953,108.85632 128.67582,118.78239 15.863285,163.58422 11.421367,140.8448 8.2895512,117.86718 5.820148,94.769123 z"
     id="path3602"
     style="fill:#f2f2f2;fill-opacity:1;stroke:none" />
  <path
     d="m 30.621017,225.78363 c 105.125723,-50.75775 217.556343,-48.37146 328.979113,1.30683 -6.24376,21.73049 -13.24156,42.62068 -21.34091,61.73771 C 240.01594,240.75194 144.55208,242.52479 52.0277,287.88262 43.716908,268.17986 36.490788,247.1544 30.621017,225.78363 z"
     id="path3604"
     style="fill:#f2f2f2;fill-opacity:1;stroke:none" />
  <path
     d="m 78.064046,342.55612 c 75.204504,-36.14731 155.029134,-36.0927 233.109754,2.53913 -12.59077,22.63859 -23.42769,38.71106 -36.86618,55.72452 C 224.28202,379.10404 168.18843,374.54599 115.2898,399.75654 100.99227,381.53469 89.638998,363.22387 78.064046,342.55612 z"
     id="path3606"
     style="fill:#f2f2f2;fill-opacity:1;stroke:none" />
</svg>
