<?xml version="1.0" encoding="UTF-8" standalone="no"?>
<!-- Created with Inkscape (http://www.inkscape.org/) -->

<svg
   xmlns:svg="http://www.w3.org/2000/svg"
   xmlns="http://www.w3.org/2000/svg"
   xmlns:xlink="http://www.w3.org/1999/xlink"
   version="1.1"
   width="390"
   height="480"
   id="svg4228">
  <defs
     id="defs4232">
    <linearGradient
       id="linearGradient3662">
      <stop
         id="stop3664"
         style="stop-color:#ffffff;stop-opacity:1"
         offset="0" />
      <stop
         id="stop3666"
         style="stop-color:#ffffff;stop-opacity:0"
         offset="1" />
    </linearGradient>
    <linearGradient
       x1="0.00351796"
       y1="119.72324"
       x2="390.01123"
       y2="119.72324"
       id="linearGradient2843"
       xlink:href="#linearGradient3662"
       gradientUnits="userSpaceOnUse" />
  </defs>
  <path
     d="M 0.00351796,0.00350638 390.01124,-0.03065059 C 389.99631,270.00335 389.99205,273.98676 389.99209,273.99895 390.99231,548.63218 0.01014203,548.63782 0.0068261,273.99819 L 0.00351796,0.00350638 z"
     id="path2902"
     style="fill:#d61a1a;fill-opacity:1;stroke:none" />
  <path
     d="m 65.576059,113.08871 c 0.506315,1.57971 -5.005003,3.9725 -5.674098,1.97665 L 47.124183,76.666666 c -0.607967,-1.827011 -4.751734,-1.164481 -4.444444,0.588235 5.234962,29.859089 11.064708,59.625239 28.169934,85.098039 0.09569,11.07961 -0.100003,22.3049 1.405229,32.67974 l 6.764706,0.0327 -0.06536,-21.79739 c 16.420465,25.11693 37.780562,46.94077 63.071892,66.14379 -0.36364,10.81293 1.19797,20.98411 3.78575,30.81323 l 10.3062,0.0924 c -2.4482,-8.36512 -4.44429,-16.73024 -5.17621,-25.09536 23.28442,17.85628 47.02758,35.51595 73.52986,51.99315 -0.0667,10.35679 2.50185,20.95718 4.94513,28.19184 l 26.80535,6.56269 c -1.36082,-4.58567 -3.12892,-9.37499 -3.09648,-13.26403 4.44295,1.04719 15.61419,6.86557 18.99483,13.58754 10.36127,20.60208 15.60173,44.87865 22.9232,67.66041 9.35895,-11.64572 12.04305,-28.06483 11.64647,-43.99775 18.14722,3.28689 37.66873,1.68556 49.91342,-3.1427 0,0 -61.19203,-27.06401 -75.23986,-43.2583 -14.04783,-16.19429 -47.41775,-73.9458 -47.41775,-73.9458 l 16.17564,0.0924 -15.25132,-41.31722 -28.33049,-0.0924 C 161.44949,135.65744 114.22641,101.18626 53.148549,74.314814 l 12.42751,38.773896 z"
     id="path3655"
     style="fill:#ececec;stroke:none" />
  <path
     d="m 78.431376,101.40523 a 5.8496733,5.5228758 0 1 1 -11.699346,0 5.8496733,5.5228758 0 1 1 11.699346,0 z"
     transform="matrix(0.97206704,0,0,0.97633136,2.6483369,1.9426074)"
     id="path3657"
     style="fill:#d61a1a;fill-opacity:1;stroke:none" />
  <path
     d="m 78.431376,101.40523 a 5.8496733,5.5228758 0 1 1 -11.699346,0 5.8496733,5.5228758 0 1 1 11.699346,0 z"
     transform="matrix(0.42035614,0,0,0.42220018,42.692457,58.134399)"
     id="path3657-7"
     style="fill:#ececec;fill-opacity:1;stroke:none" />
  <use
     transform="matrix(0.76580565,0.02665102,-0.02642218,0.77243811,-16.778175,151.58266)"
     id="use3687"
     x="0"
     y="0"
     width="390"
     height="480"
     xlink:href="#path3655" />
  <use
     transform="matrix(0.76580565,0.02665102,-0.02642218,0.77243811,-16.778175,151.58266)"
     id="use3689"
     x="0"
     y="0"
     width="390"
     height="480"
     xlink:href="#path3657" />
  <use
     transform="matrix(0.76580565,0.02665102,-0.02642218,0.77243811,-16.778175,151.58266)"
     id="use3691"
     x="0"
     y="0"
     width="390"
     height="480"
     xlink:href="#path3657-7" />
  <path
     d="m 176.73048,21.813291 c 38.51705,14.80602 87.00022,45.029067 110.54898,85.407409 l 19.96537,-0.92432 14.0497,34.75453 -11.83133,-1.29406 29.76319,51.29991 c 4.80471,7.54099 26.63838,20.25298 40.6702,30.9648 l -20.8897,2.77297 -8.22647,21.99888 c -10.65144,-17.28325 -10.93803,-41.68267 -32.35129,-51.5772 l 5.36107,9.33566 -21.53671,-3.78972 -1.75622,-18.39402 c -20.80202,-12.39464 -40.98838,-25.34013 -58.50962,-40.6702 2.10914,8.78107 4.53419,17.56213 7.85675,26.3432 l -8.31891,-0.13865 c -4.62323,-11.07647 -5.67461,-22.15293 -7.30215,-33.2294 -18.77823,-7.871 -33.79272,-27.66248 -40.76262,-41.409652 -0.71764,5.657091 0.0605,12.533652 0.78568,18.070512 l -6.23918,-0.0924 c -1.30448,-8.09696 -0.99509,-17.536962 -0.0924,-25.511302 0,0 -19.78984,-36.137695 -20.58929,-59.087321 -0.0818,-2.349489 2.54603,-3.254011 3.9977,-3.119589 l 12.0162,29.948052 c 1.37197,3.419374 6.56627,0.823853 5.40728,-2.03351 l -12.01619,-29.624539 -4e-5,0 0,-4e-5 z"
     id="path3699"
     style="fill:#ececec;stroke:none" />
  <use
     transform="matrix(0.73208443,0.02332224,-0.0241514,0.70695074,145.91046,-29.352217)"
     id="use3695"
     x="0"
     y="0"
     width="390"
     height="480"
     xlink:href="#path3657" />
  <use
     transform="matrix(0.73208443,0.02332224,-0.0241514,0.70695074,145.91046,-29.352217)"
     id="use3697"
     x="0"
     y="0"
     width="390"
     height="480"
     xlink:href="#path3657-7" />
</svg>
