<?xml version="1.0" encoding="UTF-8" standalone="no"?>
<!-- Created with Inkscape (http://www.inkscape.org/) -->

<svg
   xmlns:svg="http://www.w3.org/2000/svg"
   xmlns="http://www.w3.org/2000/svg"
   version="1.1"
   width="390"
   height="480"
   id="svg4228">
  <defs
     id="defs4232" />
  <path
     d="m 0.51202379,0.50512952 c 129.66265621,0 259.32532621,0 388.98797621,0 C 389.48983,115.23328 370.33544,349.8309 194.89467,479.37706 21.249382,349.77255 0.5931986,115.2575 0.51202379,0.50512952 z"
     id="path4240-0-1"
     style="fill:#d9d9d9;fill-opacity:1;stroke:#999999;stroke-width:0.99999905;stroke-opacity:1" />
  <path
     d="m 26.917373,185.4661 34.528602,-78.46398 33.114407,76.7774 33.718218,-75.76045 33.30509,75.66737 33.32097,-75.73093 33.47987,75.60381 33.11441,-75.57203 33.55932,75.60381 33.36865,-75.57203 34.46504,77.47881 -34.41737,75.49259 -33.43719,-73.64937 -33.25243,73.37924 -33.43221,-73.34746 -33.40042,73.49047 -33.37099,-73.53365 -33.28046,73.30241 -33.70742,-73.22376 -33.213045,73.426 -34.463042,-75.36825 z"
     id="path2827"
     style="fill:#207dbf;fill-opacity:1;stroke:none" />
</svg>
