<?xml version="1.0" encoding="UTF-8" standalone="no"?>
<!-- Created with Inkscape (http://www.inkscape.org/) -->

<svg
   xmlns:svg="http://www.w3.org/2000/svg"
   xmlns="http://www.w3.org/2000/svg"
   version="1.1"
   width="390"
   height="480"
   id="svg4228">
  <defs
     id="defs4232" />
  <path
     d="m 0.51202379,0.50512952 c 129.66265621,0 259.32532621,0 388.98797621,0 C 389.48983,115.23328 370.33544,349.8309 194.89467,479.37706 21.249382,349.77255 0.5931986,115.2575 0.51202379,0.50512952 z"
     id="path4240-0-1"
     style="fill:#207dbf;fill-opacity:1;stroke:#999999;stroke-width:0.99999905;stroke-opacity:1" />
  <path
     d="m 194.89732,478.7657 c 8.69019,-6.17093 24.81563,-19.59409 31.31863,-25.74163 l 5.64624,-209.00784 c 13.46374,-1.28792 40.99398,15.51631 50.1483,18.97978 7.75045,-4.91604 16.59772,-18.6599 16.90678,-26.78752 -26.76893,-15.28537 -52.96895,-22.04822 -79.0678,-27.29533 L 211.841,74.086907 c 16.48251,-4.107215 32.68699,-9.417688 47.16102,-22.217134 -2.13843,-7.497869 -8.49005,-16.978612 -13.34746,-21.709313 -35.71566,21.298601 -67.59452,20.137474 -99.78814,0.190433 -5.39191,4.621522 -13.21228,15.017302 -14.04661,21.582358 9.90213,11.031994 28.61616,16.648264 47.09746,22.407566 l -9.15254,134.318433 c -25.95339,5.04855 -51.54723,11.58905 -77.860178,27.61272 2.153705,9.25988 9.453358,21.79767 17.923738,26.53361 8.25073,-4.51515 35.87268,-18.64544 49.83051,-18.66239 l 4.35619,209.00174 c 8.04563,7.62137 22.69773,19.70132 30.88233,25.62077 z"
     id="path2827"
     style="fill:#ededed;fill-opacity:1;stroke:none" />
</svg>
