<?xml version="1.0" encoding="UTF-8" standalone="no"?>
<!-- Created with Inkscape (http://www.inkscape.org/) -->

<svg
   xmlns:svg="http://www.w3.org/2000/svg"
   xmlns="http://www.w3.org/2000/svg"
   version="1.1"
   width="390"
   height="480"
   id="svg4228">
  <defs
     id="defs4232" />
  <path
     d="M 0.00351796,0.00350638 390.01124,-0.03065059 C 389.99631,270.00335 389.99205,273.98676 389.99209,273.99895 390.99231,548.63218 0.01014203,548.63782 0.0068261,273.99819 L 0.00351796,0.00350638 z"
     id="path2902"
     style="fill:#008c31;fill-opacity:1;stroke:none" />
  <path
     d="m 254.11017,125.08475 c -23.22667,-2.11559 -18.40559,-31.283348 -40.91628,-35.059325 -17.62934,-2.973966 -34.49107,11.453105 -32.68542,32.898305 0.25786,3.0625 -5.97014,5.22677 -10.42372,3.55932 -6.54331,-2.44986 -2.15972,-18.65566 -13.98305,-19.70339 -5.09692,-0.45167 -1.11232,-8.111255 -0.12712,-8.008476 52.50956,5.477916 13.18588,-40.692076 31.27118,-58.728814 -30.50808,-3.887981 -54.73574,2.971192 -59.6673,23.408225 -5.88232,24.377084 17.77874,31.911722 18.48086,35.701945 0.74292,4.01043 5.25191,13.70946 -10.42373,12.33051 -38.031226,-29.844553 -62.064523,-19.992591 -79.830505,16.27119 23.206979,-1.11159 24.4988,22.90028 46.398305,22.5 26.40635,-0.48266 23.26077,-25.03601 35.59322,-32.54238 2.0139,-1.2258 10.90358,-2.09989 11.5678,0.25424 5.37352,19.04495 12.57625,33.517 19.19491,49.44915 -7.4655,5.38361 -15.56079,11.15208 -26.05932,23.51695 -10.82611,-1.72098 0.43092,-21.4487 -39.02542,-21.48305 -30.461832,-0.0265 -54.603685,28.41709 -62.659579,53.47897 -9.270984,28.84203 3.533628,58.36421 29.100253,69.06341 -2.644724,2.90049 -6.643062,2.8739 -10.677966,4.06779 3.462148,1.67208 8.389988,2.07513 12.437245,1.28752 -2.297474,3.59816 -3.474958,5.86857 -4.15848,8.88116 3.646388,-0.74728 5.666359,-1.77042 8.572721,-4.28792 -1.18755,6.41061 0.422625,9.30742 3.106141,13.05992 0.951881,-6.35589 2.226971,-9.69517 3.686441,-11.31356 77.660534,58.70811 107.594104,-42.34826 102.711864,-71.5678 -5.04901,-30.21767 -33.15811,-25.15824 -35.08475,-33.81356 4.9493,-8.62487 11.63867,-15.72718 24.66102,-17.28813 48.14962,27.24137 67.70801,14.29126 89.23729,36.48305 4.99339,5.14705 5.97294,23.56837 1.14407,24.5339 -7.09352,-6.74321 -22.7776,-15.85969 -36.99153,-15.12712 -26.25138,1.35951 -41.83783,45.15492 -38.77118,74.11017 3.53172,33.34636 46.99207,61.44793 69.40678,54.40678 -0.31638,2.16007 -1.75869,5.07076 -3.05085,7.88135 3.69953,-0.59812 6.94171,-2.92561 9.07271,-4.85434 0.44549,1.71753 2.03123,4.93924 4.6608,7.15952 1.82755,-3.31778 2.39057,-5.69042 3.65391,-8.35666 2.30894,4.37827 5.12229,5.72928 11.08715,6.55996 -2.27951,-3.33615 -5.32561,-6.73618 -5.72033,-9.91526 25.93679,2.32229 42.52568,-6.40882 50.4661,-19.8305 23.79283,-40.217 19.07877,-90.30355 -11.69492,-95.33899 -19.94738,-3.26395 -33.97,8.22362 -38.51695,4.95763 1.99552,-15.1552 -3.16155,-23.0073 -1.90678,-25.80508 2.34342,-5.22516 14.5339,1.48305 29.61865,0.31779 2.07792,-1.54295 3.85367,-8.0194 3.17796,-10.48729 -7.1193,-6.01118 -10.69114,-10.50201 -13.09322,-14.49152 -90.39927,-0.85324 -129.61315,-51.94407 -126.8644,-56.82204 2.31168,-4.10234 12.02381,-7.78682 14.23728,-4.44915 14.61689,22.04066 54.70619,27.77389 69.78814,-6.8644 z"
     id="path2827"
     style="fill:#faf700;fill-opacity:1;stroke:none" />
</svg>
