<?xml version="1.0" encoding="UTF-8" standalone="no"?>
<!-- Created with Inkscape (http://www.inkscape.org/) -->

<svg
   xmlns:svg="http://www.w3.org/2000/svg"
   xmlns="http://www.w3.org/2000/svg"
   version="1.1"
   width="390"
   height="480"
   id="svg4228">
  <defs
     id="defs4232" />
  <path
     d="M 0,0 C 130,0 260,0 390,0 389.98981,114.99797 370.78556,350.14732 194.88837,479.99815 20.79131,350.08886 0.081386,115.02225 0,0 z"
     id="path4240-0"
     style="color:#000000;fill:#207dbf;fill-opacity:1;fill-rule:nonzero;stroke:none;marker:none;visibility:visible;display:inline;overflow:visible;enable-background:accumulate" />
  <path
     d="m 115.9322,126.61017 c -1.41229,-16.61502 18.58392,-35.873147 32.0339,-39.915258 -4.31309,-5.729581 -7.52893,-25.382993 -3.68644,-42.838983 14.89019,1.665925 26.8433,10.813871 35.08475,24.279661 17.2427,-16.991635 59.05196,-50.392615 85.9322,-46.144068 109.38302,17.288494 0.32912,135.860448 48.4322,195.889838 -43.44326,-5.82333 -21.63338,-78.4451 -20.59322,-119.74577 0.40482,-16.074003 -4.87908,-37.8719 -26.18644,-38.008474 -14.7747,-0.0947 -41.1461,15.895359 -43.47457,25.550847 40.42244,31.768167 38.63142,168.904277 45.76271,167.033897 36.71339,-9.62913 24.84343,34.73257 45.55099,39.91526 -4.72773,6.8502 -15.40658,5.21225 -21.08065,2.86017 0.62917,10.43596 -1.70215,27.10141 -13.15303,32.45513 0.99014,-8.65084 -0.60837,-16.01687 -6.55036,-18.02717 8.27987,17.41862 -14.26602,25.96491 -10.3421,46.0478 -5.88306,0.0551 -11.22926,-5.63845 -12.85705,-9.43763 -5.79253,14.93796 -2.35773,33.79974 -19.38559,44.30085 -0.0476,-4.33923 -1.01444,-13.82356 -8.39385,-10.6541 -16.4407,7.0613 10.88323,37.36933 -19.63582,57.87868 4.75644,-26.19864 -23.15271,-33.16158 -6.86441,-60.6356 -16.85853,1.50751 -10.63027,26.48029 -27.83898,33.81357 4.70496,-17.02663 -15.54056,-33.53804 3.4322,-54.8517 -22.43061,2.98629 -11.45106,31.12661 -29.93643,35.33898 8.23491,-25.73238 -8.95563,-21.73149 3.43219,-52.11865 -5.89511,9.47672 -11.82949,18.08005 -25.10593,14.93645 20.0501,-15.59064 4.60475,-24.5809 24.27967,-43.85593 -6.42311,3.92223 -12.16735,7.24725 -24.66102,5.72033 13.2451,-7.78502 20.96214,-18.88004 25.86864,-28.41101 -7.4745,5.17345 -13.77664,5.27608 -19.32203,3.1144 21.54013,-8.20131 34.84851,-31.54607 25.74153,-80.65677 -0.36139,-1.94883 -6.76972,-2.445 -6.83264,-0.3178 -0.82625,27.93427 -29.37915,27.21731 -34.73517,44.74576 -5.27526,-17.40368 18.54767,-25.29242 14.55509,-44.61864 -0.40052,-1.93873 -9.61907,-2.50567 -9.85169,0.31779 -1.2746,15.47064 -19.848848,11.48389 -26.822037,23.83475 -4.527518,-9.95013 12.430927,-17.09831 7.118645,-25.04237 -19.080396,-1.14065 -30.561926,-13.29668 -30.67339,-20.26518 -0.05588,-3.49346 7.440024,-2.69671 7.322553,-6.35825 -0.185221,-5.77329 -11.395704,-2.22934 -11.426485,-7.3534 -0.03232,-5.37998 33.142506,-30.61149 54.862064,-48.77741 z"
     id="path4239"
     style="fill:#ededed;fill-opacity:1;stroke:none" />
  <path
     d="m 133.15804,127.72531 c 3.98203,-1.40837 3.18183,-7.2128 0.6371,-8.60175 -4.69671,-2.56352 4.02119,-4.46859 12.53434,-7.00176 -8.60982,1.21165 -18.0656,3.56681 -19.37338,9.56745 -1.08334,4.97082 2.65278,7.29133 6.20194,6.03606 z"
     id="path4795"
     style="fill:#207dbf;fill-opacity:1;stroke:none" />
  <path
     d="m 134.58286,123.4322 a 3.4143244,3.7500001 0 1 1 -6.82864,0 3.4143244,3.7500001 0 1 1 6.82864,0 z"
     id="path4797"
     style="fill:#f2f2f2;fill-opacity:1;stroke:none" />
</svg>
