<?xml version="1.0" encoding="UTF-8" standalone="no"?>
<!-- Created with Inkscape (http://www.inkscape.org/) -->

<svg
   xmlns:svg="http://www.w3.org/2000/svg"
   xmlns="http://www.w3.org/2000/svg"
   xmlns:xlink="http://www.w3.org/1999/xlink"
   version="1.1"
   width="390"
   height="480"
   id="svg4228">
  <defs
     id="defs4232">
    <linearGradient
       id="linearGradient3662">
      <stop
         id="stop3664"
         style="stop-color:#ffffff;stop-opacity:1"
         offset="0" />
      <stop
         id="stop3666"
         style="stop-color:#ffffff;stop-opacity:0"
         offset="1" />
    </linearGradient>
    <linearGradient
       x1="0.00351796"
       y1="119.72324"
       x2="390.01123"
       y2="119.72324"
       id="linearGradient2843"
       xlink:href="#linearGradient3662"
       gradientUnits="userSpaceOnUse" />
  </defs>
  <path
     d="M 0.00351796,0.00350638 390.01124,-0.03065059 C 389.99631,270.00335 389.99205,273.98676 389.99209,273.99895 390.99231,548.63218 0.01014203,548.63782 0.0068261,273.99819 L 0.00351796,0.00350638 z"
     id="path2902"
     style="fill:#207dbf;fill-opacity:1;stroke:none" />
  <path
     d="m 202.81233,87.852872 c -26.3633,-16.805271 -86.81109,22.211278 -127.537324,3.308842 -8.81344,-4.090618 -7.3928,12.981936 -24.78022,9.271136 C 43.629324,98.967638 37.987628,91.174161 33.362613,79.958232 24.845149,55.218885 41.855731,40.288339 28.280205,29.03123 72.925003,16.470585 123.01496,55.77696 78.285062,84.242023 100.38352,102.63438 167.00885,71.623043 204.21411,73.093583 c 41.38311,1.635669 58.29122,10.285752 78.22411,28.753087 5.18932,-4.339111 7.57739,-10.472457 16.52008,-21.208306 6.96767,-8.364812 -4.22946,-6.628977 -5.75213,-18.558094 -1.58804,-12.441286 7.09656,-29.157436 20.5925,-30.562915 12.29714,-1.280635 30.66851,9.622142 47.75506,1.098366 10.23318,68.918069 -41.3395,84.501589 -50.07823,58.112021 -1.10437,-3.335019 0.25463,-13.388931 -4.61723,-6.012125 -17.23771,26.100753 -2.69,37.552153 5.97237,65.298743 13.41153,42.95876 19.91473,107.46912 -42.08128,172.40724 4.99291,1.1798 15.92114,5.25741 18.27213,13.59664 6.3268,2.03908 7.5897,-11.95604 22.19808,-9.17916 11.28962,2.14602 15.26912,14.96504 13.28682,26.94054 -2.31306,13.97366 -9.26901,29.41894 -2.03356,40.25228 -58.02615,5.37943 -72.51503,-34.95738 -43.59732,-55.48028 -11.58926,-22.94052 -53.04716,8.45845 -86.25421,8.67755 -13.57048,0.0895 5.93944,10.67833 4.92067,27.72565 4.98339,6.39876 16.85332,-4.34135 21.48848,12.1052 4.51696,16.02711 -3.88986,26.15104 -11.9595,35.61596 -5.17829,6.07365 -12.38829,14.59428 -18.01691,26.21248 -16.82991,-15.41088 -19.03984,-15.24895 -28.47346,-22.98781 -10.12216,-8.3037 -17.8359,-31.22051 -6.58283,-43.9707 18.58019,-21.05211 28.88374,-6.18566 34.5431,-9.07809 0.40476,-3.20063 -3.07692,-16.35008 -15.98613,-22.91887 -12.12303,-10.81004 -47.50596,-19.73827 -64.18937,-32.93948 -4.2705,1.04696 -9.727802,16.28504 -9.680852,23.94577 16.913402,6.47519 9.237912,31.77356 -0.62725,35.12293 C 83.92449,380.86049 71.488349,374.3029 53.517226,385.52258 42.27873,369.77906 40.24664,344.91312 51.855398,330.3708 c 11.82488,-14.81306 29.071736,-17.65996 39.960517,1.92361 1.1458,-4.25532 4.499577,-15.22147 5.180736,-19.27874 C 89.807088,297.89376 57.899694,276.84151 58.60044,214.94931 59.176756,164.04717 104.9413,86.769826 202.81233,87.852872 z"
     id="path2827"
     style="fill:#ececec;stroke:none" />
  <path
     d="m 211.31835,201.23988 c 14.56463,21.49967 -9.08503,34.1115 -31.05524,29.60164 -17.00354,-3.49034 -32.05822,-21.76226 -31.80401,-44.00434 0.38834,-33.97838 24.68761,-61.00558 65.93518,-61.32805 20.99096,-0.28091 83.66574,12.91969 86.13733,97.6216 1.18169,53.41947 -44.75743,103.9271 -109.61739,103.19715 C 158.02821,326.82379 81.780069,302.643 77.843528,223.02049 77.157695,176.20701 117.81447,120.41952 176.09581,112.70271 c -51.01427,29.31211 -34.01236,79.19083 -52.83541,101.04408 -34.129264,-26.55115 -48.730955,40.72123 -2.90389,57.30222 -5.74328,-8.50965 6.00291,-17.54548 13.43877,-28.26607 7.33104,-10.56948 10.43216,-22.8534 -5.95583,-27.21055 0.74195,-4.71704 10.12795,-24.32197 15.07921,-12.83196 13.33477,30.94495 27.31935,33.86956 40.14745,41.7521 0.30789,5.06781 4.36963,8.64514 2.75269,12.81014 -39.03331,2.22698 -33.38097,49.94678 9.18627,56.60089 0.55347,-15.49882 19.15512,-16.99866 18.85037,-35.5595 -0.33042,-20.2657 -16.91906,-22.05987 -24.17073,-21.25613 0.8945,-4.62198 -3.53596,-7.87321 -2.05513,-12.95849 19.12712,-1.97194 33.30185,-19.47619 49.4682,-13.83542 3.59152,12.69623 -15.80049,25.06696 20.20161,28.60601 15.14292,1.48856 38.90689,-20.19693 28.7621,-56.07143 -13.73404,10.112 -21.9412,1.3492 -32.79782,1.25053 -17.1774,-0.15612 -17.67829,13.87452 -18.40106,19.82241 -5.04623,1.89329 -12.50144,3.18488 -17.88105,1.42528 4.33409,-5.12528 6.22969,-20.78825 2.01556,-28.4241 17.1382,-10.35702 19.82365,-27.31047 11.7827,-35.76286 -10.63719,-11.18148 -30.87143,-6.66901 -30.52058,-23.69007 -43.96845,40.92883 -13.80044,87.64511 11.05911,63.79009 z"
     id="path2842"
     style="fill:#207dbf;fill-opacity:1;stroke:none" />
</svg>
