<?xml version="1.0" encoding="UTF-8" standalone="no"?>
<!-- Created with Inkscape (http://www.inkscape.org/) -->

<svg
   xmlns:svg="http://www.w3.org/2000/svg"
   xmlns="http://www.w3.org/2000/svg"
   version="1.1"
   width="390"
   height="480"
   id="svg4228">
  <defs
     id="defs4232" />
  <path
     d="m 0.51202379,0.50512952 c 129.66265621,0 259.32532621,0 388.98797621,0 C 389.48983,115.23328 370.33544,349.8309 194.89467,479.37706 21.249382,349.77255 0.5931986,115.2575 0.51202379,0.50512952 z"
     id="path4240-0-1"
     style="fill:#008c31;fill-opacity:1;stroke:#999999;stroke-width:0.99999905;stroke-opacity:1" />
  <path
     d="m 153.02054,1.00996 c -0.083,10.219735 -8.11867,20.640089 -15.02352,23.940761 20.16047,12.089148 22.76701,46.549136 0.0225,59.6418 21.46673,16.230029 21.9455,43.748679 -0.0142,59.261309 21.43485,19.59794 21.44815,43.28444 0,60.10052 20.91736,17.08343 20.73878,43.28259 0.008,59.36591 20.32712,13.34743 21.54379,43.20677 -0.005,59.23248 22.3757,14.22374 19.08215,46.722 -0.0112,60.01533 17.24221,10.42201 20.7037,36.09872 7.84499,52.84119 10.69632,11.03994 25.7238,26.09683 49.06276,43.36703 19.53629,-14.49718 37.11537,-30.02898 49.71962,-43.63661 -10.64737,-17.25666 -10.29597,-39.71866 7.3566,-52.8576 -19.82867,-15.75908 -19.94731,-45.30858 0.009,-59.63477 -20.36738,-13.79661 -19.65525,-46.8915 -0.008,-59.35854 -21.14675,-17.4082 -20.25593,-44.10055 0.008,-59.68322 -21.37434,-17.2093 -19.36205,-46.72107 -0.0159,-59.23785 -21.49943,-15.16823 -18.69547,-48.959021 0.012,-59.755225 -20.23353,-15.980864 -19.20225,-47.092454 0.004,-59.695387 C 245.31241,19.199555 238.47297,9.7819852 237.98908,1.0107195 z"
     id="path2827"
     style="fill:#f2f2f2;stroke:none" />
</svg>
