<?xml version="1.0" encoding="UTF-8" standalone="no"?>
<!-- Created with Inkscape (http://www.inkscape.org/) -->

<svg
   xmlns:svg="http://www.w3.org/2000/svg"
   xmlns="http://www.w3.org/2000/svg"
   version="1.1"
   width="390"
   height="480"
   id="svg4228">
  <defs
     id="defs4232" />
  <path
     d="m 0.51202379,0.50512952 c 129.66265621,0 259.32532621,0 388.98797621,0 C 389.48983,115.23328 370.33544,349.8309 194.89467,479.37706 21.249382,349.77255 0.5931986,115.2575 0.51202379,0.50512952 z"
     id="path4240-0-1"
     style="fill:#207dbf;fill-opacity:1;stroke:#999999;stroke-width:0.99999905;stroke-opacity:1" />
  <path
     d="M 41.288296,259.46953 C 60.554395,95.805735 230.20975,111.97559 197.70376,202.19914 90.88922,210.00332 139.46649,397.06424 305.87315,354.32007 346.18488,287.47092 374.28999,196.62817 384.07222,97.920554 330.07291,343.60904 157.62271,273.15507 197.70645,202.19287 277.34338,206.4625 282.19043,121.0773 237.58889,71.333323 196.24916,25.22723 83.974406,-4.4174939 5.1166502,87.701625 10.098547,139.83974 19.149918,195.60246 41.288296,259.46953 z"
     id="path3638"
     style="fill:#ececec;fill-opacity:1;stroke:none" />
</svg>
