<?xml version="1.0" encoding="UTF-8" standalone="no"?>
<!-- Created with Inkscape (http://www.inkscape.org/) -->

<svg
   xmlns:svg="http://www.w3.org/2000/svg"
   xmlns="http://www.w3.org/2000/svg"
   version="1.1"
   width="390"
   height="480"
   id="svg4228">
  <defs
     id="defs4232" />
  <path
     d="M 0,0 C 130,0 260,0 390,0 389.98981,114.99797 370.78556,350.14732 194.88837,479.99815 20.79131,350.08886 0.081386,115.02225 0,0 z"
     id="path4240-0"
     style="color:#000000;fill:#207dbf;fill-opacity:1;fill-rule:nonzero;stroke:none;marker:none;visibility:visible;display:inline;overflow:visible;enable-background:accumulate" />
  <path
     d="m 197.51059,431.02754 c 23.12013,-19.77508 44.85919,-40.65502 58.50636,-68.00847 -7.37226,-32.7698 -20.93388,-41.77125 -21.03814,-70.26483 -0.0856,-23.38719 16.13783,-34.34324 18.81356,-69.8517 16.94291,15.52104 6.94008,43.75315 0.14216,73.60011 -4.59666,20.18206 8.22663,38.52636 8.12056,54.50371 22.87733,-18.40771 43.29897,-95.45282 45.88983,-138.27331 4.08066,-1.62163 11.84499,-3.5344 12.76904,-6.06259 10.99313,-30.07706 11.14659,-60.03526 16.02333,-90.73826 1.88277,-14.23287 38.00724,-39.705703 37.37288,-52.62712 -0.33247,-6.866272 -12.16209,16.835144 -31.27119,22.627119 -5.8959,1.787051 14.20572,-18.11741 8.89831,-20.084746 -3.51333,-1.302314 -9.93515,7.091508 -16.90746,12.128815 -7.17178,5.181426 -13.29097,9.226296 -13.6845,13.941091 1.52971,28.472171 -14.18365,50.966941 -24.19618,75.879251 -35.58644,13.01517 -91.91863,-20.06937 -79.83051,-38.00848 3.59249,6.79649 12.02132,14.5978 21.1017,14.74577 9.5962,-32.5714 8.79316,-68.020699 -15,-89.618651 l 8.00847,-27.330508 c -5.65508,0.537057 -9.99226,4.462997 -13.98305,9.279661 l -2.16101,-2.923729 c -1.96266,3.501706 -0.008,7.758843 -7.03515,7.754237 -5.26934,-0.0035 -3.39698,-7.575588 -3.64282,-11.18644 l -3.55932,2.669491 C 200.27013,27.272963 200.43859,21.337383 195,16.3983 c -5.4586,4.811199 -5.62685,10.944983 -6.48305,16.90678 l -3.30509,-2.79661 c -0.32735,4.602871 1.89153,10.774288 -3.4322,11.059322 -6.44757,0.345205 -5.00262,-4.287153 -6.10169,-7.881356 l -3.30509,3.305084 c -3.67923,-5.006992 -7.87141,-7.896268 -13.60169,-9.152542 4.68012,7.800888 7.31412,17.101943 5.36148,27.896948 -0.4017,2.220741 -5.91693,13.033226 2.11233,24.988435 -3.06967,4.818107 -5.07334,9.463217 -6.11228,14.06723 -0.6851,3.035989 3.97673,3.670858 4.44938,6.606659 -1.5848,6.15244 4.50238,14.33899 4.22467,16.98854 -1.41473,13.49734 16.58128,-2.31759 18.87615,4.22466 10.13142,28.88285 -25.97719,57.9468 -89.66174,45.39266 C 87.362871,148.00407 79.71734,125.46178 76.591086,108.94723 74.428137,97.521373 75.207223,92.848767 73.572064,89.128744 71.808122,85.115737 66.481011,82.937152 60.722723,78.675357 53.412813,73.265185 46.226311,63.137527 43.145499,66.162755 c -3.535146,3.471365 13.964333,19.722062 8.808872,19.864907 -11.330568,0.313942 -26.4293,-19.43673 -29.228373,-20.114199 -6.641871,-1.607555 4.080383,13.982918 20.493,27.120099 10.536302,8.433598 16.689766,19.853598 17.732522,26.764848 4.396529,29.13968 1.121894,60.60839 13.412887,87.27786 1.898388,4.1192 7.84627,3.14585 11.949153,4.44915 7.775447,66.0038 24.16231,114.751 45.63559,139.57627 3.96498,-18.39965 11.21341,-33.29506 10.35549,-46.93664 -2.23494,-35.53755 -21.85451,-59.41553 -1.18291,-81.06054 -0.12207,28.99029 19.7167,48.37625 19.50537,69.662 -0.096,9.66485 -14.39323,46.83781 -21.6177,70.24627 14.16774,23.73812 30.14262,47.11481 58.50119,68.01476 z"
     id="path2827"
     style="fill:#ececec;fill-opacity:1;stroke:none" />
</svg>
