<?xml version="1.0" encoding="UTF-8" standalone="no"?>
<!-- Created with Inkscape (http://www.inkscape.org/) -->

<svg
   xmlns:svg="http://www.w3.org/2000/svg"
   xmlns="http://www.w3.org/2000/svg"
   version="1.1"
   width="390"
   height="480"
   id="svg4228">
  <defs
     id="defs4232" />
  <path
     d="M 0,0 C 130,0 260,0 390,0 389.98981,114.99797 370.78556,350.14732 194.88837,479.99815 20.79131,350.08886 0.081386,115.02225 0,0 z"
     id="path4240-0"
     style="color:#000000;fill:#207dbf;fill-opacity:1;fill-rule:nonzero;stroke:none;marker:none;visibility:visible;display:inline;overflow:visible;enable-background:accumulate" />
  <path
     d="M 169.09669,127.09518 129.98033,42.389112 c 10.4568,-9.557926 37.80081,1.652317 43.408,32.161284 2.40416,13.08117 6.78837,44.898944 -4.29164,52.544784 z"
     id="path2855"
     style="fill:#f2f2f2;stroke:none" />
  <path
     d="m 75.414736,263.19387 c 1.922272,-4.75679 1.798506,-13.34127 0.179773,-20.04468 -2.829219,0.46617 -5.745933,1.09776 -9.258305,2.51682 l -5.483074,-7.01114 6.741484,-6.6516 c -4.258669,-2.13853 -7.571985,-2.21986 -11.14592,-1.88762 C 55.81,220.33558 49.06125,202.56544 54.561078,200.81267 l 46.651072,7.46057 -11.865013,-26.60638 c -17.416487,1.3509 -44.896223,-0.0167 -49.167891,6.65159 -8.370655,13.06691 10.497735,32.45105 11.685239,57.70711 0.255419,5.4323 15.014977,16.07308 23.550251,17.16831 z"
     id="path2851"
     style="fill:#f2f2f2;stroke:none" />
  <path
     d="m 217.60386,212.33496 c 12.27215,-8.46286 23.02023,-3.28299 28.12889,5.92409 -8.31988,8.98903 -14.81117,20.31021 -19.46324,30.21619 l -33.46306,13.72988 1.30335,4.80892 c -1.36845,1.80754 -2.80568,2.64743 -5.12353,3.3258 -0.99043,-3.38549 -1.40112,-5.11012 -3.28085,-4.58421 -3.58825,1.00391 -6.1418,3.33127 -3.95501,12.9886 -2.6979,4.07398 -9.26553,9.1636 -17.2582,11.50546 l 1.07864,-16.08967 c 1.79736,-26.81051 57.90559,-21.19638 52.03301,-61.82506 z"
     id="path2853"
     style="fill:#f2f2f2;stroke:none" />
  <path
     d="m 270.06356,320.9428 c 6.92737,0.17464 18.84569,-1.44228 22.53178,-6.1017 -0.54768,-2.8061 -2.44809,-7.85492 -0.22246,-11.53602 1.40064,-2.31659 4.32265,0.31818 6.16526,2.28814 1.763,-0.37806 3.28958,-3.97665 1.7161,-6.22881 1.61281,-0.26167 3.90352,-1.96826 4.89407,-3.62289 -11.98919,-25.58392 -3.65991,-34.30367 -2.57416,-51.06991 0.5679,-8.76962 -13.37548,-10.88671 -13.56991,-25.23305 -0.2441,-18.01111 13.39026,-33.3279 11.05932,-47.63771 -4.14312,-25.43489 5.60033,-31.63442 16.52542,-28.02966 14.65228,4.83456 18.09393,22.79629 11.79844,31.58208 -8.23786,11.49651 -17.78634,39.7083 -5.7603,71.82893 1.46957,-16.26849 0.66645,-40.7886 6.61017,-48.68644 -1.41655,16.66959 -3.96069,32.01388 1.52807,47.28814 2.82166,-18.07111 3.4845,-39.01423 9.02278,-45.95339 -2.42268,19.67002 -1.54655,31.34002 1.97034,37.05508 1.46734,-42.9215 23.10981,-53.54281 21.29291,-74.94881 C 358.91062,113.15194 307.92391,117.9196 291.03814,143.96186 256.99153,116.8644 202.90202,152.6575 173.64407,132.83898 152.88809,32.878617 147.93326,30.19174 48.432203,52.245759 c -6.810454,1.50951 -7.634876,11.154712 -7.627118,16.652543 15.956715,-1.481907 15.060865,0.597245 14.872881,3.305085 -0.311362,4.485045 -5.602,3.215377 -11.313559,3.177966 0.35416,3.226743 2.776185,5.827066 5.974576,6.61017 2.494663,0.610801 4.485317,-0.690383 6.483051,-2.161018 l 16.90678,2.415255 c 4.74328,7.178031 13.476265,11.079281 21.737288,9.025423 -7.503114,13.957947 -8.951078,32.178617 -7.118644,49.703397 2.765203,26.44546 -7.834101,58.33294 16.779662,69.91525 1.98206,14.48399 9.60326,23.83137 13.09322,44.49153 6.83928,4.73837 6.39851,28.15971 6.61017,36.10169 -4.75021,7.03379 -9.58132,14.57999 -13.34746,15.38136 -3.3012,3.99942 -5.88859,8.75545 -6.48305,13.09321 l 27.33051,-0.25423 c -0.38529,-2.9661 -0.35157,-6.01423 -2.16102,-8.89831 -3.68361,-5.8713 0.14896,-11.32933 5.4661,-6.8644 l 5.7839,-6.10169 c -1.17487,-2.80428 -4.03442,-6.53123 -6.03813,-8.1356 -3.54077,-38.59799 4.46912,-41.80957 2.66949,-70.42373 34.49931,12.94884 66.41322,-3.31778 94.70339,-8.64407 19.04657,15.31942 43.70976,29.30846 52.75424,40.67797 11.2033,34.01912 1.8144,46.12785 -7.37289,50.4661 -4.57356,6.24288 -7.88646,12.58273 -8.07203,19.16314 z"
     id="path2827"
     style="fill:#f2f2f2;stroke:#207dbf;stroke-width:1px;stroke-linecap:butt;stroke-linejoin:round;stroke-opacity:1" />
  <path
     d="m 117.57691,41.715209 c -4.77885,-7.925225 -33.977945,-10.609309 -40.884446,0.89898 4.428524,0.11942 8.429404,0.299976 10.826146,0.8987 -6.495271,3.428442 -11.795053,6.559825 -12.190784,16.98544 5.261328,-3.517744 10.325137,-6.456156 15.556896,-8.537655 -1.519947,4.188672 -1.38991,12.149432 0.363902,16.176609 8.167224,-13.60076 30.243026,-19.929885 26.328286,-26.422074 z"
     id="path2857"
     style="fill:#f2f2f2;stroke:#207dbf;stroke-width:1.00595057px;stroke-linecap:butt;stroke-linejoin:miter;stroke-opacity:1" />
  <path
     d="m 115.86934,47.055342 c 3.53815,-2.584888 1.22021,-14.159319 1.91386,-19.923512 4.25397,0.969788 12.56069,8.680808 11.94796,15.739366"
     id="path2859"
     style="fill:#ececec;stroke:#296fff;stroke-width:1px;stroke-linecap:butt;stroke-linejoin:miter;stroke-opacity:1" />
  <path
     d="m 48.554392,61.770059 a 1.9133206,3.3360171 38.596638 1 1 -2.816727,-2.599986 1.9133206,3.3360171 38.596638 1 1 2.816727,2.599986 z"
     id="path2914"
     style="fill:#207dbf;fill-opacity:1;stroke:none" />
</svg>
