<?xml version="1.0" encoding="UTF-8" standalone="no"?>
<!-- Created with Inkscape (http://www.inkscape.org/) -->

<svg
 xmlns:dc="http://purl.org/dc/elements/1.1/"
 xmlns:cc="http://creativecommons.org/ns#"
 xmlns:rdf="http://www.w3.org/1999/02/22-rdf-syntax-ns#"
 xmlns:svg="http://www.w3.org/2000/svg"
 xmlns="http://www.w3.org/2000/svg"
 version="1.1"
 width="372"
 height="480"
 id="svg3609">
<metadata
 id="metadata111">
<rdf:RDF>
<cc:Work
 rdf:about="">
<dc:format>image/svg+xml</dc:format>
<dc:type
 rdf:resource="http://purl.org/dc/dcmitype/StillImage" />
<dc:title></dc:title>
</cc:Work>
</rdf:RDF>
</metadata>
<defs
 id="defs3613" />
<path
 d="M 0.8089781,0.83802 371.2086,0.79302 371.1513,417.65772 C 228.65394,193.01269 46.60696,345.34444 0.96133484,416.77913 L 0.8089781,0.83802 z"
 id="path8308"
 style="fill:#296fff;fill-opacity:1;stroke:#000000;stroke-width:1.5;stroke-miterlimit:4;stroke-opacity:1;stroke-dasharray:none" />
<path
 d="m 371.18294,222.65561 0.002,197.52293 c 0,-0.0395 -1.35588,19.27326 -24.10948,31.22496 -16.73994,8.79293 -122.00515,-5.3815 -142.95574,9.45699 -2.52085,1.78542 -12.48453,8.27338 -18.21872,17.46893 -6.55033,-9.32914 -14.92804,-14.53128 -17.02176,-16.2808 C 153.19387,448.94187 94.386249,456.69608 46.726163,456.07189 5.1579136,455.52748 0.9291729,420.97214 0.93438171,419.1646 1.0479164,379.76622 0.90926536,222.75094 0.90926536,222.75094 L 371.18294,222.65561 z"
 id="path7556"
 style="fill:#1649b2;fill-opacity:1;stroke:#000000;stroke-width:1.5;stroke-linecap:butt;stroke-linejoin:miter;stroke-miterlimit:4;stroke-opacity:1;stroke-dasharray:none" />
<path
 d="M 0.96979211,273.92761 C 102.8397,242.13798 108.77173,279.78355 185.81805,280.98245 c 62.11489,0.96656 90.33196,-41.12425 185.33757,-8.05389 l -0.0402,-11.74418 C 275.4826,225.77703 251.54458,268.84389 185.30808,268.08034 110.60675,267.2192 100.8216,227.95773 0.9639711,261.383 l 0.005841,12.54461 -1.999e-5,0 z"
 id="path8068-27-6"
 style="fill:#ffffff;stroke:#000000;stroke-width:1.39976859;stroke-linecap:butt;stroke-linejoin:miter;stroke-miterlimit:4;stroke-opacity:1;stroke-dasharray:none" />
<path
 d="m 366.84219,432.5257 c 0,-0.0395 -5.90104,13.17637 -19.76673,18.8778 -22.3192,9.17743 -122.00515,-5.3815 -142.95574,9.45699 -2.52085,1.78542 -12.48453,8.27338 -18.21872,17.46893 -6.55033,-9.32914 -14.92804,-14.53128 -17.02176,-16.2808 C 153.19387,448.94187 94.388897,455.70153 46.726163,456.07189 18.63249,456.29019 7.857139,437.56112 5.7013309,433.33833 92.928684,398.20167 124.1527,440.82832 190.22685,440.85972 c 67.13946,0.0319 79.36502,-42.3336 176.61534,-8.33402 z"
 id="path7556-2"
 style="fill:#ffffff;fill-opacity:1;stroke:#000000;stroke-width:1.5;stroke-linecap:butt;stroke-linejoin:miter;stroke-miterlimit:4;stroke-opacity:1;stroke-dasharray:none" />
<path
 d="M 0.89886457,284.22593 C 93.976747,247.28205 124.84798,290.1981 186.24474,290.4281 c 80.04466,0.29985 80.21593,-42.13363 184.54244,-6.80683"
 id="path8125-6-9-9-2"
 style="fill:none;stroke:#000000;stroke-width:1.5;stroke-linecap:butt;stroke-linejoin:miter;stroke-miterlimit:4;stroke-opacity:1;stroke-dasharray:none" />
<path
 d="m 110.84746,285.50847 c 2.62076,-40.95289 70.54402,-88.71607 132.45762,-27.90253 8.17051,8.02533 54.19371,-0.55327 41.5678,-23.4534 -15.55438,-28.21162 -18.07469,-42.33358 -22.11864,-56.82203 -23.334,10.59506 -39.68994,-9.84609 -48.55932,-32.54238 26.13254,13.09932 26.35456,-8.02284 50.97457,-3.05084 12.58296,-18.98484 33.40077,-2.2772 37.75424,-26.44068 15.31066,32.2226 -12.95228,34.72642 -14.49153,53.1356 -1.49792,17.91483 47.02507,36.9231 46.65255,76.97033 -0.13001,14.06486 -7.84355,24.13783 -12.33051,35.7839 -78.76465,-7.48206 -92.19615,44.75658 -211.90678,4.32203 z"
 id="path7486"
 style="fill:#000000;stroke:none" />
<path
 d="m 167.1424,230.36663 6.09398,-0.79223 c 3.72602,-39.75813 -2.15463,-120.7609 -55.92768,-120.80446 -70.702146,-0.0573 -91.109439,126.57931 -75.613785,129.06904 7.518253,1.20798 0.684203,-16.68666 13.855933,-52.11864 -6.25232,16.3903 -14.451894,55.14876 -4.322034,56.05932 5.407802,0.4861 2.767337,-16.80037 14.944385,-53.97379 -5.985612,19.59655 -16.019794,54.30987 -3.503707,57.78735 7.014039,1.94879 5.323038,-20.46844 13.923464,-55.37208 -8.602532,35.14302 -9.055316,58.93234 -2.482786,58.80428 16.311107,-0.31781 0.479881,-101.73344 53.88814,-102.23451 28.82547,-0.27043 37.23585,41.96867 39.14409,83.57572 z"
 id="path7532"
 style="fill:#ffffff;stroke:#000000;stroke-width:1;stroke-linecap:butt;stroke-linejoin:miter;stroke-miterlimit:4;stroke-opacity:1;stroke-dasharray:none" />
<path
 d="M 0.96979211,319.92761 C 102.8397,288.13798 108.77173,325.78355 185.81805,326.98245 c 62.11489,0.96656 90.33196,-41.12425 185.33757,-8.05389 l -0.0402,-11.74418 C 275.4826,271.77703 251.54458,314.84389 185.30808,314.08034 110.60675,313.2192 100.8216,273.95773 0.9639711,307.383 l 0.005841,12.54461 -1.999e-5,0 z"
 id="path8068-27"
 style="fill:#ffffff;stroke:#000000;stroke-width:1.39976859;stroke-linecap:butt;stroke-linejoin:miter;stroke-miterlimit:4;stroke-opacity:1;stroke-dasharray:none" />
<path
 d="M 2.6694915,294.08899 C 0.03449349,272.22192 5.756923,256.57613 18.368644,246.22881 c 23.968774,-0.18849 45.23844,7.37181 65.529661,16.97034 5.287873,2.50137 4.624489,12.26037 3.241526,17.92373 -22.936553,-2.27493 -45.573495,-2.33434 -84.4703395,12.96611 z"
 id="path8310"
 style="fill:#c8aa3c;fill-opacity:1;stroke:#000000;stroke-width:1;stroke-linecap:butt;stroke-linejoin:miter;stroke-miterlimit:4;stroke-opacity:1;stroke-dasharray:none" />
<path
 d="m 15.603814,248.72352 c 23.44831,0.96738 37.529286,4.34509 64.194914,16.00106"
 id="path8474"
 style="fill:none;stroke:#000000;stroke-width:1;stroke-linecap:butt;stroke-linejoin:miter;stroke-miterlimit:4;stroke-opacity:1;stroke-dasharray:none" />
<path
 d="m 5.8559326,263.37288 c 19.2533944,0.52247 40.6754724,5.98174 65.1800844,16.5572"
 id="path8474-7"
 style="fill:none;stroke:#000000;stroke-width:1;stroke-linecap:butt;stroke-linejoin:miter;stroke-miterlimit:4;stroke-opacity:1;stroke-dasharray:none" />
<path
 d="M 8.4915259,257.27966 C 23.486445,257.5479 53.67971,263.16607 73.480932,273.86865"
 id="path8474-1"
 style="fill:none;stroke:#000000;stroke-width:1;stroke-linecap:butt;stroke-linejoin:miter;stroke-miterlimit:4;stroke-opacity:1;stroke-dasharray:none" />
<path
 d="m 12.193857,252.55084 c 21.414411,1.34875 40.818481,4.61523 64.242584,15.57204"
 id="path8474-78"
 style="fill:none;stroke:#000000;stroke-width:1;stroke-linecap:butt;stroke-linejoin:miter;stroke-miterlimit:4;stroke-opacity:1;stroke-dasharray:none" />
<path
 d="m 65.742982,255.42728 c 2.292708,0.58857 4.181968,1.44611 5.970564,2.37076 -6.887885,4.5595 -11.974322,15.12226 -13.680125,22.77054 l -6.35787,0.62132 c 0.723588,-7.52239 6.574012,-19.31262 14.067431,-25.76262 z"
 id="path8450-2"
 style="fill:#c8aa3c;fill-opacity:1;stroke:#000000;stroke-width:1;stroke-linecap:butt;stroke-linejoin:miter;stroke-miterlimit:4;stroke-opacity:1;stroke-dasharray:none" />
<path
 d="m 3.3050848,270.25424 c 14.8862572,5.02011 29.9023062,9.00189 45.1271182,11.31356"
 id="path8562"
 style="fill:none;stroke:#000000;stroke-width:1;stroke-linecap:butt;stroke-linejoin:miter;stroke-miterlimit:4;stroke-opacity:1;stroke-dasharray:none" />
<path
 d="m 2.0753168,278.06465 c 7.5000001,4.1864 15.9755312,6.58386 23.4755312,8.07942"
 id="path8586"
 style="fill:none;stroke:#000000;stroke-width:1;stroke-linecap:butt;stroke-linejoin:miter;stroke-miterlimit:4;stroke-opacity:1;stroke-dasharray:none" />
<path
 d="m 1.8432203,283.41101 c 3.0508476,2.02538 8.4771377,4.26427 14.4517137,6.2683"
 id="path8586-5"
 style="fill:none;stroke:#000000;stroke-width:1;stroke-linecap:butt;stroke-linejoin:miter;stroke-miterlimit:4;stroke-opacity:1;stroke-dasharray:none" />
<path
 d="m 30.988184,246.92106 c 2.308359,0.0511 4.362673,0.43128 6.423374,0.80316 -11.964207,11.05978 -16.494392,26.27556 -16.789869,40.09019 l -6.009932,1.83232 c -0.360858,-15.68988 4.935983,-32.36024 16.376427,-42.72567 z"
 id="path8450"
 style="fill:#c8aa3c;fill-opacity:1;stroke:#000000;stroke-width:1;stroke-linecap:butt;stroke-linejoin:miter;stroke-miterlimit:4;stroke-opacity:1;stroke-dasharray:none" />
<path
 d="m 1.970339,287.98728 c 1.7796611,1.38979 5.0129906,3.09734 8.318075,3.95731"
 id="path8586-51"
 style="fill:none;stroke:#000000;stroke-width:1;stroke-linecap:butt;stroke-linejoin:miter;stroke-miterlimit:4;stroke-opacity:1;stroke-dasharray:none" />
<path
 d="M 70.932204,280.10594 C 81.635353,251.5942 89.964062,265.62991 87.584746,280.9322"
 id="path8619"
 style="fill:none;stroke:#000000;stroke-width:1;stroke-linecap:butt;stroke-linejoin:miter;stroke-miterlimit:4;stroke-opacity:1;stroke-dasharray:none" />
<path
 d="M 0.54554629,295.28011 C 93.623428,258.33623 124.84798,300.57946 186.24474,300.80946 c 80.04466,0.29985 80.40401,-42.002 184.73052,-6.6752"
 id="path8125-6-9-9"
 style="fill:none;stroke:#000000;stroke-width:1.5;stroke-linecap:butt;stroke-linejoin:miter;stroke-miterlimit:4;stroke-opacity:1;stroke-dasharray:none" />
<path
 d="M 0.54554629,331.28011 C 93.623428,294.33623 124.84798,336.57946 186.24474,336.80946 c 80.04466,0.29985 79.89578,-42.06829 184.22229,-6.74149"
 id="path8125-6-9-9-4"
 style="fill:none;stroke:#000000;stroke-width:1.5;stroke-linecap:butt;stroke-linejoin:miter;stroke-miterlimit:4;stroke-opacity:1;stroke-dasharray:none" />
<path
 d="M 0.54554629,343.28011 C 93.623428,306.33623 124.84798,348.57946 186.24474,348.80946 c 80.04466,0.29985 79.89578,-42.06829 184.22229,-6.74149"
 id="path8125-6-9-9-4-5"
 style="fill:none;stroke:#000000;stroke-width:1.5;stroke-linecap:butt;stroke-linejoin:miter;stroke-miterlimit:4;stroke-opacity:1;stroke-dasharray:none" />
<path
 d="M 0.54554629,377.28011 C 93.623428,340.33623 124.84798,382.57946 186.24474,382.80946 c 80.04466,0.29985 79.89578,-42.06829 184.22229,-6.74149"
 id="path8125-6-9-9-4-5-1"
 style="fill:none;stroke:#000000;stroke-width:1.5;stroke-linecap:butt;stroke-linejoin:miter;stroke-miterlimit:4;stroke-opacity:1;stroke-dasharray:none" />
<path
 d="M 0.54554629,389.28011 C 93.623428,352.33623 124.84798,394.57946 186.24474,394.80946 c 80.04466,0.29985 79.89578,-42.06829 184.22229,-6.74149"
 id="path8125-6-9-9-4-5-1-1"
 style="fill:none;stroke:#000000;stroke-width:1.5;stroke-linecap:butt;stroke-linejoin:miter;stroke-miterlimit:4;stroke-opacity:1;stroke-dasharray:none" />
<path
 d="m 1.82097,423.39875 c 93.077882,-36.94388 122.77701,5.68071 184.17377,5.91071 80.04466,0.29985 79.89578,-42.06829 184.22229,-6.74149"
 id="path8125-6-9-9-4-5-1-1-7"
 style="fill:none;stroke:#000000;stroke-width:1.5;stroke-linecap:butt;stroke-linejoin:miter;stroke-miterlimit:4;stroke-opacity:1;stroke-dasharray:none" />
<path
 d="M 0.96979211,363.92761 C 102.8397,332.13798 108.77173,369.78355 185.81805,370.98245 c 62.11489,0.96656 90.33196,-41.12425 185.33757,-8.05389 l -0.0402,-11.74418 C 275.4826,315.77703 251.54458,358.84389 185.30808,358.08034 110.60675,357.2192 100.8216,317.95773 0.9639711,351.383 l 0.005841,12.54461 -1.999e-5,0 z"
 id="path8068-27-1"
 style="fill:#ffffff;stroke:#000000;stroke-width:1.39976859;stroke-linecap:butt;stroke-linejoin:miter;stroke-miterlimit:4;stroke-opacity:1;stroke-dasharray:none" />
<path
 d="M 0.96979211,411.92761 C 102.8397,380.13798 108.77173,417.78355 185.81805,418.98245 c 62.11489,0.96656 90.33196,-41.12425 185.33757,-8.05389 l -0.0402,-11.74418 C 275.4826,363.77703 251.54458,406.84389 185.30808,406.08034 110.60675,405.2192 100.8216,365.95773 0.9639711,399.383 l 0.005841,12.54461 -1.999e-5,0 z"
 id="path8068-27-1-4"
 style="fill:#ffffff;stroke:#000000;stroke-width:1.39976859;stroke-linecap:butt;stroke-linejoin:miter;stroke-miterlimit:4;stroke-opacity:1;stroke-dasharray:none" />
</svg>
