<?xml version="1.0" encoding="UTF-8" standalone="no"?>
<!-- Created with Inkscape (http://www.inkscape.org/) -->

<svg
   xmlns:svg="http://www.w3.org/2000/svg"
   xmlns="http://www.w3.org/2000/svg"
   version="1.1"
   width="390"
   height="480"
   id="svg4228">
  <defs
     id="defs4232" />
  <path
     d="m 0.51202379,0.50512952 c 129.66265621,0 259.32532621,0 388.98797621,0 C 389.48983,115.23328 370.33544,349.8309 194.89467,479.37706 21.249382,349.77255 0.5931986,115.2575 0.51202379,0.50512952 z"
     id="path4240-0-1"
     style="fill:#207dbf;fill-opacity:1;stroke:#9e832a;stroke-width:0.99999905;stroke-opacity:1" />
  <path
     d="m 47.771187,277.17441 23.396202,-47.22451 25.604615,60.98517 24.303756,-60.92161 25.54116,61.90678 23.98648,-62.00212 25.98536,61.11228 24.30376,-61.04872 25.73152,60.92161 23.95475,-61.01695 25.79499,61.08051 24.14512,-60.95339 22.86459,45.85302 c 5.59609,-14.106 20.70257,-57.03429 29.53704,-103.76771 l -27.62194,-68.09167 -24.55759,61.875 -25.41425,-61.93856 -24.52587,62.06568 -25.41424,-61.97034 -24.71622,61.90678 -25.12869,-62.00212 -24.87487,62.06568 -25.06524,-62.0339 L 120.88538,166.041 95.217333,104.07066 70.786658,166.00922 45.308951,104.0071 17.601949,172.41083 c 4.78065,26.86103 18.965541,78.40254 30.169238,104.76358 z"
     id="path3710"
     style="fill:#faf700;fill-opacity:1;stroke:none" />
</svg>
