<?xml version="1.0" encoding="UTF-8" standalone="no"?>
<!-- Created with Inkscape (http://www.inkscape.org/) -->

<svg
   xmlns:svg="http://www.w3.org/2000/svg"
   xmlns="http://www.w3.org/2000/svg"
   version="1.1"
   width="390"
   height="480"
   id="svg4228">
  <defs
     id="defs4232" />
  <path
     d="m 0.51202379,0.50512952 c 129.66265621,0 259.32532621,0 388.98797621,0 C 389.48983,115.23328 370.33544,349.8309 194.89467,479.37706 21.249382,349.77255 0.5931986,115.2575 0.51202379,0.50512952 z"
     id="path4240-0-1"
     style="fill:#008c31;fill-opacity:1;stroke:#9e832a;stroke-width:0.99999905;stroke-opacity:1" />
  <path
     d="m 384.07594,97.946696 -33.23739,-0.0053 0.0525,29.231714 -45.98878,-0.12712 0.0526,-29.104594 -43.00008,-6.6e-4 0.008,29.105214 -46.05229,-0.0636 0.0636,-29.04662 -42.87628,0.005 0,29.29589 -45.98876,-0.31779 0.0635,-28.983067 -43.07074,0.006 -0.123134,29.167717 -45.925253,-0.0636 0.12697,-29.110079 -32.0201039,0.0082 C 12.388039,165.56052 31.63481,234.01081 42.2357,262.11287 132.42483,160.34185 261.54564,163.38406 348.31925,262.41886 367.0689,211.47883 379.30811,146.98219 384.07594,97.946696 z"
     id="path2827"
     style="fill:#faf700;fill-opacity:1;stroke:none" />
</svg>
