<?xml version="1.0" encoding="UTF-8" standalone="no"?>
<!-- Created with Inkscape (http://www.inkscape.org/) -->

<svg
   xmlns:svg="http://www.w3.org/2000/svg"
   xmlns="http://www.w3.org/2000/svg"
   xmlns:xlink="http://www.w3.org/1999/xlink"
   version="1.1"
   width="390"
   height="480"
   id="svg4228">
  <defs
     id="defs4232">
    <linearGradient
       id="linearGradient3653">
      <stop
         id="stop3655"
         style="stop-color:#ffffff;stop-opacity:1"
         offset="0" />
      <stop
         id="stop3657"
         style="stop-color:#ffffff;stop-opacity:0"
         offset="1" />
    </linearGradient>
    <linearGradient
       x1="0"
       y1="109.87704"
       x2="390"
       y2="109.87704"
       id="linearGradient2934"
       xlink:href="#linearGradient3653"
       gradientUnits="userSpaceOnUse" />
  </defs>
  <path
     d="M 0,0 C 130,0 260,0 390,0 389.98981,114.99797 370.78556,350.14732 194.88837,479.99815 20.79131,350.08886 0.081386,115.02225 0,0 z"
     id="path4240-0"
     style="color:#000000;fill:#207dbf;fill-opacity:1;fill-rule:nonzero;stroke:none;marker:none;visibility:visible;display:inline;overflow:visible;enable-background:accumulate" />
  <path
     d="m 182.24895,103.03036 c -0.46873,8.0752 5.60427,9.33647 15.53173,9.31534 11.55774,-0.0246 13.57226,0.60301 13.59215,-8.33971 3.76147,0.89301 10.99937,1.80356 15.40103,-2.24069 4.26631,29.55969 -1.01336,64.23708 5.38548,88.25308 13.01436,48.84522 29.80577,71.57321 31.67088,92.12878 1.60383,17.67616 29.84064,5.93647 31.1289,-5.92501 3.45317,-31.79458 -17.42473,-66.13292 -20.10371,-94.02389 -3.74642,-39.00414 39.38071,-88.492587 38.21452,-105.362343 -1.46714,-21.223077 -22.29386,-13.298759 -21.22598,-0.164347 2.35348,28.9467 -35.81181,62.94052 -52.07833,52.4095 8.38354,-3.64406 13.01883,-6.39831 13.79237,-9.78813 -7.88968,-1.42051 -11.53458,-6.56665 -12.39406,-10.67797 6.59026,-0.59594 15.88995,-0.91788 19.44914,-6.22882 -9.73285,-4.131763 -11.54081,-8.79768 -11.63135,-13.093252 8.15943,2.722448 16.71994,4.165753 21.67374,-6.292372 4.89811,-10.34057 7.92701,-15.175235 11.56779,-19.70339 -0.62237,-3.568734 -7.19652,-8.179484 -10.80509,-9.978814 9.52316,-6.485338 46.92409,-22.163491 49.95763,15.06356 18.39867,-4.120582 26.89023,-6.819525 38.51695,-5.338983 -25.91258,16.3238 -44.45903,41.646301 -45,43.601691 9.1266,-3.70295 20.02112,-7.108813 35.84746,-5.72034 -22.2953,12.82375 -32.31191,25.00125 -48.43221,37.5 13.85189,-6.14036 28.20223,-11.13045 46.39831,-7.24576 -22.83045,10.41021 -42.79718,24.70938 -51.61017,42.20339 14.52342,-9.45367 29.65041,-18.15891 52.5,-17.28814 -15.16949,12.54237 -33.01907,17.04449 -45.50847,37.62712 12.10244,-8.73832 26.53487,-10.77791 41.31356,-11.82203 -12.96869,14.01507 -28.59676,17.39264 -37.62712,47.16102 11.60536,0.2337 18.867,-5.32422 27.71186,-8.77119 -2.83167,16.11567 -17.2975,23.4776 -26.69492,29.23729 4.89879,48.38776 -23.46283,60.85631 -50.97457,50.4661 -16.3917,15.92172 -16.20137,22.31815 -15.63559,28.98305 0.93048,10.96114 13.2285,18.56621 21.22881,9.15254 0.60586,7.0967 -3.77791,16.77506 -19.57627,13.34746 3.06023,2.98556 7.64197,7.88758 18.81356,3.55932 -0.2624,8.82743 -8.33342,15.57085 -20.97458,10.55085 -0.0682,6.42011 4.45255,11.24832 11.94915,9.5339 -1.71844,8.56634 -8.50494,10.7156 -16.14406,12.45763 -4.21301,3.30455 -5.2725,18.09693 -12.35123,17.09294 l -6.98921,-0.99129 c -2.8857,2.65282 2.57567,15.8751 -6.17638,16.42477 2.1355,-6.11745 -7.83597,-7.81905 -13.88108,-4.23745 -3.87033,-7.49604 6.62616,-12.95819 3.51836,-18.9288 -1.04309,9.19255 -6.74895,10.00528 -12.77996,17.2467 -1.50655,1.80892 -6.97055,-0.54535 -5.71671,-1.62696 4.36167,-3.76253 0.57895,-13.75837 -4.5515,-13.28772 -0.71601,-6.16547 14.52185,-0.13203 15.40782,-6.10698 0.48965,-3.30222 -12.71617,1.66356 -12.68677,-6.33941 9.18557,-1.05568 8.81755,-10.96786 6.17396,-15.49022 5.38395,-7.69877 11.75712,8.05492 16.93964,7.62757 5.57756,0.45396 8.24714,-19.66928 9.70773,-29.57264 -29.29075,-11.22338 -29.80708,-46.04127 -24.26934,-59.41495 18.83397,-6.76369 22.80474,-14.02281 27.69704,-21.25122 -13.06068,-45.26627 -64.18195,-56.45889 -61.89136,-77.27271 14.2199,-7.88678 24.21331,-14.91159 33.43221,-22.11864 -10.53293,8.46961 -36.78542,24.29479 -42.8326,26.15824 -5.45419,1.68072 -22.54985,-12.00443 -31.54723,-20.32621 -5.21344,6.23766 -10.85668,11.48931 -20.084741,8.51695 4.71059,-4.84324 8.691091,-10.11467 7.326601,-16.5935 -3.796001,6.67368 -13.591321,10.46559 -22.881347,8.77119 4.823498,-4.64451 9.701286,-10.95503 8.436096,-14.16922 -2.660353,2.66335 -8.035192,5.02114 -16.398304,4.44916 3.510603,-14.12803 -2.077166,-19.6406 -7.173945,-21.59475 -2.238586,3.26292 -8.308102,12.10661 -14.363311,2.35334 3.922279,-3.06299 3.4404,-10.32246 -0.263044,-13.02866 0.735731,-4.58667 9.041181,-1.72349 9.162864,-5.15656 0.108809,-3.06986 -11.034388,-3.04905 -9.812556,-6.95585 6.411746,-1.84994 7.222817,-6.27532 7.931364,-10.23492 6.261312,-0.86244 7.981872,13.805 10.401919,8.80249 2.240573,-4.63153 -1.380266,-10.4617 2.187177,-9.52381 5.5074,1.44791 9.587393,4.20793 14.59513,-2.04071 8.744766,3.90639 -1.099453,10.80293 -1.860513,16.32011 -1.260494,9.13774 46.37292,21.39531 61.90678,20.84745 21.6195,-24.50523 21.53821,-27.68749 31.94494,-43.22579 2.23445,0.47829 4.4113,0.55656 6.51296,0.33162 z"
     id="path2827"
     style="fill:#faf700;fill-opacity:1;stroke:#207dbf;stroke-opacity:1" />
  <path
     d="m 143.93578,145.70431 c 9.89646,-10.93216 16.40495,-19.62065 21.10085,-26.4266 C 138.0005,97.839789 112.28523,76.087264 87.981469,54.649345 85.187278,52.184638 99.303429,24.218507 86.453399,31.278866 77.70701,36.084508 74.146092,26.084101 72.161454,28.312613 69.301635,31.702378 76.795762,40.326138 70.99293,40.806831 66.119991,41.210493 69.952505,28.419014 63.082922,29.66091 c 1.95052,4.373266 -2.864762,10.008329 -8.718986,12.404331 -2.416686,6.10737 13.354195,4.295878 12.853763,10.067283 -2.988877,0.95595 -8.979782,0.794933 -8.988645,4.943755 2.881329,-0.509392 11.27212,1.490151 5.393187,13.303196 4.94117,7.818301 8.868805,0.239746 12.404331,-1.078638 7.317074,-2.728509 2.720616,10.13916 4.494323,15.190811 2.317503,6.600422 11.553444,7.381593 4.943754,15.909902 5.8212,2.48984 12.2771,0.0957 16.179561,-3.056143 -0.25128,5.515443 -0.22992,9.810743 -8.359441,12.673993 6.871831,6.08164 14.552571,3.89696 21.662631,0.44943 -0.68813,3.72225 -1.80335,7.81903 -10.96614,10.33694 5.34071,4.27238 11.0041,6.76353 21.8424,5.66285 4.42367,7.55348 11.33675,13.32841 18.11212,19.23569 z"
     id="path2974"
     style="fill:#faf700;fill-opacity:1;stroke:#207dbf;stroke-opacity:1" />
  <path
     d="m 189.74444,289.32818 c 12.65336,-3.93592 22.99942,-11.89814 27.2143,-20.64136 -0.0475,-8.17015 -25.12302,-36.18678 -46.27119,-34.3856 -21.74265,1.85182 -20.80387,14.93475 -33.12532,21.96202 -5.12982,-4.23864 -14.52248,-9.19233 -14.49152,-12.71187 0.0397,-4.5175 10.72366,-9.36918 0.38135,-13.34745 -2.39692,4.57055 -8.83457,7.03425 -13.22034,1.77965 -4.12556,-0.005 -1.95342,9.03885 -3.68644,9.27967 -3.96229,0.55061 -3.47568,-11.82806 -7.499991,-10.29661 0.446,4.62894 -3.51303,11.069 -10.9322,11.05932 -0.93326,7.18686 12.699671,5.96636 11.05932,9.27966 -2.04934,4.1394 -11.50609,-6.81571 -13.47458,3.4322 5.85964,0.34258 8.77979,13.00061 3.4886,13.3871 8.15499,12.57668 12.906081,-6.56758 15.579191,-6.14134 6.74481,1.0755 -0.29667,18.34469 6.61017,18.05085 11.47748,-0.48829 12.8112,1.43329 13.6017,5.4661 0.78043,3.98148 -5.63271,6.03923 -10.1695,7.11865 2.98848,6.98128 12.67354,5.59656 20.08475,2.41525 -2.40311,9.00015 -7.25576,7.71226 -11.18644,10.29661 6.78475,4.83053 13.85486,2.52684 20.97458,-1.01695 -1.5603,6.69544 -6.02606,9.90432 -10.93221,12.58475 31.06615,12.30742 20.05967,-45.22702 55.99577,-27.57065 z"
     id="path2976"
     style="fill:#faf700;fill-opacity:1;stroke:#207dbf;stroke-width:0.89999998;stroke-miterlimit:4;stroke-opacity:1;stroke-dasharray:none" />
  <path
     d="m 38.708533,119.33282 c 2.649207,-10.49959 17.376273,-9.84332 17.468341,-6.14956 0.06496,2.60629 -2.407238,6.28059 -4.972424,7.68695 -2.319809,1.27183 -4.861074,-4.46634 -12.495917,-1.53739 z"
     id="path3028"
     style="fill:#faf700;fill-opacity:1;stroke:none" />
  <path
     d="m 37.908897,147.81736 c -2.483732,-9.13762 10.817942,-14.76586 12.973454,-12.23068 1.530981,1.80065 1.785391,8.08561 -0.124008,9.87529 -1.760217,1.64986 -7.388742,-2.94019 -12.849446,2.35539 z"
     id="path3028-9"
     style="fill:#faf700;fill-opacity:1;stroke:none" />
  <path
     d="m 67.129595,100.66476 c 8.153672,-4.814843 16.346769,6.53552 15.054523,9.60203 -0.72029,1.70925 -5.800513,2.94116 -9.64873,1.36996 -2.233557,-0.91195 1.146808,-7.10859 -5.405793,-10.97199 z"
     id="path3028-9-4"
     style="fill:#faf700;fill-opacity:1;stroke:none" />
  <path
     d="m 73.648099,17.278916 c 9.34154,-1.549403 14.01004,12.755463 11.289649,14.671943 -2.076795,1.463078 -7.597149,-0.229328 -9.565669,-2.444156 -1.602714,-1.80325 2.993802,-6.260795 -1.72398,-12.227787 z"
     id="path3028-9-8"
     style="fill:#faf700;fill-opacity:1;stroke:none" />
  <path
     d="m 42.672698,33.119153 c 3.184222,-8.917721 20.256381,-4.078334 20.693828,-0.779541 0.311097,2.34598 -4.534513,8.06005 -7.849178,8.849658 -2.34688,0.559066 -5.33713,-9.294696 -12.84465,-8.070117 z"
     id="path3028-9-45"
     style="fill:#faf700;fill-opacity:1;stroke:none" />
  <path
     d="m 55.391824,74.941589 c -6.902118,-6.482732 3.65695,-18.260296 6.803133,-17.176356 3.370213,1.161125 3.989624,5.844709 2.931055,8.900618 -0.789675,2.279654 -7.856459,0.904401 -9.734188,8.275738 z"
     id="path3028-9-1"
     style="fill:#faf700;fill-opacity:1;stroke:none" />
  <path
     d="m 104.37559,223.34386 c 7.68765,-5.52857 19.40838,5.93546 17.62,8.74171 -1.31142,2.05782 -5.91435,3.57453 -8.69687,2.07096 -2.1225,-1.14691 -2.04965,-7.55418 -8.92313,-10.81267 z"
     id="path3028-9-1-7"
     style="fill:#faf700;fill-opacity:1;stroke:none" />
  <path
     d="m 77.581669,235.52946 c 3.461351,-7.73107 20.59098,-4.28988 20.75074,-0.56493 0.0952,2.21983 -4.13425,6.03005 -7.63055,6.79156 -2.3573,0.51343 -5.526219,-6.66721 -13.12019,-6.22663 z"
     id="path3028-9-1-1"
     style="fill:#faf700;fill-opacity:1;stroke:none" />
  <path
     d="m 76.473289,270.492 c -2.676159,-9.24428 7.729717,-15.32866 10.98718,-14.64869 3.47926,0.72627 5.5236,8.66301 3.44421,10.59833 -1.76602,1.64364 -7.212755,-2.88236 -14.43139,4.05036 z"
     id="path3028-9-1-2"
     style="fill:#faf700;fill-opacity:1;stroke:none" />
  <path
     d="m 172.52676,386.55497 c -1.35995,-9.55535 14.10941,-14.72962 15.95304,-11.95934 1.36607,2.05269 0.78867,8.0695 -1.93545,9.85113 -2.01906,1.32051 -7.52975,-2.64733 -14.01759,2.10821 z"
     id="path3028-9-1-6"
     style="fill:#faf700;fill-opacity:1;stroke:none" />
  <path
     d="m 171.35279,416.76178 c -4.65964,-7.65577 6.11509,-17.04625 9.42314,-16.68534 2.83925,0.30976 5.21759,7.8862 3.82263,10.30901 -1.20378,2.09076 -9.98001,-0.56234 -13.24577,6.37633 z"
     id="path3028-9-1-6-2"
     style="fill:#faf700;fill-opacity:1;stroke:none" />
  <path
     d="m 207.46037,431.53207 c -9.3336,-1.59653 -10.14194,-14.31028 -7.48032,-16.30757 3.29414,-2.47194 11.2775,-1.19151 11.86739,2.33456 0.39807,2.37948 -6.88962,6.7897 -4.38707,13.97301 z"
     id="path3028-9-1-6-22"
     style="fill:#faf700;fill-opacity:1;stroke:none" />
  <path
     d="m 191.46053,92.362076 c 3.17471,-1.255774 0.52783,-4.530165 1.71611,-3.78385 2.69831,1.694711 0.45266,5.24438 -2.76483,4.94946 -2.10442,-0.192894 -3.40065,-1.519285 -3.17797,-3.64611 0.25211,-2.40788 2.14597,-4.068808 4.57628,-4.089487 2.25518,-0.01919 6.61016,3.116095 6.61016,3.116095 0,0 5.61066,-3.468144 8.35806,-3.147489 2.26396,0.264232 5.107,0.908619 4.9894,4.378966 -0.0711,2.098025 -0.49192,4.48382 -3.36864,4.374348 -3.3717,-0.128308 -6.60211,-3.170093 -3.87712,-6.035354 1.711,-1.799082 -1.99208,3.105442 2.12923,4.454687 0.48222,0.15787 3.50113,2.880919 3.75001,-2.699496 0.11883,-2.664383 -2.06463,-3.913562 -4.98941,-3.279993 -2.92479,0.633568 -6.42854,2.226931 -6.32415,6.209255 0.11627,4.435849 9.53312,12.440912 21.47667,11.028742 9.27869,-1.09709 8.35821,-8.482022 8.61322,-18.473365 l -3.58566,1.011755 c 8.55579,-4.821995 7.04795,-6.650925 8.46528,-8.470761 4.25202,-5.459525 -0.60153,-26.197345 2.14913,-28.775542 6.57313,-5.751803 8.81995,-12.815186 8.89831,-22.708023 -5.08051,0.481383 -10.85171,2.885181 -17.28814,7.140483 -17.20339,-5.115804 -34.40678,-6.104691 -51.61017,-0.257314 -8.31087,-7.053212 -12.70541,-7.059781 -18.17797,-9.006015 -4.7398,12.313762 -0.1829,19.436227 4.70339,26.374757 1.80775,3.055352 -2.14154,13.15005 1.32379,24.000142 1.09259,3.420947 8.21614,8.087222 12.15079,10.48003 l -4.19492,-1.029259 c -0.55801,4.144164 -4.69429,18.687502 7.24577,18.398002 8.97172,-0.21753 17.52236,-3.103263 18.36865,-9.77796 0.52031,-4.103705 -3.05797,-6.516039 -5.72035,-6.496427 -2.2402,0.01651 -3.19984,1.177407 -3.49575,3.598559 -0.38351,3.137888 3.05083,2.161164 3.05083,2.161164 z"
     id="path3234"
     style="fill:#faf700;fill-opacity:1;stroke:none" />
  <path
     d="m 182.59531,103.13086 c -0.38594,7.21265 4.17736,8.82507 14.27754,8.98544 14.33038,0.22754 13.69346,-1.07095 13.81002,-7.30181 -2.79391,1.88115 -4.21839,3.04066 -13.09658,3.07425 -7.26745,0.0275 -10.96141,-0.8568 -14.99098,-4.75788 z"
     id="path4008"
     style="fill:#f0ed00;fill-opacity:1;stroke:none" />
  <path
     d="m 196.67889,100.45606 c 0.74757,0.84778 1.14968,0.47073 1.66477,-0.12562 15.43685,1.54328 12.35955,7.68255 -0.8762,7.11803 -19.98615,-0.85243 -9.69013,-6.99496 -0.78857,-6.99241 z"
     id="path4010"
     style="fill:#f0ed00;fill-opacity:1;stroke:#207dbf;stroke-width:0.95296323px;stroke-linecap:butt;stroke-linejoin:miter;stroke-opacity:1" />
  <path
     d="m 168.65456,67.008732 c 3.06915,-2.793662 8.88558,-3.373739 10.74143,-7.820121 -0.77457,-0.844727 -3.02133,-2.625277 -3.14602,-4.359493 3.9766,2.510921 8.09851,5.264506 15.55035,5.303301 -1.5877,7.323647 -2.34356,14.965163 -6.06733,21.887351 0.66717,-4.04489 2.48341,-10.381885 2.11233,-12.179614 -7.46998,0.780038 -8.51592,-5.184208 -19.19076,-2.831424 z"
     id="path4110"
     style="fill:#207dbf;fill-opacity:1;stroke:none" />
  <use
     transform="matrix(-1,0,0,1,397.77047,1.254753)"
     id="use3013"
     x="0"
     y="0"
     width="390"
     height="480"
     xlink:href="#path4110" />
  <path
     d="m 177.23871,65.345833 c -1.77156,-1.623323 1.53134,-3.249139 2.60672,-3.370742 0.50602,-0.05722 0.74801,6.444757 -2.60672,3.370742 z"
     id="path4156"
     style="fill:#f0ed00;fill-opacity:1;stroke:none" />
  <use
     transform="matrix(-1,0,0,1,397.77047,1.254753)"
     id="use3015"
     x="0"
     y="0"
     width="390"
     height="480"
     xlink:href="#path4156" />
</svg>
