<?xml version="1.0" encoding="UTF-8" standalone="no"?>
<!-- Created with Inkscape (http://www.inkscape.org/) -->

<svg
   xmlns:svg="http://www.w3.org/2000/svg"
   xmlns="http://www.w3.org/2000/svg"
   version="1.1"
   width="390"
   height="480"
   id="svg4228">
  <defs
     id="defs4232" />
  <path
     d="m 0.51202379,0.50512952 c 129.66265621,0 259.32532621,0 388.98797621,0 C 389.48983,115.23328 370.33544,349.8309 194.89467,479.37706 21.249382,349.77255 0.5931986,115.2575 0.51202379,0.50512952 z"
     id="path4240-0-1"
     style="fill:#faf700;fill-opacity:1;stroke:#9e832a;stroke-width:0.99999905;stroke-opacity:1" />
  <path
     d="m 20.80263,187.3848 348.88837,1.9e-4 c 3.65641,-16.6477 7.06536,-33.11661 9.43952,-50.68164 -6.1959,14.69749 -44.2989,34.31847 -56.53697,11.2714 -6.62063,-12.46816 0.85487,-34.0278 38.43565,-31.52807 -9.35136,-15.70468 -26.47787,-27.825767 -52.02398,-21.866248 -23.74728,5.539878 -42.96331,25.569548 -58.31946,43.276648 -20.3699,23.48844 -40.2128,31.54386 -52.06978,12.15175 -8.20679,-13.42223 8.77358,-34.79938 36.10621,-28.85835 C 230.07874,105.58803 213.0252,89.988709 180.49817,97.885796 156.68296,103.66778 137.81953,129.58198 105.63218,154.93499 90.885066,166.55086 74.810558,166.1207 68.426585,151.78863 61.806635,136.9268 73.15438,120.18973 108.02695,123.05742 102.94943,109.74399 84.616804,88.093424 52.379383,100.9369 38.264071,106.56047 23.228366,115.4028 9.7994313,127.1254 12.540875,147.90661 16.406708,167.93191 20.80263,187.38486 l 0,-6e-5 z"
     id="path2830"
     style="fill:#207dbf;fill-opacity:1;stroke:none" />
  <path
     d="m 55.152344,295.37674 280.378906,0 c 4.17026,-9.58263 8.77497,-20.42484 12.48332,-32.08773 -12.14757,5.3315 -26.01714,5.67341 -32.63703,-7.02191 -6.45187,-12.37311 0.83308,-33.76838 37.45593,-31.2877 -9.113,-15.58496 -25.80296,-27.61363 -50.6979,-21.69955 -23.14195,5.49764 -41.86817,25.3746 -56.83289,42.9467 -19.85067,23.30938 -39.18778,31.30338 -50.74254,12.05911 -7.99758,-13.31989 8.54995,-34.53406 35.18587,-28.63834 -4.52508,-15.44379 -21.14393,-30.92419 -52.84185,-23.0873 -23.20816,5.7379 -41.59077,31.45452 -72.95766,56.61426 -14.371212,11.5273 -30.035982,11.10041 -36.257228,-3.12238 -6.451207,-14.74852 4.607285,-31.35799 38.590948,-28.51217 -4.94809,-13.21193 -22.813416,-34.69743 -54.229109,-21.95188 -7.265061,2.94748 -15.757703,7.29925 -22.744553,11.5642 5.675817,20.79828 15.324821,50.36942 25.845786,74.22469 z"
     id="path2830-1"
     style="fill:#207dbf;fill-opacity:1;stroke:none" />
  <path
     d="m 116.38536,401.22098 157.68623,0.007 c 11.29693,-14.19948 21.70638,-29.95937 30.37267,-44.46098 -12.65242,12.60841 -39.28562,28.2154 -51.13838,5.3433 -6.41217,-12.37351 0.82796,-33.76948 37.2255,-31.28872 -9.05693,-15.58545 -25.64422,-27.61451 -50.386,-21.70024 -22.99958,5.49782 -41.6106,25.37541 -56.48325,42.94808 -19.72855,23.31014 -38.9467,31.3044 -50.43037,12.05951 -7.94838,-13.32033 8.49735,-34.53519 34.9694,-28.63927 -4.49724,-15.4443 -21.01385,-30.92517 -52.51676,-23.08804 -13.60265,3.384 -25.537302,13.71672 -39.434479,26.78603 11.433663,21.42532 24.408779,42.2097 40.135439,62.03356 l 0,-2.3e-4 z"
     id="path2830-1-7"
     style="fill:#207dbf;fill-opacity:1;stroke:none" />
</svg>
