<?xml version="1.0" encoding="UTF-8" standalone="no"?>
<!-- Created with Inkscape (http://www.inkscape.org/) -->

<svg
   xmlns:dc="http://purl.org/dc/elements/1.1/"
   xmlns:cc="http://creativecommons.org/ns#"
   xmlns:rdf="http://www.w3.org/1999/02/22-rdf-syntax-ns#"
   xmlns:svg="http://www.w3.org/2000/svg"
   xmlns="http://www.w3.org/2000/svg"
   version="1.1"
   width="390"
   height="480"
   id="svg4228">
  <metadata
     id="metadata13">
    <rdf:RDF>
      <cc:Work
         rdf:about="">
        <dc:format>image/svg+xml</dc:format>
        <dc:type
           rdf:resource="http://purl.org/dc/dcmitype/StillImage" />
        <dc:title></dc:title>
      </cc:Work>
    </rdf:RDF>
  </metadata>
  <defs
     id="defs4232" />
  <path
     d="M 0,0 C 130,0 260,0 390,0 389.98981,114.99797 370.78556,350.14732 194.88837,479.99815 20.79131,350.08886 0.081386,115.02225 0,0 z"
     id="path4240-0"
     style="fill:#008c31;fill-opacity:1;stroke:none" />
  <path
     d="m 174.93656,262.30906 c -12.47966,-5.1402 -18.04122,-14.76348 -20.91101,-20.72034 5.12207,-2.97551 27.61177,-54.57031 5.02118,-60.82627 1.62279,21.38915 -12.74018,48.03556 -23.58051,52.43645 -3.13708,0.93518 -8.62605,-2.32416 -9.91525,-8.1356 14.3335,-12.80998 25.53999,-52.44906 9.59746,-57.64831 -2.24429,15.00658 -2.7106,33.69173 -28.41102,44.80933 -17.643747,-7.10601 -28.808369,-23.55048 -27.521175,-53.64407 17.770627,-16.38221 47.532755,-36.60645 35.153915,-63.833504 -4.03251,3.51932 -7.74225,14.099974 -15.865638,24.125974 -6.91407,8.53344 -19.559585,22.03835 -26.935334,17.63251 -4.501457,-2.68891 -2.174792,-28.25835 -2.103071,-40.080394 30.469085,-20.97549 28.741795,-58.82843 17.169276,-61.18239 -1.317503,8.95935 -8.186319,35.10821 -18.796266,35.56237 -7.932114,0.34498 -5.254038,-28.87225 -7.627119,-43.34746 -0.570575,-3.48036 -7.705939,-3.48193 -8.199152,0.38136 -1.233399,9.66111 -0.669585,35.55818 -6.228814,37.43644 -5.559229,1.87826 -10.476337,-15.56962 -12.394068,-29.42797 -13.13087,1.67482 -10.843242,36.97089 17.139208,64.369404 4.234464,44.71846 12.221126,88.53734 20.106555,101.39332 4.312424,7.03075 16.252736,24.55107 33.910643,37.5061 18.35881,13.46924 42.98827,21.50482 41.21647,30.37525 -23.98448,-10.737 -49.461515,-16.51816 -72.476972,-14.55158 12.913157,30.6508 23.937797,36.60699 71.968492,40.22955 1.00615,3.08283 2.19631,5.98166 3.87712,8.38983 29.21185,1.98306 31.61813,27.34079 35.08474,37.69068 1.1025,3.29163 -6.0729,-12.58794 -8.8983,-15.88982 -7.26284,1.50833 -14.32888,1.30671 -22.11864,-0.38137 2.52219,21.7653 18.87889,45.50985 22.30932,68.70763 0.8968,6.0645 1.5021,15.10434 9.66101,21.35593 7.72468,-0.97197 12.73434,-4.39435 12.71187,-9.08898 -0.0248,-5.18141 -13.0905,-5.92321 -10.99576,-10.55085 1.24003,-2.73944 9.26706,4.18285 12.90254,4.19491 3.29627,0.0109 8.63208,-5.31762 10.74152,-4.06779 3.70558,2.19553 -9.80621,5.8683 -9.66101,10.67797 0.15587,5.16306 6.57456,8.52315 13.02966,8.07203 8.48627,-6.04453 4.69459,-16.59984 5.02119,-22.43644 1.1294,-20.18317 23.20616,-43.11342 24.59746,-69.34323 -6.0643,2.15675 -12.5374,4.58055 -20.97458,4.7034 -3.00922,2.74272 -6.29111,8.46161 -8.00847,12.83898 -2.68665,6.84796 4.8586,-33.91762 32.0339,-37.24576 1.21716,-3.10699 1.99686,-5.36849 2.41524,-8.13559 34.46042,2.80546 60.66388,-7.40746 69.78814,-42.20339 -13.34975,-2.01428 -56.30007,11.92386 -74.61864,21.86441 -2.70405,-12.14198 44.73714,-31.68002 54.27966,-40.67797 5.96837,-5.62777 20.6488,-25.5429 25.93099,-42.71224 8.05948,-26.1967 9.75818,-63.09451 18.66583,-88.23055 20.06452,-23.033064 25.07491,-61.654114 14.63517,-65.214064 -2.98542,7.8749 -3.62653,34.36821 -12.45233,34.58905 -8.04499,0.2013 -2.79594,-38.37359 -4.19492,-41.94915 -1.36449,-3.48741 -6.25258,-4.16213 -7.62711,2.28813 -1.37453,6.45026 -8.58722,41.26337 -15.06543,41.11198 -7.00502,-0.1637 -10.5419,-14.24048 -15.66644,-39.45944 -9.19206,-0.0144 -12.61706,50.42466 16.30577,61.81051 4.47755,16.755754 10.32141,42.809664 1.01321,48.010974 -2.74755,1.5353 -14.62878,-6.87037 -21.24159,-14.56069 -8.20252,-9.53907 -14.42051,-21.54663 -20.49695,-34.640614 -6.94315,6.959784 -0.21163,29.231274 5.44803,40.439154 4.49168,8.89491 20.94282,22.19277 30.38136,30.38135 -1.93465,13.6439 -21.46541,49.02657 -31.36746,49.6417 -1.20713,0.075 -17.70871,-1.36894 -20.72782,-46.54723 -18.68655,7.71529 -7.07506,41.1052 2.90036,59.06655 -0.82366,3.42677 -5.45218,5.33233 -8.38982,4.38559 -16.90557,-5.44829 -20.11432,-30.08761 -21.89899,-57.92435 -18.98858,3.67107 -9.58898,52.75783 4.35661,68.15741 -2.20733,5.40092 -3.6133,10.51564 -15,19.19491 -16.46968,-2.59542 -32.81531,-2.64236 -49.00424,0.82627 z"
     id="path2829"
     style="fill:#faf700;fill-opacity:1;stroke:none" />
  <path
     d="m 187.90267,417.7116 c 2.02221,-2.3545 6.75263,-4.27342 11.47246,-4.63983 3.66859,-0.2848 7.44174,1.54518 11.02754,4.13135 5.37802,3.87876 -26.3443,4.98448 -22.5,0.50848 z"
     id="path3968"
     style="fill:#f0ed00;fill-opacity:1;stroke:none" />
  <path
     d="m 167.04896,322.31708 c 0.5384,-2.28726 0.51801,-6.11257 0.005,-9.32506 2.28944,1.0759 6.08657,4.16699 6.28754,8.33632 -2.08033,1.45222 -4.46422,1.49731 -6.29206,0.98874 z"
     id="path4020-4"
     style="fill:#faf700;fill-opacity:1;stroke:none" />
  <path
     d="m 157.79704,321.73415 c -2.33957,-4.85198 0.9421,-14.59821 -6.06602,-14.31695 -0.73656,7.04127 1.0123,15.17108 6.06602,14.31695 z"
     id="path4020-6"
     style="fill:#faf700;fill-opacity:1;stroke:none" />
  <path
     d="m 230.81968,324.17651 c -0.76004,-2.22346 -1.11477,-6.03234 -0.91917,-9.27965 -2.17293,1.29517 -5.64873,4.74362 -5.43999,8.91257 2.21268,1.24128 4.58951,1.05244 6.35868,0.36713 l 4.8e-4,-5e-5 z"
     id="path4020-4-5"
     style="fill:#faf700;fill-opacity:1;stroke:none" />
  <path
     d="m 239.89501,320.98611 c 2.05302,-4.85198 -0.82671,-14.59821 5.32305,-14.31695 0.64634,7.04127 -0.88832,15.17108 -5.32305,14.31695 z"
     id="path4020-6-4"
     style="fill:#faf700;fill-opacity:1;stroke:none" />
</svg>
