<?xml version="1.0" encoding="UTF-8" standalone="no"?>
<!-- Created with Inkscape (http://www.inkscape.org/) -->

<svg
   xmlns:svg="http://www.w3.org/2000/svg"
   xmlns="http://www.w3.org/2000/svg"
   xmlns:xlink="http://www.w3.org/1999/xlink"
   version="1.1"
   width="390"
   height="480"
   id="svg4228">
  <defs
     id="defs4232">
    <linearGradient
       id="linearGradient3652">
      <stop
         id="stop3654"
         style="stop-color:#ffffff;stop-opacity:1"
         offset="0" />
      <stop
         id="stop3656"
         style="stop-color:#ffffff;stop-opacity:0"
         offset="1" />
    </linearGradient>
    <linearGradient
       x1="1.041629"
       y1="110.18271"
       x2="389.03033"
       y2="110.18271"
       id="linearGradient2952"
       xlink:href="#linearGradient3652"
       gradientUnits="userSpaceOnUse"
       gradientTransform="translate(0,3.7e-6)" />
  </defs>
  <path
     d="m 0.51202379,0.50512952 c 129.66265621,0 259.32532621,0 388.98797621,0 C 389.48983,115.23328 370.33544,349.8309 194.89467,479.37706 21.249382,349.77255 0.5931986,115.2575 0.51202379,0.50512952 z"
     id="path4240-0-1"
     style="fill:#008c31;fill-opacity:1;stroke:#999999;stroke-width:0.99999905;stroke-opacity:1" />
  <path
     d="m 95.962115,1.01129 c -0.0067,18.87585 27.790815,43.229933 77.887195,24.373937 -12.46815,61.665266 41.21423,90.450583 87.25,69.036829 -13.04256,54.926254 34.14839,92.859754 83.03212,69.606284 -6.65115,21.19896 0.0236,46.8452 16.43028,59.67548 -3.03051,10.76625 -8.85455,32.26848 -19.63108,58.48747 C 301.58248,263.64326 305.2799,238.67172 308.74688,210.77741 268.11434,234.776 205.9821,200.25822 222.09049,140.95523 165.84129,169.7041 124.17913,120.71409 135.26821,75.012626 80.83878,97.739717 38.530866,52.940856 46.214687,1.0117338 z"
     id="path2827"
     style="fill:#ececec;stroke:none" />
  <path
     d="M 4.7380064,83.039193 C 13.885501,116.54499 52.85429,138.17727 96.513605,116.1663 c -15.810824,58.97353 45.905115,95.54525 91.748585,70.66953 -12.37633,55.18896 37.29756,93.98567 92.49266,70.38148 -8.78212,29.85056 3.71573,71.23508 36.79083,76.15009 -9.68371,18.52367 -20.2505,35.61785 -28.58777,47.46117 -42.51335,-7.99782 -55.37146,-43.639 -47.08255,-73.44577 C 189.46307,330.06554 134.72892,293.89579 147.67612,239.01006 93.736079,262.0808 44.033993,222.34732 59.629674,169.38451 42.677542,176.55175 25.512008,174.03998 17.440866,171.30258 12.210655,147.55843 6.233003,104.46267 4.7380064,83.039193 z"
     id="path2829"
     style="fill:#ececec;stroke:none" />
</svg>
