<?xml version="1.0" encoding="UTF-8" standalone="no"?>
<!-- Created with Inkscape (http://www.inkscape.org/) -->

<svg
   xmlns:svg="http://www.w3.org/2000/svg"
   xmlns="http://www.w3.org/2000/svg"
   version="1.1"
   width="390"
   height="480"
   id="svg4228">
  <defs
     id="defs4232" />
  <path
     d="M 0,0 C 130,0 260,0 390,0 389.98981,114.99797 370.78556,350.14732 194.88837,479.99815 20.79131,350.08886 0.081386,115.02225 0,0 z"
     id="path4240-0"
     style="fill:#008c31;fill-opacity:1;stroke:none" />
  <path
     d="m 93.464052,117.2549 c 0.135172,6.26726 7.418928,16.26268 16.862748,16.73203 l 63.79085,3.66013 c 4.04643,0.23217 2.82877,4.75559 0.94905,6.17681 -3.85465,2.91442 -7.34094,6.69976 -7.30215,16.36051 0.028,6.98476 -0.16908,12.39921 3.69729,15.80592 3.56409,3.14038 7.02366,5.77732 6.56269,14.88159 -2.90484,57.37098 -15.61926,97.00779 -14.68439,141.98582 0.6481,31.18094 11.16966,92.89392 11.16966,92.89392 1.63464,13.59471 35.77884,10.6823 38.30066,0 30.06486,-127.35344 1.1602,-148.01749 -1.51032,-237.74513 -0.71786,-14.73281 6.99907,-7.636 7.02486,-28.56157 0.009,-7.36945 -0.99059,-12.27467 -7.57945,-15.34376 -0.98473,-0.45869 -2.39982,-4.85815 1.66378,-7.20972 l 68.21501,-5.54593 c 5.45346,-0.44337 15.71149,-6.93609 16.08321,-17.93186 l 1.47892,-43.997759 c 0.20124,-5.986944 -7.80574,-15.298404 -16.08322,-16.083213 l -62.29934,-6.839987 -9.05836,-13.864839 c -2.31694,-2.982825 -23.53411,-5.650106 -29.39346,0.924323 l -9.05836,14.419432 -65.44204,7.209716 c -5.84868,0.644347 -14.692928,5.907433 -14.419431,14.234568 l 1.031793,47.838999 z"
     id="path3649"
     style="fill:#faf700;fill-opacity:1;stroke:none" />
</svg>
