<?xml version="1.0" encoding="UTF-8" standalone="no"?>
<!-- Created with Inkscape (http://www.inkscape.org/) -->

<svg
   xmlns:svg="http://www.w3.org/2000/svg"
   xmlns="http://www.w3.org/2000/svg"
   version="1.0"
   width="200"
   height="240"
   id="svg2570">
  <defs
     id="defs2572" />
  <g
     transform="translate(-275,-412.36218)"
     id="layer1">
    <g
       transform="translate(275,412.36218)"
       id="g2533"
       style="fill:#118f40;fill-opacity:1">
      <path
         d="m 0,0 c 0,0 200,0 200,0 l 0,30 C 200,187.49046 104.56965,240 100,240 95.43035,240 0,187.49046 0,30 L 0,0 z"
         id="path2535"
         style="fill:#118f40;fill-opacity:1;fill-rule:nonzero;stroke:none;stroke-width:3;marker:none;visibility:visible;display:block" />
      <g
         transform="translate(-303.69267,-712.31496)"
         id="g2537"
         style="fill:#118f40;fill-opacity:1" />
    </g>
    <path
       d="m 382.49322,537.26733 0,0 0,19.50334 20.54184,-0.0264 0,-19.50333 -20.54184,0.0264 z m -10.09278,0 -20.54185,-0.0264 0,19.50333 20.54185,0.0264 0,-19.50334 0,0 z m 25.65655,-107.30539 -0.15099,10.11482 c -5.44403,0 -15.41278,3.78877 -15.41278,11.62964 0,0 0,80.02478 0,80.02478 l 20.54644,-0.0264 0,-5.9641 10.11483,0 0,36.53961 c 0,34.50125 -5.20765,43.40968 -5.20765,43.40968 0,0 -4.90718,-8.90174 -4.90718,-43.40968 l -20.54644,0 c 0,34.50158 -5.04639,44.84408 -5.04639,44.84408 0,0 -5.04639,-10.3425 -5.04639,-44.84408 l -20.54645,0 c 0,34.50794 -4.90717,43.40968 -4.90717,43.40968 0,0 -5.20765,-8.90843 -5.20765,-43.40968 l 0,-36.53961 10.11482,0 0,5.9641 20.54645,0.0264 c 0,0 0,-80.02478 0,-80.02478 0,-7.84087 -9.96875,-11.62964 -15.41278,-11.62964 l 0,-10.11482 41.06933,0 z"
       id="path2543"
       style="fill:#ffffff;fill-rule:nonzero;stroke:none" />
  </g>
</svg>
