<?xml version="1.0" encoding="UTF-8" standalone="no"?>
<!-- Created with Inkscape (http://www.inkscape.org/) -->

<svg
   xmlns:svg="http://www.w3.org/2000/svg"
   xmlns="http://www.w3.org/2000/svg"
   xmlns:xlink="http://www.w3.org/1999/xlink"
   version="1.1"
   width="390"
   height="480"
   id="svg4228">
  <defs
     id="defs4232" />
  <path
     d="M 0,0 C 130,0 260,0 390,0 389.98981,114.99797 370.78556,350.14732 194.88837,479.99815 20.79131,350.08886 0.081386,115.02225 0,0 z"
     id="path4240-0"
     style="fill:#207dbf;fill-opacity:1;stroke:none" />
  <use
     transform="translate(94,66)"
     id="use3762"
     x="0"
     y="0"
     width="390"
     height="480"
     xlink:href="#path3807-8" />
  <path
     d="m 83.421258,27.927628 c -10.42588,-4.195193 -9.32791,6.61346 -3.42548,8.99704 6.80725,2.74898 2.54888,8.73956 -2.47625,7.59383 -8.00569,-1.8253 -6.37483,9.34192 -2.55879,11.72092 45.315112,28.25045 30.073472,117.474112 -1.75583,126.860642 -5.76718,1.70075 -8.60159,-15.49443 -7.07612,-26.15983 1.06183,-7.42383 6.73268,-6.68348 12.62887,-5.86046 0.66181,-9.35018 -12.64092,-15.51716 -17.84973,-25.89917 -9.268031,-18.47268 -0.8876,-27.713712 -15.898071,-37.706252 -1.82377,50.548392 -6.43755,108.907162 15.175931,150.769402 31.00806,-4.913 87.154352,-57.97197 53.011762,-179.246982 -1.16628,-4.14267 -5.83685,-5.48367 -8.52181,-7.04952 -3.54182,-2.06556 -2.38776,-6.82951 1.73337,-6.02554 3.18123,0.62061 6.71158,-5.50738 1.65083,-7.6351 L 83.421258,27.927628 z"
     id="path3807-8"
     style="fill:#f2f2f2;stroke:none" />
  <use
     transform="translate(188,128)"
     id="use3764"
     x="0"
     y="0"
     width="390"
     height="480"
     xlink:href="#path3807-8" />
</svg>
