<?xml version="1.0" encoding="UTF-8" standalone="no"?>
<!-- Created with Inkscape (http://www.inkscape.org/) -->

<svg
   xmlns:svg="http://www.w3.org/2000/svg"
   xmlns="http://www.w3.org/2000/svg"
   version="1.1"
   width="420"
   height="480"
   id="svg4228">
  <defs
     id="defs4232" />
  <path
     d="m 0.5070884,0.50209541 c 139.6632216,0 279.3264716,0 418.9897016,0 C 419.48584,115.23404 398.85409,349.83946 209.88201,479.38992 22.84387,349.78113 0.59452403,115.25827 0.5070884,0.50209541 z"
     id="path4240-0"
     style="color:#000000;fill:#207dbf;fill-opacity:1;fill-rule:nonzero;stroke:#999999;stroke-width:0.99771082;stroke-opacity:1;marker:none;visibility:visible;display:inline;overflow:visible;enable-background:accumulate" />
  <path
     d="m 410.58194,122.316 c -4.30964,29.62942 -9.36694,54.49262 -16.84904,82.6247 -68.70697,9.07645 -160.56195,6.60742 -243.47271,-5.66209 C 122.73536,195.20536 63.330907,181.2983 60.104076,118.66844 L 56.214989,43.184783 c -8.356607,-1.301493 -8.806462,-11.508933 -0.08839,-11.75565 6.386585,-0.180737 12.557274,-0.459849 19.180273,-0.441942 8.923852,0.02413 11.647051,10.501801 -0.883883,12.551145 L 74.281878,66.517328 C 74.176263,83.716079 125.05727,98.271924 136.82516,100.99077 233.78252,122.59051 309.816,131.011 410.58194,122.316 z"
     id="path2999"
     style="fill:#f2f2f2;stroke:none" />
  <path
     d="m 314.45138,376.44484 c -38.77752,-1.08497 -78.40793,-4.35591 -118.19119,-9.76741 -27.52483,-3.74405 -86.92928,-16.52716 -90.15611,-74.09532 l -3.88909,-69.38313 c -8.356608,-1.1963 -8.806463,-10.57879 -0.0884,-10.80557 6.38658,-0.16612 12.55727,-0.42268 19.18027,-0.40622 8.92385,0.0222 11.64705,9.65305 -0.88388,11.53678 l -0.14111,21.12184 c -0.10562,15.80876 50.77539,29.18821 62.54328,31.68732 64.55392,13.21878 118.15496,15.61897 180.46976,14.84566 -16.68443,37.09625 -33.7856,64.6712 -48.84353,85.26605 z"
     id="path2999-1"
     style="fill:#f2f2f2;stroke:none" />
</svg>
