<?xml version="1.0" encoding="UTF-8" standalone="no"?>
<!-- Created with Inkscape (http://www.inkscape.org/) -->

<svg
 xmlns:dc="http://purl.org/dc/elements/1.1/"
 xmlns:cc="http://creativecommons.org/ns#"
 xmlns:rdf="http://www.w3.org/1999/02/22-rdf-syntax-ns#"
 xmlns:svg="http://www.w3.org/2000/svg"
 xmlns="http://www.w3.org/2000/svg"
 version="1.1"
 width="390"
 height="480"
 id="svg4228">
<metadata
 id="metadata16">
<rdf:RDF>
<cc:Work
 rdf:about="">
<dc:format>image/svg+xml</dc:format>
<dc:type
 rdf:resource="http://purl.org/dc/dcmitype/StillImage" />
<dc:title></dc:title>
</cc:Work>
</rdf:RDF>
</metadata>
<defs
 id="defs4232" />
<path
 d="M 0.53145838,0.62913727 389.47568,0.59505762 C 389.46078,270.01765 389.45654,273.99204 389.45658,274.0042 390.45407,548.01562 0.53806439,548.02123 0.5347575,274.00344 L 0.53145838,0.62913727 z"
 id="path2902"
 style="fill:#faf700;fill-opacity:1;stroke:#9e832a;stroke-width:0.99750447;stroke-opacity:1" />
<path
 d="M 31.348611,35.634195 C 35.992328,29.308193 50.727,21.595679 58.700179,30.163886 l 9.397718,10.099032 c 2.966175,2.729046 9.18933,-4.086853 10.940641,-1.683172 C 109.53898,80.442182 130.54353,141.15819 144.12125,198.4812 l 30.29705,7.57432 41.79894,-175.611113 C 233.9383,28.2177 347.83833,47.07104 345.28438,137.62036 c -1.41152,50.04711 -9.07353,105.31112 -20.6298,161.27007 l -38.48252,13.68707 -10.31502,17.85271 c 7.97052,7.33532 20.92102,34.15982 18.05111,54.15333 -16.86096,0.1562 -33.72192,0.65879 -50.58288,-5.35579 l -20.8282,48.00418 10.51341,0.1984 c 21.5641,-16.01318 36.82685,12.09548 23.01011,21.62156 -1.80606,-21.57001 -19.9844,-13.04881 -24.99384,-2.38031 l -60.10431,-0.59519 c -3.99689,-20.18376 -19.51864,-8.39459 -25.7872,0 -3.25994,-5.17315 11.1322,-45.65424 36.10222,-18.4479 l 11.70333,-0.19816 11.90196,-21.82019 -46.02044,-7.93449 L 61.926273,293.58051 50.144047,263.00287 70.622655,117.96935 c -3.478142,2.49731 -6.934176,5.02145 -11.571819,6.10151 -3.29326,-3.53616 -4.283119,-7.36019 -4.418335,-11.29116 -3.015679,1.18612 -6.031359,1.77633 -9.047041,2.17417 -0.712765,-3.21224 -1.675818,-6.40894 -0.35068,-9.74849 -4.218861,0.34909 -8.213076,0.24902 -11.641955,-0.98195 1.509632,-3.78684 3.327815,-7.304092 5.891125,-10.169042 -3.848808,-0.623719 -7.662257,-1.265216 -9.958783,-2.66503 1.876642,-4.162348 4.885305,-7.398414 8.205475,-10.379554 -5.531233,-1.755342 -7.8705,-4.194599 -9.748398,-6.732744 3.120447,-5.405103 6.453138,-10.696998 13.465399,-14.02644 -2.323273,-2.842059 -4.548657,-7.777903 -2.454622,-14.0966 5.409326,0.227892 10.69732,2.396703 15.920021,5.610581 C 54.231089,41.497207 44.298379,37.537166 31.348611,35.634195 z"
 id="path3800"
 style="fill:#000000;stroke:none" />
</svg>
