<?xml version="1.0" encoding="UTF-8" standalone="no"?>
<!-- Created with Inkscape (http://www.inkscape.org/) -->
<svg
   xmlns:dc="http://purl.org/dc/elements/1.1/"
   xmlns:cc="http://creativecommons.org/ns#"
   xmlns:rdf="http://www.w3.org/1999/02/22-rdf-syntax-ns#"
   xmlns:svg="http://www.w3.org/2000/svg"
   xmlns="http://www.w3.org/2000/svg"
   xmlns:sodipodi="http://sodipodi.sourceforge.net/DTD/sodipodi-0.dtd"
   xmlns:inkscape="http://www.inkscape.org/namespaces/inkscape"
   width="200.00002"
   height="235.95946"
   id="svg3156"
   sodipodi:version="0.32"
   inkscape:version="0.46"
   version="1.0"
   sodipodi:docname="Namsos.svg"
   inkscape:output_extension="org.inkscape.output.svg.inkscape">
  <defs
     id="defs3158">
    <inkscape:perspective
       sodipodi:type="inkscape:persp3d"
       inkscape:vp_x="0 : 526.18109 : 1"
       inkscape:vp_y="0 : 1000 : 0"
       inkscape:vp_z="744.09448 : 526.18109 : 1"
       inkscape:persp3d-origin="372.04724 : 350.78739 : 1"
       id="perspective3164" />
  </defs>
  <sodipodi:namedview
     id="base"
     pagecolor="#ffffff"
     bordercolor="#666666"
     borderopacity="1.0"
     gridtolerance="10000"
     guidetolerance="10"
     objecttolerance="10"
     inkscape:pageopacity="0.0"
     inkscape:pageshadow="2"
     inkscape:zoom="0.98994949"
     inkscape:cx="552.23076"
     inkscape:cy="511.69113"
     inkscape:document-units="px"
     inkscape:current-layer="layer1"
     showgrid="false"
     inkscape:window-width="1680"
     inkscape:window-height="978"
     inkscape:window-x="0"
     inkscape:window-y="51" />
  <metadata
     id="metadata3161">
    <rdf:RDF>
      <cc:Work
         rdf:about="">
        <dc:format>image/svg+xml</dc:format>
        <dc:type
           rdf:resource="http://purl.org/dc/dcmitype/StillImage" />
      </cc:Work>
    </rdf:RDF>
  </metadata>
  <g
     inkscape:label="Layer 1"
     inkscape:groupmode="layer"
     id="layer1"
     transform="translate(-419.4518,-414.38245)">
    <path
       sodipodi:nodetypes="cccccc"
       style="opacity:1;fill:#be0027;fill-opacity:1;fill-rule:nonzero;stroke:none;stroke-width:3;stroke-linecap:round;stroke-linejoin:bevel;marker:none;marker-start:none;marker-mid:none;marker-end:none;stroke-miterlimit:4;stroke-dasharray:none;stroke-dashoffset:0;stroke-opacity:1;visibility:visible;display:block"
       id="path2122"
       d="M 419.4518,414.38245 C 419.4518,414.38245 619.45182,414.38245 619.45182,414.38245 L 619.45182,494.89007 C 619.45182,610.63221 519.45179,650.34191 519.45179,650.34191 C 519.45179,650.34191 419.4518,610.64543 419.4518,494.89007 L 419.4518,414.38245 z" />
    <path
       id="path11"
       style="font-style:normal;font-variant:normal;font-weight:normal;font-stretch:normal;letter-spacing:normal;word-spacing:normal;text-anchor:start;fill:#fae103;fill-opacity:1;fill-rule:nonzero;stroke:#e2c91b;stroke-width:0;stroke-linecap:butt;stroke-linejoin:miter;stroke-miterlimit:10.43299961;stroke-dasharray:none;stroke-dashoffset:0;stroke-opacity:1"
       d="M 479.91178,421.87153 C 481.68093,427.49532 479.41333,433.56366 481.53622,439.46235 C 484.70438,448.26543 498.0043,449.9127 502.72794,444.41227 C 508.26362,437.9663 516.8317,430.53037 512.15534,421.0966 C 517.00507,419.80129 517.701,435.66906 516.40902,441.51082 C 513.73591,453.59737 507.67696,464.60922 505.38216,476.90194 C 504.15655,483.46736 510.08768,487.85943 514.66656,490.67853 C 522.08866,495.24813 531.38992,479.60677 531.33711,472.31302 C 531.25896,461.52274 520.74325,452.98916 522.31694,440.73664 C 523.20425,433.82819 521.549,422.58724 527.8789,419.48531 C 525.31035,430.21811 531.70713,439.34187 538.6281,446.65691 C 547.79517,449.29691 555.85103,447.28519 561.26826,439.14746 C 564.92168,433.65931 564.36418,422.87746 566.72157,420.08823 C 575.34281,428.13795 561.0463,444.01772 572.08617,448.98686 C 581.9144,453.41064 589.91339,446.39003 597.74278,439.25725 C 603.72945,433.8032 608.95387,426.9309 611.92965,420.10941 C 612.95038,430.01579 608.31875,439.38821 601.96297,446.63341 C 597.41373,451.81927 590.96669,469.40152 602.22636,467.56621 C 606.88133,466.80745 617.24805,460.2358 609.56551,469.06243 C 603.77418,475.71622 595.65138,475.49524 594.44426,485.65412 C 593.09678,496.99427 607.86391,499.07421 613.9428,493.20291 C 613.03714,501.8361 600.65301,505.45807 592.82856,505.92678 C 580.76785,506.64926 568.78603,502.30821 559.01219,495.18017 C 551.11839,489.42322 539.31179,484.27954 530.45395,489.37888 C 525.80214,492.05686 521.79317,495.55509 530.42528,498.48407 C 539.32741,501.50467 548.83467,496.01044 557.78361,499.93432 C 564.53981,499.64395 577.33851,512.52071 563.37837,510.53814 C 554.92554,509.75178 547.0834,505.93394 539.09381,504.35901 C 531.22051,504.73004 543.97073,510.08506 547.44065,510.6864 C 557.4377,512.41892 565.70718,521.39159 574.1424,527.81275 C 584.41029,535.62904 594.14842,544.20755 602.85092,553.70215 C 598.15336,561.84408 546.67121,617.94209 526.32124,637.73498 C 518.77841,645.07131 519.12412,623.72817 518.61415,617.43603 C 517.45956,603.18989 517.83125,588.46615 518.14304,574.00356 C 518.30563,566.46261 518.53582,559.42053 519.46037,552.43577 C 520.36001,545.63933 517.97831,543.31525 511.16375,546.10293 C 506.15975,545.97558 501.76616,544.07944 505.13802,550.1595 C 504.85076,554.94984 501.7019,554.85075 500.34536,552.05018 C 497.21609,556.7999 493.10577,553.52361 492.18213,552.69261 C 486.17702,556.34456 484.69125,549.27701 491.38913,547.87161 C 494.98508,541.42202 487.41505,539.98372 482.96234,541.69013 C 476.51945,541.35156 471.89748,545.54553 466.20416,547.86964 C 459.7262,550.51405 461.25182,562.68349 451.47516,559.64943 C 454.62666,555.48028 452.62124,545.68386 448.87976,554.42213 C 442.81189,568.59376 426.61768,551.45874 434.3644,541.84896 C 433.57184,532.80183 439.35166,521.75055 448.30662,518.30062 C 457.57419,514.73023 468.30615,514.25999 476.25483,507.94175 C 482.46841,503.00271 486.24651,496.14131 495.96733,495.93223 C 500.94893,495.82509 515.115,497.61441 504.48942,490.2564 C 494.42571,483.28748 482.47816,489.15312 473.88405,495.1211 C 466.91607,499.9599 460.56643,506.46153 451.44617,506.85441 C 444.01944,507.17433 433.44023,505.44171 429.50933,498.9471 C 438.85047,499.526 445.46603,492.98213 449.93192,484.59206 C 455.8849,473.40822 441.6362,469.2085 434.0058,466.16224 C 429.04404,464.18137 425.12276,455.91473 433.46,461.07189 C 438.7586,464.34945 448.43464,467.35783 451.08599,463.17194 C 456.13742,455.19683 443.77112,446.84546 437.55963,439.16215 C 434.89078,435.86093 427.48311,424.39039 431.18846,423.10035 C 438.00211,428.00611 445.01297,432.50948 451.38218,438.02171 C 458.12396,443.85637 466.91539,446.97363 474.57761,443.53128 C 472.75454,435.53129 473.76702,426.75838 478.69298,420.18283 C 479.2979,419.37532 479.88274,421.32177 479.91178,421.87153 z M 494.34613,500.70095 C 492.03717,501.00157 489.91656,503.34745 490.76675,505.7488 C 491.75082,507.8297 493.79769,509.50496 496.18171,509.32818 C 498.52738,509.13793 500.1466,506.60764 499.66932,504.37211 C 499.24355,501.90582 496.84431,500.04316 494.34613,500.70095 z" />
  </g>
</svg>
