<?xml version="1.0" encoding="UTF-8" standalone="no"?>
<!-- Created with Inkscape (http://www.inkscape.org/) -->
<svg
   xmlns:svg="http://www.w3.org/2000/svg"
   xmlns="http://www.w3.org/2000/svg"
   version="1.0"
   width="200"
   height="239.99997"
   id="svg3608">
  <defs
     id="defs3610" />
  <g
     transform="translate(-141.60713,-506.61225)"
     id="layer1">
    <path
       d="M 141.60713,506.61225 C 141.60713,506.61225 341.60713,506.61225 341.60713,506.61225 L 341.60713,536.61225 C 341.60713,694.10269 241.60712,746.61222 241.60712,746.61222 C 241.60712,746.61222 141.60713,694.10269 141.60713,536.61225 L 141.60713,506.61225 z"
       id="path2122"
       style="opacity:1;fill:#c1001f;fill-opacity:1;fill-rule:nonzero;stroke:none;stroke-width:3;stroke-linecap:round;stroke-linejoin:bevel;marker:none;marker-start:none;marker-mid:none;marker-end:none;stroke-miterlimit:4;stroke-dasharray:none;stroke-dashoffset:0;stroke-opacity:1;visibility:visible;display:block" />
    <path
       d="M 175.34193,546.35717 L 189.09193,603.40504 C 188.94518,603.40504 186.25478,603.40504 186.24619,603.40504 C 184.10731,603.54881 183.15298,604.95892 183.0281,606.88908 C 182.85339,609.58934 180.77507,611.7827 178.0547,611.7827 C 175.30729,611.7827 173.0547,609.55671 173.0547,606.80929 C 173.05471,604.86221 174.18389,603.18392 175.82066,602.3678 C 175.93084,602.30946 176.06324,602.25637 176.1664,602.20823 C 177.12251,601.65286 177.76215,600.60026 177.76215,599.41568 C 177.76215,597.64535 176.34099,596.2242 174.57066,596.22419 C 173.87924,596.22419 173.2329,596.43669 172.70896,596.80929 C 169.12616,598.72185 166.67172,602.47291 166.67172,606.80929 C 166.67172,613.08011 171.78388,618.16568 178.0547,618.16567 C 182.90933,618.16567 187.04213,615.11143 188.6664,610.82525 L 190.90044,610.82525 L 192.89512,619.14972 L 198.26746,619.14972 C 202.95194,613.63257 209.90979,610.10717 217.70895,610.10717 C 225.50811,610.10717 232.49256,613.63256 237.17703,619.14972 L 249.33129,619.14972 C 254.01576,613.63257 260.97362,610.10717 268.77277,610.10717 C 276.57193,610.10717 283.55638,613.63256 288.24086,619.14972 L 293.6132,619.14972 L 295.39511,610.79865 L 299.1983,610.79865 C 300.81639,615.09704 304.94663,618.16568 309.81,618.16567 C 316.08084,618.16567 321.16638,613.08011 321.16638,606.80929 C 321.16638,600.53846 316.08084,595.4529 309.81,595.45291 C 304.9345,595.45292 300.78116,598.53125 299.17171,602.84653 C 299.03868,602.84653 297.29765,602.84653 297.09724,602.84653 L 309.2249,546.35717 L 175.34193,546.35717 z M 309.81,601.83589 C 312.55743,601.83588 314.78341,604.06187 314.78341,606.80929 C 314.7834,609.5567 312.55742,611.7827 309.81,611.7827 C 307.0626,611.7827 304.8366,609.55671 304.8366,606.80929 C 304.83661,604.06186 307.06259,601.8359 309.81,601.83589 z M 217.70895,612.52738 C 204.95758,612.52737 194.62385,622.8877 194.62385,635.63908 C 194.62385,648.39045 204.95758,658.7508 217.70895,658.75078 C 230.46032,658.75078 240.82065,648.39044 240.82065,635.63908 C 240.82065,622.88771 230.46031,612.52739 217.70895,612.52738 z M 268.77277,612.52738 C 256.0214,612.52737 245.68767,622.8877 245.68767,635.63908 C 245.68767,648.39045 256.0214,658.7508 268.77277,658.75078 C 281.52414,658.75078 291.88447,648.39044 291.88447,635.63908 C 291.88447,622.88771 281.52413,612.52739 268.77277,612.52738 z M 217.70895,619.06993 C 221.34943,619.06993 224.70752,620.2411 227.44299,622.23482 L 217.70895,631.96886 L 207.97491,622.23482 C 210.71038,620.2411 214.06847,619.06993 217.70895,619.06993 z M 268.77277,619.06993 C 272.41326,619.06993 275.77134,620.2411 278.50681,622.23482 L 268.77277,631.96886 L 259.03873,622.23482 C 261.7742,620.2411 265.13229,619.06993 268.77277,619.06993 z M 204.3047,625.90504 L 214.03874,635.63908 L 204.3047,645.37312 C 202.31098,642.63765 201.1398,639.27956 201.1398,635.63908 C 201.1398,631.99859 202.31098,628.64051 204.3047,625.90504 z M 231.1132,625.90504 C 233.10693,628.64051 234.2781,631.99859 234.2781,635.63908 C 234.2781,639.27956 233.10692,642.63765 231.1132,645.37312 L 221.37916,635.63908 L 231.1132,625.90504 z M 255.36852,625.90504 L 265.10256,635.63908 L 255.36852,645.37312 C 253.3748,642.63765 252.20363,639.27956 252.20363,635.63908 C 252.20363,631.99859 253.3748,628.64051 255.36852,625.90504 z M 282.17703,625.90504 C 284.17075,628.64051 285.34192,631.99859 285.34192,635.63908 C 285.34192,639.27956 284.17075,642.63765 282.17703,645.37312 L 272.44299,635.63908 L 282.17703,625.90504 z M 217.70895,639.30929 L 227.44299,649.04333 C 224.70752,651.03706 221.34943,652.20822 217.70895,652.20822 C 214.06847,652.20822 210.71038,651.03705 207.97491,649.04333 L 217.70895,639.30929 z M 268.77277,639.30929 L 278.50681,649.04333 C 275.77134,651.03706 272.41326,652.20822 268.77277,652.20822 C 265.13229,652.20822 261.7742,651.03705 259.03873,649.04333 L 268.77277,639.30929 z"
       id="path3524"
       style="opacity:1;fill:#ffffff;fill-opacity:1;stroke:none;stroke-width:0.5;stroke-linejoin:miter" />
  </g>
</svg>
