<?xml version="1.0" encoding="UTF-8" standalone="no"?>
<!-- Created with Inkscape (http://www.inkscape.org/) -->
<svg
   xmlns:svg="http://www.w3.org/2000/svg"
   xmlns="http://www.w3.org/2000/svg"
   version="1.0"
   width="250.06256"
   height="309.1875"
   id="svg4987">
  <defs
     id="defs4989" />
  <path
     d="M 125.03125,309.1875 C 234.82175,229.35312 250.06256,123.5104 250.06256,-1.4210855e-14 L -1.4210855e-14,-1.4210855e-14 C -1.4210855e-14,123.51041 15.24067,229.35312 125.03125,309.1875 z"
     id="path3565"
     style="opacity:1;fill:#e72f30;fill-opacity:1;fill-rule:nonzero;stroke:none;stroke-width:1;display:inline" />
  <path
     d="M 86.505961,14.03125 C 86.455031,14.05646 86.415211,14.12868 86.380961,14.21875 C 85.540511,16.42894 86.028341,25.189397 80.193461,26.937497 C 76.293181,28.105996 73.318461,35.269197 73.318461,38.874997 C 73.318461,42.836967 77.185021,44.184457 76.318461,45.281247 C 75.217351,46.674927 71.709081,48.045537 69.162211,47.343747 C 67.483461,46.881157 67.452621,44.437497 64.068461,44.437497 C 60.488031,44.437497 60.781471,47.807447 58.880961,47.843747 C 54.308081,47.931057 49.537471,47.560037 44.287211,47.906247 C 42.347101,48.034157 41.176011,43.870647 39.755961,43.718747 C 38.756761,43.611877 37.556681,44.551497 37.724711,45.562497 C 37.911501,46.686217 40.818461,48.751557 40.818461,50.124997 C 40.818451,53.783557 35.991201,53.415207 35.287211,61.687497 C 35.182631,62.916466 37.079361,63.045827 37.318461,62.656247 C 37.930941,61.658216 37.606761,60.744607 38.380961,59.843747 C 39.269531,58.809696 40.791561,59.220567 42.068461,59.187497 C 44.588811,59.122217 43.938171,61.731487 45.943461,62.843747 C 46.922851,61.517576 46.655291,60.506497 47.380961,59.749997 C 48.333941,58.756486 50.732521,59.254587 51.755961,60.031247 C 52.701921,60.749116 53.265561,61.494317 54.068461,62.656247 C 55.148941,61.458056 54.498181,60.840387 55.880961,60.156247 C 57.178731,59.514166 58.877431,59.614117 59.599711,59.749997 C 61.314241,60.072566 60.221961,61.983187 61.224711,62.843747 C 62.486401,61.699796 62.498331,60.821447 63.224711,60.249997 C 63.985841,59.651226 65.915691,60.015357 66.443461,61.281247 C 66.775581,62.077875 66.896781,62.828115 66.787211,63.593747 C 63.846471,63.636633 52.164791,63.652659 44.474711,63.656247 C 38.759691,63.658917 33.707321,63.659713 32.349711,63.687497 C 31.487901,63.705137 30.759661,63.30165 30.037211,62.531247 C 29.314761,61.760844 28.663251,60.651975 28.162211,59.531247 C 27.160141,57.289792 26.693461,54.999997 26.693461,54.999997 C 26.656081,54.798889 26.552061,54.612098 26.380961,54.499997 C 26.209831,54.387896 25.986521,54.360211 25.787211,54.406247 C 25.591861,54.450827 25.424131,54.579753 25.318461,54.749997 C 25.212781,54.920242 25.177971,55.117652 25.224711,55.312497 C 25.224711,55.312497 25.702511,57.729957 26.787211,60.156247 C 27.329561,61.369392 28.040631,62.599746 28.943461,63.562497 C 29.846291,64.525248 30.995461,65.215857 32.380961,65.187497 C 33.663861,65.161242 38.760131,65.158917 44.474711,65.156247 C 46.196811,65.155443 48.382961,65.157387 50.412211,65.156247 C 49.293201,66.448512 48.028541,68.406244 46.818461,68.343747 C 43.806601,68.188206 42.921281,68.401247 40.724711,68.249997 C 39.682301,68.178236 38.758771,67.255787 38.162211,66.406247 C 37.786571,65.871356 37.036981,65.909697 36.599711,66.124997 C 36.332791,66.256426 36.273291,66.736317 36.412211,66.999997 C 38.612601,71.176315 43.200971,76.249997 47.287211,76.249997 C 49.526051,76.250017 53.687821,72.937497 58.630961,72.937497 C 58.976571,72.937507 67.852751,72.610597 68.505961,72.343747 C 70.463001,71.544267 70.451971,68.010207 71.787211,66.906247 C 72.290591,66.490036 73.673261,67.247497 74.005961,67.781247 C 74.318401,68.282536 74.172141,69.434988 73.724711,70.031247 C 62.918761,84.431667 41.787211,89.343527 41.787211,114.375 C 41.787221,127.3098 47.551421,144.97192 55.412211,155.8125 C 64.370951,168.16722 68.579541,175.71213 92.193461,183.9375 C 99.038521,186.32184 111.37811,185.97971 115.91221,184.03125 C 117.50692,183.34597 111.2475,177.84533 110.59971,175.96875 C 110.41807,175.44259 112.36115,174.95656 112.81846,175.5 C 114.94865,178.0315 117.25782,181.41812 119.97471,182.78125 C 120.23973,182.91422 120.44324,183.17113 120.59971,183.5 C 120.67794,183.66443 120.73975,183.84406 120.78721,184.03125 C 120.83467,184.21844 120.86669,184.43255 120.88096,184.625 C 120.89523,184.81745 120.9023,185.00726 120.88096,185.1875 C 120.81693,185.72822 120.59035,186.16515 120.16221,186.28125 C 119.61493,186.42964 119.02227,186.5496 118.41221,186.6875 C 118.33536,186.70462 118.27094,186.73284 118.19346,186.75 C 109.98934,188.56745 96.720121,189.46875 88.537211,189.46875 C 81.806131,189.46876 84.947371,187.5938 81.068461,187.34375 C 77.777001,187.1316 74.080281,189.66371 73.630961,193.4375 C 73.340611,195.87615 70.084731,196.79598 68.787211,198.96875 C 67.180231,201.65969 69.084301,205.30926 69.943461,206.4375 C 70.064491,209.49579 71.741331,210.38579 72.443461,210.125 C 71.603131,208.26027 72.140391,207.05841 72.662211,206.0625 C 73.568881,204.33226 76.462551,203.44072 77.505961,201.6875 C 78.167511,200.57594 77.693431,198.8951 77.693461,197.53125 C 77.693461,195.61979 79.998271,192.88214 81.068461,193.1875 C 81.675821,193.3608 82.491141,193.59522 83.724711,193.78125 C 83.625481,194.25158 83.537211,194.69311 83.537211,195.09375 C 83.537201,197.07635 78.933821,199.34718 78.849711,201.75 C 78.764421,204.18621 80.544211,206.17608 81.318461,206.625 C 81.644131,209.46026 82.649031,210.74355 85.474711,211.59375 C 85.054131,210.09256 84.243881,208.19534 84.599711,207.125 C 85.073351,205.70025 87.207381,205.07587 87.662211,203.59375 C 88.129001,202.07252 86.929281,199.62985 87.162211,197.96875 C 87.300471,196.9829 88.184571,195.2864 88.818461,194.0625 C 90.097651,194.07468 91.404921,194.07873 92.787211,194.09375 C 92.697251,194.75625 92.526611,195.39851 92.474711,195.8125 C 92.298951,197.21435 89.857341,199.56309 89.974711,201.46875 C 90.171261,204.66009 90.528041,205.53564 91.724711,206.90625 C 92.780691,210.09912 93.919811,212.3056 96.755961,212.5625 C 94.897491,209.53248 94.818461,209.31543 94.818461,207.75 C 94.818461,205.60778 98.474711,204.43722 98.474711,201.53125 C 98.474721,199.53745 96.349711,198.38049 96.349711,196.15625 C 96.349721,195.15544 97.191731,194.57129 98.037211,194.0625 C 98.944731,194.03691 99.801211,194.00302 100.53721,193.9375 C 110.21582,193.07587 113.90169,192.09017 123.06846,192.78125 C 126.15925,193.01425 130.57817,195.37503 132.66221,195.375 C 135.96398,195.37503 137.97474,193.01168 137.97471,190.0625 C 137.97471,188.9085 137.46494,187.8216 136.69346,186.75 C 136.67655,186.72651 136.64812,186.71098 136.63096,186.6875 C 136.59677,186.6407 136.57235,186.57802 136.53721,186.53125 C 136.32214,186.24552 136.09464,185.97329 135.84971,185.6875 C 135.79126,185.61916 135.72205,185.56842 135.66221,185.5 C 135.64782,185.48355 135.64543,185.45395 135.63096,185.4375 C 135.45009,185.23176 135.25916,185.01958 135.06846,184.8125 C 134.85922,184.58522 134.62876,184.35498 134.41221,184.125 C 134.29832,184.00414 134.18335,183.87184 134.06846,183.75 C 133.76429,183.42725 133.46479,183.11294 133.16221,182.78125 C 133.14242,182.75958 133.11947,182.74047 133.09971,182.71875 C 132.68433,182.26164 132.29456,181.7936 131.91221,181.3125 C 131.8842,181.27736 131.84621,181.25404 131.81846,181.21875 C 131.74078,181.11966 131.67506,181.00657 131.59971,180.90625 C 131.45865,180.71879 131.32499,180.53585 131.19346,180.34375 C 131.11539,180.22984 131.04891,180.11566 130.97471,180 C 130.8801,179.85258 130.78107,179.71294 130.69346,179.5625 C 130.60778,179.41503 130.52165,179.27555 130.44346,179.125 C 130.32453,178.89649 130.23044,178.64237 130.13096,178.40625 C 130.10081,178.33451 130.06541,178.25998 130.03721,178.1875 C 130.0287,178.16569 130.01429,178.14688 130.00596,178.125 C 129.95908,178.00156 129.92185,177.87566 129.88096,177.75 C 129.82344,177.57331 129.76953,177.40003 129.72471,177.21875 C 129.66987,176.99693 129.63385,176.76034 129.59971,176.53125 C 129.59341,176.489 129.57402,176.44876 129.56846,176.40625 C 129.56577,176.38549 129.57097,176.36457 129.56846,176.34375 C 129.53484,176.06802 129.50652,175.78692 129.50596,175.5 C 129.50534,175.18135 129.52423,174.86467 129.56846,174.53125 C 129.65323,173.89213 131.29255,173.44147 131.78721,173.9375 C 134.70253,176.8607 135.64849,184.70543 139.81846,184.71875 C 157.09456,184.77411 171.77976,184.55252 187.03722,184.03125 C 192.61476,183.84069 199.61116,181.26728 204.44347,178.90625 C 214.65056,173.91915 221.69347,158.2069 221.69347,147.34375 C 221.69347,111.18259 184.91224,98.14343 184.91221,74.281247 C 184.91222,56.847438 215.88096,35.314377 215.88096,24.812497 C 215.88096,21.37712 209.89376,14.49063 207.84977,16.46875 C 205.84716,18.40596 210.25597,21.37271 210.25597,23.84375 C 210.25597,26.295816 204.32335,32.612357 196.91222,38.968747 C 186.20989,48.147927 172.81846,59.349588 172.81846,74.781247 C 172.81847,99.90918 202.31851,120.12406 202.31847,140.96875 C 202.31847,149.65664 193.66188,157.84375 187.59972,157.84375 C 175.76065,157.84377 160.19615,134.00978 143.97471,133.78125 C 139.95448,133.72472 148.46304,128.97607 150.06846,127.09375 C 151.53775,125.37111 147.57706,121.94615 148.13096,119.59375 C 149.14377,115.2925 154.84573,109.45981 154.72471,107.09375 C 154.66138,105.85582 149.66804,108.94422 147.53721,108.75 C 146.6267,108.66702 145.11283,107.1304 145.63096,106.3125 C 147.95666,102.64124 155.21033,99.29273 157.50596,94.781247 L 158.00596,88.281247 C 152.52917,87.963987 149.78373,91.803107 145.41221,93.499997 C 143.51344,94.237037 142.71141,93.040797 142.81846,92.718747 C 143.29435,91.287157 155.74472,85.555377 160.50596,80.781247 L 162.44346,71.468747 C 153.57384,70.687957 146.32809,79.671917 138.66221,85.249997 C 137.86757,85.828237 135.81293,83.511257 136.50596,82.749997 C 147.31799,70.873287 162.11877,63.526797 171.66221,55.718747 L 171.84971,48.062497 C 159.21616,50.832207 142.19316,62.235728 131.78721,71.874997 C 131.05654,72.551807 129.15203,70.120726 129.84971,69.437497 C 139.74966,59.742416 156.09099,47.804157 166.81846,43.718747 L 175.50596,26.374997 C 161.448,26.874916 131.49183,54.305548 113.47471,71.281247 C 110.11031,74.451197 110.20888,83.069237 111.34971,87.687497 C 112.69722,93.142097 119.75592,97.89788 119.09971,103.21875 C 117.73325,114.29908 109.76299,130.36044 105.56846,139.3125 C 105.27042,139.94861 104.1308,139.94288 104.09971,139.3125 L 105.06846,133.09375 C 103.91855,132.81861 102.52869,132.4246 101.09971,132.625 C 91.055121,134.03362 84.560291,142.89042 82.037211,140.96875 C 75.332371,135.86216 65.318071,116.59662 64.630961,105.4375 C 64.008251,95.324087 85.606161,81.513306 92.974711,66.812497 C 94.545881,63.677906 90.969851,56.319877 90.943461,52.749997 C 90.911091,48.508837 93.385521,50.954217 97.537211,43.624997 C 98.780691,41.429767 98.369131,31.296807 100.13096,25.281247 C 100.83556,22.87543 103.55102,21.19289 103.91221,18.78125 C 97.539851,19.22595 97.335931,23.55338 95.193461,26.749997 C 93.890911,28.693416 89.207071,30.462897 86.693461,35.781247 C 85.117781,39.115187 86.567291,43.550077 85.412211,46.531247 C 84.758171,48.219257 82.041641,47.522337 81.849711,46.531247 C 80.349831,38.785827 88.336841,31.113057 89.380961,23.15625 C 89.762941,20.24548 87.270181,13.65303 86.505961,14.03125 z M 158.88096,19.46875 C 148.13365,23.86639 124.57175,38.811987 107.00596,62.749997 C 101.59207,70.127815 101.97471,80.559817 101.97471,89.124997 C 101.97471,92.727387 110.09971,96.91664 110.09971,103.21875 C 110.09971,111.89796 104.16145,122.78854 101.09971,131.4375 C 102.57589,131.26086 103.99647,131.66553 105.41221,132 C 105.9618,130.47931 106.87665,128.69374 107.59971,127.09375 C 111.3284,118.84301 115.06949,109.6461 115.91221,102.8125 C 116.05355,101.66647 115.15209,99.80264 113.38096,97.375 C 111.60984,94.947357 109.19251,92.259797 108.25596,88.468747 C 107.57824,85.725137 107.18827,82.177507 107.47471,78.656247 C 107.76114,75.134977 108.50215,71.563396 111.25596,68.968747 C 120.2823,60.464146 132.32524,49.291177 143.97471,40.124997 C 148.14299,36.845217 152.22003,33.796907 156.16221,31.218747 L 158.88096,19.46875 z M 62.537211,51.468747 C 63.801581,51.431337 65.245431,51.597137 66.068461,51.656247 C 66.188431,53.338657 67.028711,57.608687 64.818461,57.624997 C 63.559551,57.634277 64.234741,55.157817 63.412211,54.187497 C 62.589651,53.217177 60.010911,53.929447 60.130961,52.562497 C 60.201841,51.755457 61.272841,51.506157 62.537211,51.468747 z M 71.005961,51.562497 C 72.640081,51.500217 74.292361,51.647447 74.380961,52.656247 C 74.501021,54.023217 71.922271,53.310927 71.099711,54.281247 C 70.277171,55.251567 70.952371,57.696777 69.693461,57.687497 C 67.483231,57.671187 68.323491,53.432407 68.443461,51.749997 C 69.060731,51.705667 70.025491,51.599867 71.005961,51.562497 z M 45.162211,51.781247 C 45.804321,51.689287 46.320481,53.208817 46.412211,54.312497 C 46.503941,55.416217 43.946381,55.374997 42.662211,55.374997 C 41.378021,55.375007 42.295321,53.301887 42.662211,52.749997 C 43.029121,52.198127 44.520151,51.873187 45.162211,51.781247 z M 66.255961,65.093747 C 65.913271,65.679432 65.420251,66.288817 64.724711,66.937497 C 64.001601,67.611906 62.315381,67.260207 61.630961,66.937497 C 60.633811,66.467377 60.639331,66.472728 59.162211,65.156247 C 62.599791,65.149627 64.785071,65.111531 66.255961,65.093747 z M 50.474711,65.156247 C 53.469201,65.154553 56.218951,65.161531 59.037211,65.156247 C 58.373561,65.931133 58.359771,66.973337 57.255961,67.531247 C 56.243811,68.042846 54.800261,68.249087 53.693461,67.937497 C 52.342981,67.557309 51.362321,66.666433 50.474711,65.156247 z M 54.599711,176.53125 C 51.663511,176.63198 46.779901,177.60707 47.880961,186.4375 C 46.397131,187.80754 45.005951,188.16107 45.005961,190.125 C 45.005971,192.17507 44.835881,194.2248 46.537211,195.65625 C 47.043391,198.07458 45.690761,200.52672 50.599711,202.71875 C 49.363721,198.0178 49.498451,197.49273 49.849711,196.5625 C 51.668111,195.10606 53.251891,195.32827 53.005961,191.1875 C 52.887091,189.186 51.253171,189.1737 52.037211,186.90625 C 52.776651,184.76782 52.771851,181.26838 54.568461,181.75 C 55.779541,182.07464 57.031901,182.39923 58.349711,182.6875 C 58.029331,183.36989 57.580951,184.10129 57.287211,184.96875 C 56.886411,186.15225 54.331301,188.04294 54.443461,190.09375 C 54.575921,192.51535 56.537431,194.76653 57.568461,195.21875 C 58.268821,197.34804 58.524001,197.67564 60.412211,198.34375 C 59.712071,196.83144 59.014171,194.33841 59.380961,193.46875 C 59.971181,192.06928 61.840801,190.29567 62.099711,188.71875 C 62.263831,187.71897 61.377111,186.74087 60.943461,185.8125 C 60.628371,185.1381 60.769041,184.11537 61.099711,183.21875 C 63.382311,183.60318 65.808941,183.84609 68.349711,183.84375 C 68.166601,185.40002 64.051811,187.18555 63.755961,189.0625 C 63.455991,190.9655 64.617091,192.59393 65.255961,193.03125 C 65.194621,196.18744 65.341101,196.83233 68.474711,197.375 C 68.243811,196.15044 67.719411,194.58241 68.130961,193.78125 C 68.678721,192.7148 70.781871,192.5823 71.318461,191.46875 C 71.869101,190.32576 71.054091,188.27843 71.412211,187 C 71.691651,186.00254 72.774831,183.58123 73.630961,183.4375 C 73.630971,183.43752 74.086041,183.38469 74.787211,183.28125 C 76.342181,183.05186 79.069901,182.54677 80.505961,181.65625 C 80.860741,181.43625 81.205531,181.18714 81.537211,180.9375 C 78.476961,179.53401 75.836971,178.10735 73.537211,176.65625 C 71.254951,177.7316 69.350691,178.75292 65.505961,178.84375 C 60.322601,178.96621 58.014361,176.53125 55.724711,176.53125 C 55.408041,176.53125 55.019171,176.51686 54.599711,176.53125 z"
     id="path3575"
     style="fill:#ffd117;fill-opacity:1;fill-rule:nonzero;stroke:none;stroke-width:0.25;stroke-linecap:square;stroke-linejoin:bevel;stroke-miterlimit:4;stroke-dashoffset:0;stroke-opacity:1;display:inline" />
</svg>
