<?xml version="1.0" encoding="UTF-8" standalone="no"?>
<!-- Created with Inkscape (http://www.inkscape.org/) -->
<svg
   xmlns:svg="http://www.w3.org/2000/svg"
   xmlns="http://www.w3.org/2000/svg"
   version="1.0"
   width="400"
   height="522.65857"
   id="svg3311">
  <defs
     id="defs3313" />
  <g
     transform="translate(-130.5625,-329.09701)"
     id="layer1">
    <path
       d="M 524.83506,335.10571 L 524.83506,742.46591 C 524.83506,752.19275 518.07108,763.38318 505.19814,769.10871 L 333.52849,845.48304 C 331.8959,846.20983 329.2291,846.20983 327.59651,845.48304 L 155.92686,769.10871 C 143.05392,763.38318 136.28994,752.19275 136.28994,742.46591 L 136.28994,335.10571 L 524.83506,335.10571 z"
       id="use3296"
       style="fill:#ff0000;fill-opacity:1;fill-rule:evenodd;stroke:#ffff00;stroke-width:11.45487118;stroke-linecap:butt;stroke-linejoin:miter;stroke-miterlimit:4;stroke-dasharray:none;stroke-dashoffset:0;stroke-opacity:1" />
    <path
       d="M 231.84095,363.16942 C 204.0893,363.16942 174.17638,371.32654 161.14291,394.44019 C 158.34354,399.40463 160.72894,411.52071 169.83269,408.46657 C 169.83269,439.13457 168.24353,463.99183 165.23394,489.40312 C 176.79969,501.97779 196.66565,495.63171 208.18971,487.05078 C 207.02759,460.38535 226.90614,458.95475 226.90615,430.95259 C 226.90615,420.75583 221.06169,411.3668 212.28073,411.36681 C 201.38266,411.36681 202.94036,414.79792 199.07256,418.63933 C 190.61757,418.63933 196.32414,406.40644 212.25881,406.40644 C 224.65799,406.40644 233.59424,416.42279 233.59424,435.92027 C 233.59424,472.8169 177.50702,522.61205 177.50702,551.94467 C 177.50702,584.35292 186.25158,611.86941 186.25158,641.94722 C 186.25158,678.97632 159.40744,715.9981 150.02044,748.8764 L 188.01584,748.8764 L 231.25286,620.90401 C 239.97236,639.16581 259.89004,680.51453 259.89004,702.13643 C 259.89004,715.34346 250.26612,735.35885 244.11402,748.8764 L 287.37661,748.8764 C 290.69249,741.97625 296.52008,738.56296 296.14675,716.73628 C 295.50242,679.06554 285.61156,643.30805 277.43031,608.63093 C 296.36792,596.35652 328.82511,607.41935 338.2076,590.50258 C 338.42066,594.93304 334.11657,603.44564 334.11658,616.81299 C 334.11658,632.2658 345.23906,648.18032 345.23905,669.99631 C 345.23905,680.5731 327.8035,722.60412 316.60188,748.8764 L 353.98362,748.8764 L 394.02453,648.64628 C 368.68499,615.03539 373.86694,597.366 379.28223,595.02828 C 385.50431,608.47021 370.89922,607.19752 401.92532,642.50974 C 413.74651,655.96397 428.35911,669.6029 427.62208,691.03953 C 426.67875,719.22398 416.36028,730.60841 410.10737,748.8764 L 455.69674,748.8764 L 459.48094,653.63221 C 451.4019,642.528 446.04265,634.41355 445.75043,626.14564 C 445.139,608.84578 459.30234,607.98239 458.61159,566.54451 C 458.26732,545.89158 451.92942,527.01261 442.81731,511.01615 C 453.99091,496.21358 467.31703,527.72501 467.66299,539.66841 C 469.73044,611.04383 466.07593,679.24038 465.03304,748.88783 L 483.72757,748.88783 C 492.87359,715.48587 493.69733,686.61948 496.58873,655.97041 C 501.0087,609.11831 511.07732,559.30463 498.93376,509.85094 C 495.90472,497.51544 479.3262,475.08326 454.80547,474.48549 C 429.25206,473.86253 423.96522,487.49532 423.83788,501.36936 L 353.98362,501.36936 C 339.95393,449.78199 334.35416,363.16942 231.84095,363.16942 z M 316.01379,434.76236 C 321.25695,454.77121 328.09188,468.47954 329.74429,501.41509 L 316.01379,501.41509 C 319.15192,482.96522 317.40085,458.49161 316.01379,434.76236 z"
       id="path2516"
       style="fill:#ffff00;fill-opacity:1;fill-rule:evenodd;stroke:none;stroke-width:1;stroke-linecap:butt;stroke-linejoin:miter;stroke-miterlimit:4;stroke-dasharray:1, 1;stroke-dashoffset:0;stroke-opacity:1" />
  </g>
</svg>
