<?xml version="1.0" encoding="UTF-8" standalone="no"?>
<!-- Created with Inkscape (http://www.inkscape.org/) -->

<svg
   xmlns:svg="http://www.w3.org/2000/svg"
   xmlns="http://www.w3.org/2000/svg"
   version="1.0"
   width="200.00002"
   height="240"
   id="svg33">
  <defs
     id="defs35" />
  <g
     transform="translate(-274.99999,-412.36218)"
     id="layer1">
    <path
       d="m 274.99999,412.36218 c 0,0 200.00002,0 200.00002,0 l 0,30 c 0,157.49047 -100.00002,210 -100.00002,210 0,0 -100,-52.50953 -100,-210 l 0,-30 z"
       id="path2122"
       style="fill:#009ada;fill-opacity:1;fill-rule:nonzero;stroke:none;stroke-width:3;marker:none;visibility:visible;display:block" />
    <path
       d="m 353.69897,428.00147 24.28571,0 0,-11.16072 2.85715,0 0,11.16072 32.85714,0 c -4.5909,4.2488 -6.32574,18.78846 -5.08929,23.125 -4.43614,-3.82446 -23.33508,-7.23459 -27.76785,-5.89286 l 0,9.91071 28.75,0 c -19.82437,55.85472 0.63284,80.66806 13.62246,110.08929 -13.13986,-5.13219 -26.65151,-9.06913 -41.07143,-11.33929 l 0,15.26786 c 17.30998,1.31181 34.41599,1.60375 51.25,0.53572 -4.88387,9.31968 -10.608,18.13519 -18.83929,25.44642 -32.97743,0.48538 -69.29549,2.02624 -96.05611,-7.84445 -3.39208,-12.1954 0.65131,-42.17152 4.64906,-49.54648 1.00284,-1.85001 2.86894,-1.32882 4.19022,0.0822 -2.49549,5.59081 -2.1704,14.45528 -1.24999,21.875 18.23769,9.3355 34.17677,8.95889 50.34182,8.82659 l 0,-14.64286 c -7.81294,-0.82049 -15.50595,-2.44036 -23.57143,6.33929 -12.32046,-32.54581 -29.07332,-68.1008 -5.76531,-105.08929 l 30.89285,0 0,-9.91071 c -9.31144,-1.05305 -25.70132,0.52799 -29.01414,3.47579 -2.55111,-4.95159 1.9632,-18.02329 4.72843,-20.70793 z"
       id="path3947"
       style="fill:#cccccc;fill-rule:evenodd;stroke:none" />
  </g>
</svg>
