<?xml version="1.0" encoding="UTF-8" standalone="no"?>
<!-- Created with Inkscape (http://www.inkscape.org/) -->

<svg
   xmlns:svg="http://www.w3.org/2000/svg"
   xmlns="http://www.w3.org/2000/svg"
   version="1.0"
   width="200.00005"
   height="240.00635"
   id="svg2766">
  <defs
     id="defs2768" />
  <g
     transform="translate(-831.42856,-592.35901)"
     id="layer1">
    <path
       d="m 831.42856,592.36537 c 0,0 200.00004,0 200.00004,0 l 0,30 c 0,157.49047 -100.00004,209.99999 -100.00004,209.99999 0,0 -100,-52.50952 -100,-209.99999 l 0,-30 z"
       id="path2652"
       style="fill:#008000;fill-opacity:1;fill-rule:nonzero;stroke:none;stroke-width:3;marker:none;visibility:visible;display:block" />
    <path
       d="m 831.43862,592.35901 0,30 c 0,100.97386 41.05984,158.75502 70.5625,187.25 -15.81691,-19.95466 -4.27691,-26.26974 3.5,-26.625 7.78611,-0.35568 22.59496,6.9568 3.5,28.03125 7.90079,0.0757 15.48803,-11.92795 20.09375,-15.5 4.60571,-3.57203 12.19297,-15.54442 20.09375,-15.46875 -19.09495,21.07442 -4.31735,28.38694 3.46875,28.03125 7.7861,-0.3557 19.33787,-6.67694 3.4375,-26.6875 22.03631,14.86964 24.60537,1.84423 24.53125,-4.3125 -0.0741,-6.15669 -2.61993,-19.18215 -24.65625,-4.3125 15.90037,-20.01056 4.3486,-26.30056 -3.4375,-26.65625 -7.78611,-0.35567 -22.59496,6.92556 -3.5,28 -7.90079,0.0757 -15.48803,-11.89669 -20.09375,-15.46875 -4.60572,-3.57208 -12.19296,-15.54441 -20.09375,-15.46875 19.09497,21.07444 4.31735,28.35569 -3.46875,28 -7.78611,-0.35569 -19.33787,-6.64569 -3.4375,-26.65625 -22.03631,14.86966 -24.62776,1.85573 -24.5625,-4.375 0.0653,-6.23071 2.65119,-19.27589 24.6875,-4.40625 -15.90036,-20.01054 -4.3486,-26.30057 3.4375,-26.65625 7.7861,-0.35573 22.5637,6.92554 3.46875,28 7.90079,0.0756 15.48803,-11.8967 20.09375,-15.46875 4.6057,-3.57204 12.19297,-15.54442 20.09375,-15.46875 -19.09495,21.07446 -4.2861,28.3557 3.5,28 7.7861,-0.35568 19.33787,-6.6457 3.4375,-26.65625 22.03631,14.86962 24.60538,1.84422 24.53125,-4.3125 -0.0741,-6.15673 -2.65119,-19.18214 -24.6875,-4.3125 15.90036,-20.01054 4.34861,-26.33181 -3.4375,-26.6875 -7.7861,-0.35571 -22.5637,6.95679 -3.46875,28.03125 -7.90079,0.0756 -15.48802,-11.89671 -20.09375,-15.46875 -4.6057,-3.57205 -12.19297,-15.54441 -20.09375,-15.46875 19.09496,21.07446 4.28611,28.3557 -3.5,28 -7.78609,-0.35566 -19.33787,-6.67694 -3.4375,-26.6875 -22.03631,14.86962 -24.59652,1.85572 -24.53125,-4.375 0.0653,-6.23074 2.61993,-19.24465 24.65625,-4.375 -15.90037,-20.01058 -4.3486,-26.33181 3.4375,-26.6875 7.78609,-0.35569 22.59496,6.95681 3.5,28.03125 7.90078,0.0757 15.48804,-11.8967 20.09375,-15.46875 4.60573,-3.57204 12.19296,-15.57567 20.09375,-15.5 -19.09496,21.07448 -4.31735,28.38695 3.46875,28.03125 7.78609,-0.35571 19.33787,-6.67694 3.4375,-26.6875 22.0363,14.86964 24.60537,1.87548 24.53125,-4.28125 -0.0741,-6.1567 -2.65118,-19.18215 -24.6875,-4.3125 15.90035,-20.01056 4.3486,-26.33182 -3.4375,-26.6875 -7.7861,-0.35569 -22.56371,6.9568 -3.46875,28.03125 -7.9008,0.0757 -15.48803,-11.92795 -20.09375,-15.5 -4.6057,-3.57202 -12.19297,-15.54443 -20.09375,-15.46875 19.09496,21.07442 4.31735,28.38694 -3.46875,28.03125 -7.78609,-0.3557 -19.33787,-6.67694 -3.4375,-26.6875 -22.03631,14.86965 -24.625,1.84437 -24.625,-4.3125 -16.19912,0 -45.84375,0 -45.84375,0 z"
       id="path2723"
       style="fill:#cccccc;stroke:none" />
  </g>
</svg>
