<?xml version="1.0" encoding="UTF-8" standalone="no"?>
<!-- Created with Inkscape (http://www.inkscape.org/) -->
<svg
   xmlns:svg="http://www.w3.org/2000/svg"
   xmlns="http://www.w3.org/2000/svg"
   xmlns:xlink="http://www.w3.org/1999/xlink"
   version="1.0"
   width="300"
   height="367.07803"
   id="svg2488">
  <defs
     id="defs2490" />
  <g
     transform="translate(-166.38156,-397.35447)"
     id="layer1">
    <path
       d="M 316.38159,764.4325 C 482.80989,646.96768 465.89916,397.35447 465.89916,397.35447 L 166.86395,397.35447 C 166.86395,397.35447 149.95325,646.96768 316.38159,764.4325 z"
       id="path2465"
       style="font-style:normal;font-variant:normal;font-weight:normal;font-stretch:normal;letter-spacing:normal;word-spacing:normal;text-anchor:start;fill:#ef0711;fill-opacity:1;fill-rule:nonzero;stroke:none;stroke-width:0;stroke-linecap:butt;stroke-linejoin:miter;stroke-miterlimit:10.43299961;stroke-dasharray:none;stroke-dashoffset:0;stroke-opacity:1" />
    <g
       transform="matrix(3.9550698,0,0,3.9550698,-2096.2832,39.657126)"
       id="g3417">
      <path
         d="M 628.5,112.875 C 628.30987,112.875 628.09887,113.00697 627.9375,113.3125 C 627.82898,113.22739 627.50425,112.96484 627.10547,112.96484 C 626.62399,112.96484 626.24875,113.21536 625.78125,113.875 C 622.80827,116.89587 620.625,120.67132 620.625,124.85938 C 620.625,127.15443 621.71247,130.54887 623.71875,132.82813 C 624.42911,133.63514 626.01303,135.20164 626.01303,137.12781 C 626.01303,138.04572 625.70587,138.66055 625.375,139.28125 C 624.64808,140.64493 624.20313,142.43005 624.3125,144.25 L 625.375,144.25 L 625.375,141 C 625.375,140.75091 625.59989,140.5625 625.875,140.5625 C 626.15011,140.56248 626.37224,140.75091 626.375,141 L 626.375,144.25 L 626.96875,144.25 L 626.96875,117.5625 C 627.92786,117.72739 629.10218,117.35116 629.71875,117 C 629.89808,116.89786 630.25834,116.56185 630.625,116.5625 C 630.96925,116.5631 630.70755,117.24663 630.3125,117.6875 C 629.64716,118.38493 628.63682,118.90016 627.9375,119.21875 L 627.9375,144.25 L 628.75,144.25 L 628.75,141 C 628.75,140.75089 628.97488,140.5625 629.25,140.5625 C 629.52511,140.5625 629.75,140.75089 629.75,141 L 629.75,144.25 L 630.96875,144.25 C 631.02807,142.20996 630.6304,141.34822 629.98437,139.82812 C 629.59363,138.9087 629.07112,138.32591 629.07112,137.00235 C 629.07112,135.18349 629.72479,133.35303 631.6875,131.46875 C 632.32418,130.85752 633.97656,129.03374 633.97656,125.39844 C 633.97656,121.91013 632.60582,118.38656 631.6983,116.86255 C 631.00432,115.69714 630.27998,114.55266 629.68658,113.80008 C 629.22262,113.21168 628.95673,112.875 628.5,112.875 z M 628.84375,114.40625 C 629.25775,114.40626 629.59375,114.74226 629.59375,115.15625 C 629.59375,115.57026 629.25775,115.90625 628.84375,115.90625 C 628.42975,115.90626 628.09375,115.57024 628.09375,115.15625 C 628.09375,114.74227 628.42975,114.40623 628.84375,114.40625 z M 627.25,114.71875 C 627.66399,114.71874 628,115.05476 628,115.46875 C 627.99999,115.88277 627.664,116.21875 627.25,116.21875 C 626.83599,116.21877 626.5,115.88274 626.5,115.46875 C 626.49999,115.05478 626.836,114.71877 627.25,114.71875 z"
         id="path3411"
         style="font-style:normal;font-variant:normal;font-weight:normal;font-stretch:normal;letter-spacing:normal;word-spacing:normal;text-anchor:start;fill:#fefe21;fill-opacity:1;fill-rule:nonzero;stroke:none;stroke-width:0;stroke-linecap:butt;stroke-linejoin:miter;stroke-miterlimit:10.43299961;stroke-dasharray:none;stroke-dashoffset:0;stroke-opacity:1" />
      <path
         d="M 631.07932,135.79852 C 630.81324,135.85636 630.34815,135.96416 630.16684,135.79852 C 629.96996,135.61866 630.31443,135.19002 630.4263,134.90923 C 630.81955,133.92218 631.59069,133.16511 632.39982,132.49621 C 634.19091,131.01552 635.28099,127.46679 635.10839,124.63385 C 634.9381,121.83887 634.1365,119.00027 632.37307,116.78613 C 632.34567,116.75172 632.37899,116.57858 632.44514,116.51785 C 632.74356,116.24388 633.56334,116.94163 633.7847,117.22652 C 635.54282,119.48913 636.97976,121.45183 637.08945,126.49141 C 637.15926,129.69883 635.4294,133.78499 632.91229,135.04656 C 632.3199,135.34347 631.72867,135.65736 631.07932,135.79852 z"
         id="path3413"
         style="font-style:normal;font-variant:normal;font-weight:normal;font-stretch:normal;letter-spacing:normal;word-spacing:normal;text-anchor:start;fill:#fefe21;fill-opacity:1;fill-rule:nonzero;stroke:none;stroke-width:0;stroke-linecap:butt;stroke-linejoin:miter;stroke-miterlimit:10.43299961;stroke-dasharray:none;stroke-dashoffset:0;stroke-opacity:1" />
      <path
         d="M 619.35224,132.66961 C 618.42071,131.43244 617.81191,129.96047 617.65629,128.41718 C 617.4179,126.05301 617.66042,123.52427 618.91951,121.46674 C 619.25059,120.9257 619.83208,120.16111 620.3069,120.16111 C 620.85935,120.16111 620.19671,121.21907 620.07518,121.70634 C 619.50426,123.99554 619.1282,126.485 619.91811,128.76899 C 620.6018,130.74584 622.36967,132.41659 623.46876,133.5954 C 624.17699,134.35499 624.83565,135.43098 624.51506,135.84797 C 623.8163,136.75683 620.64417,134.38544 619.35224,132.66961 z"
         id="path3415"
         style="font-style:normal;font-variant:normal;font-weight:normal;font-stretch:normal;letter-spacing:normal;word-spacing:normal;text-anchor:start;fill:#fefe21;fill-opacity:1;fill-rule:nonzero;stroke:none;stroke-width:0;stroke-linecap:butt;stroke-linejoin:miter;stroke-miterlimit:10.43299961;stroke-dasharray:none;stroke-dashoffset:0;stroke-opacity:1" />
    </g>
    <use
       transform="translate(-68.480971,88.688525)"
       id="use3476"
       x="0"
       y="0"
       width="300"
       height="367.07803"
       xlink:href="#g3417" />
    <use
       transform="translate(-68.481,-65.937995)"
       id="use3486"
       x="0"
       y="0"
       width="300"
       height="367.07803"
       xlink:href="#g3417" />
    <use
       transform="translate(-142.67285,0)"
       id="use3488"
       x="0"
       y="0"
       width="300"
       height="367.07803"
       xlink:href="#g3417" />
  </g>
</svg>
