<?xml version="1.0" encoding="UTF-8" standalone="no"?>
<!-- Created with Inkscape (http://www.inkscape.org/) -->
<svg
   xmlns:svg="http://www.w3.org/2000/svg"
   xmlns="http://www.w3.org/2000/svg"
   version="1.0"
   width="200"
   height="237.13722"
   id="svg2394">
  <defs
     id="defs2396" />
  <g
     transform="translate(-275.5003,-413.20038)"
     id="layer1">
    <path
       d="M 275.50042,413.20038 C 275.31893,413.20038 474.74635,413.20038 475.5003,413.20038 L 475.5003,442.84247 C 475.5003,598.00452 377.67327,650.3376 375.50032,650.3376 C 370.93087,650.3376 275.50042,598.83155 275.50042,442.84247 L 275.50042,413.20038 z"
       id="path8960"
       style="fill:#0000ff;fill-opacity:1;fill-rule:nonzero;stroke:none;stroke-width:0.0013889;stroke-linecap:round;stroke-linejoin:bevel;marker:none;marker-start:none;marker-mid:none;marker-end:none;stroke-miterlimit:4;stroke-dasharray:none;stroke-dashoffset:0;stroke-opacity:1;visibility:visible;display:block" />
    <path
       d="M 375.48549,421.6824 C 373.25782,421.38379 369.18818,425.609 370.20906,428.96886 C 371.49617,433.20486 370.5111,434.9097 367.69651,438.391 C 364.14266,442.78657 368.53258,448.34421 369.45527,452.64983 C 362.79449,452.42486 354.17965,449.5544 349.32336,457.20386 C 346.34725,461.89165 339.82049,460.6696 336.19515,463.67373 C 331.64865,467.4412 339.36613,466.75554 341.81703,465.87223 C 347.27392,463.90553 350.91858,461.02985 357.5206,462.22901 C 361.99938,463.04252 365.23641,458.28821 368.199,456.45009 C 367.84,459.45681 364.05757,462.59878 361.82339,465.21268 C 355.30798,472.83527 351.47729,483.01329 359.12234,489.83587 C 366.71449,496.61122 379.01993,496.75124 385.37867,489.11351 C 389.86064,483.73009 389.81172,475.65374 386.25809,469.48405 C 383.61717,464.89889 376.11525,457.6878 376.64754,456.95261 C 377.81612,455.33843 381.11076,462.39215 387.95411,461.47523 C 393.04796,460.79272 395.34315,459.81646 400.07721,464.45891 C 401.20714,465.56692 410.87717,467.76239 410.25312,464.80439 C 409.30995,460.33323 404.11849,462.80871 401.01943,460.18754 C 396.36142,456.24774 392.10929,449.4983 384.9076,451.33073 C 381.10954,452.29714 374.92193,454.71489 379.78828,450.07445 C 387.54237,442.68019 399.09135,441.54248 407.77198,449.82319 C 417.05754,458.68095 415.36499,474.22196 406.64132,482.86349 C 399.2554,490.17993 391.70174,495.78391 385.84982,504.62863 C 376.36989,518.95684 372.23049,532.85939 372.47037,553.15264 C 372.58782,563.12028 372.45916,571.51763 373.0615,581.36811 C 373.19957,583.62556 372.16399,584.47355 370.78318,581.21867 C 369.81231,578.93008 368.95192,575.19591 368.04197,573.12757 C 363.75792,563.38934 368.16216,555.45166 363.23669,541.21793 C 359.05163,529.12383 351.65211,517.85072 342.13108,509.8108 C 334.92425,503.72505 325.10061,501.30649 316.72636,501.24458 C 313.31573,501.21936 313.59707,501.07305 311.79178,501.14244 C 311.97775,503.2573 312.70861,507.96736 312.79682,509.74799 C 313.42282,522.37931 313.04502,534.04682 321.49662,546.68277 C 328.05825,556.49306 334.58401,567.83723 345.71148,572.8135 C 350.57884,574.9902 358.29415,573.47416 360.37861,579.59744 C 360.90852,584.23619 357.76417,591.40862 364.05329,593.41658 C 369.7136,595.22377 370.82935,606.23906 371.40253,612.95181 L 380.25935,612.95181 C 380.35248,603.37102 381.24732,601.20585 388.99055,599.19549 C 399.2724,596.52604 406.16561,585.99849 405.60487,575.54592 C 396.37126,572.23176 386.44066,579.66584 382.64628,587.88892 C 381.64436,590.06029 378.85908,600.15574 379.03448,594.57864 C 379.37466,583.76212 386.86601,570.89945 397.50185,568.16525 C 404.25539,566.42909 407.59657,566.19763 411.60369,562.38634 C 416.48378,557.7447 422.16145,552.25966 425.89388,546.02322 C 433.46903,533.36616 438.44949,518.8964 437.86003,504.00049 C 437.7839,502.07746 438.73076,500.19875 439.65019,498.97534 C 438.30831,499.07104 437.82031,499.21756 435.00195,499.16379 C 426.68502,499.00513 418.59885,499.81642 412.10617,505.47662 C 403.15202,513.28272 394.7107,522.05789 389.55584,532.76941 C 384.19969,543.89935 383.29465,556.30145 381.9553,568.35369 C 381.56115,571.90057 376.63987,582.94319 377.09655,576.58044 C 378.08372,562.70071 376.11627,549.57415 378.09225,536.91515 C 379.54383,527.61574 382.91852,517.94968 388.51941,509.40251 C 392.34772,503.56044 396.37423,497.67661 401.71042,492.94518 C 409.73935,485.82613 418.0104,478.66754 417.4454,465.49535 C 417.10306,457.51557 415.48424,451.77933 406.82974,445.26916 C 397.21906,438.03969 381.35788,439.78245 375.76813,451.14229 C 374.84674,453.01475 374.59029,452.54318 374.95153,450.92244 C 375.31276,449.30169 376.26909,446.53378 376.9302,444.76664 C 377.70649,442.6915 377.95933,440.11622 377.43203,438.13162 C 376.93649,436.26669 375.57,435.0071 375.32846,433.24023 C 374.98597,430.73548 376.83446,428.95199 376.96015,427.85898 C 377.29287,424.96428 376.55297,421.82551 375.48549,421.6824 z M 370.27188,460.72146 C 370.27398,462.58244 370.0663,464.36989 370.01354,466.29463 C 370.00204,466.71215 371.21164,467.10474 371.8422,467.22274 C 372.49165,467.34426 373.23669,467.01551 373.82087,466.75163 C 374.2515,466.55713 374.96426,466.24912 374.92012,465.7152 C 374.80984,464.38035 374.62344,463.05658 374.41764,461.72649 C 374.32748,461.14406 374.66251,460.25776 374.99863,460.98842 C 375.76965,462.66438 376.51925,464.13653 377.15003,465.87223 C 377.61329,467.14687 377.78146,468.54744 377.49549,469.86094 C 377.26813,470.90554 376.67931,472.04808 375.87805,472.81321 C 374.5895,474.04361 371.74675,474.46187 370.90005,474.22653 C 368.92131,473.67659 368.14602,472.39044 367.13114,471.023 C 366.84307,470.63477 366.84126,469.4962 366.87991,468.73028 C 367.01761,466.00425 367.91005,463.42981 369.45527,461.03553 C 369.93886,460.28627 370.27144,460.31757 370.27188,460.72146 z"
       id="path8972"
       style="font-style:normal;font-variant:normal;font-weight:normal;font-stretch:normal;letter-spacing:normal;word-spacing:normal;text-anchor:start;opacity:1;fill:#ffff65;fill-opacity:1;stroke:none;stroke-width:0.00138889;stroke-linecap:butt;stroke-linejoin:miter;stroke-miterlimit:10.43299961;stroke-dashoffset:0;stroke-opacity:1" />
  </g>
</svg>
