<?xml version="1.0" encoding="UTF-8" standalone="no"?>
<!-- Created with Inkscape (http://www.inkscape.org/) -->
<svg
   xmlns:svg="http://www.w3.org/2000/svg"
   xmlns="http://www.w3.org/2000/svg"
   xmlns:xlink="http://www.w3.org/1999/xlink"
   version="1.0"
   width="200"
   height="239.99994"
   id="svg2409">
  <defs
     id="defs2411">
    <clipPath
       id="clipPath2455">
      <rect
         width="782.85712"
         height="888.57141"
         x="-65.714287"
         y="-99.066391"
         id="rect2457"
         style="opacity:1;fill:#cccccc;fill-opacity:1;stroke:none;stroke-width:0.1;stroke-linejoin:miter" />
    </clipPath>
  </defs>
  <g
     transform="translate(-229.00957,-764.91456)"
     id="layer1">
    <path
       d="M 229.00957,764.91456 C 229.00957,764.91456 429.00957,764.91456 429.00957,764.91456 L 429.00957,794.91455 C 429.00957,952.40499 329.00956,1004.9145 329.00956,1004.9145 C 329.00956,1004.9145 229.00957,952.40499 229.00957,794.91455 L 229.00957,764.91456 z"
       id="path3386"
       style="opacity:1;fill:#211aff;fill-opacity:1;fill-rule:nonzero;stroke:none;stroke-width:3;stroke-linecap:round;stroke-linejoin:bevel;marker:none;marker-start:none;marker-mid:none;marker-end:none;stroke-miterlimit:4;stroke-dasharray:none;stroke-dashoffset:0;stroke-opacity:1;visibility:visible;display:block" />
    <path
       d="M 293.24787,880.93866 C 304.97953,881.42818 298.30478,903.65491 318.93279,904.76116 C 346.28657,906.22809 343.14317,920.12017 378.3558,934.94259 C 376.97452,936.63549 375.03583,939.44397 369.96978,939.78934 C 363.39542,940.23753 360.53975,935.60074 355.74484,935.5131 C 346.17057,935.33812 342.84418,939.9005 342.86039,943.24104 C 342.88375,948.05559 344.46093,949.87481 344.37292,952.10166 C 344.16432,957.37943 335.20964,962.36148 334.02765,962.71803 C 333.88933,961.10194 335.93538,958.2873 336.12477,957.56795 C 333.82286,958.05435 330.79935,960.08075 328.20189,960.14258 C 327.81152,958.2489 330.10174,956.49117 330.11692,955.435 C 329.19155,955.16438 327.76606,955.38107 326.92993,955.32248 C 328.26446,952.02284 336.14435,951.21522 336.27002,948.20364 C 336.39802,945.13608 333.7719,941.39482 331.76696,941.38693 C 327.54526,941.37029 325.79834,945.95513 325.58831,949.231 C 325.03524,957.85738 316.06505,963.38315 312.74942,962.73037 C 313.23454,960.79324 316.15446,959.08748 316.38175,958.05354 C 313.06287,958.70639 310.55672,959.76837 307.57726,960.18219 C 309.12474,956.77157 310.48852,956.00078 311.91084,954.3889 C 310.28946,954.53924 308.73547,954.84869 308.23457,954.2355 C 310.38607,950.72443 318.26345,951.52439 318.35752,947.47667 C 318.52952,940.07459 303.58705,932.24221 300.23685,927.22283 C 294.47929,918.59664 294.16454,911.59273 294.11101,905.36218 C 294.06223,899.68415 292.58004,888.50699 281.29266,888.95089 C 283.40132,884.83912 285.56636,880.61814 293.24787,880.93866 z M 288.96394,886.79465 C 288.42816,886.23542 287.98557,886.00571 287.64941,886.1124 C 287.37067,886.20087 287.14261,886.13854 287.14261,885.9739 C 287.14261,885.80925 287.43401,885.67454 287.79015,885.67454 C 288.1463,885.67454 288.68268,885.48924 288.9821,885.26277 C 289.95562,884.52643 291.62994,884.99468 291.62994,886.00328 C 291.62994,886.33573 290.2286,887.07683 289.87079,887.07683 C 289.81628,887.07683 289.40819,887.25835 288.96394,886.79465 z"
       id="path2583"
       style="fill:#ffffff;fill-opacity:1;fill-rule:evenodd;stroke:none;stroke-width:0.5;stroke-linecap:butt;stroke-linejoin:miter;stroke-opacity:1" />
    <use
       transform="translate(39.645588,-88.120749)"
       id="use3388"
       x="0"
       y="0"
       width="200.00003"
       height="240"
       xlink:href="#path2583" />
    <use
       transform="translate(-37.495991,-88.120749)"
       id="use3396"
       x="0"
       y="0"
       width="200.00003"
       height="240"
       xlink:href="#path2583" />
  </g>
</svg>
