<?xml version="1.0" encoding="UTF-8" standalone="no"?>
<!-- Created with Inkscape (http://www.inkscape.org/) -->

<svg
   xmlns:svg="http://www.w3.org/2000/svg"
   xmlns="http://www.w3.org/2000/svg"
   version="1.0"
   width="200"
   height="240.00002"
   id="svg122">
  <defs
     id="defs124" />
  <g
     transform="translate(-340.15484,-399.02632)"
     id="layer1">
    <path
       d="m 340.15484,399.02632 c 0,0 200,0 200,0 l 0,30 c 0,157.49047 -100,210.00002 -100,210.00002 0,0 -100,-52.50955 -100,-210.00002 l 0,-30 z"
       id="path217"
       style="fill:#ffff00;fill-opacity:1;fill-rule:nonzero;stroke:none;stroke-width:3;marker:none;visibility:visible;display:block" />
    <path
       d="m 446.40244,559.59867 c -3.3488,5.12388 -0.1617,12.27691 0.1694,17.78673 l -13.0153,0 c 0.331,-5.50982 3.5181,-12.7758 0.1694,-17.89968 -5.1239,-3.34878 -12.277,-0.16168 -17.7868,0.16939 l 0,-13.01532 c 5.5098,0.33107 12.7758,3.51817 17.8997,0.16939 3.3488,-5.12388 0.1617,-12.27691 -0.1694,-17.78673 l 13.0153,0 c -0.331,5.50982 -3.5181,12.7758 -0.1694,17.89968 5.1239,3.34878 12.277,0.16168 17.7868,-0.16939 l 0,13.01532 c -5.5098,-0.33107 -12.7758,-3.51817 -17.8997,-0.16939 z"
       id="path219"
       style="font-style:normal;font-variant:normal;font-weight:normal;font-stretch:normal;letter-spacing:normal;word-spacing:normal;text-anchor:start;fill:#ff0000;fill-opacity:1;fill-rule:nonzero;stroke:#ff0000;stroke-width:0;stroke-linecap:square;stroke-linejoin:miter;stroke-miterlimit:10.43299961;stroke-opacity:1;stroke-dasharray:none;stroke-dashoffset:0" />
    <path
       d="m 493.10504,537.10818 c -3.3488,5.12388 -0.1617,12.27692 0.1694,17.78673 l -13.0153,0 c 0.331,-5.50981 3.5181,-12.7758 0.1694,-17.89967 -5.1239,-3.34879 -12.277,-0.16169 -17.7868,0.16939 l 0,-13.01532 c 5.5098,0.33107 12.7758,3.51817 17.8997,0.16939 3.3488,-5.12388 0.1617,-12.27691 -0.1694,-17.78673 l 13.0153,0 c -0.331,5.50982 -3.5181,12.7758 -0.1694,17.89968 5.1239,3.34878 12.277,0.16168 17.7868,-0.16939 l 0,13.01531 c -5.5098,-0.33106 -12.7758,-3.51817 -17.8997,-0.16939 z"
       id="use221"
       style="font-style:normal;font-variant:normal;font-weight:normal;font-stretch:normal;letter-spacing:normal;word-spacing:normal;text-anchor:start;fill:#ff0000;fill-opacity:1;fill-rule:nonzero;stroke:#ff0000;stroke-width:0;stroke-linecap:square;stroke-linejoin:miter;stroke-miterlimit:10.43299961;stroke-opacity:1;stroke-dasharray:none;stroke-dashoffset:0" />
    <path
       d="m 399.69724,537.10492 c -3.3488,5.12388 -0.1617,12.27691 0.1694,17.78673 l -13.0153,0 c 0.331,-5.50982 3.5181,-12.7758 0.1694,-17.89968 -5.1239,-3.34878 -12.277,-0.16168 -17.7868,0.16939 l 0,-13.01532 c 5.5098,0.33107 12.7758,3.51817 17.8997,0.16939 3.3488,-5.12388 0.1617,-12.27691 -0.1694,-17.78673 l 13.0153,0 c -0.331,5.50982 -3.5181,12.7758 -0.1694,17.89968 5.1239,3.34878 12.277,0.16168 17.7868,-0.16939 l 0,13.01532 c -5.5098,-0.33107 -12.7758,-3.51818 -17.8997,-0.16939 z"
       id="use223"
       style="font-style:normal;font-variant:normal;font-weight:normal;font-stretch:normal;letter-spacing:normal;word-spacing:normal;text-anchor:start;fill:#ff0000;fill-opacity:1;fill-rule:nonzero;stroke:#ff0000;stroke-width:0;stroke-linecap:square;stroke-linejoin:miter;stroke-miterlimit:10.43299961;stroke-opacity:1;stroke-dasharray:none;stroke-dashoffset:0" />
    <path
       d="m 504.64034,486.57218 c -3.3488,5.12388 -0.1617,12.27692 0.1694,17.78674 l -13.0153,0 c 0.331,-5.50982 3.5181,-12.77581 0.1694,-17.89968 -5.1239,-3.34879 -12.277,-0.16169 -17.7868,0.16939 l 0,-13.01532 c 5.5098,0.33107 12.7758,3.51817 17.8997,0.16939 3.3488,-5.12388 0.1617,-12.27691 -0.1694,-17.78673 l 13.0153,0 c -0.331,5.50982 -3.5181,12.7758 -0.1694,17.89968 5.1239,3.34878 12.277,0.16168 17.7868,-0.16939 l 0,13.01531 c -5.5098,-0.33106 -12.7758,-3.51817 -17.8997,-0.16939 z"
       id="use225"
       style="font-style:normal;font-variant:normal;font-weight:normal;font-stretch:normal;letter-spacing:normal;word-spacing:normal;text-anchor:start;fill:#ff0000;fill-opacity:1;fill-rule:nonzero;stroke:#ff0000;stroke-width:0;stroke-linecap:square;stroke-linejoin:miter;stroke-miterlimit:10.43299961;stroke-opacity:1;stroke-dasharray:none;stroke-dashoffset:0" />
    <path
       d="m 388.16554,486.56811 c -3.3488,5.12388 -0.1617,12.27691 0.1694,17.78673 l -13.0153,0 c 0.331,-5.50982 3.5181,-12.7758 0.1694,-17.89968 -5.1239,-3.34878 -12.277,-0.16168 -17.7868,0.1694 l 0,-13.01532 c 5.5098,0.33106 12.7758,3.51817 17.8997,0.16939 3.3488,-5.12388 0.1617,-12.27691 -0.1694,-17.78673 l 13.0153,0 c -0.331,5.50982 -3.5181,12.7758 -0.1694,17.89968 5.1239,3.34878 12.277,0.16168 17.7868,-0.1694 l 0,13.01532 c -5.5098,-0.33106 -12.7758,-3.51817 -17.8997,-0.16939 z"
       id="use227"
       style="font-style:normal;font-variant:normal;font-weight:normal;font-stretch:normal;letter-spacing:normal;word-spacing:normal;text-anchor:start;fill:#ff0000;fill-opacity:1;fill-rule:nonzero;stroke:#ff0000;stroke-width:0;stroke-linecap:square;stroke-linejoin:miter;stroke-miterlimit:10.43299961;stroke-opacity:1;stroke-dasharray:none;stroke-dashoffset:0" />
    <path
       d="m 472.32224,446.04453 c -3.3488,5.12388 -0.1617,12.27691 0.1694,17.78673 l -13.0153,0 c 0.331,-5.50982 3.5181,-12.7758 0.1694,-17.89968 -5.1239,-3.34878 -12.277,-0.16168 -17.7868,0.16939 l 0,-13.01532 c 5.5098,0.33107 12.7758,3.51817 17.8997,0.16939 3.3488,-5.12388 0.1617,-12.27691 -0.1694,-17.78673 l 13.0153,0 c -0.331,5.50982 -3.5181,12.7758 -0.1694,17.89968 5.1239,3.34878 12.277,0.16168 17.7868,-0.16939 l 0,13.01532 c -5.5098,-0.33107 -12.7758,-3.51817 -17.8997,-0.16939 z"
       id="use229"
       style="font-style:normal;font-variant:normal;font-weight:normal;font-stretch:normal;letter-spacing:normal;word-spacing:normal;text-anchor:start;fill:#ff0000;fill-opacity:1;fill-rule:nonzero;stroke:#ff0000;stroke-width:0;stroke-linecap:square;stroke-linejoin:miter;stroke-miterlimit:10.43299961;stroke-opacity:1;stroke-dasharray:none;stroke-dashoffset:0" />
    <path
       d="m 420.48644,446.04272 c -3.3488,5.12388 -0.1617,12.27691 0.1694,17.78673 l -13.0153,0 c 0.331,-5.50982 3.5181,-12.7758 0.1694,-17.89968 -5.1239,-3.34878 -12.277,-0.16168 -17.7868,0.16939 l 0,-13.01532 c 5.5098,0.33107 12.7758,3.51817 17.8997,0.16939 3.3488,-5.12388 0.1617,-12.27691 -0.1694,-17.78673 l 13.0153,0 c -0.331,5.50982 -3.5181,12.7758 -0.1694,17.89968 5.1239,3.34878 12.277,0.16168 17.7868,-0.16939 l 0,13.01532 c -5.5098,-0.33107 -12.7758,-3.51817 -17.8997,-0.16939 z"
       id="use231"
       style="font-style:normal;font-variant:normal;font-weight:normal;font-stretch:normal;letter-spacing:normal;word-spacing:normal;text-anchor:start;fill:#ff0000;fill-opacity:1;fill-rule:nonzero;stroke:#ff0000;stroke-width:0;stroke-linecap:square;stroke-linejoin:miter;stroke-miterlimit:10.43299961;stroke-opacity:1;stroke-dasharray:none;stroke-dashoffset:0" />
  </g>
</svg>
