<?xml version="1.0" encoding="UTF-8" standalone="no"?>
<!-- Created with Inkscape (http://www.inkscape.org/) -->

<svg
   xmlns:svg="http://www.w3.org/2000/svg"
   xmlns="http://www.w3.org/2000/svg"
   xmlns:xlink="http://www.w3.org/1999/xlink"
   version="1.0"
   width="200"
   height="239.99997"
   id="svg669">
  <defs
     id="defs671" />
  <g
     transform="matrix(0.83333333,0,0,0.83333333,-209.17868,-353.05492)"
     id="layer1">
    <path
       d="m 251.01442,423.6659 c 0,0 240,0 240,0 l 0,35.99999 c 0,188.98854 -120.00002,251.99997 -120.00002,251.99997 0,0 -119.99998,-63.01143 -119.99998,-251.99997 l 0,-35.99999 z"
       id="path2122"
       style="fill:#3771c8;fill-opacity:1;fill-rule:nonzero;stroke:none;stroke-width:3;marker:none;visibility:visible;display:block" />
    <path
       d="m 443.2797,515.3716 c 5.51613,0.47156 14.80698,17.05497 16.54593,29.51664 0.84637,6.06529 -0.37077,20.45193 -2.31049,27.02641 -0.85567,2.90024 -1.82026,8.94083 -2.12047,13.4307 -0.1821,2.72358 -0.36115,5.44736 -0.54172,8.17106 -2.10807,1.17889 -4.21735,2.35565 -6.32424,3.53665 -5.68438,3.18633 -6.33747,3.33688 -6.72498,1.62057 -0.37563,-1.66381 -1.0717,-1.38172 -5.51145,2.10066 -2.79539,2.1926 -8.21477,5.71242 -12.05584,7.84536 -3.84106,2.13295 -8.32853,5.35145 -9.95741,7.14656 -2.15415,2.37399 -3.72963,3.19393 -5.77815,3.0188 -3.7947,-0.32441 -5.62805,-2.89167 -3.02468,-4.24181 1.50042,-0.77813 0.78017,-0.94469 -3.44202,-0.82744 -4.16929,0.11578 -6.70009,0.96538 -11.59855,3.96394 -5.75486,3.52281 -18.46435,12.84931 -18.60084,5.43096 -0.15593,-8.47444 -0.2707,-14.71212 -0.4422,-24.03302 -0.0784,-4.26265 3.7722,-5.22277 5.82195,-5.04755 1.25619,0.1074 5.73824,1.67946 9.958,3.48588 8.80154,3.76785 13.09933,3.85129 17.78398,0.35989 0.98255,-0.73146 1.96508,-1.46294 2.94764,-2.19439 -0.81665,0.0138 -1.63327,0.0303 -2.44995,0.0415 -2.02689,0.0277 -2.50595,-0.5387 -2.85277,-3.31756 -0.45749,-3.66543 1.0354,-5.03849 7.24694,-6.62555 3.94423,-1.00774 6.18317,-5.31417 5.0632,-9.69772 -0.90107,-3.52666 0.61149,-5.43888 6.65405,-8.49533 4.58433,-2.31882 6.06355,-4.86021 9.62176,-16.42764 2.70123,-8.7814 2.95445,-10.58083 2.76384,-20.5894 -0.18603,-9.76677 -0.0235,-11.25031 1.64543,-13.37721 2.45184,-3.12466 3.79771,-2.00727 2.72268,2.27142 -0.57137,2.27404 -0.39244,4.29032 0.55021,6.03756 0.77561,1.43759 1.31453,3.70105 1.19854,5.05798 -0.11602,1.35693 0.2362,2.82409 0.78978,3.23528 1.58762,1.17921 2.08509,0.11099 1.26972,-2.74559 -0.50912,-1.78376 -0.31254,-3.55972 0.6295,-5.52896 1.09357,-2.28594 1.13216,-3.50843 0.21488,-5.81534 -0.64085,-1.61171 -1.30353,-3.30429 -1.46867,-3.73241 -0.1651,-0.42812 0.63631,-0.69834 1.7764,-0.60087 z m 5.81051,14.57917 c -0.97671,-0.19059 -1.97864,0.39873 -2.08484,1.64088 -0.0859,1.00467 0.12334,2.16989 0.4694,2.5806 0.92981,1.10367 3.82359,-1.68097 3.14404,-3.02444 -0.35186,-0.6956 -0.94256,-1.08269 -1.5286,-1.19704 z m -0.0202,0.97056 c 0.54799,0.0468 0.96059,0.50361 0.9165,1.01926 -0.0441,0.51566 -0.5525,1.1798 -1.12945,1.47165 -0.57696,0.29183 -0.98956,-0.16494 -0.91651,-1.01927 0.073,-0.85435 0.58146,-1.5185 1.12946,-1.47164 z"
       id="path4045"
       style="fill:#cccccc" />
    <use
       transform="matrix(-0.5,0.8660254,-0.8660254,-0.5,1019.7851,481.70662)"
       id="use3624"
       x="0"
       y="0"
       width="744.09448"
       height="1052.3622"
       xlink:href="#path4045" />
    <use
       transform="matrix(-0.5,-0.8660254,0.8660254,-0.5,92.722397,1124.0131)"
       id="use3626"
       x="0"
       y="0"
       width="744.09448"
       height="1052.3622"
       xlink:href="#path4045" />
  </g>
</svg>
