<?xml version="1.0" encoding="utf-8"?>
<!-- Generator: Adobe Illustrator 16.0.0, SVG Export Plug-In . SVG Version: 6.00 Build 0)  -->
<!DOCTYPE svg [
	<!ENTITY ns_flows "http://ns.adobe.com/Flows/1.0/">
	<!ENTITY ns_extend "http://ns.adobe.com/Extensibility/1.0/">
	<!ENTITY ns_ai "http://ns.adobe.com/AdobeIllustrator/10.0/">
	<!ENTITY ns_graphs "http://ns.adobe.com/Graphs/1.0/">
]>
<svg version="1.2" baseProfile="tiny"
	 id="svg4228" xmlns:x="&ns_extend;" xmlns:i="&ns_ai;" xmlns:graph="&ns_graphs;" xmlns:svg="http://www.w3.org/2000/svg"
	 xmlns="http://www.w3.org/2000/svg" xmlns:xlink="http://www.w3.org/1999/xlink" xmlns:a="http://ns.adobe.com/AdobeSVGViewerExtensions/3.0/"
	 x="0px" y="0px" width="390px" height="480px" viewBox="0 0 390 480" xml:space="preserve">
<path id="path4240-0" fill="#207DBF" d="M0,0c130,0,260,0,390,0c-0.011,114.998-19.215,350.147-195.112,479.998
	C20.791,350.089,0.081,115.022,0,0z"/>
<g id="use3765" transform="matrix(0.49260601,0.87025245,-0.87025245,0.49260601,256.20874,-78.606725)">
	<path id="path2827-1" fill="#FAF700" d="M215.425,168.337c0,0,9.706,4.082,13.875,1.973c36.858-18.644,89.412-46.019,89.412-46.019
		s8.856,17.893,12.889,15.713c10.324-5.58,3.76-39.789,3.76-39.789s-24.429-23.078-35.77-16.509
		c-4.195,2.43,6.483,18.853,6.483,18.853s-51.08,30.768-85.555,52.745C216.587,157.812,215.425,168.337,215.425,168.337
		L215.425,168.337z"/>
</g>
<g>
	<g id="use3767" transform="matrix(-1,0,0,1,388.94464,-0.322634)">
		<path id="path2827-1_1_" fill="#FAF700" d="M173.52,168.015c0,0-9.706,4.082-13.875,1.973
			c-36.858-18.643-89.413-46.019-89.413-46.019s-8.855,17.893-12.888,15.714c-10.325-5.58-3.76-39.789-3.76-39.789
			s24.428-23.078,35.769-16.509c4.195,2.43-6.482,18.853-6.482,18.853s51.08,30.768,85.555,52.746
			C172.358,157.49,173.52,168.015,173.52,168.015L173.52,168.015z"/>
	</g>
	<g>
		<g id="use3769" transform="matrix(0.99912004,0.04194231,0.04194231,-0.99912004,-5.4000243,349.4084)">
			<path id="path2827-1_2_" fill="#FAF700" d="M216.896,190.254c0,0,9.869-3.67,13.945-1.389
				c36.045,20.173,87.404,49.729,87.404,49.729s9.599-17.506,13.536-15.159c10.081,6.008,2.087,39.911,2.087,39.911
				s-25.374,22.033-36.43,14.995c-4.09-2.604,7.268-18.565,7.268-18.565s-49.744-32.882-83.267-56.287
				C217.615,200.819,216.896,190.254,216.896,190.254z"/>
		</g>
		<g>
			<g>
				<g id="use3771" transform="matrix(-0.99995233,-0.00976377,-0.00976377,0.99995233,393.00992,2.391964)">
					<path id="path2827-1_3_" fill="#FAF700" d="M174.267,190.52c0,0-9.833-3.767-13.931-1.525
						c-36.24,19.82-87.886,48.873-87.886,48.873s-9.428-17.599-13.388-15.291c-10.14,5.909-2.478,39.888-2.478,39.888
						s25.159,22.28,36.282,15.351c4.115-2.563-7.086-18.635-7.086-18.635s50.063-32.396,83.812-55.472
						C173.445,201.076,174.267,190.52,174.267,190.52L174.267,190.52z"/>
				</g>
				<g id="use3773" transform="matrix(1,0,0,-1,2.671505e-7,360.34559)">
					<path id="path2827-1_4_" fill="#FAF700" d="M194.814,203.207c0,0,8.333,6.437,8.552,11.103
						c1.933,41.261,3.997,100.481,3.997,100.481s19.934-1.107,20.023,3.476c0.23,11.733-32.773,22.872-32.773,22.872
						s-32.117-9.891-31.988-22.996c0.048-4.848,19.601-3.645,19.601-3.645s1.613-59.609,3.757-100.438
						C186.227,209.403,194.814,203.207,194.814,203.207L194.814,203.207z"/>
				</g>
				<path id="path2827-1_5_" fill="#FAF700" d="M194.814,157.139c0,0,8.333-6.437,8.552-11.103
					c1.933-41.26,3.997-100.481,3.997-100.481s19.934,1.107,20.023-3.476c0.23-11.733-32.773-22.872-32.773-22.872
					s-32.117,9.891-31.988,22.996c0.048,4.848,19.601,3.646,19.601,3.646s1.613,59.609,3.757,100.437
					C186.227,150.943,194.814,157.139,194.814,157.139L194.814,157.139z"/>
			</g>
		</g>
	</g>
</g>
</svg>
