<?xml version="1.0" encoding="UTF-8" standalone="no"?>
<!-- Created with Inkscape (http://www.inkscape.org/) -->

<svg
 xmlns:dc="http://purl.org/dc/elements/1.1/"
 xmlns:cc="http://creativecommons.org/ns#"
 xmlns:rdf="http://www.w3.org/1999/02/22-rdf-syntax-ns#"
 xmlns:svg="http://www.w3.org/2000/svg"
 xmlns="http://www.w3.org/2000/svg"
 version="1.1"
 width="390"
 height="480"
 id="svg4228">
<metadata
 id="metadata8">
<rdf:RDF>
<cc:Work
 rdf:about="">
<dc:format>image/svg+xml</dc:format>
<dc:type
 rdf:resource="http://purl.org/dc/dcmitype/StillImage" />
<dc:title></dc:title>
</cc:Work>
</rdf:RDF>
</metadata>
<defs
 id="defs4232" />
<path
 d="M 0,0 C 130,0 260,0 390,0 389.98981,114.99797 370.78556,350.14732 194.88837,479.99815 20.79131,350.08886 0.081386,115.02225 0,0 z"
 id="path4240-0"
 style="fill:#d61a1a;fill-opacity:1;stroke:none" />
<path
 d="m 118.34746,119.36441 c 5.96924,1.7055 53.34093,24.02593 67.11864,46.3983 14.23275,23.11128 9.83978,84.12235 7.37288,83.13559 -38.0522,-43.09439 -88.37019,-33.60809 -60.76271,3.43221 -17.20082,19.41108 -3.87784,51.63872 41.05932,18.17796 -17.91454,18.66479 -8.80583,67.44686 23.17004,38.55927 27.68352,24.40954 50.31187,-11.68646 21.9323,-40.98822 38.21003,35.43169 68.96761,7.76478 44.69538,-15.47407 25.65276,-27.76204 -7.79268,-55.5404 -61.95358,-3.58186 -0.51928,0 -5.14562,-60.51459 10.00185,-84.90001 14.01965,-22.56979 66.22825,-44.20872 66.22825,-44.20872 -20.59447,77.74852 23.16368,81.5348 31.90969,51.23528 39.91801,5.22835 32.57982,-31.43148 -4.04489,-45.07806 22.51352,8.61768 65.80688,-25.58706 21.93229,-39.325323 6.6415,-24.487105 -22.62646,-47.192831 -46.38141,2.247162 9.11683,-47.79525 -24.50072,-66.644574 -35.95458,-30.920941 -36.66024,-6.797426 -43.8939,33.349973 28.26929,53.886932 0.1749,1.39919 -47.5417,34.54794 -75.63945,35.01077 -26.28432,0.43296 -69.93243,-32.19701 -74.51587,-35.05572 48.34049,-10.13366 80.54778,-56.960703 28.31423,-55.010506 -19.35,-37.009071 -41.05523,-6.945915 -36.40401,26.965937 -7.84465,-27.271373 -51.378214,-41.513786 -45.392663,1.078637 -26.697015,4.39533 -26.199499,46.751742 25.797413,39.550042 -48.966387,16.69997 -44.467572,54.78585 -9.258305,45.57243 9.429528,35.41132 51.990715,20.3695 32.505895,-50.70709 z"
 id="path2827"
 style="fill:#f2f2f2;fill-opacity:1;stroke:none" />
</svg>
