<?xml version="1.0" encoding="UTF-8" standalone="no"?>
<!-- Created with Inkscape (http://www.inkscape.org/) -->

<svg
   xmlns:svg="http://www.w3.org/2000/svg"
   xmlns="http://www.w3.org/2000/svg"
   version="1.1"
   width="390"
   height="480"
   id="svg4228">
  <defs
     id="defs4232" />
  <path
     d="m 0.51197174,0.605007 c 129.66268826,0 259.32539826,0 388.98807826,0 C 389.48988,115.30924 370.33549,349.85796 194.89467,479.37711 21.249335,349.79962 0.59314657,115.33346 0.51197174,0.605007 z"
     id="path4240-0-1"
     style="fill:#d9d9d9;fill-opacity:1;stroke:#999999;stroke-width:0.99989492;stroke-opacity:1" />
  <path
     d="m 21.61017,75.57203 c 3.91969,-3.290394 5.861594,8.724838 10.932203,8.961864 11.280435,0.527306 22.382395,3.553249 33.432203,7.309322 C 65.21835,80.158442 44.784071,67.944162 30.635593,64.004233 24.554581,62.310853 25.097765,50.806385 37.497687,51.023977 106.0779,52.210736 164.14984,63.000408 204.40678,92.542369 c 14.49153,18.313251 32.7966,18.493011 54.15254,30.000001 l -7.37288,64.19492 -7.37288,3.05084 c 2.27934,27.24576 6.29531,48.38984 13.98305,75.6356 6.93109,2.56734 16.39703,12.57863 17.60593,15.06356 0.10581,0.2175 -5.14336,1.52205 -10.86864,2.60593 0.87944,5.36107 7.38901,13.82236 10.80508,13.85593 l 51.73729,0.50848 c -25.54742,20.82284 -47.25525,46.22842 -58.47457,84.15254 -6.60021,-19.12811 -10.48188,-38.5408 -12.71187,-58.09322 -0.40668,-3.56573 -17.00428,-24.72922 -22.75424,-22.75424 -9.55333,3.28135 -23.96374,5.15018 -23.51695,4.70339 -2.56876,-14.93504 -3.31142,-28.50052 -4.06779,-42.07627 -10.13197,-14.87191 -19.99713,-29.79719 -27.83899,-45.12712 l -4.95762,5.33898 C 163.26668,213.84294 152.89231,200.10901 155.21186,182.79661 138.29986,169.161 126.79409,146.8996 108.51723,131.53212 79.359744,107.01603 38.347994,99.76103 24.915254,90.762708 20.832728,88.027906 19.398529,77.428598 21.61017,75.57203 z"
     id="path2827"
     style="fill:#207dbf;fill-opacity:1;stroke:none" />
  <path
     d="m 80.659094,71.042713 a 4.3116903,4.3552427 0 1 1 -8.62338,0 4.3116903,4.3552427 0 1 1 8.62338,0 z"
     id="path3609"
     style="fill:none;stroke:#e5e5e5;stroke-width:1.20000005;stroke-linecap:round;stroke-linejoin:round;stroke-miterlimit:4;stroke-opacity:1;stroke-dasharray:none" />
  <path
     d="m 66.025478,78.272417 c 1.983386,-1.62753 25.419185,20.369831 5.052082,16.375713 3.370792,-0.553584 6.674544,-0.915567 6.075563,-2.918013 -1.331166,-4.450206 -6.404053,-10.345792 -11.127645,-13.4577 z"
     id="path3611"
     style="fill:#e6e6e6;stroke:none" />
  <path
     d="m 91.285885,114.76935 c 20.135645,-5.30408 27.694725,-15.237391 21.602005,-38.935868 0,0 1.74203,17.866177 -1.8292,24.389368 -4.35423,7.95343 -19.772805,14.5465 -19.772805,14.5465 z"
     id="path3613"
     style="fill:#e5e5e5;fill-opacity:1;stroke:none" />
  <path
     d="m 114.45578,111.02384 c 11.77368,1.47276 20.68069,5.51785 25.34751,13.23994 2.31829,3.83603 -10.91598,7.71956 -13.76257,6.53287 -5.89162,-2.45611 -10.07905,-7.56862 -13.58836,-12.5431 4.51754,3.91452 8.05571,7.68756 13.32705,9.92995 3.69415,1.57146 13.36927,-1.05913 11.58494,-3.91972 -3.81929,-6.12299 -12.34219,-10.29172 -22.90857,-13.23994 z"
     id="path3615"
     style="fill:#e6e6e6;stroke:none" />
</svg>
