<?xml version="1.0" encoding="UTF-8" standalone="no"?>
<!-- Created with Inkscape (http://www.inkscape.org/) -->

<svg
   xmlns:svg="http://www.w3.org/2000/svg"
   xmlns="http://www.w3.org/2000/svg"
   version="1.1"
   width="390"
   height="480"
   id="svg4228">
  <defs
     id="defs4232" />
  <path
     d="m 0.51202379,0.50512952 c 129.66265621,0 259.32532621,0 388.98797621,0 C 389.48983,115.23328 370.33544,349.8309 194.89467,479.37706 21.249382,349.77255 0.5931986,115.2575 0.51202379,0.50512952 z"
     id="path4240-0-1"
     style="fill:#faf700;fill-opacity:1;stroke:#9e832a;stroke-width:0.99999905;stroke-opacity:1" />
  <path
     d="M 18.524697,176.88112 C 88.006519,10.92482 292.26035,43.790954 295.10919,158.37757 c 0.55136,22.17691 -4.82376,66.17933 -49.09379,83.01757 27.49649,-72.07773 -93.23219,-87.97046 -92.37015,8.10755 0.95464,106.39561 105.33414,129.42198 173.02347,65.59068 C 291.05269,391.90163 240.6729,445.53146 194.89095,478.75979 121.12659,424.30223 50.760808,330.29037 18.524697,176.88112 z"
     id="path2827"
     style="fill:#207dbf;fill-opacity:1;stroke:none" />
</svg>
