<?xml version="1.0" encoding="UTF-8" standalone="no"?>
<!-- Created with Inkscape (http://www.inkscape.org/) -->

<svg
   xmlns:svg="http://www.w3.org/2000/svg"
   xmlns="http://www.w3.org/2000/svg"
   version="1.1"
   width="390"
   height="480"
   id="svg4228">
  <defs
     id="defs4232" />
  <path
     d="m 0.51202379,0.50512952 c 129.66265621,0 259.32532621,0 388.98797621,0 C 389.48983,115.23328 370.33544,349.8309 194.89467,479.37706 21.249382,349.77255 0.5931986,115.2575 0.51202379,0.50512952 z"
     id="path4240-0-1"
     style="fill:#d9d9d9;fill-opacity:1;stroke:#999999;stroke-width:0.99999905;stroke-opacity:1" />
  <path
     d="m 170.65125,346.74506 c 4.81312,9.23266 15.52236,15.76294 26.3143,15.47373 -1.11428,-4.2471 -2.95897,-8.42803 -1.66116,-12.89478 3.80565,6.15066 23.78033,13.41935 32.0785,9.387 -3.20574,-2.80167 -4.43632,-9.51844 -2.35441,-13.93322 22.497,4.89982 32.4971,-3.58981 42.22532,-12.37054 -20.71866,2.59519 -41.50486,-0.8839 -51.92945,-18.14015 -25.35279,0.96698 -48.60712,-6.15768 -73.9604,9.52922 -52.865525,-7.05532 -52.424915,-48.27929 1.39879,-51.92945 67.48295,-4.57718 104.91607,19.12755 141.45155,21.76808 29.92214,2.15036 58.18465,-15.11883 59.97241,-56.38772 0.82044,-18.93929 -7.85949,-79.40534 -55.58684,-77.45183 -36.54769,1.4958 -29.50175,13.74449 -79.37422,-8.40719 -0.35013,-0.15527 -3.65947,-1.66177 -0.18563,-8.22157 2.88495,5e-4 5.7699,1.61377 8.65486,3.3998 2.54218,-9.77903 2.43436,-22.37379 -1.42196,-31.0325 1.07685,-0.99135 3.41835,-1.59417 5.25455,-0.86559 3.30573,-22.25651 -14.14546,-54.390812 -31.74471,-54.018017 0.19721,4.925673 -0.67061,12.174067 -10.71696,13.416186 -0.58915,0.07284 -1.25991,-1.852786 -0.49431,-1.92097 13.43386,-1.198643 9.81807,-18.523879 1.97074,-22.509219 -11.03456,1.42608 -13.7362,4.897601 -14.46529,8.901726 -0.30646,1.683046 -2.21491,1.305311 -1.97834,-0.12363 0.31531,-1.904548 0.7275,-3.806332 2.50445,-4.924062 -4.90639,-3.136296 -15.3345,0.39607 -17.95891,7.149517 -1.22316,3.14757 -23.42483,2.53529 -25.96308,9.64354 -0.28233,0.789986 0.15955,2.673676 0.49434,3.709004 -7.24157,4.502741 -21.62386,9.769867 -22.25456,11.127333 -1.184878,2.551372 -0.34868,5.997708 1.10285,7.354088 l 3.96658,-1.79068 c 0.46306,-0.20887 0.82577,1.391736 0.49433,1.545498 l -3.60324,1.673586 c 0.99627,3.133886 2.41351,6.31141 4.34524,9.05166 l 20.39981,0.031 c 3.66039,0.004 2.9999,5.94265 0.18513,5.93452 l -21.01773,-0.0621 c -4.31172,3.38632 -6.979034,7.61795 -8.407193,12.48728 6.962843,-1.57737 13.503063,-2.14558 20.461353,-3.27622 2.23962,-0.36405 2.89257,2.06983 1.11275,2.96701 -14.86531,7.49436 -24.184518,21.13696 -28.922979,36.49188 l 8.39959,-0.0802 c -17.090732,16.44962 -1.815921,38.2422 6.500229,44.55882 l 2.11811,-1.73829 c 3.28474,6.14085 9.43514,11.02088 15.56169,15.9112 l 13.37579,-9.61655 c 1.06338,-0.7524 2.33663,1.05383 1.22389,1.83572 l -16.17339,11.36516 -22.380273,0.52444 C 86.128964,197.2377 50.338961,209.17484 48.695335,235.49921 c 6.591886,2.99155 5.44522,12.13671 5.769982,11.45257 6.912621,-9.3535 12.324068,-2.89703 18.271498,5.59494 1.125868,-11.90566 5.065472,-9.33767 17.747136,-0.34944 -0.908124,-7.6268 1.702866,-7.04124 4.195916,-6.73159 0.270107,-4.11666 -0.08126,-7.61087 -1.048973,-10.49101 3.718197,3.65193 7.872916,7.39351 12.640506,10.22944 4.38154,-6.06542 10.75478,-5.98088 12.67614,1.13666 l 31.84796,-0.0732 11.55042,-12.78075 -1.3988,-0.34961 16.67576,-20.04182 -2.05422,-7.93365 c -0.23291,-0.89944 1.85753,-1.27427 2.0124,-0.68334 l 2.4317,9.2785 -15.85147,18.86611 28.60787,5.41003 29.72409,-8.30533 c 19.46224,-24.75891 42.36099,-16.29339 59.13307,-2.93242 l 13.51549,0.13477 -27.18837,-28.67473 c -9.94645,-10.49009 4.92387,-27.55267 19.90442,-23.8719 1.11156,0.27327 1.53853,1.51258 0.67996,1.39094 -17.34815,-2.45783 -27.29409,13.25836 -18.332,22.5269 l 29.41413,30.41994 -18.37657,-0.24717 c -8.06197,-4.8749 -32.60041,-27.06268 -57.82105,2.46507 -3.65285,4.27706 -4.76745,14.85127 3.23611,21.76733 9.45728,-12.39174 7.83503,-1.67547 16.01083,3.0911 10.33877,-10.90222 12.17848,-0.98517 23.02597,2.03988 -0.35215,-3.55159 -2.93962,-8.64164 3.49348,-7.04727 -0.96125,-16.25833 7.83653,-0.65966 10.75628,0.55637 2.4328,-0.22975 7.42868,-11.45392 11.74545,-0.30909 l 35.73069,-1.29802 c 2.03489,-5.88612 2.802,-12.48907 -2.78188,-18.3599 -2.08538,-2.19288 7.59587,-7.93116 8.46923,-6.18175 5.73526,11.49019 2.81864,65.51002 -49.41894,60.13122 -48.59844,-5.00387 -86.40355,-28.24635 -149.13598,-20.32071 -31.35096,3.96075 -40.730496,16.64459 -39.690843,30.90892 1.121488,27.00289 24.128833,30.57611 45.869043,40.18141 8.94948,8.88496 17.41611,18.83235 29.52941,20.75663 -1.55382,-3.36876 -2.14139,-7.74922 0.39007,-10.11121 l 0,9.8e-4 0,5e-5 z"
     id="path2839"
     style="fill:#d61a1a;fill-opacity:1;stroke:none" />
  <path
     d="m 122.41518,217.42019 c -0.99058,0.71558 -1.14136,0.73644 -1.59997,1.10628 -6.7412,0.0981 -13.49118,0.1405 -20.23406,0.31774 -16.615451,-22.8902 -43.584822,-8.70726 -49.962499,4.32758 -1.200566,-1.01591 -1.495292,-5.34217 -0.04384,-6.68789 -2.332797,-0.80999 -6.047855,7.9695 -5.769948,13.90053 -12.114569,-14.52456 1.516461,-35.68195 17.878041,-36.32453 16.361806,-0.64258 19.913604,6.58333 27.975377,11.27734 7.408996,0.32934 13.973929,0.30769 16.624019,-2.85175 4.01801,6.0362 9.28809,11.13504 15.13288,14.9347 z"
     id="path3613"
     style="fill:#d61a1a;fill-opacity:1;stroke:none" />
  <path
     d="m 127.79652,72.75609 c 2.47305,3.263953 6.90238,5.732232 10.95691,7.742688 -1.14197,0.141501 -2.03672,-0.137203 -3.26071,-0.757168 -0.81111,2.913518 -4.69981,2.503769 -6.24372,1.421646 -2.3926,-1.676506 -1.73617,-4.72379 -0.54086,-6.073556 -0.76791,-0.722509 -1.07407,-1.437375 -0.91162,-2.33361 z"
     id="path3615"
     style="fill:#d9d9d9;fill-opacity:1;stroke:none" />
</svg>
