<?xml version="1.0" encoding="UTF-8" standalone="no"?>
<!-- Created with Inkscape (http://www.inkscape.org/) -->

<svg
 xmlns:dc="http://purl.org/dc/elements/1.1/"
 xmlns:cc="http://creativecommons.org/ns#"
 xmlns:rdf="http://www.w3.org/1999/02/22-rdf-syntax-ns#"
 xmlns:svg="http://www.w3.org/2000/svg"
 xmlns="http://www.w3.org/2000/svg"
 version="1.1"
 width="390"
 height="480"
 id="svg4228">
<metadata
 id="metadata11">
<rdf:RDF>
<cc:Work
 rdf:about="">
<dc:format>image/svg+xml</dc:format>
<dc:type
 rdf:resource="http://purl.org/dc/dcmitype/StillImage" />
<dc:title></dc:title>
</cc:Work>
</rdf:RDF>
</metadata>
<defs
 id="defs4232" />
<path
 d="M 0,0 C 130,0 260,0 390,0 389.98981,114.99797 370.78556,350.14732 194.88837,479.99815 20.79131,350.08886 0.081386,115.02225 0,0 z"
 id="path4240-0"
 style="fill:#008c31;fill-opacity:1;stroke:none" />
<path
 d="m 74.872882,305.84746 c 6.248132,7.05472 17.613973,10.0667 24.362861,7.7227 14.808437,-5.14321 30.928967,-10.30527 63.610317,-7.53394 10.95955,0.92935 16.43192,-34.34934 15.88275,-52.43453 -0.45495,-14.98245 1.11101,-44.77138 -0.79449,-45.47669 l -15.54025,-5.75212 c -1.91904,8.88065 -12.05665,21.50365 -22.05509,12.77542 -4.416,7.23139 -20.65421,7.29744 -24.85169,-0.76271 -5.97965,7.49421 -27.906586,7.18399 -23.834747,-4.06779 -5.369536,1.51917 -10.282892,-5.19726 -6.864407,-10.55085 -18.312625,2.14014 -3.608388,-30.8111 20.402544,-22.69068 7.78708,-11.03317 27.32815,-3.91555 30.82627,4.32203 16.19748,-4.86063 26.55327,6.78635 24.47034,12.01272 l 15.12712,5.59322 c 6.18944,2.28853 7.00171,-3.62875 7.1822,-6.22882 l 2.3517,-33.87712 c 1.17938,-16.98944 -18.51636,-23.85843 -35.02119,-25.9322 -5.74415,10.33842 -19.81408,20.76202 -35.40254,8.45339 -7.87404,7.7872 -32.789094,9.1508 -41.949156,-7.11864 -23.936316,10.41087 -34.867895,-25.25233 -7.055085,-32.60594 0.655884,-18.144839 23.278468,-30.065007 39.661021,-15.50847 -0.18054,-8.530637 5.71778,-14.666694 13.60169,-14.364407 -17.84319,-3.014483 -21.325594,-33.527272 2.0339,-35.466102 -1.05729,-8.783044 13.15434,-20.466 26.5678,-12.711864 0.36135,-5.545406 10.43607,-11.535542 15.76271,-8.898305 2.66519,-6.2822428 16.21583,-8.271396 19.32203,-0.508475 4.74931,-8.8147867 31.78307,-10.567634 35.59322,4.957627 7.16344,-10.8707228 35.84941,-12.6492657 42.45763,3.940678 9.55042,-8.991443 40.47869,-6.791628 38.8983,13.474577 9.54819,-5.628215 38.13176,-0.04725 30.6356,20.466101 15.62093,9.557655 1.11178,32.380885 -14.23729,26.949153 -2.21569,11.63596 -32.58698,19.575537 -40.42373,7.245763 -7.66258,10.651454 -34.34953,13.804574 -43.60169,4.449152 2.1387,5.927392 -12.71051,18.193472 -22.37289,20.084742 -1.6096,0.31505 -1.78018,25.23358 0.38136,25.42373 5.26482,0.46314 10.58644,0.87122 15.63559,-0.88983 5.2804,-10.24874 13.48737,-23.90382 32.0339,-14.87288 6.02428,-9.02452 24.17433,-20.75054 36.73729,-4.95763 28.95871,-10.53648 38.05639,35.57132 8.13559,29.87289 -6.96336,5.40854 -15.85902,10.95841 -22.5,4.06779 -8.50123,9.73367 -22.35453,11.85484 -32.41525,-3.4322 -7.84261,3.03957 -19.31889,4.93928 -20.40254,-6.03814 -4.47068,2.23362 -8.20679,2.91056 -13.15678,2.98729 -1.53433,0.0238 -1.61017,12.11865 -2.41526,18.17797 -1.94332,14.62599 0.20766,43.99913 1.52543,44.23729 3.45912,0.62517 6.76421,0.31866 10.29661,-0.76272 3.88562,-7.39718 17.81283,-22.93207 29.3644,-15.63559 1.90311,-5.04995 23.19707,-13.35947 30.25424,-2.54237 13.65767,-20.88008 53.19346,6.29686 20.59322,18.05084 2.46318,9.45396 -16.24321,16.25688 -28.47458,3.81356 0.16182,6.74145 -13.09006,9.71948 -17.79661,1.27119 -4.57571,12.10783 -20.23436,13.66253 -33.30508,-0.12712 -2.77305,0.81931 -7.86591,0.94009 -10.80508,0.76271 -3.01045,-0.18168 -1.46197,86.45833 1.3983,85.93221 19.68975,-3.62175 34.02971,-2.30872 48.68644,3.4322 13.8038,5.40683 25.13672,23.24543 46.65254,14.61864 0.98418,6.04568 -13.96819,8.91478 -22.167,5.10914 2.24804,5.25399 -0.79049,26.4566 -7.07028,32.39086 12.59184,-45.75705 -37.4687,-60.04953 -57.20339,-46.27118 27.48715,7.43135 8.38626,39.96407 36.86441,49.70338 -27.61734,3.79986 -15.65283,-39.34877 -37.88137,-43.09322 -1.75794,-0.29613 -9.39109,6.69018 -8.38982,8.1356 16.95443,24.47527 10.20663,33.75816 6.73729,46.65254 -2.1411,7.95774 -1.53321,23.63262 44.49152,15.76272 -10.90584,11.35987 -35.40864,3.03669 -39.5339,6.22881 -3.67181,2.84125 11.44013,21.18381 2.92373,31.01695 -2.22973,-18.3815 -18.46418,-38.63367 -12.45763,-57.20339 3.99296,-12.34457 0.63427,-33.59204 -8.13559,-33.81356 -11.01462,-0.27822 -6.07142,21.24899 -22.37288,41.44068 1.57239,6.48837 2.14736,17.84498 -3.81356,34.06779 -2.18937,5.95842 27.28814,5.72033 27.83898,28.09322 -8.09597,-13.01299 -18.35781,-19.41534 -22.86906,-16.11454 -5.14592,3.76518 -3.80476,19.00724 -0.64789,31.36878 -8.58627,-7.80789 -6.33248,-18.23069 -6.64034,-26.08901 -0.29511,-7.53308 -1.6124,-8.96257 -2.63932,-13.95335 -1.49626,-7.27176 11.21519,-25.86017 3.30509,-35.84747 -9.35211,1.45285 -28.98261,17.31563 -21.99153,42.58475 -23.68644,-50.84747 49.86428,-38.74456 31.52542,-85.80509 -22.66949,32.79661 -64.82569,20.61511 -56.94915,57.58475 -7.89927,-4.43053 -3.7852,-14.45887 -6.22881,-21.61017 -2.78745,-8.15759 -15.85929,-2.40262 -14.87288,-13.09322 5.18588,3.43717 12.33544,5.12637 18.4322,5.59322 12.56103,0.96183 61.66953,-24.13966 48.4322,-36.61017 -8.53231,-8.03805 -17.95378,11.99768 -27.45762,12.20339 l -29.36441,0.63559 c 0.98698,-3.81018 10.38831,-6.31868 22.5,-6.10169 10.12874,0.18146 15.39154,-5.64399 15,-13.98305 -0.42434,-9.03747 -66.344202,-21.09194 -61.144068,25.9322 -2.678777,-7.15943 -3.406878,-18.28759 -1.398305,-24.66102 -11.256477,0.12819 -18.494647,-2.06038 -21.991525,-13.60169 z"
 id="path3638"
 style="fill:#faf700;fill-opacity:1;stroke:none" />
<path
 d="m 168.80676,99.061202 c -0.90532,2.239208 -16.0715,11.337438 -19.50536,11.325698 2.77924,2.65361 3.2395,9.72123 1.9775,13.48296 9.43628,6.96853 25.70757,14.51795 32.5389,11.50547 5.62363,-2.47991 3.89508,-15.82002 3.68535,-23.19071 -5.11856,-7.71519 -15.96112,-11.65145 -18.69639,-13.123418 z"
 id="path4285"
 style="fill:#008c31;fill-opacity:1;stroke:none" />
<path
 d="m 195.36821,86.971473 c -3.02618,1.190633 -5.19843,0.136834 -8.22461,-0.584262 -2.56111,2.667938 -7.91057,6.500654 -11.59535,7.460577 0.79241,3.046888 6.50016,11.436742 14.29194,10.876262 7.21303,-0.51884 5.31942,-13.04835 5.52802,-17.752577 z"
 id="path4287"
 style="fill:#008c31;fill-opacity:1;stroke:none" />
<path
 d="m 208.31186,85.847893 c 2.78102,2.853044 8.37228,4.085362 14.51666,2.966253 6.42524,4.253532 -4.91288,18.256944 -12.77655,17.198454 -3.95136,-0.53187 -4.3386,-5.31205 -4.44174,-10.18435 -0.0994,-4.695863 -0.0372,-9.490073 2.70163,-9.980357 z"
 id="path4289"
 style="fill:#008c31;fill-opacity:1;stroke:none" />
</svg>
