<?xml version="1.0" encoding="UTF-8" standalone="no"?>
<!-- Created with Inkscape (http://www.inkscape.org/) -->

<svg
 xmlns:dc="http://purl.org/dc/elements/1.1/"
 xmlns:cc="http://creativecommons.org/ns#"
 xmlns:rdf="http://www.w3.org/1999/02/22-rdf-syntax-ns#"
 xmlns:svg="http://www.w3.org/2000/svg"
 xmlns="http://www.w3.org/2000/svg"
 version="1.1"
 width="390"
 height="480"
 id="svg4228">
<metadata
 id="metadata8">
<rdf:RDF>
<cc:Work
 rdf:about="">
<dc:format>image/svg+xml</dc:format>
<dc:type
 rdf:resource="http://purl.org/dc/dcmitype/StillImage" />
<dc:title></dc:title>
</cc:Work>
</rdf:RDF>
</metadata>
<defs
 id="defs4232" />
<path
 d="M 0,0 C 130,0 260,0 390,0 389.98981,114.99797 370.78556,350.14732 194.88837,479.99815 20.79131,350.08886 0.081386,115.02225 0,0 z"
 id="path4240-0"
 style="fill:#d61a1a;fill-opacity:1;stroke:none" />
<path
 d="m 190.10805,425.05297 c 4.69101,-0.43088 9.04135,-2.22443 12.77543,-6.48305 l -1.38054,-111.06203 c -0.21423,-17.23443 8.73681,-61.4951 34.42651,-59.77449 24.73777,1.65685 29.14219,26.97133 15.99979,29.75242 -10.30142,2.1799 -6.10279,-22.18881 -23.16554,-12.39863 -4.97324,2.85352 -3.84506,23.03661 8.24439,16.80306 8.57885,-4.42061 16.26412,4.53992 26.42661,-6.74148 3.41799,2.81493 -0.29599,13.97263 -2.6067,15.73013 -12.21214,-1.35063 -20.3962,9.33444 -12.88029,16.15745 8.06343,7.32006 18.35157,1.81041 16.65552,-13.01143 -0.51188,-3.27817 1.51768,-11.58362 7.82012,-15.28069 7.06184,4.10387 5.46765,20.87029 1.61795,30.74116 -2.48749,6.37808 -31.17383,31.89071 -39.90958,1.3483 5.34999,-19.63698 -10.17792,-21.17789 -16.36287,-15.93233 -6.74431,5.71996 -7.4542,20.99398 8.00343,18.44915 7.33658,-1.20784 8.68681,11.42606 15.73013,16.53911 -1.63842,2.68924 -4.75093,3.40571 -7.55046,1.52807 -17.28843,-11.59531 -24.81992,1.96872 -21.50556,10.34792 3.41789,8.64095 16.98074,12.85722 24.29204,-3.96598 8.65759,-6.56872 20.19261,-5.79047 28.04457,-12.85377 1.95329,2.4666 -0.0867,8.80887 -4.76398,13.21331 -18.69954,7.96179 -16.83677,22.18007 -7.12636,24.4261 7.93546,1.83549 19.61192,-4.92395 12.33977,-20.02166 0.32337,-12.09305 12.9531,-21.31655 15.75062,-31.66823 1.10077,3.02059 2.68459,5.86141 4.56372,9.2865 -13.37161,23.14295 10.13005,23.61027 15.56509,19.04327 5.43504,-4.56699 8.81529,-20.95222 -11.96963,-20.93088 -1.86597,-0.46649 -6.41755,-11.26969 -7.29358,-17.50341 -0.87603,-6.23372 0.75696,-34.12996 0.10266,-28.78812 6.472,4.25022 12.50755,8.81219 16.629,14.74138 -6.23661,17.32766 3.55747,27.44787 14.30942,21.45259 10.75195,-5.99527 6.30802,-21.41959 -10.17465,-23.87952 -6.26379,-3.63798 -9.96465,-8.41504 -13.2133,-13.39309 5.64802,-2.08411 9.44004,-3.50159 14.60179,-3.47421 21.27372,11.09536 26.94124,-7.95006 21.53537,-15.74333 -5.33976,-7.69797 -23.16057,-7.74488 -23.79823,11.23814 -31.63801,9.41976 -35.05726,-12.63371 -63.75398,-19.1663 -9.31106,-2.11959 -17.20437,4.7934 -22.38173,3.68534 3.01513,-11.50169 8.22615,-26.47042 18.42672,-41.34777 9.56538,2.40075 18.55123,36.40416 47.54993,33.1681 -6.17499,-24.63962 -28.16419,-38.17279 -44.04436,-43.1455 0.50317,-8.33709 6.16659,-16.57286 11.12676,-20.20263 14.42715,10.39823 21.25706,45.29693 64.8273,46.80902 -15.21424,-39.71427 -38.30495,-46.32384 -56.36211,-48.48891 -1.88198,-0.22565 -5.91625,-3.41601 -4.72703,-5.06987 l 16.68523,-23.20425 c 9.47035,20.11022 34.62299,50.80458 69.93166,51.41505 -6.39159,-18.82038 -30.67832,-53.38991 -61.41988,-54.95463 l -5.18599,-4.64009 c 1.66945,-5.16924 9.37641,-18.40112 20.40423,-25.07832 7.30551,11.53884 28.03087,57.40908 65.07779,51.86449 -4.45537,-25.65588 -27.64997,-50.92546 -57.82543,-53.68089 -3.40206,-0.31065 -4.0444,-3.66246 -4.10633,-3.66667 -2.95622,-0.20118 15.47429,-22.358052 17.34808,-19.685134 11.62564,16.583694 18.38527,34.059334 53.39256,34.426514 -13.79065,-49.257449 -46.26405,-33.449588 -48.35892,-41.167999 -0.49782,-1.834199 2.80172,-5.629081 4.54439,-5.903334 28.94363,-4.554982 43.93092,-18.254511 42.73589,-51.623997 -33.04041,1.009615 -50.32141,23.990549 -48.35891,50.516188 0.23336,3.154154 -6.83626,2.353616 -7.82013,-2.067389 -5.97747,-28.089497 -26.00672,-52.423823 -51.59482,-50.606074 -0.27107,34.300261 20.8104,50.880444 48.08925,57.527331 -2.45839,4.840544 -9.76063,19.378212 -17.8874,21.392974 0,0 -30.47128,-59.224908 -80.62815,-57.437442 4.15335,32.863067 55.27693,72.863232 77.75178,61.122792 -1.31802,9.11626 -12.28554,20.85309 -21.66263,29.2131 -14.05256,-13.05235 0.0593,-41.897367 -56.35881,-42.156752 10.94717,30.582642 7.35333,31.413272 53.93187,46.830842 l -17.70763,26.24685 c -1.40032,-22.89966 -20.84903,-35.06578 -39.55004,-32.71867 15.87994,51.02554 32.22025,23.828 37.93208,40.08936 -6.42093,6.24818 -11.00471,14.56316 -15.55035,22.92104 -18.81044,-5.79376 -30.48083,0.62257 -39.37027,9.25831 23.78087,18.03759 31.19465,-7.99683 37.21299,1.43818 -10.05858,20.06553 -16.41554,45.73668 -27.77491,61.30256 -8.47628,-24.87618 -15.74244,-50.67773 -28.04458,-72.62825 4.69199,-6.62968 33.85723,-0.14981 45.39266,-23.55025 -42.92511,-6.08552 -40.88038,19.86826 -48.53868,17.34808 -4.02825,-1.32561 -11.39823,-12.09076 -9.9774,-19.50536 1.2592,-5.5681 26.93598,2.2172 37.30288,-34.15685 -39.22046,0.44943 -31.84627,30.79279 -43.23539,28.31423 -3.45943,-7.78327 -8.98451,-14.53371 -14.29194,-21.39298 4.42817,-6.94648 54.70263,-9.75 55.81949,-45.03311 -50.06549,-0.599654 -52.36494,38.78864 -57.97677,37.57254 -6.25962,-1.35648 -21.91629,-21.1597 -22.20195,-25.61764 -0.55645,-8.683888 62.50104,-4.1947 75.41473,-61.572223 -71.72939,4.674095 -71.7491,62.584523 -83.05508,53.931873 C 97.206553,95.446011 93.693894,87.985959 87.706683,82.88164 91.10124,67.228113 128.03435,86.122031 135.88582,25.893627 104.40083,30.761509 94.669295,45.626195 82.9427,75.151405 82.056298,77.383188 74.788681,73.53457 74.493374,69.578444 72.443454,42.116327 58.162616,26.861256 28.022076,22.747601 c 3.673816,24.586639 1.758596,47.196894 42.60618,51.954371 2.872283,1.644687 5.970648,7.217002 2.966253,7.730236 -12.867134,2.198063 -38.232417,9.385203 -45.931979,39.460152 17.120526,1.18857 41.628697,-2.10699 52.134144,-32.898441 8.236915,2.268677 14.622255,10.799835 17.348086,19.595251 -22.390229,10.15922 -55.232939,25.32562 -58.246423,57.16778 48.274508,-3.41852 52.009718,-31.98479 63.729493,-51.59482 8.43496,5.6549 18.17954,18.60012 19.41548,25.43786 0.75597,4.18237 -51.21495,10.70117 -62.740747,59.41495 44.458057,-1.95733 67.594617,-51.68471 67.594617,-51.68471 11.31052,7.31018 18.80341,24.26159 13.84251,29.03332 -26.36416,1.34871 -50.416276,26.84374 -57.976763,46.11176 15.367123,-1.56726 55.052333,-6.86185 63.369953,-43.14551 0.67924,-2.96303 13.11387,14.17103 11.68524,16.98855 -22.45518,7.0974 -36.50894,22.08704 -43.1455,44.04436 41.623,-0.77192 38.93693,-35.25639 46.83084,-38.20174 6.28506,12.07754 12.26026,24.27903 16.17956,37.30288 0.99857,3.31824 2.05607,9.96295 -5.48307,4.94375 -27.61818,-18.38687 -44.17605,22.16334 -65.34745,23.64014 -6.62425,0.41115 -11.202758,-2.04175 -15.460473,-4.94376 -4.982505,-3.39601 -1.874741,-8.28803 -8.989573,-14.39246 -10.459827,-8.97439 -31.84527,13.28883 -10.990257,21.82958 4.039508,1.6543 13.568804,-3.26124 17.732669,-2.85291 4.287773,0.42048 8.502639,1.11177 11.145924,7.64035 l -9.078536,7.73024 c -19.981347,-0.61474 -21.830227,16.42353 -14.275777,21.72781 9.354331,6.56804 25.288183,8.71138 17.601576,-18.40202 L 108.29068,274.2499 c 4.25596,-3.75526 7.04821,1.19485 4.7023,6.56171 -8.53817,19.5332 -1.69197,30.00041 -9.91571,34.15686 -44.89245,22.68958 17.72191,52.66919 3.41568,4.22466 0.73168,-2.60475 1.81663,-4.94456 3.50557,-6.83137 5.98113,7.78231 11.52009,15.9173 15.2807,29.30299 -4.66181,17.20938 7.16243,20.99362 15.17286,18.28725 8.01044,-2.70637 13.23334,-20.54099 -9.06058,-21.25351 0,0 -5.71283,-5.56701 -7.73024,-11.77512 -1.99659,-6.14406 6.6516,-0.62921 6.6516,-0.62921 3.36318,2.35647 25.61558,10.83813 26.33673,11.23581 5.05805,2.78926 14.49988,15.88161 23.22592,7.41925 8.72604,-8.46236 -3.64417,-24.67512 -22.41694,-12.18323 -4.66855,0.16189 -12.24138,-1.94087 -14.74137,-6.29205 5.9054,-1.64221 12.88085,-5.27908 17.79751,-9.43808 20.36203,-0.91602 18.21134,-8.79889 18.33272,-15.05722 0.2331,-12.01869 -24.68653,-17.06824 -20.22033,11.55164 -25.1952,21.95931 -49.8171,-1.81644 -47.01062,-15.01103 1.33979,-6.29899 2.9575,-12.25553 5.39319,-17.61775 1.91687,-4.22003 8.31684,-8.08469 6.29205,0.89887 -1.30415,5.78625 4.52004,9.67869 7.82012,14.29194 -2.16745,16.03856 8.98828,16.75681 13.51444,11.45969 2.42485,-2.83788 8.75807,-15.55091 -11.53694,-14.33605 -2.97353,-3.31758 -6.83945,-6.58572 -5.75273,-10.78638 1.49765,-5.78912 14.95031,-0.74616 23.73002,0.71909 18.15304,3.02957 20.94344,-9.48851 18.03652,-14.36053 -2.86747,-4.80589 -19.64275,-6.8071 -20.823,10.31564 -7.9383,-1.21347 -16.47121,0.0266 -15.01103,-9.43808 1.98433,-12.8621 10.81443,-19.29598 23.28059,-20.13457 18.5244,-1.22797 33.16506,24.74718 34.5164,48.44881 l -0.96806,127.07304 z"
 id="path2827"
 style="fill:#faf700;fill-opacity:1;stroke:none" />
</svg>
