<?xml version="1.0" encoding="UTF-8" standalone="no"?>
<!-- Created with Inkscape (http://www.inkscape.org/) -->

<svg
   xmlns:svg="http://www.w3.org/2000/svg"
   xmlns="http://www.w3.org/2000/svg"
   version="1.1"
   width="390"
   height="480"
   id="svg4228">
  <defs
     id="defs4232" />
  <path
     d="m 0.51202379,0.50512952 c 129.66265621,0 259.32532621,0 388.98797621,0 C 389.48983,115.23328 370.33544,349.8309 194.89467,479.37706 21.249382,349.77255 0.5931986,115.2575 0.51202379,0.50512952 z"
     id="path4240-0-1"
     style="fill:#d9d9d9;fill-opacity:1;stroke:#999999;stroke-width:0.99999905;stroke-opacity:1" />
  <path
     d="m 25.128601,170.45595 54.139821,0.0836 -0.08457,41.86525 -48.652113,-0.16594 7.322728,32.37638 41.415477,0.20016 c -2.117835,50.89843 68.377706,92.71515 115.479536,40.5109 48.35812,50.97714 116.76356,13.82029 115.72769,-40.50622 l 41.20871,-0.71585 6.55374,-31.80659 -47.76245,0.007 -0.004,-41.75441 53.43794,-0.004 2.65191,-31.82576 -56.08985,0.004 C 313.38358,86.154306 242.63518,45.893349 194.78161,97.522545 150.04366,47.340722 75.62686,83.403204 79.24048,138.72676 l -56.208141,0.002 2.106161,31.69173 0,-2.3e-4 z"
     id="path2841"
     style="fill:#d61a1a;fill-opacity:1;stroke:none" />
  <path
     d="m 119.47438,138.26629 c 19.8256,0.49159 33.72312,-5.13633 48.95648,-16.61188 -19.82475,-24.689045 -51.12049,-11.7644 -48.95648,16.61188 z"
     id="path3615"
     style="fill:#d9d9d9;fill-opacity:1;stroke:none" />
  <path
     d="m 270.71567,138.3026 c -19.82575,0.49161 -33.72332,-5.13665 -48.95645,-16.61179 19.82462,-24.689125 51.12044,-11.76441 48.95645,16.61179 z"
     id="path3615-7"
     style="fill:#d9d9d9;fill-opacity:1;stroke:none" />
  <path
     d="m 269.82447,244.82074 c -19.82585,-0.49205 -33.72335,5.13626 -48.95664,16.61131 19.82479,24.68916 51.12056,11.76451 48.95664,-16.61131 z"
     id="path3615-7-4"
     style="fill:#d9d9d9;fill-opacity:1;stroke:none" />
  <path
     d="m 119.41793,244.80419 c 19.82558,-0.49159 33.72323,5.13629 48.95649,16.61185 -19.82476,24.68912 -51.12051,11.76442 -48.95649,-16.61185 z"
     id="path3615-7-4-0"
     style="fill:#d9d9d9;fill-opacity:1;stroke:none" />
  <path
     d="m 194.80821,146.92103 c 15.12476,14.00234 48.00368,24.68494 74.96722,23.6213 l 0.004,41.77265 c -30.744,-0.18542 -55.84585,8.78756 -75.02314,24.18985 -17.8275,-15.63371 -45.16096,-23.88113 -75.37787,-24.24509 l 0.004,-41.69903 c 30.11336,1.24774 60.29468,-10.95059 75.39663,-23.63968 l 1.3e-4,0 z"
     id="path3705"
     style="fill:#d9d9d9;fill-opacity:1;stroke:none" />
</svg>
