<?xml version="1.0" encoding="UTF-8" standalone="no"?>
<!-- Created with Inkscape (http://www.inkscape.org/) -->

<svg
   xmlns:svg="http://www.w3.org/2000/svg"
   xmlns="http://www.w3.org/2000/svg"
   version="1.1"
   width="390"
   height="480"
   id="svg4228">
  <defs
     id="defs4232" />
  <path
     d="m 0.51202379,0.50512952 c 129.66265621,0 259.32532621,0 388.98797621,0 C 389.48983,115.23328 370.33544,349.8309 194.89467,479.37706 21.249382,349.77255 0.5931986,115.2575 0.51202379,0.50512952 z"
     id="path4240-0-1"
     style="fill:#d9d9d9;fill-opacity:1;stroke:#999999;stroke-width:0.99999905;stroke-opacity:1" />
  <path
     d="m 179.74577,196.14406 a 7.3728814,7.2457628 0 1 1 -14.74576,0 7.3728814,7.2457628 0 1 1 14.74576,0 z"
     id="path2827"
     style="fill:#000000;fill-opacity:1;fill-rule:evenodd;stroke:none" />
  <path
     d="m 219.74577,196.14406 a 7.3728814,7.2457628 0 1 1 -14.74576,0 7.3728814,7.2457628 0 1 1 14.74576,0 z"
     id="path2827-1"
     style="fill:#000000;fill-opacity:1;fill-rule:evenodd;stroke:none" />
  <path
     d="m 193.01501,184.97351 c -2.37708,-0.1283 -4.04559,2.69342 -4.80815,4.19765 l -2.32167,-97.121104 c -3.30367,6.812934 -0.78316,54.177174 -2.42693,57.527334 -7.49783,-12.11605 -12.75022,-25.35481 -18.42673,-38.38152 4.37448,24.35923 17.40108,35.34212 19.59525,59.59472 1.4204,15.69998 4.12696,38.10484 -12.49422,38.11186 -16.87572,0.007 -13.31044,-45.10824 -33.39282,-62.74075 -2.03722,-1.7887 -13.71278,6.67294 -13.7311,6.42952 -1.2796,-16.99944 12.95308,-97.277973 -12.02137,-128.135778 -1.20857,-1.493278 -7.09853,-2.650112 -7.46057,0.719091 -0.2331,30.241299 0.43061,80.871007 -15.190812,120.088307 -0.735599,-12.78513 -6.010671,-18.318 -6.292052,-25.07832 -0.143105,-3.43817 3.370867,-6.07294 3.775231,-8.53921 0.473244,-2.88638 -3.886858,-4.46533 -3.865118,-7.46058 0.07129,-9.821283 4.662196,-11.189445 4.943755,-16.628996 0.161976,-3.129279 -3.063458,-4.068526 -3.325798,-6.112279 -0.614043,-4.783693 4.02986,-6.481699 4.314549,-10.336943 0.468125,-6.339322 -3.439805,-12.247568 -3.415685,-18.24695 0.02255,-5.610193 3.869645,-5.877344 3.955004,-10.067283 0.03525,-1.730396 -2.37033,-3.099853 -2.337048,-5.123528 0.0988,-6.007499 3.526776,-8.331079 4.763982,-11.865012 0.933312,-2.665896 -3.725004,-5.817438 -8.629099,-4.044891 -15.301894,5.530751 -52.584593,38.721135 -57.257672,102.111012 1.740464,42.71543 22.237691,54.38148 35.729866,83.90901 -2.891924,-1.07789 -6.455462,-2.19181 -9.483021,-1.75279 -6.209791,7.13365 -2.276018,28.39932 1.528069,36.76356 -3.50748,5.05354 -8.888242,11.51444 -13.672732,16.04175 1.240442,3.71837 3.410834,9.63216 4.69202,13.02577 3.902323,-3.60252 8.142592,-7.9899 10.871217,-11.89953 7.629191,9.8662 14.503812,14.45041 21.483051,19.76695 -4.643512,0.0507 -9.082062,6.84175 -6.010112,12.16587 12.455507,21.5871 32.419125,52.12439 57.284535,60.06169 -1.61097,8.50807 -4.05699,41.38274 -4.81291,59.50146 18.75208,23.49806 46.66051,50.13704 70.32004,67.32414 z"
     id="path2851"
     style="fill:#000000;stroke:none" />
  <path
     d="m 192.61033,184.98214 c 3.83529,-0.49099 5.16741,2.43328 6.17652,3.83101 l 4.44496,-96.793706 c 3.42697,6.751756 0.17684,54.153986 1.88124,57.473716 7.27635,-12.25034 12.28723,-25.58239 17.72601,-38.71013 -3.93097,24.43472 -17.63966,38.30424 -19.39262,62.59271 -1.13478,15.72321 -7.14595,32.69349 9.47261,32.39838 16.87306,-0.29975 15.05683,-38.85321 34.36817,-57.32697 4.12569,-3.94675 19.68694,4.78354 19.79721,4.3408 4.42251,-17.75706 -9.75474,-93.685788 14.65467,-124.992465 1.18122,-1.515 6.73982,-2.867095 7.16304,0.494971 0.78277,30.232065 1.03949,80.865474 17.3712,119.792344 0.50308,-12.79639 5.6767,-18.42423 5.83515,-25.18855 0.0806,-3.44021 -3.4807,-6.01067 -3.92983,-8.46918 -0.52563,-2.8773 3.80505,-4.53524 3.72887,-7.5296 -0.24981,-9.818372 -4.86482,-11.102857 -5.24522,-16.536392 -0.21882,-3.125817 2.989,-4.123539 3.21415,-6.171723 0.52698,-4.794064 -4.14701,-6.407376 -4.50174,-10.256808 -0.58327,-6.329765 3.21662,-12.308071 3.08345,-18.306024 -0.12448,-5.608857 -3.97585,-5.806032 -4.13736,-9.993727 -0.0667,-1.729469 2.3136,-3.142428 2.24354,-5.165163 -0.20799,-6.004711 -3.67763,-8.265595 -4.97887,-11.776455 -0.98162,-2.648491 3.50657,-5.510298 8.55415,-4.201077 17.52121,4.544582 57.16883,36.344673 53.09391,97.164259 -0.96372,42.74001 -24.42748,72.45439 -38.44136,84.54462 2.87186,-1.13028 6.41456,-2.30879 9.4496,-1.92487 6.33844,7.01959 8.09516,34.0101 4.44375,42.44211 3.5006,4.85288 6.75928,9.79901 10.38972,13.54331 -1.05296,3.26827 -3.34569,9.3907 -4.61201,12.76788 -4.37269,-4.6456 -9.36943,-11.01869 -12.31731,-15.08301 -6.74148,10.71035 -16.71361,16.83298 -23.24151,19.44708 4.64367,-0.0337 9.25181,6.63647 6.27714,12.01555 -12.06106,21.80994 -28.69626,54.61917 -60.13079,65.83557 1.78869,8.58944 4.9609,43.5902 6.02724,61.92278 -19.75721,24.02711 -45.6892,46.45347 -66.18439,61.61257 -6.2602,-96.55383 -39.22179,-201.21146 -2.28329,-293.79381 z"
     id="path2851-7"
     style="fill:#000000;stroke:none" />
  <path
     d="m 104,205.5 c 0.88937,-5.34585 17.64655,-8.11442 19.25346,-14.82343 2.18296,-9.11408 2.98927,-23.2381 3.06956,-23.39117 1.36849,-2.60884 6.04133,-4.53976 10.55198,-4.4104 12.5,20.625 24.1501,74.68751 4.625,109.25 -7.50697,-9.28503 -17.07224,-19.38056 -21.875,-19.75 L 114.75,252 c 7.50959,-20.54861 4.95695,-43.64419 -1.125,-44.75 L 104,205.5 z"
     id="path3678"
     style="fill:#e5e5e5;fill-opacity:1;stroke:none" />
  <path
     d="m 286.3941,205.43934 c -2.54558,-4.73111 -19.20893,-8.57393 -20.95811,-15.66288 -2.1825,-8.84505 0.30959,-25.08591 0.28127,-25.15962 -1.7346,-4.51454 -12.90444,-7.37167 -15.10882,-4.21635 -13.60672,21.79299 -26.28829,78.91706 -5.03449,115.43682 8.17162,-9.81084 18.58378,-20.47808 23.81176,-20.86844 l 5.30662,-0.39624 c -8.17448,-21.71228 -5.39583,-46.11576 1.2246,-47.28419 l 10.47717,-1.8491 z"
     id="path3678-8"
     style="fill:#e5e5e5;fill-opacity:1;stroke:none" />
</svg>
