<?xml version="1.0" encoding="UTF-8" standalone="no"?>
<!-- Created with Inkscape (http://www.inkscape.org/) -->

<svg
   xmlns:svg="http://www.w3.org/2000/svg"
   xmlns="http://www.w3.org/2000/svg"
   version="1.1"
   width="390"
   height="480"
   id="svg4228">
  <defs
     id="defs4232" />
  <path
     d="M 0,0 C 130,0 260,0 390,0 389.98981,114.99797 370.78556,350.14732 194.88837,479.99815 20.79131,350.08886 0.081386,115.02225 0,0 z"
     id="path4240-0"
     style="color:#000000;fill:#207dbf;fill-opacity:1;fill-rule:nonzero;stroke:none;marker:none;visibility:visible;display:inline;overflow:visible;enable-background:accumulate" />
  <path
     d="m 171.27896,335.4661 7.88135,4e-5 c 0.83025,-11.51921 3.96443,-21.14289 18.55932,-21.73729 16.36061,-0.66631 22.80783,11.2339 23.51695,28.15678 1.86867,0.51103 4.27445,0.72782 7.5835,0.0636 -1.41614,-33.80075 20.77577,-11.47672 32.23983,-23.5509 -19.79451,-17.36091 -17.47501,-29.70076 -22.71549,-33.59815 -25.43266,-18.9145 -43.89426,-40.98484 -55.18654,-85.87505 16.27299,51.20007 40.01236,71.48915 57.43106,85.29454 3.51844,2.78858 4.63767,16.66217 17.5391,29.2081 7.72218,7.50939 18.04755,17.95881 38.87104,18.43943 0.91093,-13.03837 -8.68862,-17.84562 -12.89871,-22.83116 3.92037,3.03841 9.04837,8.68761 17.6627,7.2808 0.79716,-12.50716 -13.21678,-19.62326 -31.68498,-35.32537 -5.65755,-46.05861 -22.69858,-85.12637 -42.23134,-119.42359 -6.25926,-10.99053 -26.59452,-18.97196 -28.47458,-41.18644 -1.44929,-17.12458 20.05532,-23.988823 20.29911,-49.781606 0.0844,-8.925653 -1.71069,-27.40323 -9.40678,-34.18214 -12.36049,-10.887425 -30.86877,-18.265028 -46.91955,-16.981244 -7.56284,0.611748 -29.1884,-3.435812 -26.12102,38.911082 1.76895,24.421345 10.73908,19.481764 12.57197,24.915254 3.0069,8.913767 -7.59236,13.846703 -16.84509,25.274804 -14.95118,18.46629 -47.231179,52.30866 -49.238533,86.08113 -1.438976,24.20987 33.558833,63.72136 33.558833,63.72136 12.50976,23.81688 22.86079,42.37326 45.8421,47.46005 5.66045,1.25292 6.80602,18.70896 8.10219,29.03046 l 0.0636,0.63551 -4e-5,0 z"
     id="path4289"
     style="fill:#f2f2f2;stroke:none" />
  <path
     d="m 228.29905,341.56611 c 0.2534,8.58951 1.45954,16.52847 2.3898,23.45111 0.99968,7.43928 -19.48282,11.52134 -40.88749,26.52181 -2.2435,-4.12999 13.18929,-14.45619 -8.88569,-5.33068 -1.04194,-5.26852 11.73228,-9.91779 -8.48482,-5.13326 6.15754,-13.12877 50.96567,-6.50694 49.30682,-39.50622 1.86711,0.45209 4.33497,0.56599 6.56138,-0.003 z"
     id="path4567"
     style="fill:#d61a1a;fill-opacity:1;stroke:#f2f2f2;stroke-width:1.04325211;stroke-opacity:1" />
  <path
     d="m 188.04247,49.353987 c -17.03349,4.719039 -11.66765,-9.215472 -23.14577,-9.213361 -8.47814,0.0016 -5.06147,11.802603 3.37075,11.820068 11.43087,0.02355 17.40417,-0.982804 19.77502,-2.606707 z"
     id="path3738"
     style="fill:#207dbf;fill-opacity:1;stroke:none" />
  <path
     d="m 97.870452,61.077 c 11.921978,1.1056 24.130248,2.937701 39.389428,0.222896 -0.9454,-9.557887 -0.67471,-19.507271 1.92131,-27.606116 -18.35288,1.695428 -31.37794,12.859673 -41.310738,27.38322 z"
     id="path4285"
     style="fill:#d61a1a;fill-opacity:1;stroke:#f2f2f2;stroke-width:0.98953897;stroke-opacity:1" />
  <path
     d="m 102.06685,63.309399 c 12.91736,1.281386 22.62905,1.710739 35.31506,-0.378454 0.61014,5.24991 2.06322,9.143861 3.44674,11.723568 -17.89244,1.463026 -30.25798,-4.317764 -38.7618,-11.345114 z"
     id="path4287"
     style="fill:#d61a1a;fill-opacity:1;stroke:#f2f2f2;stroke-width:0.98152447;stroke-opacity:1" />
  <path
     d="m 154.00424,27.902536 c 29.1438,-2.799134 34.85642,18.342251 54.97881,22.182204 -27.6294,-13.624397 -26.42653,-29.144383 -54.97881,-22.182204 z"
     id="path4515"
     style="fill:#207dbf;fill-opacity:1;stroke:none" />
  <path
     d="m 156.32415,89.552482 c 29.1438,2.799134 33.26744,-18.723608 51.61017,-28.919493 -16.06161,12.607448 -23.05789,35.881672 -51.61017,28.919493 z"
     id="path4515-5"
     style="fill:#207dbf;fill-opacity:1;stroke:none" />
  <path
     d="m 120.12712,367.3666 c 1.76352,-14.91065 54.99657,11.9425 51.59597,-32.18039 2.37813,0.5921 4.73692,0.35479 7.04375,-0.38336 -0.72802,12.16639 7.22659,26.03966 1.67808,27.49827 -8.83456,2.32248 -31.09232,10.98805 -46.58899,17.27539 -0.17235,-4.27657 13.71656,-12.7449 -8.13559,-6.23472 -0.19387,-5.19174 14.93791,-11.0259 -5.59322,-5.97495 l 0,-5e-5 z"
     id="path4539"
     style="fill:#d61a1a;fill-opacity:1;stroke:#f2f2f2;stroke-opacity:1" />
</svg>
