<?xml version="1.0" encoding="UTF-8" standalone="no"?>
<!-- Created with Inkscape (http://www.inkscape.org/) -->

<svg
 xmlns:dc="http://purl.org/dc/elements/1.1/"
 xmlns:cc="http://creativecommons.org/ns#"
 xmlns:rdf="http://www.w3.org/1999/02/22-rdf-syntax-ns#"
 xmlns:svg="http://www.w3.org/2000/svg"
 xmlns="http://www.w3.org/2000/svg"
 version="1.1"
 width="390"
 height="480"
 id="svg4228">
<metadata
 id="metadata8">
<rdf:RDF>
<cc:Work
 rdf:about="">
<dc:format>image/svg+xml</dc:format>
<dc:type
 rdf:resource="http://purl.org/dc/dcmitype/StillImage" />
<dc:title></dc:title>
</cc:Work>
</rdf:RDF>
</metadata>
<defs
 id="defs4232" />
<path
 d="M 0,0 C 130,0 260,0 390,0 389.98981,114.99797 370.78556,350.14732 194.88837,479.99815 20.79131,350.08886 0.081386,115.02225 0,0 z"
 id="path4240-0"
 style="fill:#000000;fill-opacity:1;stroke:none" />
<path
 d="m 310.16949,270.38136 c 10.12095,-8.05434 -68.00388,-36.60033 -54.9925,-114.21872 14.35056,-85.607117 82.62655,-112.519226 79.90776,-123.366031 l -88.85594,-0.254237 -5.21186,-20.211865 -6.14936,-0.01589 -3.38454,20.227754 -144.788135,0.06356 C 62.062322,64.026329 26.491868,148.49024 70.805085,198.55932 c 29.05158,-57.39689 119.284545,2.38382 160.932205,23.64407 -0.25424,18.4151 -0.50847,34.54101 -0.76271,49.57627 -37.08807,-0.16423 -97.21221,-2.07222 -122.3562,-15.09726 -13.881519,-7.19088 -18.556406,-30.14124 2.73755,-37.52986 3.07922,-1.06843 1.79056,-9.74615 -4.70339,-8.26271 -2.62644,0.59997 -5.25424,1.54337 -7.881353,2.98729 -2.004982,-4.47895 -2.280717,-11.30051 -1.716102,-16.90678 0.684883,-6.80045 -12.005983,-4.78121 -12.330509,-0.82627 -3.08959,37.65235 -5.473675,79.60743 1.207628,118.98305 0.939776,5.53848 6.40974,15.93535 13.728813,20.4661 25.048483,15.50586 121.887593,17.23457 181.016953,16.77966 4.24457,-20.00413 5.88017,-64.23324 0.38135,-80.84746 l -34.19491,0 -0.38136,-41.44067 63.68644,40.29661 z"
 id="path2827"
 style="fill:#f2f2f2;stroke:none" />
</svg>
