<?xml version="1.0" encoding="UTF-8" standalone="no"?>
<!-- Created with Inkscape (http://www.inkscape.org/) -->

<svg
   xmlns:svg="http://www.w3.org/2000/svg"
   xmlns="http://www.w3.org/2000/svg"
   version="1.1"
   width="390"
   height="480"
   id="svg4228">
  <defs
     id="defs4232" />
  <path
     d="M 0,0 C 130,0 260,0 390,0 389.98981,114.99797 370.78556,350.14732 194.88837,479.99815 20.79131,350.08886 0.081386,115.02225 0,0 z"
     id="path4240-0"
     style="color:#000000;fill:#207dbf;fill-opacity:1;fill-rule:nonzero;stroke:none;marker:none;visibility:visible;display:inline;overflow:visible;enable-background:accumulate" />
  <path
     d="m 145.80157,274.91545 -76.942823,0.0225 0.0449,-202.08722 49.976893,0.0899 0.1005,38.1525 48.94068,-0.25423 0,-78.81355 54.02542,-0.0636 0,79.13134 49.0678,-0.0636 -0.12712,-38.00846 49.7034,-0.0636 0.25423,201.99152 -76.93856,0 0.0318,-106.08051 c -19.90695,-32.25453 -78.00093,-32.09438 -97.94492,0.12712 l -0.19221,105.91981 -3e-5,1e-5 z"
     id="path2827"
     style="fill:#faf700;fill-opacity:1;stroke:none" />
</svg>
