<?xml version="1.0" encoding="UTF-8" standalone="no"?>
<!-- Created with Inkscape (http://www.inkscape.org/) -->

<svg
   xmlns:svg="http://www.w3.org/2000/svg"
   xmlns="http://www.w3.org/2000/svg"
   version="1.1"
   width="390"
   height="480"
   id="svg4228">
  <defs
     id="defs4232" />
  <path
     d="m 0.51202379,0.50512952 c 129.66265621,0 259.32532621,0 388.98797621,0 C 389.48983,115.23328 370.33544,349.8309 194.89467,479.37706 21.249382,349.77255 0.5931986,115.2575 0.51202379,0.50512952 z"
     id="path4240-0-1"
     style="fill:#207dbf;fill-opacity:1;stroke:#999999;stroke-width:0.99999905;stroke-opacity:1" />
  <path
     d="M 10.599367,133.40712 C 133.6883,349.23302 239.86034,246.31459 240.2238,195.9588 c 0.3005,-41.63338 -49.54702,-47.60331 -60.43969,-19.73282 -4.20623,10.76224 -0.60329,24.63312 20.38928,21.90208 -21.16585,24.13621 -54.70918,6.49469 -57.32928,-23.88769 -3.74236,-43.39604 31.88854,-82.107979 84.50212,-84.176811 C 304.98245,87.010806 341.66579,181.31364 354.54861,243.82608 320.70652,350.47018 263.8666,428.93899 194.88658,478.77778 103.66488,410.97753 34.906311,296.56142 10.599367,133.40712 z"
     id="path3621"
     style="fill:#ededed;fill-opacity:1;stroke:none" />
</svg>
