<?xml version="1.0" encoding="UTF-8" standalone="no"?>
<!-- Created with Inkscape (http://www.inkscape.org/) -->

<svg
   xmlns:svg="http://www.w3.org/2000/svg"
   xmlns="http://www.w3.org/2000/svg"
   version="1.1"
   width="390"
   height="480"
   id="svg4228">
  <defs
     id="defs4232" />
  <path
     d="M 0,0 C 130,0 260,0 390,0 389.98981,114.99797 370.78556,350.14732 194.88837,479.99815 20.79131,350.08886 0.081386,115.02225 0,0 z"
     id="path4240-0"
     style="color:#000000;fill:#207dbf;fill-opacity:1;fill-rule:nonzero;stroke:none;marker:none;visibility:visible;display:inline;overflow:visible;enable-background:accumulate" />
  <path
     d="M 343.27637,215.91359 C 384.37941,81.974327 271.14963,15.229065 196.31202,16.006117 -25.112493,18.305208 -7.7904522,316.1457 187.32337,315.58489 344.97343,315.13176 370.63638,69.150199 190.92942,70.345165 76.892368,71.103457 63.900623,248.59395 187.05371,252.56254 c 80.08198,2.58063 92.29892,-124.19448 10.60926,-123.05931 -36.21433,0.50013 -44.53069,35.02578 -32.60586,51.40301 9.05058,12.42982 29.74856,15.13037 34.3137,-3.29596 -17.16986,7.13938 -24.45451,-16.91656 -6.50471,-22.40967 15.2598,-4.6699 32.29495,10.51926 31.67825,31.93257 -1.28456,44.60297 -92.55147,53.16976 -93.93585,-19.16256 C 128.66197,65.761069 289.71141,80.645137 285.98438,186.69785 281.16778,323.75439 64.220675,309.64823 64.956799,168.68972 65.940267,-19.632008 366.54805,-10.836026 343.27637,215.91359 z"
     id="path5843"
     style="fill:#ececec;stroke:none" />
</svg>
