<?xml version="1.0" encoding="UTF-8" standalone="no"?>
<!-- Created with Inkscape (http://www.inkscape.org/) -->

<svg
   xmlns:dc="http://purl.org/dc/elements/1.1/"
   xmlns:cc="http://creativecommons.org/ns#"
   xmlns:rdf="http://www.w3.org/1999/02/22-rdf-syntax-ns#"
   xmlns:svg="http://www.w3.org/2000/svg"
   xmlns="http://www.w3.org/2000/svg"
   version="1.1"
   width="470"
   height="510"
   id="svg4228">
  <metadata
     id="metadata51">
    <rdf:RDF>
      <cc:Work
         rdf:about="">
        <dc:format>image/svg+xml</dc:format>
        <dc:type
           rdf:resource="http://purl.org/dc/dcmitype/StillImage" />
        <dc:title></dc:title>
      </cc:Work>
    </rdf:RDF>
  </metadata>
  <defs
     id="defs4232" />
  <path
     d="M 49.530231,7.692 420.16855,7.6634 c 13.2589,16.75772 33.75181,34.00024 47.85879,50.88411 -19.98824,21.30361 -41.54682,40.2028 -41.54726,54.18792 -0.006,190.43143 0.0335,195.29272 0.0335,195.30333 0.97854,268.29075 -381.556829,268.29702 -381.560074,-4e-4 -4.98e-4,-64.5222 -9.76e-4,-129.0444 -10e-4,-193.5666 C 44.952493,99.40322 20.367009,76.44203 1.188831,58.69451 15.053552,44.73535 39.638366,19.42982 49.530241,7.692 z"
     id="path2902"
     style="fill:#296fff;fill-opacity:1;stroke:#000000;stroke-width:1.46647263;stroke-miterlimit:4;stroke-opacity:1;stroke-dasharray:none" />
  <path
     d="m 84.935299,129.33189 c 21.310011,-0.65387 28.603191,-15.51903 51.210561,-15.63973 23.4632,-0.12243 23.69586,15.18069 48.81185,15.59106 24.85176,0.40593 25.62024,-15.54849 49.73215,-15.56621 21.95757,-0.008 22.71043,15.80642 48.10489,15.61009 24.80304,-0.19143 28.70087,-15.37366 49.71056,-15.69795 20.84508,-0.32178 23.0486,16.14466 48.00028,15.64063 27.29905,-0.5516 26.94415,-12.43608 45.24089,-15.56151 l 0.003,91.9383 c -17.50081,0.47982 -23.06023,15.644 -44.80624,15.65851 -21.37984,0.007 -25.48366,-16.04475 -48.38059,-15.70202 -23.25407,0.34814 -30.19919,15.94839 -50.38642,15.67086 -20.36801,-0.28003 -26.16414,-15.66247 -47.86755,-15.6397 -24.85027,0.0248 -30.54862,15.77628 -49.23575,15.68634 -21.35467,-0.0985 -20.802,-15.29846 -49.29807,-15.68634 -26.47672,-0.3627 -32.04353,15.68967 -51.225754,15.68634 C 64.8214,221.31956 58.546089,202.8489 45.684248,205.72478 l -2.87e-4,-91.73555 c 17.169028,2.88792 19.240629,15.95667 39.251414,15.34266 z"
     id="path2828"
     style="fill:#ffffff;stroke:none" />
  <path
     d="m 84.803629,321.64308 c 21.310011,-0.65385 28.603181,-15.51921 51.210561,-15.63985 23.46321,-0.12238 23.69587,15.18074 48.81185,15.59103 24.85291,0.40605 25.62024,-15.54852 49.73215,-15.56613 21.95757,-0.008 22.71043,15.80628 48.10489,15.61019 24.80304,-0.19166 28.00925,-15.3814 49.01895,-15.70577 20.84507,-0.32178 23.04859,16.14468 48.00028,15.64064 27.29904,-0.55154 27.80229,-12.44514 46.10018,-15.57053 0.78863,38.97656 -8.36268,75.40541 -20.69404,100.16305 -1.748,3.51058 -5.12757,7.60885 -24.27932,7.45043 -21.37918,-0.17612 -25.4835,-16.04479 -48.38007,-15.70185 -23.25498,0.34812 -30.20018,15.9484 -50.38708,15.67087 -20.36792,-0.28005 -26.16366,-15.66269 -47.86719,-15.63989 -24.85039,0.0248 -30.54891,15.77644 -49.23565,15.68646 -21.35505,-0.0985 -20.80236,-15.29855 -49.29846,-15.68646 -26.47634,-0.36255 -32.0432,15.66171 -51.225594,15.68646 -13.090265,0.009 -15.509047,-3.19072 -16.015107,-4.1707 -15.663114,-30.3253 -22.813345,-65.5694 -22.710208,-103.09451 17.168452,2.88782 19.103149,15.89061 39.113858,15.27656 z"
     id="path2828-7"
     style="fill:#ffffff;stroke:none" />
</svg>
