<?xml version="1.0" encoding="UTF-8" standalone="no"?>
<!-- Created with Inkscape (http://www.inkscape.org/) -->

<svg
 xmlns:dc="http://purl.org/dc/elements/1.1/"
 xmlns:cc="http://creativecommons.org/ns#"
 xmlns:rdf="http://www.w3.org/1999/02/22-rdf-syntax-ns#"
 xmlns:svg="http://www.w3.org/2000/svg"
 xmlns="http://www.w3.org/2000/svg"
 version="1.1"
 width="390"
 height="480"
 id="svg4228">
<metadata
 id="metadata8">
<rdf:RDF>
<cc:Work
 rdf:about="">
<dc:format>image/svg+xml</dc:format>
<dc:type
 rdf:resource="http://purl.org/dc/dcmitype/StillImage" />
<dc:title></dc:title>
</cc:Work>
</rdf:RDF>
</metadata>
<defs
 id="defs4232" />
<path
 d="M 0,0 C 130,0 260,0 390,0 389.98981,114.99797 370.78556,350.14732 194.88837,479.99815 20.79131,350.08886 0.081386,115.02225 0,0 z"
 id="path4240-0"
 style="fill:#d61a1a;fill-opacity:1;stroke:none" />
<path
 d="m 195.38136,159.02542 c -2.08628,0.10321 -3.61856,5.93525 -9.72536,4.54543 -23.29569,-5.30174 4.53399,-56.54667 -11.02472,-88.443732 -1.75808,1.302567 -2.79539,3.723672 -3.46266,7.283793 -1.26161,-4.449314 -8.3651,-17.730067 -19.3675,-21.377637 -0.78098,2.35555 -0.49786,6.314782 -0.29185,8.217817 -3.59635,-5.061299 -15.57596,-11.793461 -22.79892,-10.972491 0.82748,2.159519 1.76621,4.828146 2.29746,6.232564 -4.712,-2.878246 -21.40502,-7.127655 -29.36221,-4.782385 0.51355,2.883128 1.82222,5.129077 2.73623,7.385243 -5.580368,-2.502382 -18.350279,-3.659095 -22.863231,-2.625173 0.168899,1.893462 1.279445,4.349714 2.488745,6.365498 -4.186695,-2.491481 -16.048316,-3.04241 -20.32378,-1.958441 -0.08692,1.655404 0.296793,4.040066 0.964553,5.034955 -2.756767,-1.806997 -16.425339,-3.58348 -19.745494,-2.255615 0.695017,2.018377 1.238764,3.303208 1.421367,4.744816 -3.786921,-0.601667 -9.69042,-0.708141 -16.88667,1.211054 2.894096,6.291862 6.799624,12.153465 9.323506,13.947668 -2.167741,0.01515 -3.658642,-0.047 -5.431801,0.322854 2.882619,7.091574 8.273217,11.590092 11.167687,13.852152 -1.794896,0.0813 -3.903549,0.33522 -5.375586,0.77648 0.602815,4.48667 7.838226,14.68048 12.175718,19.12486 -2.313594,-0.0128 -4.457639,0.3182 -6.000419,0.92659 1.307989,5.12891 10.169831,18.26964 14.212386,21.03021 -2.403671,-0.12244 -4.455602,0.0168 -6.189748,0.70413 3.027203,10.06129 10.267535,18.56636 15.497582,21.2549 -2.540539,0.28272 -4.463992,0.84621 -6.611126,2.22156 1.209411,3.57022 12.728427,14.07739 17.213886,16.05338 -2.118165,0.60829 -4.49743,1.45777 -6.670082,3.06228 3.457042,4.37068 18.794741,11.16495 26.398032,10.38778 -1.524092,1.33195 -2.976352,2.81536 -3.174216,5.1049 35.966811,0.85902 64.242151,-39.97641 77.687491,-36.41924 16.08198,4.25473 5.48959,8.99669 6.29205,11.86501 0.94451,3.37606 9.42332,0.50834 9.16842,10.42683 -0.65866,25.62951 -66.82189,24.96042 -77.58896,57.11724 2.74127,0.24456 6.07242,-0.049 8.29042,-0.15866 -5.47952,5.81171 -12.41305,20.90835 -10.1258,31.84923 3.6248,-1.30237 7.62598,-4.19135 9.71508,-5.70764 -1.20965,6.63603 -1.18347,21.24924 4.00668,27.50799 1.76377,-2.26844 2.95708,-4.0252 5.10745,-6.82825 -1.76492,6.85706 0.82119,22.73535 11.55816,31.35147 0.64685,-1.30237 1.46457,-3.1437 2.3129,-5.47474 1.03689,4.80736 4.37376,19.9454 10.96354,24.53933 1.27841,-1.84004 2.7289,-4.19243 3.64195,-5.87913 -0.30193,7.28013 5.27012,17.56271 8.82566,20.83522 1.11578,-2.22571 1.84948,-3.3998 4.62518,-5.42771 -0.34223,6.56291 3.71298,13.13499 10.15458,19.30415 0.44532,-2.67484 1.49305,-4.92167 3.4778,-6.56068 0.0774,5.43392 3.13079,13.91178 9.2324,21.02994 5.55315,-6.47064 9.92967,-14.74037 10.46786,-21.7771 1.88694,1.74406 2.49462,4.01058 3.32158,5.87815 2.60835,-2.19851 8.18253,-12.62589 7.46603,-18.74257 1.61594,1.90547 2.07324,3.45306 2.45603,6.45176 6.99098,-3.6566 11.65985,-15.98965 11.74343,-22.76338 2.08265,1.46221 2.76063,3.64437 3.3912,5.83512 8.24165,-6.32866 10.82772,-18.60614 12.36249,-24.58353 1.61968,1.40942 2.95398,3.03181 4.43497,4.95976 5.58792,-4.27566 8.71322,-18.30947 8.99857,-23.6711 2.04006,1.14779 3.81318,2.74293 4.87043,4.65207 8.27819,-7.96219 7.14136,-21.08873 7.29212,-25.35972 2.1885,1.19128 4.03747,2.18247 6.73696,2.73822 3.4683,-18.12318 -4.37464,-28.94884 -8.60684,-32.6602 2.10743,-0.0887 4.88288,-0.14659 7.75508,-0.39469 -29.31909,-48.44816 -73.78445,-31.36737 -74.98109,-58.11831 -0.45536,-10.1796 8.13703,-7.78857 8.97795,-9.36356 1.53694,-2.8786 -6.27518,-9.80766 7.79,-13.94916 21.89199,-6.44611 32.94715,34.32944 79.40027,37.33951 -0.93251,-2.4498 -2.86638,-3.78592 -4.72186,-5.29257 9.31147,1.05494 22.69636,-3.0488 27.48009,-9.72695 -2.11442,-2.25615 -4.8133,-3.27669 -7.46204,-4.59292 4.19553,-0.27559 15.39698,-6.04544 18.21619,-14.66957 -1.90049,-0.77248 -5.28107,-0.82175 -6.92982,-0.91524 2.7273,-2.48792 10.1936,-7.05268 15.43274,-22.41861 -2.39595,-0.59709 -4.29244,-0.89148 -6.29053,-0.94738 3.88557,-2.97773 12.58305,-12.63292 14.59231,-21.58732 -1.63123,-0.25995 -4.86096,-0.27501 -7.23366,-0.20522 3.83328,-2.94794 13.2042,-15.27662 13.35839,-20.31695 -2.34688,-0.68738 -5.19006,-0.4193 -6.89335,-0.31797 6.51976,-3.2409 11.80472,-9.211302 12.58513,-13.41305 -2.27774,-0.50212 -4.32371,-0.863522 -5.69158,-1.162937 3.63525,-3.101159 7.77386,-8.712137 9.29246,-14.385385 -4.47366,-1.149928 -15.07088,-0.255388 -17.23308,0.675051 0.47944,-1.791256 0.79904,-2.411649 1.6495,-4.651163 -6.52984,-0.675056 -20.0061,1.270168 -21.44983,2.31031 1.01796,-1.646047 1.55453,-3.162122 2.21651,-5.528585 -7.68248,-1.750375 -19.35312,-0.104207 -21.00644,1.094165 1.16935,-1.803495 2.81791,-3.35123 3.47212,-5.068085 -6.12142,-1.65465 -19.40573,-0.348397 -22.55404,1.505381 1.21441,-2.949212 1.58758,-3.607475 2.57338,-6.654003 -6.11428,-0.697937 -21.73967,1.980113 -28.48224,6.242935 0.58762,-2.274913 1.42036,-4.27514 2.08277,-6.608813 -8.18926,-2.474879 -19.85388,6.925281 -22.82306,9.697579 0.14403,-1.954117 0.0794,-6.076829 -0.75731,-7.874713 -10.67259,6.039127 -17.27484,17.149134 -18.05386,21.841804 -0.496,-2.524312 -1.68022,-4.958356 -2.77421,-6.197276 -22.77405,27.721035 8.27417,75.349505 -15.20826,86.614545 -4.4144,2.11768 -7.33798,-4.75626 -9.20021,-4.66413 z"
 id="path2827"
 style="fill:#faf700;fill-opacity:1;stroke:none" />
</svg>
