<?xml version="1.0" encoding="UTF-8" standalone="no"?>
<!-- Created with Inkscape (http://www.inkscape.org/) -->

<svg
   xmlns:svg="http://www.w3.org/2000/svg"
   xmlns="http://www.w3.org/2000/svg"
   version="1.1"
   width="390"
   height="480"
   id="svg4228">
  <defs
     id="defs4232" />
  <path
     d="m 0.51202379,0.50512952 c 129.66265621,0 259.32532621,0 388.98797621,0 C 389.48983,115.23328 370.33544,349.8309 194.89467,479.37706 21.249382,349.77255 0.5931986,115.2575 0.51202379,0.50512952 z"
     id="path4240-0-1"
     style="fill:#008c31;fill-opacity:1;stroke:#999999;stroke-width:0.99999905;stroke-opacity:1" />
  <path
     d="m 388.99308,1.01218 c -10.93071,3.3122093 -20.30144,8.1170934 -38.37041,21.106213 -20.71746,14.893021 -26.15402,38.207848 -47.20602,51.415052 -20.85622,13.084377 -32.19077,12.028279 -44.14318,19.415476 -17.92179,11.076569 -25.95932,29.250979 -47.18945,50.695959 -19.19452,19.38878 -51.59504,17.45773 -74.85216,35.59504 -21.00394,16.38015 -47.409895,64.6992 -96.073449,79.86002 15.529497,44.60613 33.049595,80.09531 53.655347,111.52999 58.659362,-45.71018 68.089632,-113.34723 107.585472,-146.26701 15.09858,-12.58467 40.28696,-21.78797 51.35003,-33.79731 23.80233,-25.83826 28.6006,-57.54177 45.34958,-71.92413 22.45281,-19.280227 24.44853,-20.422287 33.84777,-35.035459 16.29357,-25.331909 4.65266,-56.701243 56.04647,-82.593841 z"
     id="path2827"
     style="fill:#f2f2f2;fill-opacity:1;stroke:none" />
</svg>
