<?xml version="1.0" encoding="UTF-8" standalone="no"?>
<!-- Created with Inkscape (http://www.inkscape.org/) -->
<svg
   xmlns:svg="http://www.w3.org/2000/svg"
   xmlns="http://www.w3.org/2000/svg"
   version="1.0"
   width="480"
   height="600"
   id="svg2">
  <defs
     id="defs4" />
  <g
     transform="translate(-28.119111,-38.70568)"
     id="layer1">
    <path
       d="M 268.11911,38.70568 C 268.11911,358.70568 268.11911,538.70569 268.11911,638.70569 C 400.79135,531.33281 513.3936,382.39183 507.92813,38.70568 L 268.11911,38.70568 z M 268.11911,38.705683 C 268.11911,358.70567 268.11911,538.70569 268.11911,638.70569 C 135.44689,531.3328 22.844627,382.39182 28.310095,38.705683 L 268.11911,38.705683 z"
       id="path3202"
       style="fill:#c01814;fill-opacity:1;fill-rule:evenodd;stroke:none;stroke-width:1px;stroke-linecap:butt;stroke-linejoin:miter;stroke-opacity:1" />
    <g
       transform="translate(-13.02254,-22)"
       id="g3259">
      <path
         d="M 312.14287,115.21933 L 306.18148,124.78708 L 312.27954,134.26831 L 301.01293,133.88948 L 295.85097,143.91117 L 290.54574,133.96458 L 279.28572,134.50504 L 285.24711,124.93728 L 279.14905,115.45605 L 290.41566,115.83488 L 295.57762,105.81319 L 300.88285,115.75978 L 312.14287,115.21933 z"
         transform="matrix(3.853211,0,0,3.853211,-983.78868,-289.1509)"
         id="path3174"
         style="fill:#f0d018;fill-opacity:1;stroke:none;stroke-opacity:1" />
      <path
         d="M 312.14287,115.21933 L 306.18148,124.78708 L 312.27954,134.26831 L 301.01293,133.88948 L 295.85097,143.91117 L 290.54574,133.96458 L 279.28572,134.50504 L 285.24711,124.93728 L 279.14905,115.45605 L 290.41566,115.83488 L 295.57762,105.81319 L 300.88285,115.75978 L 312.14287,115.21933 z"
         transform="matrix(3.853211,0,0,3.853211,-732.82716,-289.1509)"
         id="path3180"
         style="fill:#f0d018;fill-opacity:1;stroke:none;stroke-opacity:1" />
      <path
         d="M 312.14287,115.21933 L 306.18148,124.78708 L 312.27954,134.26831 L 301.01293,133.88948 L 295.85097,143.91117 L 290.54574,133.96458 L 279.28572,134.50504 L 285.24711,124.93728 L 279.14905,115.45605 L 290.41566,115.83488 L 295.57762,105.81319 L 300.88285,115.75978 L 312.14287,115.21933 z"
         transform="matrix(3.853211,0,0,3.853211,-852.70822,-33.806872)"
         id="path3182"
         style="fill:#f0d018;fill-opacity:1;stroke:none;stroke-opacity:1" />
    </g>
  </g>
</svg>
