<?xml version="1.0" encoding="UTF-8" standalone="no"?>
<!-- Created with Inkscape (http://www.inkscape.org/) -->

<svg
   xmlns:svg="http://www.w3.org/2000/svg"
   xmlns="http://www.w3.org/2000/svg"
   version="1.1"
   width="390"
   height="480"
   id="svg4228">
  <defs
     id="defs4232" />
  <path
     d="m 0.51202379,0.50512952 c 129.66265621,0 259.32532621,0 388.98797621,0 C 389.48983,115.23328 370.33544,349.8309 194.89467,479.37706 21.249382,349.77255 0.5931986,115.2575 0.51202379,0.50512952 z"
     id="path4240-0-1"
     style="fill:#d9d9d9;fill-opacity:1;stroke:#999999;stroke-width:0.99999905;stroke-opacity:1" />
  <path
     d="m 220.52053,104.13107 c 3.46049,-2.2045 7.93156,-2.4379 12.58273,-1.9358 3.90946,0.42203 3.06872,-5.637452 12.09879,-5.968735 4.16386,-0.152758 6.78472,-0.203605 9.35639,-4.194246 1.43483,-2.226522 4.25926,-3.163055 7.42059,-3.871611 9.12776,-0.667484 10.17697,-10.494402 18.8741,-13.55064 6.10062,-2.143804 3.66425,-8.788874 9.785,-12.81898 14.65008,-9.646112 4.19722,-14.38826 13.76731,-19.928398 6.46377,13.838104 -4.32964,42.477217 2.41975,70.81822 2.8478,11.95806 8.34495,21.5212 8.53835,35.87923 0.8232,61.11688 -21.52213,107.55847 -36.93016,131.40664 C 238.21932,342.2091 153.77892,341.82257 108.2438,275.44987 87.729179,245.54744 70.658744,189.12392 71.380458,162.60894 c 0.538992,-19.80196 6.472509,-27.35115 9.439427,-50.41201 13.423501,5.0123 14.550301,-9.87609 12.031826,-9.76347 -2.218975,0.0992 -0.394691,5.15077 -5.190114,7.18631 -6.756561,2.86799 -8.525372,-5.36119 -5.361217,-7.58555 4.949507,-3.479439 7.641726,1.75892 9.125476,-1.59696 1.048523,-2.371494 -7.306423,-2.313858 -9.86692,0.51331 1.434747,-4.021795 5.708976,-6.176064 8.612167,-6.615968 7.415101,-1.123566 14.471527,-0.02546 16.540187,4.634324 3.1572,7.111774 1.80193,0.493111 5.1447,-1.02376 2.89344,-1.974864 7.75442,-3.582272 9.93845,-4.944974 1.20622,-0.752611 -9.14382,0.623483 -10.96957,2.500415 -3.31725,3.410237 -5.23696,-2.595568 -9.55804,-3.831281 -2.974113,-0.850518 -7.258345,-1.529263 -10.848575,-0.201647 1.430705,-3.933089 9.460881,-4.40321 11.171205,-5.726758 4.03774,-3.124627 9.13266,-13.093022 13.42966,-8.630467 4.70353,4.884756 6.7081,6.56023 12.86504,10.485614 1.02117,26.234962 20.08399,37.425572 32.30376,40.409942 -5.37356,7.85975 -13.32028,8.44375 -18.55147,6.13005 3.71039,14.85441 20.0654,38.47024 35.32092,51.97574 26.66697,23.6079 85.00403,20.96403 100.00081,-17.29051 5.50663,-14.0466 6.13829,-32.06246 2.5095,-39.69582 -8.56293,-18.01262 -34.61715,-3.11677 -58.94715,-24.9944 z"
     id="path3008"
     style="fill:#000000;stroke:none" />
  <path
     d="m 155.47529,156.95817 c 15.88612,23.31286 31.47476,41.95824 64.60998,42.14424 44.97581,0.25246 62.57409,-32.7776 59.15428,-58.22789 -2.62557,14.86181 -3.91252,30.84677 -28.28898,34.3346 -17.15298,2.45428 -25.76101,-5.82258 -24.63878,-14.14448 -15.41136,9.52368 -23.29838,12.63546 -36.95818,11.17871 -18.76524,-2.00122 -22.32499,-16.87794 -33.87832,-15.28518 z"
     id="path3796"
     style="fill:#000000;stroke:none" />
  <path
     d="m 70.164251,178.41786 c 13.781813,74.7481 38.080139,105.41981 54.075859,119.98518 60.18848,54.80641 128.592,25.6508 152.56486,-11.0761 21.51184,-32.95658 40.08011,-70.69211 41.04674,-139.60831 14.94965,48.48298 -12.80443,105.40284 -8.72623,116.23574 -3.62811,1.75761 -6.71917,2.22242 -12.3194,14.60076 -14.34716,31.71189 -48.90241,69.98304 -113.61216,76.42586 -2.58791,-9.72406 -12.44382,-16.88295 -29.6578,-21.44487 C 121.49347,322.44718 103.78145,298.40391 96.273764,280.8365 93.875761,275.22536 87.866362,271.05878 81.21673,267.14829 66.707703,232.65583 67.193719,203.26643 70.164251,178.41786 z"
     id="path3798"
     style="fill:#000000;stroke:none" />
  <path
     d="m 106.79195,106.22819 c 0.2286,-2.53801 -3.36657,-3.41559 -3.7103,-0.0806 -0.8262,8.01605 12.01791,13.02059 15.24446,4.27491 1.13697,-3.08179 -2.20649,-4.29909 -3.38765,-1.69384 -2.71334,4.19181 -8.29985,1.8457 -8.14651,-2.50047 z"
     id="path3800"
     style="fill:#d9d9d9;fill-opacity:1;stroke:none" />
  <path
     d="m 109.97035,87.79078 a 2.6388805,2.8793949 46.247514 0 1 -4.74362,-2.417759 2.6388805,2.8793949 46.247514 0 1 4.74362,2.417759 z"
     id="path3802"
     style="fill:#d9d9d9;fill-opacity:1;stroke:none" />
</svg>
