<?xml version="1.0" encoding="UTF-8" standalone="no"?>
<!-- Created with Inkscape (http://www.inkscape.org/) -->

<svg
   xmlns:svg="http://www.w3.org/2000/svg"
   xmlns="http://www.w3.org/2000/svg"
   xmlns:xlink="http://www.w3.org/1999/xlink"
   version="1.1"
   width="390"
   height="480"
   id="svg4228">
  <defs
     id="defs4232">
    <linearGradient
       id="linearGradient3653">
      <stop
         id="stop3655"
         style="stop-color:#ffffff;stop-opacity:1"
         offset="0" />
      <stop
         id="stop3657"
         style="stop-color:#ffffff;stop-opacity:0"
         offset="1" />
    </linearGradient>
    <linearGradient
       x1="0"
       y1="109.87704"
       x2="390"
       y2="109.87704"
       id="linearGradient3678"
       xlink:href="#linearGradient3653"
       gradientUnits="userSpaceOnUse" />
  </defs>
  <path
     d="M 0,0 C 130,0 260,0 390,0 389.98981,114.99797 370.78556,350.14732 194.88837,479.99815 20.79131,350.08886 0.081386,115.02225 0,0 z"
     id="path4240-0"
     style="color:#000000;fill:#207dbf;fill-opacity:1;fill-rule:nonzero;stroke:none;marker:none;visibility:visible;display:inline;overflow:visible;enable-background:accumulate" />
  <path
     d="m 38.016419,175.67001 c 0,0 -9.758518,-11.82902 -6.737288,-19.44915 3.091377,-7.79706 12.106883,-15.80338 22.245763,-15.50847 5.332894,0.15511 7.075749,1.54863 13.474577,5.59322 5.295267,3.34705 16.804896,13.29076 50.847449,52.88135 2.63579,3.06535 6.74022,10.71595 5.59322,18.17797 l 126.56655,117.80814 c 3.34993,3.40958 3.91872,9.63467 2.20463,13.75966 l 18.94068,19.70339 c 2.41366,2.51085 -1.81754,9.68264 -6.10169,5.59322 L 245.47404,355.5429 c -5.47043,2.93147 -12.5788,-0.12878 -17.02487,-4.38373 L 110.8554,230.71239 c -6.90678,1.3983 -13.686523,-1.32326 -21.101693,-6.86441 C 54.955164,197.844 42.593576,180.60935 38.016419,175.67001 z"
     id="path2829"
     style="fill:#f0ed00;fill-opacity:1;stroke:none" />
  <path
     d="m 27.921555,51.694927 c 0,0 -9.758518,-11.82902 -6.737288,-19.44915 3.091377,-7.79706 12.106882,-15.803381 22.245762,-15.508471 5.332894,0.15511 7.075749,1.54863 13.474577,5.593221 5.295267,3.34705 23.636271,21.91986 57.678824,61.51045 2.63579,3.06535 6.74022,10.71595 5.59322,18.177953 l 174.56592,165.08843 c 3.34993,3.40958 3.91872,9.63467 2.20463,13.75966 l 18.94068,19.70339 c 2.41366,2.51085 -1.81754,9.68263 -6.10169,5.59322 l -19.57627,-18.68644 c -5.47043,2.93147 -12.5788,-0.12878 -17.02487,-4.38373 L 107.59191,115.36639 c -6.90678,1.3983 -13.686523,-1.32326 -21.101693,-6.86441 C 51.69167,82.498017 32.498711,56.634267 27.921555,51.694927 z"
     id="path2829-9"
     style="fill:#f0ed00;fill-opacity:1;stroke:none" />
  <path
     d="m 130.19498,43.419187 c 0,0 -9.14383,-11.06361 -6.31291,-18.19067 2.89666,-7.292539 11.34427,-14.780799 20.84451,-14.504972 4.99697,0.145074 6.63005,1.448423 12.62582,5.231303 4.96171,3.130478 15.74636,12.430769 47.64458,49.459599 2.46977,2.867 6.31566,10.02256 5.24091,17.00174 L 328.83205,192.60139 c 3.13892,3.18896 3.67188,9.01125 2.06576,12.86932 l 17.74762,18.42846 c 2.26162,2.34838 -1.70306,9.05611 -5.71735,5.2313 l -18.34317,-17.47731 c -5.12585,2.74179 -11.78646,-0.12044 -15.95248,-4.10007 L 198.44586,94.899987 c -6.47173,1.30782 -12.82441,-1.23764 -19.77251,-6.42025 -32.6066,-24.32136 -44.18953,-40.44082 -48.47837,-45.06055 z"
     id="path2829-1"
     style="fill:#f0ed00;fill-opacity:1;stroke:none" />
</svg>
