<?xml version="1.0" encoding="UTF-8" standalone="no"?>
<!-- Created with Inkscape (http://www.inkscape.org/) -->

<svg
   xmlns:svg="http://www.w3.org/2000/svg"
   xmlns="http://www.w3.org/2000/svg"
   xmlns:xlink="http://www.w3.org/1999/xlink"
   version="1.1"
   width="390"
   height="480"
   id="svg4228">
  <defs
     id="defs4232">
    <linearGradient
       id="linearGradient3653">
      <stop
         id="stop3655"
         style="stop-color:#ffffff;stop-opacity:1"
         offset="0" />
      <stop
         id="stop3657"
         style="stop-color:#ffffff;stop-opacity:0"
         offset="1" />
    </linearGradient>
    <linearGradient
       x1="0"
       y1="109.87704"
       x2="390"
       y2="109.87704"
       id="linearGradient2841"
       xlink:href="#linearGradient3653"
       gradientUnits="userSpaceOnUse" />
  </defs>
  <path
     d="M 0,0 C 130,0 260,0 390,0 389.98981,114.99797 370.78556,350.14732 194.88837,479.99815 20.79131,350.08886 0.081386,115.02225 0,0 z"
     id="path4240-0"
     style="color:#000000;fill:#207dbf;fill-opacity:1;fill-rule:nonzero;stroke:none;marker:none;visibility:visible;display:inline;overflow:visible;enable-background:accumulate" />
  <path
     d="m 126.52135,226.62686 c 2.99072,-9.23883 49.49991,-38.39089 18.25513,-87.13661 -12.30036,-19.19023 -54.231171,-12.85694 -65.892647,-33.83927 79.928157,16.19258 82.795307,17.25459 82.624367,16.61124 -0.49926,-1.87843 -47.69821,-10.44964 -75.298184,-16.08091 -25.135244,-5.12823 -17.93329,3.55696 -29.162845,19.62245 -16.541122,-75.967418 12.504468,-83.480208 89.496339,-82.380413 9.76732,-10.129677 58.53774,-12.484344 95.43014,-3.205049 29.5844,7.44184 74.82228,37.016512 81.18192,67.286012 -7.46359,-5.17402 -11.51117,-6.54389 -15.821,-7.247 17.32577,26.4537 8.21142,64.57281 17.82427,105.63334 -9.61842,-2.01787 -14.03466,-8.0591 -16.55077,-14.46499 -0.542,18.79321 -0.61122,48.31705 7.65761,79.7971 -9.48212,0.61501 -17.35027,-6.71917 -20.51387,-10.88698 7.47942,44.01229 -11.18443,101.9031 -57.74209,134.79318 13.30339,-29.83781 33.89754,-62.24903 19.27532,-82.2311 -12.24967,35.6403 -85.03987,27.06794 -63.96423,107.09544 -41.70455,-29.30192 -51.06109,-61.41104 -28.32009,-112.62924 -16.90511,19.25059 -42.25,31.07437 -24.08845,75.19482 -52.533687,-31.37769 -30.9309,-83.91694 -20.18194,-111.65305 -8.13316,3.82405 -14.58708,12.77683 -21.865019,21.73394 0.355949,-24.70905 29.504829,-58.85896 49.466149,-73.61039 -6.364,2.59991 -11.408,4.86421 -21.81011,7.59748 z"
     id="path2827"
     style="fill:#f2f2f2;fill-opacity:1;stroke:none" />
  <path
     d="m 186.07911,71.399354 a 9.092,8.6316457 0 0 1 -18.184,0 9.092,8.6316457 0 1 1 18.184,0 z"
     id="path3755"
     style="fill:#207dbf;fill-opacity:1;stroke:none" />
  <path
     d="m 158.2542,57.230268 c 0,0 11.61207,5.62989 19.56504,5.984752 3.15352,0.14071 11.33328,-4.136806 22.45958,-5.576003 3.31117,-0.428303 9.25806,1.210412 14.28201,5.14538 -4.72338,-5.921534 -9.8417,-7.046227 -13.82287,-6.950944 -7.67173,0.183611 -17.05512,5.384725 -22.91872,5.309682 -5.55223,-0.07106 -19.56504,-3.912867 -19.56504,-3.912867 z"
     id="path3757"
     style="fill:#207dbf;fill-opacity:1;stroke:none" />
</svg>
