<?xml version="1.0" encoding="UTF-8" standalone="no"?>
<!-- Created with Inkscape (http://www.inkscape.org/) -->

<svg
   xmlns:svg="http://www.w3.org/2000/svg"
   xmlns="http://www.w3.org/2000/svg"
   version="1.1"
   width="390"
   height="480"
   id="svg4228">
  <defs
     id="defs4232" />
  <path
     d="m 0.51202379,0.50512952 c 129.66265621,0 259.32532621,0 388.98797621,0 C 389.48983,115.23328 370.33544,349.8309 194.89467,479.37706 21.249382,349.77255 0.5931986,115.2575 0.51202379,0.50512952 z"
     id="path4240-0-1"
     style="fill:#d9d9d9;fill-opacity:1;stroke:#999999;stroke-width:0.99999905;stroke-opacity:1" />
  <path
     d="m 211.65254,118.09322 c -2.23092,-2.59284 6.02917,-26.415807 11.18644,-28.22034 8.32568,-2.913161 17.56423,2.020636 29.87288,-6.483051 2.82817,-1.9539 12.26122,3.29308 18.43151,1.548299 13.88459,-3.926168 17.33124,-3.140163 18.7507,-8.794061 -3.41167,-0.569164 -7.85101,1.942954 -9.08898,-1.271187 -2.24516,-5.829118 17.67845,-3.372522 16.01694,-15.762712 -0.69835,-5.207743 -3.50379,-5.059631 -17.54237,-6.864407 -8.7878,-1.129744 -24.87855,-7.110981 -24.91525,-9.533899 -0.0947,-5.92531 16.66425,1.439096 19.18588,-9.161576 -6.34558,1.692261 -16.23664,2.106496 -19.44012,-1.770627 -1.48566,-1.798068 1.36977,-5.42071 5.97458,-7.372881 -9.95906,-3.218728 -18.98207,-0.02085 -26.5678,6.228813 -5.27643,-1.678228 -3.38766,-11.579917 0.12712,-16.779661 -11.38292,0.458581 -14.89079,9.621152 -20.21187,16.779661 -8.72881,-2.124098 -10.28765,-6.743285 -23.00847,-7.5 -12.91698,-0.768384 -6.99631,10.394539 -42.20339,3.432204 4.92825,6.739129 13.84882,13.872696 22.37288,12.330508 13.94627,-2.523186 18.20712,-0.709346 18.55932,3.305085 0.3664,4.176244 -12.2225,10.654147 -43.60169,0.635593 -6.11494,-1.952341 -17.66722,5.684716 -18.94068,15.381356 15.47271,-9.802704 19.52349,-4.452097 29.11017,0.127119 7.43057,3.549322 17.67684,1.256093 14.49152,5.466101 -5.74403,7.591834 -14.74738,2.738237 -30.38135,1.525424 -6.80095,-0.527587 -17.76095,10.77942 -17.28814,20.084746 5.76021,-4.541638 11.48922,-10.416118 17.54238,-8.389831 16.55619,5.542159 22.22071,0.02307 23.64406,2.796611 1.56896,3.057276 -3.55976,9.159671 -21.35592,8.771186 -10.65189,-0.232528 -10.45425,20.825767 -5.21187,22.118647 1.3314,-13.726329 20.00098,-17.310529 23.13559,-13.474579 2.97751,3.643699 -9.97632,31.772959 -17.92373,32.542369 -3.61137,0.34963 -17.96449,-16.9301 -30,-22.88135 -7.87263,-3.89282 -6.06358,-18.57971 -20.4661,-17.0339 -4.925624,0.528663 -7.793549,4.756836 -15.518056,16.9004 -8.321371,13.08188 -30.926525,36.57886 -32.278554,50.09113 -0.906679,9.06142 -1.805264,29.96297 3.177966,42.58474 8.93652,-3.16228 16.408425,-15.60235 19.449152,-23.38983 -2.767776,-2.95432 -5.79384,-4.87549 -8.898305,-6.48305 7.608898,-8.1145 0.935525,-9.70908 -1.271186,-17.79661 0.77504,-11.40855 19.949716,-14.63348 28.318016,-21.45875 7.134262,-5.81879 7.670195,-12.48785 12.105713,-13.24464 2.851468,-0.48652 10.618764,29.69998 25.423724,42.9661 -13.8983,2.54237 -10.53575,9.39939 -37.499996,10.29661 -6.568968,0.21858 -10.558439,15.60332 -4.830508,26.69492 -5.800018,48.54113 9.794426,80.17829 30.381354,75.12712 1.35047,-9.0637 -1.75657,-17.44163 -6.61017,-25.55085 l -4.282154,2.23548 c -1.578945,0.82428 -4.055261,-10.3481 -10.844962,-13.2948 3.281998,-14.69644 8.529743,-27.82027 9.661017,-44.23729 14.217989,4.19702 27.887589,10.86179 42.966099,11.18644 13.71199,30.99355 47.02176,30.00502 48.68644,34.19491 2.44545,6.15505 -49.81139,15.46927 -48.81356,31.65255 0.74901,12.01286 9.11911,26.82242 39.27966,47.0339 -16.46147,25.4361 -34.49554,38.08318 -51.61016,45.88983 -3.85132,1.75674 -4.46848,9.85781 -4.57627,15.38136 7.1121,2.1234 18.8983,1.73557 28.98305,-1e-5 l -2.28814,-8.38983 c 4.38572,-2.23774 8.99546,-4.33546 9.66102,-8.8983 23.36957,-35.93341 46.28642,-20.99099 53.38983,-36.61017 2.91217,-6.40336 -19.06691,-11.37474 -27.83899,-40.29661 -2.31517,-7.63319 39.90673,-12.35221 38.51695,-6.22882 -1.93833,8.54028 -9.00635,21.92454 -7.56814,26.98778 1.83946,6.47589 19.39948,20.59508 39.72916,35.5546 -3.30323,12.3623 -18.84091,45.56518 -43.34746,55.42373 -5.78869,2.32869 -7.30674,9.98759 -8.64407,16.52542 8.88084,2.62532 18.3827,2.30083 28.22034,0.38135 l -1.65254,-9.66101 10.16949,-3.55932 c 13.92772,-45.77925 45.51188,-40.15579 50.97458,-58.47458 -14.46775,-11.96087 -29.6785,-25.28369 -28.34746,-36.35593 2.65269,-22.06631 33.06449,-15.52262 44.61865,-52.11865 20.49881,-12.45967 33.83862,-19.36665 22.73243,-61.46748 -3.43522,-13.02205 7.05814,-24.02313 19.97943,-28.65964 -15.34606,-10.6534 -21.9976,6.52574 -24.27966,-0.25423 -4.56895,-13.57428 26.98604,-8.61387 18.94068,-36.1017 -4.10723,14.37248 -19.12522,9.51752 -28.09322,20.33898 -3.81393,-14.11017 25.67567,-13.85593 15.50847,-40.29661 -3.24235,16.87152 -20.18188,12.01719 -31.14407,26.18645 -8.1353,-21.65232 22.22851,-8.97677 19.83051,-45.127124 -4.4447,10.049968 -16.81273,17.243384 -23.2002,20.041124 -9.8913,4.33243 -24.12229,20.09717 -25.232,44.53515 -0.77902,17.15551 5.82469,36.40236 13.29561,42.13229 11.99741,9.20159 30.71341,13.15384 32.4671,31.97788 0.39126,4.19978 -5.40457,15.71595 -11.69491,13.72881 -7.15568,-2.2605 -9.43891,-13.47255 -14.96277,-17.67856 -18.58828,-14.1536 -38.09643,-12.15199 -49.74062,-30.62652 -10.98088,-17.42213 -11.40226,-48.03232 -31.65255,-71.5678 z"
     id="path2827"
     style="fill:#000000;stroke:none" />
  <path
     d="m 239.11017,53.516947 c 0.0373,-4.449935 11.82293,-6.818719 13.85593,-1.525423 2.48907,6.480746 -10.13456,5.712271 -13.85593,1.525423 z"
     id="path3667"
     style="fill:#d9d9d9;fill-opacity:1;stroke:none" />
  <path
     d="m 281.97863,62.666176 c 0.19594,-3.869656 6.58967,-3.723022 8.06345,-0.539207 1.22887,2.654731 -8.17121,2.667439 -8.06345,0.539207 z"
     id="path3667-0"
     style="fill:#d9d9d9;fill-opacity:1;stroke:none" />
</svg>
