<?xml version="1.0" encoding="UTF-8" standalone="no"?>
<!-- Created with Inkscape (http://www.inkscape.org/) -->

<svg
   xmlns:svg="http://www.w3.org/2000/svg"
   xmlns="http://www.w3.org/2000/svg"
   xmlns:xlink="http://www.w3.org/1999/xlink"
   version="1.1"
   width="390"
   height="480"
   id="svg4228">
  <defs
     id="defs4232" />
  <path
     d="M 0,0 C 130,0 260,0 390,0 389.98981,114.99797 370.78556,350.14732 194.88837,479.99815 20.79131,350.08886 0.081386,115.02225 0,0 z"
     id="path4240-0"
     style="color:#000000;fill:#d61a1a;fill-opacity:1;fill-rule:nonzero;stroke:none;marker:none;visibility:visible;display:inline;overflow:visible;enable-background:accumulate" />
  <path
     d="m 186.01307,188.23529 c -20.71271,1.97345 -49.16908,27.41525 -53.59477,27.18955 -1.94456,-11.60671 0.33964,-20.13318 15.4902,-22.02615 9.25402,-1.15624 -0.0346,-16.28578 -10.13072,-11.83006 -21.26292,9.38397 -8.49804,27.53699 -29.01961,36.20915 -5.06794,-17.49129 2.82032,-20.64727 7.84314,-25.75164 7.52155,-7.64366 -3.0372,-11.18049 -7.32026,-9.41176 -13.643571,5.63425 -16.951971,-6.26128 -24.705886,-10.71896 14.35102,-8.05245 24.204896,0.35335 34.117646,6.27451 5.09319,3.0423 10.95167,-3.95256 6.79739,-7.97385 -6.85537,-6.63591 -14.90197,-12.15686 -10.9804,-29.01961 24.82917,7.48925 17.21133,45.96949 51.50327,35.81699 -28.06638,-11.55162 -25.51536,-46.48334 -66.405227,-76.47058 -2.735148,-2.005864 -7.669429,4.99595 -6.405228,7.97385 1.960782,4.61874 7.455435,10.23148 5.882352,13.85621 -11.484158,26.462 -46.374959,10.37155 -47.712418,-6.9281 -0.298891,-3.86606 7.405817,-8.45299 11.111111,-12.67974 2.640158,-3.011713 -4.937683,-9.371809 -7.45098,-7.189545 -3.267694,2.837297 -6.358261,8.614075 -9.803922,8.496735 -22.641861,-0.77104 -29.389184,-44.516261 -0.653594,-45.751637 4.871496,-0.209431 6.267526,6.747594 10.065359,9.477124 8.02312,5.766274 11.782353,-6.191503 8.75817,-9.215686 -3.921569,-3.921569 -11.853761,-8.243663 -11.764706,-11.764706 0.623236,-24.641462 43.132966,-27.599043 47.973856,-3.267974 0.854427,4.294494 -6.079781,6.763646 -8.235294,10.718954 -3.295843,6.047784 6.007629,11.804598 9.934641,7.058824 3.292,-3.978373 5.60078,-9.860529 10.91503,-10.196078 20.24845,-1.278515 28.01378,32.973527 11.17647,43.398692 -4.1648,2.578722 -9.78542,-0.138199 -14.77124,-1.895425 -4.95314,-1.745705 -6.52915,1.558766 -5.22876,2.679739 31.35317,27.027353 38.22348,51.550733 57.51634,71.111113 6.2558,6.34254 14.23622,1.80725 9.80392,-10.19608 -5.52676,-14.96728 -25.53376,-13.59477 -30.45751,-42.7451 12.80362,-0.0973 13.1771,11.11385 14.90196,15.29412 3.50441,8.49309 9.46708,-4.16928 8.75817,-6.40523 -4.22127,-13.31412 -0.22253,-24.424992 5.49019,-33.72549 11.82688,23.33098 -4.98207,32.81583 -3.33332,48.82353 0.79751,7.74311 12.79957,9.35766 11.56862,0.0654 -1.0691,-8.07047 2.76203,-15.05554 8.75817,-23.39869 8.69014,15.06232 -1.74434,29.79625 -4.57516,40.13072 -3.89693,14.22651 -0.07,24.94486 4.183,33.98692 l 0,-4e-5 z"
     id="path3651"
     style="fill:#faf700;fill-opacity:1;stroke:none" />
  <path
     d="m 79.091075,74.405646 -2.548521,-9.922805 c 3.767956,-1.503793 9.578787,-0.214568 12.090659,3.597815 l -7.191198,6.880888 -2.35094,-0.555898 z"
     id="path3653"
     style="fill:#d61a1a;fill-opacity:1;stroke:none" />
  <use
     transform="matrix(0.52264595,-0.85254983,0.85254983,0.52264595,-30.751214,105.43012)"
     id="use3657"
     style="stroke:none"
     x="0"
     y="0"
     width="390"
     height="480"
     xlink:href="#path3653" />
  <use
     transform="matrix(0.45580544,0.89007942,-0.89007942,0.45580544,113.29529,-26.946278)"
     id="use3659"
     style="stroke:none"
     x="0"
     y="0"
     width="390"
     height="480"
     xlink:href="#path3653" />
  <use
     transform="matrix(0.49617911,-0.86822018,0.86822018,0.49617911,-29.706482,108.16231)"
     id="use3661"
     style="stroke:none"
     x="0"
     y="0"
     width="390"
     height="480"
     xlink:href="#use3657" />
  <use
     transform="matrix(0.49095458,-0.87118517,0.87118517,0.49095458,-29.498263,109.11749)"
     id="use3663"
     style="stroke:none"
     x="0"
     y="0"
     width="390"
     height="480"
     xlink:href="#use3661" />
  <use
     transform="matrix(-0.50223559,-0.86473084,0.86473084,-0.50223559,48.975926,188.01908)"
     id="use3665"
     style="stroke:none"
     x="0"
     y="0"
     width="390"
     height="480"
     xlink:href="#use3661" />
  <use
     transform="matrix(-1,0,0,1,389.33031,0)"
     id="use3667"
     x="0"
     y="0"
     width="390"
     height="480"
     xlink:href="#path3651" />
  <use
     transform="matrix(-1,0,0,1,389.33031,0)"
     id="use3669"
     x="0"
     y="0"
     width="390"
     height="480"
     xlink:href="#path3653" />
  <use
     transform="matrix(-1,0,0,1,389.33031,0)"
     id="use3671"
     x="0"
     y="0"
     width="390"
     height="480"
     xlink:href="#use3657" />
  <use
     transform="matrix(-1,0,0,1,389.33031,0)"
     id="use3673"
     x="0"
     y="0"
     width="390"
     height="480"
     xlink:href="#use3659" />
  <use
     transform="matrix(-1,0,0,1,389.33031,0)"
     id="use3675"
     x="0"
     y="0"
     width="390"
     height="480"
     xlink:href="#use3661" />
  <use
     transform="matrix(-1,0,0,1,389.33031,0)"
     id="use3677"
     x="0"
     y="0"
     width="390"
     height="480"
     xlink:href="#use3663" />
  <use
     transform="matrix(-1,0,0,1,389.33031,0)"
     id="use3679"
     x="0"
     y="0"
     width="390"
     height="480"
     xlink:href="#use3665" />
  <path
     d="m 193.90144,199.94106 c 18.71427,16.31851 45.60815,8.23294 56.13249,23.38637 -3.94386,3.9945 -11.53787,4.80843 -24.23184,-0.16515 -10.30249,-4.03658 -11.99611,12.06302 -0.52017,15.3843 19.89253,5.75715 30.04809,-8.24304 45.25914,6.67806 -6.59384,6.84846 -14.38882,6.48465 -21.52448,5.87994 -18.41128,-1.56027 -13.97889,7.48832 -4.0313,11.05835 13.89352,4.98616 11.50924,14.26172 14.26663,22.77 -16.04356,-3.6603 -28.11206,-14.06162 -29.5881,-25.51343 -1.098,-8.51881 -13.64033,-10.29555 -10.39054,2.64443 2.324,9.25366 4.18442,16.42514 -2.82924,28.14426 -16.80012,-18.63305 4.40462,-71.2477 -22.28334,-65.55337 13.05666,27.39864 -12.27598,51.58522 -2.08338,101.25741 0.68179,3.3226 9.03872,1.44264 10.09979,-1.61354 1.64573,-4.74015 1.33847,-12.58869 4.93717,-14.22045 26.27199,-11.91242 41.34245,23.43091 30.72494,37.15444 -2.37276,3.06688 -11.16317,1.29731 -16.74668,1.94456 -3.97847,0.4612 -2.62824,10.26177 0.69955,10.33041 4.32667,0.0892 10.4946,-2.11973 12.97048,0.27952 16.26932,15.76571 -8.0839,52.7264 -30.21754,34.35899 -3.75228,-3.1138 -0.11872,-9.20857 -1.10277,-13.78083 -2.07884,-9.65914 -12.89034,-3.31628 -12.67761,0.95526 0.27585,5.53908 3.25641,14.06648 0.82755,16.61723 -16.99797,17.85101 -50.4995,-8.48284 -37.76093,-29.77049 2.24839,-3.75731 9.04637,-0.93468 13.29873,-2.42066 6.50197,-2.27214 3.46753,-12.78345 -2.62868,-11.90018 -5.11042,0.74044 -10.76943,3.55216 -14.9346,0.23475 -15.87022,-12.64004 1.35773,-43.2456 20.83688,-39.67599 4.81827,0.88296 7.16218,6.66907 9.67948,11.31766 2.5008,4.61813 5.88676,3.22578 5.67488,1.52206 -5.10833,-41.07804 6.25468,-63.87012 5.0771,-91.31891 -0.38184,-8.9004 -6.62585,-9.3975 -14.11084,0.98037 -8.81179,12.21747 4.72411,36.17982 -6.19569,50.65124 -9.55793,-8.51986 -4.9519,-18.8245 -3.46562,-23.09543 3.19714,-9.18722 -8.15784,-18.25123 -11.90081,-0.57381 -2.89325,13.66433 -13.63756,16.40945 -25.40824,17.99236 0.41777,-15.52881 11.70706,-14.95627 16.9333,-25.54971 5.82831,-11.81382 -18.62166,-1.302 -28.82263,-11.34785 13.29146,-9.19921 35.00691,-1.17111 43.42356,-6.03249 14.75661,-8.52328 8.29134,-23.40509 1.63779,-19.08538 -7.31519,4.74927 -13.28396,10.94065 -24.78337,6.38682 5.04313,-14.24227 17.42547,-12.96339 27.91894,-15.31365 9.69726,-2.17194 19.73364,-2.9724 27.84,-10.99747 z"
     id="path3651-1"
     style="fill:#faf700;fill-opacity:1;stroke:none" />
  <path
     d="m 189.76225,359.04361 -4.76931,9.067 c -3.80271,-1.4136 -7.24573,-6.26885 -6.54971,-10.78098 l 9.94907,-0.27578 1.36995,1.98976 z"
     id="path3653-7"
     style="fill:#d61a1a;fill-opacity:1;stroke:none" />
  <use
     transform="matrix(0.52264595,-0.85254983,0.85254983,0.52264595,-210.09266,334.73469)"
     id="use3657-4"
     style="stroke:none"
     x="0"
     y="0"
     width="390"
     height="480"
     xlink:href="#path3653-7" />
  <use
     transform="matrix(0.45580544,0.89007942,-0.89007942,0.45580544,421.84527,21.588977)"
     id="use3659-0"
     style="stroke:none"
     x="0"
     y="0"
     width="390"
     height="480"
     xlink:href="#path3653-7" />
  <use
     transform="matrix(0.49617911,-0.86822018,0.86822018,0.49617911,-211.10338,347.48556)"
     id="use3661-9"
     style="stroke:none"
     x="0"
     y="0"
     width="390"
     height="480"
     xlink:href="#use3657-4" />
  <use
     transform="matrix(0.49095458,-0.87118517,0.87118517,0.49095458,-210.96534,349.66745)"
     id="use3663-4"
     style="stroke:none"
     x="0"
     y="0"
     width="390"
     height="480"
     xlink:href="#use3661-9" />
  <use
     transform="matrix(-0.50223559,-0.86473084,0.86473084,-0.50223559,-16.064216,701.32861)"
     id="use3665-8"
     style="stroke:none"
     x="0"
     y="0"
     width="390"
     height="480"
     xlink:href="#use3661-9" />
</svg>
