<?xml version="1.0" encoding="UTF-8" standalone="no"?>
<!-- Created with Inkscape (http://www.inkscape.org/) -->

<svg
   xmlns:svg="http://www.w3.org/2000/svg"
   xmlns="http://www.w3.org/2000/svg"
   version="1.1"
   width="390"
   height="480"
   id="svg4228">
  <defs
     id="defs4232" />
  <path
     d="m 0.51202379,0.50512952 c 129.66265621,0 259.32532621,0 388.98797621,0 C 389.48983,115.23328 370.33544,349.8309 194.89467,479.37706 21.249382,349.77255 0.5931986,115.2575 0.51202379,0.50512952 z"
     id="path4240-0-1"
     style="fill:#d9d9d9;fill-opacity:1;stroke:#999999;stroke-width:0.99999905;stroke-opacity:1" />
  <path
     d="m 122.6578,49.819493 c 8.3105,-7.83518 21.68938,-15.921153 46.65254,-2.161017 5.32896,-12.450794 13.96868,-23.596491 24.40678,-34.194916 11.53745,10.025576 18.43016,22.834729 23.89831,35.084746 14.11515,-9.878737 29.16086,-12.933358 46.14407,-1.779661 -47.91496,16.157183 -21.1571,73.513585 -55.29661,107.796595 11.47574,11.02695 22.36749,0.81026 30.12711,-5.84746 0.95101,6.87275 -6.35086,23.74036 -27.45762,20.84746 9.26342,9.26155 1.46493,21.53667 6.73729,33.94068 -11.70854,-5.35919 -6.87992,-25.00543 -19.046,-26.88373 -9.28464,37.79635 -15.0973,78.83644 4.42735,128.19729 10.80395,-25.76362 18.98357,-47.7284 36.22881,-65.84746 -26.97561,-2.73129 -28.61004,-14.67236 -32.28813,-24.40678 9.20163,6.89797 18.51814,16.91275 26.82203,9.91525 -10.65585,-11.44068 -1.62021,-20.84746 -11.94915,-34.32203 13.64124,-2.09457 11.46238,22.48502 22.37288,24.78814 -15.327,-41.58387 24.0616,-72.67526 3.43221,-118.7288 24.7134,0.84558 28.38855,12.47999 35.21186,22.49998 9.75334,-8.40538 19.4592,-17.51877 33.30508,-20.593204 5.20444,13.266414 5.20514,25.321144 6.73729,38.516934 15.28928,-2.35963 29.42711,-0.0495 40.42373,15 -44.8195,2.33133 -48.50132,60.24312 -90.22246,79.44915 18.59437,-1.13571 23.55873,9.21575 26.47246,18.81356 -7.74719,-5.2481 -15.67794,-10.32487 -33.36864,-6.29237 -4.85751,10.07196 1.47469,20.65255 11.44068,31.39831 -15.49301,-0.45711 -25.17395,-10.04747 -26.44068,-32.86017 -7.45635,13.18861 -40.08416,38.85693 -40.16949,90 13.81787,-15.98951 35.01407,-27.85785 31.14406,-51.73729 13.0475,4.42208 -5.12432,51.77801 -20.72033,56.31356 -11.45429,3.33107 -11.86235,58.94932 -25.1695,84.5339 -1.39944,2.48159 -15.59904,-7.84108 -14.3644,-10.55085 12.23404,-27.43834 39.05349,-71.09032 -19.83051,-87.20339 l -15.50848,-35.97458 c 8.97372,-0.81412 13.88828,19.05214 20.4661,22.75424 l 25.29661,14.23729 c -2.15784,-21.32663 -33.62399,-59.71082 -56.69491,-80.72034 -3.41173,18.78817 -9.3496,33.39015 -24.5339,32.66949 9.42424,-9.36441 13.85333,-20.76271 10.67797,-31.14407 -16.05299,-4.77907 -22.641435,-1.25308 -33.177958,9.66102 C 90.752826,238.21781 101.1438,233.80922 112.61543,231.21778 98.966665,227.18157 88.022131,212.86222 78.356968,199.35441 61.340639,175.57278 47.504465,147.67884 25.221371,153.73897 c 12.178653,-15.65083 25.646884,-16.14911 39.152542,-16.20763 0.615719,-12.11864 1.309538,-24.23729 7.055085,-36.35593 14.781731,4.91525 23.710527,11.86441 32.288132,17.79661 5.81604,-15.26449 20.74076,-20.335474 34.57626,-21.86439 -21.11921,26.02004 14.96776,86.61672 4.19492,120.7627 14.66727,-5.19601 10.64031,-27.08949 23.00847,-29.49153 -6.58007,12.48671 -1.37979,25.46265 -8.38983,36.35593 9.09706,1.89766 16.26456,-9.31827 21.54661,-16.58898 0.76186,7.34025 -6.32987,32.37842 -30.82627,28.2839 3.65824,12.53972 21.16618,30.31986 36.86441,47.41525 5.315,-10.60062 -8.21872,-20.12662 -4.51838,-48.20282 3.09152,-23.45679 5.66653,-45.64225 4.6455,-56.2887 -8.43918,1.56929 -7.9509,23.03399 -18.4322,24.40678 9.14892,-16.14202 2.8938,-30.82405 12.20338,-33.30509 -16.04133,1.17658 -23.907,-8.54773 -32.03389,-17.92373 10.85329,4.24293 22.04958,10.75166 32.28813,3.94068 C 149.18507,127.02029 168.48945,50.872603 122.6578,49.819493 z"
     id="path2827"
     style="fill:#207dbf;fill-opacity:1;stroke:none" />
</svg>
