<?xml version="1.0" encoding="UTF-8" standalone="no"?>
<!-- Created with Inkscape (http://www.inkscape.org/) -->

<svg
   xmlns:svg="http://www.w3.org/2000/svg"
   xmlns="http://www.w3.org/2000/svg"
   version="1.1"
   width="390"
   height="480"
   id="svg4228">
  <defs
     id="defs4232" />
  <path
     d="M 0,0 C 130,0 260,0 390,0 389.98981,114.99797 370.78556,350.14732 194.88837,479.99815 20.79131,350.08886 0.081386,115.02225 0,0 z"
     id="path4240-0"
     style="color:#000000;fill:#207dbf;fill-opacity:1;fill-rule:nonzero;stroke:none;marker:none;visibility:visible;display:inline;overflow:visible;enable-background:accumulate" />
  <path
     d="m 162.43761,220.76578 c -0.64589,2.66202 -4.19467,6.33435 -7.22575,8.93761 12.19406,-5.15142 10.34699,-20.74566 17.04238,-21.30297 10.46955,-1.02906 33.07096,-25.24967 40.09746,-51.02754 6.11527,-22.43487 5.9709,-54.67659 27.01271,-61.906778 9.16673,-23.01151 35.50885,-39.028539 63.24152,-50.148306 11.86162,-8.334895 20.76517,-24.306537 67.40466,-21.292373 -12.6699,13.71186 -47.38069,26.99034 -54.50211,28.983052 12.56351,-2.161403 26.08172,-9.227512 37.34211,-14.886783 3.8234,-1.921577 15.52771,3.500758 14.17272,5.003308 -10.92049,12.109766 -39.64276,17.706231 -49.40644,20.688559 12.67468,-1.524394 29.59007,-7.451302 33.54839,-8.802966 3.58397,-1.223836 13.19327,2.442976 12.83898,4.099576 -1.43772,6.722533 -34.92871,14.206 -46.00843,15.81652 11.53638,0.04166 27.16001,-5.211154 31.3928,-6.463375 3.06871,-0.907844 11.81414,6.6101 8.50599,7.442406 -15.21062,3.826877 -28.19184,7.749656 -43.87977,6.149364 7.50102,2.635943 18.55362,0.469105 22.90208,-0.07231 1.71183,-0.213136 12.88114,7.14843 9.03359,7.977423 -11.01113,2.372457 -28.26529,4.098088 -36.92087,2.179747 7.29538,4.311222 21.67579,-2.105343 25.45744,8.325026 -10.17074,3.11034 -24.93095,-0.0925 -29.32481,-1.399276 4.2093,3.303846 15.15729,1.006916 18.87841,9.927956 -10.05498,2.29713 -17.62094,-0.91488 -22.0439,-2.64341 4.47414,4.20027 12.63231,1.6696 15.10017,10.68825 -5.99415,0.58171 -13.74938,0.97855 -18.17953,-3.01119 1.47536,2.93595 7.91213,4.64525 8.33697,10.04481 -5.35574,0.90959 -10.24303,-0.36873 -15.1234,-1.99998 4.26966,1.91754 8.02389,4.64535 8.96617,9.86504 -4.35508,0.77379 -7.87416,0.13428 -12.02231,-0.85392 2.83048,1.80001 5.89312,3.543 7.47628,8.09646 -3.23722,1.71059 -8.69705,2.51221 -11.3414,1.85847 3.75791,1.90762 7.27587,5.47214 5.52802,7.95495 -1.37569,1.95416 -4.90048,1.71947 -7.82012,0.58426 2.59216,2.86141 5.25897,6.21407 5.07858,9.39313 -0.0868,1.52937 -3.03221,3.26051 -6.9662,2.74154 2.5338,1.64081 5.37702,3.56505 5.3033,6.60666 -0.0553,2.28112 -3.73901,3.69357 -7.19091,3.59545 2.92962,1.85454 6.40449,4.381 6.87631,7.59541 0.41125,2.8017 -4.07809,3.8697 -7.41563,3.6404 2.79956,1.96252 6.47313,4.83265 6.42688,7.23586 -0.0413,2.14807 -3.66278,3.34176 -6.78643,3.14603 2.15255,2.19538 5.72916,3.3209 5.88757,6.9662 0.14994,3.45056 -4.42771,2.71965 -6.83137,2.65165 2.7991,3.01159 7.59182,6.08548 6.92125,8.98864 -0.64839,2.80714 -4.34985,3.03256 -7.77518,3.23592 0,0 6.14759,4.56347 5.43813,7.5954 -0.52446,2.2413 -5.79674,2.08482 -6.47182,1.6629 1.15363,2.89136 2.70424,7.22796 1.43818,10.42683 -1.05262,2.65959 -4.4344,1.58799 -6.38194,0.76403 1.32239,2.59195 3.22381,6.28334 1.25841,9.48302 -1.13993,1.85582 -3.5161,0.71441 -5.03364,0.13483 0.50936,2.60671 0.99523,8.00465 -1.16852,9.9774 -1.71745,1.56585 -4.12205,-0.27564 -6.20217,-0.71909 0.015,3.29584 2.39167,7.46257 0.0449,9.88751 -1.85516,1.91696 -4.00992,-0.54692 -5.97745,-1.21347 0,0 -0.89236,6.93771 -3.59095,9.00859 -2.07073,1.58907 -7.3752,1.10364 -7.3752,1.10364 0.39161,1.98175 0.96197,9.45189 -2.24716,10.18443 -3.04112,0.69418 -5.5685,-0.75913 -7.21724,-4.18347 0,0 -0.0834,10.51316 -4.94921,11.16828 -2.87646,0.38728 -6.7301,-5.60096 -6.53086,-6.04926 0.18621,3.47335 1.58371,11.62199 -3.25492,11.94548 -2.52229,0.16863 -6.81511,-6.21321 -8.12118,-10.08513 0.70133,5.19579 1.37343,13.13657 -2.56761,13.33101 -4.35784,0.21328 -7.60606,-13.87519 -12.1704,-19.93667 -3.86044,-5.12669 -5.79042,-10.49175 -6.37155,-14.78639 -0.80869,4.80523 0.68533,9.30444 3.5911,12.58475 -4.74435,-3.66242 -8.74189,-6.72108 -14.17372,-6.48305 7.741,1.24118 15.82827,8.07242 19.13954,14.18206 4.2703,7.87917 4.78135,15.51495 9.88846,15.52553 3.94873,0.008 4.75579,-5.5789 3.57793,-11.43428 1.13347,4.19492 4.98347,8.41379 7.56037,8.35937 4.59063,-0.0969 4.72777,-6.95048 3.65785,-10.67929 1.13303,3.17572 4.37436,4.90012 6.36544,4.72107 3.76177,-0.33828 5.0402,-6.15435 4.76289,-10.3361 1.71898,2.85183 4.17078,4.10471 6.99924,3.43126 3.80772,-0.90661 3.41502,-7.19884 3.10304,-10.49862 8.66573,-1.40098 10.73911,2.04723 14.64863,5.84976 19.86646,1.94982 39.03723,10.8565 57.9661,22.1822 -36.03243,6.68105 -70.27284,4.85002 -104.45975,2.76483 l 16.30297,0.66738 -14.61864,16.52542 -4.32204,-3.62288 -0.63559,5.65678 c 5.43973,6.80085 3.54638,11.62419 -0.77362,18.42504 0.21488,5.19307 -0.9133,12.00853 1.18395,15.5792 2.83012,4.81843 8.30027,7.34104 6.83543,15.82627 -2.18439,-2.56279 -4.14243,-4.10704 -5.84746,-4.51271 0.5248,23.1996 13.41657,21.99151 4.0678,33.49576 -1.09576,-8.49341 -4.71013,-12.53212 -8.00847,-13.09322 -4.42937,-0.75351 -7.16665,4.01488 -7.97312,10.22667 -5.47434,-1.83185 -5.05538,-8.80523 -4.86587,-12.89616 -5.83714,0.78929 -8.78447,4.27573 -11.05932,8.38983 -6.751,-7.30407 3.06284,-12.52961 6.58836,-18.24791 4.05859,-6.58294 7.56535,-13.03001 12.26431,-20.13741 1.78824,-2.70481 1.14281,-10.83842 1.71422,-16.25763 -3.49998,-3.39847 -5.5574,-9.93215 1.1704,-17.36977 -0.31626,-2.42303 0.95253,-6.63886 -2.28814,-5.4661 -4.01764,1.45393 -4.37793,6.53248 -5.16428,11.40797 -4.9472,-2.75577 -2.73845,-9.89807 -5.67803,-9.91977 -1.57532,-0.0116 -2.30601,2.24479 -3.2043,4.04146 3.28349,6.78659 1.0065,11.71969 -4.32203,15.6356 l -5.54057,9.29057 c -1.23948,2.07839 4.02893,9.83283 -3.15748,18.15615 -0.14928,-5.09878 0.69104,-11.91794 -1.77833,-10.06418 -1.94546,1.46049 -4.94123,19.56657 -6.66283,20.16428 -3.02954,1.0518 -4.82201,-2.36228 -9.23791,10.56758 -2.11053,-2.85307 -3.25703,-4.70984 -1.28661,-11.55105 0.7547,-2.62026 -3.36446,-7.84429 -6.70325,-7.03007 -3.3388,0.81422 -4.62091,4.6479 -6.47082,8.27813 -2.89359,-7.17909 0.5095,-11.5717 4.02153,-16.45868 -1.82082,-4.01908 -7.17679,-3.67089 -9.58842,-0.94568 -1.11984,-6.99531 5.13754,-7.54569 13.15678,-7.10586 7.82193,0.42901 11.34142,-3.32881 20.10337,-5.35946 2.19656,-0.50907 4.99485,-6.08716 7.04284,-9.0858 -1.92024,-6.43104 0.88441,-11.28712 5.40255,-15.57203 l 0.44491,-5.59322 -8.58051,6.22881 C 163.72915,309.86271 120.81937,304.14376 107.45508,284.62767 87.907273,256.08169 96.244269,234.72003 88.908537,211.68977 86.953699,205.55263 83.341574,200.2557 72.761823,196.48951 c 0.324044,-1.1772 3.356156,-3.56213 4.272025,-4.28612 -2.482214,10e-4 -5.939463,-0.0425 -8.675847,-1.68433 1.059051,-0.89638 2.108903,-2.17021 3.113472,-3.04671 -2.052179,-1.37046 -6.717305,-2.67787 -9.768971,-2.16156 9.650071,-4.76677 16.703293,-17.12583 24.658201,-20.66513 9.182482,-4.08547 20.725017,-4.31889 29.604447,3.98617 26.39721,24.68968 -0.35458,40.3475 46.47246,52.13395 z"
     id="path2827"
     style="fill:#ececec;stroke:none" />
  <path
     d="m 235.77592,307.37756 c 8.68045,0.62241 17.48886,0.68609 27.57514,0.83989 l 17.98905,15.46776 c -18.92715,-2.69119 -32.95254,-9.17223 -45.56419,-16.30765 z"
     id="path3887"
     style="fill:#ececec;stroke:none" />
  <path
     d="m 265.26768,308.2281 c 14.00144,-0.4303 21.87776,-0.78874 25.85857,-1.53896 6.47869,3.12235 15.69065,9.44711 18.49813,13.76989 -17.32365,-0.88078 -28.26983,-0.16764 -44.3567,-12.23093 z"
     id="path3889"
     style="fill:#ececec;stroke:none" />
  <path
     d="m 40.349281,203.96319 c 0.439888,-2.48676 6.160502,-5.06402 12.364951,-7.35561 6.114454,-2.25835 9.648535,-2.47226 12.508204,-2.63939 1.534606,-0.0897 3.86036,-0.0469 3.234339,-1.67226 -0.472834,-1.22767 -4.153538,-1.41169 -3.522635,-2.16169 0.648096,-0.77043 4.572949,-1.85418 3.434247,-2.39031 -3.005799,-1.41521 -7.384231,-1.73326 -10.385631,-0.57453 -5.189672,2.00355 -23.583943,8.09628 -17.633475,16.79379 z"
     id="path3947"
     style="fill:#ececec;stroke:none" />
  <path
     d="m 45.078057,200.95799 c 8.993235,-4.94582 16.955832,-6.55547 27.444582,-6.23138 -1.687128,4.64979 -7.734405,4.97927 -13.076643,6.0781 -3.483655,0.71654 -6.664406,1.99092 -9.594968,3.24687 -1.436568,0.61567 -4.085899,-1.56935 -4.772971,-3.09359 z"
     id="path3980"
     style="fill:#ececec;stroke:none" />
  <path
     d="m 86.604851,177.52684 c 1.453613,-1.53569 2.828714,-0.94426 4.80164,-1.99769 1.282169,-0.68461 3.261306,-3.11614 6.778128,-2.99232 3.518371,0.12387 7.272771,3.81727 8.451431,5.21398 -1.23744,5.4948 -5.50588,7.18302 -8.961683,7.14446 -4.579716,-0.0511 -6.76795,-4.2352 -6.853842,-5.4928 -0.123427,-1.80718 -5.539962,-0.47658 -4.215674,-1.87563 z"
     id="path4016"
     style="fill:#207dbf;fill-opacity:1;stroke:none" />
  <path
     d="m 104.60096,178.41604 c -0.17017,3.08528 -4.18027,5.65863 -6.943801,5.34831 -2.876693,-0.32302 -4.629358,-1.78137 -5.431664,-4.86924 1.543053,-6.42371 11.566195,-4.1422 12.375465,-0.47907 z"
     id="path4016-8"
     style="fill:#ececec;stroke:none" />
  <path
     d="m 101.17819,178.84287 a 2.5275355,2.5884236 0 0 1 -5.055071,0 2.5275355,2.5884236 0 1 1 5.055071,0 z"
     id="path4031"
     style="fill:#207dbf;fill-opacity:1;stroke:none" />
  <path
     d="m 143.27751,213.06719 c 5.65521,2.93237 12.13434,4.87086 19.48113,6.62598 2.18809,-4.12336 4.067,-11.55456 8.18443,-12.28284 15.32484,-2.71061 29.05797,-26.74843 36.4834,-39.69172 2.03634,-3.54956 1.6359,-7.1072 1.43519,-10.33608 -2.74522,-0.63689 -5.55701,-0.65998 -7.86656,-0.26516 1.65122,-2.11565 2.54817,-5.03958 2.91682,-7.6014 -4.34583,-0.59191 -8.63536,-1.02431 -12.28598,0.35355 2.97276,-3.38094 4.73647,-6.71785 4.94974,-10.25305 -3.80261,-0.92483 -7.38898,-0.55222 -10.96015,-0.0884 1.19652,-1.52792 1.58583,-3.79025 1.41421,-5.83364 -2.88229,-0.40635 -5.76957,-0.54113 -9.45755,-0.17677 0.21926,-2.32756 0.001,-5.00867 -0.61872,-7.51301 -3.37503,0.40631 -6.69714,1.02432 -9.72272,2.82843 0.82331,-3.03508 0.94447,-6.2457 0.35356,-9.63433 -3.45354,0.17125 -6.79192,0.7072 -9.54594,3.09359 1.00042,-3.1602 0.94251,-6.17929 0.17677,-9.104 -3.74901,0.46957 -6.64836,2.09777 -9.104,4.33103 1.0905,-2.98097 1.95109,-7.18869 0.61136,-11.53506 -0.023,-0.0745 -0.0532,-0.14698 -0.081,-0.22059 -3.81665,0.2533 -6.7396,1.83407 -9.8111,5.48007 3.78812,-4.92182 6.18604,-9.50668 6.45235,-13.435023 -5.30345,0.798113 -8.14149,2.167619 -12.46276,7.513013 5.79384,-8.831161 5.98503,-12.831951 6.01041,-17.766062 -8.02728,0.787853 -10.18821,5.176045 -14.05375,10.076272 4.35215,-7.562483 9.29747,-16.433357 7.51301,-23.688077 -6.08989,1.954496 -9.29716,7.15927 -12.63954,13.435029 5.1957,-12.440766 6.49638,-20.159974 6.8943,-29.344932 -11.23341,2.93027 -12.73949,13.122125 -15.90991,21.743534 1.1082,-8.400334 6.42823,-17.201964 6.9385,-20.533351 0.91129,-5.949557 0.19785,-10.93637 -1.01648,-13.230998 -4.47648,-0.117742 -8.02305,4.270049 -8.7,8.610128 -0.92301,5.917596 -2.52942,14.822584 -4.73503,17.7296 2.03805,-7.570072 5.38344,-18.473384 3.00521,-35.620504 -0.34241,-2.468786 -7.705612,2.54576 -8.470709,8.199154 -0.765098,5.653394 0.525352,19.341598 -1.782372,23.709059 1.453315,-13.978765 1.049769,-32.981001 -1.944543,-37.299883 -1.195223,-1.723944 -9.051191,4.58683 -8.568729,7.680957 1.005845,6.450692 4.380703,23.812809 2.116379,27.851159 0.397095,-13.553401 -3.989867,-32.164196 -10.783379,-40.216698 -1.098975,-1.30264 -7.065315,5.192284 -5.589806,8.20724 3.711638,7.584113 7.074718,24.868113 5.94336,28.473924 C 75.524022,46.133252 72.484119,33.90351 65.142212,27.54005 c -2.844961,-2.465817 -6.947382,8.724052 -6.053277,10.623655 2.492501,5.29553 10.332988,17.956669 10.887671,25.1152 C 66.640221,52.265278 59.066653,38.599056 50.354393,30.221663 48.420779,28.362371 40.011039,35.56528 43.487067,39.295701 50.086845,46.378485 59.65726,58.378724 60.104076,62.453448 55.102986,53.64723 40.197467,34.885369 27.665553,26.125837 c -2.133222,13.840572 8.518283,35.35716 25.10229,50.027805 5.797991,24.161258 17.611363,39.890778 29.96365,42.779958 -1.656826,25.3616 60.747597,34.89686 60.546017,94.13359 z"
     id="path4055"
     style="fill:#ececec;stroke:none" />
  <path
     d="m 151.68339,364.58579 c 1.71559,-5.98584 9.84342,-8.09316 12.62905,-7.68529 -3.24108,0.90115 -8.22845,4.03779 -12.62905,7.68529 z"
     id="path3689"
     style="fill:#207dbf;fill-opacity:1;stroke:none" />
  <path
     d="m 194.66898,387.38931 c -2.61507,-5.6511 2.15764,-12.55933 4.53219,-14.07182 -1.86341,2.80078 -3.58679,8.43481 -4.53219,14.07182 z"
     id="path3691"
     style="fill:#207dbf;fill-opacity:1;stroke:none" />
</svg>
