<?xml version="1.0" encoding="UTF-8" standalone="no"?>
<!-- Created with Inkscape (http://www.inkscape.org/) -->

<svg
   xmlns:svg="http://www.w3.org/2000/svg"
   xmlns="http://www.w3.org/2000/svg"
   xmlns:xlink="http://www.w3.org/1999/xlink"
   version="1.1"
   width="390"
   height="480"
   id="svg4228">
  <defs
     id="defs4232">
    <linearGradient
       id="linearGradient3653">
      <stop
         id="stop3655"
         style="stop-color:#ffffff;stop-opacity:1"
         offset="0" />
      <stop
         id="stop3657"
         style="stop-color:#ffffff;stop-opacity:0"
         offset="1" />
    </linearGradient>
    <linearGradient
       x1="0"
       y1="109.87704"
       x2="390"
       y2="109.87704"
       id="linearGradient2841"
       xlink:href="#linearGradient3653"
       gradientUnits="userSpaceOnUse" />
  </defs>
  <path
     d="M 0,0 C 130,0 260,0 390,0 389.98981,114.99797 370.78556,350.14732 194.88837,479.99815 20.79131,350.08886 0.081386,115.02225 0,0 z"
     id="path4240-0"
     style="color:#000000;fill:#207dbf;fill-opacity:1;fill-rule:nonzero;stroke:none;marker:none;visibility:visible;display:inline;overflow:visible;enable-background:accumulate" />
  <path
     d="m 183.46399,201.54661 c -7.64322,-0.3542 -7.08931,-6.04145 -9.43857,-5.67267 -1.43024,0.22452 -2.74193,0.77809 -4.25847,1.92267 1.15456,-1.75237 6.06386,-3.55238 7.37288,-3.30509 4.25126,0.80313 8.10958,5.64733 11.31356,4.70339 3.11195,-0.91683 0.0597,-11.81955 -2.47882,-19.76695 -6.54938,-20.5046 -18.67815,-37.20869 -34.57626,-49.51271 4.95762,-8.34746 7.05708,-24.07405 4.95762,-34.576268 -0.5656,-2.829311 -32.88256,-11.682904 -32.60593,-7.690677 0.29676,4.282877 0.43012,8.121293 -1.20763,10.360169 -6.86155,-5.058141 -17.2579,-15.31593 -29.237285,-23.389831 0.824607,-3.949819 0.884681,-9.111183 -1.144068,-13.569916 -0.494923,-1.087729 -7.342851,0.441656 -7.436441,1.334747 -0.195391,1.864541 -0.749823,3.484242 -1.525423,4.417373 C 79.104154,59.952761 73.397402,54.402236 67.627119,48.559321 62.531024,43.399081 67.068506,26.261379 57.076271,14.237287 32.174757,30.396779 18.557054,25.818183 12.20339,32.415253 c 10.852323,12.581562 32.017848,19.06244 41.313559,22.5 2.456908,0.908566 7.908648,11.321383 15.508475,25.805085 -2.256696,0.794415 -6.939303,0.915083 -6.769068,2.383475 1.20074,10.357172 -3.725989,17.127197 -0.794492,17.955507 8.049922,2.27457 15.051272,4.57392 20.148306,12.71187 5.411932,8.64072 10.887667,16.95348 16.016949,26.05932 -5.004396,-2.94278 -10.100057,-6.28104 -14.618644,-7.11865 -0.253999,7.45187 1.281162,14.0688 3.559322,20.33899 0.772646,2.12656 14.372433,-3.74078 26.694913,6.22881 l 34.46391,27.88327 c -0.20689,-9.24903 -0.35285,-20.01879 12.63355,-21.90869 -12.69134,3.4649 -11.65601,13.96773 -11.45658,22.59533 13.87002,8.03676 19.24897,15.52461 26.52014,17.06568 6.23715,1.32192 10.60514,-3.24978 8.04026,-3.36864 z"
     id="path2830"
     style="fill:#ececec;stroke:none" />
  <path
     d="m 94.036018,153.75 c 3.77587,-0.43301 10.807942,0.48906 16.302972,3.97245 l -12.711871,4.16314 c -2.421467,0.79303 -4.823852,-7.99422 -3.591101,-8.13559 z"
     id="path3604"
     style="fill:#ececec;stroke:none" />
  <path
     d="m 178.69428,183.55447 a 3.2808557,3.2359123 0 1 1 -6.56171,0 3.2808557,3.2359123 0 1 1 6.56171,0 z"
     transform="translate(0.62920519,1.2584104)"
     id="path3606"
     style="fill:#207dbf;fill-opacity:1;stroke:none" />
  <path
     d="m 202.50955,203.54661 c 7.64322,-0.3542 7.08931,-6.04145 9.43857,-5.67267 1.43024,0.22452 2.74193,0.77809 4.25847,1.92267 -1.15456,-1.75237 -6.06386,-3.55238 -7.37288,-3.30509 -4.25126,0.80313 -8.10958,5.64733 -11.31356,4.70339 -3.11195,-0.91683 -0.0597,-11.81955 2.47882,-19.76695 6.54938,-20.5046 18.67815,-37.20869 34.57626,-49.51271 -4.95762,-8.34746 -7.05708,-24.07405 -4.95762,-34.576268 0.5656,-2.829311 32.88256,-11.682904 32.60593,-7.690677 -0.29676,4.282877 -0.43012,8.121293 1.20763,10.360165 6.86155,-5.058137 17.2579,-15.315926 29.23729,-23.389827 -0.82461,-3.949819 -0.88468,-9.111183 1.14407,-13.569916 0.49492,-1.087729 7.34285,0.441656 7.43644,1.334747 0.19539,1.864541 0.74982,3.484242 1.52542,4.417373 4.095,-6.848086 9.80175,-12.398611 15.57203,-18.241526 5.0961,-5.16024 0.55862,-22.297942 10.55085,-34.322034 24.90152,16.159492 38.51922,11.580896 44.87288,18.177966 -10.85232,12.581562 -32.01785,19.06244 -41.31356,22.5 -2.4569,0.908566 -7.90864,11.321383 -15.50847,25.805085 2.25669,0.794415 6.9393,0.915083 6.76907,2.383475 -1.20074,10.357172 3.72599,17.127197 0.79449,17.955507 -8.04992,2.27457 -15.05127,4.57392 -20.14831,12.71187 -5.41193,8.64072 -10.88766,16.95348 -16.01695,26.05932 5.0044,-2.94278 10.10006,-6.28104 14.61865,-7.11865 0.254,7.45187 -1.28116,14.0688 -3.55932,20.33899 -0.77265,2.12656 -14.39966,-3.77433 -26.69492,6.22881 l -34.57627,28.13045 c 0.20689,-9.24903 0.46521,-20.26597 -12.52119,-22.15587 12.69134,3.4649 11.65601,13.96773 11.45658,22.59533 -15.28264,7.93861 -19.24897,15.52461 -26.52014,17.06568 -6.23715,1.32192 -10.60514,-3.24978 -8.04026,-3.36864 z"
     id="path3608"
     style="fill:#ececec;stroke:none" />
  <path
     d="m 291.93752,155.75 c -3.77587,-0.43301 -10.80794,0.48906 -16.30297,3.97245 l 12.71187,4.16314 c 2.42147,0.79303 4.82386,-7.99422 3.5911,-8.13559 z"
     id="path3610"
     style="fill:#ececec;stroke:none" />
  <path
     d="m 178.69428,183.55447 a 3.2808557,3.2359123 0 1 1 -6.56171,0 3.2808557,3.2359123 0 1 1 6.56171,0 z"
     transform="matrix(-1,0,0,1,385.34434,3.2584104)"
     id="path3612"
     style="fill:#207dbf;fill-opacity:1;stroke:none" />
  <path
     d="m 190.08513,208.96259 c -5.59816,5.21584 -1.49575,9.19349 -3.52549,10.43248 -1.23574,0.75431 -2.594,1.18102 -4.49087,1.28969 2.01418,0.58895 6.92189,-1.2154 7.7599,-2.25097 2.72155,-3.36323 2.52864,-9.55321 5.58222,-10.90675 2.96588,-1.31468 7.69373,8.97284 10.90091,16.67474 8.27474,19.87113 9.83639,40.45497 5.67702,60.12319 9.18129,3.1563 20.95832,13.78808 26.15343,23.15372 1.39957,2.52311 -17.51058,30.18496 -19.88297,26.9622 -2.54511,-3.4574 -4.92719,-6.47018 -7.62459,-7.11739 -1.95837,8.29641 -3.24716,22.84445 -7.15603,36.75179 3.18455,2.47785 6.57017,6.3741 7.90857,11.08631 0.3265,1.14956 -5.88413,4.41468 -6.5334,3.79433 -1.35547,-1.29513 -2.82625,-2.17127 -4.0214,-2.38083 1.30913,7.87092 0.54984,15.7955 -0.0687,23.98409 -0.54628,7.23187 16.07005,20.14839 18.11993,41.62422 -5.61579,0.50085 -15.56966,-5.34135 -25.44761,-5.13065 -9.97176,0.21271 -15.72622,5.30695 -24.03263,6.37534 3.7281,-18.31784 12.11782,-30.18106 16.4896,-38.58438 1.20897,-2.32386 -1.29611,-13.74921 -4.87397,-29.70959 -2.2346,0.85459 -5.88281,3.7926 -6.70318,2.56292 -5.78646,-8.6735 -13.92344,-10.64713 -12.2244,-13.17557 4.66559,-6.94313 8.51571,-13.22664 7.1359,-22.72939 -1.46507,-10.08983 -2.66928,-19.97089 -4.65081,-30.23245 -1.91125,5.4819 -3.63617,11.32436 -6.53924,14.88687 -5.01561,-5.51712 -8.12686,-11.55537 -10.44726,-17.81005 -0.78696,-2.12132 13.40283,-6.44348 16.32223,-22.02275 2.73025,-14.56989 4.87618,-31.18492 8.19076,-43.70966 5.82712,7.18554 12.72731,15.64102 23.85133,8.67866 -11.91822,5.57061 -17.88009,-3.37659 -23.3108,-10.0835 7.05666,-14.96475 4.58521,-24.02226 9.13172,-29.90224 3.89995,-5.04381 10.18846,-4.38468 8.30985,-2.63438 l -2e-5,0 z"
     id="path3614"
     style="fill:#ececec;stroke:none" />
  <path
     d="m 152.83157,303.27087 c 3.15899,-2.11316 7.92375,-7.36648 9.85923,-13.57803 l -12.38568,5.05153 c -2.35933,0.96227 1.4951,9.2164 2.52645,8.5265 z"
     id="path3616"
     style="fill:#ececec;stroke:none" />
  <path
     d="m 178.69428,183.55447 a 3.2808557,3.2359123 0 1 1 -6.56171,0 3.2808557,3.2359123 0 1 1 6.56171,0 z"
     transform="matrix(0.7624216,-0.6470806,-0.6470806,-0.7624216,180.29054,479.97548)"
     id="path3618"
     style="fill:#207dbf;fill-opacity:1;stroke:none" />
</svg>
