<?xml version="1.0" encoding="UTF-8" standalone="no"?>
<!-- Created with Inkscape (http://www.inkscape.org/) -->

<svg
   xmlns:svg="http://www.w3.org/2000/svg"
   xmlns="http://www.w3.org/2000/svg"
   xmlns:xlink="http://www.w3.org/1999/xlink"
   version="1.1"
   width="420"
   height="480"
   id="svg4228">
  <defs
     id="defs4232">
    <linearGradient
       id="linearGradient3639">
      <stop
         id="stop3641"
         style="stop-color:#ffffff;stop-opacity:1"
         offset="0" />
      <stop
         id="stop3643"
         style="stop-color:#ffffff;stop-opacity:0"
         offset="1" />
    </linearGradient>
    <linearGradient
       x1="0"
       y1="109.38787"
       x2="419.94095"
       y2="109.38787"
       id="linearGradient2857"
       xlink:href="#linearGradient3639"
       gradientUnits="userSpaceOnUse" />
  </defs>
  <path
     d="M 0,0 C 139.98032,0 279.96064,0 419.94096,0 419.92998,114.99797 399.25139,350.14732 209.85028,479.99815 22.387494,350.08886 0.08763414,115.02225 0,0 z"
     id="path4240-0"
     style="color:#000000;fill:#d61a1a;fill-opacity:1;fill-rule:nonzero;stroke:none;marker:none;visibility:visible;display:inline;overflow:visible;enable-background:accumulate" />
  <path
     d="m 191.18944,284.97137 c 19.43519,4.82579 42.31965,-1.41332 58.30612,-3.55723 7.64834,-1.02508 13.66011,0.82917 17.52981,4.57324 4.85969,-1.30107 13.86385,-2.73426 13.59205,1.14296 -0.35427,5.06852 -5.49116,5.77899 -9.90751,6.09739 3.35394,5.67504 3.02708,11.06649 3.42887,16.51396 3.91831,-0.11325 7.02237,-1.03308 13.20209,6.5687 6.1797,7.60181 27.19372,28.74542 27.19372,28.74542 2.15946,2.21366 -1.13061,8.07103 -2.96866,6.4722 l -35.03785,-30.48074 c -7.68958,2.33942 -20.72074,3.80608 -25.42431,-0.15263 -2.13884,-1.80084 -6.20582,0.33012 -1.86178,3.71174 7.15239,5.56856 26.35647,1.3799 28.90058,3.60301 l 30.04018,26.24845 c 1.19349,1.04341 -1.69393,7.9642 -3.93793,6.09761 l -29.22245,-24.30913 c -14.69449,-0.16389 -59.43103,8.65983 -64.65152,-13.16428 l -35.18733,0 c 4.30262,11.99662 -12.90541,8.59835 -30.74087,4.95375 l 15.87838,20.95992 c 1.35151,1.78354 -3.22972,10.90388 -5.4964,8.09878 l -32.10421,-39.72926 c -1.58982,-1.96887 -1.32675,-6.13975 5.84385,-4.31916 -0.49174,-4.7004 -10.71762,-11.00256 -15.68874,-13.1891 l 7.17745,29.57523 c 0.65306,2.69043 -6.21025,10.33569 -7.11353,7.11362 L 99.728719,289.4186 c -0.952005,-3.39616 5.763641,-8.3394 9.018631,-6.35184 l 21.45554,13.09928 c 3.82662,-15.02056 15.44074,-26.56678 28.50658,-39.19926 -5.20506,-2.63605 -8.62211,-6.25892 -11.07523,-9.35321 -3.46113,-2.34683 -10.12275,-1.55304 -10.17823,-9.00664 -0.006,-2.28694 1.25427,-4.79738 5.84303,-6.35169 4.93879,-1.67247 17.08884,3.37124 26.91769,0.43394 l -21.41491,-16.44881 c -5.17143,-3.97213 -20.69901,-0.12461 -20.74551,-3.67486 -0.0431,-3.20515 7.01265,-3.35291 13.1145,-10.29581 6.55015,-7.45257 2.64059,-17.71553 7.71768,-18.0316 5.48238,-0.3414 0.56751,8.15065 5.97201,17.72177 6.5836,11.65723 19.95906,25.70754 32.13655,33.34384 10.61166,6.65442 21.54804,13.67143 28.9634,12.95742 29.14228,-2.80923 11.84963,-57.69956 -42.17412,-55.51208 -3.68335,0.14925 -2.34908,-16.05324 -0.11938,-15.57836 7.90178,1.68417 20.97645,8.38354 26.84901,11.37097 -0.0646,-3.19814 -0.005,-5.88792 2.74201,-5.70084 4.37965,0.29638 2.76033,5.15171 3.93791,7.87563 47.48548,24.45488 33.88362,65.6156 10.41629,65.54729 -11.97053,-0.033 -18.46303,-4.23987 -24.51626,-8.38379 l 7.62156,11.81379 c 1.34173,2.07953 -5.10491,5.23201 -8.0028,3.4291 -4.15546,-2.58436 -5.8298,-7.31612 -7.74867,-11.81376 -9.60549,7.95578 4.01572,22.82587 6.22445,33.66351 z"
     id="path2825"
     style="fill:#ececec;stroke:none" />
  <path
     d="m 292.35519,115.86337 c 15.6491,3.88583 34.07568,-1.13801 46.94806,-2.86423 6.15839,-0.82537 10.9992,0.66768 14.115,3.68242 3.91301,-1.0476 11.16325,-2.2017 10.94437,0.92036 -0.28518,4.0811 -4.42142,4.65318 -7.97761,4.90963 2.70063,4.56939 2.4374,8.91063 2.76107,13.29697 3.15496,-0.0915 5.65443,-0.8319 10.63022,5.28917 4.97598,6.12089 21.89647,23.14577 21.89647,23.14577 1.73883,1.78253 -0.91032,6.49876 -2.39032,5.21136 l -28.21264,-24.54299 c -6.19165,1.88372 -16.68433,3.06457 -20.47167,-0.12302 -1.7222,-1.44993 -4.99685,0.26586 -1.49911,2.98871 5.75925,4.48391 21.22239,1.1111 23.2709,2.90119 l 24.18832,21.13537 c 0.96102,0.84013 -1.36402,6.41272 -3.1708,4.90964 l -23.52998,-19.57363 c -11.83198,-0.13197 -47.85394,6.9729 -52.0574,-10.59997 l -28.33293,0 c 3.46451,9.65974 -10.3915,6.92339 -24.75251,3.9888 l 12.78529,16.87689 c 1.08817,1.4362 -2.60056,8.77994 -4.42582,6.52126 l -25.8502,-31.99013 c -1.28028,-1.5852 -1.06845,-4.94359 4.70544,-3.47769 -0.39598,-3.7848 -8.6298,-8.8593 -12.63261,-10.61996 l 5.77927,23.81409 c 0.5258,2.16627 -5.00044,8.32221 -5.72774,5.72783 l -10.63739,-37.94686 c -0.76656,-2.73466 4.64098,-6.71484 7.26177,-5.11452 l 17.27612,10.54757 c 3.08112,-12.09463 12.43291,-21.39154 22.95355,-31.563236 -4.19118,-2.122604 -6.94253,-5.039664 -8.9179,-7.531258 -2.78682,-1.889654 -8.15085,-1.250426 -8.19541,-7.252082 -0.006,-1.84153 1.00983,-3.862881 4.70483,-5.114377 3.97657,-1.346753 13.75992,2.714359 21.67399,0.349315 L 258.22456,60.521129 c -4.16406,-3.19828 -16.6668,-0.100253 -16.70427,-2.958965 -0.0347,-2.580821 5.6466,-2.699819 10.55985,-8.290101 5.27419,-6.000846 2.12609,-14.264604 6.21429,-14.519146 4.41432,-0.274823 0.45684,6.562841 4.80861,14.269587 5.30113,9.386498 16.07112,20.699669 25.87645,26.848533 8.54442,5.358096 17.35035,11.008215 23.32133,10.433227 23.46535,-2.261976 9.54131,-46.459732 -33.95871,-44.698343 -2.96578,0.120267 -1.89149,-12.926134 -0.0961,-12.543652 6.36248,1.356151 16.89027,6.75037 21.61875,9.155888 -0.052,-2.575071 -0.005,-4.7409 2.20798,-4.59036 3.52642,0.238635 2.22252,4.148123 3.17078,6.341587 38.2354,19.691025 27.28311,52.833738 8.38727,52.778656 -9.63869,-0.0267 -14.86657,-3.41394 -19.74065,-6.75062 l 6.13688,9.512402 c 1.08047,1.674438 -4.11037,4.212878 -6.44378,2.761088 -3.34591,-2.080782 -4.69412,-5.890852 -6.23919,-9.51237 -7.73439,6.405982 3.23347,18.37933 5.01191,27.10584 z"
     id="path2823"
     style="fill:#ececec;stroke:none" />
  <path
     d="m 104.35519,115.86337 c 15.6491,3.88583 34.07568,-1.13801 46.94806,-2.86423 6.15839,-0.82537 10.9992,0.66768 14.115,3.68242 3.91301,-1.0476 11.16325,-2.2017 10.94437,0.92036 -0.28518,4.0811 -4.42142,4.65318 -7.97761,4.90963 2.70063,4.56939 2.4374,8.91063 2.76107,13.29697 3.15496,-0.0915 5.65443,-0.8319 10.63022,5.28917 4.97598,6.12089 21.89647,23.14577 21.89647,23.14577 1.73883,1.78253 -0.91032,6.49876 -2.39032,5.21136 l -28.21264,-24.54299 c -6.19165,1.88372 -16.68433,3.06457 -20.47167,-0.12302 -1.7222,-1.44993 -4.99685,0.26586 -1.49911,2.98871 5.75925,4.48391 21.22239,1.1111 23.2709,2.90119 l 24.18832,21.13537 c 0.96102,0.84013 -1.36402,6.41272 -3.1708,4.90964 l -23.52998,-19.57363 c -11.83198,-0.13197 -47.85394,6.9729 -52.0574,-10.59997 l -28.33293,0 c 3.464513,9.65974 -10.391504,6.92339 -24.75251,3.9888 l 12.785288,16.87689 c 1.088177,1.4362 -2.600557,8.77994 -4.42582,6.52126 L 49.2239,141.94694 c -1.280281,-1.5852 -1.068451,-4.94359 4.705438,-3.47769 -0.395977,-3.7848 -8.629796,-8.8593 -12.632612,-10.61996 l 5.779275,23.81409 c 0.525795,2.16627 -5.000438,8.32221 -5.727739,5.72783 L 30.710874,119.44435 c -0.766562,-2.73466 4.640979,-6.71484 7.261766,-5.11452 L 55.248762,124.8774 C 58.329883,112.78277 67.681668,103.48586 78.202312,93.314164 74.011128,91.19156 71.259785,88.2745 69.284413,85.782906 66.497589,83.893252 61.133563,84.53248 61.089,78.530824 c -0.0059,-1.84153 1.009825,-3.862881 4.704833,-5.114377 3.976572,-1.346753 13.759917,2.714359 21.673992,0.349315 L 70.224561,60.521129 c -4.164064,-3.19828 -16.666803,-0.100253 -16.704276,-2.958965 -0.03467,-2.580821 5.64661,-2.699819 10.559857,-8.290101 5.274193,-6.000846 2.126086,-14.264604 6.214293,-14.519146 4.414317,-0.274823 0.456831,6.562841 4.808602,14.269587 5.301135,9.386498 16.07112,20.699669 25.876453,26.848533 8.54442,5.358096 17.35035,11.008215 23.32133,10.433227 23.46535,-2.261976 9.54131,-46.459732 -33.958708,-44.698343 -2.965779,0.120267 -1.891494,-12.926134 -0.09614,-12.543652 6.362483,1.356151 16.890268,6.75037 21.618748,9.155888 -0.052,-2.575071 -0.005,-4.7409 2.20798,-4.59036 3.52642,0.238635 2.22252,4.148123 3.17078,6.341587 38.2354,19.691025 27.28311,52.833738 8.38727,52.778656 -9.63869,-0.0267 -14.86657,-3.41394 -19.74065,-6.75062 l 6.13688,9.512402 c 1.08047,1.674438 -4.11037,4.212876 -6.44378,2.761092 -3.34591,-2.080786 -4.69412,-5.890856 -6.23919,-9.512374 -7.734388,6.405982 3.23347,18.37933 5.01191,27.10584 z"
     id="path4236-4-8"
     style="fill:#ececec;stroke:none" />
</svg>
