<?xml version="1.0" encoding="UTF-8" standalone="no"?>
<!-- Created with Inkscape (http://www.inkscape.org/) -->

<svg
 xmlns:dc="http://purl.org/dc/elements/1.1/"
 xmlns:cc="http://creativecommons.org/ns#"
 xmlns:rdf="http://www.w3.org/1999/02/22-rdf-syntax-ns#"
 xmlns:svg="http://www.w3.org/2000/svg"
 xmlns="http://www.w3.org/2000/svg"
 xmlns:xlink="http://www.w3.org/1999/xlink"
 version="1.1"
 width="390"
 height="480"
 id="svg4228">
<metadata
 id="metadata10">
<rdf:RDF>
<cc:Work
 rdf:about="">
<dc:format>image/svg+xml</dc:format>
<dc:type
 rdf:resource="http://purl.org/dc/dcmitype/StillImage" />
<dc:title></dc:title>
</cc:Work>
</rdf:RDF>
</metadata>
<defs
 id="defs4232" />
<path
 d="M 0,0 C 130,0 260,0 390,0 389.98981,114.99797 370.78556,350.14732 194.88837,479.99815 20.79131,350.08886 0.081386,115.02225 0,0 z"
 id="path4240-0"
 style="fill:#d61a1a;fill-opacity:1;stroke:none" />
<path
 d="M 110.31539,20.925346 C 113.08292,76.277609 70.778402,50.748288 90.966192,118.62161 73.968796,99.871435 73.791776,83.881402 78.623285,72.74982 80.542649,68.327649 72.221211,54.182533 60.995588,46.167045 77.349143,89.340256 43.275824,84.750924 68.279769,142.27775 32.874828,104.40808 74.483119,105.66692 35.399811,70.95348 c 10.935979,23.128377 -0.44042,41.26956 -1.653421,66.18055 -1.000768,20.55216 15.161504,35.85921 33.049471,47.66236 17.092662,11.2781 35.632779,21.35821 44.189899,35.18663 -1.6759,-19.19903 13.96003,-29.5939 34.20905,-37.40899 20.24866,-7.81508 24.37477,-8.19681 30.47864,-16.72684 18.15134,-25.36773 -11.21578,-47.37232 9.22832,-80.408108 -19.06758,5.812124 -20.56617,19.208748 -21.85741,33.313088 -0.70837,7.73447 -9.206,17.99202 -13.55372,19.98237 8.66321,-18.2826 5.73961,-31.77026 0.1295,-44.218308 -4.17232,-9.258218 0.40386,-25.229927 12.38942,-38.765077 -13.17798,3.522156 -31.23244,18.637871 -32.56611,28.619611 -2.41274,18.058614 13.67652,32.183074 -3.70327,45.564584 4.30366,-24.14494 -12.98137,-27.55248 -13.12415,-37.023547 -0.19401,-12.842127 10.19713,-19.231967 10.45052,-30.547707 0.21749,-9.73486 -4.46369,-28.692289 -12.75116,-41.43875 z"
 id="path4188-0"
 style="fill:#faf700;fill-opacity:1;stroke:none" />
<use
 transform="translate(172,2)"
 id="use3754"
 x="0"
 y="0"
 width="390"
 height="480"
 xlink:href="#path4188-0" />
<use
 transform="matrix(1.2511825,0,0,1.2511825,56.54515,149.744)"
 id="use3756"
 x="0"
 y="0"
 width="390"
 height="480"
 xlink:href="#path4188-0" />
</svg>
