<?xml version="1.0" encoding="UTF-8" standalone="no"?>
<!-- Created with Inkscape (http://www.inkscape.org/) -->

<svg
   xmlns:svg="http://www.w3.org/2000/svg"
   xmlns="http://www.w3.org/2000/svg"
   xmlns:xlink="http://www.w3.org/1999/xlink"
   version="1.1"
   width="390"
   height="480"
   id="svg4228">
  <defs
     id="defs4232">
    <linearGradient
       id="linearGradient3653">
      <stop
         id="stop3655"
         style="stop-color:#ffffff;stop-opacity:1"
         offset="0" />
      <stop
         id="stop3657"
         style="stop-color:#ffffff;stop-opacity:0"
         offset="1" />
    </linearGradient>
    <linearGradient
       x1="0"
       y1="109.87704"
       x2="390"
       y2="109.87704"
       id="linearGradient2898"
       xlink:href="#linearGradient3653"
       gradientUnits="userSpaceOnUse" />
  </defs>
  <path
     d="M 0,0 C 130,0 260,0 390,0 389.98981,114.99797 370.78556,350.14732 194.88837,479.99815 20.79131,350.08886 0.081386,115.02225 0,0 z"
     id="path4240-0"
     style="color:#000000;fill:#d61a1a;fill-opacity:1;fill-rule:nonzero;stroke:none;marker:none;visibility:visible;display:inline;overflow:visible;enable-background:accumulate" />
  <path
     d="m 47.460048,166.1165 c 23.383514,-1.7064 53.498292,15.41313 70.111432,30.38162 55.84826,50.31946 102.44648,103.18081 153.3463,152.98675 4.21373,4.12317 -3.16484,17.39793 -9.70774,11.68524 l -29.75241,-25.97719 c -6.88854,-6.01446 -21.69003,8.72404 -14.74138,16.98854 l 27.05582,32.17935 c 5.68827,6.76545 -5.59598,16.55578 -13.12343,8.98865 C 179.60832,342.04006 121.59894,282.88195 80.538264,237.30657 74.874229,231.01976 44.193582,188.66496 47.460048,166.1165 z"
     id="path2843"
     style="fill:#faf700;fill-opacity:1;stroke:none" />
  <path
     d="m 47.460048,46.028195 c 24.102605,-0.987313 53.498292,15.413133 70.111432,30.381623 55.84826,50.319452 148.46835,147.764482 199.36817,197.570422 4.21373,4.12317 -3.16484,17.39793 -9.70774,11.68524 L 277.4795,259.68829 c -6.88854,-6.01446 -21.69003,8.72404 -14.74138,16.98854 l 27.05582,32.17935 c 5.68827,6.76545 -5.59598,16.55578 -13.12343,8.98865 C 225.63019,266.53543 121.59894,162.79364 80.538265,117.21826 74.874225,110.93145 44.732901,70.194611 47.460048,46.028195 z"
     id="path3630"
     style="fill:#faf700;fill-opacity:1;stroke:none" />
  <path
     d="m 143.45878,24.814993 c 28.77671,2.428372 52.23988,15.592901 70.47098,31.460256 56.70453,49.352541 82.31191,81.608061 133.21173,131.414001 4.21373,4.12317 -3.16484,17.39793 -9.70774,11.68524 L 307.68134,173.3973 c -6.88854,-6.01446 -21.69003,8.72404 -14.74138,16.98854 l 27.05582,32.17935 c 5.68827,6.76545 -5.59598,16.55578 -13.12343,8.98865 -51.04032,-51.3094 -88.91513,-88.89476 -129.9758,-134.470141 -5.66404,-6.28681 -34.54696,-46.124792 -33.43777,-72.268706 z"
     id="path3632"
     style="fill:#faf700;fill-opacity:1;stroke:none" />
  <path
     d="m 67.95563,186.08104 c 6.401485,-7.19136 42.51549,20.77316 52.81787,29.58009 15.98796,13.66719 30.56827,29.3148 45.20671,44.88062 1.80735,1.92186 -2.17946,6.47456 -5.02762,3.81515 -17.21514,-16.07423 -34.47293,-32.14735 -53.56319,-48.17361 -4.69674,-3.9429 -11.635444,1.10949 -7.654389,6.57981 13.233629,18.18417 29.530949,36.29002 45.540199,54.40318 2.25804,2.5548 -2.21126,7.32436 -4.82493,4.70912 C 122.25414,263.6683 104.11681,245.45968 90.136172,227.14475 83.544089,218.50899 62.465751,192.2483 67.95563,186.08104 z"
     id="path3634"
     style="fill:#d61a1a;fill-opacity:1;stroke:none" />
  <path
     d="m 68.218359,67.374957 c 6.926636,-6.953526 44.159501,21.630143 54.758741,30.604949 16.44866,13.927734 31.36345,29.779364 46.34159,45.551554 1.84929,1.94733 -2.46657,6.35113 -5.39076,3.64768 -17.67466,-16.34044 -35.39422,-32.68087 -55.04246,-49.021301 -4.834,-4.020202 -12.166638,0.730341 -8.22799,6.316721 12.92162,18.32737 30.97456,37.29038 48.47007,55.87198 2.3748,2.52222 -2.33118,6.98254 -5.20162,4.53736 C 123.87851,147.80656 104.65571,127.04275 90.443408,108.56709 83.742096,99.855541 62.278114,73.338257 68.218359,67.374957 z"
     id="path3636"
     style="fill:#d61a1a;fill-opacity:1;stroke:none" />
  <path
     d="m 167.50527,49.418749 c 6.94673,-6.824864 44.10009,21.423593 54.67433,30.289933 16.40985,13.759401 31.2803,29.408238 46.21433,44.979048 1.84383,1.92247 -2.48476,6.245 -5.40139,3.57501 -17.62906,-16.13817 -35.30301,-32.276457 -54.90573,-48.420431 -4.82282,-3.97187 -12.27103,0.754649 -8.24635,6.194137 13.37864,18.081664 31.76165,39.223704 49.07871,57.313974 2.37501,2.48105 -2.45074,6.9738 -5.21475,4.4514 -18.5975,-16.97184 -39.92968,-39.53673 -54.09013,-57.766664 -6.67686,-8.595685 -28.0665,-34.763446 -22.10902,-40.616407 z"
     id="path3638"
     style="fill:#d61a1a;fill-opacity:1;stroke:none" />
</svg>
