<?xml version="1.0" encoding="UTF-8" standalone="no"?>
<!-- Created with Inkscape (http://www.inkscape.org/) -->

<svg
   xmlns:svg="http://www.w3.org/2000/svg"
   xmlns="http://www.w3.org/2000/svg"
   version="1.1"
   width="390"
   height="480"
   id="svg4228">
  <defs
     id="defs4232" />
  <path
     d="m 0.51202379,0.50512952 c 129.66265621,0 259.32532621,0 388.98797621,0 C 389.48983,115.23328 370.33544,349.8309 194.89467,479.37706 21.249382,349.77255 0.5931986,115.2575 0.51202379,0.50512952 z"
     id="path4240-0-1"
     style="fill:#faf700;fill-opacity:1;stroke:#9e832a;stroke-width:0.99999905;stroke-opacity:1" />
  <path
     d="m 27.024157,212.76284 c 1.216689,-32.13604 46.491492,-39.86677 16.529443,-86.88266 70.19665,27.1778 -3.843899,89.00775 67.19413,116.8355 -41.363535,-50.85449 39.74543,-63.67895 3.77967,-117.94469 73.60052,23.72234 -3.67512,88.80125 66.59194,117.75982 -39.56691,-48.38829 42.1765,-69.01023 3.5262,-115.91117 75.10369,25.92922 -3.42605,82.96871 66.09544,114.30534 -37.24064,-48.95778 35.28276,-61.25554 5.92943,-114.98684 69.70187,23.48198 -2.82636,85.91908 61.99387,114.72387 -27.90925,-58.06318 36.18387,-60.52472 10.30805,-113.87767 53.14058,17.44483 16.10005,66.1219 34.26925,87.11969 -25.46386,96.1872 -74.28311,196.09947 -168.3164,264.87883 C 132.13036,432.29033 62.299285,349.20067 27.024157,212.76284 z"
     id="path2827"
     style="fill:#207dbf;fill-opacity:1;stroke:none" />
</svg>
