<?xml version="1.0" encoding="UTF-8" standalone="no"?>
<!-- Created with Inkscape (http://www.inkscape.org/) -->

<svg
 xmlns:dc="http://purl.org/dc/elements/1.1/"
 xmlns:cc="http://creativecommons.org/ns#"
 xmlns:rdf="http://www.w3.org/1999/02/22-rdf-syntax-ns#"
 xmlns:svg="http://www.w3.org/2000/svg"
 xmlns="http://www.w3.org/2000/svg"
 version="1.1"
 width="390"
 height="480"
 id="svg4228">
<metadata
 id="metadata8">
<rdf:RDF>
<cc:Work
 rdf:about="">
<dc:format>image/svg+xml</dc:format>
<dc:type
 rdf:resource="http://purl.org/dc/dcmitype/StillImage" />
<dc:title></dc:title>
</cc:Work>
</rdf:RDF>
</metadata>
<defs
 id="defs4232" />
<path
 d="M 0,0 C 130,0 260,0 390,0 389.98981,114.99797 370.78556,350.14732 194.88837,479.99815 20.79131,350.08886 0.081386,115.02225 0,0 z"
 id="path4240-0"
 style="fill:#d61a1a;fill-opacity:1;stroke:none" />
<path
 d="m 120.38136,90.508474 c 13.73733,-16.83737 30.91903,10.495146 43.85593,0.88983 -16.0553,-0.115821 -23.36291,-21.135318 -7.62712,-23.008474 -9.76985,-4.964394 -9.73451,-20.849082 4.19492,-24.025424 -4.35334,-10.524055 6.18174,-21.120349 20.4661,-18.559322 1.09329,-10.209751 23.95546,-15.111679 26.94915,2.288135 9.89567,-5.521703 26.55249,0.09855 18.4322,16.525424 11.23022,-0.439474 20.51144,16.059208 7.62712,25.423729 14.27223,10.513712 -6.3387,23.704514 -15.19519,19.777854 7.87295,9.369852 29.01974,-9.665334 45.57655,1.959434 -20.37561,0.352456 -27.17611,19.04677 -49.0678,10.29661 -1.16208,6.28491 16.25541,3.38288 18.17797,14.87288 -17.6559,-6.33561 -22.35869,6.72527 -34.95763,-4.06779 2.51173,13.41541 4.51487,29.22686 3.07086,43.4508 -4.85008,47.77483 -21.54384,96.44614 -0.14713,131.97292 -0.0703,-37.13757 23.86294,-62.8925 47.86017,-77.16101 -5.89388,1.54864 -12.56778,1.93007 -17.86017,0.95339 -0.73105,-2.03166 -0.65118,-4.1444 0.31262,-6.34554 -3.96599,2.05024 -13.65587,2.79046 -16.07534,-1.66294 1.54677,-1.46039 3.15404,-2.35179 4.28084,-3.21519 -5.22603,-1.61426 -9.29673,-5.73224 -11.65371,-9.87803 0.93596,-0.82028 3.51941,-1.66825 5.45599,-1.95705 -3.97733,-3.26871 -7.45323,-8.4395 -8.37972,-13.7421 2.00728,-0.59174 5.0315,-0.2691 7.03878,0.0709 -3.06054,-4.89174 -5.3961,-10.27951 -5.25912,-17.35902 1.70433,0.42719 3.41097,0.86133 5.28096,1.78548 -3.08806,-4.2502 -4.22106,-8.93486 -4.26401,-13.86175 2.04732,-0.52121 4.05288,-0.32331 5.8829,-0.0921 -1.62945,-3.65387 -1.64646,-8.15576 -0.79816,-11.98415 3.33307,0.22313 6.80637,1.44355 9.16121,3.35647 0.0785,-1.8964 0.93786,-4.46674 2.53371,-6.02596 3.38541,1.00482 8.43348,4.31439 11.31972,7.78407 0.0284,-1.26106 -0.62202,-2.88781 0.12096,-4.86034 6.47065,1.81461 9.31657,8.74649 13.09322,14.36441 -2.29946,-7.14652 -2.729,-13.4974 -2.22458,-18.81357 1.35913,0.48284 2.83896,1.08636 4.70329,2.07438 -2.58185,-3.88791 -2.14029,-11.07856 -0.69905,-16.05742 2.255,-0.6219 4.18992,-0.44362 6.11293,-0.23556 1.47573,-6.05227 3.73266,-7.9739 6.47181,-11.20512 2.64748,2.61423 4.9952,5.49491 6.13048,9.45333 0.84597,-1.3814 2.20534,-3.56938 3.21275,-4.30502 4.30991,4.48763 5.59084,13.56542 6.54466,18.38785 0.774,-1.66801 2.66753,-3.42476 5.08669,-4.21413 2.1423,4.44733 1.65324,12.74929 1.01695,18.68644 1.45909,-6.93442 4.27466,-15.23705 8.13559,-17.79661 1.48259,1.29132 2.73326,2.73724 3.70747,4.36748 2.03945,-4.38348 6.76415,-9.68388 10.46626,-11.6768 0.85313,1.89853 1.51678,4.05129 1.70986,4.86931 4.15945,-5.45906 8.53542,-7.16237 11.70116,-7.34812 0.3049,1.46365 -0.10442,3.31615 -0.44962,4.75526 8.02783,-4.87526 13.66553,-5.14336 15.44962,-5.26374 0.22098,1.82231 0.40973,3.67685 0.29701,5.83286 3.60162,-0.98844 7.66932,-1.20009 12.28773,-0.49388 -0.56145,4.11748 -1.51914,8.17834 -3.264,12.12676 2.35843,-0.0173 4.21961,0.22705 7.45892,1.09358 -0.46778,4.90241 -2.14592,9.66667 -5.45551,12.90242 2.00551,0.27771 3.91463,0.8928 5.58263,2.35182 -1.2266,4.36524 -3.53895,9.55151 -6.11565,12.56665 2.44952,0.56326 3.29143,1.93032 4.08175,3.32318 -3.27425,3.49533 -6.8624,5.48587 -9.97506,7.20364 0.94154,0.63466 2.01021,1.81787 2.7293,3.09297 -5.73206,4.01508 -12.53832,6.43775 -18.94068,7.43644 0.13225,-0.8596 16.24233,1.4309 16.3983,2.3517 0.17551,1.03616 -5.45541,4.66993 -5.84745,4.19491 4.57284,1.37851 9.95431,1.71734 13.47457,4.44916 -0.74117,1.53371 -1.95811,3.45676 -4.32203,5.21186 4.12369,0.94753 7.7829,2.82402 11.05932,5.4661 -2.52577,3.1331 -5.29772,5.46165 -9.91525,7.11865 1.46939,1.31356 3.05781,2.62711 3.05084,3.94067 -2.87771,2.08994 -6.10535,2.86763 -9.66101,2.41526 0.25994,1.6979 0.30234,3.47757 -0.19068,5.33898 -3.65032,1.28123 -6.9049,0.5838 -10.23305,0.25424 0.6122,1.61237 1.3232,3.12595 0.95338,5.72034 -4.52415,1.30644 -8.03597,0.99315 -11.75847,1.01695 2.86459,1.91509 6.74631,3.3488 8.00848,6.80084 -0.75329,0.93221 -2.52547,2.18221 -3.94068,3.11441 3.76376,3.63433 7.84589,8.79384 7.88136,14.74576 -1.44865,0.0768 -2.95844,0.0924 -4.57628,0 0.99043,4.23815 4.79876,9.01887 3.75001,16.08051 -3.03008,-0.45759 -4.26409,-1.09478 -5.65678,-1.71611 0.89026,6.87592 1.60244,14.75264 -0.69915,18.94068 -4.17535,-1.15991 -6.92424,-4.35762 -9.97882,-7.11864 0.2106,2.61372 0.058,5.18204 -1.08051,7.62712 -4.03098,0.53073 -7.59073,-0.82351 -11.12288,-2.28813 -0.82911,1.37712 -1.45792,2.75424 -2.92373,4.13135 -6.39725,-2.1848 -10.65995,-5.81657 -12.9661,-10.23305 -0.10083,1.39027 -0.75333,2.50469 -1.52543,3.55932 -5.17243,-1.93362 -7.71776,-6.09018 -10.80508,-9.78813 -0.53941,1.27231 -1.24177,2.32736 -2.28814,2.92373 -4.57281,-3.47631 -6.68134,-8.18475 -7.88135,-13.34746 -0.50845,1.05934 -1.52545,2.07625 -2.54238,2.98729 -2.45074,-4.95702 -3.25917,-11.82176 -3.55932,-17.60593 -1.1551,0.72961 -2.49549,0.90335 -3.81356,1.14406 -0.0289,-6.36856 1.81222,-12.52934 4.83051,-18.55932 -1.26649,1.45243 -2.71662,2.44575 -4.32203,3.05085 -0.83455,-4.77831 -0.17127,-10.05591 1.01695,-15.50848 -30.28353,19.59749 -46.11152,48.33566 -44.23729,90.50848 8.30773,-10.73027 18.74829,-12.39602 29.74576,-11.69492 -32.39238,15.55641 -27.54183,59.53497 -29.34285,82.56217 -0.8382,10.71678 -7.75387,29.33682 -11.58935,44.93783 -5.44587,-4.11349 -13.59497,-14.28979 -15.38136,-20.84745 25.97577,-69.78335 20.13328,-114.53946 -37.75423,-121.65255 4.38414,-10.94497 15.46882,-11.83914 30.38135,-6.99152 -14.7829,-30.25853 -36.94687,-44.88003 -46.65254,-51.61017 2.08045,4.41483 5.96221,8.72611 4.57627,15.12712 -1.39374,0.13626 -2.73082,0.38582 -4.70339,-0.6356 1.97266,4.57218 3.66597,9.19295 2.92373,14.23729 -1.16322,0.33491 -2.12448,0.26591 -3.05085,0.12712 0.69749,4.02193 0.35224,9.17349 -0.38135,14.74576 -2.62365,0.58802 -4.4243,-0.0585 -6.1017,-0.88983 0.45679,3.8535 -0.47079,8.61069 -1.77966,12.33051 -2.00175,0.0302 -3.89824,-0.93299 -5.72034,-2.92373 -3.61176,4.3403 -6.24311,9.54336 -11.18644,12.71187 -1.37349,-1.33059 -1.91572,-3.09661 -2.0339,-5.08475 -3.500117,2.94318 -7.339604,5.09449 -11.558761,6.3599 -1.72969,-1.86573 -2.24011,-3.73146 -2.805644,-5.59719 -1.340649,1.68284 -3.157382,4.725 -5.765282,6.56017 -2.417271,-0.94538 -6.349492,-3.88542 -8.599125,-6.05169 -2.149912,1.65868 -4.34069,2.82698 -6.61017,3.05085 -2.04509,-3.46252 -2.603663,-7.40073 -1.652542,-11.82204 -1.46455,0.28101 -3.570248,0.65818 -5.467425,0.20291 -2.146455,-2.90401 0.550991,-16.07956 2.08154,-18.31951 -1.881909,-0.90043 -4.288,-1.9737 -6.020895,-3.87492 0.304535,-5.12997 5.360661,-9.50854 9.025424,-12.33051 -1.986187,-0.36765 -3.549816,-1.49054 -4.830509,-2.41526 2.849078,-3.97953 6.962074,-7.41974 12.584746,-8.51695 -5.159301,-0.41875 -10.043667,-0.36331 -14.836972,-2.87746 0.141721,-1.83013 0.902825,-3.24297 1.870871,-4.74965 -4.429078,0.67811 -8.976004,1.7569 -12.833918,0.49305 0.02349,-1.71976 0.50669,-3.63315 2.028833,-4.94221 -4.482898,-1.02694 -8.812894,-2.23092 -11.059322,-5.84745 0.986791,-1.41482 2.351329,-2.35745 3.813559,-3.17797 -3.369444,-1.74319 -5.962185,-4.90791 -8.008475,-8.26271 2.933241,-3.02474 6.282281,-4.63575 9.812592,-5.63045 -0.869023,-1.27837 -1.053439,-3.30462 -0.914286,-4.9204 3.512492,-1.15917 7.273606,-0.70229 11.018347,-0.35184 -1.995493,-0.84813 -3.600797,-2.351 -4.463479,-3.81356 3.622053,-2.16433 9.30388,-2.69621 13.402759,-2.95324 -6.208303,-1.30959 -12.068831,-3.23913 -16.90678,-6.99153 0.658907,-1.25137 1.585724,-2.4262 3.08103,-3.43859 -5.984809,-2.84529 -12.025048,-6.40408 -14.607852,-12.06482 1.512551,-0.10172 3.239556,-0.41153 4.634217,0.1941 -2.960466,-4.26064 -6.057784,-11.46564 -6.507507,-16.32407 2.536755,-0.54921 4.161202,-0.72487 5.518756,-0.14628 -2.11515,-2.77063 -4.924285,-6.94002 -4.576271,-13.09322 1.694915,-0.50383 3.389831,-0.31259 5.084746,0.38135 -1.830915,-4.64997 -1.704528,-9.41507 -1.543492,-14.18221 4.934908,-0.84857 9.864081,-0.66811 16.935204,0.73584 -0.53135,-1.7565 -0.557545,-3.62525 -0.01036,-5.62142 4.624489,0.40594 9.333038,2.07276 14.076906,4.26938 -0.338247,-0.86568 -0.475688,-1.80667 0.137249,-3.02904 4.074107,1.55317 7.398407,3.94987 9.557031,7.65796 1.437872,-2.30805 2.745232,-3.57202 4.067797,-4.95762 4.960102,2.88554 8.223142,8.25533 10.598436,12.67088 0.424944,-1.17194 0.818257,-2.29449 1.78208,-3.0471 2.054405,0.403 5.292326,7.87656 7.958474,16.05418 -1.07478,-5.15498 -1.22997,-12.46103 1.14406,-16.90678 1.60753,0.91983 2.2954,1.51533 3.30509,2.28814 0.25617,-4.94607 2.86405,-11.57645 5.72034,-16.65254 1.79527,0.9783 2.97376,2.66061 3.61217,3.04799 1.0731,-3.39673 5.68943,-9.05395 8.52766,-10.80223 2.42996,1.86349 7.6364,9.35367 7.86386,12.40324 1.61408,-1.2916 2.8612,-1.84926 4.14886,-2.48799 1.89816,3.67344 1.5286,12.899 1.34861,16.74458 1.4561,-0.16296 3.57058,0.19317 4.88019,0.92491 0.46129,2.16958 -1.53098,12.50877 -3.71766,15.8845 0.0656,-0.67708 8.49937,-9.82886 12.87021,-10.60907 1.0038,0.74662 2.30139,2.36756 2.66949,3.62288 2.26029,-4.57254 8.31365,-7.3744 11.82203,-8.13559 1.28769,1.18867 2.58017,2.88102 3.04116,4.38791 2.77726,-1.88915 6.31392,-2.2595 9.92494,-2.48113 0.24687,4.1867 -0.95036,10.80968 -3.46272,14.1887 1.47587,-0.0605 5.12527,-0.4896 6.89493,1.19265 0.66674,0.81491 -6.19769,12.37552 -6.73729,10.9322 -0.42257,-1.13028 7.45904,1.18081 7.37288,1.52543 -2.10214,5.63001 -4.1432,11.31169 -8.38983,15.12712 1.73729,-0.17967 3.47457,0.095 5.21186,0.76271 -1.59785,7.612 -5.81188,11.5087 -7.23159,12.97974 1.56679,0.7165 2.76302,2.54817 3.54515,4.05416 -2.73422,4.0784 -7.16409,6.01988 -11.94915,6.8644 1.47986,0.75603 2.81995,1.83819 3.94068,3.43221 -4.97383,2.98169 -10.23366,5.19114 -16.39831,4.95762 1.81046,0.69387 3.78213,2.55841 4.83051,4.19492 -6.47717,3.58052 -12.69426,2.47965 -18.94068,1.90678 13.10323,7.63975 37.83089,31.9134 41.44068,45.12712 -5.80505,-47.75424 21.75673,-99.79231 5.4661,-148.6017 -12.46614,9.77458 -18.97803,-4.03915 -34.8305,8.64407 -0.82409,-5.05492 4.14456,-12.30305 13.08419,-16.90942 -26.02143,0.43443 -18.79608,-14.004207 -42.19436,-13.344816 l 0,-4e-5 z"
 id="path2827"
 style="fill:#faf700;fill-opacity:1;stroke:none" />
</svg>
