<?xml version="1.0" encoding="UTF-8" standalone="no"?>
<!-- Created with Inkscape (http://www.inkscape.org/) -->

<svg
   xmlns:svg="http://www.w3.org/2000/svg"
   xmlns="http://www.w3.org/2000/svg"
   version="1.1"
   width="390"
   height="480"
   id="svg4228">
  <defs
     id="defs4232" />
  <path
     d="M 0,0 C 130,0 260,0 390,0 389.98981,114.99797 370.78556,350.14732 194.88837,479.99815 20.79131,350.08886 0.081386,115.02225 0,0 z"
     id="path4240-0"
     style="fill:#207dbf;fill-opacity:1;stroke:none" />
  <path
     d="m 59.954266,156.94808 c 26.792578,33.41319 50.348634,67.73261 100.178454,94.69538 l -36.94333,19.50536 c 3.66847,16.1382 38.47966,44.46446 69.30245,42.96573 87.08252,-4.2343 84.26527,-112.35141 56.5018,-230.120907 l -70.9322,-25.010593 -0.0318,-42.997882 167.98729,21.022246 -4.03602,46.064619 C 327.3394,86.709339 319.66782,87.380594 318.05085,123.4322 311.56171,268.11231 355.90303,312.19504 167.57415,409.98941 101.95672,341.86637 62.337772,259.56235 59.954266,156.94808 z"
     id="path3638"
     style="fill:#f2f2f2;fill-opacity:1;stroke:none" />
</svg>
