<?xml version="1.0" encoding="UTF-8" standalone="no"?>
<!-- Created with Inkscape (http://www.inkscape.org/) -->

<svg
   xmlns:svg="http://www.w3.org/2000/svg"
   xmlns="http://www.w3.org/2000/svg"
   version="1.1"
   width="390"
   height="480"
   id="svg4228">
  <defs
     id="defs4232" />
  <path
     d="m 0.51202379,0.50512952 c 129.66265621,0 259.32532621,0 388.98797621,0 C 389.48983,115.23328 370.33544,349.8309 194.89467,479.37706 21.249382,349.77255 0.5931986,115.2575 0.51202379,0.50512952 z"
     id="path4240-0-1"
     style="fill:#faf700;fill-opacity:1;stroke:#9e832a;stroke-width:0.99999905;stroke-opacity:1" />
  <path
     d="M 6.257425,98.89079 C 26.40467,57.89321 84.656705,80.764759 120.0883,21.12964 138.75288,115.57818 31.629313,122.438 80.403434,228.76736 90.284429,144.02225 202.55052,169.47363 213.16169,83.31145 c 44.31147,127.44917 -92.82008,154.45675 -24.24808,237.39896 6.73293,-82.73852 111.07184,-68.15203 126.94729,-165.53276 40.56505,106.28193 -64.9853,156.604 -26.78499,225.50827 -22.06847,32.92568 -58.15839,72.5577 -94.1906,98.08692 C 109.24044,414.87825 28.356908,299.73065 6.257425,98.89079 z"
     id="path2827"
     style="fill:#d61a1a;fill-opacity:1;stroke:none" />
</svg>
